<?xml version="1.0" encoding="iso-8859-1"?>
<!-- Generator: Adobe Illustrator 16.0.0, SVG Export Plug-In . SVG Version: 6.00 Build 0)  -->
<!DOCTYPE svg PUBLIC "-//W3C//DTD SVG 1.1//EN" "http://www.w3.org/Graphics/SVG/1.1/DTD/svg11.dtd">
<svg version="1.1" id="Capa_1" xmlns="http://www.w3.org/2000/svg" xmlns:xlink="http://www.w3.org/1999/xlink" x="0px" y="0px"
	 viewBox="0 0 47 47.001" style="enable-background:new 0 0 47 47.001;" xml:space="preserve">
<g>
	<g id="Layer_1_68_">
		<g>
			<path d="M46.641,40.225l-6-5.001c-0.298-0.247-0.715-0.302-1.063-0.138c-0.353,0.164-0.576,0.519-0.576,0.905v3h-31v-31H11
				c0.007-0.002,0.015-0.002,0.02,0c0.554,0,1.001-0.447,1.001-1c0-0.307-0.138-0.582-0.355-0.766L6.769,0.351
				c-0.381-0.455-1.156-0.455-1.537,0l-5,6C-0.017,6.649-0.07,7.064,0.095,7.415c0.164,0.352,0.518,0.576,0.904,0.576H4v33
				c0,1.104,0.895,2,2,2h33v3c0,0.389,0.225,0.741,0.576,0.905c0.136,0.062,0.279,0.095,0.425,0.095c0.229,0,0.456-0.079,0.64-0.23
				l6-5.001C46.87,41.57,47,41.288,47,40.991C47,40.695,46.869,40.414,46.641,40.225z"/>
			<path d="M10.999,30.992c0,1.656,1.344,2.999,3.001,2.999h20c1.657,0,3-1.343,3-2.999c0-1.658-1.343-3.001-3-3.001H14
				C12.343,27.991,10.999,29.334,10.999,30.992z"/>
			<path d="M14,25.991h10c1.658,0,3-1.343,3-3s-1.343-3-3-3H14c-1.657,0-3.001,1.343-3.001,3S12.343,25.991,14,25.991z"/>
			<path d="M10.999,14.991c0,1.657,1.344,3,3.001,3h15c1.657,0,3-1.343,3-3c0-1.658-1.343-3-3-3H14
				C12.343,11.991,10.999,13.333,10.999,14.991z"/>
		</g>
	</g>
</g>
<g>
</g>
<g>
</g>
<g>
</g>
<g>
</g>
<g>
</g>
<g>
</g>
<g>
</g>
<g>
</g>
<g>
</g>
<g>
</g>
<g>
</g>
<g>
</g>
<g>
</g>
<g>
</g>
<g>
</g>
</svg>
