<?xml version="1.0" encoding="iso-8859-1"?>
<!-- Generator: Adobe Illustrator 16.0.0, SVG Export Plug-In . SVG Version: 6.00 Build 0)  -->
<!DOCTYPE svg PUBLIC "-//W3C//DTD SVG 1.1//EN" "http://www.w3.org/Graphics/SVG/1.1/DTD/svg11.dtd">
<svg version="1.1" id="Capa_1" xmlns="http://www.w3.org/2000/svg" xmlns:xlink="http://www.w3.org/1999/xlink" x="0px" y="0px"
	 width="47px" height="47px" viewBox="0 0 47 47" style="enable-background:new 0 0 47 47;" xml:space="preserve">
<g>
	<g id="Layer_1_114_">
		<g>
			<path d="M7.371,19.227H2.137C0.957,19.227,0,20.184,0,21.364v23.5C0,46.043,0.957,47,2.137,47h5.234
				c1.18,0,2.136-0.957,2.136-2.136v-23.5C9.507,20.184,8.551,19.227,7.371,19.227z"/>
			<path d="M19.869,25.635h-5.234c-1.181,0-2.137,0.957-2.137,2.137v17.09c0,1.181,0.956,2.137,2.137,2.137h5.234
				c1.18,0,2.136-0.957,2.136-2.137v-17.09C22.005,26.592,21.049,25.635,19.869,25.635z"/>
			<path d="M32.365,25.635h-5.234c-1.18,0-2.136,0.957-2.136,2.137v17.09c0,1.181,0.956,2.137,2.136,2.137h5.234
				c1.181,0,2.137-0.957,2.137-2.137v-17.09C34.502,26.592,33.546,25.635,32.365,25.635z"/>
			<path d="M44.863,19.227h-5.234c-1.18,0-2.136,0.957-2.136,2.137v23.5c0,1.18,0.956,2.136,2.136,2.136h5.234
				C46.043,47,47,46.042,47,44.864v-23.5C47,20.184,46.043,19.227,44.863,19.227z"/>
			<path d="M24.123,12.87v3.846c1.164-0.077,2.391-0.623,2.391-1.904C26.514,13.49,25.169,13.103,24.123,12.87z"/>
			<path d="M20.778,8.267c0,0.972,0.723,1.534,2.18,1.826V6.614C21.634,6.653,20.778,7.431,20.778,8.267z"/>
			<path d="M23.5,0C17.021,0,11.75,5.272,11.75,11.75c0,6.476,5.271,11.748,11.75,11.748c6.479,0,11.75-5.272,11.75-11.748
				C35.25,5.272,29.979,0,23.5,0z M24.123,18.699v1.203c0,0.331-0.254,0.661-0.586,0.661c-0.328,0-0.579-0.33-0.579-0.661v-1.203
				c-3.283-0.08-4.916-2.042-4.916-3.577c0-0.775,0.469-1.223,1.203-1.223c2.176,0,0.484,2.681,3.713,2.816v-4.06
				c-2.88-0.523-4.624-1.786-4.624-3.942c0-2.641,2.196-4.003,4.624-4.079V3.598c0-0.331,0.251-0.661,0.579-0.661
				c0.332,0,0.586,0.33,0.586,0.661v1.036c1.514,0.04,4.623,0.99,4.623,2.895c0,0.757-0.566,1.203-1.227,1.203
				c-1.264,0-1.246-2.077-3.396-2.117v3.691c2.564,0.545,4.835,1.302,4.835,4.294C28.958,17.202,27.016,18.522,24.123,18.699z"/>
		</g>
	</g>
</g>
<g>
</g>
<g>
</g>
<g>
</g>
<g>
</g>
<g>
</g>
<g>
</g>
<g>
</g>
<g>
</g>
<g>
</g>
<g>
</g>
<g>
</g>
<g>
</g>
<g>
</g>
<g>
</g>
<g>
</g>
</svg>
