<?xml version="1.0" encoding="iso-8859-1"?>
<!-- Generator: Adobe Illustrator 16.0.0, SVG Export Plug-In . SVG Version: 6.00 Build 0)  -->
<!DOCTYPE svg PUBLIC "-//W3C//DTD SVG 1.1//EN" "http://www.w3.org/Graphics/SVG/1.1/DTD/svg11.dtd">
<svg version="1.1" id="Capa_1" xmlns="http://www.w3.org/2000/svg" xmlns:xlink="http://www.w3.org/1999/xlink" x="0px" y="0px"
	 width="47.001px" height="47.001px" viewBox="0 0 47.001 47.001" style="enable-background:new 0 0 47.001 47.001;"
	 xml:space="preserve">
<g>
	<g id="Layer_1_156_">
		<g>
			<path d="M7.443,22.542H2.232c-1.174,0-2.126,0.953-2.126,2.126v20.205c0,1.174,0.952,2.127,2.126,2.127h5.211
				c1.174,0,2.126-0.953,2.126-2.127V24.669C9.57,23.495,8.619,22.542,7.443,22.542z"/>
			<path d="M19.885,28.923h-5.211c-1.174,0-2.126,0.952-2.126,2.127v13.824c0,1.174,0.952,2.127,2.126,2.127h5.211
				c1.174,0,2.126-0.953,2.126-2.127V31.05C22.013,29.875,21.061,28.923,19.885,28.923z"/>
			<path d="M32.327,28.923h-5.211c-1.175,0-2.127,0.952-2.127,2.127v13.824c0,1.174,0.952,2.127,2.127,2.127h5.211
				c1.174,0,2.125-0.953,2.125-2.127V31.05C34.454,29.875,33.501,28.923,32.327,28.923z"/>
			<path d="M44.769,22.542h-5.211c-1.174,0-2.126,0.953-2.126,2.126v20.205c0,1.174,0.952,2.127,2.126,2.127h5.211
				c1.174,0,2.126-0.953,2.126-2.127V24.669C46.896,23.495,45.942,22.542,44.769,22.542z"/>
			<path d="M29.091,4.274c-0.076-0.08-0.17-0.137-0.269-0.169l-6.095-1.91c-2.435-0.768-4.021,0.567-4.446,0.998
				c-0.25,0.25-0.439,0.509-0.54,0.742l-2.713,6.384c-0.155,0.359-0.102,0.85,0.141,1.339c0.352,0.69,0.979,1.19,1.729,1.372
				c0.841,0.198,1.714-0.079,2.397-0.761c0.181-0.173,0.33-0.374,0.42-0.538l0.914-1.69c0.147-0.28,0.365-0.576,0.596-0.803
				c0.783-0.782,1.154-0.429,1.312-0.275c1.366,1.323,8.521,8.505,8.521,8.505c0.257,0.253,0.2,0.74-0.115,1.056
				c-0.319,0.314-0.803,0.372-1.056,0.12l-2.01-2.015c-0.262-0.257-0.676-0.257-0.938,0c-0.261,0.264-0.261,0.679,0,0.937
				l2.01,2.015c0.254,0.251,0.201,0.738-0.117,1.054c-0.317,0.316-0.801,0.372-1.053,0.111l-2.011-2.006
				c-0.261-0.257-0.681-0.257-0.937,0c-0.261,0.255-0.261,0.68,0,0.937l2.01,2.015c0.253,0.252,0.197,0.73-0.118,1.047
				c-0.315,0.323-0.798,0.372-1.056,0.119l-2.01-2.007c-0.256-0.264-0.676-0.264-0.937,0c-0.255,0.257-0.255,0.673,0,0.937
				l2.011,2.006c0.257,0.253,0.2,0.74-0.114,1.056c-0.32,0.317-0.804,0.373-1.057,0.12l-2.448-2.453
				c0.348-0.526,0.253-1.285-0.264-1.809c-0.58-0.575-1.476-0.63-1.993-0.118c0.517-0.512,0.466-1.408-0.114-1.983
				c-0.585-0.585-1.476-0.64-1.992-0.12c0.516-0.52,0.465-1.406-0.12-1.99c-0.58-0.585-1.471-0.641-1.992-0.12
				c0.521-0.521,0.465-1.406-0.115-1.992c-0.544-0.54-1.355-0.618-1.883-0.199l-3.965-3.97c-0.257-0.257-0.677-0.257-0.938,0
				c-0.255,0.264-0.255,0.68,0,0.937l3.954,3.954l-1.17,1.175c-0.516,0.521-0.466,1.406,0.117,1.992
				c0.583,0.583,1.473,0.63,1.99,0.118c-0.517,0.512-0.465,1.408,0.12,1.992c0.579,0.576,1.471,0.632,1.991,0.11
				c-0.52,0.521-0.465,1.416,0.115,1.992c0.585,0.587,1.476,0.641,1.992,0.119c-0.516,0.521-0.466,1.407,0.12,1.992
				c0.58,0.585,1.47,0.63,1.987,0.118l1.241-1.239l2.43,2.432c0.776,0.774,2.087,0.72,2.927-0.12
				c0.408-0.407,0.628-0.934,0.658-1.445c0.517-0.03,1.041-0.249,1.449-0.663c0.413-0.41,0.631-0.927,0.662-1.447
				c0.518-0.03,1.037-0.249,1.449-0.657c0.409-0.409,0.627-0.933,0.658-1.453c0.516-0.03,1.042-0.25,1.449-0.659
				c0.84-0.84,0.891-2.151,0.117-2.928l-1.022-1.026l4.207-4.207c0.259-0.255,0.259-0.679,0-0.937L29.091,4.274z"/>
			<path d="M39.063,5.752l-5.361-5.362c-0.518-0.521-1.356-0.521-1.877,0l-1.873,1.873c-0.517,0.52-0.517,1.36,0,1.872l5.365,5.363
				c0.518,0.521,1.357,0.521,1.875,0l1.872-1.874C39.581,7.112,39.581,6.271,39.063,5.752z M36.249,8.485
				c-0.6,0-1.084-0.489-1.084-1.088S35.65,6.31,36.249,6.31c0.602,0,1.088,0.489,1.088,1.088S36.851,8.485,36.249,8.485z"/>
		</g>
	</g>
</g>
<g>
</g>
<g>
</g>
<g>
</g>
<g>
</g>
<g>
</g>
<g>
</g>
<g>
</g>
<g>
</g>
<g>
</g>
<g>
</g>
<g>
</g>
<g>
</g>
<g>
</g>
<g>
</g>
<g>
</g>
</svg>
