<?xml version="1.0" encoding="iso-8859-1"?>
<!-- Generator: Adobe Illustrator 16.0.0, SVG Export Plug-In . SVG Version: 6.00 Build 0)  -->
<!DOCTYPE svg PUBLIC "-//W3C//DTD SVG 1.1//EN" "http://www.w3.org/Graphics/SVG/1.1/DTD/svg11.dtd">
<svg version="1.1" id="Capa_1" xmlns="http://www.w3.org/2000/svg" xmlns:xlink="http://www.w3.org/1999/xlink" x="0px" y="0px"
	 width="47px" height="47px" viewBox="0 0 47 47" style="enable-background:new 0 0 47 47;" xml:space="preserve">
<g>
	<g id="Layer_1_33_">
		<g>
			<path d="M9.702,33.114H3.292c-1.18,0-2.136,0.956-2.136,2.136v9.614c0,1.18,0.957,2.136,2.136,2.136h6.409
				c1.18,0,2.137-0.957,2.137-2.136V35.25C11.838,34.07,10.881,33.114,9.702,33.114z"/>
			<path d="M26.266,25.636h-6.409c-1.18,0-2.136,0.957-2.136,2.138v17.091c0,1.18,0.957,2.136,2.136,2.136h6.409
				c1.18,0,2.137-0.957,2.137-2.136V27.773C28.403,26.593,27.446,25.636,26.266,25.636z"/>
			<path d="M42.833,17.091h-6.409c-1.18,0-2.137,0.957-2.137,2.136v25.637c0,1.18,0.957,2.136,2.137,2.136h6.409
				c1.18,0,2.137-0.957,2.137-2.136V19.227C44.969,18.047,44.014,17.091,42.833,17.091z"/>
			<circle cx="39.628" cy="1.521" r="1.521"/>
			<path d="M45.671,1.028c-0.282-0.379-0.819-0.456-1.198-0.172l-3.486,2.61h-0.551c-0.235,0-0.44,0.102-0.595,0.257l0.399,2.928
				L39.628,7.17l-0.612-0.519l0.399-2.928c-0.155-0.155-0.358-0.257-0.595-0.257H38.27l-3.485-2.61
				c-0.378-0.284-0.916-0.207-1.199,0.172c-0.284,0.379-0.207,0.916,0.172,1.199l3.716,2.781c0.143,0.107,0.313,0.166,0.491,0.17
				v3.868l-1.582,5.536c-0.13,0.455,0.134,0.93,0.589,1.06c0.077,0.022,0.157,0.033,0.235,0.033c0.373,0,0.716-0.246,0.823-0.622
				l1.598-5.594l1.598,5.594c0.107,0.376,0.451,0.622,0.824,0.622c0.078,0,0.158-0.011,0.236-0.033
				c0.455-0.13,0.718-0.604,0.588-1.06l-1.582-5.536V5.179c0.178-0.004,0.35-0.063,0.492-0.17L45.5,2.227
				C45.877,1.943,45.957,1.407,45.671,1.028z"/>
		</g>
	</g>
</g>
<g>
</g>
<g>
</g>
<g>
</g>
<g>
</g>
<g>
</g>
<g>
</g>
<g>
</g>
<g>
</g>
<g>
</g>
<g>
</g>
<g>
</g>
<g>
</g>
<g>
</g>
<g>
</g>
<g>
</g>
</svg>
