<?xml version="1.0" encoding="iso-8859-1"?>
<!-- Generator: Adobe Illustrator 16.0.0, SVG Export Plug-In . SVG Version: 6.00 Build 0)  -->
<!DOCTYPE svg PUBLIC "-//W3C//DTD SVG 1.1//EN" "http://www.w3.org/Graphics/SVG/1.1/DTD/svg11.dtd">
<svg version="1.1" id="Capa_1" xmlns="http://www.w3.org/2000/svg" xmlns:xlink="http://www.w3.org/1999/xlink" x="0px" y="0px"
	 width="47px" height="47px" viewBox="0 0 47 47" style="enable-background:new 0 0 47 47;" xml:space="preserve">
<g>
	<g id="Layer_1_122_">
		<path d="M38.642,39.289c-3.895-3.373-2.645-7.564-0.338-13.896c1.898-5.21,4.051-11.118,1.445-16.945
			c-1.789-4.001-6.2-8.319-13.215-8.442L25.963,0c-2.518,0-6.289,0.283-9.953,2.734c-0.286,0.191-0.462,0.51-0.472,0.855
			c-0.01,0.345,0.148,0.672,0.424,0.879c0.583,0.438,0.94,1.313,1.138,2.049c-2.711,0.486-3.37,1.934-4.01,3.34
			c-0.676,1.486-1.443,3.17-5.15,4.794c-1.008,0.442-1.693,1.499-1.789,2.757c-0.092,1.221,0.412,2.334,1.315,2.905
			c0.385,0.244,0.778,0.269,1.094,0.289c0.382,0.025,0.657,0.043,1.07,0.409c0.327,0.292,0.593,0.621,0.827,0.912
			c0.388,0.481,0.722,0.896,1.268,1.021c0.77,0.181,1.694-0.278,2.761-0.843c0.693-0.368,1.479-0.784,2.073-0.904
			c0.754-0.15,1.721-0.323,2.52-0.323c0.684,0,0.909,0.134,0.928,0.114c0.18,1.047-1.972,2.48-3.87,3.745
			c-3.333,2.224-7.481,4.988-6.394,9.455c0.17,0.699,0.523,2.123,3.82,3.819C6.66,39.331,1.21,41.742,1.21,43.609
			c0,1.244,1.142,2.041,7.165,2.703C12.421,46.757,17.793,47,23.5,47s11.079-0.243,15.125-0.688
			c6.022-0.662,7.165-1.459,7.165-2.703C45.79,42.247,42.89,40.596,38.642,39.289z"/>
	</g>
</g>
<g>
</g>
<g>
</g>
<g>
</g>
<g>
</g>
<g>
</g>
<g>
</g>
<g>
</g>
<g>
</g>
<g>
</g>
<g>
</g>
<g>
</g>
<g>
</g>
<g>
</g>
<g>
</g>
<g>
</g>
</svg>
