<?xml version="1.0" encoding="iso-8859-1"?>
<!-- Generator: Adobe Illustrator 16.0.0, SVG Export Plug-In . SVG Version: 6.00 Build 0)  -->
<!DOCTYPE svg PUBLIC "-//W3C//DTD SVG 1.1//EN" "http://www.w3.org/Graphics/SVG/1.1/DTD/svg11.dtd">
<svg version="1.1" id="Capa_1" xmlns="http://www.w3.org/2000/svg" xmlns:xlink="http://www.w3.org/1999/xlink" x="0px" y="0px"
	 width="47px" height="47px" viewBox="0 0 47 47" style="enable-background:new 0 0 47 47;" xml:space="preserve">
<g>
	<g id="Layer_1_129_">
		<g>
			<g>
				<path d="M20.71,15.82c0.233-2.532,1.131-4.87,2.518-6.847C22.1,3.848,17.527,0,12.07,0C5.77,0,0.643,5.127,0.643,11.429
					c0,5.484,3.884,10.075,9.046,11.174C12.286,19.064,16.201,16.563,20.71,15.82z M7.499,14.149c0-0.416,0.319-0.737,0.736-0.737
					h2.345v-0.548l-0.321-0.548H8.234c-0.417,0-0.736-0.321-0.736-0.737s0.319-0.737,0.736-0.737h1.153l-2.494-4.1
					c-0.132-0.227-0.264-0.51-0.264-0.775c0-1.039,0.964-1.379,1.624-1.379c0.794,0,1.153,0.624,1.286,0.888l2.532,4.819l2.53-4.819
					c0.135-0.264,0.492-0.888,1.284-0.888c0.662,0,1.625,0.341,1.625,1.379c0,0.265-0.132,0.548-0.263,0.774l-2.495,4.101h1.152
					c0.415,0,0.736,0.321,0.736,0.737s-0.321,0.737-0.736,0.737h-2.021l-0.321,0.548v0.548h2.343c0.415,0,0.736,0.321,0.736,0.737
					s-0.321,0.737-0.736,0.737h-2.343v1.87c0,0.907-0.549,1.512-1.491,1.512c-0.945,0-1.492-0.605-1.492-1.512v-1.87H8.234
					C7.817,14.886,7.499,14.565,7.499,14.149z"/>
			</g>
			<g>
				<path d="M34.929,5.714c-5.769,0-10.541,4.302-11.309,9.864c2.181,0.016,4.259,0.447,6.175,1.207
					c0.127-0.292,0.389-0.475,0.797-0.475h0.396c-0.396-0.567-0.566-1.285-0.566-2.022c0-2.342,2.078-3.986,4.742-3.986
					c3.31,0,4.914,1.776,4.914,3.25c0,0.851-0.586,1.323-1.418,1.323c-1.662,0-0.643-2.305-3.193-2.305
					c-1.114,0-2.172,0.662-2.172,1.889c0,0.643,0.32,1.285,0.623,1.852h2.06c0.774,0,1.172,0.284,1.172,0.907
					s-0.397,0.906-1.172,0.906h-1.494c0.058,0.152,0.097,0.284,0.097,0.454c0,0.305-0.076,0.607-0.194,0.902
					c0.618,0.51,1.188,1.076,1.729,1.667c0.524,0.106,0.991,0.228,1.545,0.228c0.319,0,1.098-0.208,1.397-0.208
					c0.698,0,1.096,0.529,1.096,1.208c0,1.066-0.954,1.529-1.937,1.593c0.652,1.095,1.195,2.259,1.596,3.49
					c3.861-1.835,6.545-5.763,6.545-10.317C46.356,10.841,41.229,5.714,34.929,5.714z"/>
			</g>
			<g>
				<path d="M24.257,34.076v4.676c1.415-0.094,2.905-0.755,2.905-2.314C27.162,34.831,25.529,34.359,24.257,34.076z"/>
			</g>
			<g>
				<path d="M20.193,28.479c0,1.183,0.875,1.865,2.645,2.221v-4.229C21.23,26.52,20.193,27.463,20.193,28.479z"/>
			</g>
			<g>
				<path d="M23.5,18.429c-7.877,0-14.287,6.409-14.287,14.286S15.623,47,23.5,47c7.877,0,14.288-6.407,14.288-14.285
					S31.377,18.429,23.5,18.429z M24.257,41.162v1.465c0,0.402-0.31,0.803-0.711,0.803c-0.401,0-0.708-0.4-0.708-0.803v-1.465
					c-3.99-0.094-5.976-2.48-5.976-4.348c0-0.942,0.566-1.486,1.464-1.486c2.645,0,0.589,3.26,4.512,3.425v-4.937
					c-3.498-0.637-5.62-2.172-5.62-4.795c0-3.211,2.668-4.865,5.62-4.959v-1.258c0-0.403,0.307-0.804,0.708-0.804
					c0.401,0,0.711,0.401,0.711,0.804v1.258c1.839,0.049,5.618,1.203,5.618,3.52c0,0.921-0.686,1.462-1.488,1.462
					c-1.535,0-1.514-2.524-4.129-2.573v4.487c3.118,0.662,5.879,1.582,5.879,5.222C30.137,39.344,27.773,40.951,24.257,41.162z"/>
			</g>
		</g>
	</g>
</g>
<g>
</g>
<g>
</g>
<g>
</g>
<g>
</g>
<g>
</g>
<g>
</g>
<g>
</g>
<g>
</g>
<g>
</g>
<g>
</g>
<g>
</g>
<g>
</g>
<g>
</g>
<g>
</g>
<g>
</g>
</svg>
