<?xml version="1.0" encoding="iso-8859-1"?>
<!-- Generator: Adobe Illustrator 16.0.0, SVG Export Plug-In . SVG Version: 6.00 Build 0)  -->
<!DOCTYPE svg PUBLIC "-//W3C//DTD SVG 1.1//EN" "http://www.w3.org/Graphics/SVG/1.1/DTD/svg11.dtd">
<svg version="1.1" id="Capa_1" xmlns="http://www.w3.org/2000/svg" xmlns:xlink="http://www.w3.org/1999/xlink" x="0px" y="0px"
	 width="47.001px" height="47px" viewBox="0 0 47.001 47" style="enable-background:new 0 0 47.001 47;" xml:space="preserve">
<g>
	<g id="Layer_1_126_">
		<path d="M46.41,9.192l-5.342-2.67c-0.147-0.074-0.312-0.113-0.478-0.113H25.637V2.136C25.637,0.958,24.68,0,23.5,0
			s-2.136,0.957-2.136,2.136v13.887H6.409c-0.166,0-0.33,0.039-0.478,0.112l-5.341,2.67C0.228,18.986,0,19.356,0,19.761
			c0,0.405,0.229,0.775,0.59,0.956l5.341,2.67C6.08,23.461,6.243,23.5,6.409,23.5h14.955v15.555h-4.573
			c-5.668,0-6.109,3.858-6.109,5.041v0.769c0,1.18,0.957,2.136,2.137,2.136h21.363c1.18,0,2.137-0.957,2.137-2.136v-0.769
			c0-1.182-0.44-5.041-6.108-5.041h-4.573V13.886h14.955c0.166,0,0.33-0.039,0.479-0.112l5.341-2.671
			c0.362-0.181,0.59-0.551,0.59-0.955C47,9.744,46.771,9.374,46.41,9.192z M40.339,11.75H25.637V8.545h14.702l3.205,1.603
			L40.339,11.75z"/>
	</g>
</g>
<g>
</g>
<g>
</g>
<g>
</g>
<g>
</g>
<g>
</g>
<g>
</g>
<g>
</g>
<g>
</g>
<g>
</g>
<g>
</g>
<g>
</g>
<g>
</g>
<g>
</g>
<g>
</g>
<g>
</g>
</svg>
