<?xml version="1.0" encoding="iso-8859-1"?>
<!-- Generator: Adobe Illustrator 16.0.0, SVG Export Plug-In . SVG Version: 6.00 Build 0)  -->
<!DOCTYPE svg PUBLIC "-//W3C//DTD SVG 1.1//EN" "http://www.w3.org/Graphics/SVG/1.1/DTD/svg11.dtd">
<svg version="1.1" id="Capa_1" xmlns="http://www.w3.org/2000/svg" xmlns:xlink="http://www.w3.org/1999/xlink" x="0px" y="0px"
	 width="47.001px" height="47.001px" viewBox="0 0 47.001 47.001" style="enable-background:new 0 0 47.001 47.001;"
	 xml:space="preserve">
<g>
	<g id="Layer_1_83_">
		<g>
			<path d="M46.374,13.778L33.223,0.626C32.822,0.226,32.279,0,31.712,0H7.478C3.354,0,0,3.354,0,7.478v32.045
				c0,4.123,3.354,7.478,7.478,7.478h32.045c4.123,0,7.478-3.354,7.478-7.478V15.288C47,14.722,46.773,14.179,46.374,13.778z
				 M31.512,4.957l10.531,10.531H31.512V4.957z M39.521,42.729H7.478c-1.768,0-3.205-1.438-3.205-3.205V7.478
				c0-1.768,1.438-3.205,3.205-3.205h21.897v12.284c0,0.591,0.479,1.068,1.068,1.068h12.283v21.896
				C42.729,41.29,41.29,42.729,39.521,42.729z"/>
			<path d="M20.1,9.981c-1.174-1.175-2.739-1.822-4.407-1.822c-1.667,0-3.233,0.647-4.407,1.822l-0.913,0.914
				c-1.175,1.175-1.822,2.739-1.822,4.406s0.647,3.231,1.822,4.406l12.414,12.416c0.689,0.689,1.607,1.066,2.586,1.066
				c0.001,0,0.003,0,0.005,0c0.976,0,1.89-0.379,2.574-1.064l1.093-1.095c0.688-0.687,1.068-1.601,1.068-2.576
				c0.002-0.979-0.377-1.899-1.068-2.589L18.09,14.912c-0.417-0.418-1.093-0.418-1.51,0c-0.418,0.417-0.418,1.093,0,1.51
				l10.954,10.954c0.286,0.287,0.444,0.669,0.442,1.077c0,0.404-0.156,0.781-0.44,1.064l-1.097,1.099
				c-0.282,0.282-0.66,0.438-1.066,0.438h-0.001c-0.407,0-0.789-0.156-1.075-0.441L11.883,18.197
				c-0.772-0.771-1.197-1.799-1.197-2.896c0-1.097,0.425-2.125,1.197-2.896l0.912-0.914c1.545-1.545,4.252-1.543,5.794,0
				l14.604,14.606c0.771,0.771,1.197,1.799,1.197,2.896s-0.426,2.125-1.197,2.896l-4.381,4.383c-1.545,1.545-4.251,1.545-5.792,0
				L9.51,22.76c-0.418-0.418-1.094-0.418-1.511,0c-0.417,0.417-0.417,1.093,0,1.51l13.51,13.514
				c1.174,1.175,2.739,1.822,4.406,1.822s3.231-0.647,4.407-1.822l4.381-4.383c1.176-1.176,1.822-2.74,1.822-4.407
				s-0.646-3.232-1.822-4.406L20.1,9.981z"/>
		</g>
	</g>
</g>
<g>
</g>
<g>
</g>
<g>
</g>
<g>
</g>
<g>
</g>
<g>
</g>
<g>
</g>
<g>
</g>
<g>
</g>
<g>
</g>
<g>
</g>
<g>
</g>
<g>
</g>
<g>
</g>
<g>
</g>
</svg>
