<?xml version="1.0" encoding="iso-8859-1"?>
<!-- Generator: Adobe Illustrator 16.0.0, SVG Export Plug-In . SVG Version: 6.00 Build 0)  -->
<!DOCTYPE svg PUBLIC "-//W3C//DTD SVG 1.1//EN" "http://www.w3.org/Graphics/SVG/1.1/DTD/svg11.dtd">
<svg version="1.1" id="Capa_1" xmlns="http://www.w3.org/2000/svg" xmlns:xlink="http://www.w3.org/1999/xlink" x="0px" y="0px"
	 width="47px" height="47.001px" viewBox="0 0 47 47.001" style="enable-background:new 0 0 47 47.001;" xml:space="preserve">
<g>
	<g id="Layer_1_42_">
		<g>
			<path d="M23.234,0c-1.594,0-3.188,0.16-4.735,0.478c-1.156,0.236-1.9,1.365-1.664,2.521c0.237,1.155,1.363,1.906,2.521,1.664
				c0.573-0.117,1.155-0.2,1.741-0.266v11.825c-0.62-0.036-1.236-0.085-1.842-0.153c-1.171-0.131-2.229,0.712-2.362,1.884
				c-0.132,1.173,0.711,2.23,1.884,2.362c0.763,0.085,1.539,0.146,2.32,0.188v5.994c-0.781,0.041-1.557,0.103-2.32,0.188
				c-1.173,0.131-2.016,1.188-1.884,2.361c0.132,1.172,1.191,2.02,2.362,1.885c0.606-0.068,1.223-0.117,1.842-0.154V42.6
				c-0.558-0.062-1.114-0.138-1.66-0.246c-1.155-0.229-2.283,0.518-2.515,1.674s0.518,2.283,1.675,2.516
				c1.515,0.305,3.075,0.458,4.636,0.458c12.958,0,23.5-10.542,23.5-23.5S36.192,0,23.234,0z M25.37,42.014V30.779
				c1.938,0.115,3.814,0.387,5.573,0.797C29.809,36.789,27.656,40.53,25.37,42.014z M25.37,26.5v-6
				c2.16-0.114,4.25-0.397,6.227-0.838c0.115,1.229,0.183,2.507,0.183,3.838s-0.067,2.609-0.183,3.838
				C29.622,26.896,27.53,26.614,25.37,26.5z M30.943,15.424c-1.759,0.41-3.636,0.681-5.573,0.797V4.987
				C27.656,6.47,29.809,10.211,30.943,15.424z M35.754,18.444c1.896-0.706,3.615-1.579,5.109-2.594
				c1.021,2.347,1.598,4.931,1.598,7.649s-0.576,5.304-1.598,7.649c-1.496-1.016-3.213-1.888-5.107-2.594
				c0.188-1.627,0.295-3.312,0.295-5.057S35.943,20.07,35.754,18.444z M38.717,12.149c-1.066,0.755-2.312,1.422-3.692,1.988
				c-0.673-2.917-1.655-5.511-2.876-7.657C34.749,7.848,36.989,9.797,38.717,12.149z M32.151,40.52
				c1.221-2.146,2.206-4.738,2.879-7.654c1.379,0.566,2.622,1.232,3.688,1.986C36.989,37.203,34.75,39.15,32.151,40.52z"/>
			<path d="M14.291,33.443c-0.369-0.801-1.108-1.365-1.975-1.514l-5.765-0.984c-0.82-2.842-0.942-5.949-0.942-7.445
				s0.123-4.604,0.942-7.446l5.764-0.983c0.867-0.148,1.606-0.714,1.975-1.514l2.289-4.961c0.381-0.826,0.315-1.791-0.176-2.558
				c-0.491-0.767-1.338-1.231-2.249-1.231c0,0-2.449,0.019-2.619,0.054C5.912,5.399,0.268,10.502,0.268,23.5
				s5.644,18.102,11.267,18.641c0.17,0.034,2.619,0.053,2.619,0.053c0.911,0,1.758-0.465,2.249-1.23
				c0.491-0.768,0.557-1.73,0.176-2.558L14.291,33.443z"/>
		</g>
	</g>
</g>
<g>
</g>
<g>
</g>
<g>
</g>
<g>
</g>
<g>
</g>
<g>
</g>
<g>
</g>
<g>
</g>
<g>
</g>
<g>
</g>
<g>
</g>
<g>
</g>
<g>
</g>
<g>
</g>
<g>
</g>
</svg>
