<?xml version="1.0" encoding="iso-8859-1"?>
<!-- Generator: Adobe Illustrator 16.0.0, SVG Export Plug-In . SVG Version: 6.00 Build 0)  -->
<!DOCTYPE svg PUBLIC "-//W3C//DTD SVG 1.1//EN" "http://www.w3.org/Graphics/SVG/1.1/DTD/svg11.dtd">
<svg version="1.1" id="Capa_1" xmlns="http://www.w3.org/2000/svg" xmlns:xlink="http://www.w3.org/1999/xlink" x="0px" y="0px"
	 width="46.999px" height="46.999px" viewBox="0 0 46.999 46.999" style="enable-background:new 0 0 46.999 46.999;"
	 xml:space="preserve">
<g>
	<g id="Layer_1_38_">
		<g>
			<path d="M22.271,17.998l0.599-3.85l-0.301-0.485c-0.044-0.068-0.036-0.155,0.019-0.214l0.784-0.848
				c0.068-0.072,0.191-0.072,0.26,0l0.784,0.848c0.056,0.059,0.063,0.146,0.019,0.214l-0.301,0.485l0.6,3.849
				c4.723-0.079,7.582-0.619,7.582-1.18c0-2.746-1.866-2.867-3.94-3.544c-1.278-0.415-2.86-0.649-2.522-2.851
				c0.842-0.77,1.135-2.355,1.135-2.355s1.121-0.565,1.25-1.647c0.095-0.825-0.336-1.208-0.336-1.208s0-0.059,0-1.046
				c0-2.33-1.996-4.166-4.397-4.166c-2.402,0-4.398,1.835-4.398,4.166c0,0.987,0,1.046,0,1.046s-0.43,0.383-0.335,1.208
				c0.129,1.082,1.249,1.647,1.249,1.647s0.293,1.585,1.136,2.355c0.338,2.202-1.245,2.436-2.523,2.851
				c-2.074,0.678-3.94,0.799-3.94,3.544C14.688,17.378,17.547,17.918,22.271,17.998z"/>
			<path d="M9.124,43.852c-0.854-0.276-1.909-0.437-1.682-1.904c0.563-0.512,0.757-1.569,0.757-1.569s0.746-0.375,0.832-1.096
				c0.063-0.55-0.224-0.808-0.224-0.808s0-0.039,0-0.695c0-1.555-1.331-2.777-2.932-2.777s-2.932,1.223-2.932,2.777
				c0,0.656,0,0.695,0,0.695s-0.287,0.258-0.224,0.808c0.086,0.721,0.832,1.096,0.832,1.096s0.194,1.058,0.757,1.569
				c0.228,1.469-0.828,1.628-1.682,1.904C1.246,44.299,0,44.381,0,46.213c0,0.373,1.907,0.734,5.055,0.786l0.4-2.563l-0.203-0.326
				c-0.026-0.045-0.024-0.104,0.013-0.145l0.524-0.562c0.046-0.049,0.126-0.049,0.172,0l0.524,0.562
				c0.037,0.041,0.039,0.1,0.013,0.145l-0.203,0.324l0.4,2.563c3.147-0.051,5.055-0.412,5.055-0.785
				C11.75,44.381,10.505,44.299,9.124,43.852z"/>
			<path d="M26.749,43.852c-0.854-0.276-1.909-0.437-1.682-1.904c0.562-0.512,0.757-1.569,0.757-1.569s0.745-0.375,0.831-1.096
				c0.063-0.55-0.223-0.808-0.223-0.808s0-0.039,0-0.695c0-1.555-1.332-2.777-2.933-2.777c-1.601,0-2.932,1.223-2.932,2.777
				c0,0.656,0,0.695,0,0.695s-0.287,0.258-0.224,0.808c0.086,0.721,0.832,1.096,0.832,1.096s0.194,1.058,0.757,1.569
				c0.228,1.469-0.828,1.628-1.682,1.904c-1.382,0.447-2.627,0.529-2.627,2.361c0,0.373,1.907,0.734,5.055,0.786l0.4-2.563
				l-0.203-0.326c-0.026-0.043-0.024-0.103,0.013-0.144l0.524-0.563c0.046-0.049,0.126-0.049,0.172,0l0.523,0.563
				c0.037,0.041,0.039,0.101,0.014,0.144l-0.203,0.326l0.4,2.562c3.146-0.051,5.055-0.412,5.055-0.785
				C29.375,44.381,28.13,44.299,26.749,43.852z"/>
			<path d="M44.374,43.854c-0.854-0.278-1.909-0.437-1.684-1.904c0.564-0.514,0.758-1.571,0.758-1.571s0.748-0.375,0.832-1.096
				c0.063-0.55-0.223-0.808-0.223-0.808s0-0.037,0-0.695c0-1.555-1.33-2.777-2.933-2.777s-2.933,1.223-2.933,2.777
				c0,0.658,0,0.695,0,0.695s-0.285,0.258-0.224,0.808c0.085,0.721,0.833,1.096,0.833,1.096s0.192,1.058,0.758,1.571
				c0.227,1.469-0.83,1.626-1.684,1.904c-1.383,0.444-2.627,0.527-2.627,2.359c0,0.373,1.906,0.734,5.055,0.786l0.4-2.563
				L40.5,44.109c-0.025-0.043-0.023-0.103,0.014-0.142l0.522-0.563c0.046-0.049,0.128-0.049,0.174,0l0.522,0.563
				c0.037,0.039,0.039,0.099,0.014,0.142l-0.203,0.326l0.4,2.562c3.146-0.051,5.055-0.412,5.055-0.785
				C47,44.381,45.756,44.298,44.374,43.854z"/>
			<path d="M5.875,32.898c0.649,0,1.175-0.525,1.175-1.176v-4.699h15.275v4.699c0,0.649,0.525,1.176,1.175,1.176
				c0.65,0,1.175-0.525,1.175-1.176v-4.699h15.275v4.699c0,0.649,0.524,1.176,1.175,1.176s1.175-0.525,1.175-1.176V25.85
				c0-0.649-0.524-1.176-1.175-1.176h-16.45v-3.525c0-0.649-0.524-1.175-1.175-1.175c-0.65,0-1.175,0.526-1.175,1.175v3.525H5.875
				c-0.649,0-1.175,0.525-1.175,1.176v5.875C4.701,32.373,5.227,32.898,5.875,32.898z"/>
		</g>
	</g>
</g>
<g>
</g>
<g>
</g>
<g>
</g>
<g>
</g>
<g>
</g>
<g>
</g>
<g>
</g>
<g>
</g>
<g>
</g>
<g>
</g>
<g>
</g>
<g>
</g>
<g>
</g>
<g>
</g>
<g>
</g>
</svg>
