<?xml version="1.0" encoding="iso-8859-1"?>
<!-- Generator: Adobe Illustrator 16.0.0, SVG Export Plug-In . SVG Version: 6.00 Build 0)  -->
<!DOCTYPE svg PUBLIC "-//W3C//DTD SVG 1.1//EN" "http://www.w3.org/Graphics/SVG/1.1/DTD/svg11.dtd">
<svg version="1.1" id="Capa_1" xmlns="http://www.w3.org/2000/svg" xmlns:xlink="http://www.w3.org/1999/xlink" x="0px" y="0px"
	 width="46.999px" height="46.999px" viewBox="0 0 46.999 46.999" style="enable-background:new 0 0 46.999 46.999;"
	 xml:space="preserve">
<g>
	<g id="Layer_1_85_">
		<path d="M34.574,20.047v-3.3c0-1.193-0.968-2.161-2.16-2.161H26.8c1.135-1.479,1.602-2.91,1.389-4.33
			c-0.266-1.762-1.51-3.155-2.609-4.387c-1.571-1.761-2.424-2.828-1.663-4.29c0.244-0.471,0.11-1.052-0.317-1.367
			c-0.425-0.316-1.02-0.275-1.398,0.098c-5.05,4.958-2.372,8.205-0.416,10.577c1.25,1.517,2.003,2.523,1.755,3.699h-6.463
			c1.136-1.479,1.602-2.91,1.389-4.33c-0.265-1.762-1.51-3.155-2.609-4.387c-1.572-1.761-2.425-2.828-1.664-4.29
			c0.245-0.471,0.111-1.052-0.316-1.367c-0.426-0.316-1.021-0.275-1.399,0.098c-5.05,4.958-2.371,8.205-0.415,10.577
			c1.25,1.517,2.002,2.523,1.754,3.699H5.402c-1.193,0-2.161,0.968-2.161,2.161v22.689c0,4.17,3.394,7.562,7.563,7.562h16.207
			c3.819,0,6.979-2.85,7.484-6.533c5.189-0.506,9.263-4.892,9.263-10.214C43.759,24.958,39.728,20.589,34.574,20.047z
			 M12.966,38.356c0,1.192-0.968,2.161-2.161,2.161c-1.193,0-2.161-0.969-2.161-2.161V22.149c0-1.193,0.968-2.161,2.161-2.161
			c1.193,0,2.161,0.968,2.161,2.161V38.356z M34.574,36.092V24.414c2.762,0.511,4.862,2.933,4.862,5.839
			C39.437,33.16,37.336,35.581,34.574,36.092z"/>
	</g>
</g>
<g>
</g>
<g>
</g>
<g>
</g>
<g>
</g>
<g>
</g>
<g>
</g>
<g>
</g>
<g>
</g>
<g>
</g>
<g>
</g>
<g>
</g>
<g>
</g>
<g>
</g>
<g>
</g>
<g>
</g>
</svg>
