<?xml version="1.0" encoding="iso-8859-1"?>
<!-- Generator: Adobe Illustrator 16.0.0, SVG Export Plug-In . SVG Version: 6.00 Build 0)  -->
<!DOCTYPE svg PUBLIC "-//W3C//DTD SVG 1.1//EN" "http://www.w3.org/Graphics/SVG/1.1/DTD/svg11.dtd">
<svg version="1.1" id="Capa_1" xmlns="http://www.w3.org/2000/svg" xmlns:xlink="http://www.w3.org/1999/xlink" x="0px" y="0px"
	 width="47.001px" height="47.001px" viewBox="0 0 47.001 47.001" style="enable-background:new 0 0 47.001 47.001;"
	 xml:space="preserve">
<g>
	<g id="Layer_1_36_">
		<g>
			<path d="M39.897,5.465h-8.744v4.372h6.558v32.791H9.292V9.837h6.558V5.465H7.105c-1.207,0-2.186,0.979-2.186,2.187v37.163
				c0,1.207,0.979,2.187,2.186,2.187h32.791c1.207,0,2.187-0.979,2.187-2.187V7.651C42.082,6.444,41.104,5.465,39.897,5.465z"/>
			<path d="M18.522,14.025c0.078,0.053,1.95,1.277,4.979,1.277c3.029,0,4.9-1.225,4.979-1.277c0.305-0.202,0.486-0.544,0.486-0.909
				V1.093C28.966,0.489,28.478,0,27.873,0h-8.744c-0.604,0-1.093,0.489-1.093,1.093v12.023
				C18.036,13.481,18.219,13.823,18.522,14.025z M20.222,2.187h6.558v10.271c-0.604,0.269-1.741,0.658-3.278,0.658
				c-1.533,0-2.675-0.391-3.279-0.661L20.222,2.187L20.222,2.187z"/>
			<path d="M17.825,35.286c-2.416,0.789-4.59,0.93-4.59,4.127c0,0.655,3.332,1.282,8.833,1.377l0.696-4.485l-0.351-0.563
				c-0.05-0.079-0.041-0.181,0.021-0.249l0.915-0.989c0.079-0.082,0.222-0.082,0.301,0l0.916,0.989
				c0.062,0.068,0.07,0.17,0.021,0.249l-0.351,0.563l0.696,4.484c5.502-0.094,8.834-0.721,8.834-1.376
				c0-3.197-2.175-3.338-4.591-4.127c-1.489-0.484-3.334-0.759-2.94-3.322c0.981-0.896,1.324-2.743,1.324-2.743
				s1.305-0.658,1.453-1.919c0.111-0.961-0.391-1.405-0.391-1.405s0-0.069,0-1.222c0-2.712-2.323-4.851-5.122-4.851
				s-5.122,2.139-5.122,4.851c0,1.151,0,1.222,0,1.222s-0.502,0.444-0.391,1.405c0.149,1.261,1.453,1.919,1.453,1.919
				s0.343,1.848,1.324,2.743C21.159,34.527,19.314,34.802,17.825,35.286z"/>
			<circle cx="23.501" cy="4.372" r="1.742"/>
		</g>
	</g>
</g>
<g>
</g>
<g>
</g>
<g>
</g>
<g>
</g>
<g>
</g>
<g>
</g>
<g>
</g>
<g>
</g>
<g>
</g>
<g>
</g>
<g>
</g>
<g>
</g>
<g>
</g>
<g>
</g>
<g>
</g>
</svg>
