<?xml version="1.0" encoding="iso-8859-1"?>
<!-- Generator: Adobe Illustrator 16.0.0, SVG Export Plug-In . SVG Version: 6.00 Build 0)  -->
<!DOCTYPE svg PUBLIC "-//W3C//DTD SVG 1.1//EN" "http://www.w3.org/Graphics/SVG/1.1/DTD/svg11.dtd">
<svg version="1.1" id="Capa_1" xmlns="http://www.w3.org/2000/svg" xmlns:xlink="http://www.w3.org/1999/xlink" x="0px" y="0px"
	 width="47px" height="47px" viewBox="0 0 47 47" style="enable-background:new 0 0 47 47;" xml:space="preserve">
<g>
	<g id="Layer_1_140_">
		<g>
			<path d="M23.5,0C10.542,0,0,10.542,0,23.5c0,5.254,1.734,10.111,4.66,14.029c0.082,0.029,0.168,0.044,0.25,0.078
				c0.631-0.039,1.929-0.754,3.595-2.166c-0.159-0.2-0.336-0.385-0.488-0.592c0.827-0.584,1.762-1.115,2.782-1.588
				c0.487-0.509,0.985-1.051,1.501-1.654c-1.129-1.139-1.524-2.793-1.032-4.32c0.495-1.531,1.789-2.645,3.377-2.905l0.33-0.053
				c-0.006-0.277-0.021-0.547-0.021-0.829c0-1.331,0.067-2.609,0.183-3.838c1.976,0.441,4.066,0.725,6.226,0.838v2.792l4.272-0.693
				V20.5c2.16-0.114,4.25-0.397,6.227-0.838c0.115,1.229,0.183,2.507,0.183,3.838c0,0.002,0,0.005,0,0.008
				c0.884,0.959,1.29,2.279,1.081,3.572l-2.203,13.576c-0.261,1.593-1.374,2.887-2.906,3.382c-0.42,0.137-0.863,0.208-1.312,0.208
				c-1.129-0.002-2.229-0.46-3.022-1.256l-0.117-0.117c-1.687,1.089-3.837,2.316-6.211,3.307c1.96,0.531,4.019,0.82,6.146,0.82
				C36.458,47,47,36.458,47,23.5S36.458,0,23.5,0z M5.869,31.15c-1.021-2.348-1.596-4.932-1.596-7.65s0.575-5.303,1.596-7.65
				c1.495,1.014,3.21,1.887,5.104,2.592c-0.188,1.625-0.291,3.315-0.291,5.058c0,1.744,0.107,3.432,0.295,5.057
				C9.082,29.262,7.365,30.135,5.869,31.15z M11.712,14.139c-1.382-0.567-2.628-1.234-3.696-1.99
				c1.728-2.35,3.965-4.299,6.563-5.666C13.361,8.628,12.385,11.227,11.712,14.139z M21.364,16.222
				c-1.937-0.117-3.814-0.387-5.573-0.798c1.134-5.212,3.287-8.954,5.573-10.436V16.222z M25.637,16.222V4.988
				c2.285,1.482,4.438,5.224,5.572,10.436C29.45,15.834,27.574,16.105,25.637,16.222z M32.41,6.478
				c2.604,1.368,4.844,3.318,6.574,5.672c-1.066,0.755-2.312,1.421-3.691,1.988C34.619,11.217,33.632,8.626,32.41,6.478z
				 M32.408,40.523c1.223-2.147,2.207-4.743,2.881-7.662c1.382,0.566,2.628,1.233,3.695,1.99
				C37.254,37.204,35.012,39.155,32.408,40.523z M36.025,28.557c0.188-1.625,0.293-3.312,0.293-5.057s-0.107-3.43-0.295-5.057
				c1.896-0.705,3.611-1.578,5.107-2.593c1.021,2.347,1.596,4.932,1.596,7.65s-0.574,5.302-1.596,7.648
				C39.637,30.135,37.92,29.262,36.025,28.557z"/>
			<path d="M25.195,41.482c0.396,0.397,0.947,0.627,1.51,0.627c0.227,0,0.449-0.036,0.656-0.104c0.767-0.247,1.324-0.894,1.455-1.69
				l2.203-13.573c0.108-0.677-0.115-1.368-0.6-1.853c-0.479-0.48-1.118-0.713-1.854-0.6l-13.574,2.203
				c-0.795,0.13-1.442,0.686-1.69,1.453c-0.248,0.767-0.047,1.597,0.522,2.166l1.354,1.354c-3.236,4.119-7.66,8.282-10.315,8.282
				c-0.287,0-0.526-0.05-0.756-0.157c-0.919-0.426-2.074-0.114-2.652,0.711c-0.597,0.853-0.497,2.003,0.239,2.736
				c1.92,1.92,4.388,2.894,7.334,2.894c5.718,0,11.821-3.718,14.804-5.812L25.195,41.482z M9.028,43.795
				c-2.359,0-4.318-0.763-5.824-2.27c0.514,0.242,1.056,0.357,1.659,0.357c4.911,0,11.347-8.22,12.587-9.867l0.558-0.742
				L15.335,28.6l13.574-2.201l-2.203,13.572l-2.654-2.654l-0.74,0.545C21.421,39.253,14.801,43.795,9.028,43.795z"/>
		</g>
	</g>
</g>
<g>
</g>
<g>
</g>
<g>
</g>
<g>
</g>
<g>
</g>
<g>
</g>
<g>
</g>
<g>
</g>
<g>
</g>
<g>
</g>
<g>
</g>
<g>
</g>
<g>
</g>
<g>
</g>
<g>
</g>
</svg>
