<?xml version="1.0" encoding="iso-8859-1"?>
<!-- Generator: Adobe Illustrator 16.0.0, SVG Export Plug-In . SVG Version: 6.00 Build 0)  -->
<!DOCTYPE svg PUBLIC "-//W3C//DTD SVG 1.1//EN" "http://www.w3.org/Graphics/SVG/1.1/DTD/svg11.dtd">
<svg version="1.1" id="Capa_1" xmlns="http://www.w3.org/2000/svg" xmlns:xlink="http://www.w3.org/1999/xlink" x="0px" y="0px"
	 width="46.999px" height="46.999px" viewBox="0 0 46.999 46.999" style="enable-background:new 0 0 46.999 46.999;"
	 xml:space="preserve">
<g>
	<g id="Layer_1_55_">
		<g>
			<path d="M25.154,17.448c0,1.753,1.425,3.175,3.177,3.175c1.751,0,3.175-1.422,3.175-3.175c0-1.756-1.424-3.177-3.175-3.177
				C26.579,14.271,25.154,15.692,25.154,17.448z"/>
			<path d="M41.962,15.511c-0.6-0.787-1.722-0.937-2.507-0.337l-8.3,6.335h-1.141c-0.492,0-0.92,0.215-1.24,0.536l0.832,6.113
				l-1.276,1.083l-1.276-1.083l0.832-6.113c-0.32-0.321-0.75-0.536-1.24-0.536h-1.141l-6.464-4.934l-2.552,2.553l7.327,5.591
				c0.3,0.229,0.664,0.357,1.041,0.366v8.075l-3.3,11.558c-0.272,0.951,0.278,1.941,1.229,2.212c0.164,0.047,0.33,0.069,0.492,0.069
				c0.779,0,1.496-0.513,1.719-1.298l3.336-11.68l3.336,11.68c0.226,0.785,0.94,1.298,1.72,1.298c0.161,0,0.327-0.022,0.491-0.069
				c0.95-0.271,1.5-1.261,1.228-2.212L31.806,33.16v-8.075c0.377-0.009,0.741-0.137,1.041-0.366l8.781-6.701
				C42.412,17.419,42.562,16.296,41.962,15.511z"/>
			<path d="M11.519,21.567l9.028-9.027c2.559,1.449,5.864,1.092,8.046-1.09c2.62-2.62,2.619-6.866,0-9.484
				c-2.62-2.621-6.867-2.621-9.487-0.002c-2.181,2.182-2.54,5.487-1.088,8.047L5.193,22.834c-0.699,0.698-0.699,1.83,0,2.529
				C5.542,25.712,6,25.886,6.458,25.886s0.916-0.175,1.265-0.522l1.265-1.267l2.529,2.53c0.349,0.349,0.807,0.522,1.265,0.522
				s0.915-0.175,1.265-0.522c0.699-0.698,0.699-1.831,0-2.529L11.519,21.567z M21.319,4.178c1.223-1.222,3.346-1.08,4.745,0.317
				c1.396,1.396,1.537,3.519,0.314,4.741c-1.225,1.223-3.347,1.08-4.743-0.316C20.24,7.522,20.098,5.398,21.319,4.178z"/>
		</g>
	</g>
</g>
<g>
</g>
<g>
</g>
<g>
</g>
<g>
</g>
<g>
</g>
<g>
</g>
<g>
</g>
<g>
</g>
<g>
</g>
<g>
</g>
<g>
</g>
<g>
</g>
<g>
</g>
<g>
</g>
<g>
</g>
</svg>
