<?xml version="1.0" encoding="iso-8859-1"?>
<!-- Generator: Adobe Illustrator 16.0.0, SVG Export Plug-In . SVG Version: 6.00 Build 0)  -->
<!DOCTYPE svg PUBLIC "-//W3C//DTD SVG 1.1//EN" "http://www.w3.org/Graphics/SVG/1.1/DTD/svg11.dtd">
<svg version="1.1" id="Capa_1" xmlns="http://www.w3.org/2000/svg" xmlns:xlink="http://www.w3.org/1999/xlink" x="0px" y="0px"
	 width="47.001px" height="47.001px" viewBox="0 0 47.001 47.001" style="enable-background:new 0 0 47.001 47.001;"
	 xml:space="preserve">
<g>
	<g id="Layer_1_31_">
		<g>
			<path d="M23.501,7.231C15.618,7.233,9.205,13.435,9.205,21.055c0,4.946,2.007,7.888,3.485,10.056
				c0.909,1.334,1.424,2.128,1.424,2.927c0,1.793,0.961,3.483,2.669,4.75c0.043,1.063,0.2,3.659,0.2,3.659c0,0.001,0,0.002,0,0.003
				c0.028,0.737,0.416,2.248,2.956,3.092c0.299,0.44,0.692,0.831,1.168,1.149c0.298,0.201,0.65,0.31,1.01,0.31h2.768
				c0.36,0,0.711-0.106,1.01-0.31c0.477-0.319,0.871-0.709,1.168-1.149c2.563-0.853,2.936-2.381,2.957-3.097
				c0,0,0.156-2.592,0.199-3.656c1.708-1.268,2.67-2.957,2.67-4.75c0-0.799,0.514-1.594,1.432-2.938
				c1.467-2.15,3.478-5.095,3.478-10.047C37.798,13.432,31.384,7.231,23.501,7.231z M31.325,29.075
				c-1.056,1.548-2.052,3.01-2.052,4.963c0,0.858-0.776,1.549-1.354,1.948h-8.835c-0.578-0.398-1.354-1.09-1.354-1.948
				c0-1.953-0.997-3.415-2.065-4.981c-1.333-1.955-2.845-4.172-2.845-8.001c0-5.627,4.792-10.207,10.682-10.209
				c5.891,0,10.682,4.579,10.682,10.207C34.184,24.891,32.669,27.105,31.325,29.075z"/>
			<path d="M23.501,4.519c0.499,0,0.903-0.404,0.903-0.904V0.904C24.404,0.405,24,0,23.501,0s-0.904,0.405-0.904,0.904v2.711
				C22.597,4.115,23.002,4.519,23.501,4.519z"/>
			<path d="M13.898,6.431c0.168,0.29,0.471,0.452,0.784,0.452c0.153,0,0.309-0.039,0.451-0.121c0.433-0.25,0.581-0.802,0.331-1.235
				l-1.356-2.348c-0.25-0.433-0.802-0.581-1.235-0.331c-0.432,0.25-0.58,0.802-0.331,1.235L13.898,6.431z"/>
			<path d="M8.677,11.652l-2.348-1.355c-0.433-0.25-0.985-0.101-1.235,0.331c-0.249,0.432-0.101,0.985,0.331,1.235l2.348,1.355
				c0.142,0.082,0.298,0.121,0.451,0.121c0.313,0,0.616-0.162,0.784-0.452C9.257,12.455,9.109,11.902,8.677,11.652z"/>
			<path d="M6.765,21.255c0-0.499-0.405-0.904-0.904-0.904H3.15c-0.499,0-0.904,0.405-0.904,0.904s0.405,0.904,0.904,0.904h2.711
				C6.36,22.159,6.765,21.754,6.765,21.255z"/>
			<path d="M7.773,29.292l-2.349,1.354c-0.432,0.25-0.581,0.803-0.332,1.234c0.167,0.291,0.472,0.452,0.784,0.452
				c0.153,0,0.309-0.039,0.451-0.121l2.348-1.354c0.433-0.25,0.581-0.803,0.332-1.234C8.758,29.189,8.206,29.042,7.773,29.292z"/>
			<path d="M41.578,30.648l-2.348-1.356c-0.434-0.25-0.985-0.103-1.235,0.33s-0.103,0.985,0.33,1.235l2.348,1.355
				c0.144,0.083,0.298,0.121,0.451,0.121c0.313,0,0.616-0.162,0.784-0.451C42.156,31.451,42.01,30.896,41.578,30.648z"/>
			<path d="M43.852,20.352l-2.709-0.001l0,0c-0.5,0-0.904,0.405-0.904,0.903c0,0.5,0.404,0.904,0.902,0.904l2.711,0.001l0,0
				c0.498,0,0.903-0.405,0.903-0.903C44.755,20.757,44.352,20.352,43.852,20.352z"/>
			<path d="M38.777,13.338c0.154,0,0.31-0.039,0.451-0.121l2.349-1.354c0.433-0.249,0.581-0.802,0.332-1.234
				c-0.25-0.433-0.804-0.581-1.235-0.331l-2.348,1.354c-0.434,0.25-0.581,0.803-0.332,1.234
				C38.162,13.176,38.466,13.338,38.777,13.338z"/>
			<path d="M31.869,6.76c0.142,0.083,0.297,0.122,0.451,0.122c0.312,0,0.615-0.162,0.783-0.452l1.354-2.347
				c0.25-0.432,0.103-0.985-0.33-1.234c-0.433-0.251-0.985-0.103-1.235,0.331l-1.354,2.347C31.289,5.958,31.438,6.511,31.869,6.76z"
				/>
			<path d="M22.289,26.714c0.109,0.8,0.496,1.021,1.212,1.021c0.715,0,1.103-0.221,1.213-1.021l0.854-6.447
				c0.054-0.44,0.108-0.881,0.108-1.294v-3.196c0-1.405-0.799-2.122-2.176-2.122c-1.378,0-2.177,0.716-2.177,2.122v3.196
				c0,0.413,0.055,0.854,0.11,1.294L22.289,26.714z"/>
			<path d="M23.501,29.523c-1.241,0-2.26,1.02-2.26,2.26s1.02,2.259,2.26,2.259s2.259-1.019,2.259-2.259
				C25.761,30.543,24.741,29.523,23.501,29.523z"/>
		</g>
	</g>
</g>
<g>
</g>
<g>
</g>
<g>
</g>
<g>
</g>
<g>
</g>
<g>
</g>
<g>
</g>
<g>
</g>
<g>
</g>
<g>
</g>
<g>
</g>
<g>
</g>
<g>
</g>
<g>
</g>
<g>
</g>
</svg>
