<?xml version="1.0" encoding="iso-8859-1"?>
<!-- Generator: Adobe Illustrator 16.0.0, SVG Export Plug-In . SVG Version: 6.00 Build 0)  -->
<!DOCTYPE svg PUBLIC "-//W3C//DTD SVG 1.1//EN" "http://www.w3.org/Graphics/SVG/1.1/DTD/svg11.dtd">
<svg version="1.1" id="Capa_1" xmlns="http://www.w3.org/2000/svg" xmlns:xlink="http://www.w3.org/1999/xlink" x="0px" y="0px"
	 width="47px" height="47px" viewBox="0 0 47 47" style="enable-background:new 0 0 47 47;" xml:space="preserve">
<g>
	<g id="Layer_1_153_">
		<g>
			<path d="M23.5,11.75c1.18,0,2.137-0.957,2.137-2.136V4.273c0-1.18-0.957-2.137-2.137-2.137c-1.179,0-2.136,0.957-2.136,2.137
				v1.068H16.29v4.273h5.074C21.364,10.793,22.32,11.75,23.5,11.75z"/>
			<path d="M34.982,11.75c1.181,0,2.137-0.957,2.137-2.136V4.273c0-1.18-0.957-2.137-2.137-2.137c-1.178,0-2.135,0.957-2.135,2.137
				v1.068h-5.074v4.273h5.074C32.848,10.793,33.803,11.75,34.982,11.75z"/>
			<path d="M44.863,5.341h-5.607v4.273h3.471v6.409H4.273V9.614h5.608c0,1.18,0.957,2.136,2.136,2.136
				c1.179,0,2.136-0.957,2.136-2.136V4.273c0-1.18-0.957-2.137-2.136-2.137c-1.179,0-2.136,0.957-2.136,2.137v1.068H2.136
				C0.956,5.341,0,6.298,0,7.477v32.045c0,1.181,0.957,2.137,2.136,2.137H13.11c-0.917-1.271-1.604-2.715-2.006-4.273H4.273V18.159
				h38.454v19.227h-6.83c-0.403,1.559-1.09,3.002-2.006,4.273h10.973c1.181,0,2.137-0.957,2.137-2.137V7.477
				C47,6.297,46.043,5.341,44.863,5.341z"/>
			<path d="M28.564,35.985l-3.381-1.952c-0.045-0.513-0.312-0.962-0.713-1.242v-5.892c0-0.537-0.435-0.972-0.971-0.972
				s-0.971,0.435-0.971,0.972v5.892c-0.439,0.308-0.728,0.815-0.728,1.392c0,0.937,0.763,1.698,1.699,1.698
				c0.257,0,0.498-0.062,0.717-0.164l3.377,1.95c0.153,0.088,0.32,0.13,0.485,0.13c0.335,0,0.662-0.174,0.842-0.485
				C29.189,36.847,29.029,36.253,28.564,35.985z M23.5,34.91c-0.401,0-0.728-0.327-0.728-0.729c0-0.4,0.327-0.728,0.728-0.728
				s0.729,0.327,0.729,0.728C24.229,34.583,23.901,34.91,23.5,34.91z"/>
			<path d="M23.5,23.5c-5.89,0-10.682,4.792-10.682,10.683c0,5.89,4.792,10.682,10.682,10.682c5.891,0,10.682-4.792,10.682-10.682
				C34.182,28.292,29.391,23.5,23.5,23.5z M23.5,42.921c-4.819,0-8.739-3.92-8.739-8.74s3.92-8.738,8.739-8.738
				c4.818,0,8.738,3.92,8.738,8.738C32.238,39,28.318,42.921,23.5,42.921z"/>
		</g>
	</g>
</g>
<g>
</g>
<g>
</g>
<g>
</g>
<g>
</g>
<g>
</g>
<g>
</g>
<g>
</g>
<g>
</g>
<g>
</g>
<g>
</g>
<g>
</g>
<g>
</g>
<g>
</g>
<g>
</g>
<g>
</g>
</svg>
