<?xml version="1.0" encoding="iso-8859-1"?>
<!-- Generator: Adobe Illustrator 16.0.0, SVG Export Plug-In . SVG Version: 6.00 Build 0)  -->
<!DOCTYPE svg PUBLIC "-//W3C//DTD SVG 1.1//EN" "http://www.w3.org/Graphics/SVG/1.1/DTD/svg11.dtd">
<svg version="1.1" id="Capa_1" xmlns="http://www.w3.org/2000/svg" xmlns:xlink="http://www.w3.org/1999/xlink" x="0px" y="0px"
	 width="46.999px" height="46.999px" viewBox="0 0 46.999 46.999" style="enable-background:new 0 0 46.999 46.999;"
	 xml:space="preserve">
<g>
	<g id="Layer_1_98_">
		<g>
			<path d="M36.66,30.38l-4.626-17.266l-0.309-1.151c-0.342-1.271-1.648-2.026-2.919-1.685c-1.028,0.275-1.707,1.185-1.753,2.195
				L1.993,26.077c-0.291-0.272-0.698-0.409-1.11-0.3c-0.635,0.171-1.013,0.824-0.842,1.461l0.462,1.727l0.925,3.452l0.462,1.728
				c0.17,0.638,0.824,1.016,1.46,0.842c0.413-0.108,0.697-0.432,0.813-0.812l1.901-0.051c0.527,2.992,3.139,5.275,6.28,5.275
				c0.57,0,1.128-0.074,1.664-0.217c1.068-0.287,2.047-0.851,2.85-1.652c1.02-1.021,1.623-2.329,1.794-3.737l14.016-0.367
				c0.545,0.853,1.588,1.302,2.617,1.026c1.271-0.342,2.025-1.646,1.686-2.921L36.66,30.38z M15.172,35.844
				c-0.755,0.758-1.757,1.172-2.829,1.172c-1.842,0-3.38-1.26-3.844-2.955l7.75-0.205C16.091,34.604,15.725,35.291,15.172,35.844z
				 M5.938,29.357l22.274-12.09l3.062,11.424L5.938,29.357z"/>
			<path d="M40.195,21.414l5.755-1.542c0.636-0.17,1.013-0.824,0.843-1.46c-0.17-0.635-0.823-1.013-1.459-0.843l-5.755,1.543
				c-0.636,0.17-1.013,0.823-0.843,1.459C38.905,21.207,39.56,21.584,40.195,21.414z"/>
			<path d="M46.116,28.938l-5.755-1.543c-0.639-0.17-1.29,0.207-1.46,0.842c-0.17,0.639,0.207,1.291,0.843,1.461l5.755,1.542
				c0.209,0.056,0.42,0.054,0.615,0c0.398-0.107,0.729-0.417,0.844-0.843C47.128,29.761,46.751,29.107,46.116,28.938z"/>
			<path d="M36.197,14.157c0.195-0.052,0.38-0.155,0.533-0.308l4.213-4.213c0.465-0.466,0.465-1.22,0-1.686
				c-0.465-0.465-1.221-0.466-1.687,0l-4.213,4.214c-0.466,0.465-0.466,1.219,0,1.686C35.357,14.161,35.799,14.263,36.197,14.157z"
				/>
		</g>
	</g>
</g>
<g>
</g>
<g>
</g>
<g>
</g>
<g>
</g>
<g>
</g>
<g>
</g>
<g>
</g>
<g>
</g>
<g>
</g>
<g>
</g>
<g>
</g>
<g>
</g>
<g>
</g>
<g>
</g>
<g>
</g>
</svg>
