<?xml version="1.0" encoding="iso-8859-1"?>
<!-- Generator: Adobe Illustrator 16.0.0, SVG Export Plug-In . SVG Version: 6.00 Build 0)  -->
<!DOCTYPE svg PUBLIC "-//W3C//DTD SVG 1.1//EN" "http://www.w3.org/Graphics/SVG/1.1/DTD/svg11.dtd">
<svg version="1.1" id="Capa_1" xmlns="http://www.w3.org/2000/svg" xmlns:xlink="http://www.w3.org/1999/xlink" x="0px" y="0px"
	 viewBox="0 0 47.002 47.002" style="enable-background:new 0 0 47.002 47.002;"
	 xml:space="preserve">
<g>
	<g id="Layer_1_161_">
		<g>
			<path d="M45.191,21.692h-1.894c-0.862-9.524-8.467-17.128-17.991-17.991V1.809C25.309,0.811,24.498,0,23.5,0
				s-1.808,0.81-1.808,1.808v1.894c-9.524,0.862-17.128,8.466-17.991,17.99H1.808C0.81,21.692,0,22.502,0,23.5
				s0.81,1.809,1.808,1.809h1.894c0.863,9.523,8.467,17.127,17.991,17.99v1.895c0,0.998,0.81,1.808,1.808,1.808
				s1.808-0.81,1.808-1.808v-1.895c9.524-0.863,17.129-8.467,17.991-17.99h1.894c0.998,0,1.809-0.811,1.809-1.809
				S46.189,21.692,45.191,21.692z M21.692,7.338v1.7c0,0.999,0.81,1.808,1.808,1.808s1.809-0.809,1.809-1.808v-1.7
				c6.525,0.726,11.896,5.323,13.756,11.439c-3.516-2.757-9.125-6.123-15.564-6.123c-6.44,0-12.049,3.366-15.565,6.123
				C9.795,12.662,15.166,8.063,21.692,7.338z M16.269,23.5c0-3.987,3.244-7.23,7.231-7.23c3.986,0,7.23,3.243,7.23,7.23
				c0,3.986-3.244,7.23-7.23,7.23C19.513,30.731,16.269,27.487,16.269,23.5z M13.475,27.629c-2.412-1.436-4.337-3.057-5.492-4.132
				c1.155-1.077,3.081-2.701,5.497-4.139c-0.53,1.277-0.826,2.676-0.826,4.142C12.654,24.962,12.948,26.356,13.475,27.629z
				 M33.525,19.372c2.412,1.436,4.336,3.057,5.492,4.132c-1.156,1.077-3.082,2.701-5.498,4.14c0.53-1.277,0.826-2.677,0.826-4.143
				C34.346,22.039,34.052,20.646,33.525,19.372z M25.309,39.663v-1.7c0-0.999-0.811-1.808-1.809-1.808s-1.808,0.809-1.808,1.808v1.7
				c-6.526-0.727-11.897-5.323-13.757-11.439c3.516,2.758,9.125,6.123,15.565,6.123c6.439,0,12.049-3.365,15.564-6.123
				C37.205,34.339,31.834,38.938,25.309,39.663z"/>
			<circle cx="23.5" cy="23.5" r="4.52"/>
		</g>
	</g>
</g>
<g>
</g>
<g>
</g>
<g>
</g>
<g>
</g>
<g>
</g>
<g>
</g>
<g>
</g>
<g>
</g>
<g>
</g>
<g>
</g>
<g>
</g>
<g>
</g>
<g>
</g>
<g>
</g>
<g>
</g>
</svg>
