<?xml version="1.0" encoding="iso-8859-1"?>
<!-- Generator: Adobe Illustrator 16.0.0, SVG Export Plug-In . SVG Version: 6.00 Build 0)  -->
<!DOCTYPE svg PUBLIC "-//W3C//DTD SVG 1.1//EN" "http://www.w3.org/Graphics/SVG/1.1/DTD/svg11.dtd">
<svg version="1.1" id="Capa_1" xmlns="http://www.w3.org/2000/svg" xmlns:xlink="http://www.w3.org/1999/xlink" x="0px" y="0px"
	 width="47.003px" height="47.004px" viewBox="0 0 47.003 47.004" style="enable-background:new 0 0 47.003 47.004;"
	 xml:space="preserve">
<g>
	<g id="Layer_1_123_">
		<path d="M40.611,42.956v-1.015c0-0.432-0.248-0.824-0.637-1.01c-0.248-0.119-5.978-2.793-15.354-2.998v-3.822
			c0.667-0.387,1.119-1.102,1.119-1.928v-1.235h7.937c0.007,0,0.017,0,0.022,0c1.236,0,2.238-1.003,2.238-2.238
			c0-0.187-0.025-0.367-0.068-0.54c1.953-0.645,2.979-1.229,3.07-1.284c0.342-0.2,0.553-0.567,0.553-0.966V19.8h1.061
			c0.619,0,1.119-0.501,1.119-1.119c0-0.618-0.5-1.119-1.119-1.119h-4.359c-0.618,0-1.118,0.501-1.118,1.119
			c0,0.618,0.5,1.119,1.118,1.119h1.062v5.429c-0.548,0.252-1.503,0.645-2.849,1.043l-0.758-0.758
			c-0.512-0.512-1.242-0.746-1.957-0.625c-0.025,0.004-2.256,0.371-5.951,0.487v-1.955c4.074-0.253,6.146-1.133,6.402-1.249
			c0.875-0.396,1.399-1.307,1.303-2.263L31.73,2.872c-0.082-0.815-0.603-1.521-1.357-1.839C30.121,0.927,27.795,0,23.501,0
			s-6.619,0.927-6.87,1.033c-0.756,0.318-1.276,1.023-1.358,1.839l-1.715,17.041c-0.097,0.956,0.428,1.867,1.304,2.263
			c0.255,0.115,2.327,0.996,6.401,1.249v1.955c-3.695-0.116-5.925-0.481-5.949-0.487c-0.72-0.123-1.445,0.111-1.959,0.625
			l-0.757,0.758c-1.348-0.398-2.303-0.791-2.849-1.043v-5.428h1.061c0.619,0,1.119-0.501,1.119-1.119c0-0.618-0.5-1.119-1.119-1.119
			h-4.36c-0.619,0-1.119,0.501-1.119,1.119c0,0.618,0.5,1.119,1.119,1.119h1.061v6.12c0,0.396,0.211,0.766,0.553,0.967
			c0.095,0.055,1.126,0.646,3.101,1.293c-0.111,0.453-0.093,0.938,0.094,1.387c0.347,0.836,1.163,1.381,2.068,1.381h7.937v1.236
			c0,0.826,0.452,1.539,1.119,1.928v3.822c-9.377,0.203-15.105,2.877-15.354,2.996c-0.388,0.187-0.636,0.58-0.636,1.01v1.017
			c-0.633,0.382-1.061,1.069-1.061,1.863c0,1.204,0.978,2.181,2.18,2.181c1.205,0,2.181-0.977,2.181-2.181
			c0-0.794-0.428-1.482-1.062-1.863v-0.274c1.681-0.668,6.607-2.35,13.752-2.513v2.787c-0.633,0.382-1.061,1.069-1.061,1.863
			c0,1.204,0.978,2.181,2.18,2.181c1.205,0,2.181-0.977,2.181-2.181c0-0.794-0.428-1.482-1.062-1.863v-2.787
			c7.118,0.165,12.063,1.847,13.752,2.513v0.274c-0.634,0.382-1.062,1.069-1.062,1.863c0,1.204,0.979,2.181,2.181,2.181
			c1.204,0,2.18-0.977,2.18-2.181C41.671,44.025,41.245,43.337,40.611,42.956z M19.927,6.464c0.05-0.021,1.269-0.525,3.574-0.525
			c2.305,0,3.523,0.504,3.574,0.525c0.285,0.121,0.419,0.449,0.299,0.733c-0.091,0.213-0.299,0.342-0.516,0.342
			c-0.073,0-0.146-0.015-0.219-0.044c-0.008-0.004-1.084-0.437-3.139-0.437c-2.055,0-3.131,0.433-3.142,0.438
			c-0.285,0.119-0.611-0.018-0.73-0.302C19.51,6.91,19.644,6.583,19.927,6.464z M19.368,9.861c0.058-0.024,1.461-0.604,4.134-0.604
			s4.076,0.58,4.134,0.604c0.285,0.121,0.419,0.449,0.3,0.733c-0.092,0.213-0.3,0.342-0.517,0.342c-0.073,0-0.146-0.014-0.218-0.044
			c-0.012-0.004-1.278-0.517-3.699-0.517s-3.688,0.512-3.701,0.518c-0.285,0.118-0.611-0.017-0.73-0.301
			C18.952,10.308,19.083,9.981,19.368,9.861z M23.501,13.692c-2.787,0-4.246,0.591-4.26,0.597c-0.287,0.117-0.612-0.015-0.732-0.3
			c-0.118-0.285,0.015-0.611,0.299-0.731c0.065-0.028,1.654-0.685,4.693-0.685s4.628,0.657,4.693,0.685
			c0.283,0.12,0.416,0.446,0.299,0.731c-0.092,0.214-0.299,0.343-0.518,0.343c-0.072,0-0.145-0.014-0.216-0.043
			C27.748,14.284,26.289,13.692,23.501,13.692z"/>
	</g>
</g>
<g>
</g>
<g>
</g>
<g>
</g>
<g>
</g>
<g>
</g>
<g>
</g>
<g>
</g>
<g>
</g>
<g>
</g>
<g>
</g>
<g>
</g>
<g>
</g>
<g>
</g>
<g>
</g>
<g>
</g>
</svg>
