<?xml version="1.0" encoding="iso-8859-1"?>
<!-- Generator: Adobe Illustrator 16.0.0, SVG Export Plug-In . SVG Version: 6.00 Build 0)  -->
<!DOCTYPE svg PUBLIC "-//W3C//DTD SVG 1.1//EN" "http://www.w3.org/Graphics/SVG/1.1/DTD/svg11.dtd">
<svg version="1.1" id="Capa_1" xmlns="http://www.w3.org/2000/svg" xmlns:xlink="http://www.w3.org/1999/xlink" x="0px" y="0px"
	 width="47px" height="47px" viewBox="0 0 47 47" style="enable-background:new 0 0 47 47;" xml:space="preserve">
<g>
	<g id="Layer_1_81_">
		<g>
			<path d="M44.863,11.483H34.479l-2.51-6.271c-0.162-0.406-0.555-0.672-0.992-0.672H16.023c-0.437,0-0.83,0.266-0.992,0.672
				l-2.509,6.271H2.136C0.956,11.483,0,12.439,0,13.619v26.705c0,1.18,0.957,2.136,2.136,2.136h42.727
				c1.181,0,2.137-0.956,2.137-2.136V13.619C47,12.439,46.043,11.483,44.863,11.483z M41.034,15.756
				c-4.025,3.537-11.32,9.079-17.534,9.079S9.991,19.293,5.966,15.756H41.034z M16.746,6.676h13.508l1.923,4.808H14.823
				L16.746,6.676z M4.273,38.188V17.13c4.173,3.72,12.12,9.843,19.227,9.843c7.107,0,15.055-6.123,19.227-9.843v21.058H4.273z"/>
			<circle cx="23.5" cy="19.773" r="2.67"/>
		</g>
	</g>
</g>
<g>
</g>
<g>
</g>
<g>
</g>
<g>
</g>
<g>
</g>
<g>
</g>
<g>
</g>
<g>
</g>
<g>
</g>
<g>
</g>
<g>
</g>
<g>
</g>
<g>
</g>
<g>
</g>
<g>
</g>
</svg>
