<?xml version="1.0" encoding="iso-8859-1"?>
<!-- Generator: Adobe Illustrator 16.0.0, SVG Export Plug-In . SVG Version: 6.00 Build 0)  -->
<!DOCTYPE svg PUBLIC "-//W3C//DTD SVG 1.1//EN" "http://www.w3.org/Graphics/SVG/1.1/DTD/svg11.dtd">
<svg version="1.1" id="Capa_1" xmlns="http://www.w3.org/2000/svg" xmlns:xlink="http://www.w3.org/1999/xlink" x="0px" y="0px"
	 width="47.001px" height="47px" viewBox="0 0 47.001 47" style="enable-background:new 0 0 47.001 47;" xml:space="preserve">
<g>
	<g id="Layer_1_135_">
		<g>
			<path d="M44.863,0H14.421c-1.181,0-2.137,0.957-2.137,2.136v19.229H2.137C0.957,21.365,0,22.32,0,23.5v21.364
				C0,46.044,0.957,47,2.137,47h20.295h22.431c1.181,0,2.138-0.957,2.138-2.136V23.5V2.136C47,0.958,46.043,0,44.863,0z
				 M16.557,4.273h26.171v15.602l-8.045-4.453c-0.646-0.355-1.426-0.355-2.07,0L21.88,21.365h-5.322L16.557,4.273L16.557,4.273z
				 M4.272,25.636H14.42h5.875v17.091H4.272V25.636z M42.729,42.727H24.568V24.759l9.079-5.026l9.08,5.026v17.968H42.729z"/>
			<path d="M10.147,28.307H6.943c-0.295,0-0.534,0.239-0.534,0.534v3.205c0,0.295,0.239,0.534,0.534,0.534h3.204
				c0.296,0,0.534-0.239,0.534-0.534v-3.205C10.682,28.546,10.443,28.307,10.147,28.307z"/>
			<path d="M17.625,28.307h-3.204c-0.296,0-0.534,0.239-0.534,0.534v3.205c0,0.295,0.238,0.534,0.534,0.534h3.204
				c0.295,0,0.534-0.239,0.534-0.534v-3.205C18.159,28.546,17.92,28.307,17.625,28.307z"/>
			<path d="M10.147,35.785H6.943c-0.295,0-0.534,0.239-0.534,0.534v3.205c0,0.295,0.239,0.533,0.534,0.533h3.204
				c0.296,0,0.534-0.238,0.534-0.533v-3.205C10.682,36.024,10.443,35.785,10.147,35.785z"/>
			<path d="M17.625,35.785h-3.204c-0.296,0-0.534,0.239-0.534,0.534v3.205c0,0.295,0.238,0.533,0.534,0.533h3.204
				c0.295,0,0.534-0.238,0.534-0.533v-3.205C18.159,36.024,17.92,35.785,17.625,35.785z"/>
			<path d="M31.512,28.307h-3.205c-0.295,0-0.533,0.239-0.533,0.534v3.205c0,0.295,0.238,0.534,0.533,0.534h3.205
				c0.295,0,0.534-0.239,0.534-0.534v-3.205C32.046,28.546,31.807,28.307,31.512,28.307z"/>
			<path d="M35.784,32.581h3.204c0.296,0,0.533-0.239,0.533-0.534v-3.205c0-0.295-0.237-0.534-0.533-0.534h-3.204
				c-0.296,0-0.534,0.239-0.534,0.534v3.205C35.25,32.341,35.488,32.581,35.784,32.581z"/>
			<path d="M31.512,35.785h-3.205c-0.295,0-0.533,0.239-0.533,0.534v3.205c0,0.295,0.238,0.533,0.533,0.533h3.205
				c0.295,0,0.534-0.238,0.534-0.533v-3.205C32.046,36.024,31.807,35.785,31.512,35.785z"/>
			<path d="M35.784,40.057h3.204c0.296,0,0.533-0.238,0.533-0.533v-3.205c0-0.295-0.237-0.534-0.533-0.534h-3.204
				c-0.296,0-0.534,0.239-0.534,0.534v3.205C35.25,39.819,35.488,40.057,35.784,40.057z"/>
			<path d="M20.829,11.951h3.205c0.295,0,0.534-0.239,0.534-0.534V8.211c0-0.295-0.239-0.534-0.534-0.534h-3.205
				c-0.295,0-0.533,0.239-0.533,0.534v3.205C20.296,11.711,20.534,11.951,20.829,11.951z"/>
			<path d="M28.307,11.951h3.205c0.295,0,0.534-0.239,0.534-0.534V8.211c0-0.295-0.239-0.534-0.534-0.534h-3.205
				c-0.295,0-0.533,0.239-0.533,0.534v3.205C27.771,11.711,28.012,11.951,28.307,11.951z"/>
			<path d="M24.034,19.428c0.295,0,0.534-0.239,0.534-0.534v-3.205c0-0.295-0.239-0.534-0.534-0.534h-3.205
				c-0.295,0-0.533,0.239-0.533,0.534v3.205c0,0.295,0.238,0.534,0.533,0.534H24.034z"/>
			<path d="M35.784,11.951h3.204c0.296,0,0.533-0.239,0.533-0.534V8.211c0-0.295-0.237-0.534-0.533-0.534h-3.204
				c-0.296,0-0.534,0.239-0.534,0.534v3.205C35.25,11.711,35.488,11.951,35.784,11.951z"/>
		</g>
	</g>
</g>
<g>
</g>
<g>
</g>
<g>
</g>
<g>
</g>
<g>
</g>
<g>
</g>
<g>
</g>
<g>
</g>
<g>
</g>
<g>
</g>
<g>
</g>
<g>
</g>
<g>
</g>
<g>
</g>
<g>
</g>
</svg>
