<?xml version="1.0" encoding="iso-8859-1"?>
<!-- Generator: Adobe Illustrator 16.0.0, SVG Export Plug-In . SVG Version: 6.00 Build 0)  -->
<!DOCTYPE svg PUBLIC "-//W3C//DTD SVG 1.1//EN" "http://www.w3.org/Graphics/SVG/1.1/DTD/svg11.dtd">
<svg version="1.1" id="Capa_1" xmlns="http://www.w3.org/2000/svg" xmlns:xlink="http://www.w3.org/1999/xlink" x="0px" y="0px"
	 width="47px" height="47px" viewBox="0 0 47 47" style="enable-background:new 0 0 47 47;" xml:space="preserve">
<g>
	<g id="Layer_1_17_">
		<g>
			<path d="M47,23.5C47,10.542,36.458,0,23.5,0S0,10.542,0,23.5S10.542,47,23.5,47c1.18,0,2.137-0.957,2.137-2.137V25.637h19.227
				C46.043,25.637,47,24.68,47,23.5z"/>
			<path d="M45.812,27.771H28.841c-0.59,0-1.067,0.479-1.067,1.068v16.973c0,0.305,0.129,0.595,0.355,0.797
				c0.196,0.177,0.45,0.271,0.712,0.271c0.04,0,0.078-0.002,0.118-0.006c9.346-1.038,16.879-8.572,17.917-17.917
				c0.033-0.302-0.063-0.604-0.267-0.83C46.407,27.902,46.117,27.771,45.812,27.771z M29.909,44.58V29.909H44.58
				C43.247,37.322,37.322,43.247,29.909,44.58z"/>
		</g>
	</g>
</g>
<g>
</g>
<g>
</g>
<g>
</g>
<g>
</g>
<g>
</g>
<g>
</g>
<g>
</g>
<g>
</g>
<g>
</g>
<g>
</g>
<g>
</g>
<g>
</g>
<g>
</g>
<g>
</g>
<g>
</g>
</svg>
