<?xml version="1.0" encoding="iso-8859-1"?>
<!-- Generator: Adobe Illustrator 16.0.0, SVG Export Plug-In . SVG Version: 6.00 Build 0)  -->
<!DOCTYPE svg PUBLIC "-//W3C//DTD SVG 1.1//EN" "http://www.w3.org/Graphics/SVG/1.1/DTD/svg11.dtd">
<svg version="1.1" id="Capa_1" xmlns="http://www.w3.org/2000/svg" xmlns:xlink="http://www.w3.org/1999/xlink" x="0px" y="0px"
	 width="47.001px" height="47.001px" viewBox="0 0 47.001 47.001" style="enable-background:new 0 0 47.001 47.001;"
	 xml:space="preserve">
<g>
	<g id="Layer_1_158_">
		<g>
			<path d="M28.306,28.159v-2.298c0.963-0.45,1.604-1.103,1.604-2.006c0-0.33-0.094-0.624-0.25-0.89
				c0.156-0.266,0.25-0.559,0.25-0.89c0-0.515-0.208-0.946-0.562-1.306c3.213-1.976,5.369-5.514,5.369-9.555
				C34.715,5.031,29.683,0,23.499,0c-6.184,0-11.216,5.031-11.216,11.216c0,4.041,2.156,7.579,5.37,9.555
				c-0.355,0.359-0.563,0.791-0.563,1.306c0,0.331,0.094,0.624,0.25,0.89c-0.156,0.266-0.25,0.56-0.25,0.89
				c0,0.904,0.64,1.556,1.603,2.007v2.295c-9.004,1.278-10.682,6.069-10.682,7.159v3.205c0,1.18,0.957,2.136,2.137,2.136h26.705
				c1.18,0,2.137-0.956,2.137-2.136v-3.205C38.987,34.227,37.29,29.438,28.306,28.159z M23.499,4.272
				c3.828,0,6.943,3.115,6.943,6.943c0,3.828-3.115,6.944-6.943,6.944s-6.943-3.115-6.943-6.943
				C16.556,7.388,19.671,4.272,23.499,4.272z"/>
			<path d="M35.517,42.729H11.482c-1.18,0-2.136,0.955-2.136,2.136c0,1.18,0.957,2.137,2.136,2.137h24.035
				c1.18,0,2.135-0.957,2.135-2.137C37.651,43.684,36.696,42.729,35.517,42.729z"/>
		</g>
	</g>
</g>
<g>
</g>
<g>
</g>
<g>
</g>
<g>
</g>
<g>
</g>
<g>
</g>
<g>
</g>
<g>
</g>
<g>
</g>
<g>
</g>
<g>
</g>
<g>
</g>
<g>
</g>
<g>
</g>
<g>
</g>
</svg>
