<?xml version="1.0" encoding="iso-8859-1"?>
<!-- Generator: Adobe Illustrator 16.0.0, SVG Export Plug-In . SVG Version: 6.00 Build 0)  -->
<!DOCTYPE svg PUBLIC "-//W3C//DTD SVG 1.1//EN" "http://www.w3.org/Graphics/SVG/1.1/DTD/svg11.dtd">
<svg version="1.1" id="Capa_1" xmlns="http://www.w3.org/2000/svg" xmlns:xlink="http://www.w3.org/1999/xlink" x="0px" y="0px"
	 width="47px" height="47px" viewBox="0 0 47 47" style="enable-background:new 0 0 47 47;" xml:space="preserve">
<g>
	<g id="Layer_1_103_">
		<g>
			<path d="M15.524,27.982v0.508l0,0H39.92c0.612,0,1.107-0.497,1.107-1.109v-3.65L15.524,27.982z"/>
			<path d="M42.921,33.25c-0.208-0.208-0.489-0.325-0.782-0.325H14.325c-1.538,2.647-4.396,4.437-7.672,4.437
				c-2.649,0-5.026-1.174-6.652-3.023v3.023c0,0.611,0.495,1.108,1.108,1.108h44.354c0.448,0,0.854-0.271,1.023-0.685
				c0.173-0.415,0.078-0.891-0.239-1.208L42.921,33.25z"/>
			<path d="M6.653,35.143c3.669,0,6.653-2.983,6.653-6.652v-2.387l32.338-5.391c0.412-0.068,0.748-0.361,0.875-0.758
				c0.063-0.198,1.513-4.882-0.953-8.253c-1.537-2.104-4.185-3.172-7.864-3.172c-11.079,0-36.046,12.882-37.103,13.431
				C0.231,22.151,0,22.531,0,22.945v5.543C0.001,32.159,2.985,35.143,6.653,35.143z M6.653,26.271c1.226,0,2.218,0.994,2.218,2.219
				s-0.992,2.218-2.218,2.218c-1.225,0-2.218-0.993-2.218-2.218S5.429,26.271,6.653,26.271z"/>
		</g>
	</g>
</g>
<g>
</g>
<g>
</g>
<g>
</g>
<g>
</g>
<g>
</g>
<g>
</g>
<g>
</g>
<g>
</g>
<g>
</g>
<g>
</g>
<g>
</g>
<g>
</g>
<g>
</g>
<g>
</g>
<g>
</g>
</svg>
