<?xml version="1.0" encoding="iso-8859-1"?>
<!-- Generator: Adobe Illustrator 19.0.0, SVG Export Plug-In . SVG Version: 6.00 Build 0)  -->
<svg version="1.1" id="Capa_1" xmlns="http://www.w3.org/2000/svg" xmlns:xlink="http://www.w3.org/1999/xlink" x="0px" y="0px"
	 viewBox="0 0 496 496" style="enable-background:new 0 0 496 496;" xml:space="preserve">
<g>
	<g>
		<circle cx="288" cy="160" r="8"/>
	</g>
</g>
<g>
	<g>
		<path d="M272,208c0,13.232-10.768,24-24,24s-24-10.768-24-24h-16c0,22.056,17.944,40,40,40c22.056,0,40-17.944,40-40H272z"/>
	</g>
</g>
<g>
	<g>
		<path d="M393.712,317.48L376,311.576V280c0-13.232-10.768-24-24-24h-36.08c7.896-9.528,13.536-20.584,16.8-32.48
			C352.536,221.152,368,204.44,368,184v-64C368,53.832,314.168,0,248,0S128,53.832,128,120v64c0,20.44,15.464,37.152,35.272,39.52
			c3.272,11.896,8.904,22.952,16.8,32.48H144c-13.232,0-24,10.768-24,24v31.576l-17.704,5.904C79.384,325.104,64,346.456,64,370.592
			V496h368V370.592C432,346.456,416.608,325.104,393.712,317.48z M335.616,206.648C335.784,204.44,336,202.24,336,200v-38.528
			c9.288,3.312,16,12.112,16,22.528C352,194.552,345.104,203.44,335.616,206.648z M144,184c0-10.416,6.712-19.216,16-22.528V200
			c0,2.24,0.216,4.44,0.384,6.648C150.896,203.44,144,194.552,144,184z M160.008,120v24.808c-5.944,1.216-11.328,3.856-16,7.392V120
			C144,62.656,190.656,16,248,16s104,46.656,104,104v32.208c-4.936-3.736-10.696-6.376-17.04-7.504
			c-2.712-22.176-11.128-43.592-24.56-61.504l-5.208-6.952l-30.296,26.92c-28.04,24.928-62.096,41.128-98.888,47.424V120H160.008z
			 M176,200v-33.208c8.232-1.304,16.376-2.944,24.328-5.16C201.104,165.24,204.16,168,208,168c4.416,0,8-3.584,8-8
			c0-1.128-0.24-2.192-0.664-3.16c25.672-9.232,49.44-23.28,70.176-41.712l17.04-15.144C313.848,117.84,320,138.84,320,160v40
			c0,22.032-9.816,42.256-26.904,56h-90.2C185.824,242.248,176,222.024,176,200z M136,280c0-4.416,3.592-8,8-8h208
			c4.416,0,8,3.584,8,8v136h-16V288H152v128h-16V280z M328,304v112H168V304H328z M360,432c0,8.824-7.176,16-16,16H152
			c-8.824,0-16-7.176-16-16H360z M80,480V370.592c0-17.24,10.992-32.496,27.352-37.944L120,328.432V432c0,17.648,14.352,32,32,32h40
			c10.416,0,19.216,6.712,22.528,16H80z M264.816,480H231.2c-1.216-5.944-3.856-11.328-7.392-16h48.4
			C268.672,468.672,266.024,474.056,264.816,480z M416,480H281.472c3.312-9.288,12.112-16,22.528-16h40c17.648,0,32-14.352,32-32
			V328.432l12.648,4.216c16.36,5.456,27.352,20.704,27.352,37.944V480z"/>
	</g>
</g>
<g>
	<g>
		<polygon points="222.4,332.8 209.6,323.2 182,360 209.6,396.8 222.4,387.2 202,360 		"/>
	</g>
</g>
<g>
	<g>
		<polygon points="286.4,323.2 273.6,332.8 294,360 273.6,387.2 286.4,396.8 314,360 		"/>
	</g>
</g>
<g>
	<g>
		<rect x="202.24" y="352.006" transform="matrix(0.2871 -0.9579 0.9579 0.2871 -170.9021 490.3764)" width="83.52" height="16"/>
	</g>
</g>
<g>
</g>
<g>
</g>
<g>
</g>
<g>
</g>
<g>
</g>
<g>
</g>
<g>
</g>
<g>
</g>
<g>
</g>
<g>
</g>
<g>
</g>
<g>
</g>
<g>
</g>
<g>
</g>
<g>
</g>
</svg>
