<svg height="511pt" viewBox="-3 1 511 511.99975" width="511pt" xmlns="http://www.w3.org/2000/svg"><path d="m55.585938 186.835938c-.011719 0-.023438 0-.035157 0-4.140625-.019532-7.484375-3.390626-7.464843-7.535157l.015624-3.347656c.019532-4.128906 3.375-7.464844 7.5-7.464844h.035157c4.144531.019531 7.484375 3.394531 7.464843 7.539063l-.015624 3.347656c-.019532 4.128906-3.375 7.460938-7.5 7.460938zm0 0"/><path d="m55.480469 220.914062c-.011719 0-.023438 0-.035157 0-4.140624-.019531-7.484374-3.390624-7.464843-7.535156l.015625-3.347656c.019531-4.128906 3.375-7.464844 7.5-7.464844h.039062c4.140625.019532 7.480469 3.394532 7.460938 7.539063l-.015625 3.347656c-.019531 4.128906-3.375 7.460937-7.5 7.460937zm0 0"/><path d="m74.257812 202.265625c-.015624 0-.027343 0-.039062 0l-3.347656-.019531c-4.140625-.019532-7.484375-3.390625-7.464844-7.535156.019531-4.128907 3.375-7.464844 7.5-7.464844h.035156l3.351563.019531c4.140625.019531 7.480469 3.390625 7.460937 7.535156-.019531 4.128907-3.371094 7.464844-7.496094 7.464844zm0 0"/><path d="m40.175781 202.15625c-.011719 0-.023437 0-.035156 0l-3.347656-.015625c-4.140625-.019531-7.484375-3.390625-7.464844-7.535156.019531-4.128907 3.375-7.464844 7.5-7.464844h.035156l3.347657.015625c4.144531.023438 7.484374 3.394531 7.464843 7.535156-.019531 4.132813-3.371093 7.464844-7.5 7.464844zm0 0"/><path d="m271.679688 477.921875c-.011719 0-.023438 0-.035157 0-4.144531-.019531-7.484375-3.394531-7.464843-7.535156l.015624-3.347657c.019532-4.128906 3.371094-7.464843 7.496094-7.464843h.039063c4.140625.019531 7.484375 3.390625 7.464843 7.535156l-.015624 3.347656c-.019532 4.128907-3.375 7.464844-7.5 7.464844zm0 0"/><path d="m271.574219 512c-.011719 0-.023438 0-.035157 0-4.144531-.019531-7.484374-3.394531-7.464843-7.535156l.015625-3.347656c.019531-4.132813 3.375-7.464844 7.5-7.464844h.035156c4.140625.019531 7.484375 3.394531 7.464844 7.535156l-.015625 3.347656c-.019531 4.128906-3.375 7.464844-7.5 7.464844zm0 0"/><path d="m290.347656 493.347656c-.011718 0-.023437 0-.039062 0l-3.347656-.015625c-4.140626-.019531-7.484376-3.394531-7.460938-7.539062.019531-4.128907 3.371094-7.460938 7.496094-7.460938h.039062l3.347656.015625c4.140626.019532 7.484376 3.394532 7.464844 7.535156-.019531 4.128907-3.375 7.464844-7.5 7.464844zm0 0"/><path d="m256.269531 493.242188c-.011719 0-.023437 0-.039062 0l-3.347657-.015626c-4.140624-.019531-7.484374-3.394531-7.460937-7.535156.019531-4.132812 3.371094-7.464844 7.496094-7.464844h.039062l3.347657.015626c4.140624.019531 7.484374 3.394531 7.464843 7.535156-.019531 4.128906-3.375 7.464844-7.5 7.464844zm0 0"/><path d="m321.433594 420.035156c-.015625 0-.027344 0-.039063 0-4.140625-.019531-7.484375-3.394531-7.464843-7.535156l.019531-3.347656c.019531-4.132813 3.371093-7.464844 7.496093-7.464844h.039063c4.140625.019531 7.484375 3.394531 7.464844 7.535156l-.019531 3.347656c-.019532 4.128907-3.371094 7.464844-7.496094 7.464844zm0 0"/><path d="m321.328125 454.113281c-.015625 0-.027344 0-.039063 0-4.140624-.019531-7.484374-3.394531-7.460937-7.535156l.015625-3.347656c.019531-4.132813 3.371094-7.464844 7.496094-7.464844h.039062c4.140625.019531 7.484375 3.394531 7.464844 7.535156l-.015625 3.347657c-.023437 4.128906-3.375 7.464843-7.5 7.464843zm0 0"/><path d="m340.101562 435.460938c-.015624 0-.027343 0-.039062 0l-3.347656-.015626c-4.140625-.019531-7.484375-3.394531-7.464844-7.535156.019531-4.132812 3.375-7.464844 7.5-7.464844h.039062l3.347657.015626c4.140625.019531 7.484375 3.394531 7.460937 7.535156-.019531 4.128906-3.371094 7.464844-7.496094 7.464844zm0 0"/><path d="m306.023438 435.355469c-.015626 0-.027344 0-.039063 0l-3.347656-.015625c-4.140625-.019532-7.484375-3.394532-7.464844-7.535156.019531-4.132813 3.375-7.464844 7.5-7.464844h.039063l3.347656.015625c4.140625.019531 7.484375 3.394531 7.460937 7.535156-.019531 4.132813-3.371093 7.464844-7.496093 7.464844zm0 0"/><path d="m64.039062 336.347656c-3.664062 0-6.871093-2.691406-7.414062-6.425781-.59375-4.097656 2.246094-7.902344 6.34375-8.5l15.660156-2.273437c1.5625-.226563 2.914063-1.207032 3.613282-2.625l27.355468-55.421876c3.359375-6.808593 10.160156-11.039062 17.753906-11.039062 7.589844 0 14.394532 4.230469 17.753907 11.039062l4.71875 9.558594c1.832031 3.714844.308593 8.210938-3.40625 10.042969-3.714844 1.835937-8.210938.308594-10.042969-3.40625l-4.71875-9.558594c-1.191406-2.414062-3.40625-2.675781-4.304688-2.675781-.898437 0-3.113281.261719-4.304687 2.675781l-27.351563 55.421875c-2.882812 5.84375-8.457031 9.894532-14.90625 10.832032l-15.660156 2.273437c-.367187.054687-.730468.082031-1.089844.082031zm0 0"/><path d="m193.523438 493.28125c-3.148438 0-6.308594-.757812-9.234376-2.296875l-54.703124-28.757813c-1.398438-.734374-3.070313-.734374-4.46875 0l-11.386719 5.984376c-3.664063 1.929687-8.199219.519531-10.128907-3.148438-1.925781-3.664062-.515624-8.199219 3.148438-10.128906l11.386719-5.984375c5.773437-3.035157 12.660156-3.035157 18.429687 0l54.703125 28.757812c2.382813 1.253907 4.332031.164063 5.058594-.363281.722656-.527344 2.363281-2.039062 1.90625-4.695312l-10.445313-60.914063c-1.101562-6.425781 1.027344-12.976563 5.695313-17.527344l44.257813-43.140625c1.925781-1.878906 1.488281-4.066406 1.210937-4.917968-.277344-.855469-1.207031-2.882813-3.875-3.269532l-61.160156-8.886718c-6.453125-.9375-12.023438-4.988282-14.910157-10.832032l-8.082031-16.382812c-1.835937-3.714844-.308593-8.210938 3.40625-10.042969 3.714844-1.832031 8.210938-.308594 10.042969 3.40625l8.085938 16.382813c.699218 1.417968 2.050781 2.398437 3.613281 2.625l61.160156 8.886718c7.515625 1.089844 13.640625 6.253906 15.984375 13.476563 2.347656 7.21875.429688 14.996093-5.007812 20.296875l-44.257813 43.140625c-1.132813 1.101562-1.648437 2.691406-1.378906 4.25l10.445312 60.914062c1.285157 7.484375-1.734375 14.902344-7.875 19.367188-3.472656 2.519531-7.53125 3.800781-11.621093 3.800781zm0 0"/><path d="m61.179688 493.28125c-4.085938 0-8.148438-1.28125-11.617188-3.804688-6.144531-4.460937-9.164062-11.882812-7.878906-19.363281l10.449218-60.914062c.265626-1.558594-.25-3.148438-1.382812-4.25l-44.253906-43.140625c-5.4375-5.300782-7.359375-13.078125-5.011719-20.296875 2.347656-7.222657 8.472656-12.386719 15.984375-13.476563l12.839844-1.867187c4.101562-.59375 7.90625 2.246093 8.5 6.34375.59375 4.101562-2.242188 7.90625-6.34375 8.5l-12.839844 1.867187c-2.664062.386719-3.597656 2.414063-3.875 3.265625-.277344.855469-.714844 3.042969 1.214844 4.921875l44.257812 43.140625c4.667969 4.550781 6.792969 11.101563 5.691406 17.527344l-10.445312 60.914063c-.457031 2.652343 1.183594 4.167968 1.910156 4.691406.722656.527344 2.671875 1.621094 5.054688.367187l14.496094-7.621093c3.667968-1.925782 8.203124-.519532 10.128906 3.148437 1.925781 3.667969.519531 8.203125-3.148438 10.128906l-14.496094 7.621094c-2.921874 1.535156-6.085937 2.296875-9.234374 2.296875zm0 0"/><path d="m165.097656 233.503906c-1.917968 0-3.839844-.734375-5.304687-2.199218-2.925781-2.929688-2.925781-7.675782 0-10.605469l193.625-193.625c2.925781-2.925781 7.675781-2.925781 10.605469 0 2.929687 2.929687 2.929687 7.679687 0 10.609375l-193.625 193.621094c-1.460938 1.464843-3.382813 2.199218-5.300782 2.199218zm0 0"/><path d="m282.425781 281.742188c-1.917969 0-3.839843-.734376-5.304687-2.199219-2.929688-2.925781-2.929688-7.675781 0-10.605469l159.082031-159.078125c2.925781-2.929687 7.675781-2.929687 10.605469 0 2.925781 2.929687 2.925781 7.679687 0 10.605469l-159.082032 159.082031c-1.460937 1.460937-3.382812 2.195313-5.300781 2.195313zm0 0"/><path d="m294.539062 217.898438c-1.917968 0-3.839843-.734376-5.304687-2.199219-2.929687-2.925781-2.929687-7.675781 0-10.605469l202.898437-202.898438c2.929688-2.925781 7.679688-2.925781 10.605469 0 2.929688 2.929688 2.929688 7.679688 0 10.609376l-202.898437 202.894531c-1.460938 1.464843-3.382813 2.199219-5.300782 2.199219zm0 0"/><path d="m218.171875 294.261719c-1.917969 0-3.839844-.730469-5.300781-2.195313-2.929688-2.929687-2.929688-7.679687 0-10.605468l46.792968-46.792969c2.925782-2.929688 7.675782-2.929688 10.605469 0 2.929688 2.929687 2.929688 7.675781 0 10.605469l-46.792969 46.792968c-1.464843 1.464844-3.382812 2.195313-5.304687 2.195313zm0 0"/><path d="m449.660156 172.320312c-1.917968 0-3.839844-.730468-5.304687-2.195312-2.929688-2.929688-2.929688-7.679688 0-10.605469l10.375-10.375c2.929687-2.929687 7.679687-2.929687 10.605469 0 2.929687 2.925781 2.929687 7.675781 0 10.605469l-10.375 10.375c-1.460938 1.464844-3.382813 2.195312-5.300782 2.195312zm0 0"/><path d="m162.144531 154.519531c-1.921875 0-3.839843-.730469-5.304687-2.195312-2.929688-2.929688-2.929688-7.679688 0-10.605469l10.375-10.375c2.929687-2.929688 7.679687-2.929688 10.605468 0 2.929688 2.929688 2.929688 7.675781 0 10.605469l-10.375 10.375c-1.464843 1.464843-3.382812 2.195312-5.300781 2.195312zm0 0"/><path d="m218.171875 121.636719c-1.917969 0-3.839844-.734375-5.300781-2.199219-2.929688-2.929688-2.929688-7.675781 0-10.605469l10.375-10.375c2.925781-2.929687 7.675781-2.929687 10.605468 0 2.925782 2.929688 2.925782 7.679688 0 10.605469l-10.375 10.375c-1.464843 1.464844-3.382812 2.199219-5.304687 2.199219zm0 0"/><path d="m256.722656 405.984375c-1.921875 0-3.839844-.730469-5.304687-2.195313-2.929688-2.929687-2.929688-7.679687 0-10.605468l112.804687-112.808594c2.929688-2.925781 7.679688-2.925781 10.609375 0 2.925781 2.929688 2.925781 7.679688 0 10.609375l-112.808593 112.804687c-1.464844 1.464844-3.382813 2.195313-5.300782 2.195313zm0 0"/><path d="m423.058594 374.253906c-.011719 0-.019532 0-.03125 0h-.125c-4.140625-.015625-7.488282-3.386718-7.472656-7.527344.019531-4.132812 3.371093-7.472656 7.5-7.472656h.03125.125c4.144531.015625 7.488281 3.386719 7.472656 7.527344-.015625 4.132812-3.371094 7.472656-7.5 7.472656zm0 0"/><path d="m15.636719 452.441406c-.011719 0-.019531 0-.03125 0h-.125c-4.144531-.019531-7.488281-3.386718-7.472657-7.53125.015626-4.132812 3.371094-7.46875 7.5-7.46875h.03125.125c4.140626.015625 7.488282 3.386719 7.472657 7.527344-.019531 4.132812-3.371094 7.472656-7.5 7.472656zm0 0"/><path d="m399.109375 333.800781c-.011719 0-.019531 0-.027344 0h-.128906c-4.140625-.015625-7.488281-3.386719-7.472656-7.527343.019531-4.132813 3.371093-7.472657 7.5-7.472657h.03125.125c4.144531.015625 7.488281 3.386719 7.472656 7.53125-.015625 4.132813-3.371094 7.46875-7.5 7.46875zm0 0"/><path d="m396.050781 379.175781c-.007812 0-.019531 0-.027343 0h-.128907c-4.140625-.015625-7.484375-3.386719-7.46875-7.53125.015625-4.128906 3.371094-7.46875 7.5-7.46875h.027344.128906c4.140625.015625 7.484375 3.386719 7.46875 7.527344-.015625 4.132813-3.371093 7.472656-7.5 7.472656zm0 0"/><path d="m36.554688 271.246094c-3.894532 0-7.183594-3.007813-7.472657-6.957032-.300781-4.128906 2.804688-7.722656 6.9375-8.023437l.125-.007813c4.132813-.296874 7.726563 2.804688 8.027344 6.9375.300781 4.128907-2.804687 7.722657-6.9375 8.023438l-.128906.007812c-.183594.011719-.367188.019532-.550781.019532zm0 0"/></svg>