<svg height="512pt" viewBox="-4 0 511 512" width="512pt" xmlns="http://www.w3.org/2000/svg"><path d="m122.175781 121.722656c-.472656.511719-.941406 1.023438-1.40625 1.535156-2.777343 3.074219-2.542969 7.816407.527344 10.59375 1.4375 1.300782 3.238281 1.941407 5.03125 1.941407 2.046875 0 4.082031-.832031 5.5625-2.46875.429687-.472657.859375-.945313 1.296875-1.414063 2.8125-3.039062 2.628906-7.785156-.414062-10.601562-3.039063-2.808594-7.785157-2.625-10.597657.414062zm0 0"/><path d="m105.558594 155.789062c1.28125.855469 2.730468 1.269532 4.164062 1.269532 2.417969 0 4.792969-1.167969 6.238282-3.328125.355468-.53125.714843-1.0625 1.078124-1.59375 2.339844-3.414063 1.46875-8.082031-1.949218-10.425781-3.417969-2.339844-8.085938-1.464844-10.425782 1.949218-.390624.574219-.78125 1.148438-1.164062 1.722656-2.304688 3.441407-1.382812 8.101563 2.058594 10.40625zm0 0"/><path d="m93.1875 179.789062c1.039062.492188 2.132812.726563 3.210938.726563 2.808593 0 5.5-1.585937 6.78125-4.289063.273437-.574218.546874-1.144531.828124-1.71875 1.824219-3.71875.285157-8.210937-3.433593-10.035156-3.722657-1.824218-8.214844-.285156-10.035157 3.433594-.308593.628906-.613281 1.257812-.910156 1.890625-1.777344 3.742187-.183594 8.214844 3.558594 9.992187zm0 0"/><path d="m167.851562 101.566406c1.320313 0 2.65625-.347656 3.871094-1.082031.550782-.332031 1.101563-.660156 1.65625-.988281 3.5625-2.105469 4.746094-6.707032 2.636719-10.273438-2.105469-3.566406-6.707031-4.746094-10.269531-2.636718-.59375.347656-1.1875.703124-1.777344 1.058593-3.542969 2.140625-4.683594 6.75-2.542969 10.296875 1.410157 2.332032 3.886719 3.625 6.425781 3.625zm0 0"/><path d="m142.679688 102.558594c-.539063.4375-1.078126.875-1.613282 1.320312-3.195312 2.632813-3.648437 7.359375-1.011718 10.558594 1.484374 1.796875 3.628906 2.726562 5.789062 2.726562 1.679688 0 3.371094-.5625 4.769531-1.714843.492188-.40625.984375-.808594 1.480469-1.210938 3.226562-2.597656 3.734375-7.320312 1.132812-10.546875-2.597656-3.222656-7.316406-3.730468-10.546874-1.132812zm0 0"/><path d="m191.894531 89.347656c.972657 0 1.957031-.191406 2.90625-.589844l.191407-.082031c3.828124-1.589843 5.640624-5.976562 4.050781-9.800781-1.589844-3.828125-5.980469-5.640625-9.804688-4.050781l-.257812.109375c-3.816407 1.605468-5.609375 6.003906-4 9.824218 1.207031 2.867188 3.988281 4.589844 6.914062 4.589844zm0 0"/><path d="m79.804688 273.820312c-4.089844.648438-6.882813 4.492188-6.234376 8.585938.109376.683594.222657 1.367188.339844 2.050781.617188 3.660157 3.792969 6.246094 7.386719 6.246094.414063 0 .835937-.035156 1.261719-.105469 4.082031-.691406 6.832031-4.5625 6.140625-8.648437-.105469-.628907-.210938-1.261719-.3125-1.894531-.648438-4.089844-4.488281-6.886719-8.582031-6.234376zm0 0"/><path d="m284.695312 429.65625c-.636718.039062-1.273437.074219-1.914062.105469-4.136719.195312-7.328125 3.710937-7.132812 7.847656.191406 4.015625 3.507812 7.140625 7.484374 7.140625.121094 0 .242188 0 .363282-.007812.691406-.03125 1.386718-.066407 2.078125-.109376 4.136719-.242187 7.289062-3.789062 7.046875-7.925781-.242188-4.136719-3.785156-7.285156-7.925782-7.050781zm0 0"/><path d="m258.8125 429.28125c-.636719-.058594-1.273438-.117188-1.914062-.179688-4.101563-.40625-7.789063 2.613282-8.191407 6.734376-.402343 4.125 2.613281 7.792968 6.734375 8.195312.691406.066406 1.382813.132812 2.070313.191406.222656.019532.441406.027344.660156.027344 3.847656 0 7.121094-2.945312 7.460937-6.851562.359376-4.125-2.695312-7.757813-6.820312-8.117188zm0 0"/><path d="m310.34375 426.253906c-.628906.132813-1.253906.257813-1.882812.382813-4.0625.804687-6.707032 4.75-5.902344 8.8125.707031 3.574219 3.839844 6.046875 7.351562 6.046875.480469 0 .96875-.046875 1.460938-.144532.679687-.132812 1.359375-.273437 2.039062-.414062 4.054688-.847656 6.65625-4.820312 5.808594-8.875-.847656-4.050781-4.820312-6.652344-8.875-5.808594zm0 0"/><path d="m433.390625 323.128906c-3.835937-1.550781-8.210937.304688-9.761719 4.144532-.242187.597656-.484375 1.191406-.730468 1.785156-1.589844 3.824218.222656 8.214844 4.046874 9.804687.941407.390625 1.917969.574219 2.875.574219 2.941407 0 5.730469-1.738281 6.929688-4.625.265625-.636719.527344-1.277344.785156-1.917969 1.554688-3.839843-.300781-8.210937-4.144531-9.765625zm0 0"/><path d="m411.21875 352.148438c-2.132812 3.550781-.980469 8.160156 2.570312 10.289062 1.207032.726562 2.539063 1.070312 3.851563 1.070312 2.550781 0 5.035156-1.296874 6.4375-3.640624.355469-.589844.707031-1.183594 1.058594-1.78125 2.097656-3.570313.902343-8.167969-2.667969-10.265626-3.570312-2.097656-8.167969-.902343-10.265625 2.667969-.328125.554688-.65625 1.109375-.984375 1.660157zm0 0"/><path d="m195.964844 325.160156c-3 2.855469-3.117188 7.601563-.257813 10.601563 16.976563 17.820312 26.324219 41.195312 26.324219 65.8125 0 18.140625-5.046875 35.542969-14.46875 50.570312v-16.691406c0-3.222656-1.257812-6.253906-3.535156-8.535156l-9.796875-9.796875c-2.28125-2.28125-5.3125-3.535156-8.535157-3.535156h-32.417968v-51.863282c0-3.226562-1.257813-6.257812-3.535156-8.539062l-10.953126-10.949219c-2.277343-2.28125-5.3125-3.535156-8.535156-3.535156h-23.160156l-12.601562-12.605469v-14.410156c10.277343-3.675782 21.054687-5.535156 32.113281-5.535156 15.757812 0 31.382812 3.929687 45.183593 11.363281 3.648438 1.964843 8.199219.597656 10.160157-3.046875 1.964843-3.644532.601562-8.195313-3.046875-10.160156-15.980469-8.609376-34.0625-13.15625-52.296875-13.15625-14.714844 0-29.015625 2.847656-42.496094 8.472656-.03125.011718-.0625.027344-.09375.039062-41.210937 17.238282-67.839844 57.230469-67.839844 101.914063 0 17.238281 3.863281 33.75 11.480469 49.074219 3.949219 7.960937 8.878906 15.445312 14.644531 22.25 21.042969 24.847656 51.773438 39.101562 84.304688 39.101562 3.570312 0 7.15625-.171875 10.644531-.507812 25.714844-2.460938 49.882812-13.988282 68.066406-32.46875.027344-.027344.054688-.050782.082032-.078126.003906-.007812.011718-.015624.019531-.023437 20.386719-20.769531 31.613281-48.238281 31.613281-77.347656 0-28.488281-10.816406-55.535157-30.460938-76.15625-2.859374-3-7.609374-3.117188-10.605468-.257813zm-116.472656-6.59375v8.742188c0 3.222656 1.257812 6.253906 3.535156 8.535156l14.320312 14.320312c2.277344 2.28125 5.3125 3.535157 8.535156 3.535157h23.160157l9.234375 9.234375v53.582031c0 6.65625 5.414062 12.070313 12.070312 12.070313h34.132813l8.082031 8.082031v33.84375c-13.449219 12.863281-30.355469 21.527343-48.527344 24.894531v-23.742188c0-3.1875-1.296875-6.304687-3.539062-8.535156l-6.160156-6.160156v-12.460938c0-3.226562-1.253907-6.257812-3.535157-8.535156l-9.972656-9.980468v-16.792969c0-19.003907-15.460937-34.46875-34.46875-34.46875h-18.757813c-2.375 0-4.675781.691406-6.628906 1.984375l-14.871094 9.769531c-3.414062 2.238281-5.449218 6.011719-5.449218 10.09375v16.675781c0 6.65625 5.414062 12.070313 12.070312 12.070313h17.523438v8.199219l-6.292969 6.292968h-24.800781c-5.289063-12.046875-7.976563-24.886718-7.976563-38.242187 0-34.746094 18.636719-66.199219 48.316407-83.007813zm-25.746094 144.636719c-2.269532-2.675781-4.378906-5.480469-6.335938-8.386719h17.757813c3.179687 0 6.289062-1.289062 8.539062-3.539062l7.984375-7.992188c2.292969-2.277344 3.554688-5.3125 3.554688-8.550781v-12.335937c0-6.65625-5.417969-12.070313-12.074219-12.070313h-17.519531v-12.171875l12.828125-8.421875h17.878906c10.734375 0 19.46875 8.730469 19.46875 19.46875v18.003906c0 3.238281 1.261719 6.273438 3.535156 8.535157l9.976563 9.976562v12.464844c0 3.210937 1.25 6.238281 3.535156 8.535156l6.160156 6.160156v24.066406c-.8125.019532-1.621094.058594-2.429687.058594-28.113281-.003906-54.671875-12.320312-72.859375-33.800781zm0 0"/><path d="m224.773438 294.214844c30.914062 30.910156 72.011718 47.933594 115.726562 47.933594 43.71875 0 84.816406-17.023438 115.730469-47.933594 30.910156-30.914063 47.933593-72.011719 47.933593-115.726563 0-43.714843-17.023437-84.816406-47.933593-115.726562-16.878907-16.878907-36.71875-29.597657-58.96875-37.808594-3.890625-1.433594-8.199219.554687-9.636719 4.4375-1.433594 3.886719.554688 8.199219 4.441406 9.632813 13.351563 4.925781 25.742188 11.65625 37.039063 20.070312-5.515625 15.617188-13.816407 32.332031-24.726563 49.757812-2.195312 3.507813-1.132812 8.136719 2.378906 10.335938 1.234376.773438 2.609376 1.144531 3.972657 1.144531 2.496093 0 4.9375-1.25 6.363281-3.523437 10.304688-16.460938 18.433594-32.40625 24.246094-47.542969 1.445312 1.339844 2.878906 2.699219 4.28125 4.101563 15.164062 15.164062 26.640625 33.03125 34 52.511718-4.820313 15.898438-12.71875 32.871094-23.484375 50.449219-2.164063 3.53125-1.054688 8.148437 2.480469 10.3125 1.222656.746094 2.574218 1.105469 3.910156 1.105469 2.523437 0 4.988281-1.277344 6.402344-3.585938 7.019531-11.46875 12.902343-22.734375 17.605468-33.691406.90625 4.792969 1.582032 9.648438 2.023438 14.554688-15.140625 32.007812-38.605469 64.386718-67.867188 93.652343-2.929687 2.929688-2.929687 7.679688 0 10.605469 1.464844 1.464844 3.382813 2.199219 5.300782 2.199219 1.921874 0 3.839843-.734375 5.304687-2.199219 22.5-22.496094 41.71875-46.828125 56.628906-71.523438-4.167969 32.40625-18.820312 62.367188-42.304687 85.847657-28.078125 28.082031-65.410156 43.542969-105.117188 43.542969-9.519531 0-18.898437-.898438-28.050781-2.636719 33.65625-14.457031 69.8125-39.871094 102.011719-72.066407 10.714844-10.714843 20.789062-21.96875 29.9375-33.445312 2.582031-3.238281 2.050781-7.957031-1.1875-10.539062-3.238282-2.582032-7.957032-2.050782-10.539063 1.1875-8.804687 11.039062-18.5 21.871093-28.820312 32.191406-37.070313 37.074218-79.300781 64.648437-115.96875 75.761718-19.476563-7.359374-37.339844-18.832031-52.503907-33.996093-28.078124-28.078125-43.542968-65.410157-43.542968-105.121094 0-1.046875.019531-2.09375.039062-3.136719 28.027344-15.40625 56.460938-37.160156 82.394532-63.09375 17.144531-17.148437 32.414062-35.292968 45.382812-53.933594 2.367188-3.398437 1.527344-8.074218-1.875-10.441406-3.398438-2.363281-8.074219-1.523437-10.4375 1.875-12.460938 17.914063-27.15625 35.375-43.679688 51.894532-22.25 22.25-46.347656 41.273437-70.316406 55.578124 4.503906-31.640624 19.03125-60.855468 42.035156-83.859374 33.214844-33.214844 78.996094-48.566407 125.59375-42.128907 4.101563.566407 7.890626-2.296875 8.457032-6.398437.566406-4.105469-2.300782-7.890625-6.402344-8.457032-24.523438-3.390624-49.894531-1.140624-73.367188 6.507813-24.621093 8.019531-46.453124 21.433594-64.886718 39.871094-30.910156 30.910156-47.9375 72.007812-47.9375 115.726562 0 43.714844 17.023437 84.8125 47.933594 115.726563zm0 0"/><path d="m288.175781 230.808594c-15.917969 11.285156-31.679687 20.664062-46.855469 27.875-3.742187 1.777344-5.332031 6.25-3.554687 9.992187 1.28125 2.703125 3.972656 4.28125 6.777344 4.28125 1.078125 0 2.175781-.234375 3.214843-.726562 15.957032-7.582031 32.472657-17.402344 49.09375-29.1875 3.378907-2.394531 4.175782-7.074219 1.78125-10.453125-2.398437-3.378906-7.078124-4.179688-10.457031-1.78125zm0 0"/><path d="m347.992188 190.1875c1.460937 1.433594 3.355468 2.148438 5.253906 2.148438 1.941406 0 3.882812-.75 5.351562-2.246094 12.011719-12.238282 23.289063-25.011719 33.515625-37.96875 2.566407-3.25 2.011719-7.96875-1.242187-10.535156-3.25-2.566407-7.964844-2.007813-10.53125 1.242187-9.894532 12.535156-20.808594 24.898437-32.445313 36.753906-2.902343 2.957031-2.859375 7.707031.097657 10.605469zm0 0"/><path d="m335.484375 208.484375h.109375c4.144531 0 7.5-3.355469 7.5-7.5 0-4.140625-3.355469-7.5-7.5-7.5h-.109375c-4.144531 0-7.5 3.359375-7.5 7.5 0 4.144531 3.355469 7.5 7.5 7.5zm0 0"/><path d="m331.535156 97.757812h.03125c4.128906 0 7.480469-3.335937 7.5-7.464843.019532-4.144531-3.324218-7.515625-7.464844-7.535157h-.113281c-.011719 0-.023437 0-.035156 0-4.125 0-7.476563 3.335938-7.496094 7.46875-.019531 4.140626 3.324219 7.511719 7.464844 7.53125zm0 0"/><path d="m406.644531 274.84375c-.011719 0-.019531 0-.03125 0-4.128906 0-7.480469 3.335938-7.5 7.46875-.019531 4.140625 3.324219 7.515625 7.464844 7.53125h.113281.035156c4.125 0 7.476563-3.335938 7.496094-7.464844.019532-4.144531-3.324218-7.515625-7.464844-7.535156zm0 0"/><path d="m376.699219 359.699219c-27.589844 0-50.039063 22.449219-50.039063 50.039062 0 27.59375 22.449219 50.039063 50.039063 50.039063 5.484375 0 10.898437-.894532 16.09375-2.660156 3.925781-1.332032 6.023437-5.589844 4.691406-9.511719s-5.589844-6.023438-9.515625-4.691407c-3.640625 1.238282-7.433594 1.863282-11.269531 1.863282-19.320313 0-35.039063-15.71875-35.039063-35.039063 0-19.320312 15.71875-35.039062 35.039063-35.039062 19.320312 0 35.039062 15.71875 35.039062 35.039062 0 5.40625-1.203125 10.59375-3.570312 15.421875-1.828125 3.71875-.292969 8.210938 3.425781 10.039063 3.714844 1.828125 8.210938.292969 10.035156-3.425781 3.390625-6.902344 5.109375-14.316407 5.109375-22.035157 0-27.589843-22.445312-50.039062-50.039062-50.039062zm0 0"/><path d="m87.425781 264.65625c20.519531 0 37.210938-16.691406 37.210938-37.210938 0-20.519531-16.691407-37.210937-37.210938-37.210937s-37.210937 16.691406-37.210937 37.210937c0 20.519532 16.691406 37.210938 37.210937 37.210938zm0-59.425781c12.25 0 22.210938 9.964843 22.210938 22.214843 0 12.246094-9.960938 22.210938-22.210938 22.210938-12.246093 0-22.210937-9.964844-22.210937-22.210938 0-12.25 9.964844-22.214843 22.210937-22.214843zm0 0"/><path d="m282.914062 15h.109376.035156c4.125 0 7.480468-3.335938 7.5-7.46875.019531-4.140625-3.324219-7.5117188-7.46875-7.53125h-.109375c-.011719 0-.023438 0-.035157 0-4.125 0-7.480468 3.335938-7.496093 7.46875-.019531 4.140625 3.324219 7.511719 7.464843 7.53125zm0 0"/><path d="m255.976562 359.582031c.019532-4.140625-3.324218-7.515625-7.46875-7.535156h-.109374c-.011719 0-.019532 0-.03125 0-4.128907 0-7.480469 3.335937-7.5 7.46875-.019532 4.140625 3.324218 7.515625 7.464843 7.53125h.113281.03125c4.128907 0 7.480469-3.335937 7.5-7.464844zm0 0"/><path d="m263.03125 21.414062h.113281c4.140625 0 7.5-3.359374 7.5-7.5 0-4.140624-3.359375-7.5-7.5-7.5h-.113281c-4.144531 0-7.5 3.359376-7.5 7.5 0 4.140626 3.355469 7.5 7.5 7.5zm0 0"/><path d="m37.050781 242.675781h.113281.03125c4.125 0 7.480469-3.335937 7.5-7.46875.019532-4.140625-3.324218-7.515625-7.46875-7.53125h-.109374c-.011719 0-.023438 0-.035157 0-4.125 0-7.480469 3.335938-7.496093 7.464844-.019532 4.144531 3.324218 7.515625 7.464843 7.535156zm0 0"/><path d="m246.445312 341.597656c.015626-4.140625-3.328124-7.515625-7.46875-7.53125h-.109374c-4.125-.015625-7.515626 3.324219-7.535157 7.464844-.019531 4.144531 3.324219 7.515625 7.46875 7.535156h.109375.035156c4.125 0 7.480469-3.335937 7.5-7.46875zm0 0"/><path d="m24.304688 276.460938h.039062c4.125 0 7.476562-3.335938 7.496094-7.464844l.015625-2.917969c.019531-4.140625-3.324219-7.515625-7.464844-7.535156-.011719 0-.023437 0-.035156 0-4.125 0-7.480469 3.335937-7.5 7.464843l-.015625 2.917969c-.019532 4.140625 3.324218 7.515625 7.464844 7.535157zm0 0"/><path d="m24.296875 288.230469c-.011719 0-.023437 0-.035156 0-4.125 0-7.480469 3.335937-7.5 7.464843l-.011719 2.917969c-.019531 4.140625 3.320312 7.515625 7.464844 7.535157h.035156c4.125 0 7.480469-3.335938 7.5-7.46875l.011719-2.914063c.019531-4.140625-3.320313-7.515625-7.464844-7.535156zm0 0"/><path d="m37.722656 274.882812c-.011718 0-.023437 0-.035156 0-4.125 0-7.480469 3.335938-7.5 7.464844-.019531 4.144532 3.320312 7.519532 7.464844 7.535156l2.914062.015626h.039063c4.125 0 7.476562-3.335938 7.496093-7.464844.023438-4.140625-3.320312-7.515625-7.464843-7.535156zm0 0"/><path d="m18.417969 282.339844c.019531-4.140625-3.324219-7.515625-7.464844-7.535156l-2.917969-.011719c-.011718 0-.023437 0-.035156 0-4.125 0-7.480469 3.335937-7.5 7.464843-.019531 4.140626 3.324219 7.515626 7.464844 7.535157l2.917968.011719h.035157c4.125 0 7.480469-3.332032 7.5-7.464844zm0 0"/><path d="m474.738281 333.457031c-4.125 0-7.476562 3.335938-7.5 7.464844l-.011719 2.917969c-.019531 4.140625 3.324219 7.515625 7.464844 7.535156h.035156c4.125 0 7.480469-3.335938 7.5-7.464844l.011719-2.917968c.023438-4.140626-3.320312-7.515626-7.464843-7.535157-.011719 0-.023438 0-.035157 0zm0 0"/><path d="m474.683594 363.144531c-.011719 0-.023438 0-.035156 0-4.125 0-7.480469 3.332031-7.5 7.464844l-.015626 2.914063c-.019531 4.144531 3.324219 7.515624 7.464844 7.535156h.039063c4.125 0 7.476562-3.332032 7.496093-7.464844l.015626-2.917969c.019531-4.140625-3.324219-7.515625-7.464844-7.53125zm0 0"/><path d="m491.023438 349.8125-2.917969-.015625c-.011719 0-.019531 0-.035157 0-4.125 0-7.476562 3.335937-7.5 7.464844-.019531 4.140625 3.324219 7.515625 7.464844 7.535156l2.917969.015625h.035156c4.125 0 7.480469-3.335938 7.5-7.46875.019531-4.140625-3.320312-7.515625-7.464843-7.53125zm0 0"/><path d="m461.335938 349.71875-2.914063-.015625c-.015625 0-.023437 0-.039063 0-4.125 0-7.476562 3.335937-7.496093 7.464844-.023438 4.144531 3.320312 7.519531 7.464843 7.535156l2.914063.015625h.039063c4.125 0 7.476562-3.335938 7.496093-7.464844.019531-4.140625-3.320312-7.515625-7.464843-7.535156zm0 0"/><path d="m128.121094 35.671875h.039062c4.121094 0 7.476563-3.332031 7.496094-7.460937l.015625-2.917969c.019531-4.140625-3.320313-7.515625-7.460937-7.539063-.015626 0-.027344 0-.039063 0-4.125 0-7.480469 3.335938-7.5 7.464844l-.015625 2.914062c-.019531 4.144532 3.320312 7.519532 7.464844 7.539063zm0 0"/><path d="m135.582031 54.980469c.019531-4.144531-3.320312-7.519531-7.464843-7.539063-.011719 0-.023438 0-.039063 0-4.121094 0-7.476563 3.332032-7.496094 7.460938l-.015625 2.917968c-.023437 4.140626 3.320313 7.515626 7.460938 7.539063h.039062c4.125 0 7.480469-3.335937 7.5-7.464844zm0 0"/><path d="m141.46875 49.097656 2.914062.011719h.039063c4.125 0 7.476563-3.335937 7.496094-7.464844.019531-4.140625-3.320313-7.515625-7.464844-7.535156l-2.914063-.011719c-.011718 0-.023437 0-.035156 0-4.125 0-7.480468 3.332032-7.5 7.464844-.019531 4.140625 3.324219 7.511719 7.464844 7.535156zm0 0"/><path d="m111.78125 49.003906 2.917969.015625h.035156c4.125 0 7.480469-3.335937 7.5-7.464843.019531-4.144532-3.324219-7.519532-7.464844-7.535157l-2.917969-.015625c-.011718 0-.023437 0-.035156 0-4.125 0-7.480468 3.335938-7.5 7.464844-.019531 4.140625 3.324219 7.515625 7.464844 7.535156zm0 0"/></svg>