<svg height="512pt" viewBox="0 -11 512.00017 512" width="512pt" xmlns="http://www.w3.org/2000/svg"><path d="m229.398438 226.144531c-2.753907 3.09375-2.480469 7.832031.613281 10.589844 1.429687 1.273437 3.210937 1.898437 4.988281 1.898437 2.0625 0 4.121094-.847656 5.601562-2.511718 4.722657-5.304688 9.542969-10.507813 14.328126-15.464844 2.878906-2.980469 2.792968-7.730469-.1875-10.605469-2.980469-2.878906-7.730469-2.792969-10.605469.1875-4.921875 5.105469-9.882813 10.453125-14.738281 15.90625zm0 0"/><path d="m470.632812 256.015625c0-41.207031-11.992187-79.660156-32.664062-112.066406 1.546875-2.148438 3.074219-4.285157 4.554688-6.394531 16.261718-23.136719 27.765624-42.714844 34.195312-58.1875 7.828125-18.832032 8.03125-31.589844.613281-39.007813-8.242187-8.242187-23.660156-6.957031-46.625 3.976563-10.109375-25.917969-35.320312-44.335938-64.773437-44.335938-31.113282 0-58.421875 20.914062-66.839844 50.421875-12.140625-2.207031-24.644531-3.363281-37.414062-3.363281-15.105469 0-30.226563 1.636718-44.945313 4.863281-4.042969.886719-6.605469 4.886719-5.71875 8.933594s4.886719 6.609375 8.933594 5.71875c13.664062-2.992188 27.703125-4.511719 41.730469-4.511719 22.511718 0 44.132812 3.867188 64.253906 10.953125-39.882813 10.113281-66.199219 30.019531-67.503906 31.027344-3.28125 2.519531-3.898438 7.222656-1.375 10.507812 1.472656 1.921875 3.703124 2.933594 5.953124 2.933594 1.59375 0 3.195313-.503906 4.558594-1.546875.34375-.265625 34.695313-26.167969 82.816406-32.375 15.972657 8.25 30.652344 18.660156 43.667969 30.832031-21.226562 4.714844-69.894531 20.917969-129.417969 75.789063-3.042968 2.808594-3.238281 7.550781-.429687 10.597656 1.476563 1.605469 3.492187 2.417969 5.515625 2.417969 1.816406 0 3.640625-.65625 5.082031-1.984375 38.890625-35.851563 72.664063-53.996094 94.148438-62.90625 23.226562-9.628906 37.46875-10.832032 37.582031-10.839844.078125-.003906.148438-.019531.226562-.027344 4.570313 5.152344 8.878907 10.539063 12.886719 16.15625-27.292969 36.808594-63.4375 78.789063-104.464843 121.347656-31.5625.898438-61.472657 6.898438-89.46875 17.921876-48.265626-48.625-90.90625-97.332032-122.03125-139.3125 21.289062-29.90625 51.03125-53.8125 86.503906-67.886719 3.851562-1.527344 5.734375-5.886719 4.207031-9.738281-1.527344-3.847657-5.886719-5.734376-9.738281-4.203126-12.386719 4.914063-24.121094 10.949219-35.113282 17.949219-55.839843-40.234375-89.722656-53.105469-103.511718-39.3125-7.414063 7.414063-7.214844 20.171875.613281 39.003907 6.429687 15.472656 17.9375 35.050781 34.195313 58.1875 1.476562 2.097656 2.992187 4.222656 4.53125 6.355468-18.65625 29.328125-30.066407 63.359375-32.25 99.296875-16.621094 5.628907-28.621094 21.371094-28.621094 39.871094 0 22.488281 17.726562 40.914063 39.941406 42.039063 5.375 15.34375 12.410156 29.761718 20.875 43.078124-40.207031 55.8125-53.074219 89.683594-39.285156 103.46875 3.609375 3.609376 8.484375 5.414063 14.707031 5.414063 6.566406 0 14.632813-2.007813 24.300781-6.027344 15.472656-6.429687 35.050782-17.933593 58.1875-34.195312 2.082032-1.460938 4.1875-2.964844 6.304688-4.492188 32.757812 20.820313 71.414062 32.605469 112.152344 32.605469 15.457031 0 30.90625-1.707031 45.921874-5.078125 4.042969-.90625 6.582032-4.917969 5.675782-8.957031-.90625-4.042969-4.914063-6.582032-8.957032-5.679688-13.941406 3.128906-28.285156 4.714844-42.640624 4.714844-13.039063 0-25.851563-1.304688-38.289063-3.800781 18.601563-11.371094 33.628906-26.746094 44.777344-45.945313 6.894531-11.878906 15.53125-22.730468 25.65625-32.386718 23.339843 20.566406 45.929687 39.105468 66.972656 54.929687-8.480469 5.042969-17.371094 9.457031-26.617187 13.183594-3.839844 1.550781-5.699219 5.921875-4.148438 9.761719 1.179688 2.921874 3.988281 4.699218 6.957031 4.699218.933594 0 1.882813-.175781 2.804688-.546875 11.929687-4.8125 23.316406-10.675781 34.042969-17.496093 2.117187 1.523437 4.222656 3.027343 6.304687 4.492187 23.136719 16.257813 42.714844 27.761719 58.183594 34.195313 9.667969 4.015624 17.738281 6.027343 24.300781 6.027343 6.226562 0 11.097656-1.808593 14.707031-5.414062 13.800781-13.804688.933594-47.695313-39.3125-103.523438 21.359375-33.496093 32.613281-72.105469 32.613281-112.128906zm-148.929687 23.757813c50.898437-1.480469 95.4375-16.996094 132.628906-46.175782.851563 7.355469 1.300781 14.832032 1.300781 22.414063 0 15.71875-1.875 31.203125-5.53125 46.1875-41.859374-1.359375-81.152343 5.511719-113.980468 20.007812-15.578125 6.878907-29.742188 15.492188-42.238282 25.605469-7.035156-6.316406-14.128906-12.808594-21.261718-19.457031 10.335937-9.828125 20.71875-19.949219 31.085937-30.316407 6.089844-6.085937 12.085938-12.179687 17.996094-18.265624zm44.230469-264.773438c23.679687 0 43.871094 15.183594 51.378906 36.316406-12.660156 7.121094-27.167969 16.589844-43.5625 28.410156-18.269531-11.652343-38.453125-20.550781-59.976562-26.09375 6.890624-22.65625 28.074218-38.632812 52.160156-38.632812zm54.511718 54.511719c0 13.554687-4.859374 26.226562-13.765624 36.199219-6.25-6.03125-12.871094-11.6875-19.835938-16.910157 13.019531-9.226562 24.121094-16.375 33.535156-21.878906.042969.855469.066406 1.71875.066406 2.589844zm-3.335937 47.003906c11.699219-12.757813 18.335937-29.605469 18.335937-47.003906 0-3.527344-.269531-6.988281-.777343-10.375 20.953125-10.453125 30.035156-10.191407 32.058593-8.167969 2.992188 2.988281 2.269532 22.828125-36.476562 77.960938-.445312.632812-.90625 1.277343-1.355469 1.914062-3.71875-4.949219-7.65625-9.730469-11.785156-14.328125zm34.46875 99.960937c-32.121094 27.378907-70.585937 43.261719-114.597656 47.355469 35.328125-37.355469 66.675781-73.996093 91.394531-106.855469 10.820312 18.140626 18.769531 38.183594 23.203125 59.5zm-158.476563 70.957032c-10.484374 10.484375-20.980468 20.710937-31.421874 30.628906-8.078126-7.671875-16.1875-15.535156-24.300782-23.554688 19.800782-7.167968 40.582032-11.730468 62.257813-13.648437-2.167969 2.191406-4.34375 4.382813-6.535157 6.574219zm-199.992187-158.503906c-38.742187-55.132813-39.464844-74.96875-36.472656-77.960938 3.136719-3.136719 23.550781-2.066406 79.800781 37.773438-16.007812 12.007812-30.132812 26.199218-42.003906 42.058593-.441406-.625-.886719-1.25-1.324219-1.871093zm117.808594 160.304687c-14.972657 7.027344-29.355469 15.550781-43.105469 25.570313-3.347656 2.4375-4.082031 7.128906-1.644531 10.476562 1.46875 2.015625 3.753906 3.085938 6.070312 3.085938 1.53125 0 3.078125-.46875 4.410157-1.4375 14.460937-10.539063 29.667968-19.320313 45.566406-26.339844 9.515625 9.476562 19.039062 18.75 28.527344 27.765625-35.707032 33.289062-70.480469 62.648437-101.570313 85.695312-11.675781-8.308593-22.429687-17.90625-32.042969-28.636719 10.59375-13.59375 21.898438-26.074218 33.703125-37.105468 3.027344-2.828125 3.1875-7.574219.359375-10.601563-2.828125-3.027343-7.574218-3.1875-10.601562-.359375-11.617188 10.855469-22.757813 23.03125-33.242188 36.238282-11.511718-15.105469-20.914062-32.058594-27.703125-50.496094 13.65625-4.46875 24.257813-15.738282 27.777344-29.796875 18.992187-.894531 37.09375-3.769531 53.839844-8.609375 3.976562-1.152344 6.269531-5.308594 5.121093-9.289063-1.152343-3.980469-5.308593-6.269531-9.289062-5.121093-15.128906 4.375-31.492188 7.035156-48.699219 7.960937-2.34375-20.378906-19.292969-36.367187-40.089843-37.207031.425781-5.550782 1.089843-11.046875 1.984374-16.480469 8.082032 1.972656 22.277344 4.902344 39.109376 6.042969.171874.011718.34375.019531.511718.019531 3.914063 0 7.207032-3.035156 7.476563-6.996094.28125-4.128906-2.839844-7.707031-6.976563-7.988281-16.066406-1.089844-29.753906-3.984375-37.113281-5.796875 4.597656-18.734375 11.945313-36.539063 21.664063-52.886719 30.308593 40.300782 70.59375 86.285156 115.957031 132.292969zm-171.425781-6.15625c0-14.941406 12.15625-27.09375 27.097656-27.09375 14.9375 0 27.09375 12.152344 27.09375 27.09375 0 14.9375-12.15625 27.09375-27.09375 27.09375-14.941406 0-27.097656-12.15625-27.097656-27.09375zm95.105468 141.507813c-55.136718 38.742187-74.96875 39.464843-77.960937 36.472656-3.144531-3.140625-2.054688-23.554688 37.738281-79.75 11.992188 16.011718 26.175781 30.132812 42.027344 41.996094-.601563.425781-1.207032.859374-1.804688 1.28125zm120.597656-31.894532c-12.445312 21.429688-30.351562 37.519532-53.222656 47.882813-13.828125-4.464844-27.039062-10.460938-39.40625-17.808594 30.585938-23 64.449219-51.746094 99.113282-84.101563 7.007812 6.539063 13.980468 12.929688 20.898437 19.15625-10.761719 10.417969-19.96875 22.101563-27.382813 34.871094zm50.085938-34.753906c10.992188-8.621094 23.347656-16.027344 36.898438-22.007812 29.800781-13.15625 65.460937-19.609376 103.652343-18.835938-1.578125 4.753906-3.34375 9.445312-5.289062 14.066406-12.59375.839844-47.203125 3.777344-64.597657 11.53125-3.78125 1.6875-5.480468 6.121094-3.792968 9.90625 1.242187 2.789063 3.984375 4.445313 6.851562 4.445313 1.023438 0 2.058594-.207031 3.050782-.652344 12.28125-5.472656 36.242187-8.308594 51.074218-9.605469-3.457031 6.507813-7.296875 12.84375-11.515625 18.980469-13.003906 18.910156-29.050781 35.1875-47.429687 48.28125-21.503906-15.945313-44.777344-34.910156-68.902344-56.109375zm161.445312 103.121094c-2.992187 2.992187-22.828124 2.269531-77.960937-36.472656-.605469-.425782-1.214844-.863282-1.820313-1.289063 15.84375-11.871094 29.980469-25.996094 42-42.046875 39.804688 56.1875 40.945313 76.644531 37.78125 79.808594zm0 0"/><path d="m169.144531 21.273438h.035157c4.125 0 7.476562-3.335938 7.5-7.464844l.011718-2.617188c.019532-4.144531-3.324218-7.515625-7.464844-7.535156-4.167968-.003906-7.515624 3.320312-7.535156 7.464844l-.011718 2.617187c-.019532 4.140625 3.320312 7.515625 7.464843 7.535157zm0 0"/><path d="m169.144531 30.292969c-4.175781-.035157-7.515625 3.320312-7.535156 7.460937l-.015625 2.617188c-.019531 4.144531 3.324219 7.519531 7.464844 7.539062h.039062c4.125 0 7.476563-3.335937 7.496094-7.464844l.015625-2.617187c.019531-4.140625-3.324219-7.515625-7.464844-7.535156zm0 0"/><path d="m173.652344 25.78125c-.019532 4.144531 3.324218 7.515625 7.464844 7.535156l2.617187.011719h.035156c4.125 0 7.480469-3.335937 7.5-7.464844.019531-4.140625-3.324219-7.515625-7.464843-7.535156l-2.617188-.011719c-.011719 0-.023438 0-.035156 0-4.125 0-7.480469 3.335938-7.5 7.464844zm0 0"/><path d="m154.480469 33.234375 2.617187.015625h.035156c4.125 0 7.480469-3.335938 7.5-7.464844.019532-4.144531-3.320312-7.515625-7.460937-7.535156l-2.621094-.015625c-.011719 0-.023437 0-.035156 0-4.125 0-7.480469 3.335937-7.5 7.464844-.019531 4.140625 3.320313 7.515625 7.464844 7.535156zm0 0"/><path d="m22.125 342.414062h.039062c4.125 0 7.476563-3.332031 7.496094-7.460937l.015625-2.617187c.019531-4.144532-3.320312-7.519532-7.464843-7.539063-.011719 0-.023438 0-.035157 0-4.125 0-7.480469 3.335937-7.5 7.464844l-.015625 2.617187c-.019531 4.140625 3.324219 7.515625 7.464844 7.535156zm0 0"/><path d="m22.128906 351.433594c-.015625 0-.027344 0-.039062 0-4.125 0-7.476563 3.335937-7.496094 7.464844l-.011719 2.617187c-.019531 4.144531 3.320313 7.515625 7.464844 7.535156h.035156c4.125 0 7.476563-3.332031 7.5-7.464843l.011719-2.617188c.015625-4.140625-3.324219-7.511719-7.464844-7.535156zm0 0"/><path d="m44.253906 347.007812c.019532-4.140624-3.324218-7.515624-7.464844-7.535156l-2.617187-.011718c-4.148437-.03125-7.515625 3.324218-7.535156 7.464843s3.324219 7.515625 7.464843 7.535157l2.617188.011718h.035156c4.125 0 7.480469-3.335937 7.5-7.464844zm0 0"/><path d="m17.617188 346.925781c.019531-4.140625-3.320313-7.515625-7.464844-7.535156l-2.617188-.011719c-.011718 0-.023437 0-.035156 0-4.125 0-7.4804688 3.332032-7.5 7.460938-.0195312 4.140625 3.320312 7.515625 7.464844 7.539062l2.617187.011719h.035157c4.125 0 7.480468-3.332031 7.5-7.464844zm0 0"/><path d="m482.421875 346.890625-.011719 2.617187c-.019531 4.140626 3.320313 7.515626 7.464844 7.535157h.035156c4.125 0 7.480469-3.335938 7.5-7.464844l.011719-2.617187c.019531-4.144532-3.324219-7.515626-7.464844-7.535157-4.179687.003907-7.515625 3.324219-7.535156 7.464844zm0 0"/><path d="m489.875 366.0625c-4.113281-.054688-7.515625 3.320312-7.535156 7.460938l-.015625 2.617187c-.019531 4.144531 3.320312 7.519531 7.464843 7.539063h.035157c4.125 0 7.480469-3.335938 7.5-7.464844l.015625-2.617188c.019531-4.140625-3.324219-7.515625-7.464844-7.535156zm0 0"/><path d="m504.535156 354.097656-2.617187-.011718c-.011719 0-.023438 0-.035157 0-4.125 0-7.480468 3.335937-7.5 7.464843-.019531 4.144531 3.324219 7.515625 7.464844 7.535157l2.617188.011718h.035156c4.125 0 7.480469-3.332031 7.5-7.464844.019531-4.140624-3.324219-7.515624-7.464844-7.535156zm0 0"/><path d="m477.898438 354.015625-2.617188-.011719c-.011719 0-.023438 0-.035156 0-4.125 0-7.480469 3.335938-7.5 7.464844-.019532 4.140625 3.320312 7.515625 7.464844 7.535156l2.617187.011719h.035156c4.125 0 7.480469-3.332031 7.5-7.460937.019531-4.144532-3.320312-7.519532-7.464843-7.539063zm0 0"/><path d="m142.832031 462.082031h-.105469c-.011718 0-.023437 0-.035156 0-4.128906 0-7.480468 3.332031-7.5 7.464844-.019531 4.140625 3.320313 7.515625 7.464844 7.535156h.105469.035156c4.125 0 7.480469-3.335937 7.5-7.46875.019531-4.140625-3.324219-7.515625-7.464844-7.53125zm0 0"/><path d="m178.507812 475.917969h-.105468c-4.140625 0-7.5 3.355469-7.5 7.5 0 4.140625 3.359375 7.5 7.5 7.5h.105468c4.140626 0 7.5-3.359375 7.5-7.5 0-4.144531-3.359374-7.5-7.5-7.5zm0 0"/><path d="m278.058594 34.398438h.109375.03125c4.128906 0 7.480469-3.335938 7.5-7.464844.019531-4.140625-3.320313-7.515625-7.464844-7.535156h-.105469c-4.136718-.042969-7.515625 3.324218-7.535156 7.464843-.019531 4.144531 3.324219 7.515625 7.464844 7.535157zm0 0"/><path d="m459.183594 18.65625h.105468.035157c4.125 0 7.480469-3.335938 7.5-7.464844.019531-4.144531-3.320313-7.515625-7.464844-7.535156h-.105469c-.011718 0-.023437 0-.035156 0-4.125 0-7.480469 3.332031-7.5 7.464844-.019531 4.140625 3.324219 7.515625 7.464844 7.535156zm0 0"/><path d="m477.773438 29.730469h.109374.035157c4.125 0 7.476562-3.335938 7.5-7.464844.015625-4.140625-3.324219-7.515625-7.46875-7.535156h-.105469c-.011719 0-.023438 0-.035156 0-4.125 0-7.480469 3.335937-7.5 7.464843-.015625 4.144532 3.324218 7.515626 7.464844 7.535157zm0 0"/><path d="m38.574219 231.421875h.105469.035156c4.125 0 7.480468-3.335937 7.5-7.464844.019531-4.140625-3.324219-7.515625-7.464844-7.535156h-.105469c-.011719 0-.023437 0-.035156 0-4.125 0-7.480469 3.335937-7.5 7.464844-.019531 4.144531 3.324219 7.515625 7.464844 7.535156zm0 0"/><path d="m202.421875 112.488281c-28.460937 0-50.75 15.335938-50.75 34.914063 0 19.582031 22.289063 34.917968 50.75 34.917968 28.457031 0 50.75-15.335937 50.75-34.917968 0-19.578125-22.292969-34.914063-50.75-34.914063zm0 54.832031c-16.910156 0-35.75-8.179687-35.75-19.917968 0-11.734375 18.839844-19.914063 35.75-19.914063s35.75 8.179688 35.75 19.914063c0 11.738281-18.839844 19.917968-35.75 19.917968zm0 0"/></svg>