<svg height="512pt" viewBox="-8 0 512 512" width="512pt" xmlns="http://www.w3.org/2000/svg"><path d="m461.988281 424.878906c-.011719 0-.019531 0-.03125 0-4.144531.015625-7.484375 3.390625-7.46875 7.53125v.113282c.019531 4.128906 3.371094 7.464843 7.5 7.464843h.035157c4.140624-.015625 7.484374-3.390625 7.464843-7.53125v-.113281c-.015625-4.128906-3.371093-7.464844-7.5-7.464844zm0 0"/><path d="m492.257812 226.578125c-.625-4.09375-4.449218-6.898437-8.550781-6.273437-4.09375.628906-6.902343 4.457031-6.273437 8.550781 1.808594 11.78125 2.726562 23.746093 2.726562 35.566406 0 7.84375-.421875 15.75-1.203125 23.550781-36.203125 35.011719-90.085937 57.292969-160.242187 66.21875-78.011719 9.933594-123.257813 18.691406-156.167969 30.234375-32.261719 11.3125-55.019531 26.210938-74.632813 49.089844-20.042968-18.90625-36.371093-40.902344-48.625-65.53125 36.621094-49.464844 81.445313-65.613281 229.46875-84.460937 57.640626-7.339844 105.390626-23.671876 141.914063-48.539063 22.578125-15.371094 40.605469-33.738281 53.765625-54.726563 2.121094 5.472657 4.050781 11.039063 5.753906 16.671876.984375 3.238281 3.957032 5.324218 7.175782 5.324218.722656 0 1.453124-.101562 2.179687-.324218 3.964844-1.199219 6.203125-5.386719 5.003906-9.351563-3.34375-11.027344-7.464843-21.855469-12.253906-32.179687-.035156-.082032-.070313-.160157-.105469-.242188-14.023437-30.15625-33.664062-56.800781-58.375-79.191406-45.59375-41.351563-104.632812-64.125-166.238281-64.125-35.097656 0-69.039063 7.214844-100.878906 21.441406-3.785157 1.6875-5.480469 6.125-3.789063 9.90625 1.6875 3.78125 6.125 5.476562 9.90625 3.789062 29.902344-13.363281 61.785156-20.136718 94.761719-20.136718 55.796875 0 109.347656 19.890625 151.5 56.128906-23.640625 36.804688-74.570313 81.175781-184.066406 95.117188-99.222657 12.628906-157.738281 24.070312-197.910157 50.242187 9.128907-67.769531 48.113282-128.875 106.574219-165.75 3.503907-2.210937 4.550781-6.84375 2.339844-10.347656-2.207031-3.5-6.839844-4.550781-10.34375-2.339844-67.234375 42.414063-110.292969 114.933594-115.1875 193.984375-.320313 5.109375-.484375 10.339844-.484375 15.546875 0 37.09375 8.003906 72.761719 23.789062 106.019531 14.4375 30.425782 34.601563 57.195313 59.929688 79.574219 45.234375 39.96875 103.429688 61.984375 163.859375 61.984375 15.433594 0 30.90625-1.4375 45.988281-4.269531 4.070313-.765625 6.75-4.6875 5.988282-8.757813-.765626-4.070312-4.691407-6.753906-8.757813-5.984375-14.171875 2.660157-28.710937 4.011719-43.21875 4.011719-16.199219 0-32.222656-1.691406-47.847656-4.96875 33.007812-15.578125 81.25-25.765625 172.738281-37.414062 3.746094-.476563 7.457031-1 11.136719-1.554688-18.730469 13.546875-39.628907 24.414062-62.179688 31.960938-3.929687 1.316406-6.046875 5.566406-4.734375 9.492187 1.050782 3.140625 3.976563 5.121094 7.113282 5.121094.789062 0 1.589843-.125 2.378906-.390625 91.039062-30.460938 156.757812-111.703125 167.421875-206.972656 1.03125-9.199219 1.554687-18.570313 1.554687-27.851563 0-12.578125-.976562-25.3125-2.902344-37.84375zm-477.257812 37.84375c0-3.789063.09375-7.585937.277344-11.339844 37.636718-29.777343 95.625-41.621093 201.625-55.113281 113.046875-14.394531 167.359375-60.554688 193.378906-99.710938 19.285156 18.855469 34.96875 40.640626 46.71875 64.917969-12.300781 23.042969-30.699219 43.019531-54.769531 59.410157-34.550781 23.519531-80.09375 39.015624-135.367188 46.058593-82.949219 10.5625-128.375 19.636719-162.03125 32.367188-31.183593 11.796875-52.96875 27.132812-72.5625 51.523437-11.464843-27.914062-17.269531-57.496094-17.269531-88.113281zm152.511719 134.160156c31.84375-11.171875 76.203125-19.71875 153.097656-29.511719 65.074219-8.28125 117.039063-27.804687 154.878906-58.105468-2.398437 11.765625-5.707031 23.238281-9.839843 34.34375-35.285157 22.253906-80.726563 37.046875-135.132813 43.96875-129.246094 16.464844-182.875 31.46875-220.539063 62.660156-3.6875-2.710938-7.296874-5.542969-10.832031-8.476562 17.984375-21.089844 38.285157-34.332032 68.367188-44.878907zm239.652343 34.960938c-11.628906 2.496093-23.933593 4.582031-36.59375 6.195312-93.378906 11.890625-152.25 22.984375-192.261718 46.710938-19.46875-6.066407-38.097656-14.679688-55.390625-25.664063 35.125-27.269531 87.484375-41.085937 209.488281-56.628906 47.828125-6.082031 89.15625-18.121094 123.234375-35.84375-12.230469 24.414062-28.671875 46.507812-48.476563 65.230469zm0 0"/><path d="m255.789062 140.671875c16.898438 0 32.902344-3.496094 45.066407-9.851563 13.707031-7.15625 21.253906-17.230468 21.253906-28.371093 0-11.136719-7.546875-21.210938-21.253906-28.371094-12.164063-6.351563-28.167969-9.847656-45.066407-9.847656-16.898437 0-32.902343 3.496093-45.0625 9.847656-13.707031 7.160156-21.257812 17.234375-21.257812 28.371094 0 11.140625 7.550781 21.210937 21.257812 28.371093 12.160157 6.355469 28.164063 9.851563 45.0625 9.851563zm-51.316406-38.21875c0-5.199219 4.808594-10.695313 13.199219-15.074219 10.054687-5.253906 23.59375-8.148437 38.117187-8.148437 14.527344 0 28.0625 2.894531 38.121094 8.148437 8.390625 4.378906 13.199219 9.875 13.199219 15.074219s-4.808594 10.691406-13.199219 15.074219c-10.058594 5.25-23.59375 8.144531-38.121094 8.144531-14.523437 0-28.0625-2.890625-38.117187-8.144531-8.390625-4.382813-13.199219-9.878906-13.199219-15.074219zm0 0"/><path d="m41.34375 463.191406h.039062c4.125 0 7.476563-3.335937 7.496094-7.464844l.015625-3.011718c.019531-4.140625-3.320312-7.515625-7.460937-7.535156-4.117188-.046876-7.519532 3.320312-7.539063 7.460937l-.015625 3.011719c-.019531 4.144531 3.320313 7.519531 7.464844 7.539062zm0 0"/><path d="m41.335938 475.847656c-4.179688-.003906-7.515626 3.320313-7.535157 7.460938l-.015625 3.015625c-.019531 4.140625 3.320313 7.515625 7.460938 7.535156h.039062c4.125 0 7.480469-3.332031 7.5-7.460937l.015625-3.015626c.019531-4.140624-3.324219-7.515624-7.464843-7.535156zm0 0"/><path d="m58.214844 462.074219-3.011719-.015625c-.011719 0-.023437 0-.039063 0-4.125 0-7.476562 3.335937-7.496093 7.464844-.019531 4.144531 3.320312 7.515624 7.464843 7.535156l3.011719.015625h.035157c4.125 0 7.480468-3.335938 7.5-7.464844.019531-4.140625-3.324219-7.515625-7.464844-7.535156zm0 0"/><path d="m27.546875 461.980469-3.015625-.015625c-.011719 0-.023438 0-.035156 0-4.125 0-7.476563 3.335937-7.5 7.464844-.019532 4.140624 3.324218 7.515624 7.46875 7.535156l3.011718.015625h.035157c4.125 0 7.480469-3.335938 7.5-7.464844.019531-4.144531-3.324219-7.515625-7.464844-7.535156zm0 0"/><path d="m409.273438 18.011719h.039062c4.125 0 7.480469-3.332031 7.5-7.460938l.015625-3.015625c.019531-4.140625-3.320313-7.5156248-7.464844-7.535156-.011719 0-.023437 0-.039062 0-4.125 0-7.476563 3.335938-7.496094 7.464844l-.015625 3.011718c-.019531 4.140626 3.320312 7.515626 7.460938 7.535157zm0 0"/><path d="m409.269531 30.667969c-.015625 0-.027343 0-.039062 0-4.125 0-7.480469 3.335937-7.5 7.464843l-.015625 3.011719c-.019532 4.140625 3.320312 7.515625 7.464844 7.539063h.039062c4.125 0 7.476562-3.335938 7.496094-7.464844l.015625-3.011719c.023437-4.144531-3.320313-7.519531-7.460938-7.539062zm0 0"/><path d="m423.066406 31.882812 3.011719.011719h.035156c4.125 0 7.480469-3.335937 7.5-7.464843.019531-4.140626-3.324219-7.515626-7.464843-7.535157l-3.011719-.011719c-4.152344-.039062-7.519531 3.320313-7.535157 7.464844-.019531 4.140625 3.320313 7.515625 7.464844 7.535156zm0 0"/><path d="m392.394531 31.785156 3.015625.015625h.035156c4.125 0 7.480469-3.335937 7.5-7.464843.019532-4.140626-3.324218-7.515626-7.464843-7.535157l-3.015625-.015625c-.011719 0-.023438 0-.035156 0-4.125 0-7.480469 3.335938-7.5 7.46875-.019532 4.140625 3.324218 7.511719 7.464843 7.53125zm0 0"/><path d="m450.265625 449.867188c-4.144531 0-7.5 3.359374-7.5 7.5v.117187c0 4.144531 3.355469 7.5 7.5 7.5 4.140625 0 7.5-3.355469 7.5-7.5v-.117187c0-4.140626-3.359375-7.5-7.5-7.5zm0 0"/><path d="m58.179688 79.171875h.03125c4.144531-.015625 7.488281-3.390625 7.46875-7.53125v-.117187c-.015626-4.132813-3.371094-7.46875-7.5-7.46875-.007813 0-.019532 0-.03125 0-4.140626.015624-7.484376 3.386718-7.46875 7.53125v.117187c.019531 4.132813 3.371093 7.46875 7.5 7.46875zm0 0"/></svg>