<svg height="512pt" viewBox="0 -51 512 512" width="512pt" xmlns="http://www.w3.org/2000/svg"><path d="m485.84375 290.394531c2.367188-3.398437 1.535156-8.074219-1.863281-10.441406-3.398438-2.371094-8.074219-1.535156-10.441407 1.863281-24.519531 35.167969-64.710937 56.167969-107.507812 56.167969-72.21875 0-130.972656-58.753906-130.972656-130.972656 0-72.214844 58.753906-130.96875 130.972656-130.96875 19.835938 0 38.890625 4.320312 56.636719 12.84375 3.734375 1.792969 8.214843.222656 10.007812-3.511719s.222657-8.214844-3.511719-10.007812c-19.789062-9.507813-41.03125-14.324219-63.132812-14.324219-32.125 0-61.851562 10.4375-85.984375 28.089843-30.972656-30.308593-71.742187-46.957031-115.210937-46.957031-90.890626 0-164.835938 73.945313-164.835938 164.835938 0 38.308593 13.4375 75.628906 37.839844 105.085937 1.480468 1.789063 3.621094 2.714844 5.777344 2.714844 1.6875 0 3.382812-.5625 4.78125-1.722656 3.191406-2.644532 3.632812-7.371094.992187-10.558594-8.480469-10.238281-15.496094-21.519531-20.933594-33.496094h25.167969c4.140625 0 7.5-3.359375 7.5-7.5 0-4.144531-3.359375-7.5-7.5-7.5h-31.035156c-4.359375-13.1875-6.894532-26.988281-7.460938-40.996094h145.074219c8.453125 0 16.394531-3.292968 22.34375-9.257812 5.976563-5.960938 9.269531-13.902344 9.269531-22.363281 0-17.4375-14.183594-31.625-31.613281-31.625h-9.753906c-5.160157 0-10.015625-2.011719-13.667969-5.664063s-5.664062-8.507812-5.664062-13.667968c0-18.929688-15.402344-34.332032-34.332032-34.332032h-32.621094c26.617188-24.191406 61.953126-38.953125 100.671876-38.953125 38.9375 0 75.484374 14.699219 103.484374 41.484375-29.617187 26.734375-48.261718 65.40625-48.261718 108.351563 0 7.183593.53125 14.246093 1.539062 21.15625h-89.347656c-4.144531 0-7.5 3.355469-7.5 7.5 0 4.140625 3.355469 7.5 7.5 7.5h92.34375c.941406 3.679687 2.019531 7.300781 3.234375 10.863281h-22.796875c-15.558594 0-28.21875 12.660156-28.21875 28.21875s12.660156 28.21875 28.21875 28.21875h58.125c1.683594 1.671875 3.40625 3.304688 5.167969 4.894531-28.003907 26.777344-64.617188 41.484375-103.488281 41.484375-34.269532 0-66.523438-11.269531-93.28125-32.582031-3.238282-2.582031-7.957032-2.046875-10.539063 1.191406-2.582031 3.242188-2.046875 7.957031 1.191406 10.539063 29.441407 23.453125 64.929688 35.851562 102.628907 35.851562 43.398437 0 84.226562-16.667968 115.203124-46.960937 24.132813 17.65625 53.863282 28.09375 85.988282 28.09375 47.703125 0 92.492187-23.394531 119.816406-62.585938zm-369.726562-159.933593c0 9.167968 3.570312 17.789062 10.058593 24.277343 6.484375 6.484375 15.105469 10.054688 24.273438 10.054688h9.753906c9.160156 0 16.609375 7.460937 16.609375 16.625 0 4.445312-1.726562 8.617187-4.875 11.757812-3.128906 3.136719-7.292969 4.863281-11.734375 4.863281h-144.925781c1.953125-32.945312 14.597656-63.058593 34.511718-86.910156h46.996094c10.660156 0 19.332032 8.671875 19.332032 19.332032zm75.699218 151.792968c0-7.289062 5.929688-13.21875 13.21875-13.21875h28.878906c4.429688 9.402344 9.835938 18.257813 16.085938 26.433594h-44.964844c-7.289062 0-13.21875-5.929688-13.21875-13.214844zm0 0"/><path d="m448.699219 105.433594c30.695312 25.015625 48.300781 62.039062 48.300781 101.578125 0 16.164062-2.917969 31.957031-8.667969 46.933593-1.484375 3.867188.445313 8.203126 4.3125 9.6875.882813.34375 1.792969.5 2.6875.5 3.015625 0 5.859375-1.828124 7.003907-4.8125 6.410156-16.699218 9.664062-34.296874 9.664062-52.308593 0-44.070313-19.617188-85.332031-53.824219-113.207031-3.214843-2.617188-7.9375-2.132813-10.554687 1.074218-2.617188 3.210938-2.132813 7.9375 1.078125 10.554688zm0 0"/><path d="m118.804688 310.472656h.027343c4.128907 0 7.484375-3.339844 7.5-7.472656.015625-4.144531-3.332031-7.515625-7.472656-7.527344h-.136719c-.007812 0-.015625 0-.027344 0-4.128906 0-7.484374 3.339844-7.5 7.472656-.015624 4.140626 3.332032 7.511719 7.472657 7.527344zm0 0"/><path d="m96.472656 304.5h.027344c4.128906 0 7.484375-3.339844 7.5-7.476562.015625-4.140626-3.328125-7.511719-7.472656-7.523438h-.132813c-.011719 0-.019531 0-.027343 0-4.128907 0-7.484376 3.339844-7.5 7.472656-.015626 4.140625 3.328124 7.511719 7.472656 7.527344zm0 0"/><path d="m221.375 111.128906h.027344c4.128906 0 7.484375-3.339844 7.5-7.472656.015625-4.140625-3.332032-7.511719-7.472656-7.527344h-.136719c-4.1875-.027344-7.511719 3.332032-7.527344 7.472656-.015625 4.144532 3.332031 7.511719 7.472656 7.527344zm0 0"/><path d="m60.738281 141.367188h.136719.027344c4.128906 0 7.484375-3.339844 7.5-7.472657.015625-4.144531-3.332032-7.511719-7.472656-7.527343h-.136719c-.007813 0-.015625 0-.027344 0-4.128906 0-7.484375 3.339843-7.5 7.472656-.015625 4.140625 3.332031 7.511718 7.472656 7.527344zm0 0"/><path d="m424.246094 191.722656c17.5625 0 31.851562-14.289062 31.851562-31.851562 0-17.558594-14.289062-31.847656-31.851562-31.847656s-31.847656 14.289062-31.847656 31.847656c0 17.5625 14.285156 31.851562 31.847656 31.851562zm0-48.699218c9.292968 0 16.851562 7.558593 16.851562 16.847656 0 9.289062-7.558594 16.851562-16.851562 16.851562-9.289063 0-16.847656-7.5625-16.847656-16.851562 0-9.289063 7.558593-16.847656 16.847656-16.847656zm0 0"/><path d="m349.460938 226.867188c0 12.828124 10.4375 23.265624 23.265624 23.265624 12.828126 0 23.261719-10.4375 23.261719-23.265624 0-12.824219-10.433593-23.261719-23.261719-23.261719-12.828124 0-23.265624 10.433593-23.265624 23.261719zm23.261718-8.261719c4.558594 0 8.265625 3.707031 8.265625 8.261719 0 4.558593-3.707031 8.265624-8.265625 8.265624-4.554687 0-8.261718-3.707031-8.261718-8.265624 0-4.554688 3.707031-8.261719 8.261718-8.261719zm0 0"/><path d="m365.960938 157.539062c-4.140626 0-7.5 3.359376-7.5 7.5 0 4.144532 3.359374 7.503907 7.5 7.503907h.136718c4.144532 0 7.5-3.359375 7.5-7.503907 0-4.140624-3.355468-7.5-7.5-7.5zm0 0"/><path d="m377.203125 150.042969h.132813.027343c4.128907 0 7.484375-3.339844 7.5-7.472657.015625-4.144531-3.332031-7.511718-7.472656-7.527343h-.136719c-.007812 0-.015625 0-.027344 0-4.128906 0-7.484374 3.339843-7.5 7.472656-.011718 4.140625 3.332032 7.511719 7.476563 7.527344zm0 0"/><path d="m426.507812 356.046875c-4.125 0-7.480468 3.335937-7.5 7.464844l-.015624 2.878906c-.019532 4.144531 3.324218 7.519531 7.464843 7.539063h.039063c4.125 0 7.476562-3.335938 7.496094-7.464844l.015624-2.878906c.019532-4.144532-3.320312-7.519532-7.464843-7.539063-.011719 0-.023438 0-.035157 0zm0 0"/><path d="m426.453125 385.367188c-.011719 0-.023437 0-.039063 0-4.125 0-7.476562 3.335937-7.496093 7.464843l-.015625 2.878907c-.019532 4.144531 3.320312 7.515624 7.464844 7.539062h.035156c4.125 0 7.480468-3.335938 7.5-7.464844l.015625-2.882812c.019531-4.140625-3.324219-7.515625-7.464844-7.535156zm0 0"/><path d="m442.589844 372.199219-2.878906-.011719c-.011719 0-.023438 0-.039063 0-4.125 0-7.476563 3.332031-7.496094 7.464844-.019531 4.140625 3.320313 7.515625 7.464844 7.535156l2.878906.011719h.035157c4.125 0 7.480468-3.332031 7.5-7.460938.019531-4.144531-3.324219-7.519531-7.464844-7.539062zm0 0"/><path d="m413.269531 372.109375-2.878906-.015625c-.011719 0-.023437 0-.039063 0-4.125 0-7.476562 3.335938-7.496093 7.464844-.019531 4.144531 3.320312 7.515625 7.464843 7.539062l2.878907.011719h.035156c4.128906 0 7.480469-3.332031 7.5-7.464844.019531-4.140625-3.320313-7.515625-7.464844-7.535156zm0 0"/><path d="m484.429688 319.0625c-.011719 0-.023438 0-.035157 0-4.125 0-7.480469 3.332031-7.5 7.460938l-.011719 2.882812c-.019531 4.140625 3.320313 7.515625 7.464844 7.535156h.035156c4.125 0 7.480469-3.335937 7.5-7.464844l.011719-2.878906c.019531-4.144531-3.320312-7.519531-7.464843-7.535156zm0 0"/><path d="m484.339844 348.378906c-.011719 0-.023438 0-.035156 0-4.125 0-7.480469 3.335938-7.5 7.464844l-.011719 2.878906c-.023438 4.144532 3.320312 7.519532 7.464843 7.539063h.035157c4.125 0 7.480469-3.335938 7.5-7.464844l.011719-2.878906c.019531-4.144531-3.320313-7.519531-7.464844-7.539063zm0 0"/><path d="m500.476562 335.214844-2.878906-.015625c-.011718 0-.023437 0-.035156 0-4.125 0-7.480469 3.332031-7.5 7.464843-.019531 4.140626 3.320312 7.515626 7.464844 7.535157l2.878906.015625h.039062c4.125 0 7.476563-3.335938 7.496094-7.464844.023438-4.144531-3.320312-7.519531-7.464844-7.535156zm0 0"/><path d="m471.160156 335.121094-2.882812-.011719c-.011719 0-.019532 0-.035156 0-4.125 0-7.476563 3.332031-7.5 7.460937-.019532 4.144532 3.324218 7.519532 7.46875 7.539063l2.878906.011719h.035156c4.125 0 7.480469-3.332032 7.5-7.464844.019531-4.140625-3.324219-7.515625-7.464844-7.535156zm0 0"/><path d="m40.773438 51.644531h.035156c4.125 0 7.480468-3.335937 7.5-7.464843l.011718-2.878907c.023438-4.144531-3.320312-7.515625-7.460937-7.539062-4.132813-.003907-7.519531 3.324219-7.539063 7.464843l-.011718 2.882813c-.019532 4.140625 3.320312 7.515625 7.464844 7.535156zm0 0"/><path d="m40.765625 63.082031c-.011719 0-.023437 0-.035156 0-4.125 0-7.480469 3.335938-7.5 7.464844l-.015625 2.878906c-.019532 4.144531 3.324218 7.515625 7.464844 7.535157h.039062c4.125 0 7.476562-3.332032 7.5-7.460938l.011719-2.882812c.019531-4.140626-3.320313-7.515626-7.464844-7.535157zm0 0"/><path d="m53.953125 64.902344 2.878906.015625h.039063c4.125 0 7.476562-3.335938 7.496094-7.464844.023437-4.144531-3.320313-7.515625-7.460938-7.539063l-2.882812-.011718c-.011719 0-.023438 0-.035157 0-4.125 0-7.480469 3.332031-7.5 7.464844-.019531 4.140624 3.324219 7.515624 7.464844 7.535156zm0 0"/><path d="m24.632812 64.8125 2.878907.011719h.039062c4.125 0 7.480469-3.332031 7.5-7.464844.019531-4.140625-3.324219-7.515625-7.464843-7.535156l-2.878907-.011719c-.011719 0-.027343 0-.039062 0-4.125 0-7.480469 3.332031-7.5 7.460938-.019531 4.144531 3.324219 7.519531 7.464843 7.539062zm0 0"/><path d="m353.722656 379.777344v-.113282c0-4.140624-3.355468-7.5-7.5-7.5-4.140625 0-7.5 3.359376-7.5 7.5v.113282c0 4.140625 3.359375 7.5 7.5 7.5 4.144532 0 7.5-3.359375 7.5-7.5zm0 0"/><path d="m356.960938 395.679688c-4.140626 0-7.5 3.355468-7.5 7.5v.113281c0 4.140625 3.359374 7.5 7.5 7.5 4.144531 0 7.5-3.359375 7.5-7.5v-.113281c0-4.144532-3.355469-7.5-7.5-7.5zm0 0"/><path d="m274.5625 51.699219c4.144531 0 7.5-3.355469 7.5-7.5v-.113281c0-4.140626-3.355469-7.5-7.5-7.5s-7.5 3.359374-7.5 7.5v.113281c0 4.144531 3.359375 7.5 7.5 7.5zm0 0"/><path d="m60.902344 366.359375c-4.140625 0-7.5 3.359375-7.5 7.5v.113281c0 4.140625 3.359375 7.5 7.5 7.5s7.5-3.359375 7.5-7.5v-.113281c0-4.140625-3.359375-7.5-7.5-7.5zm0 0"/><path d="m99.191406 28.6875h.035156c4.140626-.019531 7.484376-3.390625 7.464844-7.535156v-.109375c-.015625-4.132813-3.371094-7.46875-7.5-7.46875-.007812 0-.019531 0-.03125 0-4.140625.019531-7.484375 3.390625-7.46875 7.53125v.113281c.019532 4.132812 3.375 7.46875 7.5 7.46875zm0 0"/><path d="m116.554688 15.113281c4.140624 0 7.5-3.359375 7.5-7.5v-.113281c0-4.140625-3.359376-7.5-7.5-7.5-4.144532 0-7.5 3.359375-7.5 7.5v.113281c0 4.140625 3.355468 7.5 7.5 7.5zm0 0"/></svg>