<svg height="512pt" viewBox="-3 0 511 512" width="512pt" xmlns="http://www.w3.org/2000/svg"><path d="m469.386719 157.628906c-.691407.023438-1.378907.050782-2.070313.078125-4.207031.167969-7.484375 3.710938-7.316406 7.917969.164062 4.105469 3.542969 7.324219 7.613281 7.324219.101563 0 .203125-.003907.308594-.007813.664063-.027344 1.328125-.050781 1.988281-.074218 4.210938-.144532 7.503906-3.671876 7.359375-7.878907-.148437-4.210937-3.691406-7.503906-7.882812-7.359375zm0 0"/><path d="m497.390625 157.703125c-.691406-.027344-1.382813-.050781-2.078125-.074219-4.199219-.132812-7.734375 3.152344-7.875 7.359375-.140625 4.210938 3.15625 7.734375 7.363281 7.878907.660157.019531 1.324219.046874 1.988281.070312.101563.003906.203126.007812.304688.007812 4.070312 0 7.449219-3.21875 7.613281-7.320312.167969-4.210938-3.109375-7.753906-7.316406-7.921875zm0 0"/><path d="m126.691406 440.734375c-4.09375-.953125-8.195312 1.589844-9.152344 5.691406l-.464843 2.015625c-.9375 4.109375 1.628906 8.195313 5.734375 9.132813.570312.128906 1.140625.191406 1.703125.191406 3.476562 0 6.621093-2.394531 7.425781-5.929687l.449219-1.949219c.957031-4.097657-1.59375-8.199219-5.695313-9.152344zm0 0"/><path d="m117.121094 494.746094c-4.199219-.335938-7.875 2.789062-8.210938 6.988281-.058594.691406-.109375 1.382813-.164062 2.074219-.3125 4.199218 2.835937 7.855468 7.035156 8.171875.195312.011719.386719.019531.578125.019531 3.949219 0 7.292969-3.050781 7.59375-7.054688.050781-.664062.101563-1.324218.152344-1.984374.339843-4.195313-2.785157-7.875-6.984375-8.214844zm0 0"/><path d="m120.894531 467.5625c-4.160156-.652344-8.058593 2.199219-8.707031 6.359375l-.3125 2.042969c-.628906 4.164062 2.238281 8.050781 6.398438 8.675781.386718.058594.769531.089844 1.148437.089844 3.707031 0 6.960937-2.710938 7.527344-6.488281l.304687-1.976563c.648438-4.160156-2.199218-8.054687-6.359375-8.703125zm0 0"/><path d="m309.347656 56.0625c-.011718 0-.019531 0-.03125 0-4.195312 0-7.605468 3.394531-7.621094 7.597656-.015624 4.207032 3.382813 7.636719 7.59375 7.652344h.128907.03125c4.195312 0 7.605469-3.394531 7.621093-7.59375.019532-4.210938-3.382812-7.636719-7.59375-7.65625zm0 0"/><path d="m398.03125 115.628906h.128906c4.210938 0 7.621094-3.414062 7.621094-7.625 0-4.210937-3.410156-7.621094-7.621094-7.621094h-.128906c-4.214844 0-7.625 3.410157-7.625 7.621094 0 4.210938 3.414062 7.625 7.625 7.625zm0 0"/><path d="m31.335938 270.484375h-.128907c-4.210937 0-7.625 3.414063-7.625 7.625 0 4.207031 3.414063 7.621094 7.625 7.621094h.128907c4.210937 0 7.625-3.414063 7.625-7.621094 0-4.210937-3.414063-7.625-7.625-7.625zm0 0"/><path d="m291.421875 63.457031c-.011719 0-.019531 0-.03125 0-4.195313 0-7.605469 3.394531-7.621094 7.59375-.015625 4.210938 3.382813 7.640625 7.59375 7.65625h.128907.03125c4.195312 0 7.605468-3.394531 7.621093-7.59375.019531-4.210937-3.382812-7.640625-7.59375-7.65625zm0 0"/><path d="m131.546875 285.679688h-.128906c-.011719 0-.023438 0-.03125 0-4.195313 0-7.605469 3.394531-7.625 7.59375-.015625 4.210937 3.386719 7.636718 7.597656 7.652343h.128906.027344c4.199219 0 7.609375-3.390625 7.625-7.59375.015625-4.210937-3.382813-7.636719-7.59375-7.652343zm0 0"/><path d="m446.542969 173.515625c2.265625-1.53125 3.632812-4.234375 3.316406-7.140625-.402344-3.695312-3.371094-6.484375-6.953125-6.773438-2.769531-9.347656-6.148438-18.523437-10.144531-27.46875l5.183593-24.621093c1.203126-5.703125-.542968-11.566407-4.660156-15.683594l-26.796875-26.796875c-2.976562-2.976562-7.804687-2.976562-10.78125 0-2.976562 2.980469-2.976562 7.804688 0 10.78125l26.796875 26.796875c.460938.460937.65625 1.117187.523438 1.757813l-5.011719 23.796874h-141.628906c-8.144531 0-15.796875-3.171874-21.554688-8.929687-8.636719-8.636719-20.125-13.394531-32.339843-13.394531h-164.980469c4.527343-6.617188 9.441406-12.984375 14.738281-19.074219h57.414062c11.71875 0 23.152344-2.273437 33.980469-6.761719 10.832031-4.488281 20.523438-10.960937 28.8125-19.25 13.882813-13.890625 32.351563-21.542968 52.007813-21.542968h81.535156c2.15625 1.140624 4.3125 2.320312 6.441406 3.542968 1.628906.933594 3.539063 1.238282 5.371094.851563l20.199219-4.253907c.636719-.136718 1.296875.0625 1.761719.523438l12.496093 12.496094c2.976563 2.980468 7.804688 2.980468 10.78125 0 2.976563-2.976563 2.976563-7.804688 0-10.78125l-12.496093-12.496094c-4.121094-4.117188-9.984376-5.863281-15.6875-4.660156l-17.375 3.65625c-2.023438-1.128906-4.0625-2.222656-6.089844-3.273438-31.382813-16.234375-66.765625-24.816406-102.324219-24.816406-63.207031 0-123.691406 26.992188-165.949219 74.050781-16.472656 18.34375-29.703125 39.117188-39.324218 61.738281-1.648438 3.875.15625 8.351563 4.03125 9.996094.972656.414063 1.984374.613282 2.980468.613282 2.96875 0 5.785156-1.742188 7.019532-4.644532 3.015624-7.089844 6.421874-13.980468 10.1875-20.664062h174.46875c8.144531 0 15.796874 3.171875 21.554687 8.929687 8.636719 8.636719 20.121094 13.394531 32.339844 13.394531h144.628906c3.09375 7.453126 5.734375 15.0625 7.929687 22.804688-24.785156 2.972656-49.015624 8.484375-72.382812 16.394531-1.195312-.632812-2.375-1.289062-3.53125-1.984375-18.203125-10.976562-42.535156-17.019531-68.519531-17.019531-25.914063 0-50.207031 6.015625-68.40625 16.945313-12.734375 7.648437-27.886719 11.691406-43.816407 11.691406-16.929687-.007813-32.644531-.011719-47.167968-.011719-1.136719-13.140625-12.1875-23.488281-25.613282-23.488281-13.429687 0-24.480468 10.351562-25.613281 23.496094-21.03125.007812-37.816406.027343-50.285156.054687 1.011719-6.828125 2.359375-13.621094 4.042969-20.285156 1.027344-4.082031-1.445313-8.226563-5.53125-9.257813-4.078125-1.035156-8.226563 1.445313-9.253906 5.53125-2.546876 10.097656-4.398438 20.480469-5.503907 30.855469-.832031 7.851563-1.257812 15.867187-1.257812 23.828125 0 7.953125.425781 15.957031 1.257812 23.796875.355469 3.339844.804688 6.777344 1.339844 10.261719l-4.679687 6.140625c-3.535157 4.632812-4.476563 10.675781-2.523438 16.167969l14.632812 41.160156c1.949219 5.492187 6.5 9.585937 12.160157 10.945312l6.890625 1.660156c11.179687 19.648438 25.21875 37.421876 41.761718 52.867188 14.328126 13.382812 30.484376 24.847656 47.808594 34.042969l-.425781 1.367187c-1.246094 4.019532 1.007813 8.289063 5.027344 9.535156.75.234376 1.511719.34375 2.257812.34375 2.957031 0 5.699219-1.746093 6.9375-4.519531 6.710938 2.992188 13.558594 5.667969 20.515625 7.96875l2.925782 7.960938c2.265624 6.167969 7.734374 10.441406 14.269531 11.152343l41.9375 4.546876c.632812.066406 1.265625.101562 1.890625.101562 5.832031 0 11.246094-2.933594 14.4375-7.941406l3.046875-4.769532c6.183593-.226562 12.273437-.699218 18.148437-1.402343 54.554688-6.488281 104.648438-32.929688 141.050782-74.445313 8.464843-9.652344 16.144531-20.109375 22.832031-31.082031 2.191406-3.597656 1.054687-8.289063-2.542969-10.480469-3.59375-2.191406-8.285156-1.050781-10.476562 2.542969-4.632813 7.605469-9.777344 14.9375-15.351563 21.894531-16.078125-18.261718-39.335937-28.921875-63.953125-28.921875-46.976562 0-85.195312 38.214844-85.195312 85.191407 0 7.164062.902343 14.203124 2.640624 21.035156-3.796874.277344-7.652343.464844-11.550781.539062-2.550781.050782-4.910156 1.371094-6.28125 3.523438l-5.21875 8.175781c-.394531.621094-1.097656.960937-1.832031.878906l-41.9375-4.546875c-.734375-.078125-1.347656-.558594-1.601562-1.25l-4.207032-11.449218c-.816406-2.226563-2.625-3.945313-4.886718-4.652344-7.449219-2.320313-14.773438-5.078125-21.925782-8.246094 5.476563-16.132812 12.117188-31.757812 19.847656-46.78125 1.914063.34375 3.886719.53125 5.898438.53125 18.425781 0 33.414062-14.988281 33.414062-33.414062 0-7.207032-2.300781-13.882813-6.195312-19.34375 10.925781-14.21875 22.988281-27.613282 36.101562-40.070313 14.9375 5.4375 32.152344 8.34375 50.160157 8.34375 25.941406 0 50.25-6.027344 68.445312-16.976563 12.738281-7.65625 27.871094-11.699218 43.769531-11.699218h.109376l37.703124.039062c-2.398437 16.136719-6.6875 31.933594-12.804687 47.0625-1.578125 3.90625.308594 8.347656 4.210937 9.929688.9375.375 1.90625.554687 2.855469.554687 3.015625 0 5.871094-1.800781 7.070313-4.769531 7.710937-19.066406 12.726562-39.113281 14.910156-59.582031.839844-7.859375 1.265625-15.90625 1.265625-23.921875 0-7.882813-.417969-15.855469-1.246094-23.707032-.917969-8.683593-2.339843-17.273437-4.257812-25.742187zm-157.644531-149.546875h-44.433594c-23.730469 0-46.03125 9.238281-62.789063 26.007812-6.863281 6.863282-14.894531 12.226563-23.867187 15.945313-8.96875 3.714844-18.4375 5.597656-28.144532 5.597656h-42.726562c38.34375-35.945312 89.214844-56.273437 142.140625-56.273437 20.585937 0 40.59375 2.933594 59.820313 8.722656zm38.378906 315.144531c20.914062 0 40.636718 9.375 53.867187 25.339844-32.113281 34.515625-74.699219 57-121.097656 63.929687-1.796875-6.242187-2.710937-12.71875-2.710937-19.328124 0-38.566407 31.375-69.941407 69.941406-69.941407zm105.300781-157.980469c.765625 3.742188 1.4375 7.507813 1.996094 11.296876l-37.648438-.039063c-5.34375-.003906-10.59375-.476563-15.699219-1.371094 16.757813-4.570312 33.914063-7.886719 51.351563-9.886719zm-208.625 12.496094c15.636719-9.386718 37.707031-14.773437 60.558594-14.773437 19.40625 0 38.222656 3.894531 53.027343 10.808593-7.6875 3.101563-15.265624 6.46875-22.730468 10.101563-8.054688-3.308594-18.058594-5.222656-29.148438-5.222656-28.074218 0-49.242187 12.222656-49.242187 28.429687 0 7.351563 4.367187 13.875 11.746093 18.816406-1.160156.925782-2.324218 1.84375-3.472656 2.78125-4.609375 3.753907-9.101562 7.621094-13.5 11.574219-2.585937-1.21875-5.0625-2.515625-7.382812-3.917969-15.132813-9.136718-33.039063-13.964843-51.777344-13.964843-72.074219-.027344-122.46875-.007813-150.105469.058593-.371093-5.097656-.574219-10.234374-.574219-15.347656 0-5.140625.203126-10.300781.574219-15.421875 13.273438-.03125 31.789063-.054687 55.421875-.0625 4.476563 7.585938 12.730469 12.691407 22.160156 12.691407 9.429688 0 17.6875-5.109376 22.164063-12.699219 15.472656.003906 32.339844.007812 50.613281.015625 18.703125 0 36.570313-4.796875 51.667969-13.867188zm95.703125 29.34375c0 4.472656-12 13.175782-33.996094 13.175782-1.269531 0-2.5-.03125-3.703125-.085938 10.597657-7.023438 21.535157-13.429688 32.769531-19.207031 3.25 2.179687 4.929688 4.441406 4.929688 6.117187zm-67.988281 0c0-4.472656 11.996093-13.179687 33.992187-13.179687 3.246094 0 6.269532.191406 9.074219.53125-11.4375 6.488281-22.546875 13.625-33.285156 21.386719-6.421875-2.820313-9.78125-6.375-9.78125-8.738282zm-152.160157-38.976562c5.773438 0 10.46875 4.695312 10.46875 10.46875 0 5.769531-4.695312 10.464844-10.46875 10.464844-5.769531 0-10.464843-4.695313-10.464843-10.464844 0-5.773438 4.695312-10.46875 10.464843-10.46875zm31.980469 222.328125c-15.984375-8.53125-30.902343-19.132813-44.136719-31.496094-1.15625-1.078125-2.292968-2.171875-3.421874-3.273437h34.351562c4.210938 0 7.625-3.414063 7.625-7.625 0-4.207032-3.414062-7.621094-7.625-7.621094h-48.476562c-2.921876-3.488282-5.726563-7.074219-8.414063-10.746094h78.527344c2.300781 5.867188 6.207031 10.933594 11.1875 14.644531-7.582031 14.835938-14.132813 30.242188-19.617188 46.117188zm21.375-72.925781c0-10.015626 8.148438-18.167969 18.167969-18.167969 2.296875 0 4.484375.445312 6.507812 1.226562-6.84375 9.695313-13.199218 19.730469-19.050781 30.058594-3.457031-3.3125-5.625-7.960937-5.625-13.117187zm36.335938 0c0 9.269531-6.980469 16.925781-15.960938 18.019531 4.6875-8.101563 9.710938-16 15.042969-23.691407.585938 1.789063.917969 3.691407.917969 5.671876zm-2.402344-29.453126c-4.699219-2.523437-10.066406-3.960937-15.765625-3.960937-17.386719 0-31.703125 13.34375-33.269531 30.328125h-84.457031c-.664063 0-1.308594.09375-1.925782.253906-1.546875-2.554687-3.046875-5.140625-4.488281-7.765625-1.035156-1.878906-2.8125-3.238281-4.898437-3.742187l-10.128907-2.4375c-.636719-.152344-1.148437-.613282-1.367187-1.230469l-14.632813-41.164063c-.21875-.613281-.113281-1.292968.285157-1.8125l6.667968-8.746093c1.277344-1.675781 1.804688-3.8125 1.453125-5.890625-.238281-1.414063-.457031-2.816406-.664062-4.214844 27.949219-.0625 77.757812-.082031 148.421875-.050781 15.964844 0 31.144531 4.070312 43.902344 11.769531 1.121093.679688 2.269531 1.335938 3.4375 1.976562-11.71875 11.523438-22.589844 23.78125-32.570313 36.6875zm209.929687-65.539062c-18.664062 0-36.515624 4.800781-51.625 13.882812-15.632812 9.402344-37.714843 14.796876-60.589843 14.796876-12.945313 0-25.636719-1.730469-37.050781-4.933594 2.261718-1.945313 4.546874-3.871094 6.863281-5.761719 3.214843-2.621094 6.472656-5.175781 9.765625-7.667969 6.445312 1.722656 13.738281 2.675782 21.570312 2.675782 28.074219 0 49.242188-12.222657 49.242188-28.425782 0-4.871094-1.921875-9.378906-5.359375-13.304687 8.542969-3.886719 17.242187-7.402344 26.070312-10.574219 12.648438 5.589844 26.714844 8.527344 41.296875 8.546875l39.320313.039063c.371093 5.09375.570312 10.210937.570312 15.289062 0 5.171875-.203125 10.351562-.582031 15.476562l-39.367188-.039062zm0 0"/></svg>