<svg height="511pt" viewBox="0 -9 511.99848 511" width="511pt" xmlns="http://www.w3.org/2000/svg"><path d="m182.355469 127.175781c.527343 3.761719 3.75 6.480469 7.441406 6.480469.347656 0 .699219-.023438 1.050781-.070312l1.945313-.269532c4.117187-.554687 7.007812-4.34375 6.449219-8.460937-.554688-4.117188-4.34375-7.003907-8.460938-6.449219l-2.015625.277344c-4.113281.574218-6.984375 4.375-6.410156 8.492187zm0 0"/><path d="m103.921875 147.796875c1.113281 3.054687 3.996094 4.953125 7.070313 4.953125.855468 0 1.722656-.148438 2.570312-.457031.613281-.222657 1.222656-.441407 1.839844-.660157 3.914062-1.394531 5.957031-5.699218 4.5625-9.613281-1.390625-3.914062-5.695313-5.957031-9.609375-4.5625-.648438.230469-1.292969.460938-1.9375.695313-3.90625 1.421875-5.917969 5.742187-4.496094 9.644531zm0 0"/><path d="m129.539062 139.011719c.925782 3.332031 3.949219 5.515625 7.246094 5.515625.664063 0 1.339844-.089844 2.011719-.273438.632813-.175781 1.261719-.347656 1.894531-.519531 4.007813-1.085937 6.382813-5.214844 5.296875-9.226563-1.085937-4.011718-5.21875-6.382812-9.226562-5.296874-.660157.175781-1.320313.359374-1.980469.539062-4.003906 1.109375-6.351562 5.253906-5.242188 9.261719zm0 0"/><path d="m155.753906 132.199219c.722656 3.5625 3.859375 6.023437 7.363282 6.023437.496093 0 1-.050781 1.507812-.152344l1.933594-.390624c4.078125-.8125 6.722656-4.769532 5.910156-8.847657-.808594-4.074219-4.769531-6.71875-8.84375-5.910156l-2 .402344c-4.074219.832031-6.703125 4.800781-5.871094 8.875zm0 0"/><path d="m38.929688 300.453125c-2.945313-2.933594-7.707032-2.929687-10.640626.007813-2.9375 2.9375-2.933593 7.703124.003907 10.636718.5.5 1.007812 1 1.523437 1.496094 1.460938 1.410156 3.34375 2.113281 5.226563 2.113281 1.96875 0 3.933593-.769531 5.410156-2.296875 2.886719-2.988281 2.804687-7.75-.183594-10.636718-.453125-.4375-.898437-.875-1.339843-1.320313zm0 0"/><path d="m99.519531 355.15625c.632813.25 1.269531.5 1.90625.75.898438.351562 1.824219.519531 2.734375.519531 3.007813 0 5.851563-1.816406 7.011719-4.785156 1.511719-3.871094-.398437-8.234375-4.269531-9.746094-.609375-.238281-1.21875-.480469-1.828125-.71875-3.863281-1.535156-8.234375.351563-9.765625 4.210938-1.535156 3.859375.351562 8.234375 4.210937 9.769531zm0 0"/><path d="m15.265625 259.832031c-.117187-.578125-.222656-1.160156-.320313-1.738281-.691406-4.097656-4.574218-6.863281-8.667968-6.175781-4.097656.691406-6.859375 4.570312-6.171875 8.667969.125.734374.257812 1.46875.40625 2.199218.714843 3.578125 3.855469 6.046875 7.367187 6.046875.492188 0 .988282-.046875 1.484375-.144531 4.078125-.816406 6.71875-4.78125 5.902344-8.855469zm0 0"/><path d="m79.4375 345.386719c2.738281 0 5.382812-1.503907 6.710938-4.109375 1.882812-3.703125.410156-8.234375-3.292969-10.117188-.578125-.296875-1.15625-.59375-1.730469-.890625-3.691406-1.914062-8.230469-.476562-10.144531 3.210938-1.914063 3.6875-.476563 8.230469 3.210937 10.144531.609375.316406 1.222656.628906 1.839844.945312 1.089844.554688 2.257812.816407 3.40625.816407zm0 0"/><path d="m6.507812 241.789062c.53125.113282 1.0625.167969 1.585938.167969 3.46875 0 6.589844-2.414062 7.347656-5.945312.125-.578125.257813-1.15625.398438-1.734375.992187-4.035156-1.472656-8.109375-5.507813-9.101563-4.039062-.996093-8.109375 1.472657-9.101562 5.507813-.179688.722656-.34375 1.445312-.5 2.171875-.871094 4.0625 1.714843 8.0625 5.777343 8.933593zm0 0"/><path d="m136.988281 359.835938c1.191407-3.980469-1.070312-8.171876-5.050781-9.363282-.628906-.191406-1.253906-.378906-1.878906-.570312-3.96875-1.210938-8.175782 1.023437-9.394532 4.996094-1.210937 3.972656 1.023438 8.179687 4.996094 9.394531.652344.199219 1.308594.398437 1.964844.59375.71875.214843 1.445312.316406 2.15625.316406 3.238281 0 6.230469-2.105469 7.207031-5.367187zm0 0"/><path d="m23.71875 201.625c-3.464844-2.292969-8.128906-1.34375-10.425781 2.125-.398438.605469-.789063 1.210938-1.175781 1.816406-2.214844 3.515625-1.167969 8.160156 2.347656 10.378906 1.246094.789063 2.636718 1.164063 4.007812 1.164063 2.496094 0 4.9375-1.242187 6.367188-3.507813.328125-.519531.664062-1.035156 1.003906-1.550781 2.292969-3.46875 1.34375-8.132812-2.125-10.425781zm0 0"/><path d="m23.414062 280.75c-2.101562-3.585938-6.710937-4.789062-10.296874-2.6875-3.582032 2.101562-4.785157 6.710938-2.6875 10.296875.367187.621094.738281 1.238281 1.117187 1.859375 1.421875 2.304688 3.890625 3.578125 6.414063 3.578125 1.347656 0 2.707031-.363281 3.9375-1.117187 3.539062-2.179688 4.640624-6.816407 2.460937-10.351563-.320313-.523437-.636719-1.050781-.945313-1.578125zm0 0"/><path d="m50.160156 329.191406c.566406.398438 1.140625.792969 1.71875 1.183594 1.296875.878906 2.765625 1.300781 4.21875 1.300781 2.410156 0 4.777344-1.15625 6.234375-3.296875 2.332031-3.4375 1.4375-8.117187-2-10.449218-.53125-.363282-1.0625-.726563-1.585937-1.089844-3.414063-2.375-8.101563-1.53125-10.472656 1.882812-2.371094 3.410156-1.527344 8.097656 1.886718 10.46875zm0 0"/><path d="m371.324219 368.421875c.664062 0 1.34375-.089844 2.019531-.277344l1.960938-.546875c3.996093-1.132812 6.320312-5.292968 5.1875-9.289062-1.132813-4-5.289063-6.320313-9.289063-5.191406l-1.894531.53125c-4 1.113281-6.34375 5.261718-5.230469 9.265624.925781 3.328126 3.949219 5.507813 7.246094 5.507813zm0 0"/><path d="m399.644531 359.855469 1.917969-.679688c3.914062-1.394531 5.953125-5.703125 4.558594-9.613281-1.398438-3.914062-5.707032-5.953125-9.617188-4.554688l-1.859375.660157c-3.917969 1.378906-5.976562 5.675781-4.59375 9.59375 1.085938 3.09375 3.992188 5.027343 7.09375 5.027343.828125-.003906 1.671875-.140624 2.5-.433593zm0 0"/><path d="m318.257812 379.042969c.316407 0 .636719-.019531.960938-.0625l2.019531-.261719c4.121094-.542969 7.019531-4.320312 6.476563-8.441406-.542969-4.117188-4.328125-7.015625-8.441406-6.472656l-1.957032.25c-4.121094.527343-7.039062 4.292968-6.511718 8.414062.484374 3.800781 3.71875 6.574219 7.453124 6.574219zm0 0"/><path d="m344.980469 374.699219c.488281 0 .984375-.050781 1.480469-.148438.671874-.132812 1.339843-.269531 2.007812-.40625 4.070312-.835937 6.691406-4.8125 5.855469-8.882812-.835938-4.070313-4.8125-6.691407-8.882813-5.855469-.640625.132812-1.28125.261719-1.925781.390625-4.074219.8125-6.714844 4.777344-5.902344 8.851563.714844 3.574218 3.855469 6.050781 7.367188 6.050781zm0 0"/><path d="m355.753906 139.929688 1.925782.441406c.570312.132812 1.140624.195312 1.703124.195312 3.421876 0 6.519532-2.351562 7.324219-5.828125.933594-4.050781-1.589843-8.089843-5.636719-9.027343l-1.984374-.453126c-4.046876-.925781-8.082032 1.617188-9 5.667969-.921876 4.054688 1.617187 8.085938 5.667968 9.003907zm0 0"/><path d="m505.035156 256.621094c-4.039062-.972656-8.105468 1.507812-9.078125 5.546875-.140625.578125-.289062 1.152343-.445312 1.726562-1.09375 4.011719 1.269531 8.144531 5.277343 9.238281.664063.183594 1.328126.269532 1.984376.269532 3.308593 0 6.339843-2.199219 7.253906-5.542969.195312-.71875.378906-1.4375.554687-2.15625.976563-4.042969-1.507812-8.105469-5.546875-9.082031zm0 0"/><path d="m496.75 238.355469c.101562.589843.195312 1.175781.277344 1.769531.539062 3.75 3.757812 6.453125 7.4375 6.453125.355468 0 .71875-.027344 1.082031-.078125 4.113281-.59375 6.964844-4.40625 6.375-8.519531-.105469-.730469-.222656-1.460938-.347656-2.1875-.707031-4.09375-4.601563-6.84375-8.695313-6.128907-4.09375.707032-6.835937 4.597657-6.128906 8.691407zm0 0"/><path d="m381.414062 146.710938c.628907.191406 1.253907.382812 1.875.578124.742188.230469 1.492188.339844 2.234376.339844 3.207031 0 6.179687-2.070312 7.183593-5.292968 1.230469-3.96875-.984375-8.183594-4.953125-9.417969-.652344-.203125-1.308594-.402344-1.964844-.601563-3.980468-1.207031-8.175781 1.035156-9.382812 5.011719-1.210938 3.976563 1.035156 8.175781 5.007812 9.382813zm0 0"/><path d="m489.097656 217.304688c1.382813 2.464843 3.9375 3.851562 6.574219 3.851562 1.242187 0 2.503906-.308594 3.667969-.957031 3.625-2.027344 4.917968-6.613281 2.890625-10.238281-.351563-.632813-.714844-1.261719-1.082031-1.890626-2.113282-3.578124-6.722657-4.765624-10.304688-2.65625-3.578125 2.109376-4.769531 6.722657-2.65625 10.300782.3125.53125.613281 1.058594.910156 1.589844zm0 0"/><path d="m439.117188 153.898438c-.609376-.320313-1.21875-.640626-1.832032-.957032-3.691406-1.914062-8.230468-.472656-10.140625 3.21875-1.910156 3.6875-.46875 8.226563 3.21875 10.140625.578125.296875 1.152344.597657 1.726563.902344 1.121094.589844 2.320312.871094 3.507812.871094 2.699219 0 5.308594-1.457031 6.660156-4.011719 1.9375-3.671875.53125-8.222656-3.140624-10.164062zm0 0"/><path d="m473.953125 197.402344c1.476563 1.507812 3.429687 2.265625 5.382813 2.265625 1.894531 0 3.792968-.714844 5.257812-2.144531 2.96875-2.90625 3.023438-7.667969.121094-10.640626-.492188-.5-.988282-1.003906-1.488282-1.5-2.949218-2.929687-7.710937-2.914062-10.640624.03125-2.929688 2.945313-2.914063 7.710938.03125 10.640626.453124.445312.894531.894531 1.335937 1.347656zm0 0"/><path d="m461.335938 167.335938c-3.414063-2.367188-8.101563-1.519532-10.46875 1.894531-2.367188 3.414062-1.519532 8.101562 1.894531 10.46875.523437.367187 1.050781.734375 1.566406 1.101562 1.324219.941407 2.847656 1.394531 4.355469 1.394531 2.351562 0 4.667968-1.101562 6.136718-3.164062 2.40625-3.386719 1.617188-8.082031-1.769531-10.492188-.566406-.402343-1.136719-.804687-1.714843-1.203124zm0 0"/><path d="m413.855469 142.199219c-.632813-.257813-1.269531-.511719-1.90625-.765625-3.863281-1.53125-8.238281.355468-9.769531 4.21875-1.53125 3.859375.355468 8.234375 4.214843 9.765625.609375.242187 1.214844.484375 1.816407.726562.925781.375 1.878906.554688 2.820312.554688 2.976562 0 5.792969-1.777344 6.976562-4.703125 1.558594-3.851563-.300781-8.234375-4.152343-9.796875zm0 0"/><path d="m197.933594 69.4375c.609375.214844 1.21875.433594 1.832031.65625.847656.304688 1.710937.449219 2.558594.449219 3.078125 0 5.96875-1.902344 7.078125-4.964844 1.410156-3.90625-.609375-8.21875-4.515625-9.632813-.648438-.234374-1.300781-.46875-1.945313-.695312-3.917968-1.382812-8.214844.671875-9.597656 4.589844-1.386719 3.917968.671875 8.214844 4.589844 9.597656zm0 0"/><path d="m147.207031 58.359375c.628907.039063 1.261719.082031 1.898438.128906.195312.015625.386719.023438.578125.023438 3.898437 0 7.195312-3.003907 7.496094-6.953125.316406-4.140625-2.789063-7.757813-6.929688-8.070313-.703125-.054687-1.402344-.105469-2.101562-.148437-4.183594-.269532-7.71875 2.894531-7.980469 7.039062-.257813 4.148438 2.890625 7.722656 7.039062 7.980469zm0 0"/><path d="m172.792969 62.128906c.625.140625 1.253906.285156 1.878906.433594.582031.136719 1.160156.199219 1.734375.199219 3.410156 0 6.5-2.335938 7.316406-5.800781.949219-4.042969-1.558594-8.09375-5.601562-9.046876-.679688-.160156-1.355469-.316406-2.03125-.464843-4.054688-.910157-8.078125 1.640625-8.988282 5.691406-.910156 4.054687 1.640626 8.078125 5.691407 8.988281zm0 0"/><path d="m95.117188 68.09375c1.207031 0 2.433593-.292969 3.570312-.90625.527344-.285156 1.058594-.5625 1.589844-.832031 3.710937-1.878907 5.195312-6.402344 3.320312-10.109375-1.875-3.710938-6.402344-5.195313-10.109375-3.320313-.65625.335938-1.3125.675781-1.957031 1.023438-3.65625 1.980469-5.015625 6.542969-3.039062 10.199219 1.363281 2.519531 3.949218 3.945312 6.625 3.945312zm0 0"/><path d="m58.144531 136.003906c4.066407 0 7.414063-3.246094 7.515625-7.335937.015625-.628907.039063-1.25.0625-1.871094.179688-4.152344-3.042968-7.660156-7.191406-7.835937-4.15625-.183594-7.664062 3.042968-7.839844 7.195312-.027344.707031-.054687 1.421875-.070312 2.136719-.105469 4.15625 3.179687 7.605469 7.335937 7.707031.0625.003906.125.003906.1875.003906zm0 0"/><path d="m120.671875 59.574219c.410156 0 .828125-.035157 1.246094-.105469.609375-.101562 1.21875-.199219 1.835937-.289062 4.109375-.601563 6.953125-4.421876 6.351563-8.53125-.601563-4.113282-4.417969-6.953126-8.535157-6.355469-.714843.105469-1.421874.21875-2.128906.335937-4.097656.683594-6.867187 4.558594-6.183594 8.65625.617188 3.679688 3.804688 6.289063 7.414063 6.289063zm0 0"/><path d="m55.675781 97.511719c-.230469.691406-.449219 1.390625-.664062 2.09375-1.207031 3.972656 1.039062 8.175781 5.015625 9.382812.726562.21875 1.464844.324219 2.1875.324219 3.226562 0 6.210937-2.089844 7.195312-5.339844.175782-.582031.359375-1.15625.550782-1.734375 1.304687-3.945312-.832032-8.199219-4.777344-9.503906-3.945313-1.304687-8.203125.832031-9.507813 4.777344zm0 0"/><path d="m69.832031 83.738281c1.382813 1.09375 3.027344 1.621094 4.660157 1.621094 2.222656 0 4.421874-.980469 5.90625-2.855469.367187-.46875.742187-.929687 1.125-1.382812 2.675781-3.179688 2.261718-7.925782-.921876-10.597656-3.179687-2.675782-7.925781-2.261719-10.597656.917968-.476562.570313-.945312 1.144532-1.40625 1.726563-2.578125 3.261719-2.023437 7.992187 1.234375 10.570312zm0 0"/><path d="m154.324219 314.457031c-2.78125-3.085937-7.539063-3.332031-10.625-.550781-3.085938 2.78125-3.332031 7.539062-.550781 10.625l1.371093 1.515625c1.484375 1.632813 3.523438 2.464844 5.570313 2.464844 1.804687 0 3.617187-.648438 5.058594-1.957031 3.074218-2.792969 3.304687-7.550782.507812-10.625zm0 0"/><path d="m90.988281 239.570312c3.679688-1.933593 5.09375-6.480468 3.160157-10.160156-.300782-.578125-.605469-1.15625-.902344-1.734375-1.910156-3.691406-6.449219-5.136719-10.140625-3.226562-3.691407 1.910156-5.132813 6.449219-3.222657 10.136719.3125.609374.628907 1.214843.949219 1.820312 1.34375 2.5625 3.957031 4.027344 6.664063 4.027344 1.179687 0 2.375-.277344 3.492187-.863282zm0 0"/><path d="m137.042969 294.171875c-2.597657-3.238281-7.335938-3.761719-10.574219-1.15625-3.242188 2.597656-3.757812 7.332031-1.160156 10.574219l1.28125 1.585937c1.484375 1.839844 3.660156 2.792969 5.851562 2.792969 1.660156 0 3.335938-.550781 4.730469-1.679688 3.230469-2.613281 3.726563-7.351562 1.109375-10.578124zm0 0"/><path d="m120.390625 285.027344c3.378906-2.417969 4.15625-7.117188 1.738281-10.496094-.382812-.53125-.765625-1.066406-1.140625-1.601562-2.402343-3.390626-7.09375-4.195313-10.488281-1.792969-3.390625 2.402343-4.195312 7.09375-1.792969 10.488281.394531.554688.789063 1.109375 1.1875 1.664062 1.46875 2.050782 3.777344 3.144532 6.121094 3.144532 1.519531 0 3.046875-.457032 4.375-1.40625zm0 0"/><path d="m94.574219 260.371094c1.421875 2.292968 3.878906 3.550781 6.394531 3.550781 1.355469 0 2.730469-.363281 3.964844-1.132813 3.527344-2.191406 4.613281-6.832031 2.417968-10.359374l-1.035156-1.679688c-2.179687-3.539062-6.8125-4.644531-10.347656-2.464844-3.539062 2.175782-4.644531 6.808594-2.46875 10.347656zm0 0"/><path d="m299.511719 421.738281c-.597657-.25-1.199219-.503906-1.800781-.761719-3.820313-1.628906-8.242188.144532-9.871094 3.96875-1.632813 3.820313.144531 8.238282 3.964844 9.871094.632812.269532 1.261718.535156 1.894531.800782.949219.398437 1.933593.585937 2.902343.585937 2.945313 0 5.734376-1.738281 6.945313-4.621094 1.601563-3.828125-.203125-8.238281-4.035156-9.84375zm0 0"/><path d="m324.246094 430.683594c-.617188-.1875-1.238282-.378906-1.859375-.570313-3.96875-1.238281-8.183594.976563-9.421875 4.945313-1.234375 3.964844.980468 8.183594 4.945312 9.421875.660156.203125 1.316406.40625 1.976563.605469.726562.21875 1.460937.324218 2.183593.324218 3.226563 0 6.210938-2.097656 7.195313-5.347656 1.203125-3.976562-1.046875-8.175781-5.019531-9.378906zm0 0"/><path d="m421.472656 424.007812c-.46875.363282-.9375.71875-1.414062 1.066407-3.351563 2.453125-4.082032 7.160156-1.628906 10.515625 1.472656 2.011718 3.757812 3.082031 6.078124 3.082031 1.539063 0 3.097657-.472656 4.433594-1.453125.605469-.441406 1.199219-.890625 1.789063-1.351562 3.273437-2.558594 3.859375-7.285157 1.300781-10.558594-2.558594-3.277344-7.285156-3.859375-10.558594-1.300782zm0 0"/><path d="m453.375 376.457031c-4.097656-.695312-7.984375 2.058594-8.679688 6.15625-.105468.609375-.214843 1.214844-.332031 1.820313-.78125 4.082031 1.894531 8.023437 5.976563 8.804687.476562.089844.953125.136719 1.421875.136719 3.535156 0 6.691406-2.507812 7.378906-6.109375.136719-.707031.265625-1.414063.386719-2.128906.695312-4.09375-2.058594-7.980469-6.152344-8.679688zm0 0"/><path d="m375.210938 438.5625c-.625.015625-1.25.023438-1.878907.027344-4.15625.023437-7.503906 3.414062-7.480469 7.566406.023438 4.140625 3.390626 7.480469 7.523438 7.480469h.046875c.710937-.003907 1.421875-.015625 2.132813-.03125 4.152343-.09375 7.445312-3.539063 7.347656-7.691407-.09375-4.15625-3.511719-7.453124-7.691406-7.351562zm0 0"/><path d="m399.9375 434.898438c-.582031.175781-1.171875.34375-1.765625.503906-4.007813 1.097656-6.367187 5.238281-5.269531 9.246094.917968 3.339843 3.949218 5.535156 7.253906 5.535156.65625 0 1.324219-.085938 1.988281-.265625.703125-.195313 1.402344-.394531 2.09375-.601563 3.980469-1.1875 6.246094-5.378906 5.058594-9.359375-1.1875-3.984375-5.378906-6.25-9.359375-5.058593zm0 0"/><path d="m349.617188 436.640625c-.628907-.101563-1.261719-.207031-1.894532-.316406-4.097656-.71875-7.992187 2.027343-8.703125 6.121093-.710937 4.09375 2.03125 7.988282 6.125 8.699219.6875.121094 1.375.238281 2.0625.347657.40625.066406.8125.097656 1.210938.097656 3.625 0 6.820312-2.625 7.417969-6.316406.667968-4.101563-2.117188-7.964844-6.21875-8.632813zm0 0"/><path d="m447.097656 402.816406c-3.644531-1.996094-8.21875-.664062-10.214844 2.980469-.289062.527344-.585937 1.050781-.890624 1.570313-2.09375 3.589843-.886719 8.195312 2.703124 10.289062 1.191407.699219 2.496094 1.03125 3.785157 1.03125 2.585937 0 5.105469-1.335938 6.503906-3.730469.371094-.636719.734375-1.277343 1.089844-1.925781 2-3.644531.667969-8.214844-2.976563-10.214844zm0 0"/><path d="m391.683594 225.089844 1.132812 1.621094c1.464844 2.101562 3.800782 3.222656 6.179688 3.222656 1.484375 0 2.984375-.4375 4.292968-1.351563 3.410157-2.375 4.246094-7.066406 1.871094-10.472656l-1.164062-1.667969c-2.386719-3.398437-7.082032-4.21875-10.480469-1.832031s-4.222656 7.082031-1.832031 10.480469zm0 0"/><path d="m407.277344 249c1.414062 2.347656 3.902344 3.648438 6.457031 3.648438 1.320313 0 2.65625-.347657 3.867187-1.074219 3.5625-2.140625 4.714844-6.765625 2.574219-10.324219-.355469-.585938-.707031-1.171875-1.066406-1.757812-2.160156-3.546876-6.792969-4.667969-10.339844-2.507813-3.546875 2.164063-4.667969 6.792969-2.507812 10.339844.34375.558593.679687 1.117187 1.015625 1.675781zm0 0"/><path d="m340.152344 164.074219 1.398437 1.402343c1.46875 1.480469 3.402344 2.222657 5.335938 2.222657 1.917969 0 3.835937-.726563 5.300781-2.183594 2.949219-2.929687 2.96875-7.691406.039062-10.640625l-1.441406-1.449219c-2.941406-2.933593-7.707031-2.929687-10.640625.007813-2.9375 2.9375-2.933593 7.703125.007813 10.640625zm0 0"/><path d="m388.738281 196.003906-1.265625-1.59375c-2.589844-3.246094-7.324218-3.78125-10.570312-1.191406-3.25 2.589844-3.785156 7.320312-1.195313 10.570312l1.230469 1.550782c1.484375 1.875 3.683594 2.855468 5.90625 2.855468 1.632812 0 3.28125-.53125 4.660156-1.621093 3.257813-2.578125 3.8125-7.308594 1.234375-10.570313zm0 0"/><path d="m370.433594 185.546875c3.105468-2.757813 3.382812-7.511719.625-10.617187l-1.359375-1.527344c-2.773438-3.09375-7.53125-3.355469-10.625-.582032-3.09375 2.773438-3.355469 7.527344-.582031 10.625l1.320312 1.476563c1.484375 1.671875 3.550781 2.527344 5.625 2.527344 1.777344 0 3.5625-.628907 4.996094-1.902344zm0 0"/><path d="m328.898438 109.503906c0 28.339844-23.058594 51.398438-51.398438 51.398438-8.265625 0-16.175781-1.917969-23.507812-5.699219-3.691407-1.902344-8.230469-.453125-10.132813 3.242187-1.90625 3.691407-.453125 8.230469 3.238281 10.132813 9.484375 4.890625 19.710938 7.367187 30.402344 7.367187 36.636719 0 66.445312-29.804687 66.445312-66.441406 0-9.320312-1.90625-18.355468-5.671874-26.859375-1.679688-3.796875-6.121094-5.515625-9.921876-3.832031-3.800781 1.679688-5.515624 6.121094-3.835937 9.921875 2.910156 6.574219 4.382813 13.558594 4.382813 20.769531zm0 0"/><path d="m226.730469 146.90625c1.296875 0 2.613281-.335938 3.8125-1.042969 3.582031-2.113281 4.769531-6.722656 2.660156-10.304687-4.644531-7.875-7.101563-16.886719-7.101563-26.058594 0-28.339844 23.058594-51.398438 51.398438-51.398438 10.109375 0 19.898438 2.941407 28.308594 8.503907 3.464844 2.292969 8.132812 1.339843 10.425781-2.125 2.289063-3.464844 1.339844-8.132813-2.128906-10.425781-10.878907-7.195313-23.535157-11-36.601563-11-36.640625 0-66.445312 29.808593-66.445312 66.445312 0 11.859375 3.175781 23.511719 9.183594 33.703125 1.402343 2.378906 3.910156 3.703125 6.488281 3.703125zm0 0"/><path d="m284.214844 366.675781c16.523437-14.789062 22.261718-26.128906 17.542968-34.664062-4.746093-8.578125-17.539062-9.699219-39.035156-3.460938-4.441406-4.050781-9.421875-7.519531-14.851562-10.300781-3.695313-1.894531-8.230469-.433594-10.125 3.265625-1.894532 3.699219-.433594 8.230469 3.265625 10.125 9.433593 4.835937 17.144531 12.316406 22.296875 21.632813 1.484375 2.683593 2.699218 5.449218 3.675781 8.253906-11.917969 9.546875-27.351563 19.695312-44.042969 28.925781-16.695312 9.230469-33.5 16.90625-47.921875 21.929687-1.863281-2.339843-3.554687-4.839843-5.03125-7.507812-6.890625-12.464844-8.515625-26.863281-4.578125-40.550781 3.941406-13.6875 12.976563-25.019531 25.4375-31.910157 6.933594-3.832031 14.4375-6.039062 22.304688-6.546874 4.148437-.269532 7.292968-3.851563 7.019531-7.996094-.269531-4.144532-3.84375-7.289063-7.992187-7.019532-10.097657.65625-19.726563 3.480469-28.613282 8.394532-15.980468 8.835937-27.5625 23.367187-32.613281 40.917968-2.957031 10.265626-3.449219 20.847657-1.597656 31.0625-16.730469 14.898438-22.558594 26.328126-17.816407 34.910157 2.742188 4.957031 8.160157 7.429687 16.398438 7.429687 5.945312 0 13.359375-1.289062 22.292969-3.855468.121093-.035157.246093-.078126.371093-.113282 12.679688 11.542969 29.246094 17.828125 46.160157 17.828125 11.179687 0 22.511719-2.742187 32.96875-8.523437 26.273437-14.53125 39.210937-43.925782 34.179687-71.960938.101563-.085937.207032-.175781.304688-.265625zm3.609375-26.960937c-.921875 2.039062-3.414063 5.785156-8.878907 11.25-.757812-1.675782-1.5625-3.335938-2.46875-4.972656-.898437-1.628907-1.867187-3.207032-2.886718-4.746094 7.542968-1.726563 12.027344-1.828125 14.234375-1.53125zm-142.347657 78.71875c.917969-2.027344 3.390626-5.773438 8.871094-11.25.761719 1.679687 1.574219 3.339844 2.476563 4.972656.902343 1.632812 1.867187 3.210938 2.882812 4.738281-7.523437 1.722657-12.019531 1.835938-14.230469 1.539063zm96.976563 7.300781c-12.46875 6.890625-26.867187 8.515625-40.554687 4.578125-5.140626-1.480469-9.949219-3.683594-14.316407-6.511719 13.300781-5.140625 27.9375-12.050781 42.640625-20.179687 14.6875-8.125 28.304688-16.835938 39.722656-25.359375.257813 19.042969-9.695312 37.628906-27.492187 47.472656zm0 0"/><path d="m68.191406 217.464844c20.582032 0 37.328125-16.746094 37.328125-37.328125s-16.746093-37.324219-37.328125-37.324219c-20.585937 0-37.328125 16.742188-37.328125 37.324219s16.742188 37.328125 37.328125 37.328125zm0-59.609375c12.285156 0 22.28125 9.996093 22.28125 22.28125 0 12.285156-9.996094 22.28125-22.28125 22.28125s-22.28125-9.996094-22.28125-22.28125c0-12.285157 9.996094-22.28125 22.28125-22.28125zm0 0"/><path d="m453.476562 256.292969c-28.484374 0-51.65625 23.175781-51.65625 51.660156s23.171876 51.660156 51.65625 51.660156c28.484376 0 51.660157-23.175781 51.660157-51.660156s-23.175781-51.660156-51.660157-51.660156zm0 88.273437c-10.523437 0-20.019531-4.46875-26.703124-11.605468 9.726562-2.972657 24.285156-10.261719 35.140624-28.117188 2.15625-3.550781 1.027344-8.179688-2.523437-10.335938-3.546875-2.160156-8.175781-1.03125-10.335937 2.519532-10.164063 16.71875-24.148438 21.273437-30.304688 22.5-1.21875-3.640625-1.886719-7.53125-1.886719-11.574219 0-20.1875 16.425781-36.613281 36.613281-36.613281 10.496094 0 19.964844 4.445312 26.648438 11.542968-.011719.070313-.027344.140626-.03125.214844-.023438.25-2.640625 25.128906-23.441406 39.863282-3.390625 2.398437-4.191406 7.09375-1.789063 10.484374 1.464844 2.070313 3.789063 3.175782 6.144531 3.175782 1.503907 0 3.023438-.449219 4.34375-1.382813 13.011719-9.21875 20.371094-21.25 24.515626-31.300781.144531 1.320312.222656 2.660156.222656 4.015625 0 20.1875-16.425782 36.613281-36.613282 36.613281zm0 0"/><path d="m375.808594 66.910156h.039062c4.136719 0 7.5-3.34375 7.519532-7.488281l.015624-2.730469c.019532-4.15625-3.335937-7.539062-7.488281-7.558594-.015625 0-.023437 0-.035156 0-4.140625 0-7.503906 3.34375-7.523437 7.488282l-.015626 2.730468c-.019531 4.15625 3.335938 7.539063 7.488282 7.558594zm0 0"/><path d="m368.25 84.410156-.011719 2.730469c-.019531 4.15625 3.332031 7.539063 7.488281 7.558594h.035157c4.136719 0 7.5-3.34375 7.523437-7.488281l.011719-2.730469c.019531-4.152344-3.332031-7.539063-7.488281-7.558594-4.199219 0-7.539063 3.335937-7.558594 7.488281zm0 0"/><path d="m388.304688 79.476562 2.730468.011719h.035156c4.136719 0 7.503907-3.34375 7.523438-7.484375.019531-4.15625-3.332031-7.539062-7.488281-7.5625l-2.730469-.011718c-.011719 0-.023438 0-.035156 0-4.140625 0-7.503906 3.34375-7.523438 7.488281-.019531 4.152343 3.332032 7.539062 7.488282 7.558593zm0 0"/><path d="m360.515625 79.390625 2.730469.011719h.035156c4.136719 0 7.5-3.34375 7.523438-7.488282.019531-4.152343-3.335938-7.539062-7.488282-7.558593l-2.730468-.011719c-.015626 0-.023438 0-.039063 0-4.136719 0-7.5 3.34375-7.519531 7.488281-.019532 4.15625 3.332031 7.539063 7.488281 7.558594zm0 0"/><path d="m408.921875 18.277344h.039063c4.136718 0 7.5-3.34375 7.523437-7.488282l.011719-2.730468c.023437-4.152344-3.328125-7.539063-7.484375-7.558594-.015625 0-.027344 0-.039063 0-4.136718 0-7.503906 3.34375-7.523437 7.484375l-.011719 2.730469c-.023438 4.15625 3.328125 7.539062 7.484375 7.5625zm0 0"/><path d="m408.921875 28.289062c-.011719 0-.023437 0-.035156 0-4.136719 0-7.503907 3.347657-7.523438 7.488282l-.011719 2.730468c-.019531 4.15625 3.332032 7.539063 7.488282 7.558594h.035156c4.136719 0 7.503906-3.34375 7.523438-7.488281l.011718-2.730469c.019532-4.152344-3.335937-7.539062-7.488281-7.558594zm0 0"/><path d="m413.929688 23.285156c-.019532 4.152344 3.332031 7.539063 7.488281 7.558594l2.730469.011719h.035156c4.136718 0 7.503906-3.34375 7.523437-7.488281.019531-4.152344-3.332031-7.539063-7.488281-7.558594l-2.730469-.011719c-.011719 0-.023437 0-.035156 0-4.140625 0-7.503906 3.34375-7.523437 7.488281zm0 0"/><path d="m393.628906 30.757812 2.730469.011719h.035156c4.136719 0 7.503907-3.34375 7.523438-7.488281.019531-4.152344-3.332031-7.539062-7.488281-7.558594l-2.730469-.011718c-.011719 0-.023438 0-.035157 0-4.140624 0-7.503906 3.34375-7.523437 7.484374-.019531 4.15625 3.332031 7.542969 7.488281 7.5625zm0 0"/><path d="m68.1875 400.914062h.039062c4.136719 0 7.503907-3.34375 7.523438-7.484374l.011719-2.730469c.023437-4.15625-3.328125-7.542969-7.484375-7.5625-.011719 0-.023438 0-.039063 0-4.136719 0-7.5 3.34375-7.519531 7.484375l-.015625 2.730468c-.019531 4.15625 3.332031 7.539063 7.484375 7.5625zm0 0"/><path d="m68.1875 410.925781c-.011719 0-.019531 0-.035156 0-4.136719 0-7.5 3.347657-7.519532 7.488281l-.015624 2.730469c-.019532 4.15625 3.332031 7.539063 7.488281 7.558594h.035156c4.140625 0 7.503906-3.34375 7.523437-7.488281l.011719-2.730469c.019531-4.152344-3.332031-7.539063-7.488281-7.558594zm0 0"/><path d="m90.972656 406.003906c.019532-4.152344-3.332031-7.539062-7.488281-7.558594l-2.730469-.011718c-4.152344-.003906-7.539062 3.332031-7.558594 7.488281-.019531 4.15625 3.335938 7.539063 7.488282 7.558594l2.730468.011719h.039063c4.136719 0 7.5-3.34375 7.519531-7.488282zm0 0"/><path d="m63.183594 405.917969c.019531-4.152344-3.332032-7.539063-7.488282-7.558594l-2.730468-.011719c-.011719 0-.023438 0-.035156 0-4.136719 0-7.503907 3.34375-7.523438 7.488282-.019531 4.15625 3.335938 7.539062 7.488281 7.558593l2.730469.011719h.035156c4.140625 0 7.503906-3.34375 7.523438-7.488281zm0 0"/><path d="m106.742188 445.992188h.035156c4.136718 0 7.503906-3.34375 7.523437-7.488282l.011719-2.730468c.019531-4.152344-3.332031-7.539063-7.488281-7.558594-.011719 0-.023438 0-.035157 0-4.136718 0-7.503906 3.347656-7.523437 7.488281l-.011719 2.730469c-.019531 4.15625 3.332032 7.539062 7.488282 7.558594zm0 0"/><path d="m106.738281 456.007812c-.011719 0-.023437 0-.035156 0-4.136719 0-7.503906 3.34375-7.523437 7.488282l-.011719 2.730468c-.019531 4.152344 3.332031 7.539063 7.488281 7.558594h.035156c4.136719 0 7.503906-3.347656 7.523438-7.488281l.011718-2.730469c.019532-4.15625-3.332031-7.539062-7.488281-7.558594zm0 0"/><path d="m122.035156 443.527344-2.730468-.015625c-.011719 0-.023438 0-.035157 0-4.136719 0-7.503906 3.347656-7.523437 7.488281-.019532 4.15625 3.335937 7.539062 7.488281 7.558594l2.730469.015625h.039062c4.136719 0 7.5-3.347657 7.519532-7.488281.019531-4.15625-3.332032-7.539063-7.488282-7.558594zm0 0"/><path d="m101.734375 451c.019531-4.15625-3.332031-7.539062-7.488281-7.558594l-2.730469-.015625c-.011719 0-.023437 0-.039063 0-4.136718 0-7.5 3.347657-7.519531 7.488281-.019531 4.15625 3.328125 7.539063 7.484375 7.558594l2.730469.015625h.039063c4.136718 0 7.5-3.347656 7.523437-7.488281zm0 0"/><path d="m38.386719 23.574219h.035156c4.140625 0 7.503906-3.34375 7.523437-7.488281l.011719-2.730469c.023438-4.152344-3.332031-7.539063-7.488281-7.558594-.011719 0-.019531 0-.035156 0-4.136719 0-7.5 3.347656-7.519532 7.488281l-.015624 2.730469c-.019532 4.15625 3.335937 7.539063 7.488281 7.558594zm0 0"/><path d="m38.335938 51.363281c4.140624 0 7.503906-3.34375 7.523437-7.488281l.011719-2.726562c.019531-4.15625-3.332032-7.542969-7.488282-7.558594-.011718 0-.023437 0-.035156 0-4.136718 0-7.5 3.34375-7.523437 7.488281l-.011719 2.730469c-.019531 4.152344 3.332031 7.539062 7.488281 7.554687zm0 0"/><path d="m43.394531 28.582031c-.023437 4.15625 3.328125 7.539063 7.484375 7.558594l2.730469.011719h.039063c4.136718 0 7.5-3.34375 7.519531-7.484375.023437-4.15625-3.328125-7.539063-7.484375-7.558594l-2.730469-.015625c-.011719 0-.023437 0-.039063 0-4.136718 0-7.5 3.34375-7.519531 7.488281zm0 0"/><path d="m23.089844 36.054688 2.730468.011718h.035157c4.140625 0 7.503906-3.34375 7.523437-7.484375.019532-4.15625-3.332031-7.539062-7.488281-7.558593l-2.730469-.015626c-.011718 0-.023437 0-.035156 0-4.136719 0-7.503906 3.34375-7.523438 7.488282-.019531 4.152344 3.332032 7.539062 7.488282 7.558594zm0 0"/><path d="m178.566406 197.9375c11.945313 0 21.664063-9.71875 21.664063-21.664062 0-11.949219-9.71875-21.667969-21.664063-21.667969-11.949218 0-21.667968 9.71875-21.667968 21.667969 0 11.945312 9.722656 21.664062 21.667968 21.664062zm0-28.285156c3.648438 0 6.617188 2.96875 6.617188 6.621094 0 3.648437-2.96875 6.617187-6.617188 6.617187-3.652344 0-6.621094-2.96875-6.621094-6.617187 0-3.652344 2.96875-6.621094 6.621094-6.621094zm0 0"/><path d="m419.773438 71.964844c0 11.949218 9.71875 21.667968 21.667968 21.667968 11.945313 0 21.664063-9.71875 21.664063-21.667968 0-11.945313-9.71875-21.664063-21.664063-21.664063-11.949218 0-21.667968 9.71875-21.667968 21.664063zm21.667968-6.617188c3.648438 0 6.617188 2.96875 6.617188 6.617188 0 3.652344-2.96875 6.621094-6.617188 6.621094-3.652344 0-6.621094-2.96875-6.621094-6.621094 0-3.648438 2.96875-6.617188 6.621094-6.617188zm0 0"/><path d="m196.984375 450.34375c-11.945313 0-21.664063 9.71875-21.664063 21.664062 0 11.949219 9.714844 21.667969 21.664063 21.667969 11.945313 0 21.664063-9.71875 21.664063-21.667969 0-11.945312-9.71875-21.664062-21.664063-21.664062zm0 28.285156c-3.652344 0-6.621094-2.96875-6.621094-6.621094 0-3.648437 2.96875-6.617187 6.621094-6.617187 3.648437 0 6.617187 2.96875 6.617187 6.617187 0 3.652344-2.96875 6.621094-6.617187 6.621094zm0 0"/><path d="m263.507812 145.007812c11.863282 0 21.515626-9.648437 21.515626-21.515624 0-11.863282-9.652344-21.515626-21.515626-21.515626-11.863281 0-21.515624 9.652344-21.515624 21.515626 0 11.863281 9.652343 21.515624 21.515624 21.515624zm0-27.984374c3.570313 0 6.46875 2.902343 6.46875 6.46875 0 3.566406-2.902343 6.472656-6.46875 6.472656-3.566406 0-6.46875-2.90625-6.46875-6.472656 0-3.566407 2.902344-6.46875 6.46875-6.46875zm0 0"/></svg>