<svg height="512pt" viewBox="0 0 512 512.00002" width="512pt" xmlns="http://www.w3.org/2000/svg"><path d="m264.3125 145.121094c2.398438 3.375 7.082031 4.167968 10.457031 1.769531 50.566407-35.921875 102.910157-70.300781 143.605469-94.320313 55.109375-32.53125 73.238281-37.105468 78.550781-37.539062-.65625 6.953125-8.394531 36.683594-77.730469 142.648438-2.269531 3.46875-1.296874 8.113281 2.167969 10.382812 1.269531.828125 2.691407 1.226562 4.101563 1.226562 2.445312 0 4.84375-1.195312 6.28125-3.398437 26.375-40.304687 47.597656-75.5625 61.375-101.957031 21.449218-41.082032 21.566406-53.777344 15.144531-60.199219-5.832031-5.832031-16.113281-4.894531-35.496094 3.25-14.128906 5.933594-32.992187 15.75-56.0625 29.175781-42.039062 24.460938-96.941406 60.367188-150.625 98.503906-3.375 2.398438-4.167969 7.082032-1.769531 10.457032zm0 0"/><path d="m197.511719 257.554688c3.625-2.007813 4.9375-6.570313 2.929687-10.195313-2.003906-3.625-6.566406-4.9375-10.191406-2.929687-14.269531 7.894531-28.503906 18.757812-41.152344 31.410156-20.261718 20.257812-35.195312 43.578125-42.058594 65.667968-7.371093 23.738282-4.671874 43.574219 7.605469 55.847657 7.742188 7.746093 18.488281 11.679687 31.328125 11.679687 7.519532 0 15.753906-1.351562 24.519532-4.074218 22.089843-6.863282 45.414062-21.796876 65.671874-42.054688 20.257813-20.257812 35.191407-43.582031 42.054688-65.671875 7.375-23.738281 4.671875-43.570313-7.605469-55.847656-10.734375-10.738281-27.726562-14.195313-47.84375-9.738281-4.046875.894531-6.597656 4.902343-5.703125 8.945312.898438 4.042969 4.898438 6.59375 8.945313 5.699219 14.9375-3.308594 27.011719-1.285157 33.996093 5.699219 8.027344 8.027343 9.445313 22.898437 3.886719 40.792968-6.152343 19.808594-19.769531 40.945313-38.335937 59.515625-40.304688 40.300781-84.40625 50.351563-100.308594 34.449219-15.902344-15.898438-5.851562-60 34.453125-100.304688 11.671875-11.675781 24.746094-21.664062 37.808594-28.890624zm0 0"/><path d="m343.3125 451.199219c-68.3125 22.472656-131.921875 23-183.351562 2.726562 2.929687.164063 5.90625.246094 8.925781.246094 32.773437 0 70.933593-9.550781 112.285156-28.671875 63.019531-29.136719 131.957031-79.414062 194.113281-141.570312 2.929688-2.929688 2.929688-7.679688 0-10.605469-2.929687-2.929688-7.675781-2.929688-10.605468 0-60.941407 60.9375-128.347657 110.148437-189.800782 138.5625-29.667968 13.714843-57.398437 22.261719-82.285156 25.667969 24.449219-9.660157 49.132812-26.296876 70.527344-47.691407 32.875-32.875 93.332031-111.882812 150.441406-196.597656 2.316406-3.433594 1.410156-8.097656-2.023438-10.410156-3.4375-2.316407-8.097656-1.410157-10.410156 2.023437-56.628906 84-116.351562 162.113282-148.613281 194.378906-22.863281 22.863282-49.554687 39.832032-75.164063 47.789063-30.589843 9.503906-58.367187 5.394531-76.796874-11.203125-1.527344-1.410156-2.980469-2.867188-4.394532-4.394531-16.601562-18.429688-20.707031-46.207031-11.203125-76.800781 7.953125-25.601563 24.925781-52.296876 47.789063-75.160157 21.40625-21.410156 61.386718-53.84375 112.691406-91.4375 3.742188-1.367187 5.78125-5.441406 4.578125-9.28125l-.097656-.296875c-.722657-2.308594-2.515625-4.125-4.8125-4.878906-2.296875-.757812-4.816407-.359375-6.769531 1.070312-52.75 38.578126-94.015626 72.039063-116.195313 94.21875-21.398437 21.394532-38.035156 46.078126-47.691406 70.527344 3.402343-24.886718 11.949219-52.617187 25.667969-82.285156 28.410156-61.453125 77.621093-128.859375 138.5625-189.804688 2.929687-2.925781 2.929687-7.675781 0-10.605468-2.929688-2.925782-7.679688-2.925782-10.605469 0-62.160157 62.160156-112.4375 131.097656-141.574219 194.113281-20.886719 45.175781-30.347656 86.53125-28.417969 121.226563-20.28125-51.433594-19.757812-115.046876 2.722657-183.367188 1.292968-3.9375-.847657-8.171875-4.78125-9.46875-3.933594-1.289062-8.171876.84375-9.46875 4.78125-20.09375 61.074219-23.382813 118.777344-10.636719 168.296875-10.234375-18.726563-17.441407-37.089844-21.082031-54.238281-.859376-4.050782-4.839844-6.640625-8.890626-5.78125-4.054687.863281-6.640624 4.84375-5.78125 8.894531 9.527344 44.875 41.425782 97.050781 87.519532 143.144531 46.09375 46.089844 98.269531 77.992188 143.144531 87.519532.523437.109374 1.046875.164062 1.5625.164062 3.46875 0 6.582031-2.417969 7.332031-5.945312.859375-4.050782-1.726562-8.03125-5.78125-8.890626-17.15625-3.644531-35.527344-10.851562-54.261718-21.097656 19.5 5.023438 40.261718 7.570313 62.007812 7.570313 33.480469 0 69.28125-6.007813 106.3125-18.191407 3.933594-1.292968 6.074219-5.535156 4.78125-9.46875-1.292969-3.933593-5.535156-6.074218-9.46875-4.777343zm0 0"/><path d="m317.976562 226.636719-.082031-.082031c-2.910156-2.945313-7.660156-2.976563-10.605469-.0625-2.945312 2.910156-2.976562 7.660156-.0625 10.605468l.078126.078125c1.464843 1.484375 3.398437 2.230469 5.335937 2.230469 1.902344 0 3.808594-.722656 5.269531-2.164062 2.945313-2.910157 2.976563-7.660157.066406-10.605469zm0 0"/><path d="m316.800781 248.988281c-2.917969-2.9375-7.667969-2.953125-10.605469-.03125-2.9375 2.917969-2.953124 7.667969-.03125 10.605469l.078126.078125c1.46875 1.476563 3.394531 2.214844 5.320312 2.214844 1.910156 0 3.824219-.726563 5.285156-2.179688 2.9375-2.921875 2.953125-7.667969.03125-10.605469zm0 0"/><path d="m425.742188 92.46875c2.929687-2.929688 2.929687-7.675781 0-10.605469l-.082032-.078125c-2.925781-2.929687-7.675781-2.929687-10.605468 0-2.925782 2.929688-2.925782 7.675782 0 10.605469l.082031.078125c1.464843 1.464844 3.382812 2.199219 5.300781 2.199219 1.921875 0 3.839844-.734375 5.304688-2.199219zm0 0"/><path d="m499.84375 248.71875c-2.917969-2.9375-7.667969-2.953125-10.605469-.035156-2.9375 2.921875-2.953125 7.667968-.03125 10.605468l.078125.082032c1.46875 1.472656 3.394532 2.210937 5.320313 2.210937 1.910156 0 3.824219-.726562 5.285156-2.179687 2.9375-2.917969 2.953125-7.667969.03125-10.605469zm0 0"/><path d="m252.660156 22.746094c1.46875 1.484375 3.402344 2.230468 5.335938 2.230468 1.90625 0 3.808594-.722656 5.269531-2.164062 2.949219-2.910156 2.976563-7.660156.066406-10.605469l-.078125-.082031c-2.910156-2.945312-7.660156-2.972656-10.605468-.0625-2.949219 2.910156-2.976563 7.660156-.066407 10.605469zm0 0"/><path d="m72.796875 129.523438c-2.917969-2.9375-7.667969-2.949219-10.605469-.03125-2.9375 2.917968-2.953125 7.667968-.03125 10.605468l.078125.078125c1.46875 1.476563 3.394531 2.214844 5.320313 2.214844 1.910156 0 3.824218-.726563 5.285156-2.179687 2.9375-2.921876 2.953125-7.667969.03125-10.605469zm0 0"/><path d="m382.414062 439.140625c-2.929687-2.929687-7.679687-2.929687-10.605468 0-2.929688 2.929687-2.929688 7.679687 0 10.605469l.078125.082031c1.464843 1.460937 3.382812 2.195313 5.304687 2.195313 1.917969 0 3.835938-.730469 5.300782-2.195313 2.929687-2.929687 2.929687-7.679687 0-10.605469zm0 0"/><path d="m408.054688 109.769531c2.929687-2.925781 2.929687-7.675781 0-10.605469-2.929688-2.925781-7.675782-2.925781-10.605469 0l-41.503907 41.507813c-2.929687 2.925781-2.929687 7.675781 0 10.605469 1.460938 1.460937 3.382813 2.195312 5.300782 2.195312 1.917968 0 3.839844-.730468 5.304687-2.195312zm0 0"/><path d="m348.660156 184.726562-25.984375 25.984376c-2.929687 2.929687-2.929687 7.675781 0 10.605468 1.464844 1.464844 3.382813 2.195313 5.304688 2.195313 1.917969 0 3.835937-.730469 5.300781-2.195313l25.984375-25.984375c2.929687-2.929687 2.929687-7.675781 0-10.605469-2.929687-2.925781-7.675781-2.925781-10.605469 0zm0 0"/><path d="m420.40625 379.390625c-4.125 0-7.480469 3.332031-7.5 7.460937l-.011719 2.617188c-.019531 4.140625 3.320313 7.515625 7.460938 7.535156h.039062c4.125 0 7.480469-3.332031 7.5-7.460937l.011719-2.617188c.019531-4.140625-3.320312-7.515625-7.460938-7.535156-.015624 0-.027343 0-.039062 0zm0 0"/><path d="m420.359375 406.023438c-.011719 0-.023437 0-.035156 0-4.125 0-7.480469 3.335937-7.5 7.464843l-.011719 2.617188c-.019531 4.144531 3.324219 7.515625 7.464844 7.535156h.035156c4.125 0 7.480469-3.335937 7.5-7.464844l.011719-2.617187c.019531-4.140625-3.324219-7.515625-7.464844-7.535156zm0 0"/><path d="m435.023438 394.0625-2.617188-.011719c-4.113281-.042969-7.515625 3.320313-7.539062 7.460938-.019532 4.140625 3.324218 7.515625 7.464843 7.535156l2.617188.015625h.039062c4.121094 0 7.476563-3.335938 7.496094-7.464844.019531-4.140625-3.320313-7.515625-7.460937-7.535156zm0 0"/><path d="m415.847656 401.515625c.019532-4.140625-3.320312-7.515625-7.464844-7.535156l-2.613281-.011719c-.015625 0-.027343 0-.039062 0-4.125 0-7.476563 3.335938-7.496094 7.464844-.019531 4.140625 3.320313 7.515625 7.464844 7.535156l2.617187.011719h.035156c4.125 0 7.480469-3.335938 7.496094-7.464844zm0 0"/><path d="m467.769531 412.808594-.011719 2.617187c-.019531 4.140625 3.320313 7.515625 7.460938 7.535157h.039062c4.125 0 7.476563-3.335938 7.496094-7.464844l.011719-2.617188c.019531-4.140625-3.320313-7.515625-7.464844-7.535156-4.113281-.050781-7.511719 3.324219-7.53125 7.464844zm0 0"/><path d="m475.222656 431.980469c-.011718 0-.023437 0-.039062 0-4.125 0-7.476563 3.335937-7.496094 7.460937l-.015625 2.617188c-.019531 4.144531 3.320313 7.519531 7.464844 7.539062h.035156c4.125 0 7.480469-3.335937 7.5-7.464844l.011719-2.617187c.023437-4.140625-3.320313-7.515625-7.460938-7.535156zm0 0"/><path d="m489.882812 420.019531-2.617187-.015625c-.011719 0-.023437 0-.039063 0-4.125 0-7.476562 3.335938-7.496093 7.464844-.019531 4.140625 3.320312 7.515625 7.460937 7.535156l2.617188.011719h.039062c4.125 0 7.476563-3.332031 7.496094-7.460937.023438-4.140626-3.320312-7.515626-7.460938-7.535157zm0 0"/><path d="m470.710938 427.472656c.019531-4.144531-3.320313-7.515625-7.460938-7.539062l-2.617188-.011719c-.015624 0-.027343 0-.039062 0-4.125 0-7.480469 3.335937-7.5 7.464844-.019531 4.140625 3.320312 7.515625 7.464844 7.535156l2.617187.011719h.035157c4.125 0 7.480468-3.332032 7.5-7.460938zm0 0"/><path d="m298.238281 57.71875h.039063c4.125 0 7.476562-3.335938 7.496094-7.464844l.011718-2.617187c.019532-4.140625-3.320312-7.515625-7.464844-7.535157-.011718 0-.023437 0-.035156 0-4.125 0-7.476562 3.335938-7.5 7.464844l-.011718 2.617188c-.015626 4.144531 3.324218 7.515625 7.464843 7.535156zm0 0"/><path d="m298.242188 66.738281c-.011719 0-.027344 0-.039063 0-4.125 0-7.476563 3.335938-7.5 7.464844l-.011719 2.617187c-.019531 4.140626 3.320313 7.515626 7.464844 7.535157h.035156c4.125 0 7.480469-3.335938 7.5-7.464844l.011719-2.613281c.019531-4.144532-3.320313-7.519532-7.460937-7.539063zm0 0"/><path d="m302.75 62.226562c-.019531 4.140626 3.320312 7.515626 7.460938 7.539063l2.617187.011719h.039063c4.125 0 7.476562-3.335938 7.5-7.464844.019531-4.140625-3.324219-7.515625-7.464844-7.535156l-2.617188-.011719c-.011718 0-.023437 0-.035156 0-4.125 0-7.480469 3.332031-7.5 7.460937zm0 0"/><path d="m283.578125 69.683594 2.617187.011718h.035157c4.125 0 7.476562-3.335937 7.5-7.464843.015625-4.144531-3.324219-7.515625-7.464844-7.535157l-2.617187-.011718c-.011719 0-.023438 0-.039063 0-4.121094 0-7.476563 3.332031-7.496094 7.464844-.019531 4.140624 3.320313 7.515624 7.464844 7.535156zm0 0"/><path d="m79.917969 72.347656h.035156c4.125 0 7.480469-3.335937 7.5-7.464844l.011719-2.617187c.019531-4.144531-3.324219-7.515625-7.464844-7.535156-.011719 0-.023438 0-.035156 0-4.125 0-7.480469 3.332031-7.5 7.464843l-.011719 2.617188c-.019531 4.140625 3.324219 7.515625 7.464844 7.535156zm0 0"/><path d="m79.871094 98.980469c4.125 0 7.480468-3.332031 7.5-7.460938l.011718-2.617187c.019532-4.140625-3.320312-7.515625-7.460937-7.535156-.015625 0-.027344 0-.039063 0-4.125 0-7.480468 3.332031-7.5 7.460937l-.011718 2.617187c-.019532 4.140626 3.320312 7.515626 7.460937 7.535157zm0 0"/><path d="m84.429688 76.855469c-.019532 4.140625 3.320312 7.515625 7.460937 7.535156l2.617187.011719h.039063c4.125 0 7.476563-3.332032 7.496094-7.460938.019531-4.144531-3.320313-7.515625-7.460938-7.539062l-2.617187-.011719c-.011719 0-.023438 0-.039063 0-4.125 0-7.476562 3.335937-7.496093 7.464844zm0 0"/><path d="m65.253906 84.308594 2.617188.011718h.039062c4.125 0 7.476563-3.332031 7.5-7.460937.019532-4.144531-3.324218-7.515625-7.464844-7.539063l-2.617187-.011718c-.011719 0-.023437 0-.035156 0-4.125 0-7.480469 3.335937-7.5 7.464844-.019531 4.140624 3.320312 7.515624 7.460937 7.535156zm0 0"/></svg>