<svg height="511pt" viewBox="-22 1 511 511.99937" width="511pt" xmlns="http://www.w3.org/2000/svg"><path d="m22.09375 393.492188c.628906.164062 1.265625.242187 1.886719.242187 3.335937 0 6.378906-2.242187 7.253906-5.617187l6.453125-24.839844 45.023438-39.671875 29.835937 11.792969c3.851563 1.523437 8.210937-.363282 9.734375-4.214844 1.519531-3.855469-.367188-8.210938-4.21875-9.734375l-23.484375-9.28125 64.09375-64.089844c2.929687-2.929687 2.929687-7.679687 0-10.605469-2.929687-2.929687-7.679687-2.929687-10.605469 0l-72.003906 72-50.015625 44.070313c-1.121094.988281-1.925781 2.292969-2.300781 3.742187l-7.027344 27.0625c-1.042969 4.007813 1.363281 8.101563 5.375 9.144532zm0 0"/><path d="m105.980469 444.050781c1.917969 0 3.835937-.734375 5.300781-2.199219l25.882812-25.882812c1.40625-1.40625 2.199219-3.3125 2.199219-5.300781v-24.113281c0-4.140626-3.359375-7.5-7.5-7.5-4.144531 0-7.5 3.359374-7.5 7.5v21.007812l-23.6875 23.683594c-2.929687 2.929687-2.929687 7.679687 0 10.609375 1.464844 1.460937 3.382813 2.195312 5.304688 2.195312zm0 0"/><path d="m371.738281 249.640625c2.929688-2.929687 2.929688-7.679687 0-10.605469-2.929687-2.929687-7.675781-2.929687-10.605469 0l-180.324218 180.324219v-68.011719c0-3.078125-1.882813-5.84375-4.742188-6.976562l-27.417968-10.832032c-3.851563-1.523437-8.207032.363282-9.730469 4.214844-1.523438 3.851563.367187 8.210938 4.21875 9.734375l22.671875 8.960938v77.910156l-43.136719 43.136719h-74.3125l-32.019531-32.019532 6.695312-25.78125c1.039063-4.007812-1.367187-8.101562-5.375-9.144531-4.007812-1.039062-8.101562 1.363281-9.144531 5.375l-7.773437 29.933594c-.6679692 2.574219.074218 5.308594 1.953124 7.1875l37.25 37.25c1.40625 1.40625 3.316407 2.195313 5.304688 2.195313h80.523438c1.988281 0 3.898437-.789063 5.304687-2.195313zm0 0"/><path d="m275.132812 254.929688-62.84375 62.84375c-2.925781 2.925781-2.925781 7.675781 0 10.605468 1.464844 1.464844 3.386719 2.195313 5.304688 2.195313s3.839844-.730469 5.304688-2.195313l62.839843-62.84375c2.929688-2.929687 2.929688-7.679687 0-10.605468-2.925781-2.929688-7.675781-2.929688-10.605469 0zm0 0"/><path d="m214.339844 439.160156-60.039063 60.035156c-2.929687 2.929688-2.929687 7.679688 0 10.605469 1.464844 1.464844 3.386719 2.199219 5.304688 2.199219s3.839843-.734375 5.304687-2.199219l60.035156-60.035156c2.929688-2.929687 2.929688-7.675781 0-10.605469-2.929687-2.929687-7.679687-2.929687-10.605468 0zm0 0"/><path d="m180.171875 142.300781c-1.125.992188-1.925781 2.292969-2.300781 3.742188l-11.828125 45.542969c-.667969 2.570312.074219 5.308593 1.953125 7.1875l19.152344 19.152343c1.40625 1.40625 3.316406 2.195313 5.304687 2.195313h41.398437c1.992188 0 3.898438-.789063 5.304688-2.195313l94.488281-94.492187c2.929688-2.929688 2.929688-7.675782 0-10.605469-2.925781-2.929687-7.675781-2.929687-10.605469 0l-57.25 57.25v-26.167969c0-3.078125-1.878906-5.84375-4.742187-6.976562l-36.730469-14.515625 88.746094-88.746094c2.929688-2.929687 2.929688-7.679687 0-10.609375-2.929688-2.925781-7.679688-2.925781-10.605469 0l-96.65625 96.660156zm70.621094 42.777344-20.046875 20.042969h-35.1875l-13.917969-13.917969 10.167969-39.164063 20.640625-18.183593 38.339843 15.152343v36.070313zm0 0"/><path d="m317.171875 168.230469c-2.929687-2.929688-7.679687-2.929688-10.605469 0l-32.3125 32.308593c-2.929687 2.929688-2.929687 7.679688 0 10.605469 1.464844 1.464844 3.386719 2.199219 5.304688 2.199219 1.917968 0 3.839844-.734375 5.300781-2.199219l32.3125-32.308593c2.929687-2.929688 2.929687-7.679688 0-10.605469zm0 0"/><path d="m465.195312 330.257812c-2.929687-2.929687-7.675781-2.929687-10.605468 0l-102.640625 102.636719v-26.167969c0-3.078124-1.878907-5.84375-4.742188-6.976562l-36.730469-14.515625 44.644532-44.644531c2.929687-2.925782 2.929687-7.675782 0-10.605469-2.929688-2.929687-7.679688-2.929687-10.609375 0l-52.550781 52.554687-25.628907 22.582032c-1.125.992187-1.925781 2.292968-2.300781 3.742187l-1.824219 7.015625c-1.039062 4.007813 1.363281 8.105469 5.375 9.144532 4.007813 1.039062 8.101563-1.363282 9.144531-5.375l1.246094-4.789063 20.636719-18.1875 38.34375 15.15625v36.066406l-20.042969 20.042969h-35.1875l-13.921875-13.917969.816407-3.148437c1.042968-4.007813-1.363282-8.101563-5.371094-9.144532-4.007813-1.039062-8.105469 1.363282-9.148438 5.375l-1.894531 7.300782c-.667969 2.574218.078125 5.308594 1.957031 7.1875l19.152344 19.152344c1.40625 1.40625 3.3125 2.199218 5.300781 2.199218h41.402344c1.988281 0 3.894531-.792968 5.300781-2.199218l139.882813-139.878907c2.925781-2.929687 2.925781-7.679687-.003907-10.605469zm0 0"/><path d="m392.722656 431.046875-32.3125 32.308594c-2.925781 2.929687-2.925781 7.679687 0 10.609375 1.464844 1.464844 3.386719 2.195312 5.304688 2.195312 1.917968 0 3.839844-.730468 5.304687-2.195312l32.308594-32.3125c2.929687-2.925782 2.929687-7.675782 0-10.605469-2.925781-2.929687-7.675781-2.929687-10.605469 0zm0 0"/><path d="m67.339844 245.167969c6.507812 0 13.019531-2.480469 17.972656-7.433594l18.53125-18.53125c9.90625-9.90625 9.90625-26.03125 0-35.941406-9.910156-9.910157-26.035156-9.910157-35.945312 0l-18.527344 18.53125c-4.800782 4.796875-7.445313 11.179687-7.445313 17.96875 0 6.789062 2.644531 13.171875 7.445313 17.972656 4.953125 4.953125 11.460937 7.433594 17.96875 7.433594zm-7.363282-32.769531 18.527344-18.53125c2.03125-2.027344 4.699219-3.042969 7.367188-3.042969 2.667968 0 5.332031 1.015625 7.363281 3.042969 4.0625 4.0625 4.0625 10.671874 0 14.730468l-18.527344 18.53125c-4.0625 4.058594-10.671875 4.058594-14.730469 0-1.96875-1.96875-3.050781-4.582031-3.050781-7.367187 0-2.78125 1.082031-5.394531 3.050781-7.363281zm0 0"/><path d="m389.441406 314.570312c4.953125 4.957032 11.460938 7.433594 17.96875 7.433594 6.507813 0 13.019532-2.476562 17.972656-7.433594l18.53125-18.527343c9.910157-9.910157 9.910157-26.035157 0-35.945313-9.910156-9.90625-26.035156-9.90625-35.941406 0l-18.53125 18.53125c-9.910156 9.910156-9.910156 26.03125 0 35.941406zm10.605469-25.335937 18.53125-18.527344c2.027344-2.03125 4.695313-3.046875 7.363281-3.046875 2.667969 0 5.335938 1.015625 7.363282 3.046875 4.0625 4.058594 4.0625 10.667969 0 14.726563l-18.527344 18.53125c-4.0625 4.058594-10.667969 4.0625-14.730469 0-4.058594-4.0625-4.058594-10.667969 0-14.730469zm0 0"/><path d="m188.976562 69.347656c6.789063 0 13.171876-2.644531 17.972657-7.445312l18.527343-18.527344c9.910157-9.910156 9.910157-26.035156 0-35.945312-9.910156-9.90625-26.03125-9.90625-35.941406 0l-18.53125 18.53125c-9.910156 9.910156-9.910156 26.035156 0 35.941406 4.800782 4.800781 11.183594 7.445312 17.972656 7.445312zm-7.367187-32.78125 18.53125-18.527344c2.03125-2.03125 4.699219-3.046874 7.363281-3.046874 2.667969 0 5.335938 1.015624 7.367188 3.046874 4.058594 4.0625 4.058594 10.667969 0 14.730469l-18.53125 18.527344c-1.96875 1.96875-4.582032 3.050781-7.363282 3.050781s-5.398437-1.082031-7.367187-3.050781c-4.058594-4.058594-4.058594-10.667969 0-14.730469zm0 0"/><path d="m233.859375 176.40625h.105469.035156c4.125 0 7.480469-3.335938 7.5-7.464844.019531-4.144531-3.324219-7.515625-7.464844-7.535156h-.105468c-.011719 0-.023438 0-.035157 0-4.125 0-7.480469 3.332031-7.5 7.464844-.019531 4.140625 3.324219 7.515625 7.464844 7.535156zm0 0"/><path d="m76.691406 352.890625h-.101562c-.011719 0-.027344 0-.039063 0-4.125 0-7.476562 3.332031-7.496093 7.464844-.023438 4.140625 3.320312 7.515625 7.464843 7.535156h.101563.039062c4.125 0 7.476563-3.335937 7.496094-7.464844.019531-4.140625-3.320312-7.515625-7.464844-7.535156zm0 0"/><path d="m106.816406 357.730469c0-4.140625-3.355468-7.5-7.5-7.5h-.101562c-4.144532 0-7.5 3.359375-7.5 7.5 0 4.144531 3.355468 7.5 7.5 7.5h.101562c4.144532 0 7.5-3.355469 7.5-7.5zm0 0"/><path d="m210.917969 170.554688c-.011719 0-.023438 0-.035157 0-4.125 0-7.480468 3.335937-7.5 7.46875-.019531 4.140624 3.324219 7.515624 7.464844 7.535156h.105469.035156c4.125 0 7.480469-3.335938 7.5-7.46875.019531-4.140625-3.324219-7.515625-7.464843-7.535156zm0 0"/><path d="m159.609375 98.144531h.035156c4.125 0 7.480469-3.335937 7.5-7.464843l.015625-2.886719c.019532-4.144531-3.324218-7.519531-7.464844-7.539063-.011718 0-.023437 0-.039062 0-4.125 0-7.476562 3.335938-7.5 7.464844l-.011719 2.886719c-.019531 4.144531 3.320313 7.519531 7.464844 7.539062zm0 0"/><path d="m159.605469 109.640625c-4.171875-.003906-7.515625 3.324219-7.539063 7.464844l-.011718 2.886719c-.023438 4.140624 3.320312 7.515624 7.460937 7.539062h.039063c4.125 0 7.480468-3.335938 7.5-7.464844l.011718-2.886718c.019532-4.144532-3.320312-7.515626-7.460937-7.539063zm0 0"/><path d="m172.820312 111.429688 2.886719.015624h.035157c4.125 0 7.480468-3.335937 7.5-7.464843.019531-4.140625-3.320313-7.515625-7.464844-7.535157l-2.886719-.015624c-.011719 0-.023437 0-.035156 0-4.125 0-7.480469 3.335937-7.5 7.464843-.019531 4.144531 3.320312 7.515625 7.464843 7.535157zm0 0"/><path d="m143.433594 111.339844 2.886718.015625h.035157c4.125 0 7.480469-3.335938 7.5-7.464844.019531-4.140625-3.320313-7.515625-7.464844-7.535156l-2.886719-.015625c-.011718 0-.023437 0-.035156 0-4.125 0-7.480469 3.335937-7.5 7.464844-.019531 4.140624 3.320312 7.515624 7.464844 7.535156zm0 0"/><path d="m439.242188 408.464844h.035156c4.125 0 7.480468-3.332032 7.5-7.464844l.011718-2.886719c.023438-4.140625-3.320312-7.515625-7.460937-7.535156-4.183594-.023437-7.515625 3.320313-7.539063 7.464844l-.011718 2.886719c-.019532 4.140624 3.320312 7.515624 7.464844 7.535156zm0 0"/><path d="m439.234375 419.964844c-.011719 0-.023437 0-.035156 0-4.125 0-7.480469 3.332031-7.5 7.464844l-.015625 2.886718c-.019532 4.140625 3.324218 7.515625 7.464844 7.535156h.039062c4.125 0 7.476562-3.335937 7.496094-7.464843l.015625-2.886719c.019531-4.140625-3.324219-7.515625-7.464844-7.535156zm0 0"/><path d="m455.410156 406.765625-2.886718-.015625c-4.140626.023438-7.515626 3.324219-7.535157 7.464844-.019531 4.144531 3.320313 7.515625 7.464844 7.539062l2.886719.011719h.035156c4.125 0 7.480469-3.332031 7.5-7.464844.019531-4.140625-3.320312-7.515625-7.464844-7.535156zm0 0"/><path d="m426.023438 406.675781-2.886719-.015625c-.011719 0-.023438 0-.039063 0-4.125 0-7.476562 3.335938-7.496094 7.464844-.019531 4.140625 3.320313 7.515625 7.460938 7.539062l2.886719.011719h.039062c4.125 0 7.480469-3.332031 7.5-7.460937.019531-4.144532-3.320312-7.519532-7.464843-7.539063zm0 0"/><path d="m361.960938 153.097656h.039062c4.125 0 7.476562-3.335937 7.5-7.464844l.011719-2.886718c.019531-4.140625-3.320313-7.515625-7.464844-7.535156-4.1875-.007813-7.515625 3.320312-7.535156 7.460937l-.015625 2.890625c-.019532 4.140625 3.324218 7.515625 7.464844 7.535156zm0 0"/><path d="m361.957031 164.597656c-4.113281-.0625-7.515625 3.320313-7.539062 7.460938l-.011719 2.886718c-.019531 4.144532 3.320312 7.515626 7.460938 7.539063h.039062c4.125 0 7.480469-3.335937 7.5-7.464844l.015625-2.886719c.019531-4.140624-3.324219-7.515624-7.464844-7.535156zm0 0"/><path d="m375.171875 166.386719 2.886719.011719h.039062c4.125 0 7.480469-3.332032 7.5-7.464844.019532-4.140625-3.324218-7.515625-7.464844-7.535156l-2.886718-.011719c-.011719 0-.023438 0-.039063 0-4.125 0-7.476562 3.332031-7.496093 7.460937-.023438 4.144532 3.320312 7.519532 7.460937 7.539063zm0 0"/><path d="m345.785156 166.296875 2.886719.011719h.039063c4.125 0 7.480468-3.332032 7.5-7.464844.019531-4.140625-3.324219-7.515625-7.464844-7.535156l-2.886719-.015625c-.011719 0-.023437 0-.035156 0-4.125 0-7.480469 3.335937-7.5 7.464843-.023438 4.144532 3.320312 7.515626 7.460937 7.539063zm0 0"/></svg>