<svg height="512pt" viewBox="-13 0 512 512.00109" width="512pt" xmlns="http://www.w3.org/2000/svg"><path d="m43.355469 492.160156c-3.261719 0-6.5-1.023437-9.269531-3.035156-4.898438-3.558594-7.304688-9.476562-6.28125-15.445312l7.042968-41.070313c.046875-.257813-.039062-.519531-.226562-.703125l-29.839844-29.082031c-4.335938-4.226563-5.867188-10.433594-3.996094-16.191407 1.871094-5.757812 6.757813-9.875 12.75-10.746093l41.234375-5.992188c.257813-.039062.480469-.203125.597657-.4375l18.441406-37.363281c2.679687-5.429688 8.105468-8.804688 14.160156-8.804688 6.058594 0 11.484375 3.375 14.164062 8.804688 1.832032 3.710938.308594 8.210938-3.40625 10.042969-3.714843 1.832031-8.210937.308593-10.046874-3.40625-.070313-.144531-.214844-.441407-.710938-.441407-.492188 0-.636719.296876-.710938.441407l-18.4375 37.367187c-2.300781 4.664063-6.75 7.894532-11.890624 8.640625l-41.238282 5.992188c-.15625.023437-.488281.070312-.636718.539062-.152344.46875.085937.699219.199218.8125l29.839844 29.085938c3.722656 3.628906 5.417969 8.851562 4.539062 13.976562l-7.042968 41.070313c-.027344.15625-.082032.484375.316406.773437.398438.292969.691406.136719.832031.0625l36.882813-19.390625c4.605468-2.417968 10.097656-2.417968 14.699218 0l36.882813 19.390625c.140625.074219.433594.226563.832031-.0625.398438-.289062.34375-.617187.316406-.773437l-7.042968-41.070313c-.878906-5.125.816406-10.347656 4.539062-13.976562l29.839844-29.085938c.117188-.113281.355469-.34375.203125-.8125s-.480469-.515625-.640625-.539062l-41.238281-5.992188c-5.144531-.75-9.589844-3.976562-11.890625-8.640625l-4.488282-9.097656c-1.832031-3.714844-.308593-8.210938 3.40625-10.042969 3.714844-1.835937 8.210938-.308593 10.042969 3.40625l4.492188 9.09375c.113281.234375.339843.398438.597656.433594l41.234375 5.992187c5.992188.871094 10.878906 4.992188 12.75 10.75 1.871094 5.757813.339844 11.964844-3.996094 16.1875l-29.839844 29.085938c-.1875.183594-.273437.445312-.226562.703125l7.042969 41.070313c1.023437 5.96875-1.382813 11.886718-6.285157 15.445312-4.898437 3.558594-11.269531 4.019531-16.628906 1.203125l-36.882812-19.390625c-.230469-.121094-.507813-.121094-.738282 0l-36.882812 19.390625c-2.328125 1.226563-4.851562 1.832031-7.363281 1.832031zm0 0"/><path d="m48.425781 264.375c-2.886719 0-5.753906-.902344-8.203125-2.683594-4.339844-3.152344-6.472656-8.390625-5.566406-13.675781l5.417969-31.570313-22.9375-22.359374c-3.839844-3.742188-5.195313-9.234376-3.539063-14.332032s5.980469-8.746094 11.285156-9.515625l31.699219-4.605469 14.175781-28.722656c2.375-4.808594 7.179688-7.792968 12.539063-7.792968 5.363281 0 10.167969 2.984374 12.539063 7.792968l14.175781 28.722656 31.699219 4.605469c5.304687.769531 9.628906 4.417969 11.285156 9.515625 1.65625 5.101563.300781 10.589844-3.539063 14.332032l-22.9375 22.359374 5.414063 31.570313c.90625 5.285156-1.222656 10.523437-5.558594 13.675781-4.339844 3.148438-9.980469 3.558594-14.726562 1.0625l-28.351563-14.90625-28.351563 14.90625c-2.066406 1.085938-4.296874 1.621094-6.519531 1.621094zm34.871094-31.65625c2.234375 0 4.46875.535156 6.507813 1.605469l26.996093 14.195312-5.15625-30.066406c-.777343-4.539063.726563-9.164063 4.023438-12.375l21.84375-21.292969-30.1875-4.386718c-4.554688-.664063-8.492188-3.519532-10.527344-7.648438l-13.5-27.355469-13.5 27.355469c-2.039063 4.128906-5.972656 6.988281-10.527344 7.648438l-30.1875 4.386718 21.84375 21.289063c3.296875 3.214843 4.796875 7.839843 4.019531 12.378906l-5.15625 30.0625 27-14.195313c2.039063-1.066406 4.273438-1.601562 6.507813-1.601562zm56.253906-47.636719h.011719zm0 0"/><path d="m220.222656 512c-2.578125 0-5.136718-.808594-7.324218-2.394531-3.871094-2.816407-5.773438-7.492188-4.964844-12.207031l4.003906-23.351563-16.964844-16.535156c-3.425781-3.339844-4.632812-8.242188-3.15625-12.792969 1.480469-4.550781 5.335938-7.804688 10.074219-8.496094l23.445313-3.40625 10.484374-21.246094c2.117188-4.289062 6.40625-6.953124 11.191407-6.953124 4.785156 0 9.070312 2.664062 11.1875 6.957031l10.484375 21.242187 23.445312 3.410156c4.734375.6875 8.597656 3.941407 10.074219 8.492188s.269531 9.453125-3.15625 12.792969l-16.96875 16.539062 4.007813 23.347657c.808593 4.71875-1.09375 9.394531-4.964844 12.207031s-8.90625 3.175781-13.140625.949219l-20.972657-11.023438-20.96875 11.023438c-1.839843.96875-3.832031 1.445312-5.816406 1.445312zm26.789063-27.800781c1.996093 0 3.988281.480469 5.804687 1.433593l17.625 9.265626-3.367187-19.621094c-.691407-4.054688.648437-8.179688 3.589843-11.046875l14.257813-13.894531-19.703125-2.863282c-4.066406-.59375-7.578125-3.144531-9.394531-6.828125l-8.8125-17.851562-8.8125 17.851562c-1.816407 3.683594-5.328125 6.234375-9.394531 6.828125l-19.703126 2.863282 14.257813 13.894531c2.941406 2.867187 4.28125 6.996093 3.585937 11.042969l-3.363281 19.625 17.621094-9.265626c1.820313-.953124 3.8125-1.433593 5.808594-1.433593zm42.960937-33.128907h.011719zm-45.222656-32.859374v.003906zm0 0"/><path d="m359.199219 124.890625c-1.917969 0-3.839844-.730469-5.304688-2.199219-2.929687-2.925781-2.929687-7.675781 0-10.605468l109.894531-109.890626c2.929688-2.925781 7.675782-2.925781 10.605469 0 2.929688 2.929688 2.929688 7.679688 0 10.605469l-109.890625 109.894531c-1.464844 1.464844-3.386718 2.195313-5.304687 2.195313zm0 0"/><path d="m142.015625 342.074219c-1.917969 0-3.835937-.734375-5.300781-2.199219-2.929688-2.929688-2.929688-7.675781 0-10.605469l107.9375-107.9375c2.929687-2.929687 7.679687-2.929687 10.605468 0 2.929688 2.929688 2.929688 7.679688 0 10.605469l-107.9375 107.9375c-1.464843 1.464844-3.382812 2.199219-5.304687 2.199219zm0 0"/><path d="m182.4375 349.480469c-1.921875 0-3.839844-.734375-5.304688-2.199219-2.929687-2.929688-2.929687-7.675781 0-10.605469l48.988282-48.988281c2.929687-2.929688 7.679687-2.929688 10.605468 0 2.929688 2.929688 2.929688 7.679688 0 10.605469l-48.988281 48.988281c-1.464843 1.464844-3.382812 2.199219-5.300781 2.199219zm0 0"/><path d="m338.367188 312.984375c-1.917969 0-3.839844-.734375-5.304688-2.199219-2.929688-2.925781-2.929688-7.675781 0-10.605468l139.476562-139.472657c2.929688-2.929687 7.675782-2.929687 10.605469 0 2.929688 2.929688 2.929688 7.679688 0 10.605469l-139.472656 139.472656c-1.464844 1.464844-3.382813 2.199219-5.304687 2.199219zm0 0"/><path d="m277.230469 374.121094c-1.921875 0-3.839844-.734375-5.304688-2.199219-2.929687-2.925781-2.929687-7.675781 0-10.605469l35.828125-35.828125c2.933594-2.929687 7.679688-2.929687 10.609375 0 2.925781 2.929688 2.929688 7.675781 0 10.605469l-35.832031 35.828125c-1.460938 1.464844-3.382812 2.199219-5.300781 2.199219zm0 0"/><path d="m166.933594 218.082031c-1.917969 0-3.839844-.730469-5.300782-2.195312-2.929687-2.929688-2.929687-7.679688 0-10.609375l23.679688-23.679688c2.929688-2.929687 7.679688-2.929687 10.609375 0 2.925781 2.925782 2.925781 7.675782 0 10.605469l-23.683594 23.683594c-1.464843 1.460937-3.382812 2.195312-5.304687 2.195312zm0 0"/><path d="m264.210938 74.664062c-1.917969 0-3.839844-.734374-5.304688-2.199218-2.925781-2.925782-2.925781-7.675782 0-10.605469l33.386719-33.382813c2.929687-2.929687 7.679687-2.929687 10.605469 0 2.929687 2.929688 2.929687 7.679688 0 10.605469l-33.382813 33.382813c-1.464844 1.464844-3.382813 2.199218-5.304687 2.199218zm0 0"/><path d="m166.933594 171.941406c-1.917969 0-3.839844-.730468-5.300782-2.199218-2.929687-2.925782-2.929687-7.675782 0-10.605469l74.507813-74.507813c2.925781-2.925781 7.675781-2.925781 10.605469 0 2.929687 2.929688 2.929687 7.679688 0 10.609375l-74.507813 74.503907c-1.464843 1.464843-3.382812 2.199218-5.304687 2.199218zm0 0"/><path d="m146.1875 127.917969c-1.917969 0-3.839844-.730469-5.304688-2.195313-2.925781-2.929687-2.925781-7.679687 0-10.605468l34.828126-34.828126c2.929687-2.925781 7.675781-2.925781 10.605468 0 2.929688 2.929688 2.929688 7.679688 0 10.605469l-34.824218 34.828125c-1.464844 1.464844-3.386719 2.195313-5.304688 2.195313zm0 0"/><path d="m321.851562 208.992188c-1.890624 0-3.785156-.457032-5.539062-1.375l-17.972656-9.453126-17.976563 9.453126c-4.027343 2.117187-8.816406 1.769531-12.5-.902344-3.683593-2.675782-5.492187-7.125-4.722656-11.609375l3.433594-20.015625-14.542969-14.175782c-3.257812-3.179687-4.410156-7.839843-3.003906-12.167968s5.078125-7.425782 9.582031-8.078125l20.097656-2.921875 8.988281-18.210938c2.011719-4.082031 6.089844-6.617187 10.640626-6.617187 4.554687 0 8.632812 2.535156 10.648437 6.617187l8.988281 18.210938 20.09375 2.921875c4.503906.652343 8.175782 3.746093 9.582032 8.074219 1.40625 4.328124.257812 8.992187-3 12.167968l-14.542969 14.175782 3.429687 20.015624c.773438 4.488282-1.039062 8.933594-4.71875 11.609376-2.082031 1.511718-4.515625 2.28125-6.964844 2.28125zm-23.511718-26.234376c1.898437 0 3.796875.457032 5.523437 1.367188l13.816407 7.261719-2.636719-15.386719c-.664063-3.847656.613281-7.777344 3.410156-10.503906l11.179687-10.898438-15.445312-2.242187c-3.867188-.5625-7.207031-2.988281-8.9375-6.492188l-6.910156-14-6.910156 13.996094c-1.730469 3.507813-5.070313 5.933594-8.9375 6.496094l-15.445313 2.242187 11.179687 10.898438c2.796876 2.726562 4.074219 6.652344 3.410157 10.503906l-2.636719 15.386719 13.816406-7.265625c1.730469-.90625 3.625-1.363282 5.523438-1.363282zm20.359375-43.535156h.011719zm-23.164063-13.046875v.003907zm0 0"/><path d="m305.492188 409.710938c-1.921876 0-3.839844-.734376-5.304688-2.199219-2.929688-2.929688-2.929688-7.675781 0-10.605469l42.941406-42.941406c2.929688-2.929688 7.675782-2.929688 10.605469 0 2.929687 2.929687 2.929687 7.675781 0 10.605468l-42.941406 42.941407c-1.464844 1.464843-3.382813 2.199219-5.300781 2.199219zm0 0"/><path d="m321.1875 280.832031c-1.917969 0-3.839844-.734375-5.304688-2.199219-2.929687-2.929687-2.929687-7.675781 0-10.605468l17.179688-17.179688c2.929688-2.929687 7.679688-2.929687 10.609375 0 2.929687 2.929688 2.929687 7.679688 0 10.605469l-17.179687 17.179687c-1.464844 1.464844-3.386719 2.199219-5.304688 2.199219zm0 0"/><path d="m424.714844 93.09375c-1.917969 0-3.839844-.730469-5.304688-2.199219-2.929687-2.925781-2.929687-7.675781 0-10.605469l20.574219-20.574218c2.929687-2.925782 7.679687-2.925782 10.609375 0 2.925781 2.929687 2.925781 7.679687 0 10.609375l-20.574219 20.570312c-1.464843 1.46875-3.386719 2.199219-5.304687 2.199219zm0 0"/><path d="m102.511719 70.796875c-.011719 0-.023438 0-.035157 0-4.144531-.019531-7.484374-3.394531-7.464843-7.535156l.011719-2.617188c.019531-4.140625 3.367187-7.515625 7.535156-7.464843 4.140625.019531 7.484375 3.394531 7.464844 7.535156l-.011719 2.617187c-.019531 4.128907-3.375 7.464844-7.5 7.464844zm0 0"/><path d="m102.429688 97.433594c-.011719 0-.023438 0-.039063 0-4.140625-.019532-7.480469-3.394532-7.460937-7.539063l.011718-2.613281c.019532-4.128906 3.375-7.464844 7.5-7.464844h.039063c4.140625.019532 7.480469 3.394532 7.460937 7.535156l-.011718 2.617188c-.019532 4.128906-3.375 7.464844-7.5 7.464844zm0 0"/><path d="m117.105469 82.851562c-.015625 0-.027344 0-.039063 0l-2.617187-.011718c-4.140625-.019532-7.484375-3.390625-7.464844-7.535156.019531-4.128907 3.375-7.464844 7.5-7.464844h.035156l2.617188.011718c4.144531.023438 7.484375 3.394532 7.464843 7.535157-.019531 4.132812-3.375 7.464843-7.496093 7.464843zm0 0"/><path d="m90.464844 82.769531c-.011719 0-.023438 0-.035156 0l-2.617188-.011719c-4.144531-.019531-7.484375-3.394531-7.464844-7.535156.019532-4.128906 3.375-7.464844 7.5-7.464844h.039063l2.617187.015626c4.140625.019531 7.480469 3.394531 7.460938 7.535156-.019532 4.128906-3.375 7.460937-7.5 7.460937zm0 0"/><path d="m22.164062 303.769531c-.011718 0-.023437 0-.039062 0-4.140625-.019531-7.480469-3.394531-7.460938-7.539062l.011719-2.617188c.023438-4.140625 3.429688-7.5 7.539063-7.460937 4.140625.019531 7.480468 3.394531 7.460937 7.535156l-.011719 2.617188c-.019531 4.128906-3.375 7.464843-7.5 7.464843zm0 0"/><path d="m22.082031 330.40625c-.011719 0-.023437 0-.035156 0-4.140625-.019531-7.484375-3.394531-7.464844-7.535156l.011719-2.617188c.019531-4.140625 3.371094-7.472656 7.535156-7.464844 4.140625.019532 7.484375 3.390626 7.464844 7.535157l-.011719 2.617187c-.019531 4.128906-3.375 7.464844-7.5 7.464844zm0 0"/><path d="m36.757812 315.824219c-.011718 0-.023437 0-.039062 0l-2.617188-.011719c-4.140624-.019531-7.480468-3.394531-7.460937-7.535156.019531-4.144532 3.398437-7.523438 7.535156-7.464844l2.617188.011719c4.144531.019531 7.484375 3.394531 7.464843 7.539062-.019531 4.128907-3.375 7.460938-7.5 7.460938zm0 0"/><path d="m10.121094 315.742188c-.011719 0-.023438 0-.039063 0l-2.613281-.011719c-4.144531-.019531-7.484375-3.390625-7.46484375-7.535157.01953125-4.140624 3.39843775-7.496093 7.53124975-7.464843l2.617188.011719c4.144531.019531 7.484375 3.394531 7.464844 7.535156-.015626 4.132812-3.371094 7.464844-7.496094 7.464844zm0 0"/><path d="m397.847656 393.570312c-.011718 0-.023437 0-.035156 0-4.140625-.019531-7.484375-3.394531-7.464844-7.535156l.011719-2.617187c.019531-4.128907 3.371094-7.464844 7.5-7.464844h.03125c4.144531.019531 7.484375 3.390625 7.46875 7.53125l-.011719 2.617187c-.019531 4.132813-3.375 7.46875-7.5 7.46875zm0 0"/><path d="m397.765625 420.207031c-.015625 0-.023437 0-.039063 0-4.140624-.019531-7.480468-3.394531-7.464843-7.539062l.015625-2.617188c.019531-4.128906 3.375-7.460937 7.5-7.460937h.035156c4.144531.019531 7.484375 3.394531 7.464844 7.535156l-.015625 2.617188c-.019531 4.128906-3.371094 7.464843-7.496094 7.464843zm0 0"/><path d="m412.4375 405.625c-.011719 0-.019531 0-.035156 0l-2.617188-.011719c-4.140625-.019531-7.484375-3.390625-7.464844-7.535156.019532-4.128906 3.375-7.464844 7.5-7.464844h.035157l2.617187.011719c4.144532.019531 7.484375 3.394531 7.464844 7.535156-.019531 4.132813-3.375 7.464844-7.5 7.464844zm0 0"/><path d="m385.804688 405.542969c-.015626 0-.023438 0-.039063 0l-2.617187-.011719c-4.140626-.019531-7.480469-3.394531-7.464844-7.535156.023437-4.132813 3.375-7.464844 7.5-7.464844h.039062l2.617188.011719c4.140625.019531 7.480468 3.394531 7.460937 7.539062-.019531 4.128907-3.371093 7.460938-7.496093 7.460938zm0 0"/></svg>