<svg height="511pt" viewBox="0 -3 511.99929 511" width="511pt" xmlns="http://www.w3.org/2000/svg"><path d="m451.574219 435.445312c7.941406-8.816406 5.417969-24.578124-7.886719-49.464843-5.378906-10.0625-12.511719-21.519531-21.207031-34.085938 4.601562-8.617187-.398438-23.316406-15.710938-46.683593-7.289062-11.128907-16.828125-23.949219-27.996093-37.71875l45.910156-45.910157c2.929687-2.929687 2.929687-7.679687 0-10.609375-2.929688-2.929687-7.679688-2.929687-10.609375 0l-44.914063 44.914063c-6.769531-8.015625-14.011718-16.269531-21.621094-24.636719 7.8125-10.675781 13.488282-22.558594 15.925782-34.558594 4.203125-20.675781-1.90625-38.765625-16.335938-48.378906-3.449218-2.296875-8.105468-1.367188-10.402344 2.082031-2.296874 3.445313-1.363281 8.101563 2.082032 10.402344 9.316406 6.207031 12.945312 18.203125 9.957031 32.910156-5.496094 27.054688-31.816406 54.433594-59.066406 61.730469-6.59375-6.273438-13.214844-12.71875-19.816407-19.320312-6.601562-6.601563-13.050781-13.226563-19.324218-19.820313 7.296875-27.246094 34.679687-53.570313 61.730468-59.066406 4.058594-.824219 6.683594-4.78125 5.855469-8.84375-.824219-4.058594-4.785156-6.679688-8.84375-5.855469-11.996093 2.4375-23.878906 8.113281-34.554687 15.925781-3.746094-3.402343-7.464844-6.734375-11.152344-9.980469l128.203125-128.210937c2.929687-2.929687 2.929687-7.679687 0-10.605469-2.929687-2.929687-7.675781-2.929687-10.605469 0l-128.964844 128.964844c-4.988281-4.242188-9.882812-8.304688-14.664062-12.167969l24.152344-24.148437c2.925781-2.929688 2.925781-7.679688 0-10.605469-2.933594-2.929687-7.679688-2.929687-10.609375 0l-25.402344 25.398437c-8.953125-6.886718-17.363281-12.929687-24.976563-17.914062-23.332031-15.28125-38.011718-20.269531-46.621093-15.675781-19.28125-13.339844-35.695313-22.839844-48.804688-28.246094-16.449219-6.777344-27.816406-7.042969-34.734375-.835937-30.550781-13.679688-51.722656-14.929688-62.96875-3.683594-12.121094 12.121094-9.730468 35.765625 7.101563 70.28125 14.921875 30.59375 40.574219 68.679687 74.183593 110.136718 1.484376 1.828126 3.648438 2.777344 5.832032 2.777344 1.660156 0 3.332031-.550781 4.722656-1.675781 3.214844-2.609375 3.710938-7.332031 1.101562-10.550781-32.90625-40.585938-57.925781-77.675782-72.355468-107.261719-12.945313-26.550781-16.675782-46.398437-9.976563-53.101563 6.117188-6.117187 23.390625-3.5 46.625 6.941407-.097656 5.996093 1.652344 13.34375 5.285157 22.15625 5.65625 13.722656 15.789062 31.050781 30.121093 51.507812 29.070313 41.492188 72.492188 91.753907 122.265625 141.53125 14.25 14.246094 28.734375 28.164063 43.0625 41.367188 1.441406 1.332031 3.261719 1.988281 5.082032 1.988281 2.019531 0 4.039062-.816406 5.515624-2.417969 2.808594-3.046875 2.613282-7.792969-.429687-10.601562-14.179687-13.0625-28.519531-26.839844-42.621094-40.941407-49.179687-49.179687-92.003906-98.734374-120.585937-139.53125-13.507813-19.28125-23.375-36.09375-28.539063-48.617187-5.40625-13.121094-4.355469-18.230469-3.492187-19.089844.863281-.863281 5.96875-1.914062 19.089844 3.492188 12.296874 5.070312 28.734374 14.683593 47.578124 27.816406.214844 6.332031 3.035157 12.695313 4.292969 15.527344 4.214844 9.488281 11.542969 21.511719 21.78125 35.734375 20.671875 28.714844 51.226563 63.695312 86.035157 98.503906 34.808593 34.808594 69.792968 65.363281 98.503906 86.035156 14.222656 10.238282 26.246094 17.566406 35.734375 21.78125 2.832031 1.257813 9.191406 4.074219 15.519531 4.289063 8.875 12.730469 16.089844 24.246093 21.425781 34.226562 0 0 0 0 .003907.003907 12.039062 22.515624 11.148437 31.183593 9.886718 32.445312-1.617187 1.621094-13.128906 2.097656-43.695312-16.308594-26.804688-16.140625-60.59375-41.894531-97.707032-74.480468-3.113281-2.734376-7.855468-2.421876-10.585937.6875-2.734375 3.113281-2.425781 7.855468.6875 10.585937 37.773437 33.164063 72.308594 59.464844 99.867187 76.058594 21.324219 12.839843 37.148438 19.164062 48.308594 19.164062.167969 0 .320313-.015625.488282-.015625.152343.339844.316406.6875.464843 1.023438 14.441407 32.527344 9.332031 42.707031 6.464844 45.574218-1.996094 1.996094-5.492187 3.191407-10.605469 3.191407-13.757812 0-39.210937-8.667969-78.625-33.671875-32.574218-20.671875-69.152344-48.828125-106.710937-81.953125l12.585937-12.582031c2.925782-2.929688 2.925782-7.679688 0-10.609376-2.933594-2.929687-7.679687-2.929687-10.609375 0l-13.183593 13.183594c-16.496094-14.90625-33.121094-30.714844-49.625-47.21875-23.125-23.125-45.074219-46.691406-65.242188-70.039062-2.707031-3.136719-7.441406-3.484375-10.578125-.777344-3.136719 2.710938-3.480469 7.445312-.773437 10.582031 5.148437 5.960938 10.410156 11.933594 15.777343 17.910157l-80.320312 80.316406c-2.929688 2.929687-2.929688 7.679687 0 10.605468 1.464843 1.464844 3.386719 2.199219 5.304687 2.199219 1.917969 0 3.839844-.730469 5.304688-2.199219l79.816406-79.816406c12.875 14.007813 26.273438 27.996094 40.101562 41.824219 16.488282 16.488281 33.109376 32.300781 49.617188 47.234375l-58.179688 58.175781c-2.929687 2.929688-2.929687 7.679688 0 10.609375 1.464844 1.464844 3.386719 2.195313 5.304688 2.195313s3.839844-.730469 5.304688-2.195313l58.769531-58.773437c38.410156 33.925781 75.890625 62.792969 109.300781 83.992187 37.890625 24.039063 66.851562 36.101563 86.5625 36.101563 9.074219 0 16.191406-2.558594 21.316406-7.679688 11.15625-11.15625 10.027344-32.105469-3.363281-62.265625-.101563-.222656-.214844-.457031-.316406-.683594zm-188.398438-267.238281c-10.570312 10.238281-19.148437 22.597657-24.277343 35.632813-5-5.429688-9.859376-10.820313-14.535157-16.136719l28.609375-28.609375c3.363282 2.960938 6.769532 6 10.203125 9.113281zm-101.003906-71.300781c3.152344.308594 12.589844 2.699219 34.671875 17.726562 13.277344 9.03125 28.449219 20.789063 44.746094 34.625l-27.066406 27.066407c-9.535157-11.234375-18.160157-22.027344-25.597657-32.066407-23.164062-31.265624-26.394531-43.644531-26.753906-47.351562zm199.566406 220.160156c-18.027343-13.351562-38.476562-30.539062-59.585937-49.972656 13.039062-5.128906 25.394531-13.703125 35.636718-24.277344 7.34375 8.109375 14.28125 16.035156 20.742188 23.699219l-10.027344 10.027344c-2.925781 2.929687-2.925781 7.679687 0 10.605469 1.464844 1.464843 3.386719 2.199218 5.304688 2.199218 1.921875 0 3.839844-.734375 5.304687-2.199218l9.007813-9.007813c8.953125 11.089844 16.773437 21.503906 23.203125 30.953125 15.0625 22.125 17.457031 31.574219 17.765625 34.730469-3.710938-.363281-16.089844-3.59375-47.351563-26.757813zm0 0"/><path d="m509.804688 81.828125c-2.933594-2.929687-7.679688-2.929687-10.609376 0l-125.441406 125.441406c-2.929687 2.929688-2.929687 7.679688 0 10.605469 1.464844 1.464844 3.386719 2.199219 5.304688 2.199219 1.917968 0 3.839844-.730469 5.304687-2.199219l125.441407-125.4375c2.925781-2.929688 2.925781-7.679688 0-10.609375zm0 0"/><path d="m351.195312 83.261719-15.453124 15.453125c-2.929688 2.929687-2.929688 7.679687 0 10.609375 1.464843 1.464843 3.382812 2.195312 5.304687 2.195312 1.917969 0 3.839844-.730469 5.304687-2.195312l15.449219-15.453125c2.933594-2.929688 2.933594-7.679688.003907-10.609375-2.929688-2.925781-7.679688-2.925781-10.609376 0zm0 0"/><path d="m300.195312 218.375h-.132812c-.011719 0-.019531 0-.027344 0-4.128906 0-7.484375 3.339844-7.5 7.472656-.015625 4.140625 3.328125 7.511719 7.472656 7.527344h.132813.03125c4.128906 0 7.484375-3.339844 7.5-7.472656.011719-4.144532-3.332031-7.511719-7.476563-7.527344zm0 0"/><path d="m300.390625 195.09375h-.132813c-.011718 0-.019531 0-.027343 0-4.128907 0-7.484375 3.339844-7.5 7.472656-.015625 4.144532 3.328125 7.515625 7.472656 7.527344h.132813.03125c4.128906 0 7.484374-3.339844 7.496093-7.472656.015625-4.140625-3.328125-7.511719-7.472656-7.527344zm0 0"/><path d="m123.777344 347.65625c-2.929688-2.929688-7.675782-2.929688-10.605469 0l-103.214844 103.214844c-2.929687 2.925781-2.929687 7.675781 0 10.605468 1.464844 1.464844 3.386719 2.195313 5.304688 2.195313 1.921875 0 3.839843-.730469 5.304687-2.195313l103.214844-103.214843c2.925781-2.925781 2.925781-7.675781-.003906-10.605469zm0 0"/><path d="m226.164062 415.128906-10.578124 10.578125c-2.929688 2.929688-2.929688 7.679688 0 10.605469 1.464843 1.464844 3.386718 2.199219 5.304687 2.199219s3.839844-.734375 5.304687-2.199219l10.578126-10.574219c2.929687-2.929687 2.929687-7.679687 0-10.609375-2.929688-2.929687-7.679688-2.929687-10.609376 0zm0 0"/><path d="m45.96875 322.226562 11.367188-11.367187c2.929687-2.929687 2.929687-7.679687 0-10.609375-2.929688-2.929688-7.679688-2.929688-10.609376 0l-11.367187 11.367188c-2.929687 2.929687-2.929687 7.679687 0 10.609374 1.464844 1.464844 3.386719 2.195313 5.304687 2.195313 1.917969 0 3.839844-.730469 5.304688-2.195313zm0 0"/><path d="m131.347656 96.070312h-.136718c-4.140626 0-7.5 3.359376-7.5 7.5 0 4.144532 3.359374 7.5 7.5 7.5h.136718c4.140625 0 7.5-3.355468 7.5-7.5 0-4.140624-3.359375-7.5-7.5-7.5zm0 0"/><path d="m358.238281 430.347656h.027344c4.132813 0 7.488281-3.339844 7.5-7.472656.015625-4.144531-3.328125-7.515625-7.472656-7.53125h-.132813c-.011718 0-.019531 0-.027344 0-4.128906 0-7.484374 3.34375-7.5 7.476562-.015624 4.140626 3.328126 7.511719 7.472657 7.527344zm0 0"/><path d="m130.089844 117.625h-.136719c-4.140625 0-7.5 3.359375-7.5 7.503906 0 4.140625 3.359375 7.5 7.5 7.5h.136719c4.140625 0 7.5-3.359375 7.5-7.5 0-4.144531-3.359375-7.503906-7.5-7.503906zm0 0"/><path d="m477.695312 221.339844c-6.257812 0-12.140624 2.4375-16.5625 6.859375l-16.46875 16.46875c-9.132812 9.128906-9.132812 23.988281 0 33.121093 4.566407 4.566407 10.5625 6.847657 16.5625 6.847657 5.996094 0 11.996094-2.28125 16.5625-6.847657l16.464844-16.464843c9.132813-9.132813 9.132813-23.992188 0-33.125-4.421875-4.425781-10.304687-6.859375-16.558594-6.859375zm5.953126 29.375-16.46875 16.46875c-3.28125 3.28125-8.625 3.28125-11.910157 0-3.28125-3.285156-3.28125-8.628906.003907-11.910156l16.464843-16.46875c1.589844-1.589844 3.707031-2.464844 5.957031-2.464844 2.246094 0 4.363282.875 5.953126 2.464844 3.28125 3.285156 3.28125 8.625 0 11.910156zm0 0"/><path d="m110.148438 412.503906-16.46875 16.46875c-4.421876 4.421875-6.859376 10.304688-6.859376 16.5625 0 6.253906 2.4375 12.136719 6.859376 16.5625 4.425781 4.421875 10.304687 6.859375 16.5625 6.859375 6.257812 0 12.136718-2.4375 16.5625-6.863281l16.464843-16.464844c4.425781-4.425781 6.863281-10.308594 6.863281-16.5625 0-6.257812-2.4375-12.140625-6.859374-16.5625-9.136719-9.132812-23.992188-9.132812-33.125 0zm22.515624 22.515625-16.46875 16.46875c-1.589843 1.589844-3.703124 2.464844-5.953124 2.464844s-4.363282-.875-5.953126-2.464844c0 0 0 0-.003906 0-1.589844-1.589843-2.464844-3.707031-2.464844-5.957031 0-2.246094.875-4.363281 2.46875-5.953125l16.464844-16.46875c1.644532-1.640625 3.800782-2.460937 5.953125-2.460937 2.15625 0 4.316407.820312 5.957031 2.460937 1.589844 1.59375 2.464844 3.707031 2.464844 5.957031s-.875 4.363282-2.464844 5.953125zm0 0"/><path d="m248.679688 56.953125c4.5625 4.5625 10.5625 6.847656 16.558593 6.847656 6 0 11.996094-2.285156 16.566407-6.847656l16.464843-16.46875c9.132813-9.132813 9.132813-23.992187 0-33.125-4.421875-4.421875-10.304687-6.859375-16.5625-6.859375-6.253906 0-12.136719 2.4375-16.558593 6.859375l-16.472657 16.46875c-9.128906 9.132813-9.128906 23.992187.003907 33.125-.003907 0-.003907 0 0 0zm10.605468-22.519531 16.46875-16.464844c1.589844-1.589844 3.703125-2.46875 5.953125-2.46875s4.363281.878906 5.953125 2.46875c3.285156 3.28125 3.285156 8.625 0 11.910156l-16.464844 16.464844c-3.28125 3.28125-8.625 3.285156-11.910156 0-3.285156-3.28125-3.285156-8.625 0-11.910156zm0 0"/></svg>