<svg height="511pt" viewBox="1 -9 511.99909 511" width="511pt" xmlns="http://www.w3.org/2000/svg"><path d="m512 239.195312c0-63.765624-24.832031-123.710937-69.917969-168.796874-30.035156-30.035157-67.523437-51.539063-108.40625-62.183594-39.667969-10.332032-81.597656-10.285156-121.253906.128906-4.003906 1.054688-6.398437 5.152344-5.347656 9.160156 1.054687 4.007813 5.152343 6.402344 9.160156 5.347656 37.171875-9.761718 76.476563-9.804687 113.664063-.121093 38.300781 9.972656 73.425781 30.125 101.574218 58.273437 21.054688 21.050782 37.390625 45.5625 48.484375 72.246094l-49.863281-49.863281c-2.929688-2.929688-7.675781-2.929688-10.605469 0-2.929687 2.925781-2.929687 7.675781 0 10.605469l70.125 70.125c.238281.238281.492188.449218.753907.648437 4.375 17.589844 6.628906 35.835937 6.628906 54.429687 0 25.824219-4.351563 50.976563-12.699219 74.628907l-46.417969-46.417969c-6.167968-6.167969-14.367187-9.566406-23.089844-9.566406-8.71875 0-16.917968 3.398437-23.085937 9.566406-3.335937 3.332031-7.765625 5.167969-12.480469 5.167969s-9.148437-1.835938-12.480468-5.167969l-192.089844-192.089844c-2.929688-2.929687-7.675782-2.929687-10.605469 0-2.929687 2.929688-2.929687 7.679688 0 10.605469l192.089844 192.085937c12.726562 12.730469 33.441406 12.730469 46.171875 0 3.335937-3.332031 7.769531-5.167968 12.484375-5.167968 4.714843 0 9.144531 1.835937 12.480469 5.167968l51.015624 51.019532c-11.039062 25.179687-26.789062 48.332031-46.8125 68.355468-22.414062 22.414063-48.679687 39.480469-78.066406 50.730469-3.867187 1.484375-5.804687 5.820313-4.324218 9.6875 1.144531 2.988281 3.988281 4.820313 7.007812 4.820313.890625 0 1.796875-.160156 2.679688-.496094 31.367187-12.011719 59.394531-30.222656 83.308593-54.136719 45.085938-45.085937 69.917969-105.035156 69.917969-168.792969zm0 0"/><path d="m323.1875 457.285156c-53.71875 12.234375-109.363281 4.492188-157.300781-21.777344.523437-1.28125 1.023437-2.570312 1.472656-3.886718.132813-.027344.273437-.054688.40625-.085938 21.550781-4.929687 32.027344-12.054687 32.027344-21.78125 0-9.78125-10.613281-16.945312-32.421875-21.871094-9.132813-26.882812-34.601563-46.285156-64.53125-46.285156-9.132813 0-17.847656 1.820313-25.816406 5.09375-24.613282-44.871094-32.382813-95.585937-24.429688-143.824218l228.5625 228.5625c1.464844 1.464843 3.382812 2.195312 5.300781 2.195312 1.921875 0 3.839844-.730469 5.304688-2.195312 2.929687-2.929688 2.929687-7.679688 0-10.605469l-235.542969-235.542969c8.988281-36.21875 27.039062-70.402344 53.671875-98.878906l26.839844 26.839844c1.460937 1.464843 3.382812 2.199218 5.300781 2.199218 1.921875 0 3.839844-.734375 5.304688-2.199218 2.929687-2.929688 2.929687-7.679688 0-10.605469l-26.839844-26.835938c18.910156-17.710937 40.449218-31.851562 64.140625-42.066406 3.804687-1.640625 5.558593-6.050781 3.917969-9.855469-1.640626-3.804687-6.054688-5.558594-9.855469-3.917968-27.726563 11.953124-52.691407 28.921874-74.207031 50.4375-75.03125 75.03125-91.40625 190.914062-40.625 283.496093-11.789063 8.246094-20.847657 20.121094-25.5625 33.992188-21.804688 4.925781-32.417969 12.089843-32.417969 21.867187 0 9.726563 10.476562 16.851563 32.027343 21.78125.128907.03125.265626.058594.398438.089844 7.132812 20.929688 24.234375 37.710938 46.359375 43.816406.667969.1875 1.339844.273438 2 .273438 3.289063 0 6.308594-2.179688 7.226563-5.507813 1.101562-3.992187-1.242188-8.121093-5.234376-9.222656-14.34375-3.960937-25.984374-13.675781-32.699218-26.222656 14.070312 1.929687 30.148437 2.957031 46.875 2.957031 16.71875 0 32.789062-1.027344 46.855468-2.953125-6.675781 12.457031-18.203124 22.136719-32.402343 26.140625-3.988281 1.121094-6.308594 5.265625-5.183594 9.253906 1.125 3.984375 5.273437 6.308594 9.253906 5.183594 15.511719-4.375 28.539063-14.027344 37.351563-26.667969 35.3125 19.34375 74.527344 29.277344 114.28125 29.277344 17.832031 0 35.78125-1.996094 53.523437-6.039063 4.039063-.921874 6.566407-4.941406 5.644531-8.980468-.917968-4.042969-4.9375-6.570313-8.976562-5.648438zm-139.265625-47.53125c-1.785156 1.332032-5.761719 3.398438-13.15625 5.527344.148437-1.828125.226563-3.671875.226563-5.527344 0-1.863281-.097657-3.707031-.242188-5.535156 7.421875 2.136719 11.386719 4.210938 13.171875 5.535156zm-162.164063 0c1.78125-1.324218 5.746094-3.398437 13.171876-5.535156-.148438 1.828125-.246094 3.671875-.246094 5.535156 0 1.855469.078125 3.699219.230468 5.527344-7.394531-2.128906-11.371093-4.195312-13.15625-5.527344zm81.082032 12.964844c-19.019532 0-37.378906-1.410156-52.382813-3.988281-.507812-2.929688-.773437-5.929688-.773437-8.976563 0-29.308594 23.847656-53.152344 53.15625-53.152344 29.304687 0 53.152344 23.84375 53.152344 53.152344 0 3.042969-.269532 6.046875-.773438 8.976563-15.003906 2.578125-33.363281 3.988281-52.378906 3.988281zm0 0"/><path d="m375.757812 344.078125c0-13.390625-5.214843-25.976563-14.683593-35.441406-9.464844-9.464844-22.050781-14.679688-35.4375-14.679688-7.4375 0-14.628907 1.613281-21.175781 4.667969l-48.304688-48.304688c-2.929688-2.929687-7.675781-2.929687-10.605469 0-2.929687 2.929688-2.929687 7.679688 0 10.605469l46.214844 46.214844c-.53125.488281-1.054687.984375-1.566406 1.496094-9.46875 9.464843-14.683594 22.050781-14.683594 35.441406 0 13.386719 5.214844 25.972656 14.683594 35.4375 9.769531 9.769531 22.601562 14.65625 35.4375 14.65625 1.980469 0 3.957031-.128906 5.925781-.363281l20.308594 20.308594c1.460937 1.464843 3.382812 2.195312 5.300781 2.195312 1.921875 0 3.839844-.730469 5.304687-2.195312 2.929688-2.929688 2.929688-7.679688 0-10.605469l-14.554687-14.554688c4.75-2.351562 9.203125-5.492187 13.152344-9.441406 9.46875-9.464844 14.683593-22.050781 14.683593-35.4375zm-25.289062 24.832031c-13.691406 13.691406-35.972656 13.691406-49.664062 0-6.632813-6.632812-10.289063-15.453125-10.289063-24.832031 0-9.382813 3.65625-18.199219 10.289063-24.835937 6.632812-6.632813 15.449218-10.285157 24.832031-10.285157 9.378906 0 18.199219 3.652344 24.832031 10.285157 6.636719 6.632812 10.289062 15.453124 10.289062 24.835937 0 9.378906-3.652343 18.199219-10.289062 24.832031zm0 0"/><path d="m348.796875 186.457031c-5.355469 5.355469-8.304687 12.472657-8.304687 20.046875 0 7.570313 2.949218 14.6875 8.304687 20.042969 5.527344 5.527344 12.785156 8.292969 20.046875 8.292969 7.257812 0 14.519531-2.765625 20.046875-8.292969 5.351563-5.351563 8.300781-12.472656 8.300781-20.042969 0-7.574218-2.949218-14.691406-8.300781-20.046875-5.355469-5.355469-12.476563-8.304687-20.046875-8.304687-7.574219 0-14.691406 2.949218-20.046875 8.304687zm29.484375 29.484375c-5.203125 5.207032-13.671875 5.207032-18.878906 0-5.203125-5.203125-5.203125-13.671875 0-18.878906 2.523437-2.519531 5.875-3.910156 9.441406-3.910156 3.5625 0 6.917969 1.390625 9.4375 3.910156 5.207031 5.207031 5.207031 13.675781 0 18.878906zm0 0"/><path d="m163.34375 264.078125c5.527344 5.527344 12.789062 8.289063 20.046875 8.289063 7.261719 0 14.519531-2.761719 20.046875-8.289063 11.054688-11.050781 11.054688-29.039063 0-40.09375-11.054688-11.050781-29.039062-11.050781-40.09375 0-11.050781 11.054687-11.050781 29.042969 0 40.09375zm10.609375-29.484375c2.601563-2.601562 6.019531-3.90625 9.4375-3.90625s6.835937 1.304688 9.4375 3.90625c5.207031 5.203125 5.207031 13.671875 0 18.878906-5.203125 5.203125-13.671875 5.203125-18.878906 0-5.203125-5.207031-5.203125-13.675781.003906-18.878906zm0 0"/><path d="m352.503906 74.921875c-17.6875-17.691406-46.472656-17.691406-64.160156 0-8.570312 8.566406-13.289062 19.960937-13.289062 32.078125s4.71875 23.511719 13.289062 32.082031c8.84375 8.84375 20.460938 13.265625 32.078125 13.265625s23.238281-4.421875 32.082031-13.265625c1.886719-1.890625 3.5625-3.910156 5.046875-6.023437l89.554688 89.550781c1.460937 1.464844 3.382812 2.195313 5.300781 2.195313s3.839844-.730469 5.304688-2.195313c2.929687-2.929687 2.929687-7.679687 0-10.605469l-93.441407-93.4375c3.957031-15.09375.039063-31.839844-11.765625-43.644531zm-53.554687 53.550781c-5.734375-5.734375-8.894531-13.359375-8.894531-21.472656s3.160156-15.738281 8.894531-21.472656c5.921875-5.921875 13.699219-8.882813 21.472656-8.882813 7.777344 0 15.554687 2.960938 21.476563 8.882813 11.839843 11.839844 11.839843 31.105468 0 42.945312-11.839844 11.84375-31.109376 11.84375-42.949219 0zm0 0"/><path d="m238.351562 184.46875c-2.929687-2.929688-7.679687-2.929688-10.609374 0-2.925782 2.929688-2.925782 7.679688 0 10.605469l35.082031 35.082031c1.464843 1.464844 3.382812 2.195312 5.300781 2.195312 1.921875 0 3.839844-.730468 5.304688-2.195312 2.929687-2.929688 2.929687-7.679688 0-10.605469zm0 0"/><path d="m200.714844 395.734375c1.46875 1.472656 3.394531 2.210937 5.320312 2.210937 1.914063 0 3.824219-.726562 5.289063-2.179687 2.9375-2.917969 2.953125-7.667969.03125-10.605469l-.078125-.078125c-2.917969-2.9375-7.667969-2.953125-10.605469-.035156-2.9375 2.921875-2.953125 7.667969-.03125 10.609375zm0 0"/><path d="m431.867188 326.585938c1.46875 1.472656 3.394531 2.210937 5.320312 2.210937 1.914062 0 3.824219-.726563 5.289062-2.179687 2.9375-2.917969 2.953126-7.667969.03125-10.605469l-.078124-.078125c-2.917969-2.9375-7.667969-2.953125-10.605469-.03125-2.9375 2.917968-2.953125 7.667968-.03125 10.605468zm0 0"/><path d="m170.589844 178.421875c-2.917969-2.9375-7.667969-2.953125-10.605469-.03125-2.9375 2.917969-2.953125 7.667969-.035156 10.605469l.078125.078125c1.46875 1.472656 3.394531 2.210937 5.320312 2.210937 1.914063 0 3.824219-.726562 5.289063-2.179687 2.9375-2.917969 2.953125-7.667969.03125-10.605469zm0 0"/><path d="m203.871094 367.542969-.078125-.078125c-2.917969-2.9375-7.667969-2.953125-10.605469-.03125-2.9375 2.917968-2.953125 7.667968-.03125 10.605468l.078125.078126c1.464844 1.472656 3.390625 2.210937 5.316406 2.210937 1.914063 0 3.824219-.722656 5.289063-2.179687 2.9375-2.917969 2.953125-7.667969.03125-10.605469zm0 0"/><path d="m258.101562 98.609375c1.914063 0 3.824219-.726563 5.289063-2.179687 2.9375-2.917969 2.953125-7.667969.03125-10.605469l-.078125-.078125c-2.917969-2.9375-7.667969-2.953125-10.605469-.035156-2.9375 2.921874-2.953125 7.667968-.03125 10.605468l.074219.078125c1.46875 1.476563 3.394531 2.214844 5.320312 2.214844zm0 0"/><path d="m104.683594 173.78125c-2.929688 2.929688-2.929688 7.675781 0 10.605469l27.785156 27.785156c1.460938 1.464844 3.382812 2.199219 5.300781 2.199219s3.839844-.734375 5.304688-2.199219c2.929687-2.929687 2.929687-7.675781 0-10.605469l-27.785157-27.785156c-2.929687-2.929688-7.679687-2.929688-10.605468 0zm0 0"/><path d="m475.128906 417.429688h.039063c4.125 0 7.476562-3.335938 7.496093-7.464844l.015626-2.886719c.019531-4.140625-3.320313-7.515625-7.464844-7.535156-4.121094.019531-7.515625 3.320312-7.535156 7.460937l-.015626 2.890625c-.019531 4.140625 3.324219 7.515625 7.464844 7.535157zm0 0"/><path d="m475.125 428.929688c-.011719 0-.023438 0-.039062 0-4.125 0-7.476563 3.332031-7.5 7.460937l-.011719 2.886719c-.019531 4.144531 3.320312 7.519531 7.464843 7.539062h.035157c4.125 0 7.480469-3.335937 7.5-7.464844l.011719-2.886718c.023437-4.144532-3.320313-7.515625-7.460938-7.535156zm0 0"/><path d="m491.300781 415.730469-2.890625-.011719c-.011718 0-.023437 0-.035156 0-4.125 0-7.480469 3.332031-7.5 7.460938-.019531 4.144531 3.324219 7.515624 7.464844 7.539062l2.886718.011719h.035157c4.125 0 7.480469-3.332031 7.5-7.464844.019531-4.140625-3.320313-7.515625-7.460938-7.535156zm0 0"/><path d="m461.839844 430.640625h.035156c4.125 0 7.480469-3.335937 7.5-7.464844.023438-4.140625-3.320312-7.515625-7.460938-7.535156l-2.886718-.015625c-.011719 0-.027344 0-.039063 0-4.125 0-7.480469 3.335938-7.5 7.464844-.019531 4.140625 3.324219 7.515625 7.464844 7.535156zm0 0"/><path d="m23.636719 342.269531h.039062c4.125 0 7.480469-3.335937 7.5-7.464843l.011719-2.886719c.019531-4.140625-3.320312-7.515625-7.460938-7.535157-.015624 0-.027343 0-.039062 0-4.125 0-7.480469 3.332032-7.5 7.460938l-.011719 2.886719c-.023437 4.144531 3.320313 7.519531 7.460938 7.539062zm0 0"/><path d="m23.632812 353.769531c-4.160156-.046875-7.515624 3.320313-7.535156 7.460938l-.015625 2.890625c-.019531 4.140625 3.324219 7.515625 7.464844 7.535156h.039063c4.125 0 7.476562-3.335938 7.496093-7.464844l.015625-2.886718c.019532-4.140626-3.324218-7.515626-7.464844-7.535157zm0 0"/><path d="m36.851562 355.558594 2.886719.011718h.035157c4.125 0 7.480468-3.332031 7.5-7.464843.019531-4.140625-3.320313-7.515625-7.464844-7.535157l-2.886719-.011718c-.011719 0-.023437 0-.035156 0-4.125 0-7.480469 3.332031-7.5 7.460937-.019531 4.144531 3.320312 7.519531 7.464843 7.539063zm0 0"/><path d="m10.351562 355.480469h.035157c4.125 0 7.480469-3.335938 7.5-7.464844.019531-4.140625-3.320313-7.515625-7.464844-7.535156l-2.886719-.015625c-.011718 0-.023437 0-.035156 0-4.125 0-7.4804688 3.335937-7.5 7.464844-.0195312 4.144531 3.320312 7.515624 7.464844 7.535156zm0 0"/><path d="m447.21875 446.769531c-.011719 0-.023438 0-.039062 0-4.125 0-7.476563 3.335938-7.5 7.464844l-.011719 2.886719c-.019531 4.144531 3.320312 7.515625 7.464843 7.535156h.035157c4.125 0 7.480469-3.332031 7.5-7.460938l.015625-2.886718c.019531-4.144532-3.324219-7.519532-7.464844-7.539063zm0 0"/><path d="m447.125 476.15625c-.011719 0-.023438 0-.035156 0-4.125 0-7.480469 3.335938-7.5 7.464844l-.011719 2.886718c-.023437 4.144532 3.320313 7.515626 7.460937 7.535157h.039063c4.125 0 7.476563-3.332031 7.5-7.460938l.011719-2.890625c.019531-4.140625-3.320313-7.515625-7.464844-7.535156zm0 0"/><path d="m463.300781 462.960938-2.886719-.015626c-.011718 0-.023437 0-.035156 0-4.125 0-7.480468 3.332032-7.5 7.464844-.019531 4.140625 3.320313 7.515625 7.464844 7.535156l2.886719.015626h.035156c4.125 0 7.480469-3.335938 7.5-7.464844.019531-4.144532-3.320313-7.515625-7.464844-7.535156zm0 0"/><path d="m433.917969 462.871094-2.886719-.015625c-.015625 0-.027344 0-.039062 0-4.125 0-7.480469 3.332031-7.5 7.460937-.019532 4.144532 3.320312 7.519532 7.464843 7.539063l2.886719.015625h.035156c4.125 0 7.480469-3.335938 7.5-7.464844.023438-4.140625-3.320312-7.515625-7.460937-7.535156zm0 0"/><path d="m81.667969 377.464844h-.109375c-4.144532 0-7.5 3.359375-7.5 7.5 0 4.144531 3.355468 7.5 7.5 7.5h.109375c4.140625 0 7.5-3.355469 7.5-7.5 0-4.140625-3.359375-7.5-7.5-7.5zm0 0"/><path d="m70.015625 394.007812h-.109375c-.011719 0-.023438 0-.035156 0-4.125 0-7.480469 3.335938-7.496094 7.464844-.019531 4.144532 3.324219 7.515625 7.464844 7.535156h.109375.035156c4.125 0 7.480469-3.335937 7.5-7.46875.019531-4.140624-3.324219-7.511718-7.46875-7.53125zm0 0"/><path d="m86.695312 272.667969c-2.925781 2.929687-2.925781 7.679687 0 10.605469l11.390626 11.386718c1.464843 1.464844 3.382812 2.199219 5.300781 2.199219 1.921875 0 3.839843-.734375 5.304687-2.199219 2.929688-2.925781 2.929688-7.675781 0-10.605468l-11.386718-11.386719c-2.929688-2.929688-7.679688-2.929688-10.609376 0zm0 0"/></svg>