<svg height="511pt" viewBox="1 -22 511.99987 511" width="511pt" xmlns="http://www.w3.org/2000/svg"><path d="m203.59375 152.710938c1.464844 1.464843 3.382812 2.195312 5.304688 2.195312 1.917968 0 3.839843-.730469 5.304687-2.195312l139.40625-139.40625c2.929687-2.929688 2.929687-7.679688 0-10.609376-2.929687-2.925781-7.679687-2.925781-10.609375 0l-139.40625 139.410157c-2.929688 2.925781-2.929688 7.675781 0 10.605469zm0 0"/><path d="m322.953125 66.972656-23.890625 23.890625c-2.929688 2.929688-2.929688 7.675781-.003906 10.605469 1.46875 1.464844 3.386718 2.195312 5.304687 2.195312 1.921875 0 3.839844-.730468 5.304688-2.195312l23.890625-23.890625c2.933594-2.929687 2.933594-7.679687.003906-10.605469-2.929688-2.929687-7.679688-2.929687-10.609375 0zm0 0"/><path d="m197.785156 114.542969c1.917969 0 3.839844-.734375 5.304688-2.199219l21.75-21.75c2.929687-2.929688 2.929687-7.679688 0-10.605469-2.929688-2.929687-7.679688-2.929687-10.605469 0l-21.753906 21.75c-2.925781 2.929688-2.925781 7.679688 0 10.605469 1.464843 1.464844 3.386719 2.199219 5.304687 2.199219zm0 0"/><path d="m144.078125 222.191406c1.917969 0 3.839844-.734375 5.304687-2.199218l26.914063-26.914063c3.65625-3.660156 8.523437-5.675781 13.699219-5.675781h32.316406c5.171875 0 10.039062 2.015625 13.699219 5.675781 13.398437 13.402344 35.210937 13.402344 48.609375 0l12.152344-12.152344c10.265624-10.261719 23.214843-16.222656 36.609374-17.917969l-13.667968 13.667969c-2.929688 2.929688-2.929688 7.679688 0 10.605469 1.464844 1.464844 3.382812 2.199219 5.300781 2.199219 1.921875 0 3.839844-.734375 5.304687-2.199219l23.546876-23.542969c11.761718 2.363281 22.980468 8.085938 32.082031 17.1875 5.847656 5.84375 10.417969 12.660157 13.589843 20.257813 1.597657 3.824218 5.992188 5.625 9.8125 4.03125 3.824219-1.597656 5.628907-5.988282 4.03125-9.8125-3.929687-9.410156-9.589843-17.847656-16.828124-25.082032-8.847657-8.851562-19.316407-15.109374-30.457032-18.8125l113.765625-113.765624c2.929688-2.925782 2.929688-7.675782 0-10.605469-2.929687-2.929688-7.679687-2.929688-10.609375 0l-120.691406 120.695312c-22.316406-2.050781-45.347656 5.441407-62.394531 22.488281l-12.148438 12.148438c-7.554687 7.554688-19.847656 7.554688-27.402343 0-6.492188-6.492188-15.121094-10.066406-24.304688-10.066406h-32.316406c-9.179688 0-17.8125 3.574218-24.304688 10.066406l-26.917968 26.917969c-2.925782 2.925781-2.925782 7.675781 0 10.605469 1.464843 1.464843 3.386718 2.199218 5.304687 2.199218zm0 0"/><path d="m412.25 223.058594c-4.132812-.296875-7.71875 2.816406-8.011719 6.949218-1.074219 15.132813-7.570312 29.371094-18.289062 40.09375l-55.5625 55.5625c-2.929688 2.929688-2.929688 7.675782 0 10.605469 1.464843 1.464844 3.382812 2.195313 5.304687 2.195313 1.917969 0 3.835938-.730469 5.300782-2.195313l55.566406-55.5625c13.269531-13.273437 21.3125-30.902343 22.644531-49.636719.289063-4.128906-2.820313-7.71875-6.953125-8.011718zm0 0"/><path d="m317.898438 348.757812c-2.925782-2.929687-7.675782-2.929687-10.605469 0l-22.242188 22.242188c-8.265625 8.269531-19.257812 12.820312-30.953125 12.820312-15.699218 0-30.457031 6.113282-41.558594 17.214844l-46.546874 46.546875c-3.660157 3.660157-8.523438 5.671875-13.699219 5.671875h-64.527344c-16.84375 0-32.679687-6.558594-44.585937-18.464844l-9.710938-9.710937c-11.910156-11.910156-18.46875-27.742187-18.46875-44.585937s6.558594-32.675782 18.46875-44.589844l92.816406-92.8125c2.929688-2.929688 2.929688-7.679688 0-10.609375-2.929687-2.925781-7.675781-2.925781-10.605468 0l-92.816407 92.816406c-14.742187 14.746094-22.863281 34.34375-22.863281 55.195313 0 20.847656 8.121094 40.449218 22.863281 55.191406l9.707031 9.710937c14.742188 14.742188 34.34375 22.859375 55.195313 22.859375h64.527344c9.179687 0 17.8125-3.574218 24.304687-10.066406l46.546875-46.546875c8.269531-8.265625 19.261719-12.820313 30.953125-12.820313 15.699219 0 30.457032-6.113281 41.558594-17.214843l22.242188-22.242188c2.929687-2.925781 2.929687-7.675781 0-10.605469zm0 0"/><path d="m144.90625 310.410156c6.308594 6.3125 14.699219 9.789063 23.621094 9.789063 8.925781 0 17.316406-3.476563 23.625-9.789063 6.3125-6.308594 9.789062-14.699218 9.789062-23.625 0-8.925781-3.476562-17.3125-9.785156-23.625-13.027344-13.027344-34.226562-13.027344-47.253906 0-13.023438 13.027344-13.023438 34.222656.003906 47.25-.003906 0-.003906 0 0 0zm10.605469-36.640625c7.179687-7.179687 18.859375-7.179687 26.035156 0 3.480469 3.476563 5.394531 8.101563 5.394531 13.015625 0 4.917969-1.914062 9.542969-5.394531 13.019532-3.476563 3.476562-8.097656 5.390624-13.019531 5.390624-4.914063 0-9.539063-1.914062-13.015625-5.390624-7.179688-7.179688-7.179688-18.859376 0-26.035157zm0 0"/><path d="m262.238281 266.761719c0-6.054688-2.355469-11.742188-6.636719-16.023438-4.28125-4.277343-9.972656-6.636719-16.023437-6.636719s-11.742187 2.359376-16.019531 6.636719c-8.832032 8.835938-8.832032 23.210938 0 32.042969 4.277344 4.28125 9.96875 6.636719 16.019531 6.636719s11.742187-2.355469 16.023437-6.636719c4.28125-4.277344 6.636719-9.96875 6.636719-16.019531zm-17.246093 5.414062c-1.445313 1.445313-3.367188 2.242188-5.414063 2.242188-2.042969 0-3.964844-.796875-5.414063-2.242188-2.984374-2.984375-2.984374-7.84375 0-10.828125 1.449219-1.449218 3.371094-2.246094 5.414063-2.246094 2.046875 0 3.96875.796876 5.417969 2.246094 1.445312 1.445313 2.242187 3.367188 2.242187 5.414063 0 2.042969-.796875 3.96875-2.246093 5.414062zm0 0"/><path d="m127.226562 357.710938c.144532 2.203124-.878906 4.625-2.738281 6.484374-1.855469 1.859376-4.269531 2.878907-6.484375 2.738282-4.109375-.273438-7.703125 2.863281-7.972656 6.996094-.273438 4.132812 2.859375 7.703124 6.992188 7.972656.46875.03125.9375.046875 1.40625.046875 6.074218 0 12.078124-2.558594 16.667968-7.144531 4.9375-4.941407 7.527344-11.527344 7.097656-18.074219-.269531-4.132813-3.867187-7.269531-7.972656-6.992188-4.132812.269531-7.265625 3.835938-6.996094 7.972657zm0 0"/><path d="m346.253906 242.929688c-.273437-4.132813-3.878906-7.285157-7.972656-6.996094-4.136719.265625-7.269531 3.835937-6.996094 7.96875.140625 2.207031-.882812 4.632812-2.738281 6.488281-1.859375 1.859375-4.265625 2.882813-6.488281 2.738281-4.101563-.269531-7.703125 2.863282-7.972656 6.996094-.269532 4.132812 2.863281 7.703125 6.996093 7.972656.46875.03125.933594.046875 1.402344.046875 6.074219 0 12.082031-2.558593 16.667969-7.144531 4.9375-4.9375 7.527344-11.527344 7.101562-18.070312zm0 0"/><path d="m51.066406 371.1875c-4.109375-.277344-7.699218 2.859375-7.972656 6.996094-.269531 4.132812 2.863281 7.703125 6.996094 7.972656.46875.03125.9375.046875 1.402344.046875 6.074218 0 12.082031-2.558594 16.667968-7.148437 4.941406-4.9375 7.527344-11.527344 7.101563-18.070313-.269531-4.132813-3.875-7.269531-7.976563-6.996094-4.132812.269531-7.261718 3.839844-6.992187 7.976563.144531 2.203125-.878907 4.625-2.738281 6.484375-1.859376 1.859375-4.273438 2.878906-6.488282 2.738281zm0 0"/><path d="m239.65625 307.445312-.082031.078126c-2.945313 2.910156-2.976563 7.65625-.0625 10.605468 1.464843 1.484375 3.398437 2.230469 5.335937 2.230469 1.902344 0 3.808594-.722656 5.269532-2.164063l.078124-.078124c2.949219-2.910157 2.980469-7.660157.066407-10.605469-2.910157-2.949219-7.660157-2.980469-10.605469-.066407zm0 0"/><path d="m210.257812 365-.078124.078125c-2.929688 2.929687-2.929688 7.679687 0 10.605469 1.464843 1.464844 3.382812 2.199218 5.304687 2.199218 1.917969 0 3.835937-.730468 5.300781-2.199218l.078125-.078125c2.929688-2.925781 2.929688-7.675781 0-10.605469-2.929687-2.929688-7.675781-2.929688-10.605469 0zm0 0"/><path d="m311.375 296.171875-.078125.078125c-2.957031 2.902344-3 7.648438-.097656 10.605469 1.46875 1.496093 3.410156 2.246093 5.351562 2.246093 1.894531 0 3.792969-.710937 5.253907-2.144531l.078124-.078125c2.957032-2.902344 3-7.652344.101563-10.605468-2.90625-2.960938-7.652344-3.003907-10.609375-.101563zm0 0"/><path d="m189.320312 372.109375-.078124.078125c-2.929688 2.929688-2.929688 7.675781 0 10.605469 1.464843 1.464843 3.386718 2.195312 5.304687 2.195312s3.839844-.730469 5.304687-2.195312l.078126-.078125c2.929687-2.929688 2.929687-7.679688 0-10.605469-2.929688-2.929687-7.679688-2.929687-10.609376 0zm0 0"/><path d="m352.203125 207.289062.078125-.078124c2.929688-2.929688 2.929688-7.679688 0-10.605469-2.929688-2.929688-7.679688-2.929688-10.609375 0l-.078125.078125c-2.929688 2.925781-2.929688 7.675781 0 10.605468 1.464844 1.464844 3.386719 2.195313 5.304688 2.195313 1.917968 0 3.839843-.730469 5.304687-2.195313zm0 0"/><path d="m501.992188 141.167969c-8.0625-8.058594-21.175782-8.058594-29.238282 0l-29.597656 29.601562c-3.90625 3.90625-6.058594 9.097657-6.058594 14.621094 0 5.519531 2.152344 10.710937 6.058594 14.617187s9.1875 6.054688 14.625 6.054688c1.183594 0 2.375-.101562 3.558594-.308594l23.226562-4.066406c4.207032-.738281 8.03125-2.726562 11.050782-5.746094l6.378906-6.378906c13.339844-13.339844 13.339844-35.050781-.003906-48.394531zm-10.605469 37.789062-6.378907 6.375c-.828124.828125-1.875 1.375-3.03125 1.578125l-23.226562 4.066406c-1.8125.316407-3.683594-.273437-4.988281-1.578124-1.070313-1.070313-1.664063-2.496094-1.664063-4.011719s.59375-2.9375 1.664063-4.011719l29.601562-29.601562c1.070313-1.070313 2.496094-1.660157 4.011719-1.660157s2.9375.589844 4.011719 1.660157c7.492187 7.496093 7.492187 19.6875 0 27.183593zm0 0"/><path d="m57.363281 221.054688c4.421875 4.421874 10.300781 6.855468 16.550781 6.855468 6.253907 0 12.132813-2.433594 16.554688-6.855468l19.203125-19.203126c2.582031-2.582031 4.550781-5.78125 5.6875-9.253906l10.316406-31.421875c1.835938-5.59375.390625-11.65625-3.773437-15.816406-2.933594-2.933594-6.828125-4.546875-10.976563-4.546875-4.144531 0-8.042969 1.617188-10.976562 4.546875l-42.585938 42.589844c-9.128906 9.125-9.128906 23.976562 0 33.105469zm10.605469-22.5 42.589844-42.585938c.203125-.203125.535156-.203125.738281 0 .140625.140625.1875.34375.125.53125l-10.3125 31.421875c-.410156 1.246094-1.117187 2.394531-2.042969 3.324219l-19.203125 19.203125c-1.589843 1.585937-3.699219 2.460937-5.945312 2.460937-2.246094 0-4.359375-.875-5.949219-2.464844h.003906c-3.28125-3.277343-3.28125-8.609374-.003906-11.890624zm0 0"/><path d="m408.332031 126.097656-13.847656 13.847656c-2.929687 2.929688-2.929687 7.679688 0 10.605469 1.464844 1.464844 3.382813 2.199219 5.304687 2.199219 1.917969 0 3.835938-.734375 5.300782-2.199219l13.847656-13.847656c2.929688-2.925781 2.929688-7.675781 0-10.605469-2.929688-2.929687-7.675781-2.929687-10.605469 0zm0 0"/><path d="m450.628906 255.960938-13.652344 13.652343c-3.910156 3.910157-6.0625 9.109375-6.0625 14.640625 0 5.527344 2.152344 10.726563 6.0625 14.636719 3.910157 3.910156 9.105469 6.0625 14.636719 6.0625s10.730469-2.152344 14.636719-6.0625l13.652344-13.652344c3.910156-3.910156 6.066406-9.109375 6.066406-14.636719 0-5.53125-2.15625-10.730468-6.066406-14.640624-8.070313-8.070313-21.203125-8.070313-29.273438 0zm18.667969 18.667968-13.65625 13.65625c-1.074219 1.074219-2.503906 1.667969-4.027344 1.667969-1.523437 0-2.953125-.59375-4.03125-1.667969-1.074219-1.078125-1.667969-2.507812-1.667969-4.03125 0-1.523437.59375-2.953125 1.667969-4.03125l13.652344-13.652344c1.109375-1.109374 2.570313-1.667968 4.03125-1.667968s2.921875.558594 4.03125 1.667968c1.074219 1.078126 1.667969 2.507813 1.667969 4.03125 0 1.519532-.59375 2.953126-1.667969 4.027344zm0 0"/><path d="m347.433594 54.992188c0 5.53125 2.15625 10.730468 6.0625 14.636718h.003906c3.90625 3.910156 9.105469 6.066406 14.636719 6.066406 5.527343 0 10.726562-2.15625 14.636719-6.066406l13.652343-13.652344c8.070313-8.070312 8.070313-21.203124 0-29.273437-8.070312-8.070313-21.203125-8.070313-29.273437 0l-13.652344 13.652344c-3.910156 3.910156-6.066406 9.109375-6.066406 14.636719zm16.671875-4.03125 13.652343-13.652344c1.109376-1.109375 2.570313-1.664063 4.03125-1.664063 1.457032 0 2.917969.554688 4.027344 1.664063 2.226563 2.222656 2.226563 5.839844.003906 8.0625l-13.65625 13.652344c-1.074218 1.078124-2.507812 1.671874-4.03125 1.671874-1.519531 0-2.953124-.59375-4.027343-1.671874-1.078125-1.074219-1.671875-2.507813-1.671875-4.027344 0-1.523438.59375-2.957032 1.671875-4.035156zm0 0"/><path d="m337.011719 397.476562c-5.53125 0-10.730469 2.152344-14.636719 6.0625l-13.65625 13.65625c-8.070312 8.070313-8.070312 21.203126 0 29.273438 4.035156 4.035156 9.335938 6.054688 14.636719 6.054688 5.304687 0 10.605469-2.019532 14.640625-6.054688l13.652344-13.652344c3.910156-3.910156 6.0625-9.109375 6.0625-14.636718 0-5.53125-2.152344-10.730469-6.0625-14.636719-3.910157-3.914063-9.109376-6.066407-14.636719-6.066407zm4.027343 24.730469-13.652343 13.652344c-2.222657 2.226563-5.835938 2.226563-8.0625 0-2.222657-2.21875-2.222657-5.835937 0-8.058594l13.65625-13.652343c1.074219-1.078126 2.507812-1.671876 4.027343-1.671876 1.523438 0 2.953126.59375 4.03125 1.671876 1.078126 1.074218 1.667969 2.507812 1.667969 4.03125.003907 1.519531-.589843 2.953124-1.667969 4.027343zm0 0"/><path d="m421.980469 325.761719h-.109375c-4.144532 0-7.5 3.359375-7.5 7.5s3.355468 7.5 7.5 7.5h.109375c4.144531 0 7.5-3.359375 7.5-7.5s-3.355469-7.5-7.5-7.5zm0 0"/><path d="m416.675781 315.359375c4.144531 0 7.5-3.359375 7.5-7.503906 0-4.140625-3.355469-7.5-7.5-7.5h-.109375c-4.144531 0-7.5 3.359375-7.5 7.5 0 4.144531 3.355469 7.503906 7.5 7.503906zm0 0"/><path d="m146.578125 128.882812h.113281.03125c4.128906 0 7.480469-3.335937 7.5-7.464843.019532-4.144531-3.324218-7.515625-7.46875-7.535157h-.109375c-.011719 0-.019531 0-.03125 0-4.128906 0-7.480469 3.335938-7.5 7.46875-.019531 4.140626 3.324219 7.515626 7.464844 7.53125zm0 0"/><path d="m434.386719 37.625h.109375.035156c4.125 0 7.480469-3.335938 7.5-7.464844.015625-4.144531-3.328125-7.515625-7.46875-7.535156h-.109375c-.011719 0-.023437 0-.035156 0-4.125 0-7.480469 3.335938-7.5 7.46875-.015625 4.140625 3.328125 7.515625 7.46875 7.53125zm0 0"/><path d="m79.824219 138.902344h.109375.035156c4.125 0 7.480469-3.335938 7.5-7.46875.019531-4.140625-3.324219-7.515625-7.46875-7.53125h-.109375c-.011719 0-.023437 0-.035156 0-4.125 0-7.480469 3.335937-7.5 7.464844-.015625 4.144531 3.328125 7.515624 7.46875 7.535156zm0 0"/></svg>