<svg height="512pt" viewBox="0 -6 512.00018 512" width="512pt" xmlns="http://www.w3.org/2000/svg"><path d="m419.0625 59.316406c-.050781-.046875-.101562-.089844-.15625-.136718-18.402344-15.582032-38.917969-28.398438-60.96875-38.097657-3.792969-1.667969-8.21875.054688-9.886719 3.847657-1.664062 3.792968.054688 8.214843 3.847657 9.882812 20.679687 9.09375 39.917968 21.109375 57.191406 35.707031.046875.042969.097656.085938.148437.128907 52.953125 44.847656 83.324219 110.328124 83.324219 179.648437 0 55.601563-19.238281 108.390625-54.511719 150.605469v-70.683594c0-4.886719-1.902343-9.476562-5.355469-12.929688l-23.109374-23.113281c-3.457032-3.453125-8.046876-5.355469-12.929688-5.355469h-83.378906c-1.8125 0-3.285156-1.472656-3.285156-3.285156v-129.25c0-4.882812-1.902344-9.476562-5.355469-12.929687l-25.828125-25.828125c-3.453125-3.453125-8.046875-5.355469-12.929688-5.355469h-1.039062l.050781-97.042969c19.316406.617188 38.433594 3.582032 56.929687 8.847656 3.980469 1.132813 8.132813-1.175781 9.265626-5.160156 1.132812-3.984375-1.175782-8.132812-5.160157-9.265625-22.261719-6.335937-45.363281-9.550781-68.660156-9.550781-33.367187 0-65.777344 6.464844-96.335937 19.210938-24.292969 10.136718-46.777344 24.027343-66.839844 41.292968-3.140625 2.699219-3.492188 7.433594-.792969 10.574219 1.484375 1.726563 3.582031 2.609375 5.6875 2.609375 1.734375 0 3.476563-.597656 4.890625-1.816406 18.859375-16.226563 40-29.289063 62.832031-38.816406 26.460938-11.039063 54.410157-17.050782 83.183594-17.929688l-.011719 19.21875c-26.195312.875-51.652344 6.386719-75.769531 16.449219-38.878906 16.222656-71.984375 43.285156-95.730469 78.261719-22.929687 33.773437-35.65625 72.957031-37.042968 113.753906h-19.234376c1.742188-54.964844 22.601563-107.527344 59.210938-148.730469 2.75-3.097656 2.46875-7.835937-.625-10.585937-3.097656-2.753907-7.839844-2.472657-10.589844.625-40.707031 45.816406-63.128906 104.835937-63.128906 166.179687 0 39.078125 8.753906 76.5 26.011719 111.230469 8.953125 18.035156 20.121093 35.003906 33.195312 50.4375 16.933594 19.992187 36.808594 37.152344 59.078125 51.003906 1.230469.765625 2.601563 1.132812 3.953125 1.132812 2.507813 0 4.953125-1.253906 6.375-3.539062 2.1875-3.519531 1.109375-8.144531-2.40625-10.332031-20.941406-13.023438-39.628906-29.160157-55.554687-47.964844-9.632813-11.371094-18.148438-23.636719-25.4375-36.566406h60.160156c4.8125 0 9.523438-1.949219 12.929688-5.355469l18.867187-18.878906c3.460937-3.445313 5.371094-8.042969 5.371094-12.941406v-29.105469c0-10.082031-8.203125-18.285157-18.285157-18.285157h-48.238281c-1.808593 0-3.28125-1.472656-3.28125-3.28125v-20.042968l137.761719-.007813c.648438 3.441407.980469 6.953125.980469 10.488281v42.472657c0 4.898437 1.90625 9.496093 5.355469 12.925781l25.546874 25.558594c.621094.621094.964844 1.445312.964844 2.320312v32.269532c0 4.863281 1.898438 9.449218 5.355469 12.925781l16.566406 16.566406c.605469.601563.949219 1.441406.949219 2.308594v69.414062c-5.265625.355469-10.597656.542969-15.921875.542969-33.445313 0-65.773437-6.882812-96.082031-20.460938-3.78125-1.695312-8.21875-.003906-9.914063 3.777344-1.691406 3.78125 0 8.21875 3.78125 9.910156 32.253907 14.449219 66.644531 21.773438 102.214844 21.773438 8.101563 0 16.226563-.386719 24.136719-1.152344 58.335937-5.578125 113.15625-31.753906 154.390625-73.710937.039062-.039063.082031-.082031.125-.125 46.199219-47.070313 71.644531-109.328125 71.644531-175.308594 0-73.679687-32.257812-143.28125-88.5-190.980469zm-226.140625 183.484375c3.445313-29.765625 27.117187-53.441406 56.878906-56.890625l-.03125 56.886719zm56.886719-71.980469c-38.046875 3.566407-68.382813 33.9375-71.949219 71.980469l-57.558594.003907c3.769531-69.710938 59.816407-125.75 129.539063-129.492188zm-159.019532-33.339843c22.105469-32.554688 52.914063-57.746094 89.097657-72.84375 22.277343-9.292969 45.785156-14.414063 69.988281-15.285157l-.027344 48.941407c-78 3.761719-140.761718 66.523437-144.5625 144.511719l-48.941406.003906c1.382812-37.78125 13.210938-74.050782 34.445312-105.328125zm-7.800781 158.652343h48.238281c1.808594 0 3.28125 1.472657 3.28125 3.285157v29.105469c0 .878906-.335937 1.699218-.960937 2.320312l-18.882813 18.894531c-.613281.609375-1.457031.960938-2.320312.960938h-67.921875c-13.824219-29.21875-21.328125-60.40625-22.328125-92.890625h42.609375v20.039062c.003906 10.085938 8.203125 18.285156 18.285156 18.285156zm183.304688 90.035157c-.621094-.625-.976563-1.476563-.976563-2.332031v-32.269532c0-4.878906-1.902344-9.472656-5.355468-12.925781l-25.5625-25.570313c-.609376-.609374-.949219-1.429687-.949219-2.308593v-42.472657c0-3.519531-.265625-7.027343-.777344-10.488281l24.597656-.003906c4.136719 0 7.496094-3.355469 7.5-7.496094l.0625-123.128906h1.050781c.875 0 1.703126.34375 2.320313.960937l25.832031 25.832032c.617188.621094.960938 1.445312.960938 2.320312v129.253906c0 10.082032 8.199218 18.285157 18.28125 18.285157h83.378906c.878906 0 1.703125.339843 2.324219.960937l23.109375 23.113282c.621094.621093.964844 1.445312.964844 2.320312v87.035156c-36.554688 36.292969-84.066407 59.621094-134.863282 66.308594v-67.925781c0-4.832031-1.960937-9.546875-5.355468-12.929688zm0 0"/><path d="m325.4375 335.503906h27.609375c4.140625 0 7.5-3.359375 7.5-7.5 0-4.144531-3.359375-7.5-7.5-7.5h-27.609375c-4.140625 0-7.5 3.355469-7.5 7.5 0 4.140625 3.359375 7.5 7.5 7.5zm0 0"/><path d="m385.5625 234.742188h.03125c4.128906 0 7.480469-3.335938 7.5-7.464844.019531-4.140625-3.324219-7.515625-7.464844-7.535156h-.113281c-.011719 0-.023437 0-.03125 0-4.128906 0-7.480469 3.339843-7.5 7.46875-.019531 4.140624 3.324219 7.515624 7.464844 7.53125zm0 0"/><path d="m222.117188 443.507812h.03125c4.128906 0 7.480468-3.335937 7.5-7.46875.019531-4.140624-3.324219-7.515624-7.464844-7.53125h-.113282c-.011718 0-.019531 0-.03125 0-4.128906 0-7.480468 3.335938-7.5 7.464844-.019531 4.144532 3.324219 7.515625 7.464844 7.535156zm0 0"/><path d="m239.046875 427.867188c4.140625 0 7.5-3.355469 7.5-7.5 0-4.140626-3.359375-7.5-7.5-7.5h-.113281c-4.140625 0-7.5 3.359374-7.5 7.5 0 4.144531 3.359375 7.5 7.5 7.5zm0 0"/><path d="m366.449219 251.777344h.03125c4.128906 0 7.484375-3.335938 7.5-7.46875.019531-4.140625-3.324219-7.515625-7.464844-7.53125h-.113281c-4.144532.003906-7.515625 3.324218-7.53125 7.464844-.019532 4.144531 3.324218 7.515624 7.464844 7.535156zm0 0"/><path d="m153.460938 197.515625h-.121094c-.011719 0-.023438 0-.03125 0-4.128906 0-7.484375 3.339844-7.5 7.472656-.019532 4.140625 3.328125 7.511719 7.46875 7.527344h.121094.03125c4.128906 0 7.480468-3.335937 7.5-7.46875.015624-4.140625-3.328126-7.515625-7.46875-7.53125zm0 0"/><path d="m173.878906 200.515625h.121094.027344c4.128906 0 7.484375-3.335937 7.5-7.46875.019531-4.144531-3.328125-7.515625-7.46875-7.53125h-.121094c-4.136719-.058594-7.511719 3.328125-7.53125 7.46875-.015625 4.144531 3.328125 7.515625 7.472656 7.53125zm0 0"/><path d="m465.800781 20.414062h.035157c4.125 0 7.480468-3.332031 7.5-7.464843l.015624-2.878907c.019532-4.140624-3.324218-7.515624-7.464843-7.535156-.011719 0-.023438 0-.039063 0-4.125 0-7.476562 3.332032-7.496094 7.464844l-.015624 2.878906c-.019532 4.140625 3.320312 7.515625 7.464843 7.535156zm0 0"/><path d="m473.246094 42.269531.011718-2.882812c.019532-4.140625-3.320312-7.515625-7.460937-7.535157-.015625 0-.027344 0-.039063 0-4.125 0-7.480468 3.335938-7.5 7.464844l-.011718 2.878906c-.019532 4.144532 3.320312 7.515626 7.464844 7.535157h.035156c4.125.003906 7.480468-3.332031 7.5-7.460938zm0 0"/><path d="m478.980469 33.671875 2.878906.015625h.039063c4.125 0 7.480468-3.335938 7.5-7.464844.019531-4.140625-3.324219-7.515625-7.464844-7.535156l-2.878906-.015625c-.011719 0-.027344 0-.039063 0-4.125 0-7.480469 3.335937-7.5 7.464844-.019531 4.140625 3.324219 7.515625 7.464844 7.535156zm0 0"/><path d="m449.660156 33.582031 2.882813.011719h.035156c4.125 0 7.480469-3.332031 7.5-7.460938.019531-4.144531-3.320313-7.515624-7.464844-7.539062l-2.878906-.011719c-.011719 0-.023437 0-.039063 0-4.125 0-7.476562 3.332031-7.496093 7.460938-.023438 4.144531 3.320312 7.515625 7.460937 7.539062zm0 0"/><path d="m488.453125 57.441406c-4.125 0-7.480469 3.332032-7.5 7.460938l-.015625 2.882812c-.019531 4.140625 3.324219 7.515625 7.464844 7.535156h.039062c4.125 0 7.476563-3.335937 7.496094-7.464843l.015625-2.878907c.019531-4.140624-3.320313-7.515624-7.464844-7.535156-.011719 0-.023437 0-.035156 0zm0 0"/><path d="m488.3125 104.636719h.039062c4.125 0 7.476563-3.332031 7.496094-7.460938l.015625-2.882812c.019531-4.140625-3.320312-7.515625-7.464843-7.535157-.011719 0-.023438 0-.035157 0-4.125 0-7.480469 3.335938-7.5 7.464844l-.015625 2.878906c-.019531 4.144532 3.324219 7.515626 7.464844 7.535157zm0 0"/><path d="m504.535156 73.589844-2.878906-.011719c-.011719 0-.023438 0-.039062 0-4.125 0-7.476563 3.332031-7.496094 7.464844-.019532 4.140625 3.320312 7.515625 7.464844 7.535156l2.878906.011719h.035156c4.125 0 7.480469-3.332032 7.5-7.460938.019531-4.144531-3.320312-7.519531-7.464844-7.539062zm0 0"/><path d="m472.265625 88.488281 2.878906.011719h.039063c4.125 0 7.476562-3.332031 7.496094-7.464844.019531-4.140625-3.320313-7.515625-7.460938-7.535156l-2.882812-.011719c-4.101563-.035156-7.515626 3.320313-7.535157 7.460938-.019531 4.144531 3.324219 7.519531 7.464844 7.539062zm0 0"/><path d="m23.601562 414.644531h.039063c4.125 0 7.476563-3.332031 7.5-7.460937l.011719-2.882813c.019531-4.140625-3.320313-7.515625-7.464844-7.535156-.011719 0-.023438 0-.035156 0-4.125 0-7.480469 3.335937-7.5 7.464844l-.011719 2.878906c-.023437 4.144531 3.320313 7.519531 7.460937 7.535156zm0 0"/><path d="m23.597656 426.085938c-.011718 0-.023437 0-.039062 0-4.125 0-7.476563 3.332031-7.496094 7.464843l-.015625 2.878907c-.019531 4.140624 3.320313 7.515624 7.464844 7.535156h.035156c4.125 0 7.480469-3.332032 7.5-7.464844l.015625-2.878906c.019531-4.144532-3.324219-7.515625-7.464844-7.535156zm0 0"/><path d="m39.734375 412.917969-2.878906-.015625c-4.183594-.03125-7.515625 3.324218-7.535157 7.464844-.019531 4.144531 3.320313 7.515624 7.460938 7.535156l2.882812.015625h.035157c4.125 0 7.480469-3.332031 7.5-7.464844.019531-4.140625-3.320313-7.515625-7.464844-7.535156zm0 0"/><path d="m10.417969 412.828125-2.882813-.015625c-.011718 0-.023437 0-.035156 0-4.125 0-7.4804688 3.335938-7.5 7.464844-.0195312 4.140625 3.320312 7.515625 7.464844 7.535156l2.878906.015625h.039062c4.125 0 7.476563-3.335937 7.496094-7.464844.019532-4.144531-3.320312-7.515625-7.460937-7.535156zm0 0"/></svg>