<svg height="511pt" viewBox="0 0 511 511.9998" width="511pt" xmlns="http://www.w3.org/2000/svg"><path d="m466.292969 286.171875c-.578125 0-1.164063-.070313-1.753907-.210937-4.027343-.964844-6.511718-5.011719-5.546874-9.039063 4.460937-18.613281 6.71875-37.777344 6.71875-56.96875 0-18.867187-2.15625-37.683594-6.410157-55.921875-.9375-4.03125 1.566407-8.066406 5.601563-9.007812 4.027344-.933594 8.066406 1.566406 9.007812 5.601562 4.515625 19.355469 6.800782 39.316406 6.800782 59.332031 0 20.363281-2.394532 40.707031-7.128907 60.460938-.824219 3.4375-3.898437 5.753906-7.289062 5.753906zm0 0"/><path d="m220.457031 480.210938c-.003906 0 0 0-.003906 0-88.078125 0-169.511719-44.039063-217.835937-117.800782-3.160157-4.820312-2.75-10.980468 1.011718-15.332031 3.75-4.335937 9.765625-5.625 14.972656-3.203125 29.199219 13.570312 60.449219 21.136719 92.878907 22.484375 4.136719.171875 7.351562 3.667969 7.179687 7.804687-.171875 4.140626-3.664062 7.359376-7.804687 7.183594-31.710938-1.320312-62.367188-8.242187-91.246094-20.601562 45.992187 65.566406 120.488281 104.464844 200.84375 104.464844 50.242187 0 98.601563-15.210938 139.847656-43.992188 40.3125-28.128906 71.007813-67.070312 88.773438-112.617188 1.503906-3.855468 5.851562-5.765624 9.710937-4.261718s5.769532 5.855468 4.261719 9.714844c-18.847656 48.320312-51.40625 89.628906-94.164063 119.464843-43.769531 30.546875-95.101562 46.691407-148.425781 46.691407zm0 0"/><path d="m143.820312 380.648438c-3.855468 0-7.128906-2.953126-7.464843-6.863282-.351563-4.125 2.707031-7.757812 6.835937-8.113281 61.066406-5.21875 117.574219-32.90625 159.113282-77.953125 41.785156-45.3125 64.792968-104.398438 64.792968-166.375 0-36.0625-7.644531-70.800781-22.722656-103.242188-2.421875-5.207031-1.132812-11.226562 3.203125-14.972656 4.351563-3.765625 10.511719-4.167968 15.332031-1.011718 45.550782 29.84375 81.316406 74.191406 100.703125 124.871093 1.480469 3.871094-.457031 8.207031-4.324219 9.6875-3.871093 1.480469-8.207031-.457031-9.6875-4.328125-17.328124-45.296875-48.542968-85.230468-88.347656-113.226562 13.835938 32.316406 20.84375 66.667968 20.84375 102.222656 0 65.757812-24.421875 128.453125-68.765625 176.542969-44.089843 47.8125-104.058593 77.191406-168.863281 82.734375-.21875.015625-.433594.027344-.648438.027344zm0 0"/><path d="m89.792969 240.894531c-.011719 0-.023438 0-.035157 0-4.140624-.019531-7.484374-3.394531-7.464843-7.535156l.015625-2.84375c.019531-4.128906 3.375-7.464844 7.5-7.464844h.035156c4.140625.019531 7.484375 3.394531 7.464844 7.535157l-.015625 2.84375c-.019531 4.128906-3.375 7.464843-7.5 7.464843zm0 0"/><path d="m89.703125 269.839844c-.011719 0-.023437 0-.035156 0-4.140625-.023438-7.484375-3.394532-7.464844-7.539063l.015625-2.839843c.019531-4.128907 3.371094-7.464844 7.496094-7.464844h.039062c4.140625.019531 7.484375 3.394531 7.464844 7.535156l-.015625 2.84375c-.019531 4.128906-3.375 7.464844-7.5 7.464844zm0 0"/><path d="m105.648438 253.996094c-.011719 0-.023438 0-.035157 0l-2.84375-.015625c-4.140625-.019531-7.484375-3.390625-7.464843-7.535157.019531-4.128906 3.375-7.464843 7.5-7.464843h.035156l2.84375.015625c4.144531.019531 7.484375 3.394531 7.464844 7.535156-.019532 4.128906-3.375 7.464844-7.5 7.464844zm0 0"/><path d="m76.707031 253.90625c-.011719 0-.023437 0-.039062 0l-2.84375-.015625c-4.140625-.019531-7.484375-3.390625-7.460938-7.535156.019531-4.128907 3.371094-7.464844 7.496094-7.464844h.039063l2.84375.015625c4.140624.019531 7.484374 3.394531 7.464843 7.535156-.019531 4.132813-3.375 7.464844-7.5 7.464844zm0 0"/><path d="m165.453125 198.238281c-.011719 0-.023437 0-.035156 0-4.140625-.019531-7.484375-3.390625-7.464844-7.535156l.015625-2.84375c.015625-4.128906 3.371094-7.464844 7.496094-7.464844h.035156c4.144531.019531 7.484375 3.394531 7.46875 7.535157l-.015625 2.84375c-.019531 4.128906-3.375 7.464843-7.5 7.464843zm0 0"/><path d="m165.363281 227.183594c-.011719 0-.023437 0-.035156 0-4.140625-.019532-7.484375-3.394532-7.464844-7.539063l.015625-2.839843c.019532-4.128907 3.371094-7.464844 7.496094-7.464844h.039062c4.140626.019531 7.484376 3.394531 7.464844 7.535156l-.015625 2.84375c-.019531 4.128906-3.375 7.464844-7.5 7.464844zm0 0"/><path d="m181.308594 211.339844c-.011719 0-.023438 0-.035156 0l-2.84375-.011719c-4.140626-.023437-7.484376-3.394531-7.464844-7.539063.019531-4.128906 3.375-7.460937 7.5-7.460937h.035156l2.84375.011719c4.144531.019531 7.484375 3.394531 7.464844 7.535156-.019532 4.132812-3.375 7.464844-7.5 7.464844zm0 0"/><path d="m152.367188 211.25c-.011719 0-.023438 0-.039063 0l-2.839844-.011719c-4.144531-.019531-7.484375-3.394531-7.464843-7.535156.019531-4.144531 3.363281-7.5 7.535156-7.464844l2.84375.011719c4.140625.019531 7.484375 3.394531 7.464844 7.539062-.019532 4.128907-3.375 7.460938-7.5 7.460938zm0 0"/><path d="m473.25 380.539062c-.011719 0-.023438 0-.035156 0-4.144532-.023437-7.484375-3.394531-7.464844-7.539062l.011719-2.84375c.023437-4.128906 3.375-7.460938 7.5-7.460938h.039062c4.140625.019532 7.480469 3.390626 7.460938 7.535157l-.011719 2.84375c-.019531 4.128906-3.375 7.464843-7.5 7.464843zm0 0"/><path d="m473.160156 409.480469c-.011718 0-.023437 0-.035156 0-4.140625-.019531-7.484375-3.394531-7.464844-7.535157l.015625-2.84375c.019531-4.128906 3.371094-7.464843 7.496094-7.464843h.039063c4.140624.019531 7.484374 3.394531 7.464843 7.535156l-.015625 2.84375c-.019531 4.132813-3.375 7.464844-7.5 7.464844zm0 0"/><path d="m489.105469 393.640625c-.011719 0-.023438 0-.035157 0l-2.84375-.015625c-4.144531-.019531-7.484374-3.394531-7.464843-7.535156.019531-4.128906 3.375-7.464844 7.5-7.464844h.035156l2.84375.015625c4.144531.019531 7.484375 3.394531 7.464844 7.535156-.019531 4.128907-3.375 7.464844-7.5 7.464844zm0 0"/><path d="m460.164062 393.550781c-.015624 0-.027343 0-.039062 0l-2.84375-.015625c-4.140625-.019531-7.484375-3.394531-7.464844-7.535156.019532-4.128906 3.375-7.464844 7.5-7.464844h.035156l2.847657.015625c4.140625.019531 7.480469 3.394531 7.460937 7.535157-.019531 4.128906-3.371094 7.464843-7.496094 7.464843zm0 0"/><path d="m87.847656 483.054688c-.011718 0-.023437 0-.035156 0-4.144531-.019532-7.484375-3.390626-7.46875-7.535157l.015625-2.84375c.019531-4.128906 3.375-7.464843 7.5-7.464843h.035156c4.140625.023437 7.484375 3.394531 7.464844 7.535156l-.011719 2.84375c-.019531 4.132812-3.375 7.464844-7.5 7.464844zm0 0"/><path d="m87.757812 512c-.011718 0-.023437 0-.035156 0-4.144531-.019531-7.484375-3.394531-7.464844-7.535156l.011719-2.84375c.019531-4.128906 3.375-7.464844 7.5-7.464844h.035157c4.140624.019531 7.484374 3.394531 7.464843 7.535156l-.011719 2.84375c-.019531 4.128906-3.375 7.464844-7.5 7.464844zm0 0"/><path d="m103.703125 496.15625c-.011719 0-.023437 0-.035156 0l-2.84375-.011719c-4.140625-.019531-7.484375-3.394531-7.464844-7.535156.019531-4.128906 3.375-7.464844 7.5-7.464844h.035156l2.84375.011719c4.140625.019531 7.484375 3.394531 7.464844 7.535156-.019531 4.128906-3.375 7.464844-7.5 7.464844zm0 0"/><path d="m74.757812 496.066406c-.011718 0-.023437 0-.035156 0l-2.84375-.011718c-4.140625-.019532-7.484375-3.394532-7.464844-7.535157.019532-4.128906 3.375-7.464843 7.5-7.464843h.035157l2.84375.011718c4.140625.019532 7.484375 3.394532 7.464843 7.535156-.019531 4.132813-3.375 7.464844-7.5 7.464844zm0 0"/><path d="m489.144531 26.242188c-.011719 0-.023437 0-.035156 0-4.144531-.019532-7.484375-3.394532-7.464844-7.535157l.011719-2.84375c.019531-4.128906 3.375-7.464843 7.5-7.464843h.039062c4.140626.019531 7.480469 3.394531 7.460938 7.535156l-.011719 2.84375c-.019531 4.128906-3.375 7.464844-7.5 7.464844zm0 0"/><path d="m489.054688 55.1875c-.011719 0-.023438 0-.039063 0-4.140625-.023438-7.480469-3.394531-7.460937-7.539062l.011718-2.839844c.019532-4.128906 3.375-7.464844 7.5-7.464844h.035156c4.144532.019531 7.484376 3.394531 7.464844 7.535156l-.011718 2.84375c-.019532 4.128906-3.375 7.464844-7.5 7.464844zm0 0"/><path d="m505 39.34375c-.011719 0-.023438 0-.039062 0l-2.84375-.015625c-4.140626-.019531-7.480469-3.390625-7.460938-7.535156.019531-4.128907 3.371094-7.464844 7.496094-7.464844h.039062l2.84375.015625c4.140625.019531 7.480469 3.394531 7.464844 7.535156-.019531 4.132813-3.375 7.464844-7.5 7.464844zm0 0"/><path d="m476.054688 39.253906c-.011719 0-.023438 0-.035157 0l-2.84375-.011718c-4.140625-.019532-7.484375-3.394532-7.464843-7.539063.019531-4.128906 3.375-7.460937 7.5-7.460937h.035156l2.84375.011718c4.144531.019532 7.484375 3.394532 7.464844 7.535156-.019532 4.128907-3.375 7.464844-7.5 7.464844zm0 0"/><path d="m479.691406 99.761719c-.011718 0-.019531 0-.03125 0h-.117187c-4.140625-.015625-7.484375-3.390625-7.464844-7.53125.015625-4.128907 3.371094-7.46875 7.496094-7.46875h.035156.113281c4.144532.019531 7.484375 3.390625 7.46875 7.535156-.019531 4.128906-3.371094 7.464844-7.5 7.464844zm0 0"/><path d="m296.328125 149.070312h-.117187c-4.144532 0-7.5-3.355468-7.5-7.5 0-4.140624 3.355468-7.5 7.5-7.5h.117187c4.140625 0 7.5 3.359376 7.5 7.5 0 4.144532-3.359375 7.5-7.5 7.5zm0 0"/><path d="m371.53125 472.757812h-.117188c-4.140624 0-7.5-3.359374-7.5-7.5 0-4.140624 3.359376-7.5 7.5-7.5h.117188c4.140625 0 7.5 3.359376 7.5 7.5 0 4.140626-3.359375 7.5-7.5 7.5zm0 0"/><path d="m177.191406 268.171875c-.011718 0-.019531 0-.03125 0h-.117187c-4.140625-.015625-7.484375-3.390625-7.46875-7.53125.019531-4.132813 3.375-7.46875 7.5-7.46875h.035156.113281c4.144532.019531 7.488282 3.390625 7.46875 7.53125-.015625 4.132813-3.371094 7.46875-7.5 7.46875zm0 0"/><path d="m161.683594 311.480469c-.011719 0-.023438 0-.03125 0h-.117188c-4.140625-.015625-7.488281-3.390625-7.46875-7.53125.019532-4.128907 3.371094-7.46875 7.5-7.46875h.03125.117188c4.140625.019531 7.484375 3.390625 7.46875 7.53125-.019532 4.132812-3.375 7.46875-7.5 7.46875zm0 0"/></svg>