<svg height="512pt" viewBox="0 -10 512.00015 512" width="512pt" xmlns="http://www.w3.org/2000/svg"><path d="m477.921875 282.015625c3.5625-.554687 6.378906-3.316406 7.003906-6.871094.625-3.550781-1.078125-7.105469-4.238281-8.847656-11.777344-6.496094-18.8125-18.40625-18.8125-31.859375s7.035156-25.363281 18.8125-31.859375c3.160156-1.738281 4.863281-5.296875 4.238281-8.847656s-3.441406-6.3125-7.003906-6.871094c-13.292969-2.074219-23.980469-10.859375-28.578125-23.503906-4.601562-12.640625-2.066406-26.238281 6.785156-36.375 2.371094-2.714844 2.75-6.636719.949219-9.761719-1.804687-3.121094-5.394531-4.753906-8.929687-4.058594-13.203126 2.597656-26.246094-2.003906-34.894532-12.308594-8.648437-10.308593-10.917968-23.953124-6.066406-36.503906 1.300781-3.363281.316406-7.179687-2.445312-9.496094-2.761719-2.320312-6.691407-2.625-9.777344-.761718-11.519532 6.957031-25.351563 7.09375-37.003906.363281-11.648438-6.726563-18.449219-18.773437-18.183594-32.222656.070312-3.605469-2.15625-6.855469-5.546875-8.089844-3.386719-1.238281-7.183594-.175781-9.449219 2.628906-8.441406 10.476563-21.402344 15.335938-34.644531 13-13.25-2.335937-23.757813-11.332031-28.109375-24.0625-1.164063-3.414062-4.371094-5.707031-7.976563-5.707031-3.609375 0-6.8125 2.292969-7.980469 5.703125-4.351562 12.734375-14.859374 21.730469-28.109374 24.066406-13.246094 2.335938-26.199219-2.523437-34.644532-13-2.265625-2.808593-6.0625-3.867187-9.449218-2.628906-3.390626 1.234375-5.617188 4.484375-5.546876 8.085937.265626 13.453126-6.53125 25.5-18.183593 32.226563-11.652344 6.730469-25.484375 6.589844-37.003907-.367187-3.085937-1.859376-7.015624-1.554688-9.777343.761718-2.761719 2.320313-3.742188 6.136719-2.445313 9.5 4.851563 12.550782 2.585938 26.195313-6.0625 36.5-8.648437 10.308594-21.691406 14.910156-34.894531 12.3125-3.546875-.695312-7.128906.933594-8.929687 4.058594-1.804688 3.121094-1.421876 7.046875.949218 9.761719 8.851563 10.132812 11.386719 23.734375 6.785156 36.375-4.601562 12.644531-15.285156 21.429687-28.582031 23.503906-3.5625.558594-6.375 3.320313-7 6.871094s1.074219 7.105469 4.230469 8.84375c11.78125 6.496093 18.816406 18.410156 18.816406 31.863281s-7.035156 25.363281-18.8125 31.859375c-3.160156 1.738281-4.863281 5.296875-4.238281 8.847656s3.441406 6.3125 7.007813 6.871094c13.292968 2.074219 23.976562 10.859375 28.578124 23.503906 4.597657 12.640625 2.0625 26.238281-6.789062 36.375-2.371094 2.714844-2.75 6.636719-.949219 9.761719 1.804688 3.121094 5.394531 4.75 8.929688 4.058594 13.203125-2.597656 26.246093 2.003906 34.894531 12.308594 8.648438 10.308593 10.917969 23.953124 6.066406 36.503906-1.300781 3.363281-.316406 7.179687 2.445313 9.496094 2.761719 2.320312 6.691406 2.625 9.777343.761718 11.519532-6.957031 25.351563-7.09375 37.003907-.363281 11.648437 6.726563 18.449219 18.773437 18.183593 32.222656-.070312 3.605469 2.15625 6.859375 5.546876 8.089844 3.386718 1.234375 7.1875.175781 9.449218-2.628906 8.441406-10.476563 21.398438-15.335938 34.644532-13 13.25 2.335937 23.757812 11.332031 28.109374 24.0625 1.164063 3.414062 4.371094 5.707031 7.976563 5.707031 3.609375 0 6.8125-2.292969 7.980469-5.703125 4.351562-12.734375 14.859375-21.730469 28.109375-24.066406 13.246093-2.335938 26.203125 2.523437 34.644531 13 2.265625 2.808593 6.0625 3.863281 9.449219 2.632812 3.386719-1.234375 5.617187-4.484375 5.546875-8.089843-.265625-13.453126 6.53125-25.5 18.183594-32.226563 11.652343-6.730469 25.484374-6.59375 37.003906.367187 3.085937 1.859376 7.015625 1.554688 9.777344-.761718 2.761718-2.320313 3.742187-6.136719 2.445312-9.5-4.851562-12.550782-2.585938-26.195313 6.066406-36.5 8.644532-10.308594 21.6875-14.910156 34.890625-12.3125 3.542969.695312 7.128907-.9375 8.933594-4.0625 1.800781-3.125 1.417969-7.046875-.953125-9.757813-8.851562-10.132812-11.386719-23.734375-6.785156-36.375 4.601562-12.644531 15.289062-21.429687 28.582031-23.503906zm-42.675781 18.375c-4.863282 13.359375-4.082032 27.476563 1.859375 39.734375-13.585938.984375-26.203125 7.367188-35.34375 18.257812-9.140625 10.894532-13.234375 24.425782-11.84375 37.976563-13.105469-3.71875-27.140625-2.039063-39.457031 5.070313-12.3125 7.113281-20.789063 18.425781-24.117188 31.636718-11.039062-7.980468-24.808594-11.199218-38.8125-8.730468-14 2.46875-25.835938 10.207031-33.480469 21.476562-7.648437-11.269531-19.480469-19.007812-33.484375-21.476562-3.097656-.546876-6.175781-.8125-9.222656-.8125-10.730469 0-20.988281 3.328124-29.589844 9.542968-3.328125-13.210937-11.804687-24.523437-24.117187-31.636718-12.3125-7.109376-26.351563-8.789063-39.457031-5.070313 1.390624-13.550781-2.703126-27.082031-11.84375-37.976563-9.140626-10.890624-21.757813-17.273437-35.34375-18.257812 5.941406-12.257812 6.722656-26.375 1.859374-39.734375-4.863281-13.363281-14.535156-23.675781-26.964843-29.246094 9.773437-9.488281 15.335937-22.488281 15.335937-36.707031s-5.5625-27.214844-15.335937-36.703125c12.429687-5.574219 22.101562-15.886719 26.964843-29.246094 4.863282-13.363281 4.082032-27.480469-1.859374-39.738281 13.585937-.984375 26.203124-7.367188 35.34375-18.257812 9.140624-10.894532 13.234374-24.425782 11.84375-37.976563 13.105468 3.722656 27.144531 2.039063 39.457031-5.070313 12.3125-7.109374 20.789062-18.425781 24.117187-31.632812 11.039063 7.976562 24.804688 11.195312 38.8125 8.730469 14-2.472657 25.835938-10.207031 33.484375-21.480469 7.644531 11.273438 19.476563 19.007812 33.480469 21.480469 14.003906 2.46875 27.773438-.753907 38.8125-8.730469 3.328125 13.207031 11.804688 24.523438 24.117188 31.632812 12.316406 7.109376 26.355468 8.792969 39.457031 5.070313-1.390625 13.550781 2.703125 27.082031 11.84375 37.976563 9.140625 10.894531 21.757812 17.273437 35.34375 18.257812-5.941407 12.257812-6.722657 26.375-1.859375 39.738281 4.863281 13.359375 14.535156 23.671875 26.964844 29.246094-9.773438 9.484375-15.335938 22.484375-15.335938 36.703125s5.5625 27.21875 15.335938 36.707031c-12.429688 5.570313-22.101563 15.882813-26.964844 29.246094zm0 0"/><path d="m349.628906 108.972656c-3.292968-2.511718-8-1.878906-10.511718 1.414063-2.515626 3.292969-1.878907 8 1.414062 10.511719 5.625 4.292968 10.867188 8.933593 15.71875 13.882812l-53.945312 53.945312c-2.929688 2.929688-2.929688 7.675782 0 10.605469 1.464843 1.464844 3.382812 2.195313 5.300781 2.195313 1.921875 0 3.839843-.730469 5.304687-2.195313l53.273438-53.273437c19.710937 24.875 30.589844 55.695312 30.589844 88.378906 0 35.265625-12.96875 69.125-36.523438 95.34375-2.769531 3.082031-2.515625 7.824219.566406 10.59375 1.433594 1.285156 3.226563 1.917969 5.007813 1.917969 2.058593 0 4.101562-.839844 5.582031-2.488281 26.03125-28.972657 40.367188-66.394532 40.367188-105.367188 0-49.601562-22.648438-95.332031-62.144532-125.464844zm0 0"/><path d="m337.097656 350.523438c-24.320312 17.429687-53.035156 26.640624-83.046875 26.640624-6.515625 0-12.976562-.445312-19.347656-1.3125l6.695313-6.695312c2.929687-2.929688 2.929687-7.675781 0-10.605469-2.929688-2.929687-7.675782-2.929687-10.605469 0l-13.757813 13.753907c-22.25-5.957032-42.859375-17.265626-60.078125-33.253907-3.628906-3.371093-7.058593-6.914062-10.289062-10.601562l113.058593-113.054688c2.925782-2.929687 2.925782-7.679687 0-10.609375-2.929687-2.925781-7.679687-2.925781-10.609374 0l-111.804688 111.804688c-14.636719-20.75-23.515625-45.105469-25.539062-70.789063-.324219-4.128906-3.933594-7.214843-8.0625-6.890625-4.132813.328125-7.214844 3.9375-6.890626 8.066406 3.105469 39.445313 20.835938 76.046876 49.929688 103.0625 29.253906 27.164063 67.359375 42.125 107.300781 42.125 33.167969 0 64.902344-10.183593 91.785157-29.449218 3.367187-2.414063 4.140624-7.097656 1.726562-10.464844s-7.101562-4.140625-10.464844-1.726562zm0 0"/><path d="m104.226562 221.15625c.347657.050781.695313.074219 1.035157.074219 3.6875 0 6.902343-2.722657 7.421875-6.476563 4.664062-33.824218 21.433594-64.929687 47.222656-87.585937 26.027344-22.863281 59.460938-35.457031 94.144531-35.457031 7.085938 0 14.085938.519531 20.976563 1.53125l-101.894532 101.898437c-2.929687 2.925781-2.929687 7.675781 0 10.605469 1.464844 1.464844 3.386719 2.195312 5.304688 2.195312s3.839844-.730468 5.304688-2.195312l108.789062-108.792969c7.304688 2.046875 14.460938 4.6875 21.4375 7.917969 3.757812 1.738281 8.214844.105468 9.957031-3.652344 1.742188-3.757812.105469-8.21875-3.652343-9.957031-20.835938-9.65625-43.117188-14.546875-66.222657-14.546875-38.328125 0-75.277343 13.914062-104.042969 39.183594-28.496093 25.035156-47.027343 59.414062-52.183593 96.804687-.566407 4.105469 2.300781 7.890625 6.402343 8.453125zm0 0"/><path d="m389.09375 20.128906h.117188.03125c4.125 0 7.480468-3.335937 7.496093-7.46875.019531-4.140625-3.324219-7.515625-7.46875-7.53125h-.117187c-.007813 0-.019532 0-.03125 0-4.125 0-7.480469 3.335938-7.496094 7.46875-.019531 4.140625 3.324219 7.515625 7.46875 7.53125zm0 0"/><path d="m477.613281 419.910156h-.121093c-4.140626 0-7.5 3.359375-7.5 7.5 0 4.144532 3.359374 7.5 7.5 7.5h.121093c4.140625 0 7.5-3.355468 7.5-7.5 0-4.140625-3.359375-7.5-7.5-7.5zm0 0"/><path d="m446.71875 419.910156h-.117188c-.011718 0-.023437 0-.035156 0-4.125 0-7.480468 3.339844-7.496094 7.46875-.019531 4.144532 3.324219 7.515625 7.46875 7.53125h.117188.03125c4.128906 0 7.480469-3.335937 7.5-7.46875.015625-4.140625-3.328125-7.511718-7.46875-7.53125zm0 0"/><path d="m201.71875 477.117188h-.117188c-4.144531 0-7.5 3.355468-7.5 7.5 0 4.140624 3.355469 7.5 7.5 7.5h.117188c4.144531 0 7.5-3.359376 7.5-7.5 0-4.144532-3.359375-7.5-7.5-7.5zm0 0"/><path d="m15.117188 136.667969c.019531-4.140625-3.324219-7.515625-7.46875-7.53125h-.117188c-.011719 0-.019531 0-.03125 0-4.128906 0-7.4804688 3.335937-7.5 7.46875-.015625 4.144531 3.328125 7.515625 7.46875 7.53125h.117188.03125c4.128906 0 7.484374-3.335938 7.5-7.46875zm0 0"/><path d="m43.742188 32.453125h.117187c4.144531 0 7.5-3.355469 7.5-7.5 0-4.140625-3.355469-7.5-7.5-7.5h-.117187c-4.140626 0-7.5 3.359375-7.5 7.5 0 4.144531 3.359374 7.5 7.5 7.5zm0 0"/><path d="m67.878906 20.296875h.117188.03125c4.128906 0 7.484375-3.335937 7.5-7.46875.019531-4.144531-3.324219-7.515625-7.46875-7.53125h-.117188c-.011718 0-.019531 0-.03125 0-4.128906 0-7.480468 3.335937-7.5 7.46875-.015625 4.140625 3.328125 7.511719 7.46875 7.53125zm0 0"/><path d="m30.546875 437.566406h.035156c4.125 0 7.480469-3.335937 7.5-7.464844l.011719-2.652343c.019531-4.144531-3.320312-7.515625-7.460938-7.539063-4.128906-.023437-7.519531 3.324219-7.539062 7.464844l-.011719 2.65625c-.019531 4.140625 3.320313 7.515625 7.464844 7.535156zm0 0"/><path d="m30.546875 446.929688c-.011719 0-.023437 0-.035156 0-4.125 0-7.480469 3.332031-7.5 7.460937l-.011719 2.65625c-.023438 4.140625 3.320312 7.515625 7.460938 7.535156h.039062c4.125 0 7.476562-3.332031 7.5-7.464843l.011719-2.652344c.019531-4.144532-3.324219-7.515625-7.464844-7.535156zm0 0"/><path d="m45.417969 434.796875-2.652344-.015625c-.015625 0-.027344 0-.039063 0-4.125 0-7.476562 3.335938-7.5 7.464844-.019531 4.140625 3.324219 7.515625 7.464844 7.535156l2.65625.015625h.035156c4.125 0 7.480469-3.335937 7.5-7.464844.019532-4.144531-3.324218-7.515625-7.464843-7.535156zm0 0"/><path d="m25.863281 442.246094c.023438-4.140625-3.320312-7.515625-7.460937-7.535156l-2.65625-.011719c-.011719 0-.023438 0-.035156 0-4.125 0-7.480469 3.332031-7.5 7.460937-.019532 4.144532 3.320312 7.519532 7.464843 7.539063l2.652344.011719h.039063c4.125 0 7.480468-3.332032 7.496093-7.464844zm0 0"/><path d="m489.664062 33.410156h.035157c4.125 0 7.480469-3.335937 7.5-7.464844l.015625-2.652343c.019531-4.144531-3.324219-7.515625-7.464844-7.535157-.015625 0-.023438 0-.039062 0-4.125 0-7.476563 3.332032-7.496094 7.460938l-.015625 2.65625c-.019531 4.140625 3.324219 7.515625 7.464843 7.535156zm0 0"/><path d="m489.667969 42.773438c-.015625 0-.027344 0-.039063 0-4.125 0-7.480468 3.332031-7.5 7.460937l-.011718 2.65625c-.019532 4.140625 3.320312 7.515625 7.464843 7.535156h.035157c4.125 0 7.480468-3.332031 7.5-7.464843l.011718-2.652344c.019532-4.140625-3.320312-7.515625-7.460937-7.535156zm0 0"/><path d="m504.535156 30.640625-2.652344-.015625c-.015624 0-.023437 0-.039062 0-4.125 0-7.476562 3.335938-7.496094 7.464844-.023437 4.140625 3.320313 7.515625 7.460938 7.535156l2.65625.015625h.035156c4.125 0 7.480469-3.335937 7.5-7.464844.019531-4.144531-3.320312-7.515625-7.464844-7.535156zm0 0"/><path d="m474.792969 45.542969 2.652343.011719h.039063c4.125 0 7.480469-3.332032 7.5-7.460938.019531-4.144531-3.324219-7.519531-7.464844-7.539062l-2.652343-.011719c-.015626 0-.023438 0-.039063 0-4.125 0-7.476563 3.335937-7.5 7.464843-.015625 4.140626 3.324219 7.515626 7.464844 7.535157zm0 0"/><path d="m99.960938 447.410156h.035156c4.125 0 7.480468-3.332031 7.5-7.464844l.011718-2.652343c.019532-4.140625-3.320312-7.515625-7.464843-7.535157-4.152344-.003906-7.515625 3.320313-7.535157 7.464844l-.011718 2.652344c-.019532 4.140625 3.320312 7.515625 7.464844 7.535156zm0 0"/><path d="m99.960938 456.773438c-.011719 0-.023438 0-.035157 0-4.125 0-7.480469 3.332031-7.5 7.464843l-.015625 2.652344c-.019531 4.140625 3.324219 7.515625 7.464844 7.535156h.039062c4.125 0 7.476563-3.332031 7.496094-7.460937l.015625-2.65625c.019531-4.140625-3.324219-7.515625-7.464843-7.535156zm0 0"/><path d="m114.832031 444.640625-2.65625-.011719c-.011719 0-.023437 0-.035156 0-4.125 0-7.480469 3.332032-7.5 7.460938-.019531 4.144531 3.324219 7.515625 7.464844 7.539062l2.652343.011719h.039063c4.125 0 7.476563-3.335937 7.5-7.464844.019531-4.140625-3.324219-7.515625-7.464844-7.535156zm0 0"/><path d="m95.277344 452.09375c.023437-4.144531-3.320313-7.515625-7.460938-7.535156l-2.65625-.015625c-.011718 0-.023437 0-.035156 0-4.125 0-7.480469 3.335937-7.5 7.464843-.019531 4.140626 3.320312 7.515626 7.464844 7.535157l2.652344.015625h.039062c4.125 0 7.480469-3.335938 7.496094-7.464844zm0 0"/><path d="m269.890625 262.832031-28.578125 28.578125c-2.925781 2.929688-2.925781 7.679688 0 10.605469 1.464844 1.464844 3.386719 2.199219 5.304688 2.199219 1.917968 0 3.839843-.734375 5.304687-2.199219l28.578125-28.578125c2.929688-2.925781 2.929688-7.675781 0-10.605469-2.929688-2.925781-7.679688-2.929687-10.609375 0zm0 0"/><path d="m303.589844 312.480469c1.917968 0 3.839844-.730469 5.300781-2.195313l11.667969-11.667968c2.929687-2.929688 2.929687-7.675782 0-10.605469-2.925782-2.929688-7.675782-2.929688-10.605469 0l-11.667969 11.667969c-2.929687 2.929687-2.929687 7.675781 0 10.605468 1.464844 1.464844 3.382813 2.195313 5.304688 2.195313zm0 0"/><path d="m377.066406 231.503906c-2.929687-2.929687-7.675781-2.929687-10.605468 0l-35.507813 35.507813c-2.929687 2.929687-2.929687 7.679687 0 10.605469 1.464844 1.464843 3.382813 2.199218 5.304687 2.199218 1.917969 0 3.835938-.734375 5.300782-2.199218l35.507812-35.507813c2.929688-2.929687 2.929688-7.675781 0-10.605469zm0 0"/></svg>