<svg height="512pt" viewBox="-67 0 512 512.001" width="512pt" xmlns="http://www.w3.org/2000/svg"><path d="m361.4375 465.597656v-6.363281c9.464844-3.148437 16.308594-12.082031 16.308594-22.589844 0-13.128906-10.679688-23.808593-23.808594-23.808593-5.011719 0-9.660156 1.558593-13.5 4.210937l-61.804688-46.761719c.753907-2.316406 1.167969-4.785156 1.167969-7.351562 0-13.125-10.679687-23.808594-23.808593-23.808594-2.246094 0-4.414063.320312-6.472657.902344l-5.96875-8.605469c3.125-4.027344 4.988281-9.078125 4.988281-14.558594 0-6.621093-2.714843-12.617187-7.09375-16.933593l10.859376-21.179688c1.21875.191406 2.460937.292969 3.734374.292969 13.125 0 23.808594-10.679688 23.808594-23.808594s-10.683594-23.808594-23.808594-23.808594c-8.507812 0-15.984374 4.488281-20.195312 11.214844l-17.042969-3.957031c-.164062-1.914063-.554687-3.757813-1.144531-5.515625l15.910156-12.023438c3.839844 2.65625 8.492188 4.214844 13.503906 4.214844 13.128907 0 23.8125-10.679687 23.8125-23.808594 0-13.128906-10.683593-23.808593-23.8125-23.808593-2.175781 0-4.28125.296874-6.285156.847656l-10.1875-15.375c3.175782-4.046875 5.074219-9.140625 5.074219-14.667969 0-13.128906-10.679687-23.8125-23.808594-23.8125-.503906 0-1.003906.023437-1.5.054687l-33.03125-82.785156c5.179688-4.371094 8.476563-10.902344 8.476563-18.195312 0-13.128906-10.679688-23.808594-23.808594-23.808594s-23.808594 10.679688-23.808594 23.808594 10.679688 23.808594 23.808594 23.808594c.472656 0 .941406-.015626 1.40625-.042969l33.050781 82.839843c-5.136719 4.371094-8.402343 10.875-8.402343 18.132813 0 13.128906 10.679687 23.808594 23.808593 23.808594 2.160157 0 4.25-.292969 6.242188-.835938l10.203125 15.402344c-3.15625 4.039063-5.046875 9.117187-5.046875 14.628906 0 2.667969.449219 5.230469 1.261719 7.625l-15.875 11.996094c-3.851563-2.679687-8.527344-4.257813-13.566407-4.257813-13.128906 0-23.808593 10.679688-23.808593 23.808594s10.679687 23.808594 23.808593 23.808594c8.527344 0 16.015625-4.503906 20.222657-11.257812l17.011718 3.949218c.472656 5.664063 2.929688 10.769532 6.675782 14.617188l-10.996094 21.445312c-1.070313-.148437-2.15625-.230468-3.265625-.230468-6.882813 0-13.085938 2.9375-17.4375 7.625l-12.308594-5.722657c.09375-.867187.148437-1.746093.148437-2.640625 0-13.128906-10.679687-23.808594-23.808593-23.808594-4.160157 0-8.074219 1.074219-11.480469 2.957032.921875-2.53125 1.421875-5.261719 1.421875-8.105469 0-13.128906-10.679687-23.808594-23.808594-23.808594-2.820312 0-5.527343.496094-8.039062 1.398438l-85.984375-113.375c2.636718-3.832031 4.1875-8.46875 4.1875-13.464844 0-13.128906-10.683594-23.808594-23.8125-23.808594s-23.808594 10.679688-23.808594 23.808594 10.679688 23.808594 23.808594 23.808594c2.6875 0 5.265625-.453125 7.675781-1.277344l86.136719 113.574219c-2.507813 3.769531-3.972656 8.289062-3.972656 13.144531 0 13.128906 10.683593 23.808594 23.808593 23.808594 4.160157 0 8.074219-1.074219 11.480469-2.957031-.921875 2.53125-1.421875 5.261718-1.421875 8.105468 0 13.128906 10.679687 23.808594 23.808594 23.808594 6.847656 0 13.023437-2.910156 17.371093-7.550781l12.363282 5.746093c-.085938.835938-.136719 1.683594-.136719 2.542969 0 13.128907 10.679687 23.8125 23.808594 23.8125 2.210937 0 4.347656-.3125 6.378906-.875l6 8.65625c-3.085937 4.015625-4.929687 9.035157-4.929687 14.476563 0 13.128906 10.683593 23.8125 23.8125 23.8125 5.117187 0 9.855468-1.628906 13.742187-4.386719l61.65625 46.652344c-.8125 2.398437-1.261719 4.960937-1.261719 7.632812 0 10.507813 6.84375 19.441407 16.308594 22.589844v6.367187c-9.464844 3.148438-16.308594 12.082032-16.308594 22.589844 0 13.128906 10.679688 23.808594 23.808594 23.808594s23.808594-10.679688 23.808594-23.808594c0-10.507812-6.847656-19.441406-16.308594-22.59375zm-208.246094-441.789062c0-4.855469 3.949219-8.808594 8.808594-8.808594s8.808594 3.953125 8.808594 8.808594c0 4.855468-3.949219 8.808594-8.808594 8.808594s-8.808594-3.949219-8.808594-8.808594zm102.84375 222.621094c4.859375 0 8.808594 3.949218 8.808594 8.808593 0 4.855469-3.949219 8.808594-8.808594 8.808594-4.855468 0-8.808594-3.953125-8.808594-8.808594 0-4.859375 3.953126-8.808593 8.808594-8.808593zm-.152344-44.878907c0 4.859375-3.953124 8.8125-8.8125 8.8125-4.855468 0-8.808593-3.953125-8.808593-8.8125 0-4.855469 3.953125-8.808593 8.808593-8.808593 4.859376 0 8.8125 3.953124 8.8125 8.808593zm-52.828124-53.003906c0-4.855469 3.949218-8.808594 8.808593-8.808594s8.808594 3.953125 8.808594 8.808594-3.949219 8.808594-8.808594 8.808594-8.808593-3.949219-8.808593-8.808594zm-7.972657 100.984375c-4.855469 0-8.808593-3.949219-8.808593-8.808594s3.953124-8.808594 8.808593-8.808594c4.859375 0 8.808594 3.953126 8.808594 8.808594 0 4.855469-3.949219 8.808594-8.808594 8.808594zm-180.082031-135.421875c0-4.855469 3.953125-8.808594 8.8125-8.808594 4.855469 0 8.808594 3.953125 8.808594 8.808594 0 4.859375-3.953125 8.808594-8.808594 8.808594-4.859375 0-8.8125-3.949219-8.8125-8.808594zm122.457031 158.058594c-4.855469 0-8.808593-3.953125-8.808593-8.808594s3.953124-8.808594 8.808593-8.808594c4.859375 0 8.8125 3.953125 8.8125 8.808594s-3.953125 8.808594-8.8125 8.808594zm33.867188 28.957031c-4.855469 0-8.808594-3.953125-8.808594-8.808594 0-4.855468 3.949219-8.808594 8.808594-8.808594s8.808593 3.953126 8.808593 8.808594c0 4.855469-3.949218 8.808594-8.808593 8.808594zm44.597656 15.742188c0-4.859376 3.953125-8.8125 8.808594-8.8125 4.859375 0 8.8125 3.953124 8.8125 8.8125 0 4.855468-3.953125 8.808593-8.8125 8.808593-4.855469 0-8.808594-3.953125-8.808594-8.808593zm40.070313 54.878906c-4.859376 0-8.8125-3.953125-8.8125-8.8125 0-4.855469 3.953124-8.808594 8.8125-8.808594 4.855468 0 8.808593 3.953125 8.808593 8.808594 0 4.859375-3.953125 8.8125-8.808593 8.8125zm97.945312 56.089844c4.855469 0 8.808594 3.949218 8.808594 8.808593 0 4.855469-3.953125 8.808594-8.808594 8.808594-4.859375 0-8.808594-3.953125-8.808594-8.808594 0-4.859375 3.949219-8.808593 8.808594-8.808593zm0 69.164062c-4.859375 0-8.808594-3.953125-8.808594-8.808594 0-4.855468 3.949219-8.808594 8.808594-8.808594 4.855469 0 8.808594 3.953126 8.808594 8.808594 0 4.855469-3.953125 8.808594-8.808594 8.808594zm0 0"/><path d="m285.847656 137.058594h.039063c4.125 0 7.476562-3.335938 7.496093-7.464844l.015626-2.722656c.019531-4.144532-3.324219-7.515625-7.464844-7.535156-.015625 0-.023438 0-.035156 0-4.125 0-7.480469 3.335937-7.5 7.464843l-.015626 2.722657c-.019531 4.140624 3.324219 7.511718 7.464844 7.535156zm0 0"/><path d="m285.847656 147.039062c-4.1875-.011718-7.515625 3.324219-7.535156 7.464844l-.015625 2.722656c-.019531 4.140626 3.324219 7.515626 7.464844 7.535157h.039062c4.125 0 7.476563-3.335938 7.496094-7.464844l.015625-2.722656c.019531-4.140625-3.324219-7.515625-7.464844-7.535157zm0 0"/><path d="m290.839844 142.046875c-.019532 4.144531 3.320312 7.515625 7.464844 7.539063l2.722656.011718h.035156c4.125 0 7.480469-3.335937 7.5-7.464844.019531-4.140624-3.320312-7.515624-7.464844-7.535156l-2.722656-.011718c-.011719 0-.023438 0-.035156 0-4.125 0-7.480469 3.332031-7.5 7.460937zm0 0"/><path d="m270.597656 149.5 2.722656.011719h.039063c4.125 0 7.476563-3.332031 7.496094-7.464844.019531-4.140625-3.320313-7.515625-7.464844-7.535156l-2.71875-.011719c-.011719 0-.023437 0-.039063 0-4.125 0-7.476562 3.332031-7.5 7.464844-.019531 4.140625 3.324219 7.515625 7.464844 7.535156zm0 0"/><path d="m58.332031 269.214844h.039063c4.121094 0 7.476562-3.335938 7.496094-7.464844l.015624-2.722656c.019532-4.140625-3.320312-7.515625-7.460937-7.535156-.015625 0-.027344 0-.039063 0-4.125 0-7.480468 3.332031-7.5 7.460937l-.015624 2.722656c-.019532 4.140625 3.320312 7.515625 7.464843 7.539063zm0 0"/><path d="m58.332031 279.195312c-.011719 0-.023437 0-.035156 0-4.125 0-7.480469 3.335938-7.5 7.464844l-.011719 2.722656c-.023437 4.140626 3.320313 7.515626 7.464844 7.535157h.035156c4.125 0 7.476563-3.335938 7.5-7.464844l.011719-2.722656c.019531-4.140625-3.324219-7.515625-7.464844-7.535157zm0 0"/><path d="m73.582031 266.753906-2.722656-.011718c-.011719 0-.023437 0-.035156 0-4.125 0-7.480469 3.332031-7.5 7.460937-.019531 4.144531 3.320312 7.519531 7.464843 7.539063l2.722657.011718h.035156c4.125 0 7.480469-3.332031 7.5-7.464844.019531-4.140624-3.320313-7.515624-7.464844-7.535156zm0 0"/><path d="m53.339844 274.203125c.023437-4.140625-3.320313-7.515625-7.464844-7.535156l-2.71875-.011719c-.015625 0-.023438 0-.039062 0-4.125 0-7.476563 3.332031-7.496094 7.464844-.023438 4.140625 3.320312 7.515625 7.464844 7.535156l2.71875.011719h.039062c4.125 0 7.476562-3.335938 7.496094-7.464844zm0 0"/><path d="m285.359375 447.960938h.035156c4.125 0 7.476563-3.335938 7.496094-7.464844l.015625-2.722656c.019531-4.140626-3.324219-7.515626-7.464844-7.535157-.015625 0-.023437 0-.035156 0-4.125 0-7.480469 3.335938-7.5 7.464844l-.015625 2.722656c-.015625 4.140625 3.324219 7.515625 7.46875 7.535157zm0 0"/><path d="m285.355469 457.945312c-.015625 0-.023438 0-.035157 0-4.125 0-7.480468 3.332032-7.5 7.464844l-.015624 2.722656c-.019532 4.140626 3.324218 7.515626 7.46875 7.53125h.035156c4.125 0 7.476562-3.332031 7.496094-7.464843l.015624-2.71875c.019532-4.144531-3.324218-7.515625-7.464843-7.535157zm0 0"/><path d="m300.605469 445.503906-2.722657-.015625c-4.128906-.066406-7.515624 3.324219-7.535156 7.464844-.019531 4.144531 3.324219 7.515625 7.464844 7.535156l2.722656.015625h.035156c4.125 0 7.480469-3.335937 7.5-7.46875.019532-4.140625-3.324218-7.515625-7.464843-7.53125zm0 0"/><path d="m280.363281 452.953125c.019531-4.140625-3.320312-7.515625-7.460937-7.535156l-2.722656-.015625c-.011719 0-.023438 0-.039063 0-4.125 0-7.476563 3.335937-7.5 7.464844-.019531 4.144531 3.324219 7.515624 7.464844 7.535156l2.722656.015625h.039063c4.125 0 7.476562-3.335938 7.496093-7.464844zm0 0"/><path d="m327.367188 174.980469h.039062c4.125 0 7.476562-3.332031 7.5-7.460938l.011719-2.722656c.023437-4.144531-3.320313-7.519531-7.460938-7.539063-.015625 0-.027343 0-.039062 0-4.125 0-7.480469 3.332032-7.5 7.460938l-.011719 2.722656c-.023438 4.144532 3.320312 7.519532 7.460938 7.539063zm0 0"/><path d="m327.367188 184.964844c-.011719 0-.023438 0-.035157 0-4.125 0-7.480469 3.332031-7.5 7.464844l-.011719 2.71875c-.019531 4.144531 3.320313 7.515624 7.464844 7.535156h.035156c4.125 0 7.480469-3.332032 7.5-7.464844l.011719-2.722656c.019531-4.140625-3.324219-7.515625-7.464843-7.53125zm0 0"/><path d="m332.359375 179.972656c-.019531 4.140625 3.320313 7.515625 7.464844 7.535156l2.722656.011719h.035156c4.125 0 7.480469-3.332031 7.5-7.464843.019531-4.140626-3.320312-7.515626-7.464843-7.535157l-2.722657-.011719c-.011719 0-.023437 0-.035156 0-4.125 0-7.480469 3.332032-7.5 7.464844zm0 0"/><path d="m304.65625 179.886719c-.019531 4.140625 3.320312 7.515625 7.464844 7.535156l2.71875.011719h.039062c4.125 0 7.480469-3.332032 7.5-7.460938.019532-4.144531-3.324218-7.519531-7.464844-7.539062l-2.722656-.011719c-.011718 0-.023437 0-.035156 0-4.125 0-7.480469 3.335937-7.5 7.464844zm0 0"/><path d="m99.898438 97.847656h.035156c4.125 0 7.480468-3.332031 7.5-7.464844l.011718-2.722656c.019532-4.140625-3.324218-7.515625-7.464843-7.53125-.011719 0-.023438 0-.035157 0-4.125 0-7.480468 3.332032-7.5 7.464844l-.011718 2.71875c-.019532 4.144531 3.324218 7.515625 7.464844 7.535156zm0 0"/><path d="m99.894531 107.832031c-.011719 0-.023437 0-.035156 0-4.125 0-7.480469 3.335938-7.5 7.464844l-.011719 2.722656c-.019531 4.140625 3.320313 7.515625 7.464844 7.535157h.035156c4.125 0 7.480469-3.335938 7.5-7.464844l.011719-2.722656c.019531-4.140626-3.324219-7.515626-7.464844-7.535157zm0 0"/><path d="m104.886719 102.84375c-.019531 4.140625 3.324219 7.515625 7.464843 7.535156l2.722657.011719h.039062c4.125 0 7.476563-3.335937 7.496094-7.464844.019531-4.144531-3.320313-7.515625-7.464844-7.535156l-2.722656-.011719c-.011719 0-.019531 0-.035156 0-4.125 0-7.480469 3.332032-7.5 7.464844zm0 0"/><path d="m84.648438 110.292969 2.722656.011719h.035156c4.125 0 7.476562-3.335938 7.5-7.464844.019531-4.140625-3.324219-7.515625-7.464844-7.535156l-2.722656-.011719c-.015625 0-.023438 0-.039062 0-4.125 0-7.476563 3.335937-7.496094 7.464843-.019532 4.140626 3.324218 7.515626 7.464844 7.535157zm0 0"/></svg>