<svg height="511pt" viewBox="0 -3 511.99999 511" width="511pt" xmlns="http://www.w3.org/2000/svg"><path d="m511.527344 483.78125c-11.234375-48.933594-36.148438-93.777344-72.050782-129.683594-5.613281-5.609375-11.585937-11.074218-17.753906-16.246094-3.175781-2.660156-7.90625-2.242187-10.566406.933594-2.660156 3.175782-2.242188 7.90625.933594 10.566406 5.832031 4.886719 11.476562 10.054688 16.78125 15.355469 2.390625 2.390625 4.722656 4.828125 7.011718 7.300781-29.578124-.015624-67.027343-.015624-109.621093.003907-17.144531 0-33.449219-4.355469-47.152344-12.59375-19.335937-11.605469-45.164063-17.996094-72.726563-17.996094-27.636718 0-53.515624 6.421875-72.878906 18.085937-2.152344 1.300782-4.421875 2.527344-6.742187 3.648438-12.15625 5.867188-26.15625 8.984375-40.480469 9.019531-3.996094.003907-9.730469.007813-16.5.007813 3.621094-4.160156 7.386719-8.214844 11.316406-12.144532 3.5-3.5 7.308594-7.058593 11.320313-10.585937 1.648437-1.445313 2.582031-3.539063 2.550781-5.734375l-.214844-16.492188c-.019531-1.503906.785156-2.882812 2.105469-3.605468l36.117187-19.722656c1.316407-.722657 2.914063-.652344 4.167969.175781l9 5.953125c2.128907 1.40625 4.820313 1.636718 7.15625.609375 14.914063-6.550781 30.417969-11.53125 46.347657-14.925781v12.765624h-12.816407c-5.53125 0-10.710937 2.453126-14.214843 6.738282l-5.054688 6.183594c-2.621094 3.207031-2.144531 7.933593 1.0625 10.554687 1.390625 1.140625 3.070312 1.691406 4.742188 1.691406 2.171874 0 4.328124-.9375 5.808593-2.753906l5.054688-6.183594c.640625-.78125 1.589843-1.230469 2.601562-1.230469h40.472657c1.039062 0 2.039062.492188 2.667968 1.320313l4.3125 5.644531c2.515625 3.292969 7.222656 3.925782 10.515625 1.410156 3.292969-2.511718 3.921875-7.21875 1.410157-10.511718l-4.3125-5.648438c-3.453126-4.519531-8.90625-7.21875-14.59375-7.21875h-12.652344v-15.46875c6.449218-.957031 12.960937-1.667968 19.527344-2.109375 4.132812-.277343 7.257812-3.851562 6.976562-7.988281-.277344-4.128906-3.847656-7.242188-7.984375-6.976562-6.222656.417968-12.394531 1.066406-18.519531 1.921874v-138.554687h24.089844v27.265625c0 5.828125 2.738281 11.015625 6.980468 14.382812.21875.183594.445313.351563.679688.507813 3.015625 2.171875 6.703125 3.46875 10.699218 3.46875h138.992188c10.125 0 18.359375-8.234375 18.359375-18.359375v-89.050781c0-10.125-8.234375-18.359375-18.359375-18.359375h-42.449219v-27.265625c0-10.121094-8.238281-18.355469-18.359375-18.355469h-65.953125c-4.140625 0-7.5 3.355469-7.5 7.5 0 4.140625 3.359375 7.5 7.5 7.5h65.953125c1.851563 0 3.359375 1.507812 3.359375 3.355469v17.601562h-123.992187v-20.957031h22.019531c4.144531 0 7.503906-3.359375 7.503906-7.5 0-4.144531-3.359375-7.5-7.503906-7.5h-22.019531v-5.53125c0-4.144531-3.359375-7.5-7.5-7.5-4.144532 0-7.5 3.355469-7.5 7.5v272.394531c-16.683594 3.335938-32.941406 8.304688-48.609375 14.890625l-5.625-3.722656c-5.898438-3.898438-13.417969-4.21875-19.628907-.828125l-36.121093 19.722656c-6.207031 3.390625-10.007813 9.890625-9.914063 16.964844l.171875 13.070313c-3.308593 2.980468-6.472656 5.980468-9.433593 8.941406-36.917969 36.914062-61.199219 83.746094-70.21875 135.429687-.929688 5.3125.535156 10.738281 4.019531 14.882813 3.503906 4.167968 8.636719 6.5625 14.082031 6.5625h475.265625c5.617187 0 10.84375-2.519532 14.34375-6.914063 3.515625-4.414062 4.804687-10.105469 3.542969-15.613281zm-296.875-373.664062h123.992187v10.824218c0 1.851563-1.507812 3.355469-3.359375 3.355469h-88.867187c-.058594 0-.113281-.007813-.175781-.007813-.058594 0-.113282.007813-.171876.007813h-31.417968zm184.800781 27.339843h-56.207031c6.140625-2.972656 10.398437-9.25 10.398437-16.515625v-10.824218h45.808594zm-93.753906 1.84375-51.957031 25.980469v-25.980469zm90.394531 30.621094h-118.09375l34.921875-17.464844h86.53125v14.105469c0 1.855469-1.507813 3.359375-3.359375 3.359375zm0-95.765625c1.851562 0 3.359375 1.503906 3.359375 3.355469v17.601562h-45.808594v-20.957031zm-57.449219-9.667969v30.625h-123.992187v-30.625zm-252.335937 322.6875c16.5625-.039062 32.804687-3.671875 46.96875-10.507812 2.746094-1.324219 5.429687-2.777344 7.972656-4.316407 16.804688-10.125 40.542969-15.929687 65.128906-15.929687 24.523438 0 48.214844 5.78125 65.003906 15.855469 16.03125 9.640625 35.007813 14.734375 54.882813 14.734375 49.019531-.023438 91.234375-.019531 122.460937.003906 8.546876 10.804687 16.183594 22.234375 22.832032 34.183594-31.429688-.050781-80.085938-.066407-145.027344-.042969-19.886719 0-38.898438 5.125-54.988281 14.832031-3.796875 2.300781-8.042969 4.421875-12.617188 6.300781-15.355469 6.320313-33.523437 9.664063-52.546875 9.664063-24.558594 0-48.273437-5.796875-65.066406-15.902344-16.039062-9.636719-34.984375-14.730469-54.804688-14.730469h-.136718c-8.882813.007813-26.3125.015626-44.675782.023438l-4.886718.003906c5.988281-11.945312 12.984375-23.367187 20.941406-34.164062 11.960938 0 22.347656 0 28.558594-.007813zm409.941406 102.875c-.371094.46875-1.207031 1.253907-2.609375 1.253907h-475.265625c-1.375 0-2.21875-.757813-2.601562-1.210938-.367188-.4375-.949219-1.363281-.726563-2.652344 3.09375-17.714844 8.097656-34.816406 14.882813-51.089844l11.773437-.003906c18.363281-.007812 35.792969-.019531 44.683594-.023437h.117187c17.097656 0 33.378906 4.351562 47.074219 12.585937 19.339844 11.636719 45.195313 18.046875 72.800781 18.046875 20.964844 0 41.109375-3.734375 58.25-10.792969 5.285156-2.167968 10.226563-4.640624 14.675782-7.335937 13.738281-8.289063 30.070312-12.667969 47.230468-12.667969 70.511719-.023437 121.832032-.003906 152.726563.054688 7.667969 16.246094 13.597656 33.304687 17.640625 50.921875.328125 1.414062-.269532 2.433593-.652344 2.914062zm0 0"/><path d="m295.300781 291.285156 18.007813-17.347656c1.082031-1.042969 2.644531-1.398438 4.070312-.929688l39.09375 12.84375c1.429688.472657 2.472656 1.683594 2.726563 3.164063l4.253906 24.898437c.390625 2.296876 1.832031 4.28125 3.894531 5.371094 6.359375 3.351563 12.714844 7.0625 18.894532 11.039063 1.253906.808593 2.660156 1.191406 4.050781 1.191406 2.464843 0 4.882812-1.214844 6.316406-3.441406 2.238281-3.484375 1.230469-8.125-2.253906-10.367188-5.480469-3.523437-11.09375-6.855469-16.734375-9.933593l-3.636719-21.285157c-1.191406-6.976562-6.109375-12.679687-12.828125-14.886719l-39.097656-12.84375c-6.71875-2.210937-14.0625-.53125-19.15625 4.375l-15.351563 14.789063c-6.839843-.964844-13.804687-1.664063-20.757812-2.089844-4.121094-.234375-7.691407 2.894531-7.945313 7.027344-.25 4.132813 2.894532 7.691406 7.027344 7.945313 7.75.472656 15.511719 1.3125 23.070312 2.488281 2.308594.359375 4.667969-.382813 6.355469-2.007813zm0 0"/><path d="m331.277344 451.898438c-.007813 0-.019532 0-.03125 0-4.140625.019531-7.484375 3.390624-7.46875 7.53125v.113281c.019531 4.132812 3.375 7.46875 7.5 7.46875h.035156c4.140625-.019531 7.484375-3.394531 7.464844-7.535157v-.109374c-.015625-4.132813-3.371094-7.46875-7.5-7.46875zm0 0"/><path d="m271.003906 324.175781c-.011718 0-.019531 0-.03125 0-4.144531.019531-7.484375 3.390625-7.46875 7.53125v.113281c.019532 4.132813 3.371094 7.46875 7.5 7.46875h.035156c4.140626-.019531 7.484376-3.394531 7.464844-7.535156v-.109375c-.015625-4.132812-3.371094-7.46875-7.5-7.46875zm0 0"/><path d="m307.054688 457.050781c-.011719 0-.023438 0-.035157 0-4.140625.019531-7.484375 3.390625-7.464843 7.53125v.113281c.015624 4.132813 3.371093 7.46875 7.5 7.46875h.03125c4.140624-.019531 7.484374-3.390624 7.46875-7.53125v-.113281c-.019532-4.132812-3.375-7.46875-7.5-7.46875zm0 0"/><path d="m203.769531 438.582031c26.015625 0 46.390625-14.953125 46.390625-34.039062 0-19.082031-20.375-34.035157-46.390625-34.035157s-46.394531 14.953126-46.394531 34.035157c0 19.085937 20.378906 34.039062 46.394531 34.039062zm0-53.074219c17.015625 0 31.390625 8.71875 31.390625 19.035157 0 10.320312-14.375 19.035156-31.390625 19.035156-17.019531 0-31.394531-8.714844-31.394531-19.035156 0-10.316407 14.375-19.035157 31.394531-19.035157zm0 0"/><path d="m446.21875 456.761719c-3.449219-4.523438-8.90625-7.21875-14.589844-7.21875h-18.753906c-5.53125 0-10.710938 2.453125-14.214844 6.738281l-5.054687 6.1875c-2.621094 3.207031-2.144531 7.929688 1.0625 10.550781 3.207031 2.621094 7.929687 2.148438 10.550781-1.058593l5.054688-6.1875c.640624-.78125 1.589843-1.230469 2.601562-1.230469h18.753906c1.039063 0 2.039063.492187 2.667969 1.320312l8.382813 10.976563c1.472656 1.933594 3.707031 2.945312 5.964843 2.945312 1.585938 0 3.1875-.5 4.546875-1.539062 3.292969-2.511719 3.921875-7.21875 1.40625-10.511719zm0 0"/></svg>