<svg height="512pt" viewBox="0 -5 512 512" width="512pt" xmlns="http://www.w3.org/2000/svg"><path d="m482.984375 268.933594h-3.917969c13.933594-26.296875 21.28125-55.71875 21.28125-85.71875 0-32.308594-8.53125-64.070313-24.664062-91.855469-15.648438-26.949219-38.070313-49.636719-64.847656-65.601563-3.558594-2.121093-8.160157-.957031-10.28125 2.597657-2.121094 3.558593-.957032 8.164062 2.597656 10.285156 21.695312 12.9375 40.273437 30.683594 54.21875 51.675781h-59.1875c-9.144532 0-17.742188-3.558594-24.207032-10.027344-9.300781-9.296874-21.664062-14.417968-34.816406-14.417968h-31.332031c-3.976563-10.757813-16.347656-18.402344-31.394531-18.402344-1.84375 0-3.671875.132812-5.472656.371094-4.496094-7.785156-10.28125-14.726563-17.070313-20.542969 20.042969-8.160156 41.269531-12.296875 63.242187-12.296875 19.160157 0 37.976563 3.207031 55.921876 9.53125 3.90625 1.378906 8.1875-.671875 9.566406-4.582031 1.375-3.90625-.675782-8.1875-4.582032-9.5625-19.550781-6.894531-40.042968-10.386719-60.90625-10.386719-27.242187 0-53.4375 5.84375-77.882812 17.347656-10.941406-5.757812-23.386719-9.039062-36.589844-9.039062-43.472656 0-78.84375 35.371094-78.84375 78.84375 0 12.09375 2.726563 23.789062 7.925782 34.445312h-48.410157c-4.144531 0-7.5 3.359375-7.5 7.5 0 4.144532 3.355469 7.5 7.5 7.5h141.164063l27.402344 27.402344v25.421875h-107.089844c-4.144532 0-7.5 3.355469-7.5 7.5 0 4.140625 3.355468 7.5 7.5 7.5h111.484375l61.617187 61.617187v60.675782l-165.601562-8.824219v-30.25h99.589844c4.140624 0 7.5-3.359375 7.5-7.5 0-4.144531-3.359376-7.5-7.5-7.5h-105.371094l-29.765625-14.410156v-17.261719h43.617187c4.144532 0 7.5-3.355469 7.5-7.5s-3.355468-7.5-7.5-7.5h-49.679687l-89.296875-35.566406v-53.804688h29.269531c4.140625 0 7.5-3.355468 7.5-7.5 0-4.140625-3.359375-7.5-7.5-7.5h-36.769531c-4.144532 0-7.5 3.359375-7.5 7.5v66.390625c0 3.070313 1.871094 5.832031 4.722656 6.96875l90.636719 36.097657v24.378906c0 2.390625 1.152343 4.597656 3.027343 6h-75.773437c-16 0-29.015625 13.015625-29.015625 29.015625v26.820312c0 4.144531 3.359375 7.5 7.5 7.5s7.5-3.355469 7.5-7.5v-26.820312c0-7.730469 6.289062-14.015625 14.015625-14.015625h105.804687c.1875 0 .367188-.015625.550782-.03125l1.9375.9375v32.253906l-38.269532-2.039062c-2.050781-.109376-4.066406.628906-5.558593 2.046874-1.496094 1.414063-2.339844 3.382813-2.339844 5.441407v33.855469h-36.136719c-4.140625 0-7.5 3.355468-7.5 7.5v35.921874c0 4.140626 3.359375 7.5 7.5 7.5h89.804688c4.144531 0 7.5-3.359374 7.5-7.5 0-4.144531-3.355469-7.5-7.5-7.5h-23.40625l-2.058594-6.164062h284.65625c4.140625 0 7.5-3.355469 7.5-7.5s-3.359375-7.5-7.5-7.5h-15.601562v-33.570312c0-3.988282-3.121094-7.277344-7.101563-7.492188l-48.386719-2.578125v-15.195313h138.089844c4.140625 0 7.5-3.355468 7.5-7.5 0-4.144531-3.359375-7.5-7.5-7.5h-18.734375v-13.386718h30.71875c7.730469 0 14.015625 6.289062 14.015625 14.015625v113.808593c0 7.726563-6.289062 14.015626-14.015625 14.015626h-453.96875c-7.730469 0-14.015625-6.289063-14.015625-14.015626v-54.324218c0-4.144532-3.359375-7.5-7.5-7.5s-7.5 3.355468-7.5 7.5v115.753906c0 16 13.015625 29.015625 29.015625 29.015625h453.96875c16 0 29.015625-13.015625 29.015625-29.015625v-175.238281c0-16-13.015625-29.015625-29.015625-29.015625zm-420.480469 123.386718v-20.921874h36.09375l6.988282 20.921874zm310.894532-21.164062h-259.066407l-3.21875-9.636719c-.789062-2.359375-2.675781-4.113281-4.972656-4.796875v-26.269531l267.257813 14.242187zm-79.222657-297.785156c0 4.285156-5.046875 8.96875-12.753906 10.429687-.3125-7.40625-1.65625-14.546875-3.882813-21.292969 9.855469.390626 16.636719 5.894532 16.636719 10.863282zm-91.511719-50.058594c16.839844 0 32.167969 6.566406 43.589844 17.257812-21.28125 2.683594-41.464844 11.714844-60.144531 26.996094-16.628906 13.597656-33.914063 20.027344-47.1875 23.050782-.0625-1.148438-.105469-2.300782-.105469-3.460938 0-35.203125 28.640625-63.84375 63.847656-63.84375zm24.9375 98.289062h-78.691406c-3.253906-5.0625-5.746094-10.496093-7.441406-16.1875 15.113281-3.34375 35.007812-10.597656 54.136719-26.238281 19.226562-15.726562 40.089843-23.921875 62.03125-24.429687 4.125 6.96875 6.964843 14.777344 8.183593 23.109375-32.074218 18.226562-62.507812 14.5625-62.882812 14.511719-4.09375-.542969-7.863281 2.328124-8.421875 6.421874-.558594 4.105469 2.316406 7.886719 6.421875 8.445313.445312.058594 3.921875.503906 9.582031.503906 11.703125 0 32.738281-1.910156 55.550781-13.046875-1.839843 15.800782-9.445312 30.191406-21.578124 40.691406l-11.585938-11.585937c-1.40625-1.40625-3.316406-2.195313-5.304688-2.195313zm39.296876 55.339844h32.414062v49.289063l-32.414062-32.414063zm63.816406 80.6875-16.402344-16.402344v-103.910156h36.253906l19.972656 60.832032h-24.875c-4.140624 0-7.5 3.359374-7.5 7.5 0 4.144531 3.359376 7.5 7.5 7.5h66.425782l18.285156 26.167968h-79.375c-4.140625 0-7.5 3.359375-7.5 7.5 0 4.144532 3.359375 7.5 7.5 7.5h86.265625v43h-104.355469v-34.382812c0-1.988282-.789062-3.898438-2.195312-5.304688zm120.195312-15.105468-28.761718-41.167969c-1.402344-2.007813-3.699219-3.207031-6.148438-3.207031h-29.671875l-23.203125-70.667969c-1.011719-3.082031-3.882812-5.160157-7.125-5.160157h-49.1875c-4.140625 0-7.5 3.355469-7.5 7.5v32.121094h-32.414062v-1.046875c0-1.988281-.789063-3.894531-2.199219-5.300781l-9.578125-9.582031c13.855468-12.316407 22.773437-28.804688 25.496094-46.949219 13.125-1.273438 23.609374-8.453125 27.207031-18.191406h31.335937c9.144532 0 17.742188 3.5625 24.207032 10.027344 9.300781 9.296874 21.664062 14.417968 34.816406 14.417968 0 0 67.234375-.105468 67.894531-.296875 12.613281 23.996094 19.265625 50.878907 19.265625 78.195313 0 30.246094-8.117188 59.859375-23.460938 85.71875h-9.617187v-22.113282c0-1.539062-.472656-3.039062-1.355469-4.296874zm-421.894531 198.25h453.96875c5.082031 0 9.859375-1.320313 14.015625-3.621094v13.125c0 7.726562-6.289062 14.011718-14.019531 14.011718h-453.960938c-7.730469 0-14.019531-6.285156-14.019531-14.011718v-13.125c4.15625 2.300781 8.933594 3.621094 14.015625 3.621094zm453.96875 46.429687h-453.96875c-6.828125 0-12.527344-4.914063-13.761719-11.390625 4.097656 2.214844 8.789063 3.476562 13.765625 3.476562h453.960938c4.976562 0 9.664062-1.261718 13.765625-3.476562-1.234375 6.476562-6.933594 11.390625-13.761719 11.390625zm0 0"/><path d="m435.984375 363.695312c-4.140625 0-7.5 3.359376-7.5 7.5 0 4.144532 3.359375 7.5 7.5 7.5h.105469c4.140625 0 7.5-3.355468 7.5-7.5 0-4.140624-3.359375-7.5-7.5-7.5zm0 0"/><path d="m169.636719 415.320312h.074219c4.105468 0 7.457031-3.3125 7.496093-7.429687.039063-4.144531-3.285156-7.53125-7.429687-7.570313h-.101563c-4.117187-.035156-7.53125 3.285157-7.570312 7.429688-.039063 4.140625 3.285156 7.53125 7.425781 7.570312zm0 0"/><path d="m447.8125 363.640625h.101562c4.144532 0 7.5-3.359375 7.5-7.5 0-4.144531-3.355468-7.5-7.5-7.5h-.101562c-4.140625 0-7.5 3.355469-7.5 7.5 0 4.140625 3.359375 7.5 7.5 7.5zm0 0"/><path d="m66 318.449219c4.140625 0 7.5-3.359375 7.5-7.5 0-4.144531-3.359375-7.5-7.5-7.5h-.105469c-4.140625 0-7.5 3.355469-7.5 7.5 0 4.140625 3.359375 7.5 7.5 7.5zm0 0"/><path d="m455.867188 154.710938c0-14.523438-14.382813-25.902344-32.742188-25.902344s-32.742188 11.378906-32.742188 25.902344c0 14.519531 14.382813 25.898437 32.742188 25.898437s32.742188-11.375 32.742188-25.898437zm-32.742188 10.898437c-10.457031 0-17.742188-5.746094-17.742188-10.898437 0-5.15625 7.285157-10.902344 17.742188-10.902344s17.742188 5.746094 17.742188 10.902344c0 5.152343-7.285157 10.898437-17.742188 10.898437zm0 0"/><path d="m317.082031 34.320312c-4.144531 0-7.5 3.355469-7.5 7.5 0 4.140626 3.355469 7.5 7.5 7.5h.101563c4.144531 0 7.5-3.359374 7.5-7.5 0-4.144531-3.355469-7.5-7.5-7.5zm0 0"/><path d="m455.921875 188.449219c0-4.144531-3.359375-7.5-7.5-7.5h-.105469c-4.140625 0-7.5 3.355469-7.5 7.5s3.359375 7.5 7.5 7.5h.105469c4.140625 0 7.5-3.359375 7.5-7.5zm0 0"/></svg>