<svg height="512pt" viewBox="0 -8 512 512" width="512pt" xmlns="http://www.w3.org/2000/svg"><path d="m406.746094 122.144531c-4.140625.019531-7.480469 3.394531-7.460938 7.535157.019532 4.128906 3.371094 7.464843 7.496094 7.464843h.039062l.195313-.003906c4.144531-.019531 7.484375-3.394531 7.464844-7.535156-.023438-4.144531-3.429688-7.5-7.539063-7.464844zm0 0"/><path d="m490.03125 264.273438c1.144531-9.449219 1.726562-19.015626 1.726562-28.511719 0-22.484375-3.175781-44.757813-9.4375-66.203125-1.160156-3.972656-5.320312-6.257813-9.300781-5.09375-3.976562 1.160156-6.257812 5.324218-5.097656 9.300781 4.96875 17.007813 7.851563 34.582031 8.621094 52.359375h-88.3125v-30.289062c0-2.988282-1.773438-5.691407-4.515625-6.878907-2.742188-1.191406-5.929688-.640625-8.109375 1.402344l-38.234375 35.765625h-154.652344c-2.019531 0-4.007812-.238281-5.949219-.667969v-53.65625c1.941407-.429687 3.929688-.667969 5.949219-.667969h14.148438c12.398437 0 24.058593-4.832031 32.828124-13.605468 8.773438-8.769532 13.601563-20.425782 13.601563-32.824219 0-17.332031 14.101563-31.429687 31.429687-31.429687h149.949219c12.457031 14.742187 22.984375 31.148437 31.3125 48.910156 1.273438 2.722656 3.976563 4.320312 6.796875 4.320312 1.066406 0 2.148438-.230468 3.179688-.710937 3.75-1.757813 5.363281-6.226563 3.605468-9.976563-20.3125-43.332031-52.894531-79.089844-94.222656-103.402344-3.570312-2.097656-8.167968-.90625-10.269531 2.664063-2.097656 3.570313-.90625 8.164063 2.664063 10.265625 15.773437 9.277344 30.183593 20.339844 43.011718 32.929688h-136.027344c-25.597656 0-46.425781 20.828124-46.425781 46.429687 0 8.390625-3.273437 16.28125-9.210937 22.21875s-13.828125 9.210937-22.21875 9.210937h-14.152344c-2 0-3.984375.144532-5.949219.421876v-101.824219c0-2.078125-.859375-4.058594-2.375-5.476563l-13.636719-12.757812c29.359376-14.058594 61.726563-21.496094 95.242188-21.496094 28.253906 0 55.769531 5.265625 81.777344 15.644531 3.847656 1.539063 8.210937-.335937 9.746094-4.183593 1.535156-3.847657-.335938-8.210938-4.183594-9.746094-27.789063-11.089844-57.175782-16.714844-87.34375-16.714844-37.796875 0-74.226563 8.851562-106.949219 25.542969l-15.277344-14.289063c-2.183593-2.039062-5.367187-2.59375-8.109375-1.402344-2.742187 1.1875-4.515625 3.890626-4.515625 6.878907v25.589843c-11.265625 7.886719-21.929687 16.808594-31.855469 26.734376-44.53125 44.527343-69.054687 103.734374-69.054687 166.707031 0 9.492187.578125 19.066406 1.722656 28.515625-12.597656 3.160156-21.957031 14.574218-21.957031 28.140625v175.238281c0 15.996094 13.015625 29.015625 29.015625 29.015625h453.96875c16 0 29.015625-13.019531 29.015625-29.015625v-175.238281c0-13.570313-9.363281-24.988281-21.96875-28.144531zm-13.34375-23.148438c-.183594 7.441406-.730469 14.898438-1.65625 22.277344h-86.800781v-22.277344zm-116.265625 115.292969c9.023437 0 27.808594 0 27.808594-11.160157v-4.527343c18.101562 3.5625 24.328125 9.460937 24.328125 10.890625 0 2.75-16.125 13.414062-52 13.414062s-52-10.664062-52-13.414062c0-1.453125 6.1875-7.28125 24.050781-10.835938v4.472656c-.003906 11.160157 18.785156 11.160157 27.8125 11.160157zm12.808594-143.296875v40.679687h-10.808594c-4.144531 0-7.5 3.355469-7.5 7.5 0 4.140625 3.355469 7.5 7.5 7.5h10.808594v71.816407c-2.242188.390624-6.179688.800781-12.808594.800781-6.632813 0-10.570313-.410157-12.816406-.800781v-23.78125h12.953125c4.140625 0 7.5-3.359376 7.5-7.5 0-4.144532-3.359375-7.5-7.5-7.5h-12.953125v-64.746094zm-190.511719 28.003906h149.886719v22.277344h-155.835938v-22.699219c1.960938.277344 3.945313.421875 5.949219.421875zm-61.574219-84.699219c-.003906.003907-.007812.003907-.007812.007813-4.109375 3.699218-10.265625 5.820312-16.890625 5.820312-11.484375 0-21.1875-6.582031-21.1875-14.375 0-7.789062 9.703125-14.371094 21.1875-14.371094 6.59375 0 12.839844 2.171876 16.898437 5.835938zm27.8125 171.964844c9.027344 0 27.8125 0 27.8125-11.160156v-4.472657c17.871094 3.558594 24.050781 9.394532 24.050781 10.835938 0 2.75-16.125 13.414062-52 13.414062s-52-10.664062-52-13.414062c0-1.457031 6.246094-7.339844 24.324219-10.890625v4.527344c0 11.160156 18.785157 11.160156 27.8125 11.160156zm12.8125-270.40625v254.605469c-2.242187.386718-6.179687.800781-12.8125.800781-6.632812 0-10.570312-.414063-12.8125-.800781v-103.25h6.777344c4.140625 0 7.5-3.359375 7.5-7.5 0-4.144532-3.359375-7.5-7.5-7.5h-6.777344v-54.34375h6.777344c4.140625 0 7.5-3.355469 7.5-7.5 0-4.140625-3.359375-7.5-7.5-7.5h-6.777344v-90.980469zm-61.875 21.675781c6.738281-6.738281 13.835938-12.976562 21.25-18.71875v60.925782c-5.128906-2.179688-10.902343-3.359376-16.898437-3.359376-19.953125 0-36.1875 13.175782-36.1875 29.371094 0 16.195313 16.234375 29.375 36.1875 29.375 5.957031 0 11.75-1.191406 16.898437-3.378906v89.527344h-84.175781c-1.148438-9.152344-1.734375-18.4375-1.734375-27.640625 0-58.96875 22.964844-114.40625 64.660156-156.101563zm-84.894531 212.757813c0-7.730469 6.289062-14.015625 14.015625-14.015625h92.128906v19.042968c-25.0625 4.3125-39.324219 13.730469-39.324219 26.144532 0 19.523437 34.730469 28.417968 67 28.417968 16.714844 0 32.542969-2.324218 44.558594-6.550781 18.546875-6.519531 22.441406-15.488281 22.441406-21.867187 0-12.355469-14.164062-21.753906-39.050781-26.09375v-19.09375h155.835938v26.867187c-8.53125 1.304688-16.34375 3.191407-23.242188 5.613281-3.90625 1.375-5.960937 5.65625-4.585937 9.5625 1.082031 3.085938 3.980468 5.015626 7.074218 5.015626.824219 0 1.664063-.136719 2.488282-.425782 5.417968-1.902344 11.550781-3.433594 18.265625-4.570312v5.0625c-9.652344 1.703125-18.015625 4.269531-24.402344 7.515625-12.105469 6.148437-14.644531 13.496093-14.644531 18.574219 0 19.527343 34.726562 28.417968 67 28.417968 16.71875 0 32.542968-2.324218 44.558594-6.550781 18.546874-6.519531 22.441406-15.488281 22.441406-21.867187 0-12.371094-14.285156-21.8125-39.328125-26.136719v-5.066407c6.816406 1.140626 13.039062 2.6875 18.546875 4.621094.820312.289063 1.660156.425782 2.484375.425782 3.097656 0 5.992187-1.929688 7.078125-5.015626 1.371094-3.90625-.683594-8.1875-4.589844-9.5625-6.988281-2.453124-14.886719-4.351562-23.519531-5.660156v-26.820312h94.75c7.730469 0 14.019531 6.285156 14.019531 14.015625v113.808593c0 7.726563-6.289062 14.015626-14.019531 14.015626h-384.648438c-4.144531 0-7.5 3.355468-7.5 7.5 0 4.144531 3.355469 7.5 7.5 7.5h384.652344c5.082031 0 9.859375-1.316407 14.015625-3.621094v13.125c0 7.726562-6.289062 14.011718-14.019531 14.011718h-453.960938c-7.730469 0-14.019531-6.285156-14.019531-14.011718v-13.125c4.15625 2.304687 8.933594 3.621094 14.015625 3.621094h36.652344c4.144531 0 7.5-3.359376 7.5-7.5 0-4.144532-3.355469-7.5-7.5-7.5h-36.652344c-7.730469 0-14.015625-6.289063-14.015625-14.019532zm467.984375 189.253906h-453.96875c-6.828125 0-12.527344-4.914063-13.761719-11.390625 4.097656 2.214844 8.789063 3.476562 13.765625 3.476562h453.960938c4.976562 0 9.664062-1.261718 13.761719-3.476562-1.230469 6.476562-6.929688 11.390625-13.757813 11.390625zm0 0"/><path d="m69.320312 331.089844c4.140626 0 7.5-3.355469 7.5-7.5 0-15.242188 16.152344-23.199219 25.78125-26.582032 3.90625-1.375 5.960938-5.65625 4.585938-9.5625-1.375-3.910156-5.65625-5.964843-9.5625-4.589843-23.089844 8.117187-35.808594 22.585937-35.808594 40.734375.003906 4.144531 3.359375 7.5 7.503906 7.5zm0 0"/><path d="m148.820312 372.007812c18.917969 0 37.097657-2.730468 51.191407-7.683593 23.089843-8.117188 35.808593-22.582031 35.808593-40.734375 0-4.140625-3.359374-7.5-7.5-7.5-4.144531 0-7.5 3.359375-7.5 7.5 0 15.246094-16.15625 23.199218-25.78125 26.585937-12.539062 4.40625-28.953124 6.832031-46.21875 6.832031-4.144531 0-7.5 3.355469-7.5 7.5 0 4.144532 3.355469 7.5 7.5 7.5zm0 0"/><path d="m409.265625 392.777344c.824219 0 1.664063-.136719 2.484375-.425782 6.09375-2.140624 14.878906-6.015624 22.136719-12.300781 3.128906-2.714843 3.46875-7.449219.753906-10.582031-2.710937-3.128906-7.449219-3.46875-10.578125-.753906-5.476562 4.742187-12.421875 7.777344-17.285156 9.484375-3.910156 1.375-5.960938 5.65625-4.589844 9.566406 1.085938 3.082031 3.980469 5.011719 7.078125 5.011719zm0 0"/><path d="m309.363281 392.351562c12.707031 4.46875 28.394531 7.09375 45.367188 7.597657.074219.003906.148437.003906.222656.003906 4.039063 0 7.375-3.214844 7.496094-7.277344.121093-4.140625-3.136719-7.597656-7.277344-7.71875-15.226563-.449219-29.726563-2.851562-40.832031-6.753906-9.628906-3.386719-25.78125-11.339844-25.78125-26.585937 0-4.140626-3.359375-7.5-7.5-7.5-4.144532 0-7.5 3.359374-7.5 7.5 0 18.152343 12.714844 32.617187 35.804687 40.734374zm0 0"/><path d="m100.015625 374.886719h.195313c4.140624 0 7.5-3.359375 7.5-7.5 0-4.144531-3.359376-7.5-7.5-7.5h-.195313c-4.144531 0-7.5 3.355469-7.5 7.5 0 4.140625 3.355469 7.5 7.5 7.5zm0 0"/><path d="m76.195312 366.882812h-.195312c-4.140625 0-7.5 3.355469-7.5 7.5 0 4.140626 3.359375 7.5 7.5 7.5h.195312c4.144532 0 7.5-3.359374 7.5-7.5 0-4.144531-3.355468-7.5-7.5-7.5zm0 0"/><path d="m443.054688 313.539062h.199218c4.140625 0 7.5-3.359374 7.5-7.5 0-4.144531-3.359375-7.5-7.5-7.5h-.199218c-4.140626 0-7.5 3.355469-7.5 7.5 0 4.140626 3.359374 7.5 7.5 7.5zm0 0"/><path d="m456.835938 332.25h.195312c4.144531 0 7.5-3.355469 7.5-7.5 0-4.140625-3.355469-7.5-7.5-7.5h-.195312c-4.144532 0-7.5 3.359375-7.5 7.5 0 4.144531 3.355468 7.5 7.5 7.5zm0 0"/><path d="m248.964844 399.953125h.195312.035156c4.125 0 7.480469-3.332031 7.5-7.460937.023438-4.144532-3.320312-7.519532-7.460937-7.539063h-.199219c-.011718 0-.023437 0-.035156 0-4.125 0-7.480469 3.332031-7.5 7.460937-.019531 4.144532 3.320312 7.519532 7.464844 7.539063zm0 0"/><path d="m281.8125 147.878906c0 16.195313 16.234375 29.375 36.191406 29.375 19.957032 0 36.191406-13.179687 36.191406-29.375 0-16.195312-16.234374-29.371094-36.191406-29.371094-19.953125 0-36.191406 13.175782-36.191406 29.371094zm57.382812 0c0 7.792969-9.703124 14.375-21.191406 14.375-11.484375 0-21.191406-6.582031-21.191406-14.375 0-7.789062 9.707031-14.371094 21.191406-14.371094 11.488282 0 21.191406 6.582032 21.191406 14.371094zm0 0"/></svg>