<svg height="512pt" viewBox="0 0 512 512" width="512pt" xmlns="http://www.w3.org/2000/svg"><path d="m482.390625 279.003906h-13.226563v-12.777344h.203126c12.429687 0 22.539062-10.109374 22.539062-22.535156 0-12.425781-10.109375-22.535156-22.539062-22.535156h-.203126v-27.46875c0-4.140625-3.359374-7.5-7.5-7.5h-22.367187v-15.980469c0-4.144531-3.359375-7.5-7.5-7.5-4.144531 0-7.5 3.355469-7.5 7.5v15.980469h-36.277344c-4.140625 0-7.5 3.359375-7.5 7.5 0 4.144531 3.359375 7.5 7.5 7.5h66.144531v19.96875h-15.316406c-12.425781 0-22.535156 10.109375-22.535156 22.535156 0 12.425782 10.109375 22.535156 22.535156 22.535156h15.316406v75.210938h-28.703124v-6.105469c0-4.144531-3.359376-7.5-7.5-7.5h-14.820313v-99.175781c0-4.144531-3.355469-7.5-7.5-7.5h-23.867187c-1.988282 0-3.894532.789062-5.300782 2.195312l-18.445312 18.445313c-1.40625 1.40625-2.195313 3.3125-2.195313 5.300781v100.1875h-6.234375v-71.578125c0-4.144531-3.359375-7.5-7.5-7.5-4.144531 0-7.5 3.355469-7.5 7.5v71.578125h-9.796875v-69.921875c0-4.144531-3.355469-7.5-7.5-7.5h-2.660156v-6.140625c0-4.144531-3.359375-7.5-7.5-7.5-4.144531 0-7.5 3.355469-7.5 7.5v6.140625h-23.253906c-4.144531 0-7.5 3.355469-7.5 7.5v46.292969h-12.207031v-68.644531h24.09375c1.988281 0 3.894531-.789063 5.300781-2.195313l51.628906-51.628906h27.660156c4.140625 0 7.5-3.355469 7.5-7.5 0-4.140625-3.359375-7.5-7.5-7.5h-30.765625c-1.992187 0-3.898437.789062-5.304687 2.195312l-6.207031 6.207032v-20.660156c28.054687-.992188 54.011718-4.164063 74.515624-9.1875 29.003907-7.101563 43.710938-17.109376 43.710938-29.746094v-31.359375c0-11.726563-12.703125-21.207031-37.742188-28.183594-12.183593-43.476563-52.164062-75.453125-99.476562-75.453125-47.316406 0-87.304688 31.976562-99.488281 75.453125-25.03125 6.980469-37.730469 16.457031-37.734375 28.183594v31.359375c0 12.636718 14.707031 22.644531 43.710937 29.746094 20.503907 5.023437 46.460938 8.199218 74.515625 9.1875v58.648437l-7.433594 7.433594h-8.46875v-11.359375c0-4.140625-3.355468-7.5-7.5-7.5-4.144531 0-7.5 3.359375-7.5 7.5v11.359375h-5.015624c-4.144532 0-7.5 3.355469-7.5 7.5v31.492187h-51.828126v-57.363281c0-4.140625-3.355468-7.5-7.5-7.5h-9.039062v-33.894531c0-4.144532-3.355469-7.5-7.5-7.5-4.140625 0-7.5 3.355468-7.5 7.5v33.894531h-9.664062v-70.328125c0-2.59375-1.335938-5-3.539063-6.371094l-27.757813-17.25v-64.507812c0-4.144532-3.359374-7.5-7.5-7.5h-8.449218v-10.046875c0-4.144531-3.355469-7.5-7.5-7.5-4.140625 0-7.5 3.355469-7.5 7.5v10.046875h-5.972656v-24.507813c0-4.144531-3.355469-7.5-7.5-7.5-4.140626 0-7.5 3.355469-7.5 7.5v24.507813h-10.359376c-4.144531 0-7.5 3.355468-7.5 7.5v16.988281c0 4.140625 3.355469 7.5 7.5 7.5 4.144532 0 7.5-3.359375 7.5-7.5v-9.488281h39.78125v47.683594l-17.21875-10.699219c-2.3125-1.4375-5.222656-1.507813-7.601562-.1875-2.382812 1.324219-3.855469 3.835937-3.855469 6.558593v68.910157c-3.226562 3.488281-5.214843 8.132812-5.214843 13.246093v5.988282c0 5.113281 1.988281 9.757812 5.214843 13.246094v20.425781c-3.226562 3.488281-5.214843 8.132812-5.214843 13.246093v5.988282c0 5.113281 1.988281 9.757812 5.214843 13.246094v62.960937h-11.105469v-218.46875c0-4.140625-3.355468-7.5-7.5-7.5-4.144531 0-7.5 3.359375-7.5 7.5v173.675781h-8.582031c-15.984375 0-28.988281 13.003906-28.988281 28.988282v175.019531c0 15.984375 13.003906 28.988281 28.988281 28.988281h453.402344c15.988281 0 28.992187-13.003906 28.992187-28.988281v-175.019531c0-15.984376-13.003906-28.988282-28.992187-28.988282zm-51.078125-35.3125c0-4.15625 3.378906-7.539062 7.535156-7.539062h30.519532c4.15625 0 7.539062 3.382812 7.539062 7.539062s-3.382812 7.535156-7.539062 7.535156h-30.519532c-4.15625 0-7.535156-3.378906-7.535156-7.535156zm-49.242188-147.902344h-68.980468v-16.074218c25.546875.929687 49.1875 3.734375 67.917968 8.03125.472657 2.644531.832032 5.324218 1.0625 8.042968zm-175.960937 0c.230469-2.714843.589844-5.398437 1.058594-8.042968 18.734375-4.296875 42.378906-7.101563 67.929687-8.03125v16.074218zm91.980469 0h-7.992188v-48.117187c0-1.070313.414063-2.074219 1.167969-2.828125s1.757813-1.167969 2.828125-1.167969c2.203125 0 3.996094 1.792969 3.996094 3.996094zm-3.996094-80.789062c37.464844 0 69.550781 23.457031 82.351562 56.457031-18.328124-3.585937-40.136718-5.925781-63.355468-6.75v-17.035156c0-10.476563-8.523438-18.996094-18.996094-18.996094-5.074219 0-9.847656 1.972657-13.433594 5.5625-3.589844 3.585938-5.5625 8.355469-5.5625 13.433594v17.039063c-23.222656.820312-45.039062 3.160156-63.367187 6.746093 12.800781-33 44.890625-56.457031 82.363281-56.457031zm-102.695312 77.109375c-.394532 3.671875-.605469 7.402344-.605469 11.179687 0 4.144532 3.355469 7.5 7.5 7.5h191.59375c4.140625 0 7.5-3.355468 7.5-7.5 0-3.777343-.210938-7.507812-.609375-11.183593 18.253906 6.136719 19.535156 11.472656 19.535156 11.53125 0 1.441406-5.742188 8.679687-32.277344 15.179687-23.933594 5.859375-55.878906 9.089844-89.941406 9.089844-34.066406 0-66.007812-3.230469-89.941406-9.089844-26.535156-6.5-32.277344-13.734375-32.277344-15.179687-.003906-.058594 1.277344-5.390625 19.523438-11.527344zm-19.527344 42.886719v-11.949219c7.085937 3.933594 16.660156 7.386719 28.710937 10.339844 25.066407 6.136719 58.277344 9.519531 93.511719 9.519531 35.230469 0 68.441406-3.382812 93.507812-9.519531 12.050782-2.953125 21.625-6.40625 28.710938-10.339844v11.949219c0 1.441406-5.742188 8.679687-32.277344 15.179687-23.933594 5.859375-55.878906 9.089844-89.941406 9.089844-34.066406 0-66.007812-3.230469-89.941406-9.089844-26.535156-6.5-32.28125-13.738281-32.28125-15.179687zm118.226562 39.246094c1.328125.007812 2.65625.023437 3.992188.023437 1.335937 0 2.664062-.015625 3.996094-.023437v35.347656l-7.988282 7.988281zm-23.710937 164.414062c4.140625 0 7.5-3.355469 7.5-7.5v-46.296875h25.914062v69.921875c0 4.144531 3.355469 7.5 7.5 7.5h46.027344c4.144531 0 7.5-3.355469 7.5-7.5v-10.152344h6.222656c4.144531 0 7.5-3.355468 7.5-7.5 0-4.140625-3.355469-7.5-7.5-7.5h-6.222656v-5.472656h6.222656c4.144531 0 7.5-3.359375 7.5-7.5 0-4.144531-3.355469-7.5-7.5-7.5h-6.222656v-5.476562h6.222656c4.144531 0 7.5-3.355469 7.5-7.5 0-4.144532-3.355469-7.5-7.5-7.5h-6.222656v-5.476563h6.222656c4.144531 0 7.5-3.355469 7.5-7.5 0-4.140625-3.355469-7.5-7.5-7.5h-6.222656v-18l14.054687-14.050781h13.257813v99.175781c0 4.144531 3.355469 7.5 7.5 7.5h14.816406v6.109375c0 4.140625 3.359375 7.5 7.5 7.5h50.617188v36.347656l-425.769531-.445312v-53.546875h27.3125v17.066406c0 4.144531 3.355468 7.5 7.5 7.5h48.355468c4.140625 0 7.5-3.355469 7.5-7.5v-85.878906h9.175782v85.878906c0 4.144531 3.359374 7.5 7.5 7.5h44.375c4.140624 0 7.5-3.355469 7.5-7.5v-17.203125zm-188.382813-139.429688c-2.507812 0-4.542968-2.039062-4.542968-4.542968v-5.988282c0-2.503906 2.035156-4.539062 4.542968-4.539062h7.808594c2.503906 0 4.542969 2.035156 4.542969 4.539062v5.988282c0 2.503906-2.039063 4.542968-4.542969 4.542968zm0 52.90625c-2.507812 0-4.542968-2.039062-4.542968-4.542968v-5.988282c0-2.503906 2.035156-4.542968 4.542968-4.542968h7.808594c2.503906 0 4.542969 2.039062 4.542969 4.542968v5.988282c0 2.503906-2.039063 4.542968-4.542969 4.542968zm153.675782 41.871094v29.652344h-37.15625c-4.144532 0-7.5 3.359375-7.5 7.5v17.203125h-7.167969v-54.355469zm-108.027344-146.023437v73.660156c0 4.144531 3.355468 7.5 7.5 7.5h33.703125v119.21875h-7.207031v-85.878906c0-4.140625-3.355469-7.5-7.5-7.5h-24.175782c-4.144531 0-7.5 3.359375-7.5 7.5v85.878906h-4.097656v-24.214844c0-4.140625-3.355469-7.5-7.5-7.5-4.140625 0-7.5 3.359375-7.5 7.5v24.214844h-14.257812v-17.0625c0-3.785156-2.804688-6.902344-6.441407-7.417969v-56.746094h7.136719c10.777344 0 19.542969-8.769531 19.542969-19.542968v-5.988282c0-10.777343-8.765625-19.542968-19.542969-19.542968h-7.136719v-7.832032h7.136719c10.777344 0 19.542969-8.765624 19.542969-19.542968v-5.988282c0-10.773437-8.765625-19.539062-19.542969-19.539062h-7.136719v-49.125zm-108.652344 160.011719c0-7.714844 6.277344-13.988282 13.988281-13.988282h8.582031v29.792969h-2.265624c-4.144532 0-7.5 3.355469-7.5 7.5v68.535156c0 4.136719 3.355468 7.496094 7.492187 7.5l440.769531.464844h.007813c1.988281 0 3.898437-.789063 5.304687-2.195313s2.195313-3.316406 2.195313-5.304687v-51.359375c0-4.140625-3.355469-7.5-7.5-7.5h-6.910157v-47.433594h13.226563c7.714844 0 13.992187 6.273438 13.992187 13.988282v113.664062c0 7.714844-6.277343 13.992188-13.992187 13.992188h-375.371094c-4.140625 0-7.5 3.355468-7.5 7.5 0 4.140624 3.359375 7.5 7.5 7.5h375.371094c5.074219 0 9.839844-1.3125 13.992187-3.609376v13.09375c0 7.710938-6.277343 13.984376-13.996093 13.984376h-453.394531c-7.714844 0-13.992188-6.273438-13.992188-13.984376v-13.09375c4.152344 2.296876 8.917969 3.609376 13.988281 3.609376h45.371094c4.144531 0 7.5-3.359376 7.5-7.5 0-4.144532-3.355469-7.5-7.5-7.5h-45.371094c-7.710937 0-13.988281-6.277344-13.988281-13.992188zm467.390625 189.007812h-453.402344c-6.808593 0-12.492187-4.894531-13.730469-11.351562 4.089844 2.210937 8.769532 3.46875 13.734376 3.46875h453.398437c4.964844 0 9.644531-1.257813 13.734375-3.46875-1.238281 6.457031-6.921875 11.351562-13.734375 11.351562zm0 0"/><path d="m215.40625 358.113281h9.988281c4.144531 0 7.5-3.359375 7.5-7.5 0-4.144531-3.355469-7.5-7.5-7.5h-9.988281c-4.140625 0-7.5 3.355469-7.5 7.5 0 4.140625 3.359375 7.5 7.5 7.5zm0 0"/><path d="m246.703125 358.113281h9.988281c4.140625 0 7.5-3.359375 7.5-7.5 0-4.144531-3.359375-7.5-7.5-7.5h-9.988281c-4.144531 0-7.5 3.355469-7.5 7.5 0 4.140625 3.355469 7.5 7.5 7.5zm0 0"/><path d="m323.921875 40.746094c8.488281 4.058594 15.960937 9.707031 22.199219 16.800781 1.480468 1.683594 3.550781 2.546875 5.632812 2.546875 1.761719 0 3.527344-.617188 4.949219-1.871094 3.113281-2.734375 3.414063-7.476562.679687-10.585937-7.585937-8.617188-16.667968-15.492188-26.992187-20.425781-3.738281-1.785157-8.214844-.203126-10.003906 3.535156-1.785157 3.734375-.203125 8.214844 3.535156 10zm0 0"/></svg>