<svg height="512pt" viewBox="-8 0 512 512" width="512pt" xmlns="http://www.w3.org/2000/svg"><path d="m191.128906 241.675781c-3.628906-2-8.191406-.683593-10.191406 2.945313-6.617188 11.996094-10.117188 25.609375-10.117188 39.363281 0 14.566406 3.90625 28.886719 11.289063 41.40625 1.402344 2.371094 3.902344 3.6875 6.46875 3.6875 1.292969 0 2.605469-.335937 3.804687-1.042969 3.566407-2.101562 4.75-6.699218 2.644532-10.269531-6.023438-10.210937-9.207032-21.894531-9.207032-33.785156 0-11.226563 2.851563-22.332031 8.25-32.117188 2-3.625.683594-8.1875-2.941406-10.1875zm0 0"/><path d="m23.8125 390.292969c-4.105469-.03125-7.515625 3.324219-7.535156 7.464843l-.011719 2.902344c-.023437 4.144532 3.320313 7.519532 7.464844 7.535156h.035156c4.125 0 7.476563-3.332031 7.5-7.464843l.011719-2.902344c.019531-4.140625-3.320313-7.515625-7.464844-7.535156zm0 0"/><path d="m23.636719 437.746094h.039062c4.125 0 7.476563-3.335938 7.496094-7.464844l.015625-2.902344c.019531-4.144531-3.324219-7.519531-7.464844-7.535156-.011718 0-.023437 0-.035156 0-4.125 0-7.480469 3.332031-7.5 7.464844l-.015625 2.902344c-.019531 4.140624 3.324219 7.515624 7.464844 7.535156zm0 0"/><path d="m39.984375 406.570312-2.902344-.011718c-.011719 0-.023437 0-.035156 0-4.125 0-7.480469 3.335937-7.5 7.464844-.019531 4.140624 3.324219 7.515624 7.464844 7.535156l2.90625.011718h.035156c4.125 0 7.480469-3.332031 7.5-7.464843.015625-4.140625-3.324219-7.511719-7.46875-7.535157zm0 0"/><path d="m10.4375 406.480469-2.902344-.011719c-.011718 0-.023437 0-.035156 0-4.125 0-7.4804688 3.332031-7.5 7.464844-.0195312 4.140625 3.324219 7.515625 7.464844 7.535156l2.902344.011719h.035156c4.125 0 7.480468-3.335938 7.5-7.464844.019531-4.140625-3.320313-7.515625-7.464844-7.535156zm0 0"/><path d="m40.289062 445.964844c-4.125 0-7.480468 3.335937-7.5 7.464844l-.015624 2.902343c-.019532 4.140625 3.324218 7.515625 7.464843 7.535157h.039063c4.125 0 7.476562-3.332032 7.496094-7.460938l.015624-2.902344c.019532-4.144531-3.320312-7.515625-7.464843-7.539062-.011719 0-.023438 0-.035157 0zm0 0"/><path d="m40.234375 475.515625c-.011719 0-.023437 0-.039063 0-4.125 0-7.476562 3.332031-7.5 7.460937l-.011718 2.902344c-.019532 4.140625 3.320312 7.515625 7.460937 7.535156h.039063c4.125 0 7.480468-3.332031 7.5-7.460937l.011718-2.902344c.023438-4.140625-3.320312-7.515625-7.460937-7.535156zm0 0"/><path d="m56.496094 462.242188-2.902344-.011719c-.011719 0-.023438 0-.035156 0-4.125 0-7.480469 3.335937-7.5 7.464843-.019532 4.140626 3.324218 7.515626 7.464844 7.535157l2.902343.011719h.039063c4.125 0 7.476562-3.332032 7.5-7.464844.015625-4.140625-3.324219-7.515625-7.46875-7.535156zm0 0"/><path d="m26.949219 462.152344-2.902344-.011719c-4.097656-.042969-7.515625 3.320313-7.535156 7.460937-.019531 4.140626 3.320312 7.515626 7.460937 7.539063l2.902344.011719h.039062c4.125 0 7.480469-3.332032 7.5-7.460938.019532-4.144531-3.320312-7.519531-7.464843-7.539062zm0 0"/><path d="m375.734375 302.871094c-.015625 0-.027344 0-.039063 0-4.125 0-7.480468 3.332031-7.5 7.464844l-.015624 2.902343c-.019532 4.140625 3.320312 7.515625 7.460937 7.535157h.039063c4.125 0 7.480468-3.332032 7.5-7.460938l.015624-2.902344c.019532-4.140625-3.320312-7.515625-7.460937-7.539062zm0 0"/><path d="m375.636719 332.421875c-.011719 0-.023438 0-.035157 0-4.125 0-7.476562 3.332031-7.5 7.464844l-.011718 2.902343c-.019532 4.140626 3.320312 7.515626 7.464844 7.535157h.035156c4.125 0 7.480468-3.335938 7.5-7.464844l.011718-2.90625c.023438-4.140625-3.320312-7.515625-7.464843-7.53125zm0 0"/><path d="m388.929688 334.136719 2.902343.011719h.035157c4.125 0 7.480468-3.332032 7.5-7.464844.019531-4.140625-3.320313-7.515625-7.464844-7.535156l-2.902344-.011719c-.011719 0-.023438 0-.035156 0-4.125 0-7.480469 3.335937-7.5 7.464843-.019532 4.140626 3.320312 7.515626 7.464844 7.535157zm0 0"/><path d="m362.355469 319.058594-2.902344-.011719c-.011719 0-.023437 0-.035156 0-4.125 0-7.480469 3.332031-7.5 7.464844-.019531 4.140625 3.320312 7.515625 7.464843 7.535156l2.902344.011719h.035156c4.125 0 7.480469-3.332032 7.5-7.464844.019532-4.140625-3.324218-7.515625-7.464843-7.535156zm0 0"/><path d="m426.578125 49.589844h.035156c4.125 0 7.480469-3.332032 7.5-7.464844l.015625-2.902344c.019532-4.144531-3.324218-7.515625-7.464844-7.535156-.011718 0-.023437 0-.035156 0-4.125 0-7.480468 3.335938-7.5 7.464844l-.015625 2.902344c-.019531 4.140624 3.324219 7.515624 7.464844 7.535156zm0 0"/><path d="m426.570312 61.234375c-.011718 0-.019531 0-.035156 0-4.125 0-7.476562 3.335937-7.5 7.464844l-.011718 2.902343c-.019532 4.144532 3.320312 7.515626 7.464843 7.535157h.035157c4.125 0 7.480468-3.332031 7.5-7.464844l.011718-2.902344c.019532-4.140625-3.320312-7.515625-7.464844-7.535156zm0 0"/><path d="m439.863281 62.953125 2.902344.011719h.035156c4.125 0 7.480469-3.332032 7.5-7.464844.019531-4.140625-3.324219-7.515625-7.464843-7.535156l-2.902344-.011719c-.011719 0-.023438 0-.035156 0-4.125 0-7.480469 3.332031-7.5 7.464844-.019532 4.140625 3.320312 7.515625 7.464843 7.535156zm0 0"/><path d="m410.316406 62.859375 2.902344.015625h.035156c4.125 0 7.476563-3.335938 7.5-7.464844.019532-4.144531-3.324218-7.515625-7.46875-7.535156l-2.898437-.015625c-.011719 0-.023438 0-.039063 0-4.125 0-7.476562 3.335937-7.496094 7.464844-.019531 4.144531 3.320313 7.515625 7.464844 7.535156zm0 0"/><path d="m74.234375 78.542969c11.726563 0 21.265625-9.539063 21.265625-21.261719 0-11.726562-9.539062-21.261719-21.265625-21.261719-11.722656 0-21.261719 9.535157-21.261719 21.261719 0 11.722656 9.539063 21.261719 21.261719 21.261719zm0-27.523438c3.453125 0 6.265625 2.808594 6.265625 6.261719s-2.8125 6.261719-6.265625 6.261719-6.261719-2.808594-6.261719-6.261719 2.808594-6.261719 6.261719-6.261719zm0 0"/><path d="m438.988281 111.777344c0 11.722656 9.535157 21.261718 21.261719 21.261718 11.722656 0 21.261719-9.539062 21.261719-21.261718s-9.539063-21.261719-21.261719-21.261719c-11.726562 0-21.261719 9.539063-21.261719 21.261719zm21.261719-6.261719c3.453125 0 6.261719 2.808594 6.261719 6.261719s-2.808594 6.261718-6.261719 6.261718-6.261719-2.808593-6.261719-6.261718 2.808594-6.261719 6.261719-6.261719zm0 0"/><path d="m95.78125 462.984375c-11.726562 0-21.261719 9.539063-21.261719 21.261719 0 11.726562 9.535157 21.265625 21.261719 21.265625 11.722656 0 21.261719-9.539063 21.261719-21.265625 0-11.722656-9.539063-21.261719-21.261719-21.261719zm0 27.527344c-3.453125 0-6.261719-2.8125-6.261719-6.265625 0-3.449219 2.808594-6.261719 6.261719-6.261719s6.261719 2.8125 6.261719 6.261719c0 3.453125-2.808594 6.265625-6.261719 6.265625zm0 0"/><path d="m198.710938 400.214844c0 11.722656 9.535156 21.261718 21.261718 21.261718 11.722656 0 21.261719-9.539062 21.261719-21.261718 0-11.726563-9.539063-21.261719-21.261719-21.261719-11.726562 0-21.261718 9.535156-21.261718 21.261719zm27.523437 0c0 3.453125-2.808594 6.261718-6.261719 6.261718s-6.261718-2.808593-6.261718-6.261718 2.808593-6.261719 6.261718-6.261719 6.261719 2.808594 6.261719 6.261719zm0 0"/><path d="m469.242188 328.113281c5.765624-20.484375 8.6875-41.695312 8.6875-63.203125 0-62.199218-24.222657-120.679687-68.207032-164.660156-6.578125-6.582031-13.492187-12.710938-20.6875-18.390625-2.324218-2.519531-4.691406-5.007813-7.128906-7.445313-47.984375-47.988281-111.789062-74.414062-179.648438-74.414062-4.144531 0-7.5 3.359375-7.5 7.5s3.355469 7.5 7.5 7.5c39.164063 0 76.882813 9.367188 110.621094 27.019531-21.703125-6.570312-44.5-9.976562-67.820312-9.976562-29.738282 0-58.707032 5.53125-86.097656 16.4375-3.847657 1.53125-5.726563 5.894531-4.195313 9.742187 1.535156 3.847656 5.894531 5.726563 9.742187 4.191406 25.621094-10.199218 52.722657-15.371093 80.550782-15.371093 49.078125 0 95.675781 16.117187 133.753906 45.847656 40.382812 44.144531 62.503906 100.957031 62.503906 161.171875 0 104.625-85.121094 189.746094-189.746094 189.746094-37.46875 0-73.355468-13.863282-101.058593-39.042969-26.097657-23.71875-42.917969-55.574219-47.773438-90.214844 16.417969-.519531 29.613281-14.027343 29.613281-30.566406 0-14.730469-10.464843-27.0625-24.351562-29.953125 16.566406-47.09375 61.375-79.257812 112.007812-79.257812 25.453126 0 48.0625 9.074218 65.394532 26.242187 4.613281 4.570313 8.777344 9.675781 12.503906 15.230469-13.003906-8.757813-28.652344-13.875-45.472656-13.875-17.207032 0-33.675782 5.308594-47.628906 15.355468-3.359376 2.421876-4.125 7.109376-1.703126 10.46875 2.417969 3.363282 7.105469 4.125 10.46875 1.703126 11.386719-8.195313 24.824219-12.527344 38.863282-12.527344 36.730468 0 66.613281 29.882812 66.613281 66.613281s-29.882813 66.613281-66.613281 66.613281c-13.371094 0-26.265625-3.945312-37.289063-11.410156-3.433593-2.320312-8.09375-1.421875-10.417969 2.007812-2.320312 3.429688-1.421874 8.09375 2.007813 10.414063 13.515625 9.152344 29.320313 13.988281 45.699219 13.988281 10.835937 0 21.171875-2.140625 30.640625-5.992187 16.144531-5.332031 31.03125-14.582031 43.472656-27.375 52.023437-53.488281 52.023437-140.523438 0-194.011719-13.304687-13.683594-28.546875-24.800781-45.351563-33.085938 0-.058593.007813-.109374.007813-.167968 0-11.722656-9.535156-21.261719-21.261719-21.261719-6.824218 0-12.890625 3.246094-16.785156 8.257813-25.742188-5.453126-52.597656-4.558594-77.921875 2.660156-27.335937 7.792968-52.441406 22.867187-72.601563 43.597656-38.625 39.710938-59.898437 92.496094-59.898437 148.628906 0 14.65625 1.464844 29.078125 4.292969 43.105469-6.46875-20.78125-9.835938-42.652344-9.835938-65.039063 0-38.675781 10.261719-76.660156 29.675782-109.847656 18.851562-32.222656 45.828124-59.246094 78.015624-78.152344 3.574219-2.097656 4.765626-6.695312 2.667969-10.265624-2.097656-3.574219-6.695312-4.769532-10.265625-2.667969-34.394531 20.203125-63.222656 49.082031-83.367187 83.511719-20.757813 35.484374-31.730469 76.085937-31.730469 117.421874 0 62.203126 24.222656 120.679688 68.207031 164.664063 15.847657 15.847656 33.585938 29.113281 52.695313 39.625 13.929687 9.316406 28.800781 17.234375 44.53125 23.675781 30.984375 12.6875 63.820312 19.121094 97.59375 19.121094 33.769531 0 66.605468-6.433594 97.585937-19.121094 32.164063-13.171875 60.761719-32.484375 84.992188-57.398437 2.890625-2.96875 2.820312-7.71875-.144531-10.605469-2.972657-2.890625-7.722657-2.820312-10.605469.148438-22.789063 23.425781-49.679688 41.585937-79.925781 53.972656-29.167969 11.945312-60.089844 18.003906-91.902344 18.003906-3.011719 0-6.011719-.070312-9.003906-.179688 74.878906-6.78125 142.007812-49.28125 180.152343-114.769531 5.304688 4.40625 12.113281 7.0625 19.53125 7.0625 16.871094 0 30.59375-13.722656 30.59375-30.59375 0-15.738281-11.945312-28.734375-27.246093-30.40625zm-351.890626-44.128906c0 8.597656-6.992187 15.589844-15.59375 15.589844-8.597656 0-15.589843-6.992188-15.589843-15.589844s6.992187-15.59375 15.589843-15.59375c8.601563 0 15.59375 6.996094 15.59375 15.59375zm142.589844-185.28125c3.453125 0 6.265625 2.808594 6.265625 6.261719s-2.8125 6.261718-6.265625 6.261718-6.261718-2.808593-6.261718-6.261718 2.808593-6.261719 6.261718-6.261719zm-14.878906 384.078125c-37.039062 0-72.65625-9.191406-104.273438-26.472656-13.441406-9.054688-25.941406-19.503906-37.402343-31.285156-74.105469-76.1875-74.105469-200.160157 0-276.347657 35.722656-36.730469 86.015625-52.363281 135.363281-42.324219.71875 11.078126 9.9375 19.875 21.191406 19.875 6.265625 0 11.882813-2.738281 15.777344-7.058593 14.808594 7.46875 28.273438 17.371093 40.078125 29.507812 39.996094 41.121094 45.523437 104.464844 16.589844 151.734375 1.089843-5.308594 1.660156-10.800781 1.660156-16.425781 0-3.957031-.296875-7.839844-.84375-11.648437-.007813-.222657-.007813-.441407-.035156-.664063-8.6875-67.976563-53.105469-111.898437-113.15625-111.898437-59.148438 0-111.242188 38.964843-128.113281 95.257812-12.042969 4.113281-20.730469 15.535156-20.730469 28.953125 0 11.589844 6.480469 21.699219 16.007812 26.886719 4.214844 40.328125 23.109375 77.601562 53.25 104.996094 30.46875 27.691406 69.941407 42.945312 111.144531 42.945312 112.898438 0 204.75-91.851562 204.75-204.75 0-26.746094-4.125-52.855469-12.035156-77.617188 12.21875 27.488282 18.644532 57.484376 18.644532 88.46875 0 22.535157-3.429688 44.722657-10.179688 65.988282-10.308594 4.925781-17.449219 15.453125-17.449219 27.617187 0 3.40625.570313 6.679688 1.601563 9.742188-38.144532 70.660156-111.566406 114.519531-191.839844 114.519531zm220.832031-108.667969c-8.597656 0-15.59375-6.996093-15.59375-15.59375 0-8.597656 6.996094-15.59375 15.59375-15.59375 8.597657 0 15.59375 6.996094 15.59375 15.59375 0 8.597657-6.996093 15.59375-15.59375 15.59375zm0 0"/><path d="m482.558594 399.296875c-2.929688-2.929687-7.679688-2.929687-10.609375 0-2.925781 2.925781-2.925781 7.675781 0 10.605469l.082031.078125c1.464844 1.464843 3.386719 2.199219 5.304688 2.199219 1.917968 0 3.839843-.734376 5.304687-2.199219 2.925781-2.929688 2.925781-7.675781 0-10.605469zm0 0"/><path d="m205.21875 200.175781c1.464844 1.476563 3.390625 2.214844 5.316406 2.214844 1.914063 0 3.824219-.730469 5.289063-2.183594 2.9375-2.917969 2.953125-7.667969.03125-10.605469l-.078125-.082031c-2.921875-2.9375-7.667969-2.949219-10.605469-.03125-2.941406 2.921875-2.953125 7.667969-.035156 10.605469zm0 0"/><path d="m59.761719 87.554688c-2.945313 2.910156-2.976563 7.660156-.0625 10.605468l.078125.078125c1.46875 1.488281 3.402344 2.230469 5.335937 2.230469 1.90625 0 3.808594-.722656 5.273438-2.164062 2.945312-2.910157 2.972656-7.660157.0625-10.605469l-.082031-.082031c-2.910157-2.945313-7.65625-2.976563-10.605469-.0625zm0 0"/><path d="m341.636719 33.3125c1.464843 1.476562 3.390625 2.214844 5.320312 2.214844 1.910157 0 3.820313-.726563 5.285157-2.183594 2.9375-2.917969 2.953124-7.667969.03125-10.605469l-.078126-.082031c-2.921874-2.9375-7.671874-2.949219-10.605468-.03125-2.941406 2.921875-2.953125 7.667969-.035156 10.605469zm0 0"/><path d="m37.714844 103.300781c1.464844 1.476563 3.390625 2.214844 5.316406 2.214844 1.914062 0 3.824219-.726563 5.289062-2.179687 2.9375-2.921876 2.949219-7.671876.03125-10.609376l-.082031-.078124c-2.917969-2.9375-7.667969-2.953126-10.605469-.035157-2.9375 2.921875-2.949218 7.667969-.03125 10.609375zm0 0"/><path d="m136.757812 316.9375c-2.921874-2.9375-7.667968-2.949219-10.609374-.03125-2.9375 2.921875-2.949219 7.667969-.03125 10.605469l.082031.082031c1.464843 1.476562 3.390625 2.214844 5.316406 2.214844 1.914063 0 3.824219-.730469 5.289063-2.183594 2.9375-2.917969 2.953124-7.667969.03125-10.605469zm0 0"/><path d="m235.171875 300.84375c15.152344 0 27.476563-12.328125 27.476563-27.480469 0-15.152343-12.324219-27.476562-27.476563-27.476562s-27.480469 12.324219-27.480469 27.476562c0 15.152344 12.328125 27.480469 27.480469 27.480469zm0-39.957031c6.878906 0 12.476563 5.597656 12.476563 12.476562 0 6.882813-5.597657 12.480469-12.476563 12.480469-6.882813 0-12.480469-5.597656-12.480469-12.480469 0-6.878906 5.597656-12.476562 12.480469-12.476562zm0 0"/></svg>