<svg height="512pt" viewBox="0 -2 512.001 512" width="512pt" xmlns="http://www.w3.org/2000/svg"><path d="m482.984375 274.511719h-101.457031l-22.914063-56.109375c6.035157-8.113282 11.1875-17.019532 15.25-26.625v-.003906c1.125-.34375 2.253907-.6875 3.355469-1.039063 7.296875-2.332031 12.199219-9.035156 12.199219-16.683594v-38.828125c0-5.574218-2.5625-10.6875-7.027344-14.027344-.0625-.046874-.128906-.089843-.191406-.132812-3.414063-20.710938-11.953125-40.390625-24.824219-57.089844-2.527344-3.277344-7.234375-3.890625-10.519531-1.359375-3.28125 2.527344-3.890625 7.234375-1.359375 10.515625 10.332031 13.410156 17.503906 28.992188 20.984375 45.453125-3.972657 1.160157-8.105469 2.269531-12.308594 3.300781-29.359375 7.226563-63.308594 11.042969-98.171875 11.042969-18.265625 0-36.269531-1.058593-53.5-3.09375v-12.289062c0-4.140625-3.359375-7.5-7.5-7.5-4.144531 0-7.5 3.359375-7.5 7.5v10.242187c-2.265625-.355468-4.519531-.722656-6.75-1.113281v-13.167969c0-4.144531-3.355469-7.5-7.5-7.5-4.140625 0-7.5 3.355469-7.5 7.5v10.210938c-2.671875-.585938-5.324219-1.191406-7.925781-1.832032-4.199219-1.03125-8.332031-2.140624-12.304688-3.296874 4.578125-21.8125 15.386719-41.535157 31.511719-57.3125 16.210938-15.863282 36.292969-26.269532 58.355469-30.320313v9.050781h-6.054688c-4.144531 0-7.5 3.355469-7.5 7.5 0 4.144532 3.355469 7.5 7.5 7.5h53.332031c4.144532 0 7.5-3.355468 7.5-7.5 0-4.144531-3.355468-7.5-7.5-7.5h-6.050781v-9.054687c17.011719 3.148437 33.167969 10.214843 47.082031 20.652343 1.347657 1.011719 2.925782 1.5 4.492188 1.5 2.28125 0 4.535156-1.035156 6.007812-3 2.484376-3.3125 1.8125-8.011718-1.5-10.5-16.679687-12.511718-36.203124-20.75-56.71875-23.976562-2.242187-8.960938-10.335937-15.625-19.976562-15.625-9.648438 0-17.746094 6.671875-19.980469 15.640625-26.320312 4.121094-50.300781 16.140625-69.480469 34.90625-19.625 19.203125-32.3125 43.578125-36.742187 70.515625-.0625.046875-.125.085938-.1875.132812-4.464844 3.339844-7.027344 8.453126-7.027344 14.027344v38.828125c0 7.648438 4.902344 14.351563 12.199219 16.683594 1.109375.355469 2.242188.699219 3.375 1.046875 4.0625 9.609375 9.195312 18.527344 15.222656 26.640625l-22.90625 56.089844h-34.144531c-4.140625 0-7.5 3.355469-7.5 7.5s3.359375 7.5 7.5 7.5h28.019531l-23.09375 56.554687c-1.566406 3.835938.273438 8.210938 4.105469 9.777344.929687.378906 1.890625.558594 2.832031.558594 2.957032 0 5.761719-1.757813 6.949219-4.664063l25.410156-62.226562h107.949219v114.476562c0 4.140625 3.355469 7.5 7.5 7.5s7.5-3.359375 7.5-7.5v-114.476562h107.949219l15.484375 37.910156-7.972656 23.863281h-23.40625c-4.144532 0-7.5 3.355469-7.5 7.5 0 4.144532 3.355468 7.5 7.5 7.5h28.785156c.007812 0 .015625.003906.023437.003906.007813 0 .015625-.003906.023438-.003906h67.667969c4.144531 0 7.5-3.355468 7.5-7.5 0-3.871094-2.933594-7.054687-6.695313-7.457031v-18.464844c0-9.648437-7.851563-17.5-17.5-17.5h-31.792969c-1.746094 0-3.4375.269531-5.050781.753907l-10.863281-26.605469h95.332031c7.730469 0 14.015625 6.285156 14.015625 14.015625v113.808594c0 7.730468-6.285156 14.015624-14.015625 14.015624h-453.96875c-7.726563 0-14.015625-6.285156-14.015625-14.015624v-113.808594c0-7.730469 6.289062-14.015625 14.015625-14.015625h34.65625c4.140625 0 7.5-3.355469 7.5-7.5s-3.359375-7.5-7.5-7.5h-34.65625c-16 0-29.015625 13.015625-29.015625 29.015625v175.234375c0 16 13.015625 29.019531 29.015625 29.019531h453.96875c16 0 29.015625-13.019531 29.015625-29.019531v-175.234375c0-16-13.015625-29.015625-29.015625-29.015625zm-232.597656-253.898438c0-3.09375 2.519531-5.613281 5.613281-5.613281s5.613281 2.519531 5.613281 5.613281v19.386719h-11.226562zm184.972656 309.75c1.378906 0 2.5 1.121094 2.5 2.5v18.421875h-43.085937l6.417968-19.210937c.34375-1.023438 1.296875-1.710938 2.375-1.710938zm-179.359375-182.441406c36.054688 0 71.242188-3.96875 101.75-11.472656 4.609375-1.132813 9.15625-2.355469 13.511719-3.636719 1.011719-.296875 1.773437.117188 2.144531.390625.375.285156 1.011719.921875 1.011719 2.019531v38.828125c0 1.097657-.707031 2.058594-1.761719 2.394531-5.867188 1.875-12.105469 3.628907-18.542969 5.210938-25.496093 6.265625-54.882812 10.015625-84.988281 10.839844-4.140625.113281-7.402344 3.5625-7.289062 7.703125.109374 4.070312 3.445312 7.292969 7.492187 7.292969h.207031c29.988282-.824219 59.339844-4.472657 85.140625-10.554688-18.585937 33.40625-52.8125 55.179688-91.175781 57.703125v-12.898437c0-4.144532-3.355469-7.5-7.5-7.5-4.140625 0-7.5 3.355468-7.5 7.5v12.898437c-38.441406-2.515625-72.605469-24.269531-91.179688-57.703125 24.273438 5.734375 50.84375 9.214844 79.050782 10.34375 4.140625.171875 7.625-3.054688 7.792968-7.195312.164063-4.136719-3.054687-7.625-7.191406-7.792969-27.976562-1.117188-55.320312-4.796875-79.085937-10.636719-6.4375-1.582031-12.671875-3.335938-18.539063-5.207031-1.054687-.339844-1.761718-1.300781-1.761718-2.398438v-38.828125c0-1.097656.632812-1.734375 1.011718-2.019531.367188-.273437 1.132813-.6875 2.140625-.390625 4.355469 1.28125 8.902344 2.503906 13.507813 3.636719 30.511718 7.503906 65.699218 11.472656 101.753906 11.472656zm-109.324219 126.589844 17.652344-43.21875c21.914063 22.535156 51.726563 36.496093 84.171875 38.371093v4.847657zm116.824219 0v-4.847657c32.382812-1.882812 62.226562-15.855468 84.164062-38.394531l17.660157 43.242188zm-234.484375 171.839843h453.96875c5.082031 0 9.859375-1.316406 14.015625-3.621093v13.128906c0 7.722656-6.289062 14.007813-14.019531 14.007813h-453.960938c-7.730469 0-14.019531-6.285157-14.019531-14.007813v-13.128906c4.15625 2.304687 8.9375 3.621093 14.015625 3.621093zm453.96875 46.429688h-453.96875c-6.828125 0-12.527344-4.914062-13.757813-11.390625 4.097657 2.21875 8.785157 3.476563 13.761719 3.476563h453.960938c4.976562 0 9.664062-1.257813 13.761719-3.476563-1.230469 6.476563-6.929688 11.390625-13.757813 11.390625zm0 0"/><path d="m338.625 162.511719h.105469.070312c4.109375 0 7.460938-3.308594 7.5-7.429688.039063-4.140625-3.289062-7.53125-7.429687-7.570312h-.105469c-.023437 0-.046875 0-.070313 0-4.109374 0-7.460937 3.3125-7.5 7.429687-.039062 4.140625 3.289063 7.53125 7.429688 7.570313zm0 0"/><path d="m338.625 180.332031.105469.003907h.070312c4.109375 0 7.460938-3.3125 7.5-7.429688.039063-4.144531-3.289062-7.53125-7.429687-7.570312l-.105469-.003907c-.023437 0-.046875 0-.070313 0-4.109374 0-7.460937 3.3125-7.5 7.429688-.039062 4.144531 3.289063 7.53125 7.429688 7.570312zm0 0"/><path d="m134.140625 406.082031h-23.410156l-8.003907-23.964843c-2.390624-7.152344-9.0625-11.957032-16.597656-11.957032h-31.792968c-9.652344 0-17.5 7.851563-17.5 17.5v18.464844c-3.765626.402344-6.695313 3.585938-6.695313 7.457031 0 4.144531 3.355469 7.5 7.5 7.5h67.664063c.007812 0 .015624.003907.023437.003907.011719 0 .019531-.003907.027344-.003907h28.785156c4.144531 0 7.5-3.355469 7.5-7.5 0-4.140625-3.359375-7.5-7.5-7.5zm-79.804687-20.921875h31.792968c1.074219 0 2.027344.6875 2.371094 1.710938l6.417969 19.210937h-43.082031v-18.421875c0-1.378906 1.117187-2.5 2.5-2.5zm0 0"/><path d="m452.105469 392.667969c4.144531 0 7.5-3.359375 7.5-7.5 0-4.144531-3.355469-7.5-7.5-7.5h-.101563c-4.144531 0-7.5 3.355469-7.5 7.5 0 4.140625 3.355469 7.5 7.5 7.5zm0 0"/><path d="m435.105469 403.121094c4.140625 0 7.5-3.355469 7.5-7.5 0-4.144532-3.359375-7.5-7.5-7.5h-.105469c-4.144531 0-7.5 3.355468-7.5 7.5 0 4.144531 3.355469 7.5 7.5 7.5zm0 0"/><path d="m282.71875 351.085938c4.144531 0 7.5-3.355469 7.5-7.5 0-4.140626-3.355469-7.5-7.5-7.5h-.105469c-4.140625 0-7.5 3.359374-7.5 7.5 0 4.144531 3.359375 7.5 7.5 7.5zm0 0"/><path d="m68 336.085938c-4.144531 0-7.5 3.359374-7.5 7.5 0 4.144531 3.355469 7.5 7.5 7.5h.105469c4.140625 0 7.5-3.355469 7.5-7.5 0-4.140626-3.359375-7.5-7.5-7.5zm0 0"/><path d="m148.894531 328.363281h.105469c4.144531 0 7.5-3.355469 7.5-7.5 0-4.140625-3.355469-7.5-7.5-7.5h-.105469c-4.140625 0-7.5 3.359375-7.5 7.5 0 4.144531 3.359375 7.5 7.5 7.5zm0 0"/></svg>