<svg height="512pt" viewBox="-18 0 512 512.00176" width="512pt" xmlns="http://www.w3.org/2000/svg"><path d="m475.070312 57.832031c-.46875-4.113281-4.191406-7.0625-8.300781-6.601562-4.117187.46875-7.070312 4.1875-6.601562 8.300781 1.714843 15.050781-3.753907 28.246094-13.789063 34.210938l-29.246094-74.367188c10.847657-2.363281 23.066407 2.824219 32.085938 13.964844 1.484375 1.828125 3.648438 2.777344 5.835938 2.777344 1.65625 0 3.324218-.546876 4.714843-1.667969 3.21875-2.609375 3.714844-7.332031 1.109375-10.550781-14.253906-17.601563-35.015625-24.425782-52.898437-17.394532-.910157.355469-1.800781.761719-2.679688 1.1875-4.0625-1.367187-8.605469-1.378906-12.894531.308594l-7.949219 3.128906c-1.925781-4.285156-5.308593-7.664062-9.644531-9.550781-4.613281-2.011719-9.738281-2.101563-14.421875-.257813l-11.265625 4.429688c-4.683594 1.84375-8.375 5.398438-10.382812 10.015625-1.886719 4.335937-2.058594 9.113281-.550782 13.558594l-93.140625 36.632812c-4.6875 1.84375-8.371093 5.402344-10.382812 10.019531-.308594.710938-.558594 1.4375-.777344 2.167969l-78.183594 30.75c-7.335937 2.886719-11.582031 10.269531-10.851562 17.753907l-32.027344 15.082031c-8.71875 4.105469-2.363281 17.691406 6.394531 13.570312l30.523438-14.378906 13.378906 34.011719c-4 4.632812-6.800781 10.175781-8.164062 16.109375l-86.898438 27.765625-3.796875-9.648438 10.480469-4.121094c3.851562-1.515624 5.75-5.867187 4.234375-9.722656-1.515625-3.855468-5.871094-5.753906-9.726563-4.234375l-10.476562 4.121094-3.792969-9.648437 34.773437-16.378907c3.746094-1.765625 5.351563-6.230469 3.589844-9.980469-1.765625-3.746093-6.234375-5.355468-9.984375-3.589843l-33.882812 15.960937-1.824219-4.636718c-3.804688-9.671876-14.765625-14.445313-24.4375-10.640626l-11.269531 4.429688c-9.667969 3.804688-14.445313 14.769531-10.640625 24.441406l27.171875 69.085938c2.917969 7.414062 10.042969 11.949218 17.5625 11.949218 2.292969 0 4.621093-.421874 6.878906-1.308593l11.265625-4.429688c9.671875-3.804687 14.445312-14.769531 10.640625-24.441406l-1.265625-3.21875 81.21875-25.953125c.425781 2.058594 1.019531 4.109375 1.8125 6.128906 3.222656 8.195313 9.046875 14.605469 16.15625 18.671875l-7.453125 2.933594c-3.855469 1.515625-5.75 5.871094-4.234375 9.722656 1.160156 2.957031 3.988281 4.757813 6.980469 4.757813.910156 0 1.839843-.167969 2.742187-.519532l23.882813-9.394531v21.867188h-32.597657c-10.363281 0-18.792968 8.433593-18.792968 18.796875 0 10.363281 8.429687 18.792968 18.792968 18.792968h13.375l-52.789062 59.4375c-1.21875 1.375-1.894531 3.148438-1.894531 4.980469v111.394531h-3.71875c-10.363281 0-18.792969 8.429688-18.792969 18.792969s8.429688 18.792969 18.792969 18.792969h22.441406c10.363281 0 18.792969-8.429688 18.792969-18.792969s-8.429688-18.792969-18.792969-18.792969h-3.722656v-108.542968l58.90625-66.324219s0 0 0-.003906v174.867187h-3.71875c-10.363281 0-18.796875 8.433594-18.796875 18.796875s8.433594 18.792969 18.796875 18.792969h22.4375c10.363281 0 18.796875-8.429688 18.796875-18.792969s-8.433594-18.796875-18.796875-18.796875h-3.71875v-174.867187l58.90625 66.328125v108.539062h-3.71875c-10.363281 0-18.796875 8.433594-18.796875 18.796875s8.433594 18.792969 18.796875 18.792969h22.4375c10.363281 0 18.796875-8.429688 18.796875-18.792969s-8.433594-18.796875-18.796875-18.796875h-3.71875v-111.390625c0-1.835937-.671875-3.605469-1.894531-4.980469l-52.789063-59.4375h13.375c10.363281 0 18.792969-8.429687 18.792969-18.792968 0-10.363282-8.429688-18.796875-18.792969-18.796875h-32.597656v-27.769531l68.492187-26.9375c3.855469-1.515626 5.75-5.871094 4.234375-9.726563s-5.871093-5.75-9.726562-4.234375l-45.800781 18.015625c1.765624-5.667969 2.148437-11.609375 1.128906-17.410156l44.210937-17.386719c2.882813 1.695312 6.191407 2.625 9.589844 2.625 2.289063 0 4.617187-.417969 6.875-1.308594l28.863281-11.351562c3.855469-1.515625 5.75-5.871094 4.234375-9.726563s-5.871093-5.753906-9.722656-4.234375l-28.867187 11.355469c-1.972657.777344-4.214844-.199219-4.988282-2.175781l-29.832031-75.835938c-.375-.957031-.355469-2.003906.054687-2.949218.410157-.941407 1.164063-1.667969 2.121094-2.042969l93.105469-36.617188 32.644531 83.003907-33.792968 13.289062c-8.957032 3.523438-3.542969 17.511719 5.492187 13.960938l33.949219-13.355469c3.359375 6.09375 9.769531 9.746093 16.515625 9.746093 2.289062 0 4.617187-.417968 6.875-1.308593l11.265625-4.429688c8.902344-3.503906 13.636718-13.070312 11.371094-22.109375l8.070312-3.175781c4.179688-1.644531 7.554688-4.65625 9.660156-8.558594.933594-.285156 1.859375-.601562 2.765625-.957031 18.601563-7.316406 29.296875-28.042969 26.613281-51.574219zm-414.253906 186.621094c-.410156.941406-1.160156 1.667969-2.117187 2.046875l-11.265625 4.429688c-1.976563.777343-4.214844-.199219-4.992188-2.171876l-27.171875-69.089843c-.777343-1.976563.199219-4.214844 2.171875-4.992188l11.265625-4.429687c.460938-.179688.933594-.265625 1.402344-.265625 1.539063 0 2.992187.925781 3.585937 2.4375l27.175782 69.089843c.375.957032.355468 2.003907-.054688 2.945313zm82.460938 248.753906c0 2.09375-1.699219 3.792969-3.792969 3.792969h-22.441406c-2.089844 0-3.792969-1.699219-3.792969-3.792969s1.703125-3.796875 3.792969-3.796875h22.441406c2.09375 0 3.792969 1.703125 3.792969 3.796875zm73.90625 0c0 2.09375-1.699219 3.792969-3.792969 3.792969h-22.4375c-2.09375 0-3.796875-1.699219-3.796875-3.792969s1.703125-3.796875 3.796875-3.796875h22.4375c2.09375 0 3.792969 1.703125 3.792969 3.796875zm73.90625 0c0 2.09375-1.699219 3.792969-3.792969 3.792969h-22.4375c-2.09375 0-3.796875-1.699219-3.796875-3.792969s1.703125-3.796875 3.796875-3.796875h22.4375c2.09375 0 3.792969 1.703125 3.792969 3.796875zm-45.027344-213.398437c0 2.089844-1.703125 3.792968-3.792969 3.792968h-80.195312c-2.09375 0-3.796875-1.703124-3.796875-3.792968 0-2.09375 1.703125-3.796875 3.796875-3.796875h80.195312c2.089844 0 3.792969 1.703125 3.792969 3.796875zm-86.117188-155.75c.171876-.390625.527344-.921875 1.25-1.203125l11.265626-4.429688 17.183593 43.6875c-4.015625.171875-8.066406.988281-12.007812 2.539063-.710938.277344-1.402344.582031-2.085938.902344l-15.636719-39.757813c-.285156-.722656-.140624-1.34375.03125-1.738281zm10.914063 66.382812c2.375-5.449218 6.730469-9.652344 12.265625-11.832031 2.667969-1.046875 5.417969-1.546875 8.125-1.546875 8.882812 0 17.296875 5.359375 20.746094 14.113281 0 0 0 .003907.003906.007813v.003906c2.175781 5.535156 2.066406 11.585938-.304688 17.035156-2.375 5.453125-6.734374 9.65625-12.269531 11.832032-11.421875 4.492187-24.375-1.144532-28.871093-12.570313-2.179688-5.535156-2.070313-11.585937.304687-17.042969zm92.128906-27.375-40.484375 15.925782c-3.839844-5.902344-9.210937-10.453126-15.351562-13.34375l-20.734375-52.714844 49.234375-19.367188zm148.113281-32.816406-11.269531 4.429688c-1.976562.777343-4.210937-.199219-4.988281-2.171876l-42.402344-107.808593c-.375-.957031-.355468-2.003907.054688-2.945313s1.164062-1.667968 2.117187-2.046875l11.269531-4.429687c.457032-.179688.929688-.269532 1.410157-.269532.519531 0 1.039062.105469 1.535156.320313.941406.410156 1.667969 1.164063 2.042969 2.121094l42.402344 107.808593c.773437 1.976563-.199219 4.214844-2.171876 4.992188zm21.558594-27.332031c-.410156.941406-1.164062 1.667969-2.121094 2.046875l-7.90625 3.109375-32.648437-83.003907 7.910156-3.109374c1.96875-.777344 4.210938.195312 4.988281 2.171874l29.828126 75.839844c.378906.957032.359374 2.003906-.050782 2.945313zm0 0"/><path d="m279.386719 83.359375-.105469.042969c-3.855469 1.515625-5.753906 5.867187-4.238281 9.722656 1.160156 2.953125 3.988281 4.757812 6.980469 4.757812.910156 0 1.839843-.167968 2.738281-.519531l.109375-.042969c3.855468-1.515624 5.753906-5.867187 4.238281-9.722656-1.511719-3.855468-5.867187-5.753906-9.722656-4.238281zm0 0"/><path d="m297.71875 76.148438-.109375.042968c-3.851563 1.515625-5.75 5.867188-4.234375 9.722656 1.160156 2.957032 3.988281 4.761719 6.980469 4.761719.910156 0 1.839843-.167969 2.738281-.523437l.109375-.042969c3.855469-1.515625 5.753906-5.867187 4.238281-9.722656-1.511718-3.855469-5.867187-5.75-9.722656-4.238281zm0 0"/></svg>