<svg height="512pt" viewBox="0 -1 512 512" width="512pt" xmlns="http://www.w3.org/2000/svg"><path d="m494.5 10.945312h-21.15625v-3.445312c0-4.144531-3.359375-7.5-7.5-7.5-4.144531 0-7.5 3.355469-7.5 7.5v3.445312h-22.945312v-3.445312c0-4.144531-3.359376-7.5-7.5-7.5-4.140626 0-7.5 3.355469-7.5 7.5v3.445312h-21.15625c-9.648438 0-17.5 7.851563-17.5 17.5v191.171876h-75.9375v-12.933594c0-4.144532-3.359376-7.5-7.5-7.5-4.144532 0-7.5 3.355468-7.5 7.5v78.363281h-64.128907v-182.457031c0-1.136719.921875-2.058594 2.054688-2.058594h60.015625c1.136718 0 2.058594.921875 2.058594 2.058594v71.433594c0 4.144531 3.355468 7.5 7.5 7.5 4.140624 0 7.5-3.355469 7.5-7.5v-50.683594h6.558593v41.5625c0 4.140625 3.355469 7.5 7.5 7.5h36.054688c4.140625 0 7.5-3.359375 7.5-7.5v-85.476563c0-4.144531-3.359375-7.5-7.5-7.5h-36.054688c-4.144531 0-7.5 3.355469-7.5 7.5v28.914063h-6.558593v-5.75c0-9.40625-7.652344-17.058594-17.058594-17.058594h-60.015625c-9.402344 0-17.054688 7.652344-17.054688 17.058594v5.75h-6.558593v-28.914063c0-4.144531-3.359376-7.5-7.5-7.5h-36.054688c-4.140625 0-7.5 3.355469-7.5 7.5v85.476563c0 4.140625 3.359375 7.5 7.5 7.5h36.054688c4.140624 0 7.5-3.359375 7.5-7.5v-41.5625h6.558593v96.277344h-81.417969v-191.171876c0-9.648437-7.851562-17.5-17.5-17.5h-21.15625v-3.445312c0-4.144531-3.359374-7.5-7.5-7.5-4.140624 0-7.5 3.355469-7.5 7.5v3.445312h-22.945312v-3.445312c0-4.144531-3.355469-7.5-7.5-7.5-4.140625 0-7.5 3.355469-7.5 7.5v3.445312h-21.15625c-9.648438 0-17.5 7.851563-17.5 17.5v130.578126c0 4.144531 3.359375 7.5 7.5 7.5s7.5-3.355469 7.5-7.5v-130.578126c0-1.378906 1.121094-2.5 2.5-2.5h21.15625v458.816407h-21.15625c-1.378906 0-2.5-1.121094-2.5-2.5v-290.578125c0-4.144532-3.359375-7.5-7.5-7.5s-7.5 3.355468-7.5 7.5v290.578125c0 9.648437 7.851562 17.5 17.5 17.5h21.15625v3.445312c0 4.144531 3.359375 7.5 7.5 7.5 4.144531 0 7.5-3.355469 7.5-7.5v-3.445312h22.945312v3.445312c0 4.144531 3.359376 7.5 7.5 7.5 4.140626 0 7.5-3.355469 7.5-7.5v-3.445312h21.15625c9.648438 0 17.5-7.851563 17.5-17.5v-31.34375h91.378907l2.757812 6.15625c3.046875 6.804687 9.828125 11.195312 17.28125 11.195312h34.125c7.453125 0 14.234375-4.394531 17.28125-11.191406l2.761719-6.160156h85.898438v31.34375c0 9.648437 7.851562 17.5 17.5 17.5h21.15625v3.445312c0 4.144531 3.359374 7.5 7.5 7.5 4.140624 0 7.5-3.355469 7.5-7.5v-3.445312h22.945312v3.445312c0 4.144531 3.355469 7.5 7.5 7.5 4.140625 0 7.5-3.355469 7.5-7.5v-3.445312h21.15625c9.648438 0 17.5-7.851563 17.5-17.5v-453.816407c0-9.648437-7.851562-17.5-17.5-17.5zm-167.140625 75.980469h21.054687v70.476563h-21.054687zm-137.242187 70.476563h-21.054688v-70.476563h21.054688zm191.625 77.214844v4.09375h-75.9375v-4.09375zm-133.15625 167.597656v-9.605469h20.308593v9.605469zm-19.855469-24.605469c-1.132813 0-2.054688-.925781-2.054688-2.058594v-16.195312h47.097657c4.140624 0 7.5-3.359375 7.5-7.5 0-4.144531-3.359376-7.5-7.5-7.5h-47.097657v-14.746094h64.125v45.941406c0 1.132813-.921875 2.058594-2.054687 2.058594zm-18.625-63v-14.5625h97.265625v14.5625zm-7.5-29.5625c-4.140625 0-7.5 3.355469-7.5 7.5v29.5625c0 4.144531 3.359375 7.5 7.5 7.5h9.070312v45.941406c0 9.40625 7.648438 17.058594 17.054688 17.058594h4.855469v9.605469h-4.535157c-6.449219 0-12.390625 3.226562-15.894531 8.640625-1.207031 1.859375-2.050781 3.882812-2.542969 5.96875h-80.355469v-163.113281h18v5.351562c0 4.140625 3.355469 7.5 7.5 7.5 4.140626 0 7.5-3.359375 7.5-7.5v-5.351562h10.136719v5.351562c0 4.140625 3.359375 7.5 7.5 7.5s7.5-3.359375 7.5-7.5v-5.351562h23.28125v31.335937zm9.070312-50.429687v4.09375h-81.417969v-4.09375zm-158.019531 250.144531v-458.816407h22.945312v458.816407zm61.601562-2.5c0 1.378906-1.121093 2.5-2.5 2.5h-21.15625v-458.816407h21.15625c1.378907 0 2.5 1.121094 2.5 2.5zm15-46.34375v-4.09375h82.824219l1.832031 4.09375zm145.542969 17.355469h-34.125c-1.546875 0-2.957031-.914063-3.589843-2.328126l-12.628907-28.1875c-.789062-1.761718-.058593-3.207031.289063-3.75.351562-.539062 1.371094-1.792968 3.304687-1.792968h59.378907c1.929687 0 2.953124 1.253906 3.300781 1.792968.351562.542969 1.078125 1.988282.289062 3.75l-12.625 28.1875c-.632812 1.414063-2.042969 2.328126-3.59375 2.328126zm26.761719-17.355469 1.832031-4.09375h77.347657v4.09375zm96.679688 48.84375c-1.378907 0-2.5-1.121094-2.5-2.5v-113.578125c0-4.144532-3.359376-7.5-7.5-7.5-4.140626 0-7.5 3.355468-7.5 7.5v48.140625h-74.878907c-.492187-2.085938-1.335937-4.105469-2.542969-5.96875-3.503906-5.410157-9.445312-8.640625-15.894531-8.640625h-4.535156v-9.605469h4.855469c9.402344 0 17.054687-7.652344 17.054687-17.058594v-45.941406h9.070313c4.140625 0 7.5-3.355469 7.5-7.5v-29.5625c0-4.144531-3.359375-7.5-7.5-7.5h-9.070313v-31.335937h23.28125v5.351562c0 4.140625 3.359375 7.5 7.5 7.5s7.5-3.359375 7.5-7.5v-5.351562h10.136719v5.351562c0 4.140625 3.359375 7.5 7.5 7.5s7.5-3.359375 7.5-7.5v-5.351562h12.523438v82.3125c0 4.144531 3.359374 7.5 7.5 7.5 4.140624 0 7.5-3.355469 7.5-7.5v-307.578126c0-1.378906 1.121093-2.5 2.5-2.5h21.15625v458.816407zm36.15625 0v-458.816407h22.945312v458.816407zm61.601562-2.5c0 1.378906-1.121094 2.5-2.5 2.5h-21.15625v-458.816407h21.15625c1.378906 0 2.5 1.121094 2.5 2.5zm0 0"/><path d="m241.03125 273.710938h.105469c4.140625 0 7.5-3.359376 7.5-7.5 0-4.144532-3.359375-7.5-7.5-7.5h-.105469c-4.140625 0-7.5 3.355468-7.5 7.5 0 4.140624 3.359375 7.5 7.5 7.5zm0 0"/><path d="m241.207031 240.96875h-.105469c-4.128906-.019531-7.53125 3.289062-7.570312 7.429688-.035156 4.140624 3.289062 7.53125 7.433594 7.570312h.105468.070313c4.109375 0 7.460937-3.3125 7.496094-7.433594.039062-4.140625-3.289063-7.527344-7.429688-7.566406zm0 0"/><path d="m241.03125 152.28125c-4.140625 0-7.5 3.359375-7.5 7.5v68.105469c0 4.144531 3.359375 7.5 7.5 7.5s7.5-3.355469 7.5-7.5v-68.105469c0-4.140625-3.359375-7.5-7.5-7.5zm0 0"/></svg>