<svg height="512pt" viewBox="0 0 512 512.00011" width="512pt" xmlns="http://www.w3.org/2000/svg"><path d="m314.777344 206.679688c-4.144532 0-7.5 3.355468-7.5 7.5 0 4.144531 3.355468 7.5 7.5 7.5h.109375c4.140625 0 7.5-3.355469 7.5-7.5 0-4.144532-3.359375-7.5-7.5-7.5zm0 0"/><path d="m375.203125 221.679688c4.144531 0 7.5-3.355469 7.5-7.5 0-4.144532-3.355469-7.5-7.5-7.5h-.109375c-4.144531 0-7.5 3.355468-7.5 7.5 0 4.144531 3.355469 7.5 7.5 7.5zm0 0"/><path d="m129.03125 439.050781c-12.832031 0-23.273438 10.441407-23.273438 23.273438s10.441407 23.273437 23.273438 23.273437c12.835938 0 23.273438-10.441406 23.273438-23.273437s-10.4375-23.273438-23.273438-23.273438zm0 31.546875c-4.558594 0-8.269531-3.710937-8.269531-8.273437 0-4.558594 3.710937-8.269531 8.269531-8.269531 4.5625 0 8.273438 3.710937 8.273438 8.269531 0 4.5625-3.710938 8.273437-8.273438 8.273437zm0 0"/><path d="m268.121094 439.050781c-12.832032 0-23.273438 10.441407-23.273438 23.273438s10.441406 23.273437 23.273438 23.273437c12.832031 0 23.273437-10.441406 23.273437-23.273437s-10.441406-23.273438-23.273437-23.273438zm0 31.546875c-4.5625 0-8.269532-3.710937-8.269532-8.273437 0-4.558594 3.710938-8.269531 8.269532-8.269531 4.5625 0 8.273437 3.710937 8.273437 8.269531 0 4.5625-3.710937 8.273437-8.273437 8.273437zm0 0"/><path d="m407.210938 439.050781c-12.832032 0-23.273438 10.441407-23.273438 23.273438s10.4375 23.273437 23.273438 23.273437c12.832031 0 23.273437-10.441406 23.273437-23.273437s-10.441406-23.273438-23.273437-23.273438zm0 31.546875c-4.5625 0-8.273438-3.710937-8.273438-8.273437 0-4.558594 3.710938-8.269531 8.273438-8.269531 4.558593 0 8.269531 3.710937 8.269531 8.269531 0 4.5625-3.710938 8.273437-8.269531 8.273437zm0 0"/><path d="m129.046875 390.015625c-.023437 0-.046875 0-.070313 0-4.109374 0-7.460937 3.3125-7.496093 7.433594-.039063 4.144531 3.289062 7.53125 7.433593 7.566406l.109376.003906h.066406c4.113281 0 7.460937-3.316406 7.5-7.4375.035156-4.140625-3.292969-7.527343-7.433594-7.566406zm0 0"/><path d="m268.109375 405.019531h.066406c4.113281 0 7.464844-3.316406 7.5-7.433593.039063-4.144532-3.289062-7.53125-7.433593-7.570313h-.109376c-.023437 0-.046874 0-.066406 0-4.113281 0-7.464844 3.3125-7.5 7.433594-.039062 4.144531 3.289063 7.53125 7.433594 7.566406zm0 0"/><path d="m407.199219 405.019531h.066406c4.109375 0 7.460937-3.316406 7.5-7.4375.035156-4.140625-3.292969-7.527343-7.433594-7.566406h-.113281c-.019531 0-.042969 0-.066406 0-4.109375 0-7.460938 3.3125-7.5 7.433594-.035156 4.144531 3.292968 7.53125 7.4375 7.566406zm0 0"/><path d="m504.492188 243.949219h-38.355469c-4.140625 0-7.5 3.355469-7.5 7.5v24.613281h-13.539063c-3.152344-9.515625-12.132812-16.402344-22.691406-16.402344-13.183594 0-23.90625 10.722656-23.90625 23.902344 0 10.5625 6.886719 19.539062 16.402344 22.695312v7.527344h-50.128906v-59.90625h26.199218c13.320313 0 24.160156-10.839844 24.160156-24.160156v-31.078125c0-13.320313-10.839843-24.160156-24.160156-24.160156h-39.664062c-4.144532 0-7.5 3.359375-7.5 7.503906 0 4.140625 3.355468 7.5 7.5 7.5h39.664062c5.050782 0 9.15625 4.105469 9.15625 9.15625v31.078125c0 5.050781-4.105468 9.15625-9.15625 9.15625h-91.964844c-5.050781 0-9.15625-4.105469-9.15625-9.15625v-31.078125c0-5.050781 4.105469-9.15625 9.15625-9.15625h19.636719c4.144531 0 7.5-3.359375 7.5-7.5 0-4.144531-3.355469-7.503906-7.5-7.503906h-19.636719c-13.320312 0-24.160156 10.839843-24.160156 24.160156v31.078125c0 13.320312 10.839844 24.160156 24.160156 24.160156h26.195313v59.90625h-14.917969v-9.304687c0-4.144531-3.359375-7.5-7.5-7.5-4.144531 0-7.503906 3.355469-7.503906 7.5v9.304687h-5.433594v-30.222656c0-4.144531-3.355468-7.5-7.5-7.5-4.140625 0-7.5 3.355469-7.5 7.5v30.222656h-15v-86.054687c0-11.21875-8.40625-20.503907-19.253906-21.898438 13.265625-18.4375 22.191406-39.582031 26.117188-62.257812.707031-4.082031-2.027344-7.960938-6.109376-8.667969-4.078124-.710938-7.964843 2.027344-8.667968 6.109375-4.808594 27.769531-17.917969 53.011719-37.914063 73.007813-25.746093 25.746093-59.976562 39.921874-96.386719 39.921874-24.953124 0-48.878906-6.660156-69.753906-19.136718 22.652344-2.519532 51.136719-15.507813 81.125-37.964844 0 0 .003906 0 .003906-.003906.011719-.007813.023438-.015625.03125-.023438 12.445313-9.320312 24.636719-19.929687 36.242188-31.535156 11.617188-11.613281 22.234375-23.820312 31.5625-36.277344 22.433594-29.957031 35.414062-58.410156 37.957031-81.050781 11.140625 18.726563 17.703125 39.976563 18.925781 62.09375.222657 3.992187 3.53125 7.085937 7.484376 7.085937.140624 0 .277343-.003906.421874-.011718 4.136719-.230469 7.304688-3.769532 7.074219-7.90625-2.0625-37.203125-17.714843-72.214844-44.078125-98.578125-.007812-.003907-.015625-.011719-.019531-.019531-12.445313-12.421876-34.078125-14-60.921875-4.441407-14.535156 5.179688-30.234375 13.46875-46.039062 24.160157h-58.226563c-.238281-8.972657-7.597656-16.203126-16.628906-16.203126h-12.007813c-9.183594 0-16.65625 7.46875-16.65625 16.652344v12.007813c0 9.03125 7.234375 16.390625 16.207032 16.632812v58.222657c-10.730469 15.863281-19.042969 31.621093-24.214844 46.195312-9.503906 26.78125-7.898438 48.367188 4.515625 60.785156 28.582031 28.578125 66.578125 44.316406 106.996093 44.316406 14.417969 0 28.523438-2.011718 42.003907-5.886718l-24.519531 50.726562h-46.59375c-7.96875 0-14.917969 5.109375-17.292969 12.714844l-9.339844 29.917969c-1.234375 3.953125.96875 8.160156 4.921875 9.394531.746094.230469 1.496094.34375 2.238281.34375 3.195313 0 6.15625-2.058594 7.160157-5.269531l9.339843-29.914063c.40625-1.308594 1.601563-2.1875 2.972657-2.1875h326.378906v9.867188h-12.261719c-12.414063 0-22.515625 10.101562-22.515625 22.511718 0 12.414063 10.101562 22.515626 22.515625 22.515626h61.65625l12.011719 38.480468h-39.917969c-8.199219-5.976562-18.28125-9.511718-29.179687-9.511718-10.902344 0-20.984376 3.535156-29.183594 9.511718h-80.722656c-8.199219-5.976562-18.285157-9.511718-29.183594-9.511718-10.898438 0-20.980469 3.535156-29.179688 9.511718h-80.726562c-8.199219-5.976562-18.28125-9.511718-29.179688-9.511718-10.902344 0-20.984375 3.535156-29.183594 9.511718h-42.773437l8.933594-28.609375c1.234375-3.953125-.96875-8.160156-4.925781-9.394531-3.953126-1.234375-8.160157.96875-9.394532 4.925781l-16.289062 52.160157c-1.734375 5.5625-.753906 11.441406 2.699218 16.132812 3.449219 4.691406 8.769532 7.382812 14.59375 7.382812h26.722657c1.273437 26.265626 23.039062 47.242188 49.613281 47.242188 26.578125 0 48.34375-20.976562 49.617188-47.242188h39.859374c1.273438 26.265626 23.039063 47.242188 49.613282 47.242188 26.574218 0 48.339844-20.976562 49.613281-47.242188h39.859375c1.277344 26.265626 23.039062 47.242188 49.617188 47.242188 26.574218 0 48.339843-20.976562 49.613281-47.242188h23.871093c5.820313 0 11.140626-2.6875 14.589844-7.382812 3.453125-4.691406 4.4375-10.570312 2.699219-16.132812l-18.164063-58.175782c9.910157-2.355468 17.308594-11.277344 17.308594-21.898437 0-12.414063-10.097656-22.515625-22.511718-22.515625h-8.667969l-3.792969-12.148438c-2.375-7.605468-9.324219-12.71875-17.292969-12.71875h-14.957031v-7.527344c7.15625-2.371093 12.820312-8.035156 15.191406-15.195312h48.777344c4.144531 0 7.5-3.355469 7.5-7.5 0-4.140625-3.355469-7.5-7.5-7.5h-20.238281v-17.113281h30.851562c4.144531 0 7.503907-3.355469 7.503907-7.5s-3.359376-7.5-7.5-7.5zm-389.96875-55.121094c-25.738282 18.296875-50.742188 29.257813-69.183594 31.148437v-97.6875c4.933594-7.027343 10.375-14.074218 16.257812-21.039062zm40.148437-34.152344c-9.058594 9.058594-18.484375 17.460938-28.097656 25.085938l-74.445313-123.1875c1.746094-1.1875 3.257813-2.695313 4.445313-4.445313l123.1875 74.445313c-7.625 9.617187-16.03125 19.042969-25.089844 28.101562zm34.152344-40.148437-87.578125-52.925782c6.96875-5.882812 14.011718-11.332031 21.039062-16.261718h97.6875c-1.886718 18.441406-12.847656 43.445312-31.148437 69.1875zm-20.105469-94.214844c21.097656-7.515625 37.1875-7.183594 45.300781.933594 2.378907 2.378906 4.050781 5.449218 5.066407 9.09375h-72.644532c7.65625-4.109375 15.132813-7.484375 22.277344-10.027344zm-80.988281 33.121094-13.390625-8.09375h23.054687c-3.242187 2.609375-6.464843 5.308594-9.664062 8.09375zm-58.597657-10.640625v-12.003907c0-.914062.742188-1.65625 1.652344-1.65625h12.007813c.910156 0 1.652343.742188 1.652343 1.65625v12.003907c0 .910156-.742187 1.652343-1.652343 1.652343h-12.007813c-.910156 0-1.652344-.742187-1.652344-1.652343zm16.207032 31.550781 8.089844 13.390625c-2.785157 3.199219-5.480469 6.421875-8.089844 9.660156zm-25.082032 94.515625c2.550782-7.183594 5.945313-14.703125 10.078126-22.410156v72.640625c-3.640626-1.015625-6.714844-2.691406-9.089844-5.066406-8.097656-8.097657-8.449219-24.136719-.988282-45.164063zm319.949219 108.371094h9.566407v10.527343h-9.566407zm9.566407-23.351563v8.351563h-9.566407v-8.351563zm-9.566407 48.878906h9.566407v11.027344h-9.566407zm-115.578125-78.128906c1.304688-1.304687 2.582032-2.636718 3.835938-3.984375h9.296875c3.90625 0 7.085937 3.179688 7.085937 7.085938v61.835937h-81.359375l16.222657-33.5625c.058593-.121094.105468-.246094.15625-.367187 16.460937-7.429688 31.609374-17.855469 44.761718-31.007813zm-68.339844 79.828125c.40625.066407.820313.113281 1.246094.113281h87.3125v9.214844h-93.066406zm202.859376 145.300781h-42.964844c-1.171875-4.476562-2.960938-8.703124-5.257813-12.597656h53.480469c-2.300781 3.894532-4.085938 8.121094-5.257812 12.597656zm-139.089844 0h-42.960938c-1.171875-4.476562-2.960937-8.703124-5.257812-12.597656h53.476562c-2.296875 3.894532-4.085937 8.121094-5.257812 12.597656zm-169.871094-1.269531c-.351562-.472656-.875-1.464843-.464844-2.773437l2.671875-8.554688h33.832031c-2.296874 3.894532-4.085937 8.121094-5.253906 12.597656h-28.277344c-1.371093 0-2.160156-.792968-2.507812-1.269531zm78.84375 48.511719c-19.117188 0-34.671875-15.554688-34.671875-34.675781 0-19.117188 15.554687-34.675781 34.671875-34.675781 19.121094 0 34.675781 15.558593 34.675781 34.675781 0 19.121093-15.554687 34.675781-34.675781 34.675781zm139.089844 0c-19.121094 0-34.675782-15.554688-34.675782-34.675781 0-19.117188 15.554688-34.675781 34.675782-34.675781s34.675781 15.558593 34.675781 34.675781c0 19.121093-15.554687 34.675781-34.675781 34.675781zm139.089844 0c-19.121094 0-34.675782-15.554688-34.675782-34.675781 0-19.117188 15.554688-34.675781 34.675782-34.675781 19.117187 0 34.671874 15.558593 34.671874 34.675781 0 19.121093-15.554687 34.675781-34.671874 34.675781zm75.992187-48.511719c-.351563.476563-1.140625 1.269531-2.507813 1.269531h-25.421874c-1.171876-4.476562-2.960938-8.703124-5.257813-12.597656h30.980469l2.671875 8.554688c.40625 1.308594-.117188 2.300781-.464844 2.773437zm-1.074219-87.320312c0 4.140625-3.371094 7.511719-7.511718 7.511719h-71.976563c-4.144531 0-7.511719-3.371094-7.511719-7.511719 0-4.144531 3.367188-7.511719 7.511719-7.511719h71.976563c4.140624 0 7.511718 3.367188 7.511718 7.511719zm-37.265625-32.378907c1.371094 0 2.566407.878907 2.976563 2.183594l2.394531 7.683594h-20.328125v-9.867188zm-22.457031-36.320312c-4.910156 0-8.90625-3.996094-8.90625-8.90625s3.996094-8.902344 8.90625-8.902344 8.902344 3.992188 8.902344 8.902344-3.992188 8.90625-8.902344 8.90625zm0 0"/><path d="m188.214844 371.628906v-25.472656c0-4.144531-3.355469-7.503906-7.5-7.503906h-62.640625c-4.144531 0-7.503907 3.359375-7.503907 7.503906v25.472656c0 4.144532 3.359376 7.5 7.503907 7.5h62.640625c4.144531 0 7.5-3.355468 7.5-7.5zm-15-7.5h-47.640625v-10.472656h47.640625zm0 0"/><path d="m204.941406 355.777344h43.707032c4.144531 0 7.5-3.355469 7.5-7.5 0-4.144532-3.355469-7.5-7.5-7.5h-43.707032c-4.144531 0-7.5 3.355468-7.5 7.5 0 4.144531 3.355469 7.5 7.5 7.5zm0 0"/><path d="m204.941406 374.882812h18.230469c4.144531 0 7.503906-3.355468 7.503906-7.5 0-4.140624-3.359375-7.5-7.503906-7.5h-18.230469c-4.144531 0-7.5 3.359376-7.5 7.5 0 4.144532 3.355469 7.5 7.5 7.5zm0 0"/></svg>