<svg height="512pt" viewBox="-54 0 512 512.00071" width="512pt" xmlns="http://www.w3.org/2000/svg"><path d="m106.203125 386.894531c4.144531 0 7.5-3.355469 7.5-7.5v-25.007812c0-4.140625-3.355469-7.5-7.5-7.5h-45.683594c-4.144531 0-7.5 3.359375-7.5 7.5v25.007812c0 4.144531 3.355469 7.5 7.5 7.5zm-38.183594-25.007812h30.683594v10.011719h-30.683594zm0 0"/><path d="m222.695312 356.953125v80.152344c0 4.144531 3.359376 7.5 7.5 7.5 4.144532 0 7.5-3.355469 7.5-7.5v-80.152344c0-4.144531-3.355468-7.5-7.5-7.5-4.140624 0-7.5 3.359375-7.5 7.5zm0 0"/><path d="m388.835938 475.253906v-2.882812c0-8.410156-6.101563-15.40625-14.109376-16.835938v-58.203125c0-4.144531-3.355468-7.5-7.5-7.5-4.140624 0-7.5 3.355469-7.5 7.5v57.921875h-151.394531v-117.140625h151.394531v26.558594c0 4.140625 3.359376 7.5 7.5 7.5 4.144532 0 7.5-3.359375 7.5-7.5v-26.558594h2.761719c9.4375 0 17.117188-7.679687 17.117188-17.117187v-10.382813c0-9.4375-7.679688-17.117187-17.117188-17.117187h-154.847656l-19.039063-39.386719c14.316407 5.109375 29.347657 7.671875 44.386719 7.671875 33.667969 0 67.347657-12.820312 92.980469-38.453125 11-11 12.46875-29.996094 4.132812-53.480469-7.253906-20.449218-21.585937-43.558594-40.488281-65.386718l9.820313-16.25c.492187.023437.984375.042968 1.480468.042968 14.519532 0 26.332032-11.8125 26.332032-26.335937 0-14.519531-11.8125-26.332031-26.332032-26.332031-14.519531 0-26.335937 11.8125-26.335937 26.332031 0 .761719.042969 1.507812.105469 2.253906l-15.804688 9.550781c-21.78125-18.859375-44.832031-33.167968-65.253906-40.441406-23.539062-8.382812-42.570312-6.9375-53.597656 4.070312-.007813.003907-.015625.011719-.019532.015626-28.859374 28.859374-42.527343 68.671874-37.507812 109.226562.46875 3.796875 3.703125 6.578125 7.433594 6.578125.308594 0 .617187-.019531.933594-.058594 4.109374-.507812 7.027343-4.253906 6.519531-8.363281-3.117188-25.179688 1.902343-50.023438 13.976562-71.441406 2.945313 19.230468 14.019531 42.78125 32.503907 67.460937 8.070312 10.777344 17.257812 21.339844 27.308593 31.390625 10.042969 10.042969 20.59375 19.222656 31.363281 27.289063.003907.003906.007813.007812.011719.011719.007813.003906.011719.007812.015625.011718 24.65625 18.460938 48.183594 29.535156 67.402344 32.496094-44.367188 24.855469-101.667969 18.441406-139.355469-19.246094-10.78125-10.78125-19.214843-23.328125-25.066406-37.289062-1.601563-3.820313-6-5.617188-9.816406-4.019532-3.820313 1.601563-5.617188 5.996094-4.019531 9.816407 5.730468 13.675781 13.65625 26.140625 23.59375 37.148437-8.886719.609375-15.9375 8.015625-15.9375 17.054688v58.0625h-110.195313c-9.4375 0-17.117187 7.679687-17.117187 17.117187v10.382813c0 9.4375 7.679687 17.117187 17.117187 17.117187h2.761719v64.558594c0 4.140625 3.355468 7.5 7.5 7.5 4.140625 0 7.5-3.359375 7.5-7.5v-64.558594h151.398437v117.140625h-151.398437v-19.921875c0-4.144531-3.359375-7.5-7.5-7.5-4.144532 0-7.5 3.355469-7.5 7.5v20.875c-6.707032 2.320313-11.542969 8.679688-11.542969 16.164063v2.882812c-8.628906.871094-15.390625 8.175782-15.390625 17.03125v2.597656c0 9.4375 7.679688 17.117188 17.121094 17.117188h369.984375c9.4375 0 17.117187-7.679688 17.117187-17.117188v-2.597656c.003906-8.855468-6.757812-16.164062-15.386718-17.03125zm-64.84375-316.40625c-3.109376 4.917969-6.777344 9.507813-10.9375 13.667969-14.863282 14.867187-34.375 22.953125-55.164063 22.921875-1.941406-1.28125-3.890625-2.609375-5.847656-3.988281l44.394531-73.457031c11.398438 13.644531 20.808594 27.617187 27.554688 40.855468zm-8.078126-108.261718c6.25 0 11.332032 5.082031 11.332032 11.332031s-5.082032 11.335937-11.332032 11.335937-11.335937-5.085937-11.335937-11.335937 5.085937-11.332031 11.335937-11.332031zm-129.023437 75.703124c-1.378906-1.957031-2.710937-3.910156-3.992187-5.851562-.03125-20.753906 8.058593-40.292969 22.917968-55.15625 4.164063-4.164062 8.753906-7.828125 13.675782-10.9375 13.238281 6.746094 27.207031 16.15625 40.851562 27.554688zm-21.277344-78.3125c6.585938-6.585937 20.375-6.804687 37.832031-.613281-2.871093 2.269531-5.628906 4.707031-8.234374 7.3125-12.386719 12.386719-20.835938 27.511719-24.785157 43.957031-11.011719-22.898437-13.328125-42.140624-4.8125-50.65625zm30.347657 90.359376 99.351562-60.042969c1.390625 1.746093 2.992188 3.3125 4.773438 4.65625l-60.085938 99.425781c-7.9375-6.351562-15.722656-13.328125-23.21875-20.820312-7.492188-7.492188-14.46875-15.28125-20.820312-23.21875zm119.019531 79.546874c-9.519531 0-21.773438-3.476562-35.304688-9.984374 16.457031-3.945313 31.59375-12.382813 43.988281-24.773438 2.605469-2.605469 5.042969-5.363281 7.3125-8.234375 6.191407 17.460937 5.96875 31.25-.613281 37.832031-3.492187 3.488282-8.777343 5.160156-15.382812 5.160156zm-165.613281 68.824219h16.132812c4.144531 0 7.5-3.355469 7.5-7.5s-3.355469-7.5-7.5-7.5h-16.132812v-36.269531c0-1.167969.949218-2.121094 2.117187-2.121094h14.015625c.226562 0 .449219-.011718.667969-.03125 5.136719 4.089844 10.515625 7.742188 16.078125 10.949219.101562.308594.21875.613281.359375.910156l23.375 48.351563h-56.613281zm-127.3125 34.289063v-10.382813c0-1.167969.949218-2.117187 2.117187-2.117187h353.316406c1.167969 0 2.117188.949218 2.117188 2.117187v10.382813c0 1.167968-.949219 2.117187-2.117188 2.117187h-353.316406c-1.167969 0-2.117187-.949219-2.117187-2.117187zm8.335937 151.375c0-1.167969.949219-2.117188 2.117187-2.117188h339.210938c1.167969 0 2.117188.949219 2.117188 2.117188v2.792968h-343.445313zm358.835937 22.511718c0 1.167969-.953124 2.117188-2.121093 2.117188h-369.984375c-1.171875 0-2.121094-.949219-2.121094-2.117188v-2.597656c0-1.167968.949219-2.121094 2.121094-2.121094h369.984375c1.167969 0 2.117187.953126 2.117187 2.121094v2.597656zm0 0"/><path d="m347.007812 38.539062c1.914063 0 3.824219-.730468 5.289063-2.183593l7.082031-7.042969c2.9375-2.917969 2.953125-7.667969.03125-10.605469s-7.667968-2.949219-10.605468-.03125l-7.085938 7.042969c-2.9375 2.921875-2.949219 7.667969-.027344 10.605469 1.464844 1.476562 3.390625 2.214843 5.316406 2.214843zm0 0"/><path d="m325.132812 24.382812c.65625.179688 1.316407.261719 1.964844.261719 3.304688 0 6.328125-2.199219 7.234375-5.539062l2.613281-9.640625c1.085938-4-1.277343-8.117188-5.277343-9.199219-3.992188-1.089844-8.113281 1.277344-9.199219 5.273437l-2.613281 9.640626c-1.082031 4 1.277343 8.117187 5.277343 9.203124zm0 0"/><path d="m353.535156 52.953125c.890625 3.359375 3.925782 5.582031 7.246094 5.582031.636719 0 1.28125-.082031 1.925781-.253906l9.65625-2.558594c4.003907-1.058594 6.390625-5.164062 5.328125-9.167968-1.0625-4.007813-5.171875-6.390626-9.167968-5.332032l-9.65625 2.558594c-4.007813 1.0625-6.390626 5.167969-5.332032 9.171875zm0 0"/></svg>