<svg height="512pt" viewBox="-1 0 512 512" width="512pt" xmlns="http://www.w3.org/2000/svg"><path d="m487.835938 291.519531h3.261718c10.136719 0 18.386719-8.246093 18.386719-18.382812v-7.640625c0-10.136719-8.25-18.386719-18.386719-18.386719h-3.777344c-1.3125-19.597656-5.074218-38.917969-11.21875-57.507813-1.300781-3.933593-5.542968-6.0625-9.476562-4.765624-3.933594 1.300781-6.066406 5.542968-4.769531 9.476562 5.648437 17.070312 9.140625 34.804688 10.425781 52.796875h-40.003906v-8.652344c0-4.140625-3.355469-7.5-7.5-7.5-4.144532 0-7.5 3.359375-7.5 7.5v8.652344h-9.34375v-15.183594c0-4.144531-3.359375-7.5-7.5-7.5-4.144532 0-7.5 3.355469-7.5 7.5v15.183594h-69.824219v-93.128906l32.160156-9.449219c1.5 1.878906 3.375 3.457031 5.550781 4.644531 2.738282 1.496094 5.746094 2.257813 8.78125 2.257813 1.742188 0 3.492188-.25 5.210938-.753906l56.058594-16.472657c7.125 9.746094 13.472656 20.101563 18.875 30.851563 1.316406 2.621094 3.960937 4.136718 6.707031 4.136718 1.132813 0 2.28125-.257812 3.359375-.800781 3.703125-1.859375 5.195312-6.367187 3.335938-10.070312-4.96875-9.890625-10.691407-19.472657-17.042969-28.589844 0 0 32.40625-9.523437 32.410156-9.523437 3.902344-1.152344 10.738281-4.976563 12.800781-17.671876 1.214844-7.5.429688-16.585937-2.21875-25.59375h.003906c-2.648437-9.003906-6.902343-17.074218-11.980468-22.722656-8.609375-9.566406-20.335938-7.933594-20.335938-7.933594l-74 21.742188c-18.503906-12.191406-38.5625-21.636719-59.675781-28.105469v-21.539062c0-10.140625-8.25-18.386719-18.386719-18.386719h-20.601562c-10.136719 0-18.382813 8.246094-18.382813 18.386719v11.605469c-7.308593-.339844-14.6875-.339844-21.996093 0v-11.605469c0-10.140625-8.246094-18.386719-18.382813-18.386719h-20.601563c-10.136718 0-18.386718 8.246094-18.386718 18.386719v21.539062c-38.769532 11.882813-73.929688 33.84375-101.820313 63.636719-2.832031 3.023438-2.675781 7.769531.347657 10.597656 1.449218 1.355469 3.289062 2.027344 5.125 2.027344 2.003906 0 4-.796875 5.476562-2.375 25.046875-26.75 56.34375-46.753906 90.871094-58.152344v191.453125h-69.820313v-15.183593c0-4.144532-3.359375-7.5-7.5-7.5-4.144531 0-7.5 3.355468-7.5 7.5v15.183593h-9.347656v-8.652343c0-4.144532-3.355469-7.5-7.5-7.5-4.140625 0-7.5 3.355468-7.5 7.5v8.652343h-40.003906c2.785156-39.011719 15.972656-76.441406 38.335937-108.609375 2.363282-3.402344 1.523438-8.074218-1.878906-10.4375-3.402344-2.367187-8.074219-1.523437-10.4375 1.875-24.109375 34.683594-38.242188 75.085938-41.058594 117.171875h-3.773437c-10.140625 0-18.386719 8.246094-18.386719 18.386719v7.636719c0 10.140625 8.246094 18.386719 18.386719 18.386719h3.261719v153.042968h-3.261719c-10.140625 0-18.386719 8.25-18.386719 18.386719v30.664063c0 10.136718 8.246094 18.382812 18.386719 18.382812h90.023437c4.144532 0 7.5-3.355469 7.5-7.5s-3.355468-7.5-7.5-7.5h-90.023437c-1.867188 0-3.386719-1.519531-3.386719-3.386719v-30.664062c0-1.863281 1.519531-3.382813 3.386719-3.382813h187.589843v37.433594h-64.90625c-4.140624 0-7.5 3.355469-7.5 7.5s3.359376 7.5 7.5 7.5h350.027344c10.136719 0 18.382813-8.246094 18.382813-18.386719v-30.664062c0-10.136719-8.246094-18.382813-18.382813-18.382813h-3.265625v-153.046875zm-179.726563-44.410156h-8.492187v-25.097656c0-4.144531-3.359376-7.5-7.5-7.5h-11.378907v-48.082031l27.371094-8.042969zm34.785156-139.832031 6.832031 23.246094-105.984374 31.140624v-25.257812zm-99.152343 70.023437 21.996093-6.464843v43.675781h-21.996093zm40.875 52.210938v17.601562h-59.75v-17.601562zm85.96875-93.226563c-1.175782.347656-2.121094-.023437-2.578126-.273437-.460937-.25-1.28125-.847657-1.625-2.019531l-11.355468-38.640626c-.527344-1.792968.503906-3.679687 2.292968-4.207031l12.777344-3.753906 13.261719 45.140625zm75.601562-46.730468c2.441406 8.304687 6.261719 15.789062 10.824219 21.339843l-59.257813 17.410157-13.265625-45.140626 59.261719-17.410156c-.839844 7.132813-.003906 15.496094 2.4375 23.800782zm28.523438-8.378907c4.332031 14.75 1.144531 23.792969-.398438 24.636719-.003906 0-.003906 0-.007812 0-.023438.003906-.042969.003906-.0625.003906-1.933594 0-9.378907-5.914062-13.660157-20.492187-4.332031-14.734375-1.152343-23.773438.390625-24.632813l.019532-.003906c.019531 0 .039062-.003906.058593-.003906 1.929688 0 9.375 5.917968 13.660157 20.492187zm-111.269532-7.460937-10.347656 3.039062c-7.359375 2.164063-12.339844 8.546875-13.097656 15.738282l-16.886719 4.960937v-41.789063c14.023437 4.625 27.523437 10.667969 40.332031 18.050782zm-79.316406-58.714844h20.597656c1.867188 0 3.386719 1.519531 3.386719 3.386719v83.472656l-27.371094 8.042969v-91.515625c0-1.867188 1.519531-3.386719 3.386719-3.386719zm-18.386719 30.003906v69.304688l-21.996093 6.464844v-75.769532c7.304687-.359375 14.691406-.359375 21.996093 0zm-64.367187-26.617187c0-1.867188 1.519531-3.386719 3.386718-3.386719h20.601563c1.867187 0 3.386719 1.519531 3.386719 3.386719v196.125h-11.378906c-4.144532 0-7.5 3.355469-7.5 7.5v25.101562h-8.492188v-228.726562zm-186.371094 254.75v-7.640625c0-1.867188 1.519531-3.386719 3.386719-3.386719h472.710937c1.867188 0 3.386719 1.519531 3.386719 3.386719v7.640625c0 1.867187-1.519531 3.386719-3.386719 3.386719h-472.710937c-1.867188-.003907-3.386719-1.519532-3.386719-3.386719zm457.835938 18.382812v19.050781h-436.1875v-19.050781zm-436.1875 153.046875v-22.011718h40.554687v22.011718zm55.554687 0v-29.511718c0-4.144532-3.355469-7.5-7.5-7.5h-48.054687v-81.984376h436.1875v81.984376h-48.058594c-4.144532 0-7.5 3.355468-7.5 7.5v29.511718h-113.773438v-32.691406h4.554688c4.140625 0 7.5-3.355469 7.5-7.5 0-4.140625-3.359375-7.5-7.5-7.5h-4.554688v-19.433594c0-10.140625-8.246094-18.386718-18.386718-18.386718h-60.753907c-10.136719 0-18.386719 8.246093-18.386719 18.386718v19.433594h-4.550781c-4.144531 0-7.5 3.359375-7.5 7.5 0 4.144531 3.355469 7.5 7.5 7.5h4.550781v32.691406zm196.300781-47.691406h-67.527344v-19.433594c0-1.867187 1.519532-3.386718 3.386719-3.386718h60.757813c1.867187 0 3.386718 1.519531 3.386718 3.386718v19.433594zm-67.527344 100.125v-85.125h67.527344v85.125zm273.503907-34.050781v30.664062c0 1.867188-1.515625 3.386719-3.382813 3.386719h-187.59375v-37.433594h187.59375c1.867188 0 3.382813 1.519532 3.382813 3.382813zm-62.203125-18.382813v-22.011718h40.558594v22.011718zm0 0"/><path d="m335.515625 430.175781h.113281c4.140625 0 7.5-3.359375 7.5-7.5 0-4.144531-3.359375-7.5-7.5-7.5h-.113281c-4.144531 0-7.5 3.355469-7.5 7.5 0 4.140625 3.355469 7.5 7.5 7.5zm0 0"/><path d="m173.96875 415.175781h-.113281c-4.144531 0-7.5 3.355469-7.5 7.5 0 4.140625 3.355469 7.5 7.5 7.5h.113281c4.140625 0 7.5-3.359375 7.5-7.5 0-4.144531-3.359375-7.5-7.5-7.5zm0 0"/><path d="m424.777344 397.152344h24.09375c4.144531 0 7.5-3.355469 7.5-7.5 0-4.140625-3.355469-7.5-7.5-7.5h-24.09375c-4.144532 0-7.5 3.359375-7.5 7.5 0 4.144531 3.359375 7.5 7.5 7.5zm0 0"/><path d="m424.777344 374.605469h24.09375c4.144531 0 7.5-3.355469 7.5-7.5 0-4.140625-3.355469-7.5-7.5-7.5h-24.09375c-4.144532 0-7.5 3.359375-7.5 7.5 0 4.144531 3.359375 7.5 7.5 7.5zm0 0"/><path d="m84.703125 382.152344h-24.09375c-4.140625 0-7.5 3.359375-7.5 7.5 0 4.144531 3.359375 7.5 7.5 7.5h24.09375c4.144531 0 7.5-3.355469 7.5-7.5 0-4.140625-3.355469-7.5-7.5-7.5zm0 0"/><path d="m84.703125 359.605469h-24.09375c-4.140625 0-7.5 3.359375-7.5 7.5 0 4.144531 3.359375 7.5 7.5 7.5h24.09375c4.144531 0 7.5-3.355469 7.5-7.5 0-4.140625-3.355469-7.5-7.5-7.5zm0 0"/></svg>