<svg height="511pt" viewBox="-25 1 511 511.999" width="511pt" xmlns="http://www.w3.org/2000/svg"><path d="m447.53125 256.714844-7.257812-.90625c-10.054688-1.257813-20.003907 1.472656-28.003907 7.695312-5.074219 3.945313-8.976562 8.996094-11.476562 14.722656l-131.140625-16.414062-21.238282-56.628906 13.769532 3.472656c3.835937.96875 7.679687 1.429688 11.46875 1.429688 20.976562 0 40.128906-14.195313 45.488281-35.441407l11.761719-46.625c4.742187-3.21875 8.113281-7.980469 9.527344-13.582031l10.429687-41.339844c2.34375-9.292968-3.308594-18.757812-12.597656-21.101562l-20.589844-5.191406c-4.5-1.136719-9.175781-.449219-13.160156 1.929687s-6.804688 6.167969-7.9375 10.667969l-2.359375 9.347656-.503906-.125c-9.292969-2.34375-18.753907 3.308594-21.097657 12.597656l-3.820312 15.144532c-1.527344 6.050781-.605469 12.335937 2.59375 17.695312.070312.113281.152343.21875.226562.335938l-8.042969 31.878906-24.714843-6.234375c10.035156-17.71875 14.101562-38.382813 11.429687-58.507813-.546875-4.109375-4.3125-6.996094-8.421875-6.449218-4.105469.546874-6.992187 4.316406-6.449219 8.421874 2.097657 15.796876-.753906 31.996094-8.027343 46.210938l-67.078125-17.789062c-.28125-1.707032-.726563-3.410157-1.359375-5.09375-1.800781-4.800782-4.835938-8.785157-8.609375-11.726563l12.8125-79.882813c25.871094 1.925782 49.414062 16.578126 62.433594 39.28125 1.386718 2.414063 3.914062 3.769532 6.515624 3.769532 1.265626 0 2.546876-.320313 3.722657-.996094 3.59375-2.0625 4.835937-6.644531 2.773437-10.238281-16.667968-29.054688-47.777344-47.042969-81.285156-47.042969-.183594 0-.371094 0-.554688.00390625-.070312 0-.144531.00390625-.214843.00390625-.039063 0-.082031 0-.121094.0039063-10.929687.0898432-21.714844 2.0976562-32.0625 5.9765622-13.816406 5.183594-25.882813 13.269531-35.851563 24.042969-2.816406 3.039062-2.632812 7.785156.40625 10.597656 3.042969 2.816406 7.785157 2.632813 10.601563-.40625 8.367187-9.042968 18.5-15.835937 30.113281-20.191406 5.945313-2.226562 12.066406-3.707031 18.273438-4.453125l-11.851563 73.902344c-3.871093-.335938-7.871093.15625-11.742187 1.609375-6.730469 2.523437-12.074219 7.519531-15.046875 14.0625-2.976563 6.542968-3.222657 13.851562-.699219 20.582031 4.046875 10.789063 14.324219 17.457031 25.222656 17.457031 3.132813 0 6.316406-.550781 9.417969-1.714844 7.113281-2.667968 12.429687-8.046874 15.230469-14.527343l60.429687 16.023437c-8.804687 11.097656-20.367187 19.511719-33.90625 24.589844-40.675781 15.25-86.175781-5.425781-101.429687-46.101562-6.652344-17.742188-6.695313-37.285157-.113282-55.023438 1.4375-3.882812-.542968-8.199219-4.425781-9.640625-3.882812-1.4375-8.199219.539063-9.640625 4.421875-4.769531 12.863281-6.597656 26.515625-5.527344 39.996094l-20.933593 7.851562-19.347657-51.589844c-1.453124-3.878906-5.777343-5.839843-9.65625-4.390624-3.878906 1.457031-5.84375 5.777343-4.386718 9.65625l19.347656 51.59375-4.667969 1.75c-9.117187 3.417968-16.359375 10.183593-20.390625 19.050781-4.027344 8.867187-4.363281 18.769531-.945312 27.890625l54.328125 144.855468c3.417969 9.117188 10.183593 16.359376 19.050781 20.390626 4.816406 2.1875 9.933594 3.285156 15.070312 3.285156 4.320313 0 8.652344-.777344 12.820313-2.339844l38.089844-14.285156c5.984375 15.046875 17.339843 27 32.128906 33.722656 8.238281 3.742188 16.996094 5.625 25.785156 5.625 4.613281 0 9.234375-.523438 13.789063-1.5625l15.605468 18.925781-43.761718 36.089844c-5.214844-1.449219-11.03125-.429687-15.515625 3.265625l-21.699219 17.898438c-7.289062 6.007812-8.328125 16.824218-2.316406 24.113281l43.503906 52.753906c2.910156 3.53125 7.023438 5.714844 11.578125 6.152344.558594.054687 1.117187.082031 1.667969.082031 3.964844 0 7.773437-1.363281 10.871094-3.917969l5.640624-4.652343c7.820313-6.449219 12.660157-15.558594 13.628907-25.648438.617187-6.414062-.386719-12.738281-2.851563-18.503906l10.105469-8.332032c3.195313-2.636718 3.652344-7.363281 1.015625-10.558593-2.632812-3.195313-7.359375-3.648438-10.558594-1.015625l-8.914062 7.355468-24.234375-29.382812 45.179687-37.257812 16.328125-.4375c.433594 2.636718 1.121094 5.261718 2.085938 7.839843 2.488281 6.632813 6.570312 12.453125 11.832031 17.019531l-16.964844 13.988282c-3.195312 2.636718-3.648437 7.363281-1.011718 10.558594 1.480468 1.796874 3.625 2.730468 5.789062 2.730468 1.679688 0 3.371094-.5625 4.769531-1.714844l18.667969-15.398437c22.613281-18.648437 25.835938-52.214844 7.191406-74.824219l-6.144531-7.449218 108.414063 13.570312c.472656.910156 1.023437 1.789062 1.667968 2.617188 2.808594 3.609374 6.855469 5.914062 11.394532 6.480468 0 0 29.34375 3.628906 30.050781 3.628906 8.503906 0 15.90625-6.351562 16.988281-15.003906l8.492188-67.847656c1.175781-9.371094-5.496094-17.953125-14.867188-19.128906zm-229.355469 219.632812c-.585937 6.101563-3.515625 11.609375-8.242187 15.511719l-5.644532 4.652344c-.558593.464843-1.15625.511719-1.558593.476562-.398438-.039062-.976563-.203125-1.4375-.765625l-43.507813-52.753906c-.746094-.90625-.617187-2.25.289063-3l3.863281-3.183594 18.367188 22.234375c1.480468 1.796875 3.625 2.726563 5.785156 2.726563 1.683594 0 3.375-.5625 4.773437-1.71875 3.191407-2.636719 3.644531-7.363282 1.007813-10.558594l-18.359375-22.230469 6.265625-5.164062c.5625-.464844 1.160156-.519531 1.558594-.480469.402343.039062.976562.203125 1.441406.765625l30.261718 36.695313c3.898438 4.726562 5.722657 10.691406 5.136719 16.792968zm115.199219-153.0625 1.769531-9.023437c.148438.003906.292969.007812.441407.007812 4.910156 0 9.902343-.863281 14.761718-2.6875 10.511719-3.941406 18.769532-11.660156 23.394532-21.625l23.640624 2.960938-4.730468 37.789062zm-23.125-41.273437 47.386719 5.929687c-3.085938 4.320313-7.398438 7.664063-12.554688 9.597656-13.902343 5.214844-29.433593-1.75-34.832031-15.527343zm-80.734375-84.503907-16.535156 6.203126-2.578125-6.875 16.535156-6.199219zm53.820313-97.476562 3.820312-15.144531c.269531-1.074219 1.238281-1.792969 2.300781-1.792969.191407 0 .386719.023438.582031.070312l7.777344 1.964844c4.015625 1.011719 8.09375-1.421875 9.105469-5.4375l4.195313-16.621094c0-.003906 0-.003906 0-.003906.207031-.828125.769531-1.269531 1.082031-1.457031.316406-.1875.96875-.476563 1.800781-.261719l20.589844 5.191406c1.269531.320313 2.042968 1.613282 1.722656 2.882813l-10.429688 41.339844c-.546874 2.167969-1.90625 3.992187-3.824218 5.140625-1.917969 1.144531-4.167969 1.476562-6.335938.929687l-26.320312-6.640625c-2.167969-.546875-3.992188-1.90625-5.140625-3.824218-1.144531-1.917969-1.472657-4.167969-.925781-6.335938zm-14.324219 62.851562c3.351562 0 6.40625-2.265624 7.265625-5.667968l8.28125-32.835938c.394531.121094.773437.257813 1.175781.359375l26.320313 6.640625c.800781.199219 1.605468.347656 2.414062.464844l-9.871094 39.132812c-4.304687 17.058594-21.6875 27.4375-38.746094 23.132813l-23.84375-6.011719-12.789062-34.097656c.210938-.253906.417969-.507812.625-.761719 0 0 38.558594 9.644531 39.167969 9.644531zm-131.074219-35.453124c-6.148438 2.304687-13.027344-.816407-15.332031-6.964844-1.117188-2.976563-1.003907-6.210938.3125-9.105469 1.3125-2.898437 3.679687-5.105469 6.65625-6.222656 1.371093-.515625 2.78125-.757813 4.167969-.757813 4.820312 0 9.371093 2.949219 11.160156 7.726563 2.304687 6.144531-.820313 13.019531-6.964844 15.324219zm-17.40625 120.886718 26.175781 10.261719c-.054687.132813-.113281.261719-.167969.398437l-9.90625 25.273438c-.402343 1.023438-.699218 2.0625-.953124 3.113281l-32.371094-12.691406c-7.933594-3.113281-14.183594-9.125-17.59375-16.9375-3.414063-7.8125-3.578125-16.484375-.453125-24.457031l22.996093-59.597656c8.808594 5.394531 18.46875 9.328124 28.570313 11.605468l-20.558594 53.347656c-1.484375 3.851563.421875 8.175782 4.261719 9.683594zm68.023438 37.367188 15.957031 6.257812c.796875.3125 1.164062.921875 1.308593 1.257813.148438.339843.347657 1.023437.035157 1.820312l-7.75 19.769531c-.3125.796876-.921875 1.164063-1.261719 1.3125-.335938.144532-1.019531.34375-1.816406.03125l-39.695313-15.5625c-2.078125-.816406-3.71875-2.390624-4.613281-4.441406-.894531-2.046875-.9375-4.320312-.121094-6.402344l9.910156-25.273437c1.292969-3.296875 4.457032-5.3125 7.800782-5.3125 1.011718 0 2.042968.183594 3.042968.578125l14.539063 5.699219c.796875.3125 1.164063.925781 1.3125 1.261719.144531.335937.34375 1.019531.035156 1.816406l-2.929687 7.46875c-1.511719 3.855468.386718 8.207031 4.246094 9.71875zm-159.363282-95.117188 24.757813-9.28125 3.003906 8.003906-24.761719 9.285157zm69.648438 124.605469c-5.363282 2.015625-11.195313 1.816406-16.414063-.554687-5.21875-2.371094-9.199219-6.632813-11.214843-12.003907l-18.796876-50.125 6.5-2.4375c3.878907-1.457031 5.84375-5.777343 4.390626-9.65625-1.453126-3.878906-5.777344-5.84375-9.65625-4.390625l-6.503907 2.4375-.628906-1.671875 6.503906-2.4375c3.878907-1.457031 5.84375-5.777343 4.390625-9.65625-1.453125-3.878906-5.777344-5.84375-9.65625-4.390625l-6.503906 2.4375-3.789062-10.101562 31.78125-11.921875c1.863281-.699219 3.371093-2.109375 4.195312-3.917969.824219-1.8125.894531-3.875.195312-5.738281l-8.269531-22.050781c-1.457031-3.878907-5.777343-5.84375-9.65625-4.390626l-31.78125 11.921876-2.25-5.996094 26.339844-9.878906c3.878906-1.453126 5.84375-5.777344 4.390625-9.65625-1.453125-3.878907-5.777344-5.84375-9.65625-4.390626l-26.28125 9.855469c-1.523438-5-1.207031-10.316406.976562-15.113281 2.371094-5.21875 6.632813-9.203125 12-11.214844l36.832032-13.8125c.871094 3.511719 1.921875 6.992188 3.207031 10.410156 5.664063 15.105469 14.832031 27.882813 26.234375 37.777344l-24.4375 63.335938c-9.441406 24.082031 2.46875 51.355468 26.550781 60.796875l35.089844 13.753906zm81.695312 19.828125c-7.851562-3.570312-14.433594-9.082031-19.242187-15.980469l28.257812 11.078125c2.058594.808594 4.203125 1.210938 6.347657 1.210938 2.363281-.003906 4.71875-.488282 6.949218-1.464844 4.253906-1.855469 7.527344-5.261719 9.222656-9.582031l7.75-19.769531c1.695313-4.320313 1.605469-9.042969-.25-13.296876-1.859374-4.253906-5.261718-7.527343-9.582031-9.222656l-8.976562-3.519531.1875-.484375c1.695312-4.320312 1.605469-9.042969-.25-13.296875-1.859375-4.253906-5.261719-7.527344-9.582031-9.222656l-14.542969-5.699219c-6.492188-2.546875-13.449219-1.972656-19.210938.992188l-24.664062-9.671876 19.136719-49.65625c1.761718.101563 3.53125.167969 5.308593.167969 10.917969 0 22.019531-1.921875 32.832031-5.976562 10.125-3.796875 19.320313-9.167969 27.359376-15.910157l4.085937 10.894532-23.5625 8.835937c-3.875 1.457031-5.839844 5.777344-4.386719 9.65625l7.84375 20.917969c.699219 1.859375 2.109375 3.371094 3.917969 4.191406.984375.449219 2.042969.671875 3.105469.671875.890625 0 1.78125-.15625 2.632812-.476562l23.558594-8.835938 22.417969 59.773438c.980469 2.609375 3.324219 4.460937 6.089843 4.808593l30.828126 3.859376c.449218 2.347656 1.09375 4.660156 1.9375 6.914062 4.402343 11.730469 13.5 20.347656 24.359374 24.53125l-1.957031 9.980469-44.792969-5.605469c-1.207031-.148438-2.425781-.007812-3.566406.417969 0 0-55.640625 20.800781-55.664062 20.808593-11.1875 3.550782-23.132813 2.851563-33.898438-2.039062zm48.597656 12.617188 37.707032-14.140626 6.15625 7.464844c-7.070313 6.222656-11.78125 14.628906-13.570313 23.695313l-15.902343.425781zm46.175782 34.601562c-3.929688-10.476562-.878906-22.214844 7.070312-29.554688 8.210938 12.433594 8.253906 28.351563.808594 40.710938-3.507812-2.972656-6.238281-6.78125-7.878906-11.15625zm172.207031-108.238281-8.492187 67.847656c-.148438 1.164063-1.207032 1.996094-2.378907 1.847656l-4.515625-.5625 3.621094-31.121093c.480469-4.117188-2.464844-7.839844-6.582031-8.320313-4.121094-.476563-7.835938 2.472656-8.316407 6.585937l-3.605468 30.992188-8.515625-1.066406c-.722657-.089844-1.167969-.488282-1.417969-.804688-.246094-.316406-.523438-.847656-.429688-1.570312l5.90625-47.195313c.761719-6.082031 3.847657-11.503906 8.683594-15.265625 4.070313-3.164062 8.96875-4.835937 14.039063-4.835937.960937 0 1.929687.058593 2.898437.183593l7.253906.90625c1.167969.144532 1.996094 1.210938 1.851563 2.378907zm0 0"/><path d="m218.585938 239.707031c3.878906-1.460937 5.835937-5.785156 4.375-9.664062-1.460938-3.875-5.792969-5.835938-9.664063-4.371094l-.09375.035156c-3.875 1.460938-5.785156 5.769531-4.324219 9.644531 1.128906 3.003907 4.007813 4.84375 7.046875 4.84375.886719-.003906 1.785157-.160156 2.660157-.488281zm0 0"/><path d="m224.542969 255.816406c3.890625-1.417968 5.894531-5.722656 4.476562-9.613281s-5.722656-5.898437-9.613281-4.476563l-.09375.035157c-3.894531 1.417969-5.851562 5.703125-4.433594 9.597656 1.109375 3.039063 4.007813 4.917969 7.078125 4.917969.859375 0 1.734375-.148438 2.585938-.460938zm0 0"/><path d="m350.957031 212.371094c-.019531 4.144531 3.320313 7.515625 7.464844 7.535156h.035156c4.125 0 7.480469-3.332031 7.5-7.460938l.011719-2.722656c.019531-4.140625-3.320312-7.515625-7.464844-7.535156-.011718 0-.023437 0-.035156 0-4.125 0-7.480469 3.332031-7.5 7.460938zm0 0"/><path d="m358.335938 247.613281h.035156c4.125 0 7.480468-3.335937 7.5-7.464843l.011718-2.722657c.019532-4.144531-3.324218-7.515625-7.464843-7.535156-.011719 0-.023438 0-.035157 0-4.125 0-7.480468 3.335937-7.5 7.464844l-.011718 2.722656c-.019532 4.144531 3.320312 7.515625 7.464844 7.535156zm0 0"/><path d="m363.410156 224.902344c-.019531 4.140625 3.324219 7.515625 7.464844 7.535156l2.722656.011719h.035156c4.125 0 7.480469-3.335938 7.5-7.464844.019532-4.144531-3.324218-7.515625-7.464843-7.535156l-2.722657-.011719c-.011718 0-.023437 0-.035156 0-4.125 0-7.480468 3.332031-7.5 7.464844zm0 0"/><path d="m353.429688 224.898438c.015624-4.144532-3.324219-7.515626-7.464844-7.535157l-2.722656-.011719c-.011719 0-.023438 0-.035157 0-4.125 0-7.480469 3.332032-7.5 7.464844-.019531 4.140625 3.320313 7.515625 7.464844 7.535156l2.722656.011719h.035157c4.125 0 7.480468-3.335937 7.5-7.464843zm0 0"/><path d="m404.675781 184.9375h.035157c4.125 0 7.480468-3.335938 7.5-7.464844l.011718-2.722656c.019532-4.140625-3.320312-7.515625-7.460937-7.535156-.015625 0-.027344 0-.039063 0-4.125 0-7.480468 3.332031-7.5 7.464844l-.011718 2.71875c-.019532 4.144531 3.320312 7.515624 7.464843 7.539062zm0 0"/><path d="m404.671875 194.917969c-.011719 0-.023437 0-.035156 0-4.125 0-7.480469 3.335937-7.5 7.464843l-.011719 2.722657c-.019531 4.144531 3.324219 7.515625 7.464844 7.535156h.035156c4.125 0 7.480469-3.335937 7.5-7.464844l.011719-2.722656c.019531-4.140625-3.320313-7.515625-7.464844-7.535156zm0 0"/><path d="m409.664062 189.929688c-.015624 4.140624 3.324219 7.515624 7.46875 7.535156l2.71875.011718h.039063c4.125 0 7.476563-3.335937 7.496094-7.464843.019531-4.140625-3.320313-7.515625-7.464844-7.535157l-2.722656-.011718c-.011719 0-.023438 0-.035157 0-4.125 0-7.480468 3.335937-7.5 7.464844zm0 0"/><path d="m389.425781 197.378906 2.71875.011719h.039063c4.125 0 7.480468-3.332031 7.5-7.460937.019531-4.140626-3.320313-7.515626-7.460938-7.539063l-2.722656-.011719c-.011719 0-.023438 0-.039062 0-4.125 0-7.476563 3.332032-7.5 7.460938-.019532 4.140625 3.320312 7.515625 7.464843 7.539062zm0 0"/><path d="m38.5 366.414062h.035156c4.125 0 7.480469-3.335937 7.5-7.464843l.011719-2.722657c.019531-4.144531-3.320313-7.515624-7.464844-7.535156-4.117187.019532-7.515625 3.320313-7.535156 7.464844l-.011719 2.722656c-.019531 4.140625 3.324219 7.515625 7.464844 7.535156zm0 0"/><path d="m38.496094 376.394531c-.011719 0-.023438 0-.035156 0-4.125 0-7.480469 3.335938-7.5 7.464844l-.011719 2.722656c-.019531 4.144531 3.324219 7.515625 7.464843 7.535157h.035157c4.125 0 7.480469-3.335938 7.5-7.464844l.011719-2.722656c.019531-4.140626-3.320313-7.515626-7.464844-7.535157zm0 0"/><path d="m53.746094 363.953125-2.722656-.011719c-.011719 0-.023438 0-.035157 0-4.125 0-7.476562 3.335938-7.496093 7.464844-.019532 4.140625 3.320312 7.515625 7.464843 7.535156l2.71875.011719h.039063c4.125 0 7.476562-3.335937 7.496094-7.464844.019531-4.140625-3.320313-7.515625-7.464844-7.535156zm0 0"/><path d="m33.507812 371.402344c.019532-4.144532-3.324218-7.515625-7.464843-7.535156l-2.722657-.011719c-.011718 0-.023437 0-.035156 0-4.125 0-7.480468 3.335937-7.5 7.464843-.019531 4.140626 3.324219 7.515626 7.464844 7.535157l2.722656.011719h.035156c4.125 0 7.480469-3.335938 7.5-7.464844zm0 0"/><path d="m307.621094 452.523438h.039062c4.125 0 7.476563-3.332032 7.496094-7.464844l.015625-2.71875c.019531-4.144532-3.324219-7.515625-7.464844-7.539063-.011719 0-.023437 0-.039062 0-4.125 0-7.476563 3.335938-7.496094 7.464844l-.015625 2.722656c-.019531 4.140625 3.324219 7.515625 7.464844 7.535157zm0 0"/><path d="m307.621094 462.507812c-.011719 0-.023438 0-.035156 0-4.125 0-7.480469 3.332032-7.5 7.464844l-.011719 2.71875c-.023438 4.144532 3.320312 7.519532 7.460937 7.539063h.039063c4.125 0 7.476562-3.335938 7.5-7.464844l.011719-2.722656c.019531-4.140625-3.324219-7.515625-7.464844-7.535157zm0 0"/><path d="m322.871094 450.0625-2.722656-.011719c-.011719 0-.023438 0-.039063 0-4.125 0-7.476563 3.335938-7.496094 7.464844-.019531 4.144531 3.320313 7.515625 7.464844 7.535156l2.722656.011719h.035157c4.125 0 7.476562-3.332031 7.5-7.464844.015624-4.140625-3.324219-7.511718-7.464844-7.535156zm0 0"/><path d="m302.628906 457.519531c.019532-4.144531-3.320312-7.519531-7.460937-7.539062l-2.722657-.015625c-.011718 0-.023437 0-.039062 0-4.125 0-7.476562 3.335937-7.5 7.464844-.019531 4.140624 3.320312 7.515624 7.464844 7.535156l2.71875.015625h.039062c4.125 0 7.480469-3.335938 7.5-7.460938zm0 0"/><path d="m271.542969 22.855469h.035156c4.125 0 7.480469-3.335938 7.5-7.464844l.011719-2.722656c.019531-4.144531-3.320313-7.515625-7.464844-7.535157-4.125-.015624-7.511719 3.320313-7.535156 7.464844l-.011719 2.722656c-.019531 4.140626 3.324219 7.511719 7.464844 7.535157zm0 0"/><path d="m271.539062 32.835938c-.011718 0-.023437 0-.035156 0-4.125 0-7.476562 3.335937-7.5 7.464843l-.011718 2.722657c-.019532 4.144531 3.324218 7.515624 7.464843 7.535156h.035157c4.125 0 7.480468-3.335938 7.5-7.464844l.011718-2.722656c.019532-4.140625-3.320312-7.515625-7.464844-7.535156zm0 0"/><path d="m276.535156 27.847656c-.019531 4.140625 3.320313 7.515625 7.464844 7.535156l2.71875.011719h.039062c4.125 0 7.476563-3.335937 7.496094-7.464843.019532-4.144532-3.320312-7.515626-7.464844-7.535157l-2.71875-.011719c-.015624 0-.027343 0-.039062 0-4.125 0-7.476562 3.335938-7.496094 7.464844zm0 0"/><path d="m256.292969 35.296875 2.722656.011719h.035156c4.125 0 7.480469-3.335938 7.5-7.464844.019531-4.144531-3.324219-7.515625-7.464843-7.535156l-2.722657-.011719c-.011719 0-.023437 0-.035156 0-4.125 0-7.480469 3.335937-7.5 7.464844-.019531 4.140625 3.324219 7.515625 7.464844 7.535156zm0 0"/></svg>