<svg height="512pt" viewBox="-7 0 512 512" width="512pt" xmlns="http://www.w3.org/2000/svg"><path d="m480.246094 57.511719h-41.476563v-26.585938c0-10.007812-8.140625-18.148437-18.148437-18.148437h-61.09375c-4.144532 0-7.5 3.355468-7.5 7.5 0 4.144531 3.355468 7.5 7.5 7.5h61.09375c1.738281 0 3.148437 1.410156 3.148437 3.148437v17.109375h-121.285156v-20.257812h24.382813c4.144531 0 7.5-3.359375 7.5-7.5 0-4.144532-3.355469-7.5-7.5-7.5h-24.382813v-5.277344c0-4.144531-3.355469-7.5-7.5-7.5-4.140625 0-7.5 3.355469-7.5 7.5v150.855469h-4.574219c-3.621094 0-6.945312 1.25-9.59375 3.324219h-74.828125v-15.734376c3.042969-2.371093 5.015625-6.0625 5.015625-10.210937v-23.523437c0-10.148438-8.257812-18.402344-18.40625-18.402344h-4.835937c-5.960938-37.929688-38.585938-66.480469-77.933594-66.480469-39.105469 0-71.949219 28.628906-77.941406 66.480469h-4.824219c-10.148438 0-18.402344 8.253906-18.402344 18.402344v23.523437c0 4.148437 1.96875 7.839844 5.011719 10.210937v50.992188c-1.789063 5.9375-2.773437 12.363281-2.773437 19.074219v26.65625c0 4.144531 3.359374 7.5 7.5 7.5 4.144531 0 7.5-3.355469 7.5-7.5v-26.65625c0-19.304688 10.117187-35.394531 23.398437-38.699219v118.171875h-23.398437v-20.15625c0-4.140625-3.355469-7.5-7.5-7.5-4.140626 0-7.5 3.359375-7.5 7.5v26.058594c-2.121094 2.664062-3.398438 6.03125-3.398438 9.695312v8.8125c0 22.664063 18.4375 41.101563 41.101562 41.101563h.117188c.152344 0 .304688-.007813.457031-.011719v96.589844c-4.878906 1.652343-9.355469 4.410156-13.105469 8.15625-6.417968 6.417969-9.953124 14.949219-9.953124 24.027343v6.359376c-.003907 8.75 7.117187 15.875 15.871093 15.875l59.464844.007812c3.078125 0 5.941406-.894531 8.378906-2.414062 2.433594 1.519531 5.300781 2.414062 8.378907 2.414062l59.460937-.003906h.003906c8.75-.003906 15.871094-7.125 15.871094-15.878906v-6.359376c0-9.074218-3.535156-17.605468-9.953125-24.023437-3.75-3.75-8.226562-6.507813-13.109375-8.15625v-43.863281c0-.023438.003906-.050782.003906-.074219 0-.027344-.003906-.050781-.003906-.078125v-46.164062c0-.027344.003906-.050782.003906-.078126 0-.023437-.003906-.050781-.003906-.078124v-35.167969h10.101563c14.007812 0 25.40625-11.394531 25.40625-25.40625v-33.339844c0-4.140625-3.359376-7.5-7.5-7.5-4.140626 0-7.5 3.359375-7.5 7.5v33.339844c0 5.738281-4.667969 10.40625-10.40625 10.40625h-10.101563l.003906-101.332031h20.503907v24.929687c0 4.140625 3.359374 7.5 7.5 7.5 4.140624 0 7.5-3.359375 7.5-7.5v-24.929687h70.738281c2.652343 4.835937 7.789062 8.121093 13.679687 8.121093h4.578125v280.636719c0 4.144531 3.355469 7.5 7.5 7.5s7.5-3.355469 7.5-7.5v-280.636719h6.046875c13.394532 0 24.289063-10.894531 24.289063-24.289062v-.117188c0-18.941406-12.878907-34.917969-30.335938-39.660156v-23.410156h23.328125v26.585937c0 5.757813 2.703125 10.882813 6.894532 14.210938.222656.1875.457031.359375.699218.519531 2.976563 2.140625 6.617188 3.417969 10.554688 3.417969h136.28125c10.007812 0 18.148437-8.140625 18.148437-18.144532v-87.320312c0-10.003906-8.140625-18.144531-18.148437-18.144531zm-41.476563 60.726562v-10.46875h44.625v26.519531h-54.328125c5.761719-3.046874 9.703125-9.09375 9.703125-16.050781zm41.476563-45.726562c1.734375 0 3.148437 1.410156 3.148437 3.144531v17.113281h-44.625v-20.257812zm-56.476563-9.476563v29.734375h-121.285156v-29.734375zm-265.183593 98.644532c3.875-3.929688 7.339843-8.28125 10.332031-12.992188h14.570312v12.992188zm-10.601563 294.105468h-37.28125c-.296875 0-.582031.03125-.875.046875v-57.851562h15.933594c2.746093 10.886719 11.335937 19.476562 22.222656 22.226562zm19.734375-344.179687c0 4.144531-2.347656 7.242187-4.445312 7.242187-2.101563 0-4.449219-3.097656-4.449219-7.242187 0-4.148438 2.347656-7.246094 4.449219-7.246094 2.097656 0 4.445312 3.097656 4.445312 7.246094zm-23.894531 0c0 3.039062.535156 5.933593 1.503906 8.578125-6.375 18.3125-23.457031 30.511718-42.996094 30.511718-19.507812 0-36.621093-12.210937-42.996093-30.519531.964843-2.640625 1.503906-5.535156 1.503906-8.574219 0-4.769531-1.324219-9.191406-3.570313-12.816406 1.070313-7.382812 5.609375-24.574218 45.0625-24.574218 10.238281 0 40.890625.015624 45.03125 24.621093-2.226562 3.617188-3.539062 8.019531-3.539062 12.773438zm-97.984375 0c0 4.144531-2.351563 7.242187-4.449219 7.242187-2.101563 0-4.449219-3.097656-4.449219-7.242187 0-4.148438 2.347656-7.246094 4.449219-7.246094 2.097656 0 4.449219 3.097656 4.449219 7.246094zm-1.335938 21.953125c1.296875-.238282 2.546875-.625 3.746094-1.144532 10.144531 20.234376 30.839844 33.28125 54.078125 33.28125 23.285156 0 43.953125-13.035156 54.085937-33.277343 1.195313.515625 2.445313.902343 3.738282 1.140625-10.367188 22.050781-32.640625 36.609375-57.824219 36.609375-25.207031 0-47.464844-14.550781-57.824219-36.609375zm81.257813 249.421875h-15.933594v-61.4375h38.15625v39.210937c-10.886719 2.75-19.476563 11.335938-22.222656 22.226563zm22.222656-6.238281v27.476562c-4.855469-2.664062-8.15625-7.820312-8.15625-13.738281s3.300781-11.078125 8.15625-13.738281zm-83.152344-70.199219c-.851562-2.800781-2.480469-5.257813-4.621093-7.144531h87.773437v7.144531zm1.78125-129.863281c10.785157 5.453124 22.941407 8.488281 35.71875 8.488281 12.765625 0 24.921875-3.039063 35.707031-8.496094.054688.003906.105469.007813.160157.007813h9.789062v107.71875h-66.324219v-44.640626c0-4.140624-3.355468-7.5-7.5-7.5-4.140624 0-7.5 3.359376-7.5 7.5v44.640626h-9.867187v-107.71875zm-1.101562 160.023437v-15.160156h29.320312v61.4375h-15.929687c-2.746094-10.890625-11.335938-19.480469-22.226563-22.226563v-5.324218c5.390625-4.460938 8.835938-11.199219 8.835938-18.726563zm-.675781 53.777344c0 5.917969-3.300782 11.078125-8.160157 13.738281v-27.480469c4.859375 2.664063 8.160157 7.824219 8.160157 13.742188zm-8.160157 29.726562c10.890625-2.75 19.480469-11.339843 22.230469-22.226562h15.925781v57.851562c-.292969-.015625-.578125-.046875-.875-.046875h-37.28125zm131.828125-307.996093v21.476562h-12.164062c1.019531-2.765625 1.910156-5.605469 2.628906-8.523438.050781-.214843.089844-.433593.125-.648437 2.277344-3.644531 3.625-8.101563 3.625-12.910156 0-.949219-.058594-1.882813-.160156-2.796875h2.539062c1.878906 0 3.40625 1.523437 3.40625 3.402344zm-86.171875-69.882813c29.472657 0 54.289063 19.78125 61.671875 47.054687-.246094-.011718-.488281-.023437-.730468-.023437-.933594 0-1.847657.082031-2.746094.226563-5.0625-15.453126-19.871094-30.375-58.195313-30.375-38.398437 0-53.15625 15.015624-58.203125 30.375-.894531-.148438-1.808594-.226563-2.738281-.226563-.242187 0-.480469.011719-.71875.019531 7.429687-27.21875 32.367187-47.050781 61.660156-47.050781zm-86.171875 69.882813c0-1.878907 1.527344-3.402344 3.402344-3.402344h2.539062c-.101562.914062-.160156 1.847656-.160156 2.796875 0 4.796875 1.34375 9.246093 3.613282 12.882812.023437.144531.046874.289063.082031.433594.726562 3.003906 1.632812 5.925781 2.679687 8.765625h-12.15625zm5.011719 60.007812v-23.53125h14.558594c3 4.71875 6.46875 9.082031 10.347656 13.015625-9.300781.203125-17.902344 4.074219-24.90625 10.515625zm19.929687 173.777344c-14.390624 0-26.101562-11.710938-26.101562-26.101563v-8.8125c0-.328125.265625-.597656.59375-.597656h34.320312c.328126 0 .59375.269531.59375.597656v25.621094c0 5.125-4.164062 9.292969-9.289062 9.292969zm52.851563 151.003906-59.460937-.003906c-.484376 0-.875-.394532-.875-.875v-6.359375c0-5.070313 1.972656-9.835938 5.558593-13.421875 3.585938-3.582032 8.347657-5.554688 13.417969-5.554688h41.359375c.484375 0 .875.394532.875.871094v.007812 6.472657l-26.144531-.226563c-.023438 0-.046875 0-.066406 0-4.113282 0-7.464844 3.3125-7.5 7.433594-.035157 4.140625 3.292968 7.527344 7.433593 7.566406l26.277344.230469v2.984375c0 .480469-.390625.875-.875.875zm77.09375-7.238281v6.359375c0 .480468-.394531.875-.875.875l-59.464844.003906c-.480469 0-.875-.394531-.875-.875v-2.984375l26.277344-.234375c4.144531-.035156 7.46875-3.421875 7.433594-7.5625-.035157-4.121094-3.386719-7.4375-7.496094-7.4375-.023437 0-.046875 0-.066406 0l-26.148438.230469v-6.476563-.003906c.003907-.480469.394531-.871094.875-.871094l41.359375-.003906h.003906c5.066407 0 9.832032 1.976562 13.417969 5.558594 3.582031 3.585937 5.558594 8.351562 5.558594 13.421875zm-8.058594-313.082031h104.324219v24.0625h-104.324219zm154.835938 22.777343v.117188c0 5.121093-4.167969 9.289062-9.292969 9.289062h-25.621094c-.328125 0-.597656-.265625-.597656-.59375v-34.320312c0-.328125.269531-.59375.597656-.59375h8.8125c14.390625 0 26.101563 11.707031 26.101563 26.101562zm-15.339844-91.6875h121.285156v10.46875c0 1.738281-1.410156 3.148438-3.148437 3.148438h-118.136719zm88.507813 28.617188-50.175782 25.09375v-25.09375zm89.253906 29.734375h-115.171875l33.65625-16.832032h84.664062v13.683594c0 1.738282-1.414062 3.148438-3.148437 3.148438zm0 0"/><path d="m115.027344 215.742188h14.996094c4.140624 0 7.5-3.355469 7.5-7.5 0-4.140626-3.359376-7.5-7.5-7.5h-14.996094c-4.144532 0-7.5 3.359374-7.5 7.5 0 4.144531 3.355468 7.5 7.5 7.5zm0 0"/><path d="m132.277344 225.609375c-4.140625 0-7.5 3.355469-7.5 7.5 0 4.140625 3.359375 7.5 7.5 7.5h.105468c4.140626 0 7.5-3.359375 7.5-7.5 0-4.144531-3.359374-7.5-7.5-7.5zm0 0"/><path d="m132.453125 242.167969-.105469-.003907c-.023437 0-.046875 0-.070312 0-4.109375 0-7.460938 3.3125-7.5 7.433594-.039063 4.140625 3.289062 7.53125 7.429687 7.566406l.105469.003907h.070312c4.109376 0 7.460938-3.3125 7.5-7.429688.039063-4.140625-3.289062-7.53125-7.429687-7.570312zm0 0"/></svg>