<svg height="512pt" viewBox="0 -16 512 512" width="512pt" xmlns="http://www.w3.org/2000/svg"><path d="m10.546875 206.402344c.207031.015625.414063.023437.617187.023437 3.867188 0 7.148438-2.972656 7.46875-6.894531 4.097657-50.332031 26.894532-96.976562 64.1875-131.347656 3.046876-2.808594 3.238282-7.550782.433594-10.597656-2.808594-3.046876-7.554687-3.238282-10.601562-.433594-40.070313 36.929687-64.566406 87.0625-68.972656 141.164062-.335938 4.128906 2.738281 7.746094 6.867187 8.085938zm0 0"/><path d="m472.457031 401.425781h-6.09375c.164063-3.527343.304688-7.121093.417969-10.742187 11.324219-3.554688 19.558594-14.144532 19.558594-26.621094 0-12.542969-8.324219-23.175781-19.734375-26.671875-1.457031-39.199219-5.769531-76.308594-12.84375-110.332031-.84375-4.058594-4.816407-6.660156-8.867188-5.816406-4.054687.84375-6.660156 4.8125-5.816406 8.867187 6.796875 32.691406 10.984375 68.355469 12.46875 106.0625h-92.910156c-28.53125 0-51.742188-23.210937-51.742188-51.742187v-28.761719h14.710938v14.75c0 11.761719 9.570312 21.332031 21.332031 21.332031h14.136719c4.140625 0 7.5-3.355469 7.5-7.5v-71.929688c0-4.144531-3.359375-7.5-7.5-7.5h-14.136719c-11.761719 0-21.332031 9.570313-21.332031 21.332032v14.515625h-14.710938v-28.527344c0-28.53125 23.210938-51.742187 51.742188-51.742187h57.863281c.753906 0 1.496094-.039063 2.234375-.097657 4.617187 11.824219 8.832031 24.464844 12.527344 37.648438.929687 3.3125 3.9375 5.480469 7.21875 5.480469.667969 0 1.351562-.09375 2.027343-.28125 3.988282-1.117188 6.316407-5.257813 5.195313-9.246094-3.800781-13.5625-8.132813-26.585938-12.890625-38.789063 7.007812-5.074219 11.578125-13.3125 11.578125-22.605469 0-15.378906-12.511719-27.890624-27.890625-27.890624h-8.484375c-42.480469-69.40625-106.039063-104.617188-188.976563-104.617188-42.765624 0-84.117187 12.480469-119.59375 36.097656-3.445312 2.296875-4.378906 6.953125-2.085937 10.398438 2.296875 3.449218 6.949219 4.382812 10.398437 2.089844 33.003907-21.972657 71.480469-33.585938 111.277344-33.585938 74.160156 0 131.6875 30.152344 171.191406 89.613281h-31.59375c-59.289062 0-107.523437 48.238281-107.523437 107.527344v28.523437h-17.824219v-.136718c0-4.140625-3.355468-7.5-7.5-7.5-4.140625 0-7.5 3.359375-7.5 7.5v.136718h-5.371094v-7.128906c0-4.140625-3.355468-7.5-7.5-7.5-4.140624 0-7.5 3.359375-7.5 7.5v7.128906h-10.902343c-3.363281-13.503906-15.589844-23.542968-30.125-23.542968-17.117188 0-31.042969 13.925781-31.042969 31.042968 0 17.121094 13.925781 31.046876 31.042969 31.046876 14.535156 0 26.761719-10.039063 30.125-23.546876h10.902343v7.359376c0 4.140624 3.359376 7.5 7.5 7.5 4.144532 0 7.5-3.359376 7.5-7.5v-7.359376h5.640626c.867187 3.191407 3.769531 5.535157 7.230468 5.535157 3.460938 0 6.367188-2.34375 7.234375-5.535157h18.089844v28.765626c0 59.289062 48.234375 107.523437 107.523437 107.523437h93.097657c-.109375 3.199219-.234375 6.363281-.382813 9.472656h-151.542968c-10.191407 0-19.5-5.996093-23.71875-15.273437-11-24.195313-30.582032-42.84375-54.160157-53.019532-.058593-.027343-.113281-.0625-.175781-.09375-.097656-.042968-.199219-.074218-.300781-.117187-12.777344-5.441406-26.710938-8.402344-41.082031-8.402344h-.875c-21.804688 0-39.542969 17.738281-39.542969 39.542969s17.738281 39.542969 39.542969 39.542969h.875c9.222656 0 17.707031 4.917969 22.367187 12.726562-45.613281-4.105469-88.714844-23.6875-122.339844-55.808593-36.191406-34.574219-58.164062-80.566407-61.871093-129.503907-.3125-4.128906-3.882813-7.222656-8.042969-6.914062-4.128907.316406-7.226563 3.914062-6.914063 8.046875 2.28125 30.121094 10.996094 59.1875 25.308594 85.507812-16.6875 5.058594-28.875 20.578125-28.875 38.898438 0 13.621094 6.742188 25.6875 17.058594 33.066406v.074219c0 17.421875 13.339844 31.785156 30.339844 33.417969l1.261718 16.234374c-10.21875.5625-18.363281 9.03125-18.363281 19.386719 0 10.722657 8.722656 19.445313 19.441406 19.445313h228.097657c.011718 0 .027343-.003906.042968-.003906 7.125 1.527343 14.464844 2.335937 21.925782 2.335937h172.652343c21.804688 0 39.542969-17.742187 39.542969-39.546875s-17.738281-39.542969-39.542969-39.542969zm-135.851562-175.273437c0-3.492188 2.839843-6.332032 6.332031-6.332032h6.632812v56.929688h-6.632812c-3.492188 0-6.332031-2.839844-6.332031-6.328125zm-179.714844 38.058594c-8.847656 0-16.042969-7.195313-16.042969-16.042969 0-8.847657 7.195313-16.046875 16.042969-16.046875s16.042969 7.199218 16.042969 16.046875c0 8.847656-7.199219 16.042969-16.042969 16.042969zm109.21875-52.070313c0-51.019531 41.507813-92.523437 92.527344-92.523437h57.859375c7.109375 0 12.894531 5.78125 12.894531 12.890624 0 7.109376-5.785156 12.890626-12.894531 12.890626h-57.859375c-36.804688 0-66.746094 29.941406-66.746094 66.746093v28.523438h-25.78125zm0 72.289063v-28.761719h25.78125v28.761719c0 36.800781 29.941406 66.742187 66.746094 66.742187h99.8125c7.105469 0 12.890625 5.78125 12.890625 12.890625s-5.78125 12.894531-12.890625 12.894531h-99.8125c-51.019531-.003906-92.527344-41.507812-92.527344-92.527343zm42.410156 131.996093h24.660157v49.089844h-24.660157zm39.660157 0h24.65625v49.089844h-24.65625zm39.65625 0h24.660156v49.089844h-24.660156zm39.660156 0h24.65625v49.089844h-24.65625zm-133.976563-.496093v49.359374c-12.910156-.90625-25.277343-4.585937-36.367187-10.554687l20.488281-44.828125c4.769531 3.0625 10.171875 5.132812 15.878906 6.023438zm-27.335937-17.046876-21.738282 47.570313c-9.117187-7.089844-16.902343-15.941406-22.796874-26.195313l35.359374-38.015624c2.003907 3.230468 3.824219 6.601562 5.421876 10.117187 1.050781 2.316406 2.328124 4.484375 3.753906 6.523437zm-202.480469 40.414063-1.246094-16.019531h96.238281c.21875 0 .433594-.015625.644532-.035156 16.765625 4.96875 34.164062 7.902343 51.84375 8.6875 1.621094 2.539062 3.351562 4.992187 5.171875 7.367187zm38.996094-42.136719c6.238281 4.035156 12.660156 7.746094 19.242187 11.117188h-60.652344l-.859374-11.078125h41.5c.257812 0 .515624-.015625.769531-.039063zm145.347656-27c-.476563.320313-.929687.691406-1.339844 1.128906l-32.59375 35.046876c-3.234375-4.675782-7.375-8.589844-12.128906-11.535157l20.339844-44.867187c9.695312 5.109375 18.429687 11.949218 25.722656 20.226562zm-68.554687 18.449219c-13.53125 0-24.542969-11.011719-24.542969-24.546875 0-13.53125 11.011719-24.542969 24.542969-24.542969h.875c9.71875 0 19.203124 1.582031 28.152343 4.539063l-20.535156 45.292968c-2.488281-.472656-5.03125-.742187-7.617187-.742187zm-109.460938-17.238281c3.953125 3.773437 8.035156 7.378906 12.21875 10.828125h-22.988281l-1.867188-23.953125c4.015625 4.523437 8.222657 8.90625 12.636719 13.125zm-33.140625-40.175782c1.246094 1.9375 2.511719 3.863282 3.820313 5.765626.003906.105468 0 .210937.007812.320312l3.496094 44.917969h-3.574219c-14.136719 0-25.640625-11.503907-25.640625-25.640625 0-12.863282 9.523438-23.542969 21.890625-25.363282zm-3.511719 65.339844c2.359375.429688 4.78125.664063 7.261719.664063h4.742187l.816407 10.519531c-5.855469-1.441406-10.625-5.660156-12.820313-11.183594zm16.359375 66.648438c-2.449219 0-4.441406-1.992188-4.441406-4.445313 0-2.449219 1.992187-4.441406 4.441406-4.441406h180.664063c3.683594 3.230469 7.585937 6.199219 11.671875 8.886719zm422.71875 2.332031h-5.304687v-49.089844h5.304687c13.53125 0 24.542969 11.011719 24.542969 24.542969 0 13.535156-11.011719 24.546875-24.542969 24.546875zm0 0"/><path d="m340.679688 96.179688h.058593c4.117188 0 7.46875-3.320313 7.5-7.441407.035157-4.140625-3.296875-7.523437-7.4375-7.558593h-.121093c-.023438 0-.042969 0-.0625 0-4.113282 0-7.464844 3.316406-7.5 7.4375-.03125 4.140624 3.296874 7.527343 7.441406 7.5625zm0 0"/><path d="m276.730469 120.261719c4.140625 0 7.5-3.359375 7.5-7.5 0-4.144531-3.359375-7.5-7.5-7.5h-.121094c-4.140625 0-7.5 3.355469-7.5 7.5 0 4.140625 3.359375 7.5 7.5 7.5zm0 0"/><path d="m238.21875 177.945312h.121094c4.140625 0 7.5-3.359374 7.5-7.5 0-4.144531-3.359375-7.5-7.5-7.5h-.121094c-4.144531 0-7.5 3.355469-7.5 7.5 0 4.140626 3.355469 7.5 7.5 7.5zm0 0"/></svg>