<svg height="511pt" viewBox="-64 1 511 511.999" width="511pt" xmlns="http://www.w3.org/2000/svg"><path d="m361.910156 435.835938c2.515625-5.902344 3.914063-12.390626 3.914063-19.199219v-16.832031c4.757812-2.519532 8.011719-7.515626 8.011719-13.265626v-131.164062c0-5.75-3.253907-10.746094-8.011719-13.265625v-134.722656c0-19.480469-15.855469-35.332031-35.335938-35.332031-19.484375 0-35.335937 15.851562-35.335937 35.332031v106.773437c0 1.066406-.867188 1.9375-1.9375 1.9375-1.066406 0-1.933594-.871094-1.933594-1.9375v-141.296875c0-19.484375-15.851562-35.335937-35.335938-35.335937-19.484374 0-35.335937 15.851562-35.335937 35.335937v141.292969c0 1.070312-.867187 1.9375-1.933594 1.9375-1.070312 0-1.9375-.867188-1.9375-1.9375v-178.820312c.003907-19.484376-15.847656-35.335938-35.332031-35.335938s-35.335938 15.851562-35.335938 35.335938v178.820312c0 1.070312-.867187 1.9375-1.9375 1.9375-1.066406 0-1.933593-.867188-1.933593-1.9375v-145.796875c0-19.484375-15.851563-35.335937-35.335938-35.335937s-35.335937 15.851562-35.335937 35.335937v113.445313c-6.921875-3.71875-14.699219-5.695313-22.78125-5.695313-26.601563 0-48.246094 21.644531-48.246094 48.25v95.746094c0 13.40625 2.613281 26.492187 7.773438 38.898437 1.195312 2.882813 3.984374 4.621094 6.925781 4.621094.960937 0 1.9375-.1875 2.878906-.578125 3.824219-1.589844 5.632813-5.980469 4.042969-9.804687-2.34375-5.640626-4.050782-11.453126-5.15625-17.378907h54.5625v14.273438c-3.660156 2.738281-6.042969 7.089843-6.042969 12v12.390625c0 4.914062 2.382813 9.273437 6.042969 12.011718v18.148438l-20.175782-14.542969c-4.5-3.246093-8.726562-6.96875-12.5625-11.070312-2.832031-3.023438-7.578124-3.183594-10.605468-.355469-3.023438 2.832031-3.179688 7.578125-.351563 10.601562 4.5 4.8125 9.460938 9.183594 14.75 12.992188l28.511719 20.554688c.296875.210937.601562.390624.914062.554687.59375 4.269531 1.746094 8.4375 3.425782 12.398437-13.496094 6.660157-22.449219 20.617188-22.449219 36.03125 0 22.136719 18.007813 40.148438 40.144531 40.148438h251.050782c22.136718 0 40.148437-18.011719 40.148437-40.148438 0-15.375-8.945313-29.34375-22.417969-36.015624zm-51.757812-286.417969h40.671875v14.355469h-40.671875zm40.671875-15h-40.671875v-10.050781h40.671875zm-40.671875 44.351562h40.671875v14.355469h-40.671875zm48.675781 184.136719h-132.671875v-26.480469h132.675781zm-28.339844-275.851562c11.210938 0 20.335938 9.121093 20.335938 20.332031v1.980469h-40.671875v-1.980469c0-11.210938 9.125-20.332031 20.335937-20.332031zm-94.875 30.007812h40.667969v15.855469h-40.667969zm40.667969-15h-40.667969v-11.46875h40.667969zm-40.667969 45.855469h40.667969v15.851562h-40.667969zm20.332031-95.390625c11.214844 0 20.335938 9.121094 20.335938 20.335937v2.726563h-40.667969v-2.726563c0-11.214843 9.121094-20.335937 20.332031-20.335937zm-94.875 34.53125h40.671876v18.773437h-40.671876zm40.671876-15h-40.671876v-11.488282h40.671876zm-40.671876 48.773437h40.671876v18.773438h-40.671876zm20.335938-105.832031c11.210938 0 20.335938 9.121094 20.335938 20.335938v10.234374h-40.671876v-10.234374c0-11.214844 9.121094-20.335938 20.335938-20.335938zm-37.269531 216.09375c9.335937 0 16.933593-7.597656 16.933593-16.9375v-59.550781h40.671876v59.550781c0 9.339844 7.597656 16.9375 16.933593 16.9375 9.339844 0 16.9375-7.597656 16.9375-16.9375v-35.386719h40.671875v35.386719c0 9.339844 7.597656 16.9375 16.933594 16.9375 9.339844 0 16.9375-7.597656 16.9375-16.9375v-6.03125h40.667969v32.242188h-211.625c-8.273438 0-15.007813 6.734374-15.007813 15.007812v14.820312h-37.660156v-91.425781h40.667969v35.386719c0 9.339844 7.597656 16.9375 16.9375 16.9375zm-63.652344 143.4375.011719-12.390625h43.695312v12.398437zm-64.984375-86.6875v-18.027344h56.03125v3.378906c-3.664062 2.738282-6.046875 7.09375-6.046875 12.007813v2.640625zm56.03125-48.632812v15.605468h-56.03125v-15.605468zm55.667969-106.292969h-40.667969v-15.855469h40.667969zm-40.667969 15h40.667969v15.851562h-40.667969zm40.667969-45.855469h-40.667969v-11.46875h40.667969zm-3.007813 195.535156-43.707031-.003906.007813-12.398438h43.699218zm-37.660156 15h37.660156v34.542969h-37.660156zm20.332031-264.574218c11.214844 0 20.335938 9.121093 20.335938 20.335937v7.230469h-40.667969v-7.230469c0-11.214844 9.121094-20.335937 20.332031-20.335937zm-58.113281 143.085937c8.542969 0 16.589844 3.210937 22.78125 9.042969v24.054687h-56.027344c.082032-18.261719 14.960938-33.097656 33.246094-33.097656zm-33.230469 129.757813c-.003906-.253907-.019531-.507813-.019531-.761719v-17.265625h50.949219c1.019531 2.714844 2.796875 5.050781 5.078125 6.761718v11.261719h-56.007813zm328.660157 176.132812h-251.046876c-13.867187 0-25.148437-11.28125-25.148437-25.148438 0-10.175781 6.238281-19.328124 15.460937-23.191406 9.238282 10.675782 22.800782 17.054688 37.15625 17.054688 4.144532 0 7.5-3.359375 7.5-7.5 0-4.144532-3.355468-7.5-7.5-7.5-12.074218 0-23.359374-6.488282-29.453124-16.9375-.007813-.007813-.011719-.015625-.015626-.023438-3.011718-5.167968-4.601562-11.089844-4.601562-17.113281v-27.101563h37.964844c1.390625 6.84375 7.453125 12.007813 14.703125 12.007813h29.886719c4.140624 0 7.5-3.355469 7.5-7.5s-3.359376-7.5-7.5-7.5l-29.894532-.003906.007813-131.175781 219.636719.007812-.003907 66.050781h-140.175781c-4.144531 0-7.5 3.355469-7.5 7.5v41.480469c0 4.140625 3.355469 7.5 7.5 7.5h140.171875v8.640625h-157.082031c-4.144532 0-7.5 3.355469-7.5 7.5s3.355468 7.5 7.5 7.5h149.078125v15.09375c0 18.785156-15.285157 34.070313-34.074219 34.070313h-161.007812c-4.144532 0-7.5 3.359374-7.5 7.5 0 4.144531 3.355468 7.5 7.5 7.5h161.007812c14.828125 0 28.128906-6.617188 37.132812-17.046876 9.210938 3.871094 15.445313 13.035157 15.445313 23.1875 0 13.867188-11.28125 25.148438-25.148437 25.148438zm0 0"/><path d="m344.179688 475.484375h-251.046876c-4.144531 0-7.5 3.355469-7.5 7.5 0 4.140625 3.355469 7.5 7.5 7.5h251.046876c4.144531 0 7.5-3.359375 7.5-7.5 0-4.144531-3.355469-7.5-7.5-7.5zm0 0"/><path d="m249.054688 312.597656c4.140624 0 7.5-3.355468 7.5-7.5 0-4.140625-3.359376-7.5-7.5-7.5h-.078126c-4.144531 0-7.460937 3.359375-7.460937 7.5 0 4.144532 3.394531 7.5 7.539063 7.5zm0 0"/><path d="m274.183594 312.597656c4.140625 0 7.5-3.355468 7.5-7.5 0-4.140625-3.359375-7.5-7.5-7.5h-.078125c-4.144531 0-7.460938 3.359375-7.460938 7.5 0 4.144532 3.394531 7.5 7.539063 7.5zm0 0"/><path d="m299.308594 312.597656c4.144531 0 7.5-3.355468 7.5-7.5 0-4.140625-3.355469-7.5-7.5-7.5h-.074219c-4.144531 0-7.460937 3.359375-7.460937 7.5 0 4.144532 3.394531 7.5 7.535156 7.5zm0 0"/></svg>