<svg height="512pt" viewBox="-80 0 512 512.0015" width="512pt" xmlns="http://www.w3.org/2000/svg"><path d="m296.980469 327.027344h-.101563c-4.140625 0-7.449218 3.359375-7.449218 7.5 0 4.144531 3.410156 7.5 7.550781 7.5s7.5-3.355469 7.5-7.5c0-4.140625-3.359375-7.5-7.5-7.5zm0 0"/><path d="m296.90625 292.605469h.074219c4.109375 0 7.457031-3.308594 7.5-7.425781.039062-4.140626-3.285157-7.53125-7.425781-7.570313l-.101563-.003906c-.023437 0-.050781 0-.074219 0-4.105468 0-7.40625 3.3125-7.449218 7.429687-.039063 4.140625 3.335937 7.53125 7.476562 7.570313zm0 0"/><path d="m296.980469 243.183594c4.140625 0 7.5-3.355469 7.5-7.5 0-4.140625-3.359375-7.5-7.5-7.5h-.101563c-4.140625 0-7.449218 3.359375-7.449218 7.5 0 4.144531 3.410156 7.5 7.550781 7.5zm0 0"/><path d="m54.894531 327.027344c-4.144531 0-7.5 3.359375-7.5 7.5 0 4.144531 3.355469 7.5 7.5 7.5h.097657c4.140624 0 7.449218-3.355469 7.449218-7.5 0-4.140625-3.40625-7.5-7.546875-7.5zm0 0"/><path d="m54.894531 277.609375c-.023437 0-.050781 0-.074219 0-4.140624.039063-7.464843 3.429687-7.425781 7.570313.039063 4.117187 3.390625 7.425781 7.496094 7.425781h.074219.101562c4.140625-.039063 7.417969-3.429688 7.375-7.570313-.039062-4.121094-3.4375-7.425781-7.546875-7.425781zm0 0"/><path d="m54.894531 243.183594h.097657c4.140624 0 7.449218-3.355469 7.449218-7.5 0-4.140625-3.40625-7.5-7.546875-7.5-4.144531 0-7.5 3.359375-7.5 7.5 0 4.144531 3.355469 7.5 7.5 7.5zm0 0"/><path d="m351.652344 450.996094c-.859375-5.289063-2.3125-10.375-4.316406-15.109375-.019532-.050781-.042969-.101563-.0625-.152344-5.332032-12.550781-14.089844-21.785156-23.789063-28.585937v-215.234376c0-11.488281-2.058594-22.769531-6.121094-33.539062-1.460937-3.875-5.789062-5.835938-9.664062-4.371094-3.875 1.460938-5.832031 5.789063-4.371094 9.664063 3.421875 9.070312 5.15625 18.574219 5.15625 28.246093v4.75h-48.695313v-47.964843c.007813-.015625.019532-.023438.027344-.039063 4.859375-7.574218 10.917969-14.230468 17.976563-19.78125 3.570312 2.796875 6.921875 5.917969 9.972656 9.285156 2.78125 3.070313 7.523437 3.308594 10.59375.523438 3.070313-2.78125 3.304687-7.523438.523437-10.59375-3.621093-3.996094-7.601562-7.703125-11.839843-11.023438-5.4375-4.261718-13.035157-4.261718-18.472657 0-3.617187 2.835938-6.992187 5.925782-10.144531 9.226563-3.371093-27.53125-12.972656-53.953125-28.273437-77.4375-2.257813-3.46875-6.90625-4.449219-10.375-2.1875-3.472656 2.261719-4.453125 6.90625-2.191406 10.375 7.171874 11.007813 12.957031 22.726563 17.335937 34.917969-18.195313-9.175782-38.269531-13.972656-58.984375-13.972656s-40.789062 4.796874-58.984375 13.972656c2.046875-5.722656 4.394531-11.332032 7.046875-16.785156 11.070312-22.730469 27.4375-42.988282 47.339844-58.582032 2.707031-2.121094 6.488281-2.121094 9.195312 0 6.234375 4.886719 12.179688 10.265625 17.664063 15.992188 2.867187 2.988281 7.613281 3.09375 10.605469.226562 2.988281-2.863281 3.089843-7.613281.226562-10.601562-5.976562-6.238282-12.449219-12.101563-19.246094-17.425782-8.152344-6.386718-19.542968-6.386718-27.699218.003907-21.679688 16.984375-39.511719 39.054687-51.570313 63.820312-8.808594 18.089844-14.566406 37.714844-17.039063 57.714844-3.160156-3.3125-6.542968-6.414063-10.171874-9.253906-5.441407-4.261719-13.039063-4.261719-18.476563 0-23.15625 18.144531-36.4375 45.421875-36.4375 74.839843v215.238282c-9.699219 6.796875-18.460937 16.035156-23.792969 28.589844-.023437.050781-.042968.105468-.0625.15625-2.003906 4.738281-3.457031 9.816406-4.3125 15.101562-.800781 4.921875.601563 9.933594 3.84375 13.746094 3.269532 3.84375 8.035156 6.046875 13.078125 6.046875h10.410157v24.082031c0 9.441406 7.683593 17.125 17.125 17.125h18.613281c9.445312 0 17.128906-7.683594 17.128906-17.125v-24.082031h49.828125v24.082031c0 9.441406 7.683594 17.125 17.125 17.125h57.125c9.441406 0 17.128906-7.683594 17.128906-17.125v-24.082031h57.203125v24.082031c0 9.441406 7.6875 17.125 17.128907 17.125h18.613281c9.445312 0 17.128906-7.683594 17.128906-17.125v-24.082031h3.027344c5.042969 0 9.808593-2.203125 13.078125-6.046875 3.242187-3.816406 4.644531-8.824219 3.84375-13.75zm-145.027344 27.390625h-23.1875v-7.597657h23.1875zm-136-73.019531c10.589844-2.339844 18.839844-10.183594 21.535156-20.480469 3.296875-12.644531 12.222656-24.621094 27.125-36.398438v82.722657h-94.71875c7.316406-9.453126 20.914063-20.273438 46.058594-25.84375zm145.496094-182.445313c.6875 4.082031 4.550781 6.84375 8.640625 6.148437 4.085937-.6875 6.839843-4.554687 6.148437-8.640624-1.339844-7.964844-3.464844-15.699219-6.308594-23.121094 6.335938 2.921875 12.417969 6.402344 18.171876 10.445312.632812.445313 1.316406.773438 2.015624 1v76.046875c-3.949218-2.4375-8.027343-4.671875-12.203124-6.671875v-23.792968c0-4.144532-3.355469-7.5-7.5-7.5-4.140626 0-7.5 3.355468-7.5 7.5v143.183593h-83.300782v-157.117187c0-32.566406 14.703125-62.765625 40.339844-82.851563.773438-.605469 1.851562-.605469 2.625 0 20.699219 16.21875 34.503906 39.433594 38.871094 65.371094zm-81.835938 232.867187v-22.71875h83.300782v22.71875zm-90.894531-193.992187h48.691406v35.136719h-48.691406zm63.691406 40.617187c.703125-.226562 1.386719-.554687 2.019531-1 3.277344-2.304687 6.683594-4.433593 10.1875-6.390624v34.847656c-4.414062 3.03125-8.480468 6.097656-12.207031 9.195312zm27.203125 110.105469h83.300782v5.550781h-83.300782zm98.300782-117.496093c3.5 1.953124 6.90625 4.085937 10.1875 6.390624.632812.445313 1.316406.773438 2.015624 1v36.65625c-3.722656-3.101562-7.789062-6.167968-12.203124-9.203124zm27.203124 16.910156h48.695313v35.132812h-48.695313zm48.695313-15h-48.695313v-35.136719h48.695313zm-189.199219-56.53125v37.730468c-4.175781 2-8.25 4.230469-12.203125 6.667969v-76.046875c.703125-.226562 1.382813-.554687 2.019531-1 5.726563-4.023437 11.777344-7.484375 18.078126-10.398437-5.164063 13.527343-7.894532 28.066406-7.894532 43.046875zm-27.203125 6.394531h-48.691406v-35.132813h48.691406zm-48.691406 65.136719h48.691406v35.132812h-48.691406zm101.855469 158.855468h23.191406v7.597657h-23.191406zm87.339844-122.296874c14.910156 11.785156 23.832031 23.761718 27.128906 36.402343 2.691406 10.289063 10.941406 18.136719 21.527344 20.472657 25.144531 5.570312 38.742187 16.390624 46.0625 25.84375h-94.71875zm51.894531 42.230468c-5.066407-1.121094-8.996094-4.808594-10.253907-9.617187-1.707031-6.550781-4.519531-12.882813-8.464843-19.039063h42.722656v36.582032c-8.796875-4.003907-17.359375-6.457032-24.003906-7.925782zm24.003906-179.058594v35.132813h-48.695313v-35.132813zm-132.546875-118.671874c23.34375 0 45.765625 6.878906 65.007812 19.871093 2.542969 11.660157 3.84375 23.621094 3.84375 35.707031v42.585938c-9.382812-5.789062-19.414062-10.378906-29.945312-13.640625-7.410156-12.078125-16.960938-22.851563-28.34375-31.773437-6.21875-4.871094-14.90625-4.871094-21.128906 0-11.488282 9.003906-21.042969 19.789062-28.429688 31.8125-10.5 3.261718-20.503906 7.832031-29.859375 13.601562v-42.585938c0-11.992187 1.332031-24 3.898438-35.746093 19.230469-12.96875 41.632812-19.832031 64.957031-19.832031zm-101.886719 35.886718c7.105469 5.566406 13.167969 12.238282 18.03125 19.832032v47.957031h-48.691406v-4.753907c0-24.777343 11.183594-47.753906 30.660156-63.035156zm-30.660156 233.1875h42.71875c-3.941406 6.152344-6.753906 12.480469-8.460937 19.03125-1.261719 4.816406-5.191407 8.503906-10.261719 9.625-6.640625 1.46875-15.203125 3.921875-23.996094 7.921875zm-27.898437 92.957032c-.28125-.328126-.585938-.875-.464844-1.621094.398437-2.472656.984375-4.871094 1.707031-7.191406h102.550781v9.578124h-102.140625c-.871093 0-1.410156-.476562-1.652343-.765624zm47.800781 41.976562h-18.613281c-1.171876 0-2.128907-.953125-2.128907-2.128906v-1.484375h22.871094v1.484375c0 1.175781-.957031 2.128906-2.128906 2.128906zm2.128906-18.613281h-22.871094v-7.597657h22.871094zm79.824219 16.484375v-1.484375h23.191406v3.613281h-21.0625c-1.171875 0-2.128906-.957031-2.128906-2.128906zm59.253906 2.128906h-21.0625v-3.613281h23.1875v1.484375c0 1.171875-.953125 2.128906-2.125 2.128906zm110.074219 0h-18.613281c-1.171876 0-2.128907-.953125-2.128907-2.128906v-1.484375h22.871094v1.484375c0 1.175781-.957031 2.128906-2.128906 2.128906zm2.128906-18.613281h-22.871094v-7.597657h22.871094zm19.679687-23.363281c-.242187.285156-.78125.765624-1.652343.765624h-102.144531v-9.578124h102.550781c.722656 2.320312 1.308593 4.71875 1.710937 7.191406.121094.746094-.1875 1.292968-.464844 1.621094zm0 0"/><path d="m145.003906 228.1875c-3.246094 2.570312-3.792968 7.289062-1.222656 10.535156 2.574219 3.246094 7.289062 3.792969 10.535156 1.222656 6.214844-4.925781 13.691406-7.527343 21.621094-7.527343 7.925781 0 15.402344 2.605469 21.617188 7.527343 1.378906 1.089844 3.019531 1.621094 4.652343 1.621094 2.210938 0 4.402344-.976562 5.882813-2.84375 2.574218-3.246094 2.027344-7.964844-1.222656-10.535156-8.890626-7.042969-19.585938-10.769531-30.929688-10.769531s-22.042969 3.726562-30.933594 10.769531zm0 0"/><path d="m202.335938 369.613281h-.101563c-.023437 0-.046875 0-.074219 0-4.105468 0-7.40625 3.308594-7.449218 7.425781-.039063 4.140626 3.335937 7.53125 7.476562 7.574219h.074219c4.109375 0 7.460937-3.3125 7.5-7.429687.039062-4.140625-3.285157-7.53125-7.425781-7.570313zm0 0"/><path d="m202.261719 349.109375h-.101563c-4.140625 0-7.449218 3.355469-7.449218 7.5 0 4.140625 3.410156 7.5 7.550781 7.5s7.5-3.359375 7.5-7.5c0-4.144531-3.359375-7.5-7.5-7.5zm0 0"/></svg>