<svg height="512pt" viewBox="-22 0 512 512" width="512pt" xmlns="http://www.w3.org/2000/svg"><path d="m62.878906 276.617188h4.632813c4.140625 0 7.5-3.359376 7.5-7.5 0-4.144532-3.359375-7.5-7.5-7.5h-4.632813c-4.140625 0-7.5 3.355468-7.5 7.5 0 4.140624 3.359375 7.5 7.5 7.5zm0 0"/><path d="m62.878906 303.136719h4.632813c4.140625 0 7.5-3.355469 7.5-7.5s-3.359375-7.5-7.5-7.5h-4.632813c-4.140625 0-7.5 3.355469-7.5 7.5s3.359375 7.5 7.5 7.5zm0 0"/><path d="m62.878906 329.65625h4.632813c4.140625 0 7.5-3.355469 7.5-7.5 0-4.140625-3.359375-7.5-7.5-7.5h-4.632813c-4.140625 0-7.5 3.359375-7.5 7.5 0 4.144531 3.359375 7.5 7.5 7.5zm0 0"/><path d="m62.878906 356.179688h4.632813c4.140625 0 7.5-3.359376 7.5-7.5 0-4.144532-3.359375-7.5-7.5-7.5h-4.632813c-4.140625 0-7.5 3.355468-7.5 7.5 0 4.140624 3.359375 7.5 7.5 7.5zm0 0"/><path d="m62.878906 382.699219h4.632813c4.140625 0 7.5-3.359375 7.5-7.5 0-4.144531-3.359375-7.5-7.5-7.5h-4.632813c-4.140625 0-7.5 3.355469-7.5 7.5 0 4.140625 3.359375 7.5 7.5 7.5zm0 0"/><path d="m62.878906 409.21875h4.632813c4.140625 0 7.5-3.359375 7.5-7.5 0-4.144531-3.359375-7.5-7.5-7.5h-4.632813c-4.140625 0-7.5 3.355469-7.5 7.5 0 4.140625 3.359375 7.5 7.5 7.5zm0 0"/><path d="m62.878906 435.738281h4.632813c4.140625 0 7.5-3.355469 7.5-7.5s-3.359375-7.5-7.5-7.5h-4.632813c-4.140625 0-7.5 3.355469-7.5 7.5s3.359375 7.5 7.5 7.5zm0 0"/><path d="m90.921875 276.617188h4.628906c4.140625 0 7.5-3.359376 7.5-7.5 0-4.144532-3.359375-7.5-7.5-7.5h-4.628906c-4.144531 0-7.5 3.355468-7.5 7.5 0 4.140624 3.355469 7.5 7.5 7.5zm0 0"/><path d="m90.921875 303.136719h4.628906c4.140625 0 7.5-3.355469 7.5-7.5s-3.359375-7.5-7.5-7.5h-4.628906c-4.144531 0-7.5 3.355469-7.5 7.5s3.355469 7.5 7.5 7.5zm0 0"/><path d="m90.921875 329.65625h4.628906c4.140625 0 7.5-3.355469 7.5-7.5 0-4.140625-3.359375-7.5-7.5-7.5h-4.628906c-4.144531 0-7.5 3.359375-7.5 7.5 0 4.144531 3.355469 7.5 7.5 7.5zm0 0"/><path d="m90.921875 356.179688h4.628906c4.140625 0 7.5-3.359376 7.5-7.5 0-4.144532-3.359375-7.5-7.5-7.5h-4.628906c-4.144531 0-7.5 3.355468-7.5 7.5 0 4.140624 3.355469 7.5 7.5 7.5zm0 0"/><path d="m90.921875 382.699219h4.628906c4.140625 0 7.5-3.359375 7.5-7.5 0-4.144531-3.359375-7.5-7.5-7.5h-4.628906c-4.144531 0-7.5 3.355469-7.5 7.5 0 4.140625 3.355469 7.5 7.5 7.5zm0 0"/><path d="m90.921875 409.21875h4.628906c4.140625 0 7.5-3.359375 7.5-7.5 0-4.144531-3.359375-7.5-7.5-7.5h-4.628906c-4.144531 0-7.5 3.355469-7.5 7.5 0 4.140625 3.355469 7.5 7.5 7.5zm0 0"/><path d="m90.921875 435.738281h4.628906c4.140625 0 7.5-3.355469 7.5-7.5s-3.359375-7.5-7.5-7.5h-4.628906c-4.144531 0-7.5 3.355469-7.5 7.5s3.355469 7.5 7.5 7.5zm0 0"/><path d="m330.460938 261.617188h-35.910157v-49.875c0-2.328126-.457031-4.601563-1.359375-6.753907l-9.214844-22.019531c-1.582031-3.789062-4.386718-6.789062-7.839843-8.648438v-76.085937c0-7.847656-2.996094-15.285156-8.4375-20.945313l-15.011719-15.613281v-18.335937c0-4.144532-3.359375-7.5-7.5-7.5s-7.5 3.355468-7.5 7.5v18.335937l-15.015625 15.613281c-5.4375 5.660157-8.433594 13.097657-8.433594 20.945313v76.085937c-3.453125 1.859376-6.257812 4.863282-7.84375 8.648438l-9.214843 22.019531c-.898438 2.152344-1.355469 4.421875-1.355469 6.753907v49.875h-37.007813v-35.289063c0-4.140625-3.355468-7.5-7.5-7.5-4.140625 0-7.5 3.359375-7.5 7.5v241.332031h-13.242187v-302.722656h13.242187v28.730469c0 4.144531 3.359375 7.5 7.5 7.5 4.144532 0 7.5-3.355469 7.5-7.5v-36.230469c0-4.140625-3.355468-7.5-7.5-7.5h-28.242187c-4.140625 0-7.5 3.359375-7.5 7.5v52.476562h-12.523438v-33.660156c0-4.144531-3.359375-7.5-7.5-7.5s-7.5 3.355469-7.5 7.5v33.660156h-3.265625v-10.308593c0-4.144531-3.355468-7.5-7.5-7.5-4.140625 0-7.5 3.355469-7.5 7.5v10.308593h-4.589844c-4.140624 0-7.5 3.355469-7.5 7.5v17.683594h-18.394531c-4.144531 0-7.5 3.355469-7.5 7.5v66.074219c0 4.140625 3.355469 7.5 7.5 7.5 4.140625 0 7.5-3.359375 7.5-7.5v-58.574219h68.773438v217.5625h-68.773438v-126.332031c0-4.140625-3.359375-7.5-7.5-7.5-4.144531 0-7.5 3.359375-7.5 7.5v126.332031h-24.300781c-4.140625 0-7.5 3.355469-7.5 7.5v29.339844c0 4.144531 3.359375 7.5 7.5 7.5h453.992188c4.144531 0 7.5-3.355469 7.5-7.5v-29.339844c0-4.144531-3.355469-7.5-7.5-7.5h-9.398438v-445.753906c0-4.144531-3.359375-7.5-7.5-7.5-4.144531 0-7.5 3.355469-7.5 7.5v15.144531h-11.894531v-29.550781c0-4.144531-3.355469-7.5-7.5-7.5-4.140625 0-7.5 3.355469-7.5 7.5v29.550781h-72.210938c-4.085937 0-7.527343 3.398438-7.527343 7.5zm-257.765626-26.519532v-10.183594h42.878907v10.183594zm138.128907 192.199219v-35.5h68.726562v35.5zm68.726562-50.5h-68.726562v-24.234375h68.726562zm-68.726562 65.5h13.8125v25.363281h-13.8125zm28.8125 0h11.101562v25.363281h-11.101562zm26.101562 0h13.8125v25.363281h-13.8125zm28.8125-18.484375h35.910157v43.847656h-35.910157zm142.542969 40.851562-32.460938-22.03125 32.460938-22.035156zm-74.730469-123.101562h57.828125l-28.914062 19.625zm15.5625 28.691406-32.464843 22.03125v-44.066406zm-15.5625-43.691406 28.914063-19.625 28.910156 19.625zm74.730469 21.65625v44.066406l-32.460938-22.03125zm-32.460938-50.34375 32.460938-22.035156v44.070312zm15.558594-28.6875-28.914062 19.625-28.910156-19.625zm-57.828125-15 28.914063-19.625 28.910156 19.625zm42.269531-28.691406 32.460938-22.03125v44.066406zm15.558594-28.6875-28.914062 19.625-28.910156-19.625zm-57.828125-15 28.914063-19.625 28.910156 19.625zm42.269531-28.691406 32.460938-22.03125v44.066406zm-13.355468-9.0625-28.910156-19.625h57.824218zm-13.351563 9.0625-32.464843 22.035156v-44.066406zm0 72.378906-32.464843 22.035156v-44.066406zm0 72.378906-32.464843 22.035156v-44.070312zm13.351563 81.441406 28.914062 19.625h-57.828125zm45.816406-276.542968-32.460938-22.03125 32.460938-22.035157zm-16.902344 6.65625h-57.828125l28.914063-19.625zm-74.730468 311.167968 32.464843 22.03125-32.464843 22.035156zm16.902343-6.65625h57.828125l-28.914062 19.625zm57.828125-361.890625-28.914062 19.625-28.910156-19.625zm-42.265625 28.691407-32.464843 22.03125v-44.066407zm13.351563 370.953124 23.523437 15.964844h-47.042969zm-60.816406-175.078124v132.195312h-35.910157v-132.195312zm-69.324219-143.007813h-31.898438v-9.738281h31.898438zm-31.898438 15h31.898438v23.617187h-31.898438zm4.25-60.921875 11.699219-12.171875 11.699219 12.171875c2.738281 2.847656 4.25 6.59375 4.25 10.546875v10.636719h-31.898438v-10.636719c0-3.953125 1.507813-7.699219 4.25-10.546875zm-22.46875 123.09375 9.214844-22.019531c.386719-.933594 1.292969-1.535157 2.304687-1.535157h45.296876c1.007812 0 1.914062.601563 2.304687 1.535157l9.214844 22.019531c.125.308594.191406.628906.191406.960938v67.078124h-68.722656v-67.078124c0-.332032.066406-.65625.195312-.960938zm-15.195312 65.835938v25.054687c0 4.140625 3.359375 7.5 7.5 7.5 4.144531 0 7.5-3.359375 7.5-7.5v-7.851563h68.726562v43.742188h-68.726562v-3.234375c0-4.140625-3.355469-7.5-7.5-7.5-4.140625 0-7.5 3.359375-7.5 7.5v74.484375h-37.007813v-132.195312zm-37.007813 147.195312h37.007813v43.847656h-37.007813zm295.175782 73.1875h-438.992188v-14.339844h438.992188zm0 0"/></svg>