<svg height="512pt" viewBox="-23 0 512 512" width="512pt" xmlns="http://www.w3.org/2000/svg"><path d="m458.351562 298.171875c4.144532 0 7.5-3.359375 7.5-7.5v-83.625c0-9.703125-7.894531-17.601563-17.601562-17.601563h-.257812v-171.945312c0-9.648438-7.847657-17.5-17.5-17.5h-275.234376c-4.144531 0-7.5 3.355469-7.5 7.5s3.355469 7.5 7.5 7.5h70.167969v105.695312h-164.824219v-105.695312h61.992188c4.144531 0 7.5-3.355469 7.5-7.5s-3.355469-7.5-7.5-7.5h-87.234375c-9.648437 0-17.5 7.851562-17.5 17.5v78.171875c0 4.140625 3.355469 7.5 7.5 7.5 4.140625 0 7.5-3.359375 7.5-7.5v-78.171875c0-1.378906 1.121094-2.5 2.5-2.5h10.242187v157.863281c0 4.140625 3.359376 7.5 7.5 7.5h359.644532c4.144531 0 7.5-3.359375 7.5-7.5v-157.863281h10.246094c1.378906 0 2.5 1.121094 2.5 2.5v171.945312h-114.824219c-3.757813 0-7.238281 1.195313-10.101563 3.210938-2.859375-2.015625-6.339844-3.210938-10.097656-3.210938h-130.082031c-3.761719 0-7.238281 1.195313-10.101563 3.210938-2.863281-2.015625-6.34375-3.210938-10.101562-3.210938h-114.824219v-61.117187c0-4.140625-3.359375-7.5-7.5-7.5-4.144531 0-7.5 3.359375-7.5 7.5v61.117187h-.257813c-9.707031 0-17.601562 7.898438-17.601562 17.601563v264.320313c0 7.417968 4.621094 13.769531 11.128906 16.355468v16.777344c0 4.144531 3.359375 7.5 7.5 7.5h28.28125c4.144532 0 7.5-3.355469 7.5-7.5v-15.53125h56.464844v15.53125c0 4.144531 3.355469 7.5 7.5 7.5h28.28125c4.140625 0 7.5-3.355469 7.5-7.5v-16.777344c1.292969-.515625 2.507812-1.171875 3.628906-1.960937 2.859375 2.011719 6.339844 3.207031 10.101563 3.207031h130.082031c3.757812 0 7.238281-1.195312 10.101562-3.210938 1.121094.792969 2.335938 1.449219 3.628907 1.960938v16.78125c0 4.144531 3.355469 7.5 7.5 7.5h28.28125c4.140625 0 7.5-3.355469 7.5-7.5v-15.53125h56.460937v15.53125c0 4.144531 3.359375 7.5 7.5 7.5h28.285156c4.140626 0 7.5-3.355469 7.5-7.5v-16.777344c6.507813-2.585937 11.125-8.933594 11.125-16.355468v-148.039063c0-4.140625-3.355468-7.5-7.5-7.5-4.140624 0-7.5 3.359375-7.5 7.5v148.039063c0 1.4375-1.164062 2.601562-2.597656 2.601562h-14.269531v-244.128906c0-4.144532-3.359375-7.5-7.5-7.5h-86.546875c-4.140625 0-7.5 3.355468-7.5 7.5v244.128906h-14.269531c-1.433594 0-2.601563-1.164062-2.601563-2.601562v-264.320313c0-1.433594 1.167969-2.601563 2.601563-2.601563h130.082031c1.433594 0 2.601562 1.167969 2.601562 2.601563v83.625c0 4.140625 3.359376 7.5 7.5 7.5zm-397.75-162.476563h164.824219v29.667969h-164.824219zm179.824219 29.667969v-29.667969h164.820313v29.667969zm164.824219-44.667969h-164.824219v-105.695312h164.820313v105.695312zm-390.25 86.351563c0-1.433594 1.167969-2.601563 2.601562-2.601563h130.082032c1.433594 0 2.601562 1.167969 2.601562 2.601563v264.320313c0 1.4375-1.167968 2.601562-2.601562 2.601562h-14.269532v-244.128906c0-4.144532-3.355468-7.5-7.5-7.5h-86.542968c-4.144532 0-7.5 3.355468-7.5 7.5v244.128906h-14.269532c-1.433593 0-2.601562-1.164062-2.601562-2.601562zm56.964844 266.921875v-236.628906h46.449218v236.628906zm-25.09375 0v-236.628906h10.09375v236.628906zm-7.460938 23.03125h-13.28125v-8.03125h13.28125zm86.464844 0v-8.03125h13.28125v8.03125zm71.277344-23.03125v-236.628906h71.546875v236.628906zm103.414062-2.601562c0 1.4375-1.164062 2.601562-2.597656 2.601562h-14.269531v-244.128906c0-4.144532-3.359375-7.5-7.5-7.5h-86.546875c-4.140625 0-7.5 3.355468-7.5 7.5v244.128906h-14.269532c-1.433593 0-2.601562-1.164062-2.601562-2.601562v-264.320313c0-1.433594 1.167969-2.601563 2.601562-2.601563h130.085938c1.433594 0 2.597656 1.167969 2.597656 2.601563zm39.414063 25.632812h-13.285157v-8.03125h13.285157zm86.460937 0v-8.03125h13.28125v8.03125zm-7.457031-23.03125h-10.097656v-236.628906h10.097656zm-71.546875-236.628906h46.449219v236.628906h-46.449219zm0 0"/><path d="m232.925781 254.199219c-4.140625 0-7.5 3.359375-7.5 7.5v46.328125c0 4.144531 3.359375 7.5 7.5 7.5 4.144531 0 7.5-3.355469 7.5-7.5v-46.328125c0-4.140625-3.355469-7.5-7.5-7.5zm0 0"/><path d="m232.925781 325.578125c-4.140625 0-7.5 3.359375-7.5 7.5v.105469c0 4.140625 3.359375 7.5 7.5 7.5 4.144531 0 7.5-3.359375 7.5-7.5v-.105469c0-4.140625-3.355469-7.5-7.5-7.5zm0 0"/><path d="m232.925781 344.328125c-4.140625 0-7.5 3.359375-7.5 7.5v.105469c0 4.140625 3.359375 7.5 7.5 7.5 4.144531 0 7.5-3.359375 7.5-7.5v-.105469c0-4.140625-3.355469-7.5-7.5-7.5zm0 0"/><path d="m366.367188 43.109375h.105468.070313c4.109375 0 7.460937-3.308594 7.496093-7.429687.039063-4.140626-3.285156-7.53125-7.429687-7.570313h-.101563c-.023437 0-.046874 0-.074218 0-4.105469 0-7.457032 3.3125-7.496094 7.429687-.039062 4.144532 3.289062 7.53125 7.429688 7.570313zm0 0"/><path d="m385.117188 43.109375h.105468.070313c4.109375 0 7.460937-3.308594 7.496093-7.429687.039063-4.140626-3.285156-7.53125-7.429687-7.570313h-.101563c-.023437 0-.046874 0-.074218 0-4.105469 0-7.457032 3.3125-7.496094 7.429687-.039062 4.144532 3.289062 7.53125 7.429688 7.570313zm0 0"/></svg>