<svg height="512pt" viewBox="-44 0 512 512" width="512pt" xmlns="http://www.w3.org/2000/svg"><path d="m422.917969 412.023438-25.214844-185.703126c-.554687-4.101562-4.34375-6.980468-8.4375-6.421874-4.105469.554687-6.980469 4.335937-6.421875 8.441406l22.175781 163.351562h-108.277343v-113.34375c0-46.804687-38.078126-84.882812-84.882813-84.882812s-84.882813 38.078125-84.882813 84.882812v113.347656h-108.277343l14.441406-106.355468c.558594-4.105469-2.316406-7.882813-6.421875-8.441406-4.089844-.558594-7.882812 2.316406-8.441406 6.425781l-17.472656 128.699219c-3.425782 25.207031 4.207031 50.65625 20.945312 69.820312s40.925781 30.15625 66.367188 30.15625h138.414062c4.144531 0 7.5-3.355469 7.5-7.5s-3.355469-7.5-7.5-7.5h-84.554688v-218.652344c0-38.535156 31.351563-69.882812 69.882813-69.882812 38.535156 0 69.882813 31.347656 69.882813 69.882812v218.652344h-22.550782c-4.144531 0-7.5 3.355469-7.5 7.5s3.355469 7.5 7.5 7.5h76.410156c25.441407 0 49.632813-10.992188 66.371094-30.15625 16.734375-19.164062 24.371094-44.613281 20.945313-69.820312zm-334.800781 84.976562c-21.109376 0-41.179688-9.121094-55.070313-25.023438-13.886719-15.902343-20.222656-37.015624-17.378906-57.933593l.996093-7.351563h110.3125v90.308594zm302.558593-25.023438c-13.890625 15.902344-33.960937 25.023438-55.074219 25.023438h-38.859374v-90.308594h110.316406l.996094 7.351563c2.839843 20.917969-3.492188 42.03125-17.378907 57.933593zm0 0"/><path d="m29.136719 259.101562c.339843.046876.679687.070313 1.015625.070313 3.695312 0 6.914062-2.730469 7.421875-6.492187l11.675781-85.988282h325.222656l3.933594 28.988282c.511719 3.761718 3.730469 6.492187 7.421875 6.492187.335937 0 .679687-.023437 1.019531-.070313 4.105469-.558593 6.980469-4.335937 6.425782-8.441406l-4.039063-29.726562c5.800781-3.433594 9.710937-9.742188 9.710937-16.957032v-30.492187c0-10.871094-8.84375-19.71875-19.714843-19.71875h-17.945313l-7.15625-52.59375c-1.320312-9.726563-9.722656-17.0625-19.535156-17.0625h-1.734375l-1.613281-11.84375c-1.183594-8.703125-8.695313-15.265625-17.480469-15.265625h-203.808594c-8.78125 0-16.300781 6.5625-17.480469 15.265625l-1.613281 11.847656h-1.730469c-9.816406 0-18.21875 7.332031-19.539062 17.058594l-7.152344 52.597656h-17.949218c-10.871094 0-19.714844 8.84375-19.714844 19.714844v30.492187c0 7.21875 3.910156 13.523438 9.710937 16.960938l-11.773437 86.726562c-.558594 4.101563 2.316406 7.882813 6.421875 8.4375zm78.203125-241.816406c.175781-1.300781 1.300781-2.285156 2.617187-2.285156h203.808594c1.316406 0 2.441406.984375 2.621094 2.285156l1.335937 9.824219h-211.722656zm-22.882813 28.90625c.316407-2.328125 2.324219-4.082031 4.675781-4.082031h87.792969v6.753906c0 4.144531 3.355469 7.5 7.5 7.5s7.5-3.355469 7.5-7.5v-6.753906h12.433594v6.753906c0 4.144531 3.359375 7.5 7.5 7.5 4.144531 0 7.5-3.355469 7.5-7.5v-6.753906h12.4375v6.753906c0 4.144531 3.355469 7.5 7.5 7.5s7.5-3.355469 7.5-7.5v-6.753906h87.796875c2.347656 0 4.355469 1.753906 4.671875 4.082031l6.878906 50.574219h-268.566406zm-44.679687 70.292969c0-2.601563 2.117187-4.71875 4.714844-4.71875h334.734374c2.601563 0 4.71875 2.117187 4.71875 4.71875v30.492187c0 2.597657-2.117187 4.714844-4.71875 4.714844h-334.734374c-2.597657 0-4.714844-2.117187-4.714844-4.714844zm0 0"/><path d="m265.660156 279.609375c0-29.664063-24.132812-53.800781-53.800781-53.800781-29.664063 0-53.796875 24.136718-53.796875 53.800781s24.132812 53.796875 53.796875 53.796875c29.667969 0 53.800781-24.132812 53.800781-53.796875zm-92.597656 0c0-21.394531 17.40625-38.800781 38.796875-38.800781 21.394531 0 38.800781 17.40625 38.800781 38.800781s-17.40625 38.796875-38.800781 38.796875c-21.390625 0-38.796875-17.402344-38.796875-38.796875zm0 0"/><path d="m161.042969 369.507812v10.382813c0 4.144531 3.359375 7.5 7.5 7.5 4.144531 0 7.5-3.355469 7.5-7.5v-10.382813c0-4.144531-3.355469-7.5-7.5-7.5-4.140625 0-7.5 3.355469-7.5 7.5zm0 0"/><path d="m316.199219 340.570312c0 12.988282 10.566406 23.554688 23.554687 23.554688 12.988282 0 23.554688-10.566406 23.554688-23.554688 0-12.984374-10.566406-23.550781-23.554688-23.550781-12.988281 0-23.554687 10.566407-23.554687 23.550781zm32.105469 0c0 4.71875-3.835938 8.554688-8.550782 8.554688-4.71875 0-8.554687-3.835938-8.554687-8.554688 0-4.714843 3.835937-8.550781 8.554687-8.550781 4.714844 0 8.550782 3.835938 8.550782 8.550781zm0 0"/><path d="m60.414062 340.570312c0 12.988282 10.566407 23.554688 23.554688 23.554688s23.554688-10.566406 23.554688-23.554688c0-12.984374-10.566407-23.550781-23.554688-23.550781s-23.554688 10.566407-23.554688 23.550781zm32.105469 0c0 4.71875-3.835937 8.554688-8.550781 8.554688-4.71875 0-8.554688-3.835938-8.554688-8.554688 0-4.714843 3.835938-8.550781 8.554688-8.550781 4.714844 0 8.550781 3.835938 8.550781 8.550781zm0 0"/><path d="m81.589844 419.882812h-.128906c-4.140626 0-7.5 3.355469-7.5 7.5 0 4.140626 3.359374 7.5 7.5 7.5h.128906c4.140625 0 7.5-3.359374 7.5-7.5 0-4.144531-3.359375-7.5-7.5-7.5zm0 0"/><path d="m107.207031 419.882812h-.128906c-4.140625 0-7.5 3.355469-7.5 7.5 0 4.140626 3.359375 7.5 7.5 7.5h.128906c4.140625 0 7.5-3.359374 7.5-7.5 0-4.144531-3.359375-7.5-7.5-7.5zm0 0"/></svg>