<svg height="512pt" viewBox="0 -74 512 511" width="512pt" xmlns="http://www.w3.org/2000/svg"><path d="m107.308594 293.714844c-12.328125 0-22.359375 10.03125-22.359375 22.359375s10.03125 22.359375 22.359375 22.359375 22.359375-10.03125 22.359375-22.359375-10.03125-22.359375-22.359375-22.359375zm0 29.71875c-4.058594 0-7.359375-3.300782-7.359375-7.359375 0-4.054688 3.300781-7.359375 7.359375-7.359375 4.054687 0 7.359375 3.304687 7.359375 7.359375 0 4.058593-3.304688 7.359375-7.359375 7.359375zm0 0"/><path d="m238.34375 293.714844c-12.328125 0-22.359375 10.03125-22.359375 22.359375s10.03125 22.359375 22.359375 22.359375 22.359375-10.03125 22.359375-22.359375-10.03125-22.359375-22.359375-22.359375zm0 29.71875c-4.058594 0-7.359375-3.300782-7.359375-7.359375 0-4.054688 3.300781-7.359375 7.359375-7.359375s7.359375 3.304687 7.359375 7.359375c0 4.058593-3.300781 7.359375-7.359375 7.359375zm0 0"/><path d="m369.378906 293.714844c-12.328125 0-22.359375 10.03125-22.359375 22.359375s10.03125 22.359375 22.359375 22.359375 22.359375-10.03125 22.359375-22.359375-10.03125-22.359375-22.359375-22.359375zm0 29.71875c-4.058594 0-7.359375-3.300782-7.359375-7.359375 0-4.054688 3.300781-7.359375 7.359375-7.359375s7.359375 3.304687 7.359375 7.359375c0 4.058593-3.300781 7.359375-7.359375 7.359375zm0 0"/><path d="m488.890625 116.863281c-.300781-.390625-.632813-.746093-.992187-1.0625-9.453126-9.882812-21.210938-17.539062-34.398438-22.105469v-26.664062c0-4.140625-3.355469-7.5-7.5-7.5s-7.5 3.359375-7.5 7.5v22.9375c-1.925781-.300781-3.871094-.53125-5.839844-.699219v-81.269531c0-4.144531-3.355468-7.5-7.5-7.5-4.140625 0-7.5 3.355469-7.5 7.5v80.941406h-21.359375c-11.851562-21.882812-32.601562-38.445312-58.230469-44.554687-4.03125-.953125-8.074218 1.523437-9.035156 5.554687-.960937 4.027344 1.527344 8.074219 5.554688 9.035156 33.890625 8.082032 57.5625 38.085938 57.5625 72.960938 0 41.371094-33.660156 75.027344-75.027344 75.027344-41.371094 0-75.027344-33.65625-75.027344-75.027344 0-17.898438 6.40625-35.226562 18.039063-48.789062 11.507812-13.425782 27.402343-22.382813 44.75-25.226563 4.085937-.671875 6.855469-4.527344 6.1875-8.617187-.671875-4.085938-4.527344-6.851563-8.617188-6.1875-20.828125 3.414062-39.902343 14.164062-53.707031 30.265624-4.136719 4.820313-7.703125 10.046876-10.703125 15.558594h-36.769531c-.023438 0-.050782-.003906-.074219-.003906-.027344 0-.050781.003906-.078125.003906h-36.574219v-.085937c0-16.167969-13.152343-29.324219-29.324219-29.324219-16.167968 0-29.320312 13.15625-29.320312 29.324219v.085937h-20.089844c-4.621094 0-9.144531 1.878906-12.402344 5.152344l-18.53125 18.617188c-2.921874 2.933593-2.914062 7.683593.019532 10.605468 1.464844 1.457032 3.378906 2.183594 5.292968 2.183594 1.925782 0 3.851563-.734375 5.316407-2.207031l18.53125-18.613281c.472656-.476563 1.101562-.738282 1.773437-.738282h107.882813v62.289063c0 1.859375-1.511719 3.367187-3.367188 3.367187h-170.929687l22.292968-22.386718c2.925782-2.9375 2.914063-7.6875-.019531-10.609376-2.9375-2.921874-7.6875-2.910156-10.605469.023438l-25.972656 26.085938c-3.289062 3.300781-5.097656 7.6875-5.097656 12.34375v70.0625c0 9.648437 7.851562 17.5 17.5 17.5h8.316406v28.539062c0 15.164062 12.335938 27.5 27.5 27.5h6.832032c1.34375 24.847656 21.980468 44.652344 47.160156 44.652344 25.175781 0 45.8125-19.804688 47.160156-44.652344h36.714844c1.34375 24.847656 21.980468 44.652344 47.160156 44.652344 25.175781 0 45.8125-19.804688 47.160156-44.652344h36.714844c1.347656 24.847656 21.980469 44.652344 47.160156 44.652344 25.175782 0 45.8125-19.804688 47.160156-44.652344h4.140626c15.164062 0 27.5-12.335938 27.5-27.5v-31.636719c14.21875-3.890625 27.277343-11.363281 38.035156-22 2.941406-2.914062 2.96875-7.660156.058594-10.605469-2.914063-2.945312-7.660157-2.972656-10.605469-.058593-13.539063 13.386719-31.476563 20.761719-50.507813 20.761719h-35.148437c-.984375-8.722657-8.402344-15.527344-17.382813-15.527344h-6c-8.980468 0-16.398437 6.804687-17.382812 15.527344h-90.558594c-1.097656-8.601563-8.449219-15.277344-17.34375-15.277344h-6c-8.894531 0-16.246094 6.675781-17.34375 15.277344h-90.347656c-1.097656-8.601563-8.449219-15.277344-17.34375-15.277344h-6c-8.898438 0-16.246094 6.675781-17.34375 15.277344h-69.464844c-1.378906 0-2.5-1.121094-2.5-2.5v-11.621094c52.382812-.910156 102.910156-4.152344 150.40625-9.65625 1.476562 8.164062 8.621094 14.375 17.203125 14.375h6c9.648437 0 17.5-7.851563 17.5-17.5v-2.242188c21.257813-3.15625 42.132813-6.832031 62.164063-10.949218 14.082031 9.132812 30.855468 14.441406 48.851562 14.441406 35.777344 0 66.746094-20.980469 81.253906-51.28125 39.246094-14.8125 66.191406-29.097656 83.074219-39.457032 9.71875 12.257813 15.546875 27.734376 15.546875 44.554688 0 8.882812-1.617188 17.578125-4.8125 25.851562-1.492188 3.863282.429688 8.207032 4.296875 9.699219.886719.34375 1.800781.503907 2.699219.503907 3.007812 0 5.847656-1.824219 6.996094-4.800782 3.863281-10.003906 5.820312-20.519531 5.820312-31.253906 0-22.71875-8.773438-43.425781-23.109375-58.917969zm-427.171875 186.796875h-8.402344c-6.894531 0-12.5-5.609375-12.5-12.5v-28.542968h45.992188v7.726562c0 1.035156.105468 2.046875.28125 3.03125-12.605469 5.9375-21.796875 17.035156-25.371094 30.285156zm45.589844 44.648438c-17.773438 0-32.234375-14.460938-32.234375-32.234375 0-13.636719 8.4375-25.59375 21.121093-30.242188 2.425782 1.277344 5.183594 2.011719 8.113282 2.011719h6c2.929687 0 5.6875-.734375 8.117187-2.011719 12.515625 4.613281 21.117188 16.773438 21.117188 30.242188 0 17.773437-14.460938 32.234375-32.234375 32.234375zm85.488281-44.648438h-39.953125c-3.640625-13.152344-12.894531-24.339844-25.320312-30.265625.175781-.996093.285156-2.011719.285156-3.054687v-7.722656h90.035156v7.722656c0 1.039062.105469 2.050781.28125 3.039062-12.457031 5.921875-21.703125 17.089844-25.328125 30.28125zm45.546875 44.648438c-17.773438 0-32.234375-14.460938-32.234375-32.234375 0-13.527344 8.566406-25.632813 21.101563-30.25 2.433593 1.28125 5.199218 2.019531 8.132812 2.019531h6c2.933594 0 5.691406-.734375 8.125-2.015625 12.648438 4.652344 21.109375 16.71875 21.109375 30.246094 0 17.773437-14.460937 32.234375-32.234375 32.234375zm85.488281-44.648438h-39.921875c-3.59375-13.1875-12.792968-24.335937-25.347656-30.277344.171875-.992187.28125-2.003906.28125-3.042968v-7.722656h90.285156v7.472656c0 1.085937.113282 2.140625.300782 3.167968-12.59375 5.886719-21.949219 17.117188-25.597657 30.402344zm45.546875 44.648438c-17.773437 0-32.234375-14.460938-32.234375-32.234375 0-13.691407 8.777344-25.910157 21.558594-30.402344 2.382813 1.21875 5.070313 1.921875 7.925781 1.921875h6c2.769532 0 5.378906-.664062 7.710938-1.816406 12.773437 4.605468 21.273437 16.585937 21.273437 30.296875 0 17.773437-14.460937 32.234375-32.234375 32.234375zm63.804688-86.066406v28.917968c0 6.890625-5.609375 12.5-12.5 12.5h-5.714844c-3.550781-13.191406-12.664062-24.234375-25.171875-30.191406.214844-1.09375.332031-2.222656.332031-3.378906v-7.472656h35.03125c2.695313 0 5.371094-.132813 8.023438-.375zm-69.054688-12.652344c0-1.378906 1.121094-2.5 2.5-2.5h6c1.378906 0 2.5 1.121094 2.5 2.5v20.503906c0 1.378906-1.121094 2.5-2.5 2.5h-6c-1.378906 0-2.5-1.121094-2.5-2.5zm-131.285156.25c0-1.378906 1.121094-2.5 2.5-2.5h6c1.378906 0 2.5 1.121094 2.5 2.5v20.503906c0 1.378906-1.121094 2.5-2.5 2.5h-6c-1.378906 0-2.5-1.121094-2.5-2.5zm-131.035156 0c0-1.378906 1.121094-2.5 2.5-2.5h6c1.378906 0 2.5 1.121094 2.5 2.5v20.503906c0 1.378906-1.121094 2.5-2.5 2.5h-6c-1.378906 0-2.5-1.121094-2.5-2.5zm19.09375-160.984375c0-7.894531 6.425781-14.324219 14.324218-14.324219 7.894532 0 14.320313 6.429688 14.320313 14.324219v.085937h-28.644531zm-105.902344 95.742187h175.332031c10.128907 0 18.367188-8.238281 18.367188-18.367187v-62.289063h22.871093c-2.933593 8.972656-4.476562 18.414063-4.476562 27.996094 0 24.65625 9.96875 47.027344 26.078125 63.300781-15.539063 3.007813-31.527344 5.742188-47.75 8.171875-2.09375-7.316406-8.832031-12.695312-16.8125-12.695312h-6c-9.648437 0-17.5 7.851562-17.5 17.5v.558594c-47.34375 5.539062-97.78125 8.804687-150.109375 9.722656zm176.109375 36.121094c0 1.378906-1.121094 2.5-2.5 2.5h-6c-1.378906 0-2.5-1.121094-2.5-2.5v-12.503906c0-1.378906 1.121094-2.5 2.5-2.5h6c1.378906 0 2.5 1.121094 2.5 2.5zm211.613281-116.777344h14.9375v21.8125c0 4.140625 3.359375 7.5 7.5 7.5 4.144532 0 7.5-3.359375 7.5-7.5v-21.417968c1.972656.207031 3.917969.507812 5.839844.867187v8.476563c0 4.144531 3.355469 7.5 7.5 7.5s7.5-3.355469 7.5-7.5v-3.898438c6.21875 2.679688 11.988281 6.210938 17.160156 10.453125-14.542968 8.695313-36.019531 19.933594-65.78125 31.832031 1.484375-6.472656 2.269532-13.210937 2.269532-20.128906 0-9.734375-1.554688-19.148438-4.425782-27.996094zm0 0"/><path d="m252.992188 131.9375c0 35.359375 28.769531 64.128906 64.128906 64.128906 26.03125 0 48.472656-15.597656 58.511718-37.929687.179688-.324219.332032-.667969.460938-1.019531 3.316406-7.734376 5.160156-16.246094 5.160156-25.179688 0-8.996094-1.871094-17.558594-5.230468-25.335938-.144532-.398437-.3125-.78125-.519532-1.144531-10.101562-22.179687-32.460937-37.648437-58.382812-37.648437-35.359375 0-64.128906 28.769531-64.128906 64.128906zm110.296874 15.070312c-3.691406 0-6.699218-3.003906-6.699218-6.699218v-16.96875c0-3.699219 3.007812-6.710938 6.699218-6.710938h.507813c1.585937 4.820313 2.457031 9.964844 2.457031 15.308594 0 5.257812-.839844 10.320312-2.375 15.070312zm-46.167968-64.199218c16.148437 0 30.492187 7.832031 39.453125 19.890625-8.6875 2.835937-14.984375 11.015625-14.984375 20.640625v16.96875c0 9.671875 6.363281 17.886718 15.121094 20.679687-8.949219 12.164063-23.359376 20.078125-39.589844 20.078125-27.089844 0-49.128906-22.039062-49.128906-49.128906s22.039062-49.128906 49.128906-49.128906zm0 0"/><path d="m411.730469 223.21875c-4.140625 0-7.5 3.355469-7.5 7.5 0 4.140625 3.359375 7.5 7.5 7.5h.105469c4.144531 0 7.5-3.359375 7.5-7.5 0-4.144531-3.355469-7.5-7.5-7.5zm0 0"/><path d="m429.667969 223.21875c-4.144531 0-7.5 3.355469-7.5 7.5 0 4.140625 3.355469 7.5 7.5 7.5h.101562c4.144531 0 7.5-3.359375 7.5-7.5 0-4.144531-3.355469-7.5-7.5-7.5zm0 0"/><path d="m490.589844 297.472656-10.582032-.03125c-.007812 0-.015624 0-.019531 0-4.132812 0-7.488281 3.34375-7.5 7.480469-.011719 4.144531 3.335938 7.511719 7.480469 7.519531l10.578125.03125h.023437c4.132813 0 7.488282-3.34375 7.5-7.480468.007813-4.140626-3.339843-7.507813-7.480468-7.519532zm0 0"/><path d="m475.484375 287.117188c1.265625 0 2.546875-.316407 3.726563-.992188l9.179687-5.265625c3.59375-2.058594 4.835937-6.644531 2.773437-10.234375-2.0625-3.59375-6.644531-4.835938-10.234374-2.777344l-9.183594 5.265625c-3.59375 2.058594-4.835938 6.644531-2.773438 10.234375 1.386719 2.417969 3.914063 3.769532 6.511719 3.769532zm0 0"/><path d="m488.25 329.074219-9.148438-5.316407c-3.578124-2.082031-8.171874-.867187-10.253906 2.714844-2.082031 3.582032-.867187 8.171875 2.714844 10.253906l9.148438 5.316407c1.1875.6875 2.480468 1.015625 3.761718 1.015625 2.585938 0 5.097656-1.335938 6.492188-3.730469 2.082031-3.582031.863281-8.171875-2.714844-10.253906zm0 0"/></svg>