<svg height="512pt" viewBox="-2 0 511 512" width="512pt" xmlns="http://www.w3.org/2000/svg"><path d="m315.296875 200.886719-.078125.082031c-2.949219 2.910156-2.976562 7.660156-.066406 10.605469 1.46875 1.484375 3.402344 2.226562 5.335937 2.226562 1.90625 0 3.808594-.71875 5.269531-2.164062l.082032-.078125c2.945312-2.910156 2.976562-7.660156.0625-10.605469-2.910156-2.945313-7.660156-2.976563-10.605469-.066406zm0 0"/><path d="m505.402344 12.804688c2.929687-2.933594 2.929687-7.679688 0-10.609376-2.929688-2.925781-7.675782-2.925781-10.605469 0l-25.117187 25.117188-7.734376.152344 1.804688-1.804688c2.929688-2.929687 2.929688-7.675781 0-10.605468-2.925781-2.929688-7.675781-2.929688-10.605469 0l-93.898437 93.898437c-1.890625-.929687-4.125-1.050781-6.144532-.222656l-26.136718 10.714843c-.921875.378907-1.757813.9375-2.457032 1.636719l-145.433593 145.433594-14.03125-7.496094c-3.65625-1.953125-8.199219-.570312-10.148438 3.082031-1.953125 3.65625-.574219 8.199219 3.082031 10.148438l10.011719 5.351562-27.871093 27.867188-52.5625-52.5625 11.910156-11.910156 28.402344 15.171875c3.652343 1.953125 8.199218.574219 10.148437-3.078125 1.953125-3.65625.574219-8.199219-3.082031-10.152344l-13.617188-7.273438 2.269532-2.265624c2.929687-2.929688 2.929687-7.679688 0-10.609376-2.929688-2.925781-7.679688-2.925781-10.605469 0l-5.488281 5.488282-5.867188-3.132813c-2.914062-1.554687-6.5-1.023437-8.835938 1.3125l-47.671874 47.671875c-2.929688 2.929688-2.929688 7.679688 0 10.605469 1.464843 1.464844 3.382812 2.199219 5.304687 2.199219 1.917969 0 3.835937-.734375 5.300781-2.199219l21.222656-21.222656 52.566407 52.566406-25.824219 25.828125c-2.023438 2.023438-2.648438 4.914062-1.875 7.472656-8.871094 1.875-17.097656 6.277344-23.71875 12.898438-9.472656 9.472656-17.71875 33.347656-24.511719 70.957031-1.042969 5.765625.8125 11.683594 4.953125 15.828125 3.382813 3.382812 7.953125 5.238281 12.652344 5.238281 1.058594 0 2.121094-.09375 3.179688-.28125 37.609374-6.796875 61.484374-15.042969 70.953124-24.511719 6.566407-6.570312 10.980469-14.832031 12.871094-23.726562.707032.214844 1.449219.328125 2.203125.328125 1.988281 0 3.894531-.789063 5.300781-2.195313l25.828126-25.824218 15.171874 15.171875c1.464844 1.464843 3.382813 2.195312 5.300782 2.195312 1.921875 0 3.839844-.730469 5.304687-2.195312 2.929688-2.929688 2.929688-7.679688 0-10.609375l-15.171875-15.171875 27.867188-27.867188 36.605468 68.523438-11.910156 11.910156-14.296875-14.296875c-2.929687-2.929688-7.679687-2.929688-10.605469 0-2.929687 2.929688-2.929687 7.679688 0 10.605469l14.296876 14.296875-68.542969 68.542968c-2.929688 2.933594-2.929688 7.679688 0 10.609376 1.464843 1.464843 3.382812 2.195312 5.304687 2.195312 1.917969 0 3.835938-.730469 5.300782-2.195312l94.992187-94.992188c2.335937-2.335938 2.867187-5.925781 1.3125-8.839844l-3.132813-5.863281 5.488282-5.488281c2.929687-2.929688 2.929687-7.679688 0-10.605469-2.929688-2.929687-7.675782-2.929687-10.605469 0l-2.269531 2.265625-30.851563-57.753906 105.699219-105.699219c2.929688-2.929687 2.929688-7.675781 0-10.605469-2.925781-2.929687-7.675781-2.929687-10.605469 0l-16.125 16.121094-40.796875-40.796875 54.792969-54.792969 20.125-8.25 28.921875 28.921875-8.25 20.125-15.574219 15.574219c-2.929687 2.929688-2.929687 7.679688 0 10.605469 2.929688 2.929687 7.679688 2.929687 10.605469 0l16.640625-16.640625c.703125-.699219 1.257813-1.535156 1.636719-2.457032l10.714844-26.136718c.828124-2.019532.707031-4.253906-.21875-6.144532l93.894531-93.898437c2.929687-2.929687 2.929687-7.679687 0-10.609375-2.925781-2.925781-7.675781-2.925781-10.605469 0l-1.804688 1.808594.152344-7.730469zm-245.503906 275.691406-40.796876-40.792969 13.480469-13.480469 40.796875 40.792969zm-73.433594 73.433594-40.796875-40.796876 62.824219-62.824218 40.796874 40.796875zm-85.53125 41.304687c4.890625-23.996094 9.421875-29.488281 10.277344-30.347656 2.320312-2.320313 5.179687-3.859375 8.335937-4.515625l19.679687 19.679687c-.65625 3.160157-2.195312 6.015625-4.515624 8.335938-2.484376 2.484375-11.761719 6.492187-30.347657 10.277343-1.335937.277344-2.230469-.375-2.640625-.789062-.414062-.410156-1.0625-1.300781-.789062-2.640625zm-29.234375 36.023437c-1.296875.234376-2.15625-.402343-2.558594-.800781-.398437-.398437-1.03125-1.261719-.800781-2.558593 5.890625-32.597657 13.5-56.15625 20.359375-63.015626 2.496093-2.496093 5.328125-4.519531 8.378906-6.0625-2.902344 4.785157-6.921875 14.167969-10.84375 33.417969-1.207031 5.910157.621094 11.980469 4.878906 16.242188 3.398438 3.398437 7.945313 5.246093 12.644531 5.246093 1.195313 0 2.402344-.121093 3.601563-.363281 19.234375-3.921875 28.617187-7.9375 33.402344-10.839843-1.539063 3.0625-3.570313 5.894531-6.050781 8.375-6.855469 6.859374-30.414063 14.46875-63.011719 20.359374zm47.894531-92.050781 15.46875-15.464843 40.796875 40.792968-15.46875 15.46875zm189.847656-108.253906-25.457031 25.457031-40.796875-40.796875 25.457031-25.457031zm155.386719-177.996094-9.960937 9.957031-18.183594-18.183593 9.957031-9.957031 18.550781-.367188zm-37.597656 37.597657-18.1875-18.1875 17.035156-17.03125 18.183594 18.1875zm-15.1875 15.1875-18.1875-18.183594 4.582031-4.582032 18.1875 18.183594zm-41.894531 5.523437 13.101562-13.101563 18.183594 18.183594-13.101563 13.101563zm0 0"/><path d="m104.867188 308.109375c-2.925782-2.925781-7.675782-2.925781-10.605469 0l-91.566407 91.566406c-2.925781 2.929688-2.925781 7.679688 0 10.605469 1.464844 1.464844 3.386719 2.199219 5.304688 2.199219s3.839844-.734375 5.304688-2.199219l91.5625-91.5625c2.929687-2.929688 2.929687-7.679688 0-10.609375zm0 0"/><path d="m189.644531 458.671875c1.464844 1.464844 3.382813 2.195313 5.300781 2.195313 1.921876 0 3.839844-.730469 5.304688-2.195313l18.582031-18.582031c2.925781-2.929688 2.925781-7.679688 0-10.605469-2.929687-2.929687-7.679687-2.929687-10.605469 0l-18.582031 18.578125c-2.929687 2.929688-2.929687 7.679688 0 10.609375zm0 0"/><path d="m197.390625 402.75c-2.929687-2.929688-7.679687-2.929688-10.609375 0l-83.621094 83.621094c-2.929687 2.933594-2.929687 7.679687 0 10.609375 1.464844 1.464843 3.382813 2.195312 5.300782 2.195312 1.921874 0 3.839843-.730469 5.304687-2.195312l83.625-83.625c2.925781-2.929688 2.925781-7.675781 0-10.605469zm0 0"/><path d="m26.921875 356.691406c1.917969 0 3.839844-.730468 5.304687-2.195312l19.878907-19.882813c2.929687-2.929687 2.929687-7.675781 0-10.605469-2.925781-2.929687-7.675781-2.929687-10.605469 0l-19.882812 19.882813c-2.925782 2.929687-2.925782 7.675781 0 10.605469 1.464843 1.464844 3.386718 2.195312 5.304687 2.195312zm0 0"/><path d="m254.296875 460.941406c-4.140625 0-7.5 3.355469-7.5 7.5v.105469c0 4.144531 3.359375 7.5 7.5 7.5s7.5-3.355469 7.5-7.5v-.105469c0-4.144531-3.359375-7.5-7.5-7.5zm0 0"/><path d="m31.367188 301.015625h.035156c4.125 0 7.476562-3.335937 7.5-7.46875v-.105469c.015625-4.144531-3.324219-7.515625-7.46875-7.535156-.011719 0-.023438 0-.035156 0-4.125 0-7.480469 3.335938-7.5 7.464844v.109375c-.019532 4.140625 3.324218 7.515625 7.46875 7.535156zm0 0"/></svg>