<svg height="512pt" viewBox="-27 0 512 512.00025" width="512pt" xmlns="http://www.w3.org/2000/svg"><path d="m167.402344 232.234375-19.339844-19.34375c-2.929688-2.925781-7.679688-2.925781-10.605469 0l-99.746093 99.746094c-2.925782 2.929687-2.925782 7.675781 0 10.605469l19.34375 19.34375c1.464843 1.460937 3.382812 2.195312 5.304687 2.195312 1.917969 0 3.835937-.734375 5.300781-2.195312l99.742188-99.746094c2.929687-2.929688 2.929687-7.675782 0-10.605469zm-105.042969 94.441406-8.734375-8.738281 89.136719-89.132812 8.734375 8.734374zm0 0"/><path d="m85.757812 339.300781-10.691406 10.6875c-2.929687 2.929688-2.929687 7.679688 0 10.609375 1.464844 1.464844 3.382813 2.195313 5.304688 2.195313 1.917968 0 3.835937-.730469 5.300781-2.199219l10.691406-10.6875c2.929688-2.929688 2.929688-7.679688 0-10.609375-2.929687-2.925781-7.679687-2.925781-10.605469.003906zm0 0"/><path d="m217.804688 409.867188c-4.707032 0-9.132813 1.832031-12.464844 5.164062l-1.136719 1.136719-26.585937-68.25 27.863281-27.863281c2.929687-2.929688 2.929687-7.679688 0-10.609376-2.929688-2.925781-7.679688-2.925781-10.605469 0l-70.980469 70.980469c-12.105469 12.105469-28.203125 18.773438-45.320312 18.773438-17.121094 0-33.214844-6.667969-45.320313-18.773438-6.746094-6.742187-11.789062-14.691406-14.996094-23.625-1.398437-3.898437-5.691406-5.925781-9.589843-4.527343-3.902344 1.398437-5.925781 5.691406-4.527344 9.589843 3.957031 11.035157 10.183594 20.851563 18.507813 29.171875 14.9375 14.941406 34.796874 23.167969 55.925781 23.167969 11.4375 0 22.5-2.433594 32.617187-7.019531l19.832032 50.910156c.007812.011719.011718.027344.019531.042969l8.746093 22.449219-1.335937 1.332031c-6.871094 6.871093-6.871094 18.054687 0 24.929687 3.4375 3.433594 7.953125 5.152344 12.464844 5.152344s9.027343-1.71875 12.464843-5.152344l66.886719-66.886718c3.328125-3.332032 5.164063-7.757813 5.164063-12.464844 0-4.710938-1.832032-9.136719-5.164063-12.464844-3.328125-3.332031-7.753906-5.164062-12.464843-5.164062zm-82.039063 19.078124 41.246094-41.246093 5.039062 12.925781-41.246093 41.246094zm-1.265625-37.910156 31.53125-31.53125 5.035156 12.929688-41.246094 41.246094-5.480468-14.070313c3.582031-2.550781 6.988281-5.402344 10.160156-8.574219zm12.253906 66.101563 41.246094-41.246094 4.617188 11.863281-41.246094 41.246094zm72.910156-27.785157-66.886718 66.886719c-1.027344 1.023438-2.691406 1.023438-3.714844 0-1.023438-1.023437-1.023438-2.691406 0-3.714843l66.886719-66.886719c.667969-.667969 1.449219-.769531 1.855469-.769531s1.1875.101562 1.859374.769531c.667969.671875.769532 1.453125.769532 1.855469 0 .40625-.101563 1.191406-.769532 1.859374zm0 0"/><path d="m352.425781 10.496094c-8.742187 8.742187-12.023437 20.914062-9.839843 32.226562l-12.628907 11.539063-8.207031-8.207031c-2.929688-2.929688-7.675781-2.929688-10.605469 0-2.929687 2.929687-2.929687 7.679687 0 10.609374l7.730469 7.726563-7.152344 6.535156-13.148437-13.148437c-2.929688-2.929688-7.679688-2.929688-10.605469 0-2.929688 2.929687-2.929688 7.675781 0 10.605468l12.671875 12.671876-14.039063 12.828124c-3.058593 2.792969-3.269531 7.535157-.476562 10.597657 1.476562 1.617187 3.503906 2.4375 5.539062 2.4375 1.804688 0 3.617188-.648438 5.054688-1.960938l14.539062-13.285156 10.75 10.753906-47.640624 52.136719-15.25-15.246094 13.492187-12.328125c3.054687-2.792969 3.269531-7.539062.476563-10.597656-2.792969-3.058594-7.539063-3.269531-10.597657-.476563l-13.988281 12.78125-22.1875-22.1875c-5.796875-5.796874-14.441406-6.871093-21.507812-2.675781-7.019532 4.164063-10.191407 12.207031-7.898438 20.015625 3.800781 12.929688 9.546875 25.242188 16.945312 36.507813l-22.703124 20.746093c-28.859376-12.355468-63.625-6.796874-87.144532 16.722657l-81.355468 81.355469c-12.679688 12.679687-20.492188 28.796874-22.5976568 46.609374-.4843752 4.113282 2.4570308 7.839844 6.5703128 8.324219.300781.035157.597656.054688.890625.054688 3.75 0 6.988281-2.808594 7.4375-6.621094 1.703125-14.429687 8.035156-27.488281 18.308593-37.761719l81.355469-81.351562c12.105469-12.105469 28.199219-18.773438 45.316407-18.773438 17.121093 0 33.214843 6.667969 45.320312 18.773438 20.660156 20.660156 24.753906 52.652344 9.949219 77.800781-2.101563 3.566406-.910157 8.164063 2.660156 10.265625 3.570313 2.105469 8.164063.914062 10.265625-2.65625 13.066406-22.195312 14.203125-48.703125 4.472656-71.332031l20.730469-22.683594c11.265625 7.398437 23.578125 13.144531 36.507813 16.945313 1.691406.496093 3.394531.738281 5.066406.738281 6.042968 0 11.6875-3.140625 14.949218-8.636719 4.195313-7.066406 3.117188-15.710938-2.679687-21.507812l-22.1875-22.1875 47.644531-52.140626 12.671875 12.671876c1.464844 1.464843 3.382813 2.199218 5.300781 2.199218 1.921876 0 3.839844-.734375 5.304688-2.199218 2.929688-2.929688 2.929688-7.675782 0-10.605469l-13.148438-13.148438 6.535157-7.152343 7.730469 7.730468c1.460937 1.464844 3.382812 2.195313 5.300781 2.195313s3.839843-.730469 5.304687-2.195313c2.929688-2.929687 2.929688-7.679687 0-10.609375l-8.207031-8.207031 11.535156-12.625c2.261719.4375 4.558594.652344 6.851563.652344 9.191406 0 18.382812-3.496094 25.378906-10.492188 13.996094-13.996094 13.996094-36.765625 0-50.761718-13.996094-13.988282-36.765625-13.988282-50.761719.003906zm-127.511719 198.1875c-2.65625-3.828125-5.671874-7.46875-9.058593-10.855469-3.402344-3.402344-7.046875-6.402344-10.867188-9.054687l17.808594-16.269532c2.761719 3.339844 5.679687 6.554688 8.753906 9.628906 3.074219 3.070313 6.289063 5.992188 9.628907 8.75zm72.035157-7.460938c-.675781 1.136719-1.644531 1.523438-2.890625 1.160156-19.492188-5.726562-37.441406-16.398437-51.902344-30.859374-14.460938-14.460938-25.132812-32.410157-30.859375-51.902344-.367187-1.242188.027344-2.210938 1.160156-2.886719.402344-.238281.90625-.441406 1.453125-.441406.566406 0 1.183594.214843 1.792969.828125l80.859375 80.855468c1.199219 1.199219.871094 2.429688.386719 3.246094zm35.1875-109.882812-9.796875-9.796875 7.152344-6.53125 9.175781 9.175781zm16.664062-18.234375-8.222656-8.222657 8.378906-7.65625c1.042969 1.40625 2.195313 2.753907 3.46875 4.027344 1.277344 1.273438 2.625 2.429688 4.03125 3.46875zm43.777344-22.457031c-8.144531 8.144531-21.398437 8.144531-29.542969 0-8.148437-8.148438-8.148437-21.398438 0-29.546876 4.070313-4.070312 9.421875-6.109374 14.769532-6.109374 5.351562 0 10.699218 2.039062 14.773437 6.109374 8.144531 8.144532 8.144531 21.398438 0 29.546876zm0 0"/><path d="m183.140625 47.050781c1.464844 1.480469 3.394531 2.222657 5.328125 2.222657 1.90625 0 3.816406-.726563 5.277344-2.171876 2.945312-2.917968 2.964844-7.664062.050781-10.609374l-2.015625-2.03125c-2.917969-2.945313-7.664062-2.964844-10.605469-.050782-2.945312 2.914063-2.96875 7.664063-.050781 10.605469zm0 0"/><path d="m203.695312 67.734375c1.46875 1.480469 3.398438 2.222656 5.332032 2.222656 1.90625 0 3.816406-.722656 5.277344-2.171875 2.941406-2.914062 2.96875-7.660156.054687-10.605468l-2.019531-2.035157c-2.914063-2.945312-7.664063-2.96875-10.605469-.050781-2.941406 2.914062-2.964844 7.660156-.050781 10.605469zm0 0"/><path d="m207.0625 49.324219c1.910156 0 3.816406-.722657 5.28125-2.167969l2.035156-2.019531c2.941406-2.914063 2.964844-7.664063.050782-10.605469-2.917969-2.945312-7.664063-2.964844-10.609376-.050781l-2.035156 2.015625c-2.941406 2.914062-2.964844 7.664062-.050781 10.605468 1.46875 1.484376 3.398437 2.222657 5.328125 2.222657zm0 0"/><path d="m186.378906 69.882812c1.910156 0 3.816406-.722656 5.277344-2.171874l2.035156-2.015626c2.945313-2.914062 2.96875-7.664062.050782-10.605468-2.914063-2.945313-7.664063-2.964844-10.605469-.050782l-2.035157 2.015626c-2.941406 2.914062-2.964843 7.664062-.050781 10.605468 1.464844 1.484375 3.398438 2.222656 5.328125 2.222656zm0 0"/><path d="m432.742188 102.777344c-2.914063-2.941406-7.664063-2.964844-10.605469-.050782-2.941407 2.917969-2.964844 7.667969-.050781 10.609376l2.015624 2.035156c1.46875 1.480468 3.398438 2.222656 5.328126 2.222656 1.910156 0 3.816406-.726562 5.28125-2.171875 2.941406-2.917969 2.964843-7.667969.046874-10.609375zm0 0"/><path d="m453.300781 123.464844c-2.914062-2.945313-7.664062-2.964844-10.605469-.050782-2.941406 2.914063-2.964843 7.664063-.050781 10.605469l2.015625 2.035157c1.46875 1.480468 3.398438 2.222656 5.328125 2.222656 1.910157 0 3.816407-.722656 5.28125-2.171875 2.941407-2.914063 2.964844-7.664063.046875-10.605469zm0 0"/><path d="m448.027344 117.648438c1.90625 0 3.816406-.722657 5.277344-2.171876l2.035156-2.015624c2.945312-2.917969 2.96875-7.667969.050781-10.609376-2.914063-2.941406-7.664063-2.964843-10.605469-.050781l-2.035156 2.019531c-2.945312 2.914063-2.964844 7.664063-.050781 10.605469 1.46875 1.480469 3.398437 2.222657 5.328125 2.222657zm0 0"/><path d="m424.097656 123.359375-2.035156 2.019531c-2.941406 2.914063-2.964844 7.664063-.050781 10.605469 1.46875 1.480469 3.398437 2.222656 5.328125 2.222656 1.910156 0 3.816406-.726562 5.28125-2.171875l2.035156-2.019531c2.941406-2.914063 2.964844-7.664063.050781-10.605469-2.917969-2.941406-7.664062-2.964844-10.609375-.050781zm0 0"/><path d="m141.519531 113.265625c1.46875 1.480469 3.398438 2.222656 5.328125 2.222656 1.910156 0 3.816406-.722656 5.28125-2.171875 2.941406-2.914062 2.964844-7.664062.046875-10.605468l-2.015625-2.035157c-2.914062-2.941406-7.664062-2.964843-10.605468-.050781-2.941407 2.914062-2.964844 7.664062-.050782 10.605469zm0 0"/><path d="m162.078125 133.949219c1.464844 1.484375 3.398437 2.226562 5.328125 2.226562 1.90625 0 3.816406-.726562 5.277344-2.171875 2.945312-2.914062 2.96875-7.664062.054687-10.605468l-2.019531-2.035157c-2.914062-2.945312-7.664062-2.96875-10.605469-.054687-2.941406 2.914062-2.964843 7.664062-.050781 10.605468zm0 0"/><path d="m165.445312 115.542969c1.90625 0 3.816407-.722657 5.277344-2.171875l2.035156-2.015625c2.945313-2.917969 2.964844-7.664063.050782-10.609375-2.914063-2.941406-7.664063-2.960938-10.605469-.046875l-2.035156 2.015625c-2.945313 2.914062-2.964844 7.664062-.050781 10.605468 1.464843 1.480469 3.394531 2.222657 5.328124 2.222657zm0 0"/><path d="m144.761719 136.101562c1.90625 0 3.816406-.722656 5.277343-2.171874l2.035157-2.019532c2.941406-2.914062 2.964843-7.664062.050781-10.605468-2.917969-2.941407-7.664062-2.964844-10.605469-.050782l-2.039062 2.019532c-2.941407 2.914062-2.964844 7.664062-.046875 10.605468 1.464844 1.480469 3.394531 2.222656 5.328125 2.222656zm0 0"/></svg>