<svg height="512pt" viewBox="-69 0 512 512" width="512pt" xmlns="http://www.w3.org/2000/svg"><path d="m362.367188 288.257812-13.203126-5.503906-13.039062-43.304687c-2.105469-6.980469-8.414062-11.675781-15.707031-11.675781s-13.605469 4.691406-15.707031 11.675781l-13.308594 44.195312-22.804688-7.027343 7.40625-13.105469c2.109375-3.730469 2.789063-8.09375 1.917969-12.289063l-17.273437-83.042968c-1.695313-8.152344-8.972657-14.070313-17.300782-14.070313h-11.4375v-14.78125c0-4.140625-3.359375-7.5-7.5-7.5-4.144531 0-7.5 3.359375-7.5 7.5v98.457031l-6.097656-12.574218c-2.933594-6.050782-9.175781-9.960938-15.898438-9.960938h-16.585937c-6.722656 0-12.964844 3.910156-15.898437 9.960938l-6.09375 12.574218v-220.117187c0-1.472657 1.195312-2.667969 2.667968-2.667969h30.042969c1.472656 0 2.671875 1.195312 2.671875 2.667969v51.945312c0 6.859375 4.019531 13.152344 10.242188 16.035157l13.398437 6.203124c.941406.4375 1.546875 1.386719 1.546875 2.421876v12.398437c0 4.140625 3.359375 7.5 7.5 7.5 4.144531 0 7.5-3.359375 7.5-7.5v-12.398437c0-6.855469-4.019531-13.148438-10.242188-16.03125l-13.398437-6.207032c-.941406-.433594-1.546875-1.386718-1.546875-2.421875v-51.945312c0-9.742188-7.929688-17.667969-17.671875-17.667969h-30.042969c-9.742187 0-17.667968 7.925781-17.667968 17.667969v136.441406h-11.441407c-8.328125 0-15.601562 5.917969-17.296875 14.070313l-17.277344 83.042968c-.871093 4.195313-.191406 8.558594 1.917969 12.289063l7.40625 13.105469-22.800781 7.027343-13.3125-44.195312c-2.101562-6.980469-8.414062-11.671875-15.707031-11.671875s-13.601563 4.691406-15.707031 11.671875l-13.039063 43.304687-13.207031 5.503906c-6.601563 2.75-10.871094 9.152344-10.871094 16.308594v11.105469c0 4.140625 3.359375 7.5 7.5 7.5s7.5-3.359375 7.5-7.5v-11.105469c0-1.082031.644531-2.046875 1.640625-2.464844l16.664063-6.941406c1.148437-.480468 2.0625-.054687 2.507812.242188s1.1875.980468 1.1875 2.21875v5.382812c0 2.382813 1.128906 4.621094 3.046875 6.035156 1.914063 1.414063 4.386719 1.832032 6.664063 1.132813l87.625-27.007813-7.285157 15.019532-62.289062 19.199218c-3.148438.96875-5.292969 3.875-5.292969 7.167969v26.832031c0 4.144532 3.359375 7.5 7.5 7.5h58.199219l16.164062 19.40625v13.605469h-39.050781c-3.355469-13.335937-15.445312-23.234375-29.804688-23.234375-14.359374 0-26.445312 9.902344-29.804687 23.234375h-25.003906c-1.472657 0-2.667969-1.199219-2.667969-2.671875v-40.894531c0-4.140625-3.359375-7.5-7.5-7.5s-7.5 3.359375-7.5 7.5v40.894531c0 9.742188 7.925781 17.667969 17.667969 17.667969h25.007812c3.355469 13.335937 15.441407 23.234375 29.800781 23.234375 14.363282 0 26.449219-9.902344 29.804688-23.234375h39.054688v2.886719c0 6.460937 3.496093 12.105468 8.683593 15.1875l-5.113281 6.140625c-3.832031 4.597656-5.070312 10.761719-3.316406 16.484375l15.921875 51.921875c2.289062 7.46875 9.078125 12.488281 16.890625 12.488281h24.4375c7.8125 0 14.601562-5.019531 16.894531-12.488281l2.535156-8.273438c1.214844-3.957031-1.011719-8.152343-4.972656-9.367187-3.957031-1.214844-8.152344 1.011718-9.367187 4.972656l-2.535157 8.269531c-.347656 1.128907-1.375 1.890625-2.554687 1.890625h-24.4375c-1.179688 0-2.207032-.761718-2.550782-1.886718l-15.921874-51.921876c-.265626-.863281-.078126-1.792968.503906-2.488281l11.042968-13.261719h38.289063l11.046875 13.261719c.578125.695313.765625 1.625.5 2.488281l-3.8125 12.429688c-1.214844 3.960938 1.011719 8.152344 4.972656 9.367188.734375.226562 1.472656.332031 2.203125.332031 3.207031 0 6.175781-2.078125 7.167969-5.304688l3.808594-12.429687c1.753906-5.722656.515625-11.886719-3.316406-16.484375l-5.113282-6.140625c5.191406-3.078125 8.6875-8.726563 8.6875-15.1875v-2.886719h39.050782c3.355468 13.335937 15.445312 23.234375 29.804687 23.234375s26.445313-9.902344 29.804687-23.234375h25.003907c9.742187 0 17.667969-7.925781 17.667969-17.667969v-84.65625c0-7.15625-4.265626-13.558594-10.875-16.308594zm-289.890626 126.867188c-8.671874 0-15.730468-7.058594-15.730468-15.734375 0-8.671875 7.058594-15.730469 15.730468-15.730469 8.675782 0 15.734376 7.058594 15.734376 15.730469 0 8.675781-7.058594 15.734375-15.734376 15.734375zm246.59375-171.351562c.179688-.585938.730469-1 1.347657-1 .621093 0 1.164062.402343 1.34375 1l11.203125 37.207031c-1.34375.484375-2.636719 1.128906-3.855469 1.941406-3.617187 2.410156-6.167969 6.015625-7.265625 10.105469l-16.109375-4.964844zm-75.722656-74.664063c1.257813 0 2.359375.894531 2.613282 2.125l17.273437 83.042969c.132813.632812.03125 1.292968-.289063 1.855468l-9.019531 15.960938-22.019531-6.785156v-96.199219zm17.164063 158.613281-5.375-11.085937 43.632812 13.449219v13.796874h-38.652343c2.6875-4.945312 2.90625-10.976562.394531-16.160156zm-84.585938-95.96875c.441407-.910156 1.386719-1.503906 2.402344-1.503906h16.585937c1.015626 0 1.957032.59375 2.402344 1.503906l49.695313 102.511719c.457031.941406.316406 2.070313-.351563 2.875l-27.753906 33.316406c-.359375.429688-.839844.722657-1.367188.859375 2.988282-7.289062 4.695313-15.789062 4.695313-24.953125 0-27.824219-15.644531-49.621093-35.613281-49.621093-19.972656 0-35.613282 21.796874-35.613282 49.621093 0 9.160157 1.703126 17.664063 4.691407 24.953125-.527344-.136718-1.007813-.429687-1.367188-.863281l-27.753906-33.3125c-.667969-.804687-.804687-1.933594-.347656-2.875zm38.3125 180.691406h-55.234375c-1.472656 0-2.667968-1.199218-2.667968-2.667968v-23.363282h.046874 8.972657c5.898437 6.03125 13.230469 9.566407 21.265625 9.566407 8.039062 0 15.371094-3.535157 21.269531-9.566407h8.96875.050781v23.363282c-.003906 1.46875-1.199218 2.667968-2.671875 2.667968zm-27.617187-31.464843c-11.175782 0-20.613282-15.851563-20.613282-34.617188s9.4375-34.621093 20.613282-34.621093c11.175781 0 20.613281 15.855468 20.613281 34.621093s-9.4375 34.617188-20.613281 34.617188zm-76.324219-124.847657c-.320313-.5625-.421875-1.222656-.289063-1.855468l17.273438-83.042969c.253906-1.230469 1.355469-2.125 2.613281-2.125h11.4375v96.199219l-22.015625 6.785156zm-66.164063 26.789063c-1.21875-.8125-2.511718-1.457031-3.855468-1.941406l11.203125-37.207031c.179687-.597657.71875-1 1.34375-1s1.164062.402343 1.34375 1l13.339843 44.289062-16.113281 4.964844c-1.09375-4.089844-3.640625-7.691406-7.261719-10.105469zm30.339844 47.164063 43.632813-13.449219-5.375 11.085937c-2.511719 5.183594-2.292969 11.214844.394531 16.160156h-38.652344zm226.292969 85.039062c-8.675781 0-15.734375-7.058594-15.734375-15.734375 0-8.671875 7.058594-15.730469 15.734375-15.730469 8.671875 0 15.730469 7.058594 15.730469 15.730469 0 8.675781-7.058594 15.734375-15.730469 15.734375zm57.476563-25.902344c0 1.472656-1.195313 2.667969-2.667969 2.667969h-25.007813c-3.355468-13.332031-15.445312-23.230469-29.804687-23.230469s-26.445313 9.898438-29.800781 23.230469h-39.054688v-13.605469l16.164062-19.402344h58.199219c4.140625 0 7.5-3.359374 7.5-7.5v-26.832031c0-3.292969-2.148437-6.199219-5.292969-7.167969l-62.289062-19.199218-7.28125-15.023438 87.625 27.011719c2.273438.699219 4.746094.277344 6.664062-1.136719 1.914063-1.414062 3.042969-3.652344 3.042969-6.03125v-5.382812c0-1.242188.746094-1.925782 1.191407-2.21875.441406-.296875 1.359374-.722656 2.503906-.246094l16.664062 6.945312c1 .414063 1.644532 1.382813 1.644532 2.464844zm0 0"/><path d="m181.578125 41.394531c0-4.140625-3.355469-7.5-7.5-7.5-4.140625 0-7.5 3.359375-7.5 7.5v7.457031c0 4.144532 3.359375 7.5 7.5 7.5 4.144531 0 7.5-3.355468 7.5-7.5zm0 0"/><path d="m181.578125 75.378906c0-4.144531-3.355469-7.5-7.5-7.5-4.140625 0-7.5 3.355469-7.5 7.5v7.457032c0 4.144531 3.359375 7.5 7.5 7.5 4.144531 0 7.5-3.355469 7.5-7.5zm0 0"/><path d="m181.578125 109.363281c0-4.144531-3.355469-7.5-7.5-7.5-4.140625 0-7.5 3.355469-7.5 7.5v7.457031c0 4.144532 3.359375 7.5 7.5 7.5 4.144531 0 7.5-3.355468 7.5-7.5zm0 0"/><path d="m181.578125 143.347656c0-4.144531-3.355469-7.5-7.5-7.5-4.140625 0-7.5 3.355469-7.5 7.5v7.457032c0 4.140624 3.359375 7.5 7.5 7.5 4.144531 0 7.5-3.359376 7.5-7.5zm0 0"/><path d="m174.078125 169.832031c-4.140625 0-7.5 3.355469-7.5 7.5v7.457031c0 4.140626 3.359375 7.5 7.5 7.5 4.144531 0 7.5-3.359374 7.5-7.5v-7.457031c0-4.144531-3.355469-7.5-7.5-7.5zm0 0"/><path d="m30.988281 377h.105469c4.144531 0 7.5-3.355469 7.5-7.5s-3.355469-7.5-7.5-7.5h-.105469c-4.140625 0-7.5 3.355469-7.5 7.5s3.359375 7.5 7.5 7.5zm0 0"/><path d="m31.023438 357.929688h.074218c4.105469 0 7.457032-3.3125 7.496094-7.429688.039062-4.140625-3.289062-7.53125-7.429688-7.570312h-.105468c-.023438 0-.046875 0-.070313 0-4.109375 0-7.460937 3.3125-7.5 7.429687-.039062 4.144531 3.289063 7.53125 7.433594 7.570313zm0 0"/><path d="m342.253906 362h-.105468c-4.144532 0-7.5 3.355469-7.5 7.5s3.355468 7.5 7.5 7.5h.105468c4.140625 0 7.5-3.355469 7.5-7.5s-3.359375-7.5-7.5-7.5zm0 0"/><path d="m342.320312 342.929688h-.101562c-.023438 0-.046875 0-.070312 0-4.113282 0-7.460938 3.3125-7.5 7.429687-.039063 4.144531 3.289062 7.53125 7.429687 7.570313h.105469.070312c4.109375 0 7.460938-3.3125 7.5-7.429688.035156-4.140625-3.289062-7.53125-7.433594-7.570312zm0 0"/></svg>