<svg height="511pt" viewBox="0 -90 511.99967 511" width="511pt" xmlns="http://www.w3.org/2000/svg"><path d="m510.550781 160.402344c-2.695312-6.09375-8.507812-9.882813-15.171875-9.882813h-25.257812l-45.007813-52.863281c-3.15625-3.710938-7.757812-5.835938-12.628906-5.835938h-8.945313v-8.128906c0-4.144531-3.355468-7.5-7.496093-7.5-4.144531 0-7.5 3.355469-7.5 7.5v8.125h-10.921875c-7.082032-24.4375-21.195313-45.9375-40.949219-62.285156-3.191406-2.640625-7.917969-2.195312-10.558594.996094s-2.195312 7.917968.996094 10.558594c16.289063 13.476562 28.21875 30.921874 34.808594 50.730468l-154.585938-.015625c-4.140625 0-7.5 3.359375-7.5 7.5 0 4.144531 3.355469 7.5 7.5 7.5l205.152344.019531c.464844 0 .90625.203126 1.207031.558594l36.730469 43.144532h-388.832031l36.742187-43.175782c.300781-.351562.738281-.554687 1.207031-.554687l75.136719.003906c4.140625 0 7.5-3.355469 7.5-7.496094 0-4.144531-3.359375-7.5-7.5-7.5l-24.628906-.003906c7.03125-21.003906 20.441406-39.820313 38.140625-53.367187 19.605469-15 43.046875-22.929688 67.796875-22.929688 15.382813 0 30.285156 3.074219 44.296875 9.136719 3.804688 1.644531 8.214844-.101563 9.859375-3.902344 1.648437-3.800781-.101563-8.21875-3.902344-9.859375-15.902343-6.882812-32.8125-10.371094-50.253906-10.371094-28.074219 0-54.667969 8.996094-76.910156 26.015625-21.394531 16.375-37.261719 39.542969-44.734375 65.277344h-10.882813v-8.105469c0-4.144531-3.355469-7.5-7.5-7.5-4.140625 0-7.5 3.355469-7.5 7.5v8.101563h-8.914062c-.003907 0-.003907 0-.007813 0-4.871094 0-9.476562 2.125-12.628906 5.835937l-45.007812 52.890625h-25.277344c-6.65625 0-12.46875 3.785157-15.167969 9.871094-2.695313 6.089844-1.589844 12.933594 2.882813 17.863281l10.90625 12.019532c3.136718 3.457031 7.613281 5.441406 12.28125 5.441406h.003906l38.496094-.007813 12.28125 29.90625c2.5625 6.25 8.589843 10.285157 15.347656 10.285157h.003906l13.601562-.003907c41.808594 34.265625 94.582032 53.132813 148.726563 53.132813 17.886719 0 35.753906-2.03125 53.097656-6.046875 4.035157-.929688 6.550781-4.957031 5.617188-8.996094-.9375-4.035156-4.964844-6.554687-9-5.613281-16.234375 3.753906-32.960938 5.660156-49.714844 5.660156-44.203125 0-87.429687-13.4375-123.71875-38.148438l247.617187-.101562c-13.769531 9.421875-28.535156 17.238281-44.097656 23.304688-3.855468 1.507812-5.765625 5.855468-4.261718 9.714843 1.15625 2.964844 3.992187 4.773438 6.992187 4.773438.902344 0 1.824219-.164063 2.722656-.511719 23.011719-8.976562 44.398438-21.503906 63.574219-37.238281.019531-.019531.039062-.035157.058594-.054688l13.574218-.007812c6.746094-.003907 12.761719-4.035157 15.332032-10.269531l12.292968-29.859376 38.453126-.003906c4.65625 0 9.128906-1.980468 12.265624-5.425781l10.855469-11.929687c4.488281-4.925782 5.597657-11.777344 2.90625-17.871094zm-90.640625 59.375c-.25.601562-.824218.988281-1.46875.988281l-324.792968.136719c-.644532 0-1.222657-.386719-1.46875-.984375l-9.941407-24.214844 26.738281-.003906v3.378906c0 4.144531 3.355469 7.5 7.5 7.5 4.140626 0 7.5-3.355469 7.5-7.5v-3.382813h4.238282v3.382813c0 4.140625 3.355468 7.5 7.496094 7.5 4.144531 0 7.5-3.359375 7.5-7.5v-3.386719h4.238281v3.386719c0 4.140625 3.359375 7.5 7.5 7.5 4.144531 0 7.5-3.359375 7.5-7.5v-3.390625l267.398437-.050781zm76.644532-51.597656-10.859376 11.929687c-.300781.328125-.726562.519531-1.171874.519531l-457 .085938c-.445313 0-.875-.1875-1.175782-.519532l-10.902344-12.019531c-.460937-.507812-.554687-1.085937-.277343-1.710937.277343-.628906.769531-.945313 1.453125-.945313h478.757812c.6875 0 1.175782.316407 1.453125.945313.277344.628906.183594 1.207031-.277343 1.714844zm0 0"/><path d="m256.039062 306.121094c-.007812 0-.015624 0-.023437 0-4.132813 0-7.484375 3.34375-7.5 7.476562l-.03125 10.582032c-.011719 4.144531 3.335937 7.511718 7.480469 7.523437h.019531c4.132813 0 7.488281-3.34375 7.5-7.480469l.03125-10.578125c.011719-4.144531-3.335937-7.511719-7.476563-7.523437zm0 0"/><path d="m287.839844 305.382812c-2.058594-3.59375-6.644532-4.835937-10.234375-2.773437-3.59375 2.058594-4.835938 6.644531-2.773438 10.234375l5.261719 9.179688c1.386719 2.417968 3.914062 3.769531 6.515625 3.769531 1.265625 0 2.546875-.320313 3.722656-.996094 3.59375-2.058594 4.835938-6.644531 2.773438-10.234375zm0 0"/><path d="m234.484375 302.484375c-3.578125-2.082031-8.171875-.867187-10.253906 2.714844l-5.316407 9.148437c-2.078124 3.578125-.863281 8.167969 2.71875 10.25 1.183594.691406 2.480469 1.019532 3.761719 1.019532 2.582031 0 5.097657-1.339844 6.488281-3.734376l5.316407-9.148437c2.082031-3.582031.867187-8.167969-2.714844-10.25zm0 0"/><path d="m96.105469 18.222656h.039062c4.121094 0 7.476563-3.335937 7.496094-7.464844l.015625-2.71875c.019531-4.144531-3.320312-7.519531-7.460938-7.539062-.015624 0-.027343 0-.039062 0-4.125 0-7.480469 3.332031-7.5 7.460938l-.015625 2.722656c-.019531 4.140625 3.324219 7.515625 7.464844 7.539062zm0 0"/><path d="m96.105469 28.203125c-.011719 0-.023438 0-.035157 0-4.125 0-7.480468 3.335937-7.5 7.464844l-.011718 2.722656c-.019532 4.144531 3.320312 7.515625 7.464844 7.535156h.035156c4.125 0 7.476562-3.335937 7.496094-7.464843l.015624-2.722657c.019532-4.140625-3.324218-7.515625-7.464843-7.535156zm0 0"/><path d="m101.097656 23.214844c-.019531 4.140625 3.324219 7.515625 7.464844 7.53125l2.722656.015625h.035156c4.125 0 7.476563-3.335938 7.5-7.464844.019532-4.144531-3.324218-7.515625-7.464843-7.535156l-2.722657-.011719c-.011718 0-.023437 0-.035156 0-4.125 0-7.480468 3.335938-7.5 7.464844zm0 0"/><path d="m80.855469 30.664062 2.722656.011719h.039063c4.125 0 7.476562-3.332031 7.5-7.460937.019531-4.140625-3.320313-7.515625-7.464844-7.535156l-2.71875-.015626c-.015625 0-.027344 0-.039063 0-4.125 0-7.480469 3.332032-7.5 7.460938-.019531 4.140625 3.320313 7.515625 7.460938 7.539062zm0 0"/><path d="m471.210938 65.640625h.035156c4.125 0 7.480468-3.335937 7.5-7.464844l.011718-2.722656c.019532-4.140625-3.320312-7.515625-7.464843-7.535156-.011719 0-.019531 0-.035157 0-4.125 0-7.476562 3.335937-7.496093 7.464843l-.015625 2.722657c-.019532 4.144531 3.324218 7.515625 7.464844 7.535156zm0 0"/><path d="m471.210938 75.625c-.011719 0-.023438 0-.039063 0-4.121094 0-7.476563 3.332031-7.496094 7.460938l-.015625 2.71875c-.019531 4.144531 3.320313 7.519531 7.460938 7.539062h.039062c4.125 0 7.480469-3.332031 7.5-7.460938l.015625-2.722656c.019531-4.140625-3.320312-7.515625-7.464843-7.535156zm0 0"/><path d="m476.203125 70.632812c-.023437 4.140626 3.320313 7.515626 7.460937 7.535157l2.722657.011719h.035156c4.125 0 7.480469-3.335938 7.5-7.464844.019531-4.140625-3.324219-7.515625-7.464844-7.535156l-2.722656-.011719c-.011719 0-.023437 0-.035156 0-4.125 0-7.476563 3.335937-7.496094 7.464843zm0 0"/><path d="m455.964844 78.082031 2.71875.015625h.039062c4.125 0 7.476563-3.335937 7.496094-7.464844.019531-4.144531-3.320312-7.515624-7.464844-7.535156l-2.71875-.015625c-.015625 0-.023437 0-.039062 0-4.125 0-7.476563 3.335938-7.496094 7.464844-.019531 4.144531 3.324219 7.515625 7.464844 7.535156zm0 0"/><path d="m56.984375 58.078125h.035156c4.125 0 7.480469-3.335937 7.5-7.464844l.015625-2.71875c.019532-4.144531-3.320312-7.519531-7.460937-7.539062-.015625 0-.027344 0-.039063 0-4.125 0-7.480468 3.332031-7.5 7.460937l-.015625 2.722656c-.019531 4.140626 3.320313 7.515626 7.464844 7.539063zm0 0"/><path d="m56.984375 68.058594c-.015625 0-.023437 0-.035156 0-4.125 0-7.480469 3.332031-7.5 7.464844l-.011719 2.71875c-.023438 4.144531 3.320312 7.515624 7.464844 7.535156h.035156c4.125 0 7.476562-3.332032 7.496094-7.464844l.015625-2.71875c.019531-4.144531-3.324219-7.515625-7.464844-7.535156zm0 0"/><path d="m61.976562 63.066406c-.019531 4.144532 3.324219 7.515625 7.464844 7.535156l2.722656.015626h.035157c4.125 0 7.480469-3.335938 7.5-7.464844.019531-4.144532-3.324219-7.515625-7.464844-7.535156l-2.722656-.015626c-.015625 0-.023438 0-.035157 0-4.125 0-7.480468 3.335938-7.5 7.464844zm0 0"/><path d="m41.738281 70.515625 2.722657.015625h.035156c4.125 0 7.476562-3.335938 7.496094-7.464844.023437-4.144531-3.320313-7.515625-7.464844-7.535156l-2.71875-.011719c-.015625 0-.023438 0-.039063 0-4.121093 0-7.476562 3.332031-7.496093 7.464844-.019532 4.140625 3.324218 7.515625 7.464843 7.53125zm0 0"/></svg>