<svg height="512pt" viewBox="0 0 512 512" width="512pt" xmlns="http://www.w3.org/2000/svg"><path d="m158.714844 58.078125c25.738281-27.777344 60.285156-43.078125 97.277344-43.078125 38.976562 0 76.082031 17.574219 101.8125 48.214844 1.480468 1.769531 3.605468 2.679687 5.746093 2.679687 1.703125 0 3.414063-.578125 4.816407-1.757812 3.175781-2.664063 3.585937-7.394531.921874-10.566407-28.582031-34.042968-69.878906-53.570312-113.296874-53.570312-41.21875 0-79.671876 17.007812-108.28125 47.886719-2.816407 3.035156-2.636719 7.78125.402343 10.597656 3.039063 2.816406 7.785157 2.632813 10.601563-.40625zm0 0"/><path d="m121.289062 387.171875c-62.578124-15.316406-106.289062-69.257813-106.289062-131.164063 0-38.976562 17.574219-76.082031 48.21875-101.8125 3.171875-2.664062 3.582031-7.390624.921875-10.5625-2.664063-3.171874-7.394531-3.585937-10.566406-.921874-34.046875 28.582031-53.574219 69.878906-53.574219 113.296874 0 68.839844 48.410156 128.765626 117.726562 145.734376.597657.148437 1.195313.21875 1.789063.21875 3.375 0 6.4375-2.296876 7.277344-5.722657.984375-4.019531-1.480469-8.082031-5.503907-9.066406zm0 0"/><path d="m457.113281 141.621094c.710938-2.710938 1.09375-5.550782 1.09375-8.476563 0-18.421875-14.988281-33.410156-33.410156-33.410156-10.214844 0-19.367187 4.613281-25.5 11.859375-14.160156-3.953125-28.863281-5.980469-43.746094-5.980469-14.316406 0-28.183593 1.867188-41.367187 5.347657-18.277344-7.335938-37.984375-11.226563-58.175782-11.226563-56.894531 0-106.78125 30.570313-134.109374 76.144531-.839844-6.355468-1.285157-12.839844-1.285157-19.429687 0-19.136719 3.59375-37.691407 10.679688-55.15625 1.558593-3.839844-.292969-8.210938-4.128907-9.769531-3.839843-1.558594-8.214843.292968-9.769531 4.128906-7.816406 19.261718-11.78125 39.71875-11.78125 60.796875 0 14.332031 1.871094 28.210937 5.355469 41.402343-7.234375 17.984376-11.226562 37.609376-11.226562 58.148438 0 24.304688 5.4375 47.605469 16.160156 69.257812 1.3125 2.640626 3.964844 4.171876 6.730468 4.171876 1.113282 0 2.25-.25 3.320313-.78125 3.710937-1.835938 5.230469-6.335938 3.394531-10.046876-9.691406-19.566406-14.605468-40.628906-14.605468-62.601562 0-12.019531 1.511718-23.6875 4.351562-34.835938 23.707031 54.066407 76.152344 91.738282 136.898438 91.738282h.003906.011718c12.550782 0 24.15625-4.09375 33.578126-11-8.273438 22.046875-22.503907 41.835937-41.714844 57.40625-5.761719-4.730469-13.132813-7.574219-21.152344-7.574219-17.585938 0-32.027344 13.65625-33.308594 30.917969-18.050781-8.953125-34.136718-21.746094-46.949218-37.460938-2.617188-3.210937-7.339844-3.695312-10.550782-1.074218-3.210937 2.617187-3.691406 7.339843-1.074218 10.550781 11.519531 14.132812 25.433593 26.136719 40.964843 35.453125-2.917969.382812-5.851562.6875-8.796875.894531-4.132812.292969-7.242187 3.875-6.953125 8.007813.277344 3.953124 3.570313 6.972656 7.472657 6.972656.179687 0 .359374-.003906.535156-.019532 9.929687-.699218 19.777344-2.324218 29.351562-4.8125 5.683594 10.355469 16.6875 17.386719 29.308594 17.386719 7.445312 0 14.328125-2.449219 19.890625-6.582031 3.121094.183594 6.273437.296875 9.398437.296875 23.761719 0 46.582032-5.199219 67.828126-15.453125 3.730468-1.796875 5.296874-6.28125 3.496093-10.011719s-6.285156-5.296875-10.015625-3.496093c-18.644531 8.996093-38.644531 13.671874-59.464844 13.933593 1.464844-3.753906 2.277344-7.832031 2.277344-12.097656 0-4.984375-1.105468-9.710937-3.070312-13.964844 35.359375-28.53125 55.621094-69.96875 55.832031-114.460937.003906-.238282.019531-.476563.019531-.71875 0-12.519532-4.074218-24.097656-10.953125-33.507813 39.554688 14.960938 70.59375 48.652344 83.25 90.773438-8.996093 20.300781-22.804687 38.429687-40.683593 52.824219-3.226563 2.597656-3.734376 7.320312-1.136719 10.546874 1.480469 1.839844 3.652343 2.796876 5.84375 2.796876 1.652343 0 3.316406-.542969 4.699219-1.660157 14.648437-11.796875 26.820312-25.867187 36.195312-41.496093.824219 6.304687 1.261719 12.734374 1.261719 19.273437 0 77.996094-60.730469 141.449219-135.378907 141.449219-38.976562 0-76.082031-17.574219-101.8125-48.214844-2.660156-3.171875-7.390624-3.585938-10.5625-.921875-3.175781 2.664063-3.585937 7.394531-.921874 10.566406 28.582031 34.046875 69.878906 53.574219 113.296874 53.574219 82.917969 0 150.378907-70.183594 150.378907-156.449219 0-14.289062-1.859375-28.132812-5.324219-41.292969 7.324219-18.253906 11.210938-37.96875 11.210938-58.257812 0-25.433594-6.261719-50.695312-18.105469-73.050781-1.9375-3.660157-6.476563-5.054688-10.136719-3.117188s-5.058594 6.476563-3.117188 10.136719c10.703126 20.203125 16.359376 43.035156 16.359376 66.03125 0 11.921875-1.488282 23.625-4.339844 34.890625-23.695313-54.097656-76.15625-91.792969-136.925782-91.792969-12.527343 0-24.113281 4.078125-33.523437 10.960938 14.945313-39.535156 48.605469-70.566406 90.691406-83.238282 19.15625 8.480469 36.417969 21.21875 50.375 37.585938 2.683594 3.152344 7.417969 3.53125 10.570313.84375s3.527344-7.421875.84375-10.574219c-11.195313-13.125-24.308594-24.148437-38.75-32.792969 6.320312-.832031 12.773437-1.269531 19.332031-1.269531 12.492187 0 24.847656 1.5625 36.789063 4.632813-.617188 2.53125-.949219 5.175781-.949219 7.898437 0 18.421875 14.984375 33.40625 33.40625 33.40625 10 0 18.980469-4.417969 25.109375-11.402343 29.996094 25.707031 47.097656 62.152343 47.097656 100.84375 0 38.976562-17.574219 76.082031-48.21875 101.8125-3.171875 2.664062-3.582031 7.390624-.921875 10.5625 1.484375 1.769531 3.609375 2.679687 5.75 2.679687 1.703125 0 3.414063-.574219 4.816406-1.757813 34.046875-28.582031 53.574219-69.878906 53.574219-113.296874 0-44.195313-19.976562-85.714844-54.886719-114.371094zm-248.804687 243.523437c0-10.152343 8.257812-18.410156 18.410156-18.410156 10.148438 0 18.410156 8.257813 18.410156 18.410156 0 10.152344-8.261718 18.410157-18.410156 18.410157-10.152344 0-18.410156-8.261719-18.410156-18.410157zm47.699218-171.046875c23.070313 0 41.84375 18.746094 41.898438 41.804688 0 .035156-.003906.070312-.003906.105468 0 .238282-.007813.472657-.011719.710938-.386719 22.773438-19.019531 41.183594-41.882813 41.183594-23.105468 0-41.902343-18.796875-41.902343-41.902344s18.796875-41.902344 41.902343-41.902344zm-56.910156 41.894532c0 .089843.011719.175781.015625.265624.054688 12.425782 4.113281 23.914063 10.949219 33.257813-39.527344-14.941406-70.554688-48.589844-83.234375-90.664063 21.988281-49.503906 71.613281-84.117187 129.179687-84.117187 11.871094 0 23.558594 1.496094 34.828126 4.359375-54.066407 23.703125-91.738282 76.152344-91.738282 136.898438zm225.699219-104.4375c-10.152344 0-18.410156-8.257813-18.410156-18.410157 0-10.152343 8.257812-18.410156 18.410156-18.410156 10.148437 0 18.40625 8.257813 18.40625 18.410156 0 10.152344-8.257813 18.410157-18.40625 18.410157zm0 0"/><path d="m136.859375 81h.105469.035156c4.125 0 7.480469-3.335938 7.5-7.464844.019531-4.140625-3.320312-7.515625-7.464844-7.535156h-.105468c-.011719 0-.023438 0-.035157 0-4.125 0-7.480469 3.335938-7.5 7.464844-.015625 4.140625 3.324219 7.515625 7.464844 7.535156zm0 0"/><path d="m144.105469 405.996094c4.140625 0 7.5-3.355469 7.5-7.5 0-4.140625-3.359375-7.5-7.5-7.5h-.105469c-4.144531 0-7.5 3.359375-7.5 7.5 0 4.144531 3.355469 7.5 7.5 7.5zm0 0"/><path d="m271.582031 259.902344h.105469.035156c4.125 0 7.480469-3.335938 7.5-7.464844.019532-4.140625-3.324218-7.515625-7.464844-7.535156h-.105468c-.011719 0-.023438 0-.035156 0-4.125 0-7.480469 3.332031-7.5 7.464844-.019532 4.140624 3.324218 7.515624 7.464843 7.535156zm0 0"/><path d="m274.316406 262.503906c-.011718 0-.023437 0-.035156 0-4.125 0-7.480469 3.335938-7.5 7.464844-.019531 4.144531 3.320312 7.515625 7.464844 7.535156h.105468.035157c4.125 0 7.476562-3.332031 7.5-7.464844.019531-4.140624-3.324219-7.515624-7.464844-7.535156zm0 0"/><path d="m217.460938 68.460938h.035156c4.125 0 7.480468-3.335938 7.5-7.46875l.011718-2.71875c.019532-4.144532-3.324218-7.515626-7.464843-7.535157-.011719 0-.023438 0-.035157 0-4.125 0-7.480468 3.332031-7.5 7.464844l-.011718 2.722656c-.019532 4.140625 3.320312 7.511719 7.464844 7.535157zm0 0"/><path d="m217.375 96.164062h.035156c4.125 0 7.480469-3.335937 7.5-7.464843l.011719-2.722657c.019531-4.140624-3.324219-7.515624-7.464844-7.535156-.011719 0-.023437 0-.035156 0-4.125 0-7.480469 3.335938-7.5 7.464844l-.011719 2.722656c-.019531 4.140625 3.320313 7.515625 7.464844 7.535156zm0 0"/><path d="m232.636719 81h.035156c4.125 0 7.480469-3.335938 7.5-7.464844.019531-4.140625-3.324219-7.515625-7.464844-7.535156l-2.722656-.011719c-.011719 0-.023437 0-.035156 0-4.125 0-7.480469 3.332031-7.5 7.464844-.019531 4.140625 3.324219 7.515625 7.464843 7.535156zm0 0"/><path d="m202.28125 65.902344c-.015625 0-.023438 0-.039062 0-4.125 0-7.476563 3.332031-7.496094 7.464844-.019532 4.140624 3.320312 7.515624 7.464844 7.535156l2.722656.011718h.035156c4.125 0 7.476562-3.335937 7.5-7.464843.019531-4.140625-3.324219-7.515625-7.464844-7.535157zm0 0"/><path d="m174.03125 203.605469h.035156c4.125 0 7.480469-3.332031 7.5-7.464844l.011719-2.71875c.019531-4.144531-3.324219-7.519531-7.464844-7.535156-.011719 0-.023437 0-.035156 0-4.125 0-7.480469 3.332031-7.5 7.464843l-.011719 2.71875c-.019531 4.144532 3.324219 7.515626 7.464844 7.535157zm0 0"/><path d="m174.027344 213.589844c-.011719 0-.023438 0-.035156 0-4.125 0-7.480469 3.335937-7.5 7.464844l-.011719 2.722656c-.019531 4.140625 3.320312 7.515625 7.464843 7.535156h.035157c4.125 0 7.480469-3.335938 7.5-7.464844l.011719-2.722656c.019531-4.140625-3.324219-7.515625-7.464844-7.535156zm0 0"/><path d="m189.277344 201.148438-2.722656-.015626c-.011719 0-.023438 0-.035157 0-4.125 0-7.480469 3.335938-7.5 7.464844-.019531 4.144532 3.324219 7.515625 7.464844 7.535156l2.722656.015626h.035157c4.125 0 7.480468-3.335938 7.5-7.464844.019531-4.144532-3.324219-7.515625-7.464844-7.535156zm0 0"/><path d="m169.035156 208.597656c.023438-4.144531-3.320312-7.515625-7.464844-7.535156l-2.71875-.011719c-.015624 0-.023437 0-.039062 0-4.125 0-7.476562 3.332031-7.496094 7.464844-.019531 4.140625 3.320313 7.515625 7.464844 7.535156l2.722656.011719h.035156c4.125 0 7.480469-3.335938 7.496094-7.464844zm0 0"/><path d="m284.351562 411.660156c-.011718 0-.023437 0-.035156 0-4.125 0-7.480468 3.332032-7.5 7.464844l-.011718 2.722656c-.019532 4.140625 3.324218 7.515625 7.464843 7.535156h.035157c4.125 0 7.480468-3.335937 7.5-7.46875l.011718-2.71875c.019532-4.144531-3.324218-7.515624-7.464844-7.535156zm0 0"/><path d="m284.265625 439.363281c-.011719 0-.023437 0-.035156 0-4.125 0-7.476563 3.335938-7.5 7.464844l-.011719 2.722656c-.019531 4.140625 3.324219 7.515625 7.464844 7.535157h.035156c4.125 0 7.480469-3.335938 7.5-7.464844l.011719-2.722656c.019531-4.140626-3.324219-7.515626-7.464844-7.535157zm0 0"/><path d="m299.445312 441.921875h.035157c4.125 0 7.480469-3.335937 7.5-7.464844.019531-4.140625-3.320313-7.515625-7.464844-7.535156l-2.722656-.015625c-.011719 0-.023438 0-.035157 0-4.125 0-7.480468 3.335938-7.5 7.464844-.019531 4.144531 3.320313 7.515625 7.464844 7.535156zm0 0"/><path d="m269.089844 426.824219c-.011719 0-.023438 0-.035156 0-4.125 0-7.480469 3.332031-7.5 7.464843-.019532 4.140626 3.324218 7.515626 7.464843 7.535157l2.722657.011719h.035156c4.125 0 7.480468-3.335938 7.5-7.464844.019531-4.140625-3.324219-7.515625-7.464844-7.535156zm0 0"/><path d="m45.589844 239.421875c0 13.816406 11.238281 25.054687 25.050781 25.054687s25.054687-11.238281 25.054687-25.054687c0-13.8125-11.242187-25.050781-25.054687-25.050781s-25.050781 11.238281-25.050781 25.050781zm25.050781-10.050781c5.542969 0 10.054687 4.507812 10.054687 10.050781s-4.511718 10.054687-10.054687 10.054687-10.050781-4.511718-10.050781-10.054687 4.507812-10.050781 10.050781-10.050781zm0 0"/><path d="m467.859375 206.597656c0-13.8125-11.238281-25.050781-25.054687-25.050781-13.816407 0-25.050782 11.238281-25.050782 25.050781s11.234375 25.054688 25.050782 25.054688c13.816406 0 25.054687-11.242188 25.054687-25.054688zm-25.054687 10.054688c-5.542969 0-10.050782-4.511719-10.050782-10.054688 0-5.542968 4.507813-10.050781 10.050782-10.050781 5.542968 0 10.054687 4.507813 10.054687 10.050781 0 5.542969-4.511719 10.054688-10.054687 10.054688zm0 0"/></svg>