<svg height="512pt" viewBox="-43 0 512 512.00081" width="512pt" xmlns="http://www.w3.org/2000/svg"><path d="m378.191406 438.148438c-16.164062 0-29.3125-13.148438-29.3125-29.3125v-222.765626c0-35.429687-13.859375-67.683593-36.429687-91.632812l19.402343-42.421875c7.738282-1.753906 14.605469-6.960937 18.15625-14.714844 2.925782-6.398437 3.183594-13.550781.730469-20.140625-2.457031-6.59375-7.328125-11.832031-13.722656-14.757812-6.398437-2.925782-13.550781-3.1875-20.140625-.734375-6.59375 2.457031-11.835938 7.332031-14.761719 13.726562-2.925781 6.398438-3.183593 13.550781-.730469 20.140625.417969 1.117188.925782 2.179688 1.476563 3.210938l-15.832031 34.609375c-20.765625-13.285157-45.429688-20.996094-71.863282-20.996094-27.144531 0-52.417968 8.136719-73.53125 22.09375l-16.332031-35.707031c.550781-1.03125 1.058594-2.09375 1.476563-3.210938 2.453125-6.59375 2.195312-13.742187-.730469-20.140625-2.925781-6.398437-8.167969-11.269531-14.757813-13.726562-6.59375-2.453125-13.746093-2.191407-20.140624.730469-6.398438 2.925781-11.273438 8.167968-13.726563 14.761718-2.453125 6.589844-2.195313 13.742188.730469 20.140625 3.546875 7.757813 10.417968 12.960938 18.15625 14.714844l20.117187 43.984375c-21.710937 23.78125-34.972656 55.40625-34.972656 90.070312v99.601563c0 4.144531 3.355469 7.5 7.5 7.5 4.140625 0 7.5-3.355469 7.5-7.5v-74.148437c9.382813 4.265624 19.589844 6.488281 30.097656 6.488281 12.671875 0 24.914063-3.238281 35.800781-9.398438 10.117188 18.820313 29.992188 31.648438 52.8125 31.648438 33.039063 0 59.914063-26.878907 59.914063-59.914063 0-33.039062-26.875-59.917968-59.914063-59.917968-6.644531 0-13.035156 1.105468-19.011718 3.113281-5.742188-18.398438-18.738282-33.871094-35.628906-42.839844 16.363281-8.523437 34.949218-13.347656 54.640624-13.347656 65.457032 0 118.714844 53.253906 118.714844 118.710937v50.703125c-12.644531 4.234375-23.289062 13.109375-29.757812 25.011719-4.179688 7.691406-6.386719 16.425781-6.386719 25.261719 0 8.835937 2.207031 17.570312 6.386719 25.257812 6.46875 11.90625 17.113281 20.78125 29.757812 25.015625v71.515625c0 24.4375 19.878906 44.316407 44.3125 44.316407 12.089844 0 21.925782 9.835937 21.925782 21.925781 0 12.089843-9.835938 21.925781-21.925782 21.925781h-30.222656c-.875-30.359375-25.828125-54.789062-56.394531-54.789062-30.566407 0-55.515625 24.429687-56.394531 54.789062h-24.683594c-4.144532 0-7.5 3.355469-7.5 7.5s3.355468 7.5 7.5 7.5h167.695312c20.359375 0 36.925782-16.5625 36.925782-36.925781 0-20.359375-16.566407-36.925781-36.925782-36.925781zm-265.140625-387.855469c.289063-.132813.558594-.292969.839844-.433594l15.445313 33.769531c-.5.417969-1 .835938-1.496094 1.265625l-15.65625-34.230469c.289062-.121093.582031-.238281.867187-.371093zm-21.257812-19.230469c-1.257813-2.753906-1.371094-5.832031-.3125-8.667969 1.054687-2.839843 3.152343-5.09375 5.90625-6.351562 2.753906-1.261719 5.832031-1.371094 8.667969-.316407 2.835937 1.058594 5.09375 3.152344 6.351562 5.90625 1.257812 2.753907 1.371094 5.832032.3125 8.667969-1.054688 2.839844-3.152344 5.09375-5.90625 6.351563-5.675781 2.601562-12.417969.09375-15.019531-5.589844zm164.929687 138.597656c5.894532 8.464844 3.800782 20.148438-4.664062 26.042969-8.46875 5.894531-20.148438 3.800781-26.042969-4.667969-5.894531-8.464844-3.800781-20.148437 4.667969-26.039062 3.171875-2.210938 6.859375-3.359375 10.644531-3.359375 1.109375 0 2.226563.097656 3.339844.296875 4.917969.882812 9.199219 3.625 12.054687 7.726562zm-11.679687-22.808594c-8.105469-.902343-16.171875 1.128907-22.929688 5.832032-15.253906 10.617187-19.023437 31.667968-8.40625 46.925781 6.542969 9.394531 17.046875 14.4375 27.710938 14.4375 1.21875 0 2.4375-.089844 3.652343-.222656-7.945312 7.109375-18.425781 11.441406-29.902343 11.441406-24.769531 0-44.917969-20.148437-44.917969-44.914063 0-24.769531 20.148438-44.917968 44.917969-44.917968 11.460937 0 21.929687 4.324218 29.875 11.417968zm-62.582031-16.667968c-16.367188 10.707031-27.210938 29.1875-27.210938 50.164062 0 4.839844.59375 9.542969 1.679688 14.050782-9.113282 5.640624-19.546876 8.617187-30.375 8.617187-10.730469 0-21.054688-2.917969-30.101563-8.449219v-8.496094c0-39.265624 19.167969-74.132812 48.628906-95.753906 18.207031 6.164063 32.40625 21.308594 37.378907 39.867188zm133.296874-108.550782c1.257813-2.753906 3.511719-4.851562 6.351563-5.90625 1.285156-.476562 2.625-.71875 3.957031-.71875 1.605469 0 3.207032.347657 4.710938 1.035157 2.75 1.257812 4.847656 3.511719 5.90625 6.351562 1.054687 2.835938.941406 5.914063-.316406 8.667969-2.597657 5.683594-9.335938 8.1875-15.019532 5.589844-2.753906-1.257813-4.851562-3.511719-5.90625-6.351563-1.054687-2.835937-.945312-5.914062.316406-8.667969zm-1.488281 28.226563c.28125.140625.550781.300781.839844.433594.285156.132812.578125.25.867187.371093l-15.050781 32.90625c-.5-.417968-1-.835937-1.507812-1.246093zm3.035157 255.28125c-2.992188-5.496094-4.570313-11.753906-4.570313-18.097656 0-6.339844 1.578125-12.597657 4.570313-18.097657 3.800781-7 9.617187-12.535156 16.574218-15.980468v68.15625c-6.957031-3.445313-12.773437-8.976563-16.574218-15.980469zm-25.730469 152.070313c22.296875 0 40.527343 17.703124 41.394531 39.789062h-82.789062c.871093-22.085938 19.097656-39.789062 41.394531-39.789062zm0 0"/><path d="m177.835938 497h-40.339844c-4.140625 0-7.5 3.359375-7.5 7.5 0 4.144531 3.359375 7.5 7.5 7.5h40.339844c4.144531 0 7.5-3.355469 7.5-7.5 0-4.140625-3.359376-7.5-7.5-7.5zm0 0"/><path d="m104.835938 497h-52.699219c-12.089844 0-21.921875-9.835938-21.921875-21.925781 0-12.089844 9.832031-21.925781 21.925781-21.925781 24.433594 0 44.3125-19.878907 44.3125-44.3125v-90.5c0-4.144532-3.359375-7.5-7.5-7.5-4.144531 0-7.5 3.355468-7.5 7.5v90.5c0 16.164062-13.148437 29.3125-29.3125 29.3125-20.363281 0-36.925781 16.566406-36.925781 36.925781 0 20.363281 16.5625 36.925781 36.921875 36.925781h52.699219c4.144531 0 7.5-3.355469 7.5-7.5 0-4.140625-3.355469-7.5-7.5-7.5zm0 0"/><path d="m215.164062 347.335938c12.96875 0 25.160157-5.050782 34.328126-14.21875 9.171874-9.171876 14.222656-21.363282 14.222656-34.332032 0-12.578125-4.765625-24.417968-13.417969-33.488281-.222656-.238281-.445313-.472656-.671875-.707031-.046875-.042969-.085938-.089844-.128906-.132813-.023438-.019531-.042969-.039062-.066406-.0625-.300782-.300781-.609376-.59375-.925782-.882812-9.046875-8.5625-20.828125-13.277344-33.339844-13.277344-12.96875 0-25.160156 5.050781-34.328124 14.222656-9.167969 9.167969-14.21875 21.359375-14.21875 34.328125s5.050781 25.160156 14.21875 34.328125c9.167968 9.171875 21.359374 14.222657 34.328124 14.222657zm1.691407-65.359376c1.128906-6.296874 6.628906-10.726562 12.816406-10.726562.757813 0 1.527344.066406 2.300781.203125 7.070313 1.269531 11.789063 8.050781 10.523438 15.117187-1.265625 7.070313-8.042969 11.785157-15.117188 10.523438-3.421875-.613281-6.40625-2.523438-8.394531-5.378906-1.984375-2.855469-2.742187-6.3125-2.128906-9.738282zm-25.414063-6.914062c4.746094-4.746094 10.664063-7.894531 17.101563-9.175781-3.226563 3.695312-5.527344 8.277343-6.453125 13.445312-1.316406 7.371094.308594 14.808594 4.585937 20.953125 4.277344 6.144532 10.691407 10.253906 18.058594 11.574219 1.664063.296875 3.320313.441406 4.957031.441406 6.890625 0 13.378906-2.578125 18.378906-6.929687-1.277343 6.453125-4.429687 12.382812-9.183593 17.136718-6.335938 6.335938-14.761719 9.828126-23.722657 9.828126-8.960937 0-17.386718-3.492188-23.722656-9.828126-6.335937-6.335937-9.828125-14.761718-9.828125-23.722656.003907-8.960937 3.492188-17.386718 9.828125-23.722656zm0 0"/><path d="m164.433594 426.542969c0-14.25-11.59375-25.839844-25.839844-25.839844s-25.835938 11.589844-25.835938 25.839844c0 14.246093 11.589844 25.835937 25.835938 25.835937s25.839844-11.589844 25.839844-25.835937zm-36.675782 0c0-5.976563 4.863282-10.839844 10.839844-10.839844 5.972656 0 10.835938 4.863281 10.835938 10.839844 0 5.972656-4.863282 10.835937-10.835938 10.835937-5.976562 0-10.839844-4.863281-10.839844-10.835937zm0 0"/><path d="m132.941406 362.792969c.015625 4.132812 3.371094 7.46875 7.496094 7.46875h.035156c.425782 0 5.539063-.0625 12.585938-1.621094 7.726562 27.527344 33.136718 47.0625 62.105468 47.0625 8.097657 0 15.925782-1.480469 23.339844-4.375l8.214844 6c3.191406 2.332031 6.894531 3.5 10.605469 3.5 3.46875 0 6.945312-1.019531 10.015625-3.078125 6.355468-4.253906 9.289062-11.800781 7.476562-19.226562l-3.710937-15.199219c5.613281-9.75 8.574219-20.785157 8.574219-32.132813 0-4.140625-3.359376-7.5-7.5-7.5-4.144532 0-7.5 3.359375-7.5 7.5 0 9.566406-2.730469 18.84375-7.894532 26.828125-5.042968 7.804688-12.128906 14.011719-20.503906 17.964844-6.613281 3.132813-13.71875 4.71875-21.117188 4.71875-22.484374 0-42.175781-15.328125-47.863281-36.820313 3.847657-1.78125 7.753907-4.058593 11.457031-6.980468 3.253907-2.5625 3.8125-7.277344 1.25-10.53125-2.566406-3.253906-7.28125-3.8125-10.535156-1.246094-12.445312 9.808594-28.804687 10.136719-29.085937 10.140625-4.132813.027344-7.464844 3.394531-7.445313 7.527344zm126.058594 42.492187c-.652344.4375-1.960938 1.003906-3.433594-.066406l-2.492187-1.820312c.09375-.070313.179687-.144532.273437-.210938.957032-.707031 1.898438-1.429688 2.816406-2.1875.109376-.089844.210938-.179688.320313-.269531.957031-.800781 1.898437-1.621094 2.808594-2.476563.003906-.003906.007812-.007812.011719-.011718l.941406 3.839843c.429687 1.773438-.597656 2.769531-1.246094 3.203125zm0 0"/><path d="m146.0625 259.839844h.105469c4.140625 0 7.5-3.359375 7.5-7.5 0-4.144532-3.359375-7.5-7.5-7.5h-.105469c-4.144531 0-7.5 3.355468-7.5 7.5 0 4.140625 3.359375 7.5 7.5 7.5zm0 0"/><path d="m314.164062 434.042969c4.140626 0 7.5-3.359375 7.5-7.5 0-4.144531-3.359374-7.5-7.5-7.5h-.105468c-4.140625 0-7.5 3.355469-7.5 7.5 0 4.140625 3.359375 7.5 7.5 7.5zm0 0"/><path d="m162.699219 448.835938c-4.144531 0-7.5 3.355468-7.5 7.5 0 4.140624 3.355469 7.5 7.5 7.5h.101562c4.144531 0 7.5-3.359376 7.5-7.5 0-4.144532-3.355469-7.5-7.5-7.5zm0 0"/><path d="m294.832031 214.058594c4.140625 0 7.5-3.359375 7.5-7.5 0-4.144532-3.359375-7.5-7.5-7.5h-.105469c-4.144531 0-7.5 3.355468-7.5 7.5 0 4.140625 3.355469 7.5 7.5 7.5zm0 0"/><path d="m129.601562 228.171875h-.101562c-4.144531 0-7.5 3.359375-7.5 7.5 0 4.144531 3.355469 7.5 7.5 7.5h.101562c4.144532 0 7.5-3.355469 7.5-7.5 0-4.140625-3.355468-7.5-7.5-7.5zm0 0"/><path d="m372.832031 109.992188h.035157c4.125 0 7.476562-3.332032 7.496093-7.464844l.015625-2.71875c.019532-4.144532-3.324218-7.519532-7.464844-7.535156-.015624 0-.023437 0-.035156 0-4.125 0-7.480468 3.332031-7.5 7.464843l-.011718 2.71875c-.023438 4.144531 3.320312 7.519531 7.464843 7.535157zm0 0"/><path d="m372.828125 119.976562c-.015625 0-.023437 0-.035156 0-4.125 0-7.480469 3.335938-7.5 7.464844l-.011719 2.722656c-.023438 4.140626 3.320312 7.515626 7.464844 7.535157h.035156c4.125 0 7.476562-3.335938 7.496094-7.464844l.015625-2.722656c.019531-4.140625-3.324219-7.515625-7.464844-7.535157zm0 0"/><path d="m377.820312 114.984375c-.019531 4.140625 3.320313 7.515625 7.460938 7.535156l2.722656.015625h.039063c4.125 0 7.480469-3.332031 7.5-7.460937.019531-4.144531-3.320313-7.519531-7.464844-7.539063l-2.71875-.015625c-.015625 0-.027344 0-.039063 0-4.125 0-7.480468 3.335938-7.5 7.464844zm0 0"/><path d="m350.117188 114.902344c-.023438 4.140625 3.320312 7.515625 7.464843 7.53125l2.71875.015625h.039063c4.125 0 7.476562-3.335938 7.496094-7.464844.019531-4.144531-3.320313-7.515625-7.464844-7.535156l-2.71875-.011719c-.015625 0-.023438 0-.039063 0-4.125 0-7.476562 3.332031-7.496093 7.464844zm0 0"/><path d="m22.714844 346.019531h.035156c4.125 0 7.480469-3.332031 7.5-7.464843l.011719-2.71875c.019531-4.144532-3.324219-7.515626-7.464844-7.535157-.011719 0-.023437 0-.035156 0-4.125 0-7.480469 3.332031-7.5 7.464844l-.011719 2.71875c-.019531 4.144531 3.320312 7.519531 7.464844 7.535156zm0 0"/><path d="m22.628906 373.722656h.035156c4.125 0 7.480469-3.332031 7.5-7.464844l.011719-2.71875c.019531-4.144531-3.320312-7.515624-7.464843-7.535156-.011719 0-.023438 0-.035157 0-4.125 0-7.480469 3.332032-7.5 7.464844l-.011719 2.722656c-.019531 4.140625 3.324219 7.515625 7.464844 7.53125zm0 0"/><path d="m27.703125 351.015625c-.019531 4.140625 3.324219 7.515625 7.464844 7.53125l2.722656.015625h.035156c4.125 0 7.480469-3.335938 7.5-7.464844.019531-4.144531-3.324219-7.515625-7.464843-7.535156l-2.722657-.011719c-.011719 0-.023437 0-.035156 0-4.125 0-7.480469 3.332031-7.5 7.464844zm0 0"/><path d="m17.722656 351.015625c.019532-4.144531-3.320312-7.519531-7.460937-7.539063l-2.722657-.015624c-.015624 0-.027343 0-.039062 0-4.125 0-7.4804688 3.335937-7.5 7.464843-.0195312 4.140625 3.320312 7.515625 7.460938 7.535157l2.722656.015624h.039062c4.125 0 7.476563-3.332031 7.5-7.460937zm0 0"/><path d="m403.617188 169.359375h.039062c4.125 0 7.476562-3.335937 7.496094-7.464844l.015625-2.722656c.019531-4.144531-3.324219-7.515625-7.464844-7.535156-.015625 0-.023437 0-.039063 0-4.125 0-7.476562 3.335937-7.496093 7.464843l-.015625 2.722657c-.015625 4.140625 3.324218 7.515625 7.464844 7.535156zm0 0"/><path d="m403.535156 197.0625h.035156c4.125 0 7.476563-3.335938 7.5-7.464844l.011719-2.722656c.019531-4.144531-3.324219-7.515625-7.464843-7.535156-.011719 0-.023438 0-.035157 0-4.125 0-7.480469 3.335937-7.5 7.464844l-.011719 2.722656c-.019531 4.140625 3.320313 7.515625 7.464844 7.535156zm0 0"/><path d="m418.867188 166.898438-2.722657-.015626c-4.117187-.027343-7.515625 3.324219-7.535156 7.464844-.019531 4.144532 3.320313 7.519532 7.464844 7.535156l2.722656.015626h.035156c4.125 0 7.476563-3.335938 7.5-7.464844.015625-4.144532-3.324219-7.515625-7.464843-7.535156zm0 0"/><path d="m398.625 174.351562c.023438-4.144531-3.316406-7.519531-7.460938-7.539062l-2.722656-.015625c-.011718 0-.023437 0-.039062 0-4.121094 0-7.476563 3.335937-7.496094 7.464844-.023438 4.140625 3.320312 7.515625 7.460938 7.535156l2.722656.015625h.039062c4.121094 0 7.476563-3.332031 7.496094-7.460938zm0 0"/></svg>