<svg height="512pt" viewBox="-1 0 511 512" width="512pt" xmlns="http://www.w3.org/2000/svg"><path d="m484.707031 292c4.3125-16.394531 6.621094-33.597656 6.621094-51.332031 0-24.167969-4.234375-47.820313-12.59375-70.308594-1.445313-3.882813-5.761719-5.859375-9.644531-4.417969-3.886719 1.445313-5.863282 5.765625-4.417969 9.648438 4.703125 12.660156 7.988281 25.726562 9.847656 39.054687-45.007812 21.832031-110.105469 34.679688-179.460937 35.324219-4.144532.039062-7.472656 3.425781-7.433594 7.570312.039062 4.121094 3.390625 7.433594 7.5 7.433594h.070312c68.976563-.640625 134.164063-13.128906 180.847657-34.460937.179687 3.375.28125 6.761719.28125 10.15625 0 27.648437-6.042969 53.910156-16.867188 77.542969-.074219.039062-.152343.066406-.226562.105468-18.398438 9.863282-40.488281 17.929688-65.652344 23.980469-4.027344.96875-6.507813 5.019531-5.539063 9.046875.824219 3.441406 3.898438 5.753906 7.285157 5.753906.582031 0 1.171875-.070312 1.761719-.210937 18.296874-4.398438 35.089843-9.84375 50.179687-16.253907-4.472656 7.03125-9.402344 13.742188-14.746094 20.09375-.003906.003907-.011719.003907-.015625.007813-41.738281 14.972656-91.1875 22.882813-143.003906 22.882813-29.960938 0-59.15625-2.648438-86.851562-7.871094-.660157-5.109375-1.710938-10.136719-3.136719-15.054688 28.457031 5.511719 58.667969 8.304688 89.988281 8.304688 18.792969 0 37.488281-1.035156 55.570312-3.074219 4.117188-.464844 7.078126-4.175781 6.617188-8.292969-.464844-4.117187-4.179688-7.078125-8.296875-6.617187-17.527344 1.980469-35.65625 2.980469-53.890625 2.980469-33.835938 0-66.285156-3.355469-96.492188-9.964844-2.191406-4.390625-4.707031-8.644532-7.554687-12.722656-10.726563-15.355469-25.308594-27.292969-42.359375-34.710938l-1.730469-8.957031c-1.589843-8.21875-8.820312-14.179688-17.1875-14.179688h-18.632812c-1.902344-10.765625-2.867188-21.773437-2.867188-32.785156 0-41.394531 13.539063-79.675781 36.410157-110.675781 43.792968 13.632812 95.695312 20.851562 150.414062 20.851562 54.707031 0 106.667969-7.222656 150.480469-20.867187 4.058593 5.503906 7.839843 11.222656 11.277343 17.160156 2.082032 3.585937 6.671876 4.808594 10.253907 2.730469 3.585937-2.078125 4.808593-6.667969 2.730469-10.253906-17.4375-30.089844-42.496094-55.324219-72.460938-72.976563-30.882812-18.1875-66.25-27.800781-102.28125-27.800781-20.019531 0-39.367188 2.945312-57.636719 8.398437-14.714843-28.84375-44.46875-47.238281-77.097656-47.238281-15.890625 0-31.429687 4.347656-44.941406 12.574219-3.539063 2.15625-4.660157 6.769531-2.503907 10.308593 2.15625 3.539063 6.769532 4.664063 10.308594 2.507813 11.160156-6.796875 24-10.386719 37.136719-10.386719 26.242187 0 50.230469 14.394532 62.714844 37.128906-44.976563 17.234376-82.265625 50.117188-105.164063 91.957032-18.308594-13.460938-29.070312-34.550782-29.070312-57.566406 0-14.695313 4.4375-28.824219 12.835937-40.859376 2.371094-3.398437 1.539063-8.074218-1.859375-10.445312-3.398437-2.371094-8.074218-1.535156-10.445312 1.859375-10.164063 14.566406-15.539063 31.664063-15.539063 49.445313 0 28.722656 13.851563 54.964843 37.289063 71.15625-11.46875 25.328124-17.859375 53.425781-17.859375 82.988281 0 11 .90625 21.992187 2.667969 32.785156h-8.601563c-8.367187 0-15.597656 5.964844-17.1875 14.179687l-1.734375 8.957032c-10.21875 4.453125-19.574219 10.546875-27.855469 18.152344-3.050781 2.800781-3.253906 7.546874-.449219 10.597656 2.800782 3.054687 7.546876 3.253906 10.597657.453125 7.9375-7.289063 17.023437-12.941407 27.011719-16.804688 2.410156-.933593 4.167968-3.035156 4.660156-5.570312l2.503906-12.933594c.226562-1.171875 1.257812-2.023437 2.453125-2.023437h42.441406c1.195313 0 2.226563.851562 2.453125 2.023437l2.503906 12.933594c.488282 2.535156 2.25 4.636719 4.660157 5.570312 15.929687 6.160157 29.539062 16.847657 39.355469 30.90625 10.042968 14.375 15.347656 31.277344 15.347656 48.882813 0 13.347656-3.007813 26.15625-8.9375 38.066406-1.207032 2.421875-1.015625 5.304688.5 7.542969l10.890625 16.121093c.667969.992188.539062 2.324219-.304688 3.167969l-25.152343 25.152344c-.847657.847656-2.179688.972656-3.167969.304687l-17.210938-11.628906c-2.148437-1.453125-4.898437-1.691406-7.265625-.632812-11.039062 4.941406-22.777344 7.445312-34.894531 7.445312-16.609375 0-32.730469-4.785156-46.625-13.839844-2.226563-1.449218-5.058594-1.613281-7.441406-.429687l-18.277344 9.105469c-1.003906.5-2.226563.265625-2.976563-.570313l-11.5-12.816406c-.75-.835937-.847656-2.078125-.246093-3.023437l10.867187-16.933594c1.453125-2.265625 1.582032-5.136719.335938-7.523438-6.421875-12.300781-9.679688-25.59375-9.679688-39.511718 0-13.753907 3.179688-26.902344 9.453125-39.074219 1.894531-3.679688.449219-8.207031-3.234375-10.101563-3.683594-1.898437-8.210937-.449218-10.105468 3.234375-7.375 14.316407-11.117188 29.773438-11.117188 45.941407 0 14.652343 3.25 29.253906 9.429688 42.5l-8.578126 13.367187c-4.234374 6.605469-3.535156 15.300781 1.707032 21.140625l11.5 12.820312c5.242187 5.839844 13.808594 7.480469 20.835937 3.980469l14.53125-7.238281c15.46875 9.15625 33.050781 13.976562 51.121094 13.976562 12.828125 0 25.296875-2.386718 37.132813-7.105468l13.835937 9.347656c2.976563 2.011719 6.390625 2.996094 9.789063 2.996094 4.519531 0 9.011718-1.742188 12.390624-5.121094l25.152344-25.152344c5.917969-5.917968 6.8125-15.246094 2.125-22.175781l-8.5-12.585937c1.28125-2.882813 2.417969-5.8125 3.414063-8.777344 28.109375 14.242187 59.480469 21.753906 91.207031 21.753906 30.097656 0 58.667969-6.632812 84.351562-18.496094 14.609376 10.289063 31.738282 15.726563 49.730469 15.726563 47.710938 0 86.527344-38.816407 86.527344-86.523438 0-23.234375-9.019531-44.867187-25.402344-61.207031zm-100.546875-212.433594c17.171875 10.113282 32.59375 22.921875 45.6875 37.816406-41.175781 12.085938-89.496094 18.457032-140.347656 18.457032-50.859375 0-99.113281-6.363282-140.265625-18.4375 3.761719-4.273438 7.710937-8.378906 11.84375-12.296875 38.261719 11.230469 82.585937 17.175781 128.421875 17.175781 30.066406 0 59.363281-2.523438 87.066406-7.496094 4.078125-.730468 6.792969-4.632812 6.058594-8.710937-.730469-4.078125-4.628906-6.789063-8.707031-6.058594-26.835938 4.816406-55.238281 7.261719-84.417969 7.261719-40.683594 0-80.058594-4.8125-114.75-13.941406 31.691406-24.734376 71.527344-39.492188 114.75-39.492188 33.355469 0 66.089844 8.894531 94.660156 25.722656zm-182.097656 326.222656c.820312-4.804687 1.292969-9.6875 1.40625-14.636718 27.535156 4.953125 56.429688 7.46875 86.03125 7.46875 42.476562 0 83.472656-5.195313 120.257812-15.101563-32.519531 27.421875-74.488281 43.976563-120.257812 43.976563-30.515625 0-60.660156-7.511719-87.4375-21.707032zm221.519531 18.9375c-12.132812 0-23.789062-2.996093-34.226562-8.710937 41.511719-23.734375 73.820312-61.777344 90.179687-107.359375 10.089844 12.597656 15.566406 28.085938 15.566406 44.550781.003907 39.433594-32.082031 71.519531-71.519531 71.519531zm0 0"/><path d="m131.050781 225.6875c-3.90625-1.390625-8.195312.648438-9.585937 4.550781-1.386719 3.90625.652344 8.195313 4.554687 9.585938 20.609375 7.332031 43.683594 13.199219 68.574219 17.4375.425781.070312.851562.105469 1.269531.105469 3.589844 0 6.761719-2.585938 7.386719-6.242188.695312-4.085938-2.050781-7.960938-6.136719-8.65625-24.039062-4.09375-46.269531-9.738281-66.0625-16.78125zm0 0"/><path d="m58.402344 414.195312c0 17.195313 13.988281 31.179688 31.183594 31.179688 17.191406 0 31.179687-13.984375 31.179687-31.179688 0-17.195312-13.988281-31.179687-31.179687-31.179687-17.195313 0-31.183594 13.984375-31.183594 31.179687zm31.183594-16.175781c8.917968 0 16.175781 7.253907 16.175781 16.175781 0 8.917969-7.257813 16.175782-16.175781 16.175782-8.921876 0-16.175782-7.257813-16.175782-16.175782 0-8.921874 7.253906-16.175781 16.175782-16.175781zm0 0"/><path d="m105.761719 355.027344c0 11.859375 9.648437 21.503906 21.507812 21.503906 11.855469 0 21.503907-9.644531 21.503907-21.503906s-9.648438-21.507813-21.503907-21.507813c-11.859375 0-21.507812 9.648438-21.507812 21.507813zm21.503906-6.503906c3.585937 0 6.503906 2.917968 6.503906 6.503906 0 3.585937-2.917969 6.5-6.503906 6.5-3.582031 0-6.5-2.914063-6.5-6.5 0-3.585938 2.917969-6.503906 6.5-6.503906zm0 0"/><path d="m159.808594 392.964844h.148437.023438c4.132812 0 7.488281-3.34375 7.503906-7.476563.015625-4.144531-3.332031-7.515625-7.476563-7.527343h-.148437c-.007813 0-.015625 0-.023437 0-4.132813 0-7.488282 3.339843-7.503907 7.476562-.011719 4.140625 3.335938 7.511719 7.476563 7.527344zm0 0"/><path d="m46.542969 386.542969h.144531.023438c4.132812 0 7.488281-3.339844 7.503906-7.476563.015625-4.144531-3.335938-7.511718-7.476563-7.527344h-.148437c-.007813 0-.015625 0-.023438 0-4.132812 0-7.488281 3.34375-7.503906 7.476563-.011719 4.144531 3.335938 7.515625 7.480469 7.527344zm0 0"/><path d="m42.515625 144.4375-.015625 3.246094c-.019531 4.144531 3.324219 7.519531 7.464844 7.539062h.039062c4.125 0 7.480469-3.335937 7.5-7.46875l.015625-3.246094c.019531-4.140624-3.320312-7.515624-7.464843-7.539062-.011719 0-.023438 0-.039063 0-4.125 0-7.480469 3.335938-7.5 7.46875zm0 0"/><path d="m49.902344 188.277344c4.125 0 7.480468-3.335938 7.5-7.464844l.015625-3.25c.023437-4.140625-3.320313-7.515625-7.464844-7.539062-.011719 0-.023437 0-.035156 0-4.128907 0-7.484375 3.335937-7.503907 7.46875l-.015624 3.246093c-.019532 4.144531 3.324218 7.519531 7.46875 7.539063zm0 0"/><path d="m64.828125 170.167969 3.246094.015625h.039062c4.125 0 7.480469-3.332032 7.5-7.464844.019531-4.144531-3.324219-7.519531-7.464843-7.539062l-3.246094-.015626c-.011719 0-.027344 0-.039063 0-4.125 0-7.480469 3.335938-7.5 7.46875-.019531 4.140626 3.320313 7.515626 7.464844 7.535157zm0 0"/><path d="m24.304688 162.53125c-.019532 4.140625 3.324218 7.515625 7.46875 7.535156l3.246093.015625h.039063c4.125 0 7.480468-3.335937 7.5-7.46875.019531-4.140625-3.324219-7.515625-7.464844-7.535156l-3.25-.015625c-.011719 0-.023438 0-.035156 0-4.128906 0-7.484375 3.335938-7.503906 7.46875zm0 0"/><path d="m267.953125 478.945312h.035156c4.125 0 7.480469-3.335937 7.5-7.46875l.015625-3.246093c.019532-4.144531-3.324218-7.519531-7.46875-7.539063-.011718 0-.023437 0-.035156 0-4.125 0-7.480469 3.335938-7.5 7.46875l-.015625 3.246094c-.019531 4.144531 3.324219 7.519531 7.46875 7.539062zm0 0"/><path d="m267.933594 493.746094c-.011719 0-.023438 0-.035156 0-4.125 0-7.480469 3.335937-7.5 7.46875l-.015626 3.246094c-.019531 4.144531 3.324219 7.519531 7.464844 7.539062h.039063c4.125 0 7.480469-3.335938 7.5-7.46875l.015625-3.246094c.019531-4.140625-3.324219-7.515625-7.46875-7.539062zm0 0"/><path d="m286.128906 478.902344-3.246094-.015625c-.011718 0-.023437 0-.035156 0-4.128906 0-7.484375 3.335937-7.503906 7.46875-.019531 4.140625 3.324219 7.515625 7.46875 7.535156l3.246094.015625h.035156c4.128906 0 7.480469-3.335938 7.503906-7.464844.019532-4.144531-3.324218-7.519531-7.46875-7.539062zm0 0"/><path d="m253.074219 478.800781-3.246094-.015625c-.015625 0-.027344 0-.039063 0-4.125 0-7.480468 3.335938-7.5 7.46875-.019531 4.140625 3.324219 7.515625 7.46875 7.535156l3.246094.015626h.035156c4.128907 0 7.484376-3.335938 7.503907-7.46875.015625-4.140626-3.324219-7.515626-7.46875-7.535157zm0 0"/><path d="m40.617188 76.148438h.117187.035156c4.125 0 7.484375-3.335938 7.5-7.46875.015625-4.144532-3.328125-7.515626-7.472656-7.535157h-.113281c-.011719 0-.023438 0-.035156 0-4.125 0-7.484376 3.339844-7.5 7.472657-.015626 4.144531 3.328124 7.515624 7.46875 7.53125zm0 0"/><path d="m371.398438 449.585938h-.117188c-4.148438-.007813-7.515625 3.328124-7.535156 7.472656-.015625 4.144531 3.328125 7.515625 7.472656 7.53125h.117188.03125c4.128906 0 7.484374-3.335938 7.503906-7.46875.015625-4.144532-3.332032-7.515625-7.472656-7.535156zm0 0"/><path d="m20.371094 95.921875h.117187.03125c4.128907 0 7.484375-3.335937 7.503907-7.46875.015624-4.144531-3.328126-7.515625-7.472657-7.535156h-.117187c-.011719 0-.019532 0-.03125 0-4.128906 0-7.484375 3.339843-7.503906 7.472656-.015626 4.144531 3.328124 7.515625 7.472656 7.53125zm0 0"/><path d="m42.457031 264.140625c2.9375-2.921875 2.949219-7.671875.027344-10.609375l-8.390625-8.441406c-2.921875-2.9375-7.671875-2.949219-10.609375-.03125-2.9375 2.921875-2.953125 7.671875-.03125 10.609375l8.390625 8.441406c1.46875 1.476563 3.394531 2.214844 5.320312 2.214844 1.914063 0 3.828126-.726563 5.292969-2.183594zm0 0"/><path d="m7.15625 286.679688 11.488281 3.113281c.65625.175781 1.316407.261719 1.96875.261719 3.304688 0 6.332031-2.199219 7.234375-5.542969 1.085938-3.996094-1.277344-8.117188-5.277344-9.203125l-11.488281-3.113282c-4-1.082031-8.117187 1.28125-9.203125 5.277344-1.082031 4 1.28125 8.121094 5.277344 9.207032zm0 0"/><path d="m53.738281 244.320312c.890625 3.363282 3.925781 5.585938 7.25 5.585938.632813 0 1.28125-.082031 1.925781-.253906 4.003907-1.058594 6.390626-5.167969 5.328126-9.171875l-3.046876-11.503907c-1.058593-4.007812-5.164062-6.394531-9.171874-5.332031-4.003907 1.058594-6.390626 5.167969-5.332032 9.171875zm0 0"/><path d="m27.226562 442.882812c-3.25 2.574219-3.800781 7.292969-1.226562 10.539063l3.25 4.105469c1.480469 1.871094 3.671875 2.847656 5.886719 2.847656 1.628906 0 3.273437-.527344 4.652343-1.621094 3.246094-2.570312 3.796876-7.289062 1.226563-10.539062l-3.25-4.105469c-2.574219-3.246094-7.289063-3.796875-10.539063-1.226563zm0 0"/><path d="m153.894531 462.957031c1.46875 1.511719 3.421875 2.269531 5.378907 2.269531 1.882812 0 3.773437-.707031 5.230468-2.125l12.335938-12.003906c2.96875-2.890625 3.035156-7.640625.144531-10.609375-2.886719-2.96875-7.636719-3.03125-10.605469-.144531l-12.339844 12.003906c-2.96875 2.890625-3.035156 7.640625-.144531 10.609375zm0 0"/><path d="m111.664062 293.84375h-17.746093c-4.140625 0-7.5 3.359375-7.5 7.503906 0 4.140625 3.359375 7.5 7.5 7.5h17.746093c4.140626 0 7.5-3.359375 7.5-7.5 0-4.144531-3.359374-7.503906-7.5-7.503906zm0 0"/></svg>