<svg height="512pt" viewBox="0 0 512 512.0002" width="512pt" xmlns="http://www.w3.org/2000/svg"><path d="m133.15625 415.117188c-11.242188-8.671876-21.597656-18.5625-30.773438-29.398438-7.828124-9.242188-14.804687-19.171875-20.824218-29.625h49.808594c4.410156 0 8.726562-1.789062 11.847656-4.910156l16.1875-16.199219c3.171875-3.15625 4.921875-7.367187 4.921875-11.859375v-24.976562c0-9.238282-7.515625-16.753907-16.753907-16.753907h-41.394531c-.964843 0-1.753906-.785156-1.753906-1.753906v-33.753906c0-.597657.296875-1.144531.792969-1.46875l30.136718-19.792969c.277344-.183594.597657-.277344.9375-.277344h37.972657c25.96875 0 47.09375 21.125 47.09375 47.089844v36.445312c0 4.492188 1.746093 8.703126 4.90625 11.847657l21.921875 21.929687c.332031.332032.515625.773438.515625 1.242188v27.683594c0 4.457031 1.738281 8.660156 4.910156 11.847656l14.21875 14.21875c.316406.316406.5.761718.5 1.226562v58.5625c-4.175781.257813-8.386719.402344-12.601563.402344-33.386718 0-66.445312-8.355469-95.601562-24.167969-3.640625-1.972656-8.191406-.621093-10.167969 3.019531-1.972656 3.640626-.625 8.191407 3.019531 10.167969 31.34375 17 66.875 25.980469 102.75 25.980469 6.988282 0 13.996094-.332031 20.8125-.992188 50.351563-4.816406 97.667969-27.421874 133.234376-63.660156 39.851562-40.59375 61.796874-94.289062 61.796874-151.191406 0-43.429688-12.703124-84.9375-36.824218-120.621094 25.207031-5.035156 44.257812-27.328125 44.257812-53.992187 0-30.363281-24.703125-55.0625-55.0625-55.0625-27.375 0-50.136718 20.078125-54.355468 46.277343-28.644532-17.796874-61.214844-28.679687-94.878907-31.617187-4.128906-.367187-7.761719 2.695313-8.121093 6.820313-.359376 4.125 2.691406 7.761718 6.820312 8.125 34.492188 3.003906 67.75 14.992187 96.25 34.652343 4.007812 23.714844 23.214844 42.3125 47.222656 45.402344.160156.289063.335938.574219.539063.851563 25.613281 34.695312 39.152343 75.902343 39.152343 119.164062 0 46.46875-15.730468 90.632812-44.648437 126.285156v-57.703125c0-4.476562-1.742187-8.683593-4.90625-11.847656l-19.832031-19.832031c-3.164063-3.164063-7.371094-4.90625-11.847656-4.90625h-71.546876c-.964843 0-1.753906-.789063-1.753906-1.753906v-55.910157c0-4.140625-3.355468-7.5-7.5-7.5-4.140625 0-7.5 3.359375-7.5 7.5v55.910157c0 9.238281 7.515625 16.753906 16.753906 16.753906h71.546876c.46875 0 .910156.179687 1.242187.511718l19.832031 19.832032c.324219.328125.511719.777344.511719 1.242187v74.242188c-30.871094 30.515625-70.835937 50.234375-113.597656 56.132812v-57.078125c0-4.425781-1.792969-8.75-4.90625-11.847656l-14.191407-14.1875c-.335937-.339844-.527343-.796875-.527343-1.253906v-27.6875c0-4.472656-1.746094-8.679688-4.910157-11.84375l-21.9375-21.945313c-.320312-.324219-.5-.757812-.5-1.226562v-36.445313c0-34.238281-27.851562-62.09375-62.089843-62.09375h-37.972657c-3.292968 0-6.484374.960938-9.199218 2.757813l-30.105469 19.773437c-4.734375 3.105469-7.558594 8.34375-7.558594 14.007813v33.757812c0 9.238281 7.515625 16.753907 16.75 16.753907h41.394531c.964844 0 1.753907.785156 1.753907 1.753906v24.976562c0 .46875-.179688.902344-.515625 1.238282l-16.203125 16.210937c-.328125.328125-.777344.515625-1.238281.515625h-57.613282c-12.515625-26.683594-18.871094-55.28125-18.871094-85.09375 0-40.414062 11.949219-79.378906 34.554688-112.675781 19.933594-29.355469 46.953125-52.710938 78.605469-68.070313v30.417969c0 4.476563 1.742187 8.683594 4.90625 11.847656l28.984375 28.984375c3.164062 3.164063 7.371094 4.90625 11.847656 4.90625h49.335938c.46875 0 .910156.183594 1.242187.515625l22.160156 22.164063c.332031.332031.515625.769531.515625 1.238281v22.339844c0 4.144531 3.359375 7.5 7.5 7.5 4.144532 0 7.5-3.355469 7.5-7.5v-22.339844c0-4.472656-1.742187-8.679687-4.90625-11.84375l-22.164062-22.167969c-3.167969-3.164062-7.375-4.90625-11.847656-4.90625h-49.335938c-.46875 0-.910156-.179687-1.242188-.511718l-28.980468-28.984376c-.328125-.328124-.515625-.78125-.515625-1.242187v-36.957031c18.804687-7.300782 38.578125-11.699219 58.859375-13.078125 4.132812-.28125 7.257812-3.859375 6.976562-7.992188-.28125-4.132812-3.855468-7.257812-7.992187-6.972656-23.589844 1.601563-46.546875 7.003906-68.238281 16.050781-38.835938 16.207032-71.902344 43.238282-95.621094 78.171875-24.300782 35.792969-37.148438 77.671875-37.148438 121.105469 0 33.699219 7.550782 65.972656 22.433594 95.921875 7.71875 15.550781 17.347656 30.183594 28.625 43.492187 9.855469 11.636719 20.976562 22.261719 33.054688 31.582032 1.363281 1.050781 2.976562 1.558594 4.574218 1.558594 2.246094 0 4.46875-1.003907 5.945313-2.917969 2.53125-3.277344 1.921875-7.988281-1.355469-10.519531zm330.375-339.882813c-4.660156-2.75-7.808594-7.8125-7.808594-13.589844 0-1.347656.175782-2.671875.503906-3.945312 3.730469 5.074219 6.300782 11.046875 7.304688 17.535156zm-39.589844-33.914063c7.484375 0 14.492188 2.070313 20.496094 5.65625-2.421875 4.457032-3.714844 9.464844-3.714844 14.667969 0 13.914063 9.335938 25.730469 22.070313 29.507813-4.183594 16.636718-18.796875 29.171875-36.453125 30.21875 1.582031-4.34375 2.421875-8.960938 2.421875-13.628906 0-21.929688-17.839844-39.769532-39.769531-39.769532-.953126 0-1.898438.046875-2.839844.113282 5.5-15.574219 20.359375-26.765626 37.789062-26.765626zm-40.011718 42.167969c1.652343-.339843 3.34375-.515625 5.0625-.515625 13.660156 0 24.769531 11.113282 24.769531 24.769532 0 4.09375-.984375 8-2.847657 11.523437-15.082031-5.203125-26.121093-19.160156-26.984374-35.777344zm0 0"/><path d="m23.621094 321.097656c-.175782-.625-.347656-1.25-.515625-1.871094-1.085938-4-5.207031-6.359374-9.207031-5.273437-3.996094 1.085937-6.355469 5.207031-5.269532 9.203125.179688.664062.359375 1.324219.546875 1.984375.925781 3.3125 3.9375 5.480469 7.21875 5.480469.667969 0 1.347657-.089844 2.023438-.28125 3.992187-1.117188 6.320312-5.257813 5.203125-9.242188zm0 0"/><path d="m21.976562 171.148438c.910157.359374 1.84375.53125 2.765626.53125 2.984374 0 5.804687-1.792969 6.972656-4.730469.238281-.601563.480468-1.207031.726562-1.804688 1.5625-3.835937-.28125-8.214843-4.121094-9.773437-3.835937-1.5625-8.210937.28125-9.773437 4.117187-.257813.640625-.515625 1.28125-.769531 1.917969-1.53125 3.851562.347656 8.210938 4.199218 9.742188zm0 0"/><path d="m32.5625 146.296875c1.117188.59375 2.320312.875 3.507812.875 2.683594 0 5.285157-1.449219 6.632813-3.988281.300781-.574219.605469-1.144532.914063-1.710938 1.972656-3.644531.617187-8.195312-3.027344-10.164062-3.640625-1.972656-8.191406-.617188-10.164063 3.023437-.328125.609375-.652343 1.214844-.976562 1.824219-1.941407 3.660156-.546875 8.199219 3.113281 10.140625zm0 0"/><path d="m61.496094 100.785156c1.410156 1.203125 3.136718 1.789063 4.859375 1.789063 2.121093 0 4.226562-.894531 5.710937-2.636719.421875-.492188.84375-.984375 1.269532-1.476562 2.707031-3.132813 2.363281-7.871094-.769532-10.578126-3.136718-2.707031-7.871094-2.367187-10.578125.769532-.449219.515625-.894531 1.035156-1.339843 1.558594-2.683594 3.152343-2.304688 7.886718.847656 10.574218zm0 0"/><path d="m45.789062 122.75c1.292969.878906 2.757813 1.296875 4.207032 1.296875 2.402344 0 4.761718-1.152344 6.210937-3.285156.363281-.535157.730469-1.070313 1.097657-1.601563 2.355468-3.40625 1.503906-8.078125-1.90625-10.433594-3.40625-2.355468-8.078126-1.503906-10.433594 1.902344-.390625.566406-.777344 1.136719-1.164063 1.703125-2.328125 3.425781-1.4375 8.09375 1.988281 10.417969zm0 0"/><path d="m14.175781 197.015625c.664063.183594 1.332031.273437 1.992188.273437 3.292969 0 6.3125-2.1875 7.226562-5.515624.171875-.625.347657-1.246094.523438-1.871094 1.132812-3.984375-1.175781-8.128906-5.160157-9.265625-3.984374-1.128907-8.132812 1.179687-9.269531 5.164062-.1875.664063-.375 1.328125-.558593 1.996094-1.09375 3.992187 1.25 8.121094 5.246093 9.21875zm0 0"/><path d="m11.773438 304.179688c4.085937-.675782 6.847656-4.539063 6.171874-8.625-.105468-.636719-.207031-1.273438-.308593-1.910157-.644531-4.09375-4.480469-6.886719-8.574219-6.246093-4.089844.640624-6.886719 4.476562-6.246094 8.570312.109375.679688.21875 1.359375.332032 2.039062.605468 3.671876 3.785156 6.273438 7.390624 6.273438.40625 0 .816407-.03125 1.234376-.101562zm0 0"/><path d="m43.117188 369.542969c-.304688-.566407-.605469-1.132813-.90625-1.703125-1.921876-3.667969-6.457032-5.082032-10.125-3.15625-3.667969 1.925781-5.082032 6.457031-3.15625 10.125.320312.609375.640624 1.214844.964843 1.820312 1.351563 2.523438 3.941407 3.957032 6.617188 3.957032 1.195312 0 2.410156-.285157 3.535156-.890626 3.652344-1.953124 5.027344-6.5 3.070313-10.152343zm0 0"/><path d="m32.042969 345.847656c-.238281-.59375-.476563-1.1875-.710938-1.789062-1.511719-3.855469-5.867187-5.753906-9.71875-4.238282-3.855469 1.511719-5.753906 5.867188-4.242187 9.722657.25.636719.503906 1.273437.761718 1.910156 1.175782 2.925781 3.988282 4.699219 6.957032 4.699219.933594 0 1.882812-.175782 2.800781-.542969 3.84375-1.546875 5.703125-5.917969 4.152344-9.761719zm0 0"/><path d="m8.015625 277.453125c4.136719-.230469 7.304687-3.765625 7.074219-7.902344-.035156-.644531-.066406-1.289062-.097656-1.933593-.195313-4.140626-3.695313-7.355469-7.84375-7.144532-4.136719.195313-7.332032 3.707032-7.1406255 7.84375.03125.6875.0664063 1.375.1054685 2.058594.21875 3.996094 3.527344 7.089844 7.480469 7.089844.140625 0 .28125-.003906.421875-.011719zm0 0"/><path d="m7.183594 250.46875c.132812.007812.265625.007812.398437.007812 3.960938 0 7.273438-3.105468 7.480469-7.105468.03125-.578125.0625-1.15625.097656-1.753906l.011719-.148438c.265625-4.136719-2.867187-7.703125-7-7.96875-4.144531-.277344-7.703125 2.863281-7.96875 7l-.015625.230469c-.035156.621093-.070312 1.238281-.1015625 1.855469-.2187495 4.136718 2.9609375 7.664062 7.0976565 7.882812zm0 0"/><path d="m84.933594 83c1.851562 0 3.703125-.679688 5.152344-2.050781.46875-.445313.941406-.886719 1.417968-1.328125 3.03125-2.820313 3.199219-7.566406.378906-10.601563-2.824218-3.03125-7.570312-3.199219-10.601562-.378906-.5.46875-1 .9375-1.5 1.410156-3.011719 2.84375-3.144531 7.59375-.296875 10.601563 1.476563 1.5625 3.460937 2.347656 5.449219 2.347656zm0 0"/><path d="m308.296875 20.773438c.632813.140624 1.269531.28125 1.898437.429687.566407.128906 1.132813.191406 1.691407.191406 3.414062 0 6.5-2.347656 7.300781-5.816406.929688-4.039063-1.585938-8.0625-5.625-8.992187-.667969-.15625-1.339844-.308594-2.007812-.457032-4.042969-.898437-8.050782 1.652344-8.949219 5.695313-.898438 4.042969 1.648437 8.046875 5.691406 8.949219zm0 0"/><path d="m357.777344 37.605469c.585937.273437 1.175781.550781 1.757812.832031 1.042969.496094 2.140625.730469 3.222656.730469 2.800782 0 5.492188-1.578125 6.777344-4.273438 1.78125-3.738281.195313-8.214843-3.542968-9.996093-.617188-.296876-1.238282-.589844-1.859376-.878907-3.75-1.753906-8.214843-.136719-9.972656 3.617188-1.753906 3.75-.132812 8.214843 3.617188 9.96875zm0 0"/><path d="m470.34375 130.46875c-3.632812 1.984375-4.972656 6.542969-2.984375 10.179688.308594.5625.617187 1.132812.921875 1.703124 1.351562 2.523438 3.941406 3.957032 6.617188 3.957032 1.195312 0 2.40625-.285156 3.535156-.890625 3.652344-1.953125 5.023437-6.5 3.070312-10.148438-.324218-.609375-.652344-1.210937-.980468-1.816406-1.988282-3.632813-6.542969-4.96875-10.179688-2.984375zm0 0"/><path d="m478.636719 164.257812c.25.597657.492187 1.195313.734375 1.792969 1.175781 2.925781 3.988281 4.699219 6.957031 4.699219.933594 0 1.882813-.175781 2.800781-.546875 3.84375-1.546875 5.703125-5.917969 4.152344-9.757813-.253906-.636718-.515625-1.273437-.777344-1.90625-1.578125-3.828124-5.960937-5.652343-9.792968-4.074218-3.828126 1.578125-5.652344 5.964844-4.074219 9.792968zm0 0"/><path d="m333.5 27.832031c.613281.210938 1.226562.421875 1.839844.636719.816406.285156 1.652344.417969 2.46875.417969 3.101562 0 6.003906-1.9375 7.082031-5.03125 1.363281-3.914063-.699219-8.1875-4.613281-9.550781-.644532-.226563-1.292969-.449219-1.945313-.671876-3.917969-1.335937-8.179687.761719-9.515625 4.683594-1.335937 3.921875.761719 8.179688 4.683594 9.515625zm0 0"/><path d="m487.277344 188.953125c.179687.617187.355468 1.238281.53125 1.859375.929687 3.3125 3.9375 5.476562 7.21875 5.476562.667968 0 1.351562-.09375 2.03125-.28125 3.988281-1.121093 6.3125-5.261718 5.191406-9.25-.183594-.660156-.375-1.320312-.5625-1.976562-1.152344-3.980469-5.308594-6.273438-9.289062-5.121094-3.980469 1.152344-6.273438 5.3125-5.121094 9.292969zm0 0"/><path d="m55.609375 390.308594c-2.308594-3.4375-6.96875-4.351563-10.40625-2.042969s-4.355469 6.96875-2.042969 10.40625c.382813.570313.769532 1.140625 1.15625 1.710937 1.453125 2.121094 3.804688 3.261719 6.195313 3.261719 1.460937 0 2.933593-.425781 4.230469-1.3125 3.417968-2.339843 4.292968-7.007812 1.953124-10.421875-.363281-.535156-.726562-1.066406-1.085937-1.601562zm0 0"/><path d="m503.253906 232.457031c-4.132812.261719-7.273437 3.824219-7.011718 7.960938.042968.644531.078124 1.289062.117187 1.933593.222656 3.996094 3.53125 7.082032 7.480469 7.082032.140625 0 .28125-.003906.421875-.011719 4.136719-.230469 7.300781-3.769531 7.070312-7.90625-.035156-.679687-.078125-1.363281-.121093-2.046875-.261719-4.132812-3.820313-7.265625-7.957032-7.011719zm0 0"/><path d="m499.269531 205.765625c-4.082031.710937-6.8125 4.59375-6.101562 8.675781.109375.632813.21875 1.269532.324219 1.90625.609374 3.671875 3.785156 6.273438 7.390624 6.273438.40625 0 .820313-.03125 1.234376-.101563 4.085937-.675781 6.847656-4.539062 6.171874-8.625-.113281-.679687-.226562-1.355469-.34375-2.03125-.710937-4.078125-4.59375-6.804687-8.675781-6.097656zm0 0"/><path d="m282.46875 16.488281c.644531.070313 1.292969.144531 1.9375.222657.300781.035156.597656.050781.890625.050781 3.75 0 6.984375-2.804688 7.4375-6.617188.488281-4.113281-2.453125-7.84375-6.5625-8.332031-.683594-.078125-1.367187-.15625-2.046875-.234375-4.125-.460937-7.828125 2.511719-8.28125 6.628906-.457031 4.117188 2.507812 7.824219 6.625 8.28125zm0 0"/><path d="m151.679688 37.789062c1.054687 0 2.121093-.222656 3.140624-.691406.585938-.269531 1.171876-.539062 1.757813-.804687 3.773437-1.703125 5.453125-6.148438 3.75-9.921875-1.707031-3.773438-6.148437-5.453125-9.921875-3.746094-.628906.28125-1.25.566406-1.875.855469-3.757812 1.734375-5.398438 6.191406-3.664062 9.953125 1.265624 2.742187 3.980468 4.355468 6.8125 4.355468zm0 0"/><path d="m127.847656 50.414062c1.316406 0 2.648438-.347656 3.855469-1.074218.554687-.332032 1.109375-.660156 1.664063-.988282 3.566406-2.105468 4.753906-6.703124 2.648437-10.269531-2.101563-3.570312-6.703125-4.753906-10.269531-2.652343-.589844.347656-1.179688.699218-1.769532 1.054687-3.550781 2.132813-4.695312 6.742187-2.5625 10.292969 1.40625 2.339844 3.890626 3.636718 6.433594 3.636718zm0 0"/><path d="m176.746094 27.824219c.789062 0 1.597656-.125 2.386718-.390625.613282-.207032 1.226563-.40625 1.839844-.609375 3.9375-1.285157 6.085938-5.519531 4.800782-9.457031-1.285157-3.9375-5.519532-6.085938-9.457032-4.800782-.652344.210938-1.304687.429688-1.957031.644532-3.925781 1.320312-6.042969 5.570312-4.722656 9.5 1.050781 3.132812 3.976562 5.113281 7.109375 5.113281zm0 0"/><path d="m202.753906 20.65625c.527344 0 1.0625-.058594 1.601563-.175781.628906-.136719 1.257812-.269531 1.890625-.402344 4.054687-.84375 6.65625-4.816406 5.808594-8.875-.84375-4.054687-4.816407-6.652344-8.871094-5.808594-.675782.140625-1.347656.285157-2.019532.429688-4.046874.882812-6.613281 4.878906-5.730468 8.925781.761718 3.507812 3.867187 5.90625 7.320312 5.90625zm0 0"/><path d="m256.320312 15c.648438 0 1.296876.007812 1.945313.015625h.082031c4.105469 0 7.453125-3.304687 7.5-7.417969.042969-4.140625-3.277344-7.5390622-7.417968-7.582031-.6875-.0078125-1.371094-.01171875-2.054688-.015625-4.1875-.03125-7.511719 3.332031-7.527344 7.472656s3.332032 7.511719 7.472656 7.527344zm0 0"/><path d="m229.390625 16.367188c.261719 0 .527344-.015626.796875-.042969.640625-.066407 1.28125-.132813 1.925781-.195313 4.121094-.398437 7.140625-4.066406 6.738281-8.1875-.402343-4.125-4.066406-7.144531-8.191406-6.742187-.683594.066406-1.367187.136719-2.046875.210937-4.121093.433594-7.105469 4.125-6.671875 8.246094.40625 3.847656 3.660156 6.710938 7.449219 6.710938zm0 0"/><path d="m105.515625 65.542969c1.578125 0 3.171875-.496094 4.527344-1.527344.515625-.390625 1.035156-.777344 1.550781-1.167969 3.320312-2.476562 3.996094-7.179687 1.519531-10.496094-2.480469-3.316406-7.179687-3.996093-10.5-1.515624-.546875.410156-1.097656.820312-1.640625 1.238281-3.300781 2.503906-3.941406 7.207031-1.4375 10.507812 1.476563 1.941407 3.714844 2.960938 5.980469 2.960938zm0 0"/><path d="m9.238281 223.554688c.402344.066406.804688.097656 1.199219.097656 3.617188 0 6.804688-2.625 7.394531-6.3125.105469-.636719.210938-1.273438.316407-1.90625.695312-4.085938-2.054688-7.957032-6.136719-8.652344-4.085938-.6875-7.957031 2.058594-8.652344 6.140625-.113281.679687-.226563 1.355469-.335937 2.035156-.65625 4.089844 2.125 7.941407 6.214843 8.597657zm0 0"/><path d="m381.488281 461.605469c-.546875.335937-1.097656.671875-1.652343 1.003906-3.550782 2.132813-4.695313 6.742187-2.5625 10.289063 1.410156 2.339843 3.890624 3.636718 6.4375 3.636718 1.3125 0 2.648437-.34375 3.855468-1.074218.589844-.351563 1.179688-.710938 1.765625-1.070313 3.53125-2.164063 4.636719-6.78125 2.472657-10.3125-2.167969-3.53125-6.785157-4.636719-10.316407-2.472656zm0 0"/><path d="m403.03125 446.742188c-.511719.394531-1.023438.789062-1.539062 1.179687-3.296876 2.507813-3.9375 7.210937-1.429688 10.507813 1.476562 1.941406 3.710938 2.960937 5.972656 2.960937 1.585938 0 3.179688-.5 4.535156-1.53125.546876-.414063 1.089844-.832031 1.632813-1.25 3.277344-2.535156 3.878906-7.246094 1.347656-10.523437-2.53125-3.273438-7.242187-3.878907-10.519531-1.34375zm0 0"/><path d="m71.359375 411.199219c-2.671875-3.164063-7.402344-3.570313-10.570313-.898438-3.167968 2.667969-3.570312 7.402344-.898437 10.566407.441406.523437.882813 1.046874 1.328125 1.566406 1.484375 1.734375 3.585938 2.625 5.703125 2.625 1.726563 0 3.457031-.59375 4.871094-1.800782 3.148437-2.691406 3.515625-7.425781.824219-10.574218-.421876-.492188-.839844-.988282-1.257813-1.484375zm0 0"/><path d="m283.300781 495.453125c-.636719.074219-1.277343.144531-1.917969.210937-4.121093.433594-7.105468 4.125-6.671874 8.246094.410156 3.851563 3.664062 6.710938 7.449218 6.710938.265625 0 .53125-.011719.796875-.039063.683594-.074219 1.363281-.148437 2.042969-.226562 4.113281-.46875 7.070312-4.1875 6.601562-8.300781-.46875-4.113282-4.1875-7.078126-8.300781-6.601563zm0 0"/><path d="m422.847656 429.640625c-.464844.449219-.933594.894531-1.402344 1.335937-3.007812 2.847657-3.140624 7.59375-.292968 10.605469 1.476562 1.558594 3.460937 2.34375 5.449218 2.34375 1.851563 0 3.703126-.683593 5.152344-2.054687.5-.472656.996094-.945313 1.492188-1.421875 2.984375-2.875 3.078125-7.621094.203125-10.605469-2.871094-2.984375-7.617188-3.078125-10.601563-.203125zm0 0"/><path d="m334.242188 483.914062c-.609376.210938-1.222657.417969-1.835938.625-3.925781 1.320313-6.039062 5.574219-4.71875 9.5 1.054688 3.132813 3.976562 5.109376 7.109375 5.109376.792969 0 1.597656-.125 2.390625-.394532.648438-.21875 1.296875-.4375 1.945312-.660156 3.914063-1.351562 5.996094-5.621094 4.644532-9.535156-1.351563-3.914063-5.617188-5.996094-9.535156-4.644532zm0 0"/><path d="m309.085938 491.078125c-.628907.144531-1.253907.28125-1.886719.417969-4.046875.882812-6.613281 4.878906-5.730469 8.925781.765625 3.507813 3.871094 5.90625 7.320312 5.90625.53125 0 1.066407-.058594 1.601563-.171875.671875-.148438 1.34375-.296875 2.011719-.449219 4.039062-.914062 6.570312-4.929687 5.65625-8.96875-.917969-4.042969-4.9375-6.574219-8.972656-5.660156zm0 0"/><path d="m504.3125 259.429688c-4.125-.171876-7.640625 3.023437-7.824219 7.164062-.027343.644531-.058593 1.292969-.09375 1.9375-.214843 4.136719 2.964844 7.664062 7.101563 7.878906.132812.007813.265625.011719.394531.011719 3.964844 0 7.277344-3.109375 7.484375-7.113281.035156-.683594.070312-1.371094.097656-2.054688.183594-4.136718-3.023437-7.640625-7.160156-7.824218zm0 0"/><path d="m451.269531 409.558594c-3.175781-2.65625-7.90625-2.238282-10.566406.9375-.414063.5-.832031.992187-1.25 1.488281-2.683594 3.152344-2.300781 7.886719.855469 10.570313 1.410156 1.199218 3.136718 1.785156 4.855468 1.785156 2.121094 0 4.234376-.894532 5.71875-2.640625.441407-.523438.886719-1.046875 1.324219-1.574219 2.660157-3.175781 2.238281-7.90625-.9375-10.566406zm0 0"/><path d="m497.765625 312.964844c-4.003906-1.066406-8.113281 1.308594-9.179687 5.3125-.167969.628906-.335938 1.257812-.507813 1.882812-1.097656 3.996094 1.25 8.121094 5.246094 9.21875.664062.183594 1.332031.269532 1.988281.269532 3.296875 0 6.316406-2.1875 7.230469-5.515626.179687-.664062.359375-1.328124.539062-1.992187 1.066407-4-1.316406-8.109375-5.316406-9.175781zm0 0"/><path d="m257.222656 496.996094c-.011718 0-.023437 0-.035156 0l-1.230469.003906h-.71875c-.007812 0-.011719 0-.015625 0-4.136718 0-7.492187 3.347656-7.5 7.484375-.007812 4.144531 3.339844 7.507813 7.484375 7.515625h.75l1.296875-.003906c4.144532-.019532 7.484375-3.390625 7.464844-7.535156-.015625-4.128907-3.371094-7.464844-7.496094-7.464844zm0 0"/><path d="m502.480469 286.371094c-4.097657-.625-7.921875 2.191406-8.546875 6.285156-.097656.640625-.199219 1.28125-.300782 1.917969-.660156 4.089843 2.121094 7.9375 6.207032 8.597656.40625.066406.808594.097656 1.207031.097656 3.613281 0 6.796875-2.621093 7.394531-6.304687.109375-.679688.214844-1.363282.320313-2.046875.625-4.09375-2.1875-7.921875-6.28125-8.546875zm0 0"/><path d="m466.785156 387.464844c-3.445312-2.296875-8.101562-1.367188-10.398437 2.078125-.359375.539062-.71875 1.074219-1.082031 1.609375-2.328126 3.429687-1.433594 8.089844 1.992187 10.417968 1.289063.875 2.753906 1.292969 4.207031 1.292969 2.402344 0 4.761719-1.148437 6.210938-3.289062.386718-.566407.769531-1.136719 1.152344-1.710938 2.296874-3.445312 1.367187-8.101562-2.082032-10.398437zm0 0"/><path d="m479.816406 363.8125c-3.675781-1.90625-8.203125-.476562-10.113281 3.199219-.300781.574219-.601563 1.144531-.902344 1.71875-1.941406 3.660156-.546875 8.195312 3.109375 10.136719 1.121094.59375 2.324219.875 3.507813.875 2.6875 0 5.285156-1.445313 6.632812-3.988282.320313-.605468.640625-1.214844.957031-1.828125 1.914063-3.675781.480469-8.203125-3.191406-10.113281zm0 0"/><path d="m490.183594 338.882812c-3.859375-1.5-8.207032.417969-9.703125 4.277344-.234375.605469-.472657 1.210938-.710938 1.8125-1.527343 3.851563.355469 8.210938 4.207031 9.738282.90625.359374 1.839844.527343 2.761719.527343 2.984375 0 5.804688-1.792969 6.972657-4.734375.253906-.636718.503906-1.277344.753906-1.917968 1.496094-3.863282-.417969-8.207032-4.28125-9.703126zm0 0"/><path d="m358.472656 474.046875c-.585937.277344-1.175781.550781-1.761718.824219-3.757813 1.742187-5.394532 6.199218-3.652344 9.957031 1.269531 2.738281 3.980468 4.347656 6.8125 4.347656 1.054687 0 2.128906-.222656 3.148437-.695312.621094-.289063 1.238281-.578125 1.855469-.871094 3.746094-1.765625 5.347656-6.238281 3.582031-9.980469-1.769531-3.746094-6.238281-5.347656-9.984375-3.582031zm0 0"/><path d="m89.273438 430.285156c-2.992188-2.863281-7.738282-2.757812-10.601563.234375-2.863281 2.996094-2.757813 7.742188.234375 10.605469.5.476562.996094.949219 1.5 1.417969 1.445312 1.363281 3.292969 2.039062 5.136719 2.039062 1.996093 0 3.988281-.792969 5.460937-2.363281 2.839844-3.015625 2.695313-7.761719-.324218-10.601562-.46875-.441407-.9375-.886719-1.40625-1.332032zm0 0"/><path d="m231.035156 495.730469c-.644531-.066407-1.289062-.136719-1.929687-.207031-4.121094-.449219-7.824219 2.515624-8.277344 6.632812-.457031 4.113281 2.511719 7.820312 6.628906 8.277344.683594.074218 1.367188.148437 2.050781.21875.257813.027344.515626.039062.773438.039062 3.796875 0 7.054688-2.875 7.449219-6.738281.421875-4.121094-2.574219-7.800781-6.695313-8.222656zm0 0"/><path d="m110.6875 448.496094c-.515625-.390625-1.03125-.78125-1.546875-1.175782-3.285156-2.519531-7.992187-1.902343-10.515625 1.382813-2.519531 3.285156-1.902344 7.992187 1.382812 10.515625.546876.417969 1.09375.832031 1.640626 1.246094 1.351562 1.023437 2.941406 1.519531 4.515624 1.519531 2.269532 0 4.515626-1.03125 5.988282-2.980469 2.496094-3.304687 1.839844-8.007812-1.464844-10.507812zm0 0"/><path d="m205.183594 491.667969c-.632813-.132813-1.265625-.269531-1.894532-.414063-4.042968-.890625-8.050781 1.65625-8.945312 5.703125-.894531 4.042969 1.65625 8.046875 5.699219 8.941407.671875.148437 1.339843.296874 2.011719.4375.527343.113281 1.054687.167968 1.574218.167968 3.460938 0 6.574219-2.414062 7.324219-5.9375.867187-4.046875-1.71875-8.03125-5.769531-8.898437zm0 0"/><path d="m155.578125 475.273438c-.589844-.269532-1.179687-.542969-1.769531-.816407-3.753906-1.753906-8.21875-.128906-9.96875 3.625-1.75 3.753907-.125 8.214844 3.625 9.96875.625.289063 1.25.578125 1.875.863281 1.011718.460938 2.070312.683594 3.117187.683594 2.84375 0 5.5625-1.625 6.824219-4.382812 1.722656-3.765625.0625-8.21875-3.703125-9.941406zm0 0"/><path d="m179.933594 484.828125c-.613282-.203125-1.230469-.410156-1.84375-.617187-3.925782-1.328126-8.179688.773437-9.507813 4.695312-1.332031 3.921875.769531 8.179688 4.691407 9.511719.648437.21875 1.300781.4375 1.949218.652343.785156.257813 1.578125.382813 2.355469.382813 3.148437 0 6.078125-1.996094 7.121094-5.148437 1.300781-3.929688-.832031-8.175782-4.765625-9.476563zm0 0"/><path d="m132.402344 463.109375c-.554688-.332031-1.109375-.664063-1.664063-1-3.542969-2.15625-8.152343-1.027344-10.304687 2.511719-2.148438 3.539062-1.023438 8.152344 2.515625 10.304687.589843.355469 1.179687.710938 1.769531 1.066407 1.203125.71875 2.527344 1.058593 3.835938 1.058593 2.550781 0 5.042968-1.304687 6.445312-3.65625 2.121094-3.558593.960938-8.164062-2.597656-10.285156zm0 0"/><path d="m337.914062 330.179688c4.140626 0 7.5-3.359376 7.5-7.5 0-4.140626-3.359374-7.5-7.5-7.5h-23.691406c-4.140625 0-7.496094 3.359374-7.496094 7.5 0 4.140624 3.355469 7.5 7.496094 7.5zm0 0"/><path d="m365.847656 243.71875c4.121094 0 7.476563-3.332031 7.496094-7.460938.023438-4.144531-3.320312-7.519531-7.460938-7.539062h-.09375c-.015624 0-.027343 0-.039062 0-4.125 0-7.433594 3.332031-7.453125 7.460938-.019531 4.140624 3.367187 7.515624 7.511719 7.539062zm0 0"/><path d="m225.59375 407.859375h-.097656c-4.140625 0-7.453125 3.355469-7.453125 7.5 0 4.140625 3.40625 7.5 7.550781 7.5 4.140625 0 7.5-3.359375 7.5-7.5 0-4.144531-3.359375-7.5-7.5-7.5zm0 0"/><path d="m240.054688 409.4375h.039062c4.121094 0 7.476562-3.332031 7.496094-7.460938.023437-4.140624-3.320313-7.515624-7.460938-7.539062h-.09375c-.015625 0-.027344 0-.039062 0-4.125 0-7.429688 3.335938-7.453125 7.464844-.019531 4.140625 3.367187 7.515625 7.511719 7.535156zm0 0"/><path d="m356.945312 250.832031c0-4.140625-3.359374-7.5-7.5-7.5h-.097656c-4.140625 0-7.449218 3.359375-7.449218 7.5 0 4.144531 3.402343 7.5 7.546874 7.5 4.140626 0 7.5-3.355469 7.5-7.5zm0 0"/><path d="m148.65625 185.152344c-4.140625 0-7.5 3.359375-7.5 7.5s3.359375 7.5 7.5 7.5h23.773438c4.140624 0 7.5-3.359375 7.5-7.5s-3.359376-7.5-7.5-7.5zm0 0"/><path d="m423.453125 69.144531h.144531c4.140625 0 7.5-3.359375 7.5-7.5 0-4.144531-3.359375-7.5-7.5-7.5h-.144531c-4.144531 0-7.5 3.355469-7.5 7.5 0 4.140625 3.355469 7.5 7.5 7.5zm0 0"/></svg>