<svg height="512pt" viewBox="0 0 512 512.00022" width="512pt" xmlns="http://www.w3.org/2000/svg"><path d="m501.433594 10.566406c-12.785156-12.785156-29.8125-11.664062-41.847656-8.476562-4.003907 1.0625-6.390626 5.167968-5.328126 9.171875 1.0625 4.007812 5.160157 6.394531 9.171876 5.332031 12.136718-3.21875 21.097656-1.71875 27.394531 4.582031 11.648437 11.648438 4.800781 30.277344-2.464844 45.203125-7.800781 16.011719-20.976563 36.5-39.160156 60.902344-36.777344 49.347656-90.480469 109.972656-151.21875 170.714844-20.59375 20.59375-41.40625 40.601562-61.851563 59.46875-3.046875 2.808594-3.234375 7.554687-.425781 10.601562 1.476563 1.601563 3.492187 2.414063 5.515625 2.414063 1.816406 0 3.640625-.660157 5.082031-1.988281 20.597657-19.003907 41.550781-39.152344 62.289063-59.890626 39.613281-39.613281 76.28125-79.214843 107.308594-115.757812 2.753906 6.972656 5.039062 14.074219 6.84375 21.261719l-66.753907 66.753906c-6.957031 6.957031-12.394531 15.09375-16.15625 24.183594-3.761719 9.097656-5.667969 18.691406-5.667969 28.511719-.003906 15.910156-6.199218 30.859374-17.4375 42.097656l-52.039062 52.039062c-24.550781 1.269532-48.960938-2.710937-71.863281-11.765625 9.507812-8.078125 19.261719-16.566406 29.234375-25.449219 3.09375-2.757812 3.367187-7.5.613281-10.59375-2.757813-3.09375-7.5-3.367187-10.59375-.609374-30.667969 27.324218-59.203125 50.855468-84.808594 69.9375-24.398437 18.183593-44.890625 31.359374-60.90625 39.164062-14.925781 7.265625-33.554687 14.113281-45.199219 2.464844-11.648437-11.648438-4.804687-30.273438 2.464844-45.203125 7.800782-16.015625 20.976563-36.503907 39.160156-60.902344 8.933594-11.984375 18.941407-24.726563 29.808594-37.96875 4.300782 7.75 9.203125 15.253906 14.691406 22.453125-4.847656 5.984375-9.460937 11.789062-13.738281 17.300781-21.128906 27.234375-36.359375 49.8125-45.273437 67.097657-1.492188 2.902343-.941406 6.433593 1.363281 8.742187 1.441406 1.441406 3.363281 2.199219 5.308594 2.199219 1.167969 0 2.347656-.273438 3.433593-.835938 17.289063-8.910156 39.863282-24.140625 67.097657-45.273437 45.757812-35.507813 100.601562-84.707031 154.425781-138.53125s103.023438-108.667969 138.53125-154.421875c21.128906-27.238282 36.363281-49.8125 45.273438-67.097656 1.492187-2.902344.941406-6.4375-1.367188-8.742188-2.304688-2.308594-5.839844-2.859375-8.738281-1.363281-17.292969 8.914062-39.867188 24.144531-67.097657 45.273437-5.515624 4.28125-11.324218 8.894532-17.304687 13.734375-7.195313-5.488281-14.699219-10.386719-22.449219-14.691406 13.242188-10.863281 25.984375-20.875 37.964844-29.804687 19.394531-14.453126 36.445312-25.820313 50.671875-33.78125 3.617187-2.019532 4.90625-6.59375 2.882813-10.207032-2.019532-3.617187-6.589844-4.910156-10.207032-2.886718-14.796875 8.277343-32.398437 20.003906-52.3125 34.84375-13.730468 10.238281-28.421875 21.84375-43.710937 34.519531-68.636719-30.484375-152.007813-17.636719-208.203125 38.558593-56.199219 56.199219-69.042969 139.570313-38.5625 208.207032-12.671875 15.285156-24.28125 29.976562-34.515625 43.707031-18.742188 25.148437-32.410157 46.445313-40.625 63.308594-5.015625 10.304687-20.28125 41.671875.417969 62.371093 7.890624 7.890626 17.324218 10.554688 26.554687 10.554688 14.992187 0 29.445313-7.03125 35.828125-10.140625 16.851562-8.210937 38.148438-21.878906 63.296875-40.621094 13.773437-10.265625 28.382813-21.800781 43.683594-34.484375 24.046875 10.714844 49.789062 16.179688 75.859375 16.179688 10.519531 0 21.09375-.890625 31.625-2.675782 38.328125-6.5 73.164062-24.515624 100.742187-52.097656 6.539063-6.535156 12.644531-13.617187 18.152344-21.042968 2.464844-3.332032 1.769531-8.027344-1.5625-10.496094-3.328125-2.464844-8.027344-1.765625-10.492187 1.5625-5.066407 6.835937-10.6875 13.355468-16.703126 19.371094-24.414062 24.410156-55.003906 40.667968-88.679687 47.1875l38.476563-38.480469c14.070312-14.070313 21.824218-32.785157 21.832031-52.703125 0-7.847656 1.523437-15.511719 4.527343-22.78125 3.003907-7.253906 7.34375-13.753906 12.898438-19.308594l59.621094-59.621094c4.710937 33.21875-.351563 67.4375-15.101563 98.304688-1.789062 3.734375-.207031 8.214844 3.53125 10 1.042969.5 2.144531.738281 3.230469.738281 2.796875 0 5.484375-1.574219 6.769531-4.269531 23.292969-48.730469 24.371094-105.132813 2.960938-154.746094-.273438-.636719-.632813-1.210938-1.050781-1.726562 12.722656-15.34375 24.355468-30.058594 34.671874-43.902344 18.742188-25.148438 32.410157-46.445313 40.621094-63.300782 5.019532-10.308593 20.289063-41.675781-.414062-62.378906zm-238.324219 74.074219c.113281-.117187.214844-.238281.320313-.359375 14.648437.621094 28.96875 3.058594 42.695312 7.222656l-43.714844 43.714844c-16.589844 16.589844-30.035156 35.796875-39.964844 57.089844-4.554687 9.789062-9.996093 19.21875-16.171874 28.03125-6.195313 8.851562-13.191407 17.191406-20.792969 24.792968l-84.710938 84.710938c-5.679687-11.972656-9.910156-24.464844-12.667969-37.214844l72.4375-72.4375c16.597657-16.597656 30.039063-35.808594 39.957032-57.09375 4.570312-9.796875 10.015625-19.226562 16.179687-28.03125 6.195313-8.847656 13.191407-17.1875 20.792969-24.789062zm-146.824219 321.957031c-16.011718 12.417969-29.0625 21.71875-39.550781 28.667969 6.949219-10.488281 16.246094-23.539063 28.667969-39.546875 3.652344-4.707031 7.5625-9.640625 11.648437-14.710938 2.191407 2.425782 4.449219 4.816407 6.789063 7.152344 2.320312 2.320313 4.71875 4.585938 7.164062 6.789063-5 4.023437-9.914062 7.917969-14.71875 11.648437zm153.011719-137.289062c-43.335937 43.335937-87.292969 83.613281-126.523437 116.035156-2.855469-2.503906-5.644532-5.109375-8.328126-7.792969-10.378906-10.378906-19.148437-21.769531-26.3125-33.855469l87.953126-87.957031c8.21875-8.214843 15.777343-17.230469 22.476562-26.792969 6.675781-9.527343 12.558594-19.726562 17.480469-30.300781 9.1875-19.699219 21.628906-37.46875 36.976562-52.820312l48.734375-48.734375c20.609375 8.527344 39.535156 21.125 55.785156 37.371094 2.679688 2.679687 5.292969 5.472656 7.792969 8.324218-32.421875 39.230469-72.699219 83.1875-116.035156 126.523438zm126.40625-163.890625c16.011719-12.421875 29.0625-21.722657 39.550781-28.671875-6.949218 10.488281-16.25 23.539062-28.671875 39.550781-3.730469 4.804687-7.621093 9.722656-11.648437 14.71875-2.203125-2.441406-4.464844-4.84375-6.785156-7.164063-2.339844-2.335937-4.726563-4.597656-7.15625-6.789062 5.070312-4.082031 10.003906-7.988281 14.710937-11.644531zm-261.257813 29.042969c29.105469-29.105469 66.8125-46.476563 107.386719-49.761719l-14.96875 14.96875c-8.21875 8.21875-15.78125 17.230469-22.476562 26.792969-6.664063 9.515624-12.550781 19.707031-17.488281 30.296874-9.175782 19.695313-21.613282 37.46875-36.96875 52.824219l-64.761719 64.761719c-5.308594-49.90625 11.109375-101.710938 49.277343-139.882812zm0 0"/><path d="m316.746094 154.441406c-9.851563-9.855468-28.484375-6.078125-43.339844 8.777344-6.457031 6.457031-11.113281 14.109375-13.105469 21.542969-2.347656 8.75-.769531 16.695312 4.328125 21.792969 3.550782 3.550781 8.480469 5.394531 14.101563 5.394531 2.453125 0 5.035156-.351563 7.691406-1.0625 7.4375-1.992188 15.085937-6.648438 21.546875-13.109375 14.855469-14.855469 18.628906-33.484375 8.777344-43.335938zm-19.386719 32.726563c-4.5625 4.5625-9.964844 7.925781-14.820313 9.226562-3.332031.894531-6.128906.726563-7.300781-.449219-1.171875-1.167968-1.34375-3.964843-.449219-7.296874 1.304688-4.859376 4.667969-10.261719 9.226563-14.820313 6.875-6.875 14.234375-9.835937 18.671875-9.835937 1.5625 0 2.761719.367187 3.449219 1.054687 2.65625 2.65625.507812 12.835937-8.777344 22.121094zm0 0"/><path d="m150.898438 317.828125-.066407.066406c-2.929687 2.929688-2.894531 7.648438.035157 10.578125 1.457031 1.457032 3.371093 2.179688 5.289062 2.179688 1.9375 0 3.878906-.742188 5.351562-2.214844 2.929688-2.929688 2.929688-7.679688 0-10.605469-2.929687-2.929687-7.679687-2.929687-10.609374-.003906zm0 0"/><path d="m168.972656 311.601562-.066406.066407c-2.941406 2.917969-2.925781 7.632812-.007812 10.574219 1.460937 1.46875 3.382812 2.199218 5.308593 2.199218 1.929688 0 3.863281-.734375 5.335938-2.191406 2.941406-2.921875 2.957031-7.667969.039062-10.609375-2.921875-2.941406-7.667969-2.957031-10.609375-.039063zm0 0"/><path d="m162.691406 162.621094c1.929688 0 3.863282-.734375 5.332032-2.195313 2.941406-2.917969 2.957031-7.667969.039062-10.605469-2.917969-2.941406-7.667969-2.960937-10.605469-.039062l-.066406.066406c-2.941406 2.917969-2.925781 7.632813-.007813 10.574219 1.457032 1.46875 3.382813 2.199219 5.308594 2.199219zm0 0"/><path d="m370.863281 302.078125-.066406.066406c-2.941406 2.917969-2.925781 7.632813-.007813 10.574219 1.460938 1.46875 3.382813 2.199219 5.308594 2.199219 1.929688 0 3.863282-.730469 5.335938-2.191407 2.9375-2.921874 2.957031-7.671874.039062-10.609374-2.921875-2.941407-7.667968-2.957032-10.609375-.039063zm0 0"/><path d="m469.820312 185.226562h.035157c4.125 0 7.480469-3.335937 7.5-7.46875l.011719-2.722656c.019531-4.140625-3.324219-7.515625-7.464844-7.535156-.011719 0-.023438 0-.035156 0-4.128907 0-7.480469 3.335938-7.5 7.464844l-.015626 2.722656c-.019531 4.144531 3.324219 7.519531 7.46875 7.539062zm0 0"/><path d="m469.820312 195.210938c-.015624 0-.027343 0-.039062 0-4.125 0-7.480469 3.332031-7.5 7.460937l-.015625 2.722656c-.019531 4.144531 3.320313 7.519531 7.464844 7.539063h.039062c4.125 0 7.480469-3.332032 7.5-7.460938l.011719-2.722656c.023438-4.144531-3.320312-7.519531-7.460938-7.539062zm0 0"/><path d="m485.070312 182.765625-2.722656-.015625c-.011718 0-.023437 0-.035156 0-4.128906 0-7.480469 3.335938-7.5 7.46875-.023438 4.140625 3.320312 7.515625 7.464844 7.535156l2.722656.011719h.035156c4.125 0 7.480469-3.332031 7.5-7.464844.019532-4.140625-3.324218-7.515625-7.464844-7.535156zm0 0"/><path d="m454.636719 182.667969c-.011719 0-.023438 0-.035157 0-4.125 0-7.480468 3.332031-7.5 7.464843-.019531 4.140626 3.320313 7.515626 7.464844 7.535157l2.722656.015625h.035157c4.128906 0 7.480469-3.335938 7.5-7.464844.023437-4.144531-3.320313-7.519531-7.464844-7.539062zm0 0"/><path d="m76.601562 98.691406h.039063c4.125 0 7.480469-3.335937 7.5-7.464844l.011719-2.722656c.019531-4.144531-3.320313-7.515625-7.464844-7.539062-.011719 0-.023438 0-.035156 0-4.128906 0-7.480469 3.335937-7.5 7.46875l-.015625 2.722656c-.019531 4.140625 3.324219 7.515625 7.464843 7.535156zm0 0"/><path d="m76.601562 108.675781c-.011718 0-.023437 0-.035156 0-4.125 0-7.480468 3.335938-7.5 7.464844l-.015625 2.722656c-.019531 4.144531 3.324219 7.519531 7.46875 7.539063h.035157c4.125 0 7.480468-3.335938 7.5-7.464844l.011718-2.722656c.019532-4.144532-3.320312-7.519532-7.464844-7.539063zm0 0"/><path d="m81.59375 103.683594c-.019531 4.144531 3.324219 7.519531 7.464844 7.539062l2.722656.011719h.039062c4.125 0 7.480469-3.332031 7.5-7.464844.019532-4.144531-3.324218-7.515625-7.464843-7.539062l-2.722657-.011719c-4.121093-.03125-7.519531 3.320312-7.539062 7.464844zm0 0"/><path d="m61.351562 111.136719 2.722657.011719h.035156c4.125 0 7.480469-3.335938 7.5-7.464844.019531-4.144532-3.324219-7.515625-7.464844-7.535156l-2.722656-.015626c-.011719 0-.023437 0-.035156 0-4.128907 0-7.480469 3.335938-7.5 7.46875-.019531 4.140626 3.320312 7.515626 7.464843 7.535157zm0 0"/><path d="m189.472656 466.003906h.039063c4.125 0 7.480469-3.335937 7.5-7.464844l.011719-2.722656c.019531-4.144531-3.324219-7.519531-7.464844-7.539062-4.109375-.003906-7.519532 3.320312-7.539063 7.464844l-.011719 2.722656c-.019531 4.144531 3.324219 7.519531 7.464844 7.539062zm0 0"/><path d="m189.472656 475.988281c-.011718 0-.023437 0-.035156 0-4.128906 0-7.480469 3.335938-7.5 7.464844l-.015625 2.722656c-.019531 4.144531 3.324219 7.515625 7.464844 7.539063h.039062c4.125 0 7.480469-3.335938 7.5-7.46875l.011719-2.722656c.019531-4.140626-3.320312-7.515626-7.464844-7.535157zm0 0"/><path d="m204.726562 463.542969-2.722656-.011719c-.011718 0-.027344 0-.039062 0-4.125 0-7.480469 3.332031-7.5 7.464844-.019532 4.140625 3.324218 7.515625 7.464844 7.539062l2.722656.011719h.039062c4.125 0 7.480469-3.335937 7.5-7.464844.019532-4.144531-3.324218-7.519531-7.464844-7.539062zm0 0"/><path d="m184.480469 470.996094c.019531-4.144532-3.324219-7.515625-7.464844-7.539063l-2.722656-.011719c-4.125-.046874-7.519531 3.320313-7.539063 7.464844-.019531 4.144532 3.324219 7.519532 7.464844 7.539063l2.722656.011719h.039063c4.125 0 7.480469-3.335938 7.5-7.464844zm0 0"/><path d="m124.519531 78.835938h.035157c4.125 0 7.480468-3.335938 7.5-7.46875l.015624-2.722657c.015626-4.140625-3.324218-7.515625-7.46875-7.535156-4.164062.011719-7.515624 3.324219-7.535156 7.464844l-.011718 2.722656c-.019532 4.144531 3.320312 7.519531 7.464843 7.539063zm0 0"/><path d="m124.515625 88.820312c-.011719 0-.023437 0-.035156 0-4.125 0-7.480469 3.332032-7.5 7.464844l-.011719 2.722656c-.023438 4.140626 3.320312 7.515626 7.464844 7.535157h.035156c4.125 0 7.480469-3.332031 7.5-7.464844l.015625-2.722656c.019531-4.140625-3.324219-7.515625-7.46875-7.535157zm0 0"/><path d="m129.511719 83.828125c-.019531 4.144531 3.320312 7.515625 7.464843 7.535156l2.722657.015625h.035156c4.125 0 7.480469-3.335937 7.5-7.46875.019531-4.140625-3.324219-7.515625-7.464844-7.535156l-2.722656-.011719c-.011719 0-.023437 0-.035156 0-4.125 0-7.480469 3.335938-7.5 7.464844zm0 0"/><path d="m109.265625 91.277344 2.722656.015625h.035157c4.128906 0 7.480468-3.335938 7.503906-7.46875.019531-4.140625-3.324219-7.515625-7.46875-7.535157l-2.722656-.011718c-4.109376.011718-7.515626 3.320312-7.535157 7.464844-.019531 4.140624 3.320313 7.515624 7.464844 7.535156zm0 0"/><path d="m25.488281 471.804688-.066406.066406c-2.929687 2.929687-2.898437 7.644531.03125 10.574218 1.457031 1.457032 3.371094 2.179688 5.289063 2.179688 1.9375 0 3.878906-.738281 5.355468-2.210938 2.925782-2.929687 2.925782-7.679687 0-10.609374-2.929687-2.929688-7.679687-2.929688-10.609375 0zm0 0"/><path d="m45.492188 475.804688-.066407.066406c-2.929687 2.929687-2.898437 7.644531.03125 10.574218 1.457031 1.457032 3.371094 2.183594 5.289063 2.183594 1.9375 0 3.878906-.742187 5.351562-2.214844 2.929688-2.929687 2.929688-7.679687 0-10.609374-2.929687-2.929688-7.675781-2.929688-10.605468 0zm0 0"/><path d="m246.175781 53.167969h.105469.035156c4.125 0 7.480469-3.335938 7.5-7.464844.019532-4.144531-3.324218-7.519531-7.464844-7.539063h-.105468c-.011719 0-.023438 0-.035156 0-4.125 0-7.480469 3.335938-7.5 7.46875-.019532 4.140626 3.324218 7.515626 7.464843 7.535157zm0 0"/><path d="m270.769531 58.246094h.105469.039062c4.125 0 7.480469-3.335938 7.5-7.46875.019532-4.140625-3.324218-7.515625-7.46875-7.535156h-.105468c-.011719 0-.023438 0-.035156 0-4.125 0-7.480469 3.335937-7.5 7.464843-.019532 4.144531 3.324218 7.519531 7.464843 7.539063zm0 0"/><path d="m363.695312 436.710938h-.105468c-4.144532 0-7.5 3.359374-7.5 7.503906 0 4.140625 3.355468 7.5 7.5 7.5h.105468c4.144532 0 7.5-3.359375 7.5-7.5 0-4.144532-3.355468-7.503906-7.5-7.503906zm0 0"/><path d="m469.804688 309.421875h-.105469c-.011719 0-.023438 0-.035157 0-4.128906 0-7.480468 3.335937-7.5 7.46875-.023437 4.140625 3.320313 7.515625 7.464844 7.535156h.105469.035156c4.128907 0 7.480469-3.335937 7.5-7.464843.019531-4.144532-3.324219-7.519532-7.464843-7.539063zm0 0"/><path d="m41.554688 314.902344h.105468c4.144532 0 7.503906-3.359375 7.503906-7.5 0-4.144532-3.359374-7.503906-7.503906-7.503906h-.105468c-4.140626 0-7.5 3.359374-7.5 7.503906 0 4.140625 3.359374 7.5 7.5 7.5zm0 0"/><path d="m456.015625 290.445312h-.105469c-4.140625 0-7.5 3.355469-7.5 7.5 0 4.144532 3.359375 7.5 7.5 7.5h.105469c4.144531 0 7.503906-3.355468 7.503906-7.5 0-4.144531-3.359375-7.5-7.503906-7.5zm0 0"/></svg>