<?xml version="1.0" encoding="iso-8859-1"?>
<!-- Generator: Adobe Illustrator 21.0.0, SVG Export Plug-In . SVG Version: 6.00 Build 0)  -->
<svg xmlns="http://www.w3.org/2000/svg" xmlns:xlink="http://www.w3.org/1999/xlink" version="1.1" id="Capa_1" x="0px" y="0px" viewBox="0 0 512 512" style="enable-background:new 0 0 512 512;" xml:space="preserve" width="512" height="512">
<g>
	<path d="M15,421h482c8.284,0,15-6.716,15-15V106c0-8.284-6.716-15-15-15H15c-8.284,0-15,6.716-15,15v300   C0,414.284,6.716,421,15,421z M30,391V139.396l115.153,116.124l-80.701,79.814c-5.89,5.825-5.942,15.323-0.117,21.213   c5.822,5.887,15.32,5.946,21.213,0.117l80.729-79.842l79.072,79.739C248.166,359.402,252,361,256,361s7.834-1.598,10.651-4.438   l79.514-80.184l80.229,80.229c5.857,5.857,15.355,5.858,21.213,0c5.858-5.858,5.858-15.355,0-21.213l-80.318-80.318L482,139.396   V391H30z M256,324.697L54.007,121h403.987L256,324.697z"/>
</g>















</svg>
