<?xml version="1.0" encoding="iso-8859-1"?>
<!-- Generator: Adobe Illustrator 21.0.0, SVG Export Plug-In . SVG Version: 6.00 Build 0)  -->
<svg xmlns="http://www.w3.org/2000/svg" xmlns:xlink="http://www.w3.org/1999/xlink" version="1.1" id="Capa_1" x="0px" y="0px" viewBox="0 0 512.004 512.004" style="enable-background:new 0 0 512.004 512.004;" xml:space="preserve" width="512" height="512">
<g>
	<path d="M256.004,512.002c140.959,0,256-115.049,256-256c0-140.959-115.049-256-256-256C115.127,0.002,0.068,114.941,0.006,255.887   c0,0.039-0.006,0.076-0.006,0.115s0.005,0.076,0.006,0.115C0.068,396.99,115.054,512.002,256.004,512.002z M77.21,117.937   c17.061,13.758,35.531,25.409,55.028,34.812c-4.372,19.15-7.534,39.366-9.364,60.212c-13.642,4.17-24.544,14.659-29.29,28.041   h-63.07C33.554,194.85,50.504,152.441,77.21,117.937z M481.494,241.002h-90.739c-0.536-17.929-2.022-35.603-4.464-52.799   c11.889-8.108,19.713-21.757,19.713-37.201c0-4.046-0.546-7.966-1.552-11.699c10.554-6.454,20.698-13.595,30.341-21.372   C461.503,152.437,478.455,194.847,481.494,241.002z M434.794,394.073c-9.644-7.777-19.788-14.919-30.341-21.372   c1.006-3.733,1.552-7.652,1.552-11.698c0-15.444-7.823-29.094-19.713-37.201c2.442-17.196,3.928-34.88,4.464-52.809h90.739   C478.455,317.147,461.503,359.568,434.794,394.073z M271.004,361.445c15.421,0.896,30.676,3.173,45.592,6.807   c2.068,12.711,9.479,23.646,19.846,30.427c-16.903,43.093-40.651,72.203-65.438,80.726V361.445z M361.004,346.002   c8.271,0,15,6.729,15,15s-6.729,15-15,15s-15-6.729-15-15S352.733,346.002,361.004,346.002z M357.047,316.186   c-15.024,1.316-27.946,10.043-35.092,22.497c-16.683-3.952-33.73-6.395-50.95-7.29v-60.401h89.739   C360.256,286.325,359.019,301.445,357.047,316.186z M271.004,241.002v-60.391c17.22-0.895,34.267-3.339,50.95-7.29   c7.146,12.454,20.069,21.18,35.092,22.497c1.972,14.741,3.209,29.852,3.697,45.184H271.004z M376.004,151.002   c0,8.271-6.729,15-15,15s-15-6.729-15-15s6.729-15,15-15S376.004,142.731,376.004,151.002z M316.597,143.753   c-14.916,3.633-30.171,5.911-45.592,6.806V32.6c24.788,8.523,48.535,37.633,65.438,80.726   C326.075,120.107,318.665,131.041,316.597,143.753z M241.004,150.547c-25.18-1.476-49.809-6.652-73.163-15.252   c11.459-37.716,35.804-90.263,73.163-102.77V150.547z M241.004,180.594v60.408h-62.58c-4.303-12.133-13.669-21.883-25.548-26.706   c1.557-17.211,4.07-33.905,7.463-49.792C186.132,173.689,213.281,179.141,241.004,180.594z M135.825,241.011   c0.058,0.004,0.114,0.016,0.172,0.019c0.317,0.02,0.632,0.03,0.946,0.03c0.036,0,0.071-0.005,0.106-0.005   c7.783,0.541,13.955,7.029,13.955,14.947c0,8.022-6.336,14.575-14.263,14.963c-0.248,0.003-0.493-0.007-0.743,0.009   c-0.058,0.004-0.114,0.015-0.172,0.019c-8.188-0.097-14.821-6.78-14.821-14.991S127.637,241.109,135.825,241.011z M152.876,297.708   c11.879-4.823,21.245-14.573,25.548-26.706h62.58v60.408c-27.723,1.453-54.873,6.906-80.665,16.09   C156.946,331.613,154.433,314.919,152.876,297.708z M241.004,361.458V479.48c-37.366-12.509-61.708-65.068-73.163-102.77   C191.195,368.11,215.824,362.933,241.004,361.458z M180.162,468.896c-31.473-11.246-59.744-29.279-83.041-52.335   c13.473-10.744,27.912-20.032,43.09-27.772C149.046,416.879,161.965,445.743,180.162,468.896z M365.867,405.735   c7.977-0.861,15.33-3.818,21.509-8.304c9.566,5.764,18.776,12.143,27.522,19.12c-23.37,23.132-51.747,41.206-83.34,52.447   C344.822,452.097,356.502,430.561,365.867,405.735z M387.376,114.573c-6.179-4.485-13.532-7.442-21.509-8.304   c-9.366-24.826-21.045-46.362-34.309-63.262c31.593,11.24,59.97,29.315,83.34,52.446   C406.152,102.43,396.943,108.809,387.376,114.573z M140.211,123.216c-15.179-7.74-29.618-17.027-43.09-27.772   c23.297-23.057,51.568-41.089,83.041-52.335C161.968,66.258,149.047,95.121,140.211,123.216z M93.585,271.002   c4.746,13.382,15.649,23.871,29.29,28.041c1.83,20.846,4.992,41.063,9.364,60.212c-19.498,9.403-37.968,21.054-55.028,34.812   c-26.706-34.504-43.656-76.913-46.696-123.065H93.585z"/>
</g>















</svg>
