<?xml version="1.0" encoding="iso-8859-1"?>
<!-- Generator: Adobe Illustrator 21.0.0, SVG Export Plug-In . SVG Version: 6.00 Build 0)  -->
<svg xmlns="http://www.w3.org/2000/svg" xmlns:xlink="http://www.w3.org/1999/xlink" version="1.1" id="Capa_1" x="0px" y="0px" viewBox="0 0 512 512" style="enable-background:new 0 0 512 512;" xml:space="preserve" width="512" height="512">
<g>
	<path d="M497,16H15C6.716,16,0,22.716,0,31v450c0,8.284,6.716,15,15,15h482c8.284,0,15-6.716,15-15V31   C512,22.716,505.284,16,497,16z M482,76h-90V46h90V76z M362,46v30H30V46H362z M30,466V106h452v360H30z"/>
	<path d="M226,136H75c-8.284,0-15,6.716-15,15v270c0,8.284,6.716,15,15,15h151c8.284,0,15-6.716,15-15V151   C241,142.716,234.284,136,226,136z M211,406H90V166h121V406z"/>
	<path d="M437,166H286c-8.284,0-15,6.716-15,15s6.716,15,15,15h151c8.284,0,15-6.716,15-15S445.284,166,437,166z"/>
	<path d="M437,226H286c-8.284,0-15,6.716-15,15s6.716,15,15,15h151c8.284,0,15-6.716,15-15S445.284,226,437,226z"/>
	<path d="M437,316H286c-8.284,0-15,6.716-15,15s6.716,15,15,15h151c8.284,0,15-6.716,15-15S445.284,316,437,316z"/>
	<path d="M437,376H286c-8.284,0-15,6.716-15,15s6.716,15,15,15h151c8.284,0,15-6.716,15-15S445.284,376,437,376z"/>
</g>















</svg>
