<?xml version="1.0" encoding="iso-8859-1"?>
<!-- Generator: Adobe Illustrator 21.0.0, SVG Export Plug-In . SVG Version: 6.00 Build 0)  -->
<svg xmlns="http://www.w3.org/2000/svg" xmlns:xlink="http://www.w3.org/1999/xlink" version="1.1" id="Capa_1" x="0px" y="0px" viewBox="0 0 512 512" style="enable-background:new 0 0 512 512;" xml:space="preserve" width="512" height="512">
<g>
	<path d="M346,15c0-8.284-6.716-15-15-15H61c-8.284,0-15,6.716-15,15v422c0,8.284,6.716,15,15,15h85.703   c4.525,15.624,10.446,30.839,17.714,45.374l3.167,6.334C170.124,508.79,175.318,512,181,512h240c5.682,0,10.875-3.21,13.417-8.292   C455.079,462.384,466,416.121,466,369.918V317c0-24.813-20.187-45-45-45c-5.771,0-11.376,1.079-16.585,3.142   C399.198,256.063,381.71,242,361,242c-5.259,0-10.305,0.916-15,2.581V15z M241,120c-24.813,0-45,20.187-45,45v138.507   c-29.341,5.981-52.492,29.153-58.475,58.493H76V90h240v154.581c-4.695-1.665-9.741-2.581-15-2.581c-5.257,0-10.307,0.906-15,2.57   V165C286,140.187,265.813,120,241,120z M316,30v30H76V30H316z M76,422v-30h60.429c0.569,10.05,1.709,20.071,3.399,30H76z M361,272   c8.271,0,15,6.729,15,15v30c0,8.284,6.716,15,15,15s15-6.716,15-15c0-8.29,6.708-15,15-15c8.271,0,15,6.729,15,15v52.918   c0,38.504-8.432,77.059-24.449,112.082H190.282c-27.225-55.74-24.074-107.832-24.161-108.229   c1.293-18.146,13.388-33.354,29.879-39.201v43.18c0,8.284,6.716,15,15,15s15-6.716,15-15V165c0-8.271,6.729-15,15-15   s15,6.729,15,15v152c0,8.284,6.716,15,15,15s15-6.716,15-15v-30c0-8.271,6.729-15,15-15s15,6.729,15,15c0,10.335,0,19.567,0,30   c0,8.284,6.716,15,15,15s15-6.716,15-15c0-10.435,0-19.662,0-30C346,278.729,352.729,272,361,272z"/>
</g>















</svg>
