<?xml version="1.0" encoding="iso-8859-1"?>
<!-- Generator: Adobe Illustrator 21.0.0, SVG Export Plug-In . SVG Version: 6.00 Build 0)  -->
<svg xmlns="http://www.w3.org/2000/svg" xmlns:xlink="http://www.w3.org/1999/xlink" version="1.1" id="Capa_1" x="0px" y="0px" viewBox="0 0 512 512" style="enable-background:new 0 0 512 512;" xml:space="preserve" width="512" height="512">
<g>
	<path d="M316,76c0-33.084-26.916-60-60-60s-60,26.916-60,60s26.916,60,60,60S316,109.084,316,76z M256,106   c-16.542,0-30-13.458-30-30s13.458-30,30-30s30,13.458,30,30S272.542,106,256,106z"/>
	<path d="M151,316c0-33.084-26.916-60-60-60c-32.895,0-61,26.584-61,60c0,33.424,28.112,60,61,60C124.084,376,151,349.084,151,316z    M91,346c-16.804,0-31-13.738-31-30s14.196-30,31-30c16.542,0,30,13.458,30,30S107.542,346,91,346z"/>
	<path d="M422,376c-27.289,0-51.777,12.211-68.296,31.453L271,352.923V256h60c8.284,0,15-6.716,15-15v-15c0-49.626-40.374-90-90-90   s-90,40.374-90,90v15c0,8.284,6.716,15,15,15h60v96.972l-81.71,54.473C142.771,388.208,118.286,376,91,376   c-49.915,0-91,40.422-91,90v15c0,8.284,6.716,15,15,15h151c8.284,0,15-6.716,15-15v-15c0-11.582-2.2-22.659-6.203-32.837   l81.249-54.166l82.156,54.169C334.2,443.343,332,454.419,332,466v15c0,8.284,6.716,15,15,15h150c8.284,0,15-6.716,15-15v-15   C512,416.374,471.626,376,422,376z M256,166c33.084,0,60,26.916,60,60H196C196,192.916,222.916,166,256,166z M30,466   c0-33.084,27.364-60,61-60c33.084,0,60,26.916,60,60H30z M362,466c0-33.084,26.916-60,60-60s60,26.916,60,60H362z"/>
	<path d="M482,316c0-33.084-26.916-60-60-60s-60,26.916-60,60s26.916,60,60,60S482,349.084,482,316z M422,346   c-16.542,0-30-13.458-30-30s13.458-30,30-30s30,13.458,30,30S438.542,346,422,346z"/>
</g>















</svg>
