<?xml version="1.0" encoding="iso-8859-1"?>
<!-- Generator: Adobe Illustrator 21.0.0, SVG Export Plug-In . SVG Version: 6.00 Build 0)  -->
<svg xmlns="http://www.w3.org/2000/svg" xmlns:xlink="http://www.w3.org/1999/xlink" version="1.1" id="Capa_1" x="0px" y="0px" viewBox="0 0 512 512" style="enable-background:new 0 0 512 512;" xml:space="preserve" width="512" height="512">
<g>
	<path d="M251.257,511.23c1.539,0.513,3.141,0.77,4.743,0.77s3.204-0.257,4.743-0.77C374.542,473.297,451,367.217,451,247.263V75   c0-6.457-4.131-12.188-10.257-14.23l-180-60c-3.078-1.026-6.408-1.026-9.486,0l-180,60C65.131,62.811,61,68.543,61,75v172.264   C61,367.217,137.458,473.297,251.257,511.23z M91,85.811l165-55l165,55v161.452c0,105.348-66.091,198.699-165,233.872   C157.091,445.963,91,352.612,91,247.263V85.811z"/>
	<path d="M249.869,446.383c1.95,0.874,4.041,1.311,6.131,1.311s4.181-0.437,6.131-1.311C340.416,411.319,391,333.158,391,247.259   V118.242c0-6.457-4.132-12.189-10.258-14.23l-120-39.99c-3.078-1.026-6.406-1.026-9.484,0l-120,39.99   c-6.126,2.042-10.258,7.773-10.258,14.23v129.017C121,333.158,171.584,411.319,249.869,446.383z M151,129.054l105-34.991   l105,34.991v118.205c0,71.823-40.996,137.373-105,168.865c-64.004-31.492-105-97.042-105-168.865V129.054z"/>
	<path d="M241,302c3.839,0,7.678-1.464,10.606-4.394l60-60c5.858-5.858,5.858-15.355,0-21.213c-5.857-5.858-15.355-5.858-21.213,0   L241,265.786l-19.394-19.393c-5.857-5.858-15.355-5.858-21.213,0c-5.858,5.858-5.858,15.355,0,21.213l30,30   C233.322,300.535,237.161,302,241,302z"/>
</g>















</svg>
