<?xml version="1.0" encoding="iso-8859-1"?>
<!-- Generator: Adobe Illustrator 21.0.0, SVG Export Plug-In . SVG Version: 6.00 Build 0)  -->
<svg xmlns="http://www.w3.org/2000/svg" xmlns:xlink="http://www.w3.org/1999/xlink" version="1.1" id="Capa_1" x="0px" y="0px" viewBox="0 0 511.986 511.986" style="enable-background:new 0 0 511.986 511.986;" xml:space="preserve" width="512" height="512">
<g>
	<path d="M90.981,335.423v161.563c0,8.284,6.716,15,15,15h180c8.284,0,15-6.716,15-15v-47h75c24.813,0,45-20.187,45-45v-75h45   c5.199,0,10.027-2.692,12.76-7.114c2.733-4.422,2.981-9.944,0.657-14.594l-58.449-116.899   C418.75,70.687,307.793-21.329,184.327,4.315C110.363,19.678,50.433,79.815,35.2,153.961   C21.368,221.286,42.193,288.603,90.981,335.423z M64.587,159.998c12.858-62.587,63.43-113.347,125.841-126.31   C296.115,11.735,390.981,91.22,390.981,194.986c0,2.329,0.542,4.625,1.583,6.708l49.146,98.292h-35.729c-8.284,0-15,6.716-15,15v90   c0,8.271-6.729,15-15,15h-90c-8.284,0-15,6.716-15,15v47h-150V328.88c0-4.261-1.813-8.322-4.985-11.167   C71.681,277.969,52.462,219.01,64.587,159.998z"/>
	<path d="M133.176,295.456c3.841,1.03,7.937,0.49,11.382-1.499l22.164-12.798c4.543,3.143,9.305,5.907,14.259,8.279v25.548   c0,8.284,6.716,15,15,15h60c8.284,0,15-6.716,15-15V289.44c4.954-2.372,9.715-5.137,14.259-8.28l22.164,12.797   c3.444,1.988,7.538,2.528,11.382,1.499c3.843-1.029,7.12-3.543,9.108-6.989l30-51.962c1.989-3.445,2.528-7.54,1.499-11.382   s-3.543-7.119-6.989-9.108l-21.823-12.599c0.268-2.901,0.4-5.699,0.4-8.429s-0.132-5.528-0.4-8.429l21.823-12.6   c7.174-4.142,9.632-13.316,5.49-20.49l-30-51.962c-1.989-3.445-5.265-5.959-9.108-6.989c-3.842-1.03-7.937-0.491-11.382,1.499   l-22.164,12.797c-4.543-3.143-9.306-5.908-14.259-8.28V74.986c0-8.284-6.716-15-15-15h-60c-8.284,0-15,6.716-15,15v25.546   c-4.953,2.372-9.715,5.137-14.259,8.28l-22.164-12.797c-3.445-1.989-7.539-2.529-11.382-1.499c-3.843,1.029-7.12,3.543-9.108,6.989   l-30,51.962c-4.142,7.174-1.684,16.348,5.49,20.49l21.823,12.6c-0.268,2.901-0.4,5.699-0.4,8.429s0.132,5.528,0.4,8.429   l-21.823,12.599c-3.445,1.989-5.959,5.266-6.989,9.108s-0.491,7.937,1.499,11.382l30,51.962   C126.056,291.912,129.333,294.427,133.176,295.456z M152.384,208.623c-0.957-5.173-1.403-9.507-1.403-13.637   s0.446-8.463,1.403-13.637c1.156-6.246-1.748-12.543-7.25-15.719l-17.586-10.153l15-25.981l17.85,10.307   c5.5,3.176,12.405,2.542,17.237-1.58c7.004-5.976,14.872-10.545,23.384-13.58c5.974-2.13,9.963-7.787,9.963-14.129V89.986h30   v20.528c0,6.342,3.989,11.999,9.962,14.129c8.513,3.035,16.38,7.604,23.384,13.58c4.832,4.123,11.737,4.755,17.237,1.58   l17.85-10.307l15,25.981l-17.586,10.153c-5.501,3.176-8.405,9.473-7.25,15.719c0.957,5.173,1.403,9.506,1.403,13.637   s-0.446,8.464-1.403,13.637c-1.156,6.247,1.749,12.543,7.25,15.72l17.586,10.153l-15,25.98l-17.85-10.307   c-5.501-3.177-12.406-2.543-17.237,1.58c-7.004,5.977-14.872,10.546-23.383,13.58c-5.975,2.129-9.963,7.787-9.963,14.129v20.528   h-30v-20.53c0-6.342-3.989-12-9.963-14.129c-8.514-3.035-16.381-7.604-23.383-13.578c-4.832-4.123-11.737-4.755-17.237-1.58   l-17.85,10.307l-15-25.98l17.586-10.153C150.636,221.167,153.54,214.87,152.384,208.623z"/>
	<path d="M225.981,239.986c24.813,0,45-20.187,45-45s-20.187-45-45-45s-45,20.187-45,45S201.168,239.986,225.981,239.986z    M225.981,179.986c8.271,0,15,6.729,15,15s-6.729,15-15,15s-15-6.729-15-15S217.71,179.986,225.981,179.986z"/>
</g>















</svg>
