<?xml version="1.0" encoding="iso-8859-1"?>
<!-- Generator: Adobe Illustrator 21.0.0, SVG Export Plug-In . SVG Version: 6.00 Build 0)  -->
<svg xmlns="http://www.w3.org/2000/svg" xmlns:xlink="http://www.w3.org/1999/xlink" version="1.1" id="Capa_1" x="0px" y="0px" viewBox="0 0 512 512" style="enable-background:new 0 0 512 512;" xml:space="preserve" width="512" height="512">
<g>
	<path d="M499.859,211.275l-24.33-4.724c-5.65-25.196-15.511-48.93-29.414-70.797l13.285-19.927   c3.966-5.949,3.182-13.871-1.875-18.927L415.1,54.475c-5.056-5.057-12.977-5.841-18.927-1.875l-19.927,13.284   c-21.867-13.903-45.601-23.764-70.797-29.414l-4.724-24.33C299.356,5.091,293.182,0,286,0h-60c-7.182,0-13.356,5.091-14.725,12.141   l-4.724,24.33c-25.196,5.65-48.93,15.511-70.797,29.414l-19.927-13.284c-5.949-3.965-13.871-3.181-18.927,1.875L54.475,96.9   c-5.056,5.056-5.84,12.978-1.875,18.927l13.284,19.927c-13.903,21.868-23.764,45.602-29.414,70.797l-24.33,4.724   C5.091,212.644,0,218.818,0,226v60c0,7.182,5.091,13.356,12.141,14.725l24.33,4.724c5.65,25.195,15.511,48.93,29.414,70.797   l-13.285,19.926c-3.966,5.95-3.182,13.872,1.875,18.927L96.9,457.525c5.055,5.056,12.976,5.84,18.927,1.875l19.927-13.284   c21.868,13.903,45.602,23.764,70.797,29.414l4.724,24.33C212.644,506.909,218.818,512,226,512h60   c7.182,0,13.356-5.091,14.725-12.141l4.724-24.33c25.195-5.65,48.93-15.511,70.797-29.414l19.926,13.285   c5.95,3.965,13.872,3.182,18.927-1.875l42.425-42.425c5.056-5.056,5.84-12.978,1.875-18.927l-13.284-19.927   c13.903-21.868,23.764-45.602,29.414-70.797l24.33-4.724C506.909,299.356,512,293.182,512,286v-60   C512,218.818,506.909,212.644,499.859,211.275z M482,273.632l-22.059,4.283c-6.096,1.184-10.832,6.001-11.913,12.116   c-4.955,28.048-15.798,54.158-32.228,77.602c-3.548,5.063-3.626,11.785-0.197,16.929l12.013,18.021l-25.035,25.035l-18.02-12.013   c-5.145-3.43-11.866-3.352-16.93,0.197c-23.444,16.43-49.553,27.273-77.603,32.229c-6.115,1.081-10.932,5.817-12.115,11.913   L273.632,482h-35.265l-4.283-22.059c-1.184-6.096-6.001-10.832-12.116-11.913c-28.048-4.955-54.158-15.798-77.602-32.228   c-5.063-3.548-11.784-3.626-16.929-0.197l-18.021,12.013l-25.035-25.035l12.013-18.02c3.43-5.145,3.352-11.866-0.197-16.93   c-16.43-23.444-27.273-49.553-32.229-77.603c-1.081-6.115-5.817-10.932-11.913-12.115L30,273.632v-35.265l22.059-4.283   c6.096-1.184,10.832-6.001,11.913-12.116c4.955-28.048,15.798-54.158,32.228-77.602c3.548-5.063,3.626-11.785,0.197-16.929   l-12.013-18.021l25.035-25.035l18.021,12.013c5.144,3.43,11.866,3.351,16.929-0.197c23.443-16.43,49.552-27.272,77.602-32.229   c6.115-1.08,10.932-5.816,12.115-11.912L238.368,30h35.265l4.283,22.059c1.184,6.096,6,10.832,12.115,11.913   c28.05,4.955,54.159,15.798,77.602,32.228c5.063,3.548,11.784,3.627,16.929,0.197l18.021-12.013l25.035,25.035l-12.014,18.021   c-3.429,5.145-3.351,11.866,0.197,16.929c16.43,23.442,27.273,49.552,32.229,77.602c1.081,6.115,5.817,10.932,11.913,12.115   L482,238.368V273.632z"/>
	<path d="M256,91c-90.981,0-165,74.019-165,165c0,91.42,74.437,165,165,165c90.423,0,165-73.465,165-165   C421,165.019,346.981,91,256,91z M241,390.162v-49.283c0-6.357-4.007-12.024-10.001-14.143   c-25.094-8.869-43.272-30.323-48.474-55.746c32.343,0,113.441,0,146.951,0c-5.202,25.423-23.38,46.877-48.474,55.746   c-5.994,2.119-10.001,7.785-10.001,14.143v49.283c-4.927,0.547-9.93,0.838-15,0.838S245.927,390.709,241,390.162z M211,241h-28.451   c3.711-17.82,13.909-33.698,28.451-44.61V241z M301,241v-44.61c14.543,10.913,24.74,26.79,28.451,44.61H301z M301,383.278v-32.384   c36.286-17.22,60-54.104,60-94.895c0-44.11-28.121-83.743-69.976-98.622c-4.593-1.633-9.692-0.932-13.674,1.878   s-6.35,7.381-6.35,12.255V241h-30v-69.488c0-4.874-2.368-9.444-6.35-12.255c-3.983-2.811-9.083-3.511-13.674-1.878   C179.121,172.257,151,211.89,151,256c0,40.79,23.714,77.674,60,94.895v32.384c-52.38-18.574-90-68.611-90-127.278   c0-74.439,60.561-135,135-135s135,60.561,135,135C391,314.667,353.38,364.704,301,383.278z"/>
</g>















</svg>
