<?xml version="1.0" encoding="iso-8859-1"?>
<!-- Generator: Adobe Illustrator 21.0.0, SVG Export Plug-In . SVG Version: 6.00 Build 0)  -->
<svg xmlns="http://www.w3.org/2000/svg" xmlns:xlink="http://www.w3.org/1999/xlink" version="1.1" id="Capa_1" x="0px" y="0px" viewBox="0 0 512 512" style="enable-background:new 0 0 512 512;" xml:space="preserve">
<g>
	<path d="M263.655,184.706c-17.546,17.545-17.546,46.094,0,63.64c17.544,17.545,46.094,17.546,63.64,0   c17.544-17.545,17.545-46.094,0-63.64C309.749,167.16,281.2,167.161,263.655,184.706z M306.082,227.133   c-5.849,5.849-15.365,5.849-21.214,0s-5.849-15.365,0-21.213c5.847-5.847,15.364-5.85,21.213,0   C311.93,211.767,311.93,221.284,306.082,227.133z"/>
	<path d="M486.394,4.394l-27.428,27.428c-92.518,0.041-129.21,1.931-216.524,89.245l-57.963,57.963l-98.194-19.639   c-6.216-1.244-12.543,1.556-15.804,6.991L6.841,272.448c-3.055,5.091-2.819,11.505,0.601,16.358   c3.42,4.853,9.381,7.232,15.203,6.068l80.72-16.144l-13.039,39.118c-1.796,5.39-0.394,11.333,3.624,15.35l0.029,0.029   c-15.544,2.196-30.526,9.254-42.456,21.184c-26.42,26.42-45.872,90.896-51.431,140.933c-0.503,4.529,1.08,9.041,4.302,12.263   c3.225,3.225,7.74,4.805,12.263,4.302c50.037-5.56,114.513-25.011,140.932-51.431c11.633-11.633,18.963-26.417,21.217-42.424   c4.017,4.016,9.956,5.417,15.347,3.622l39.118-13.04l-16.144,80.72c-1.165,5.822,1.214,11.783,6.068,15.203   c4.859,3.425,11.274,3.652,16.358,0.601l106.066-63.64c5.436-3.261,8.235-9.588,6.991-15.804l-19.639-98.194l57.963-57.963   c87.315-87.314,89.204-124.006,89.245-216.524l27.428-27.428c5.858-5.858,5.858-15.355,0-21.213   C501.749-1.465,492.251-1.465,486.394,4.394z M90.767,190.881l68.217,13.643l-40.61,40.61l-68.363,13.672L90.767,190.881z    M136.375,439.264c-15.765,15.766-59.72,32.386-103.693,40.054c7.668-43.973,24.288-87.928,40.054-103.693   c8.773-8.773,20.296-13.159,31.82-13.159s23.047,4.387,31.82,13.159c8.499,8.5,13.18,19.8,13.18,31.82   S144.875,430.765,136.375,439.264z M193.46,390.282l-71.742-71.742l10.606-31.82l92.956,92.956L193.46,390.282z M321.119,421.234   l-67.925,40.755l13.672-68.363l40.61-40.61L321.119,421.234z M369.721,248.345c-12.871,12.872-105.792,105.793-116.672,116.673   L146.982,258.952c10.835-10.834,103.87-103.87,116.673-116.672c17.228-17.229,32.05-30.757,45.625-41.397   c8.121,23.46,21.452,44.835,39.227,62.61c17.776,17.776,39.151,31.107,62.611,39.228   C400.478,216.296,386.949,231.117,369.721,248.345z M428.804,176.835c-22.276-6.21-42.571-18.042-59.083-34.556   c-16.513-16.512-28.345-36.807-34.556-59.083c34.039-19.512,64.467-21.214,115.001-21.362   C450.019,112.368,448.316,142.797,428.804,176.835z"/>
</g>















</svg>
