<?xml version="1.0" encoding="iso-8859-1"?>
<!-- Generator: Adobe Illustrator 21.0.0, SVG Export Plug-In . SVG Version: 6.00 Build 0)  -->
<svg xmlns="http://www.w3.org/2000/svg" xmlns:xlink="http://www.w3.org/1999/xlink" version="1.1" id="Capa_1" x="0px" y="0px" viewBox="0 0 512 512" style="enable-background:new 0 0 512 512;" xml:space="preserve" width="512" height="512">
<g>
	<path d="M46,512h300c8.284,0,15-6.716,15-15V383.07L412.358,330H466c8.284,0,15-6.716,15-15V135c0-8.284-6.716-15-15-15H361V15   c0-8.284-6.716-15-15-15H46c-8.284,0-15,6.716-15,15v482C31,505.284,37.716,512,46,512z M61,482v-60h120v15c0,8.284,6.716,15,15,15   s15-6.716,15-15v-15h120v60H61z M451,300h-45c-4.063,0-7.953,1.649-10.779,4.569L361,339.93V315c0-8.284-6.716-15-15-15H241V150   h210V300z M226,120c-8.284,0-15,6.716-15,15v180c0,8.284,6.716,15,15,15h105c0,20.699,0,41.34,0,62H61V90h270v30H226z M331,30v30   H61V30H331z"/>
	<circle cx="406" cy="225" r="15"/>
	<circle cx="346" cy="225" r="15"/>
	<circle cx="286" cy="225" r="15"/>
</g>















</svg>
