<?xml version="1.0" encoding="iso-8859-1"?>
<!-- Generator: Adobe Illustrator 21.0.0, SVG Export Plug-In . SVG Version: 6.00 Build 0)  -->
<svg xmlns="http://www.w3.org/2000/svg" xmlns:xlink="http://www.w3.org/1999/xlink" version="1.1" id="Capa_1" x="0px" y="0px" viewBox="0 0 512 512" style="enable-background:new 0 0 512 512;" xml:space="preserve" width="512" height="512">
<g>
	<path d="M361,346.969v-3.098c0-27.305,10.227-56.428,28.797-82.003C410.21,233.755,421,200.593,421,165.969   C421,61.518,325.453-18.094,220.812,3.621c-63.997,13.28-115.118,66.773-126.991,131.604   c-8.382,45.765,2.082,91.264,29.464,128.117C141.158,287.396,151,315.036,151,341.17v5.799c0,19.555,12.541,36.228,30,42.42v32.58   h-15c-8.284,0-15,6.716-15,15s6.716,15,15,15h16.509c6.968,34.192,37.271,60,73.491,60s66.522-25.808,73.491-60H346   c8.284,0,15-6.716,15-15s-6.716-15-15-15h-15v-32.58C348.459,383.197,361,366.524,361,346.969z M147.366,245.45   c-22.366-30.102-30.902-67.328-24.036-104.82c9.656-52.722,52.248-96.983,103.578-107.635C312.716,15.191,391,80.341,391,165.969   c0,28.25-8.811,55.317-25.479,78.273C342.937,275.346,331,309.797,331,343.871v3.098c0,8.271-6.729,15-15,15h-45V289.51   l58.417-116.833c3.705-7.41,0.701-16.42-6.708-20.125c-7.409-3.705-16.42-0.701-20.125,6.708L286,192.428l-16.583-33.167   c-2.541-5.082-7.735-8.292-13.417-8.292s-10.875,3.21-13.417,8.292L226,192.428l-16.583-33.167   c-3.705-7.41-12.715-10.413-20.125-6.708c-7.41,3.705-10.413,12.715-6.708,20.125L241,289.51v72.459h-45c-8.271,0-15-6.729-15-15   v-5.799C181,308.635,169.056,274.642,147.366,245.45z M256,252.428l-13.229-26.459L256,199.51l13.229,26.459L256,252.428z    M256,481.969c-19.555,0-36.228-12.551-42.42-30.01h84.839C292.228,469.418,275.555,481.969,256,481.969z M211,421.969v-30h90v30   H211z"/>
	<path d="M444.323,85.378c2.087,8.058,10.3,12.828,18.282,10.76l29.978-7.764c8.02-2.077,12.837-10.262,10.76-18.282   c-2.077-8.02-10.262-12.838-18.282-10.76l-29.978,7.764C447.063,69.173,442.246,77.358,444.323,85.378z"/>
	<path d="M49.395,235.8l-29.978,7.764c-8.02,2.077-12.837,10.262-10.76,18.282c2.087,8.058,10.3,12.828,18.282,10.76l29.978-7.764   c8.02-2.077,12.837-10.262,10.76-18.282C65.6,238.541,57.416,233.723,49.395,235.8z"/>
	<path d="M455.083,264.842l29.978,7.764c7.966,2.065,16.191-2.689,18.282-10.76c2.077-8.02-2.74-16.205-10.76-18.282l-29.978-7.764   c-8.019-2.079-16.204,2.74-18.282,10.76C442.246,254.58,447.063,262.765,455.083,264.842z"/>
	<path d="M19.417,88.373l29.978,7.764c7.966,2.065,16.191-2.689,18.282-10.76c2.077-8.02-2.74-16.205-10.76-18.282l-29.978-7.764   c-8.018-2.078-16.205,2.74-18.282,10.76S11.397,86.297,19.417,88.373z"/>
	<path d="M497,150.969h-31c-8.284,0-15,6.716-15,15s6.716,15,15,15h31c8.284,0,15-6.716,15-15S505.284,150.969,497,150.969z"/>
	<path d="M15,180.969h31c8.284,0,15-6.716,15-15s-6.716-15-15-15H15c-8.284,0-15,6.716-15,15S6.716,180.969,15,180.969z"/>
</g>















</svg>
