<?xml version="1.0" encoding="iso-8859-1"?>
<!-- Generator: Adobe Illustrator 21.0.0, SVG Export Plug-In . SVG Version: 6.00 Build 0)  -->
<svg xmlns="http://www.w3.org/2000/svg" xmlns:xlink="http://www.w3.org/1999/xlink" version="1.1" id="Capa_1" x="0px" y="0px" viewBox="0 0 512 512" style="enable-background:new 0 0 512 512;" xml:space="preserve" width="512" height="512">
<g>
	<path d="M420.964,183.809c0.016-0.936,0.036-1.87,0.036-2.809c0-90.981-74.019-165-165-165S91,90.019,91,181   c0,0.939,0.02,1.874,0.036,2.809C37.066,211.077,0,266.815,0,331c0,90.981,74.467,165,166,165c33.181,0,64.099-9.854,90-26.776   C281.901,486.146,312.819,496,346,496c91.533,0,166-74.019,166-165C512,266.815,474.934,211.077,420.964,183.809z M256,431.53   c-25.545-22.893-42.341-55.352-44.703-91.687C225.52,343.851,240.513,346,256,346s30.48-2.149,44.703-6.157   C298.341,376.178,281.545,408.637,256,431.53z M256,316c-15.095,0-29.619-2.491-43.184-7.083   c5.114-30.947,20.785-58.374,43.184-78.447c22.399,20.073,38.07,47.501,43.184,78.447C285.619,313.509,271.095,316,256,316z    M184.823,295.661c-32.356-20.158-55.598-53.619-62.023-92.676C136.378,198.458,150.905,196,166,196   c23.574,0,45.751,6.08,65.059,16.745C208.28,234.891,191.86,263.538,184.823,295.661z M280.941,212.745   C300.249,202.08,322.426,196,346,196c15.095,0,29.622,2.458,43.2,6.985c-6.425,39.057-29.667,72.518-62.023,92.676   C320.14,263.538,303.72,234.891,280.941,212.745z M256,46c71.443,0,130.091,55.786,134.698,126.083   C376.471,168.124,361.481,166,346,166c-33.181,0-64.099,9.854-90,26.776C230.099,175.854,199.181,166,166,166   c-15.481,0-30.471,2.124-44.698,6.083C125.909,101.786,184.557,46,256,46z M166,466c-74.991,0-136-60.561-136-135   c0-48.528,25.933-91.151,64.76-114.949c10.61,48.85,42.909,89.705,86.279,111.916C181.02,328.977,181,329.986,181,331   c0,46.332,19.203,88.256,50.059,118.255C211.751,459.92,189.574,466,166,466z M346,466c-23.574,0-45.751-6.08-65.059-16.745   C311.797,419.256,331,377.332,331,331c0-1.014-0.02-2.023-0.039-3.033c43.37-22.211,75.669-63.066,86.279-111.916   C456.067,239.849,482,282.472,482,331C482,405.439,420.991,466,346,466z"/>
</g>















</svg>
