<?xml version="1.0" encoding="iso-8859-1"?>
<!-- Generator: Adobe Illustrator 21.0.0, SVG Export Plug-In . SVG Version: 6.00 Build 0)  -->
<svg xmlns="http://www.w3.org/2000/svg" xmlns:xlink="http://www.w3.org/1999/xlink" version="1.1" id="Capa_1" x="0px" y="0px" viewBox="0 0 512 512" style="enable-background:new 0 0 512 512;" xml:space="preserve" width="512" height="512">
<g>
	<path d="M256,512c5.233,0,10.088-2.727,12.81-7.196l137.761-226.138C425.825,249.34,436,215.229,436,180   C436,80.748,355.252,0,256,0S76,80.748,76,180c0,35.229,10.175,69.34,29.429,98.666L243.19,504.804   C245.912,509.273,250.767,512,256,512z M130.632,262.391C114.518,237.927,106,209.437,106,180c0-82.71,67.29-150,150-150   s150,67.29,150,150c0,29.437-8.518,57.927-24.632,82.391c-0.097,0.147-0.191,0.297-0.283,0.447L256,468.168   C256,468.168,130.729,262.539,130.632,262.391z"/>
	<path d="M301,165c0-24.813-20.187-45-45-45s-45,20.187-45,45s20.187,45,45,45S301,189.813,301,165z M256,180   c-8.271,0-15-6.729-15-15s6.729-15,15-15s15,6.729,15,15S264.271,180,256,180z"/>
	<path d="M256,300c66.148,0,120-53.84,120-120c0-66.168-53.832-120-120-120s-120,53.832-120,120C136,246.16,189.854,300,256,300z    M217.687,261.425C225.758,248.417,240.233,240,256,240s30.242,8.417,38.313,21.425C282.682,266.92,269.695,270,256,270   S229.318,266.92,217.687,261.425z M166,180c0-49.626,40.374-90,90-90s90,40.374,90,90c0,25.149-10.373,47.917-27.059,64.263   C305.286,223.217,282.048,210,256,210c-26.005,0-49.263,13.181-62.941,34.263C176.373,227.917,166,205.149,166,180z"/>
</g>















</svg>
