<?xml version="1.0" encoding="iso-8859-1"?>
<!-- Generator: Adobe Illustrator 21.0.0, SVG Export Plug-In . SVG Version: 6.00 Build 0)  -->
<svg xmlns="http://www.w3.org/2000/svg" xmlns:xlink="http://www.w3.org/1999/xlink" version="1.1" id="Capa_1" x="0px" y="0px" viewBox="0 0 512 512" style="enable-background:new 0 0 512 512;" xml:space="preserve" width="512" height="512">
<g>
	<path d="M256,0C115.041,0,0,115.05,0,256c0,48.879,13.815,96.104,40.032,137.101L1.055,491.475   c-2.212,5.583-0.881,11.946,3.382,16.175c4.279,4.244,10.657,5.499,16.202,3.25l98.319-39.886C160.785,497.854,207.996,512,256,512   c140.959,0,256-115.05,256-256C512,115.041,396.951,0,256,0z M256,482c-44.544,0-88.419-13.914-126.879-40.238   c-4.158-2.846-9.458-3.409-14.111-1.521l-73.143,29.673l28.938-73.036c1.837-4.636,1.25-9.882-1.567-13.998   C43.569,345.375,30,301.501,30,256C30,131.383,131.384,30,256,30s226,101.383,226,226S380.617,482,256,482z"/>
	<path d="M376,241H136c-8.284,0-15,6.716-15,15c0,74.439,60.561,135,135,135s135-60.561,135-135C391,247.716,384.285,241,376,241z    M256,361c-52.805,0-96.631-39.193-103.932-90.01h207.863C352.632,321.807,308.806,361,256,361z"/>
	<path d="M166,211c8.284,0,15-6.716,15-15v-30c0-8.271,6.729-15,15-15s15,6.729,15,15v30c0,8.284,6.716,15,15,15s15-6.716,15-15v-30   c0-24.813-20.187-45-45-45s-45,20.187-45,45v30C151,204.284,157.716,211,166,211z"/>
	<path d="M286,211c8.284,0,15-6.716,15-15v-30c0-8.271,6.729-15,15-15s15,6.729,15,15v30c0,8.284,6.716,15,15,15s15-6.716,15-15v-30   c0-24.813-20.187-45-45-45s-45,20.187-45,45v30C271,204.284,277.716,211,286,211z"/>
</g>















</svg>
