<?xml version="1.0" encoding="iso-8859-1"?>
<!-- Generator: Adobe Illustrator 21.0.0, SVG Export Plug-In . SVG Version: 6.00 Build 0)  -->
<svg xmlns="http://www.w3.org/2000/svg" xmlns:xlink="http://www.w3.org/1999/xlink" version="1.1" id="Capa_1" x="0px" y="0px" viewBox="0 0 511.979 511.979" style="enable-background:new 0 0 511.979 511.979;" xml:space="preserve" width="512" height="512">
<g>
	<path d="M195,390c37.494,0,72.544-10.647,102.304-29.062c8.431,8.431,129.983,129.983,137.883,137.882   c17.544,17.544,46.09,17.544,63.635,0c17.543-17.544,17.543-46.091,0-63.635L360.938,297.304C379.353,267.544,390,232.494,390,195   C390,87.477,302.523,0,195,0S0,87.477,0,195S87.477,390,195,390z M477.608,477.608c-5.848,5.848-15.362,5.846-21.209,0   l-81.397-81.397l21.209-21.209l81.397,81.397C483.456,462.246,483.455,471.76,477.608,477.608z M374.998,353.789l-21.209,21.209   l-31.983-31.983c7.598-6.519,14.69-13.611,21.209-21.209L374.998,353.789z M195,30c90.981,0,165,74.019,165,165   s-74.019,165-165,165S30,285.982,30,195S104.019,30,195,30z"/>
	<path d="M90.1,285c0,8.284,6.616,15,14.9,15h60c8.284,0,15-6.716,15-15c0-8.271,6.729-15,15-15s15,6.729,15,15   c0,8.284,6.716,15,15,15h60c8.284,0,15-6.716,15-15v-47.57c17.461-6.191,30-22.874,30-42.43s-12.539-36.239-30-42.43V105   c0-8.284-6.716-15-15-15h-60c-8.284,0-15,6.716-15,15c0,8.271-6.729,15-15,15s-15-6.729-15-15c0-8.284-6.716-15-15-15h-60   c-8.284,0-14.9,6.716-14.9,15v47.57C72.639,158.761,60,175.444,60,195s12.639,36.239,30.1,42.43V285z M105,180   c8.284,0,15-6.716,15-15v-45h32.57c6.191,17.461,22.874,30,42.43,30s36.239-12.539,42.43-30h32.67v45c0,8.284,6.616,15,14.9,15   c8.271,0,15,6.729,15,15s-6.729,15-15,15c-8.284,0-14.9,6.716-14.9,15v45h-32.67c-6.191-17.461-22.874-30-42.43-30   s-36.239,12.539-42.43,30H120v-45c0-8.284-6.716-15-15-15c-8.271,0-15-6.729-15-15S96.729,180,105,180z"/>
</g>















</svg>
