<?xml version="1.0" encoding="iso-8859-1"?>
<!-- Generator: Adobe Illustrator 21.0.0, SVG Export Plug-In . SVG Version: 6.00 Build 0)  -->
<svg xmlns="http://www.w3.org/2000/svg" xmlns:xlink="http://www.w3.org/1999/xlink" version="1.1" id="Capa_1" x="0px" y="0px" viewBox="0 0 511.979 511.979" style="enable-background:new 0 0 511.979 511.979;" xml:space="preserve" width="512" height="512">
<g>
	<path d="M195,390c37.494,0,72.544-10.647,102.304-29.062c8.431,8.431,129.983,129.983,137.883,137.882   c17.544,17.544,46.09,17.544,63.635,0c17.543-17.544,17.543-46.091,0-63.635L360.938,297.304C379.353,267.544,390,232.494,390,195   C390,87.477,302.523,0,195,0S0,87.477,0,195S87.477,390,195,390z M477.608,477.608c-5.848,5.848-15.362,5.846-21.209,0   l-81.397-81.397l21.209-21.209l81.397,81.397C483.456,462.246,483.455,471.76,477.608,477.608z M374.998,353.789l-21.209,21.209   l-31.983-31.983c7.598-6.519,14.69-13.611,21.209-21.209L374.998,353.789z M195,30c90.981,0,165,74.019,165,165   s-74.019,165-165,165S30,285.982,30,195S104.019,30,195,30z"/>
	<path d="M102.195,295.47c3.841,1.03,7.936,0.49,11.382-1.499l22.164-12.798c4.543,3.143,9.305,5.907,14.259,8.279V315   c0,8.284,6.716,15,15,15h60c8.284,0,15-6.716,15-15v-25.546c4.954-2.372,9.715-5.137,14.259-8.28l22.164,12.797   c3.444,1.988,7.539,2.528,11.382,1.499c3.843-1.029,7.12-3.543,9.108-6.989l30-51.962c1.989-3.445,2.528-7.54,1.499-11.382   s-3.543-7.119-6.989-9.108l-21.823-12.599c0.268-2.901,0.4-5.699,0.4-8.429s-0.132-5.528-0.4-8.429l21.823-12.6   c7.174-4.142,9.632-13.316,5.49-20.49l-30-51.962c-1.989-3.445-5.265-5.959-9.108-6.989c-3.842-1.03-7.938-0.491-11.382,1.499   l-22.164,12.797c-4.543-3.143-9.306-5.908-14.259-8.28V75c0-8.284-6.716-15-15-15h-60c-8.284,0-15,6.716-15,15v25.546   c-4.953,2.372-9.715,5.137-14.259,8.28l-22.164-12.797c-3.445-1.989-7.541-2.529-11.382-1.499c-3.843,1.029-7.12,3.543-9.108,6.989   l-30,51.962c-4.142,7.174-1.684,16.348,5.49,20.49l21.823,12.6C90.133,189.472,90,192.27,90,195s0.132,5.528,0.4,8.429   l-21.823,12.599c-3.445,1.989-5.959,5.266-6.989,9.108s-0.491,7.937,1.499,11.382l30,51.962   C95.076,291.926,98.352,294.441,102.195,295.47z M121.403,208.637C120.446,203.464,120,199.131,120,195s0.446-8.463,1.403-13.637   c1.156-6.246-1.748-12.543-7.25-15.719l-17.586-10.153l15-25.981l17.85,10.307c5.5,3.176,12.405,2.542,17.237-1.58   c7.004-5.976,14.872-10.545,23.384-13.58c5.974-2.13,9.963-7.787,9.963-14.129V90h30v20.528c0,6.342,3.989,11.999,9.962,14.129   c8.513,3.035,16.38,7.604,23.384,13.58c4.832,4.123,11.736,4.755,17.237,1.58l17.85-10.307l15,25.981l-17.586,10.153   c-5.501,3.176-8.405,9.473-7.25,15.719C269.555,186.537,270,190.87,270,195s-0.446,8.464-1.403,13.637   c-1.156,6.247,1.749,12.543,7.25,15.72l17.586,10.153l-15,25.98l-17.85-10.307c-5.502-3.177-12.406-2.543-17.237,1.58   c-7.004,5.977-14.872,10.546-23.383,13.58c-5.975,2.129-9.963,7.787-9.963,14.129V300h-30v-20.53c0-6.342-3.989-12-9.963-14.129   c-8.514-3.035-16.381-7.604-23.383-13.578c-4.832-4.123-11.737-4.755-17.237-1.58l-17.85,10.307l-15-25.98l17.586-10.153   C119.655,221.181,122.559,214.884,121.403,208.637z"/>
	<path d="M195,240c24.813,0,45-20.187,45-45s-20.187-45-45-45s-45,20.187-45,45S170.188,240,195,240z M195,180   c8.271,0,15,6.729,15,15s-6.729,15-15,15s-15-6.729-15-15S186.729,180,195,180z"/>
</g>















</svg>
