<?xml version="1.0" encoding="iso-8859-1"?>
<!-- Generator: Adobe Illustrator 21.0.0, SVG Export Plug-In . SVG Version: 6.00 Build 0)  -->
<svg xmlns="http://www.w3.org/2000/svg" xmlns:xlink="http://www.w3.org/1999/xlink" version="1.1" id="Capa_1" x="0px" y="0px" viewBox="0 0 512 512" style="enable-background:new 0 0 512 512;" xml:space="preserve" width="512" height="512">
<g>
	<path d="M497,16H15C6.716,16,0,22.716,0,31v360c0,8.284,6.716,15,15,15h166v60h-45c-8.284,0-15,6.716-15,15s6.716,15,15,15h240   c8.284,0,15-6.716,15-15s-6.716-15-15-15h-45v-60h166c8.284,0,15-6.716,15-15V31C512,22.716,505.284,16,497,16z M482,46v270H30V46   H482z M301,466h-90v-60h90V466z M30,376v-30h452v30H30z"/>
	<path d="M219.292,254.417c7.424,3.712,16.427,0.687,20.125-6.708l60-120c3.705-7.41,0.701-16.419-6.708-20.125   c-7.409-3.705-16.419-0.702-20.125,6.708l-60,120C208.879,241.702,211.882,250.711,219.292,254.417z"/>
	<path d="M155.394,251.606c5.857,5.858,15.355,5.859,21.213,0c5.858-5.858,5.858-15.355,0-21.213L127.213,181l49.393-49.394   c5.858-5.858,5.858-15.355,0-21.213c-5.857-5.858-15.355-5.858-21.213,0l-60,60c-5.858,5.858-5.858,15.355,0,21.213   L155.394,251.606z"/>
	<path d="M335.394,251.606c5.857,5.858,15.355,5.859,21.213,0l60-60c5.858-5.858,5.858-15.355,0-21.213l-60-60   c-5.857-5.858-15.355-5.858-21.213,0c-5.858,5.858-5.858,15.355,0,21.213L384.787,181l-49.393,49.394   C329.536,236.251,329.536,245.749,335.394,251.606z"/>
</g>















</svg>
