<?xml version="1.0" encoding="iso-8859-1"?>
<!-- Generator: Adobe Illustrator 21.0.0, SVG Export Plug-In . SVG Version: 6.00 Build 0)  -->
<svg xmlns="http://www.w3.org/2000/svg" xmlns:xlink="http://www.w3.org/1999/xlink" version="1.1" id="Capa_1" x="0px" y="0px" viewBox="0 0 512 512" style="enable-background:new 0 0 512 512;" xml:space="preserve" width="512" height="512">
<g>
	<path d="M497,16H15C6.716,16,0,22.716,0,31v360c0,8.284,6.716,15,15,15h166v60h-45c-8.284,0-15,6.716-15,15s6.716,15,15,15h240   c8.284,0,15-6.716,15-15s-6.716-15-15-15h-45v-60h166c8.284,0,15-6.716,15-15V31C512,22.716,505.284,16,497,16z M482,46v270H30V46   H482z M301,466h-90v-60h90V466z M30,376v-30h452v30H30z"/>
	<path d="M75,166h211c8.284,0,15-6.716,15-15V91c0-8.284-6.716-15-15-15H75c-8.284,0-15,6.716-15,15v60   C60,159.284,66.716,166,75,166z M90,106h181v30H90V106z"/>
	<path d="M75,286h211c8.284,0,15-6.716,15-15v-60c0-8.284-6.716-15-15-15H75c-8.284,0-15,6.716-15,15v60   C60,279.284,66.716,286,75,286z M90,226h181v30H90V226z"/>
	<path d="M346,286h91c8.284,0,15-6.716,15-15V91c0-8.284-6.716-15-15-15h-91c-8.284,0-15,6.716-15,15v180   C331,279.284,337.716,286,346,286z M361,106h61v150h-61V106z"/>
</g>















</svg>
