<?xml version="1.0" encoding="iso-8859-1"?>
<!-- Generator: Adobe Illustrator 21.0.0, SVG Export Plug-In . SVG Version: 6.00 Build 0)  -->
<svg xmlns="http://www.w3.org/2000/svg" xmlns:xlink="http://www.w3.org/1999/xlink" version="1.1" id="Capa_1" x="0px" y="0px" viewBox="0 0 512 512" style="enable-background:new 0 0 512 512;" xml:space="preserve" width="512" height="512">
<g>
	<path d="M121,316h285c58.448,0,106-47.103,106-105c0-57.272-46.526-103.981-104.105-104.984C384.159,51.724,330.525,16,271,16   c-48.786,0-93.869,23.802-122.028,63.646C139.435,77.199,130.202,76,121,76C54.815,76,0,129.72,0,196C0,262.193,54.72,316,121,316z    M121,106c36.367,0,68.915,21.829,82.934,54.973c3.227,7.63,12.029,11.199,19.658,7.971c7.63-3.227,11.199-12.029,7.972-19.658   c-10.814-25.566-29.985-46.098-53.257-58.746C200.966,62.383,234.521,46,271,46c50.656,0,95.995,32.448,112.82,80.742   c2.262,6.494,8.647,10.619,15.501,10.006C447.594,132.429,482,170.386,482,211c0,41.355-34.094,75-76,75H121   c-50.178,0-91-40.374-91-90S70.822,106,121,106z"/>
	<path d="M139.379,426.408c-5.858,5.858-5.858,15.355,0,21.213C170.577,478.819,211.994,496,256,496   c44.007,0,85.423-17.181,116.621-48.379c5.858-5.858,5.858-15.355,0-21.213c-5.856-5.858-15.354-5.858-21.213,0   C325.876,451.939,291.993,466,256,466s-69.876-14.061-95.408-39.592C154.734,420.55,145.236,420.55,139.379,426.408z"/>
	<path d="M181.783,384.004c-5.858,5.858-5.858,15.355,0,21.213C201.633,425.068,227.991,436,256,436   c28.01,0,54.367-10.932,74.217-30.783c5.858-5.858,5.858-15.355,0-21.213c-5.857-5.858-15.355-5.858-21.213,0   C294.82,398.188,275.996,406,256,406s-38.82-7.812-53.004-21.996C197.138,378.146,187.64,378.146,181.783,384.004z"/>
	<path d="M287.819,362.82c5.858-5.858,5.858-15.355,0-21.213c-5.857-5.857-15.355-5.857-21.213,0   C263.773,344.44,260.006,346,256,346s-7.773-1.56-10.607-4.394c-5.858-5.857-15.355-5.857-21.213,0   c-5.857,5.858-5.857,15.355,0,21.213c8.5,8.499,19.8,13.18,31.82,13.18C268.02,376,279.32,371.319,287.819,362.82z"/>
</g>















</svg>
