<?xml version="1.0" encoding="iso-8859-1"?>
<!-- Generator: Adobe Illustrator 21.0.0, SVG Export Plug-In . SVG Version: 6.00 Build 0)  -->
<svg xmlns="http://www.w3.org/2000/svg" xmlns:xlink="http://www.w3.org/1999/xlink" version="1.1" id="Capa_1" x="0px" y="0px" viewBox="0 0 512 512" style="enable-background:new 0 0 512 512;" xml:space="preserve" width="512" height="512">
<g>
	<path d="M45,420c-8.284,0-15,6.716-15,15v16H15c-8.284,0-15,6.716-15,15s6.716,15,15,15h15v16c0,8.284,6.716,15,15,15h422   c8.284,0,15-6.716,15-15v-16h15c8.284,0,15-6.716,15-15s-6.716-15-15-15h-15v-16c0-8.284-6.716-15-15-15h-45V90h45   c8.284,0,15-6.716,15-15V60h15c8.284,0,15-6.716,15-15s-6.716-15-15-15h-15V15c0-8.284-6.716-15-15-15C446.45,0,65.949,0,45,0   c-8.284,0-15,6.716-15,15v15H15C6.716,30,0,36.716,0,45s6.716,15,15,15h15v15c0,8.284,6.716,15,15,15h45v330H45z M452,482H60v-32   h392V482z M452,60h-30V30h30V60z M60,60V30h30v30H60z M120,30h272v390H120V30z"/>
	<path d="M165,90h182c8.284,0,15-6.716,15-15s-6.716-15-15-15H165c-8.284,0-15,6.716-15,15S156.716,90,165,90z"/>
	<path d="M347,120H165c-8.284,0-15,6.716-15,15s6.716,15,15,15h182c8.284,0,15-6.716,15-15S355.284,120,347,120z"/>
	<path d="M165,210h91c8.284,0,15-6.716,15-15s-6.716-15-15-15h-91c-8.284,0-15,6.716-15,15S156.716,210,165,210z"/>
	<path d="M347,240H165c-8.284,0-15,6.716-15,15s6.716,15,15,15h182c8.284,0,15-6.716,15-15S355.284,240,347,240z"/>
	<path d="M347,300H165c-8.284,0-15,6.716-15,15s6.716,15,15,15h182c8.284,0,15-6.716,15-15S355.284,300,347,300z"/>
	<path d="M256,360h-91c-8.284,0-15,6.716-15,15s6.716,15,15,15h91c8.284,0,15-6.716,15-15S264.284,360,256,360z"/>
</g>















</svg>
