<?xml version="1.0" encoding="iso-8859-1"?>
<!-- Generator: Adobe Illustrator 21.0.0, SVG Export Plug-In . SVG Version: 6.00 Build 0)  -->
<svg xmlns="http://www.w3.org/2000/svg" xmlns:xlink="http://www.w3.org/1999/xlink" version="1.1" id="Capa_1" x="0px" y="0px" viewBox="0 0 512 512" style="enable-background:new 0 0 512 512;" xml:space="preserve" width="512" height="512">
<g>
	<path d="M256,512c140.804,0,256-114.945,256-256C512,115.04,396.951,0,256,0C115.041,0,0,115.049,0,256   C0,396.645,114.716,512,256,512z M151,456.076V436c0-19.555,12.541-36.228,30-42.42V436c0,5.682,3.21,10.875,8.292,13.417   c5.081,2.54,11.162,1.992,15.708-1.417l51-38.25L307,448c4.551,3.414,10.634,3.954,15.708,1.417   C327.79,446.875,331,441.682,331,436v-42.42c17.459,6.192,30,22.865,30,42.42v20.076C329.608,472.617,293.882,482,256,482   S182.392,472.617,151,456.076z M181,211h56.459c18.574,0,35.829-7.26,48.541-19.785c11.9,11.725,27.783,18.835,45,19.695V226   c0,41.355-33.645,75-75,75c-41.355,0-75-33.645-75-75V211z M182.509,181c6.968-34.192,37.271-60,73.491-60   c36.099,0,66.317,25.637,73.417,59.659c-12.867-1.664-24.08-9.526-30.001-21.368C296.875,154.21,291.682,151,286,151   s-10.875,3.21-13.417,8.292C265.888,172.682,252.429,181,237.459,181H182.509z M288.331,369.544L301,382.213V406l-24.648-18.486   L288.331,369.544z M256,331c5.093,0,10.099-0.372,15-1.076v11.534l-15,22.5l-15-22.5v-11.534C245.901,330.628,250.907,331,256,331z    M223.668,369.544l11.979,17.969L211,406v-23.787L223.668,369.544z M256,30c124.617,0,226,101.383,226,226   c0,74.051-35.8,139.896-91,181.141V436c0-39.159-30.172-71.385-68.486-74.699L301,339.787v-18.932   c35.443-16.882,60-53.053,60-94.855v-30c0-57.897-47.103-105-105-105c-57.897,0-105,47.103-105,105v30   c0,41.802,24.557,77.973,60,94.855v18.932l-21.514,21.514C151.172,364.615,121,396.841,121,436v1.141   C65.8,395.896,30,330.05,30,256C30,131.383,131.383,30,256,30z"/>
	<path d="M256,280.271c12.111,0,23-6.729,28.416-17.562c3.705-7.41,0.702-16.42-6.708-20.125c-7.409-3.704-16.42-0.701-20.125,6.708   c-0.302,0.604-0.909,0.979-1.583,0.979s-1.282-0.375-1.583-0.979c-3.705-7.409-12.716-10.413-20.125-6.708   c-7.41,3.705-10.413,12.715-6.708,20.125C233,273.541,243.889,280.271,256,280.271z"/>
</g>















</svg>
