<?xml version="1.0" encoding="iso-8859-1"?>
<!-- Generator: Adobe Illustrator 21.0.0, SVG Export Plug-In . SVG Version: 6.00 Build 0)  -->
<svg xmlns="http://www.w3.org/2000/svg" xmlns:xlink="http://www.w3.org/1999/xlink" version="1.1" id="Capa_1" x="0px" y="0px" viewBox="0 0 512 512" style="enable-background:new 0 0 512 512;" xml:space="preserve" width="512" height="512">
<g>
	<path d="M460.949,303.736C474.166,286.221,482,264.5,482,241c0-5.093-0.375-10.099-1.086-15H497c8.284,0,15-6.716,15-15   s-6.716-15-15-15h-25.241C454.715,160.557,418.2,136,376,136c-41.802,0-77.973,24.557-94.855,60h-50.29   c-16.882-35.443-53.053-60-94.855-60c-42.2,0-78.715,24.557-95.759,60H15c-8.284,0-15,6.716-15,15s6.716,14.99,15,14.99h16.086   C30.375,230.891,30,235.908,30,241c0,23.5,7.834,45.221,21.051,62.736L4.394,350.393c-5.858,5.858-5.858,15.355,0,21.213   c5.857,5.858,15.355,5.859,21.213,0l46.718-46.717C90.065,338.136,112.122,346,136,346c41.802,0,77.973-24.557,94.855-60h50.29   c16.882,35.443,53.053,60,94.855,60c23.878,0,45.935-7.864,63.676-21.111l46.718,46.718c5.857,5.858,15.355,5.859,21.213,0   c5.858-5.858,5.858-15.355,0-21.213L460.949,303.736z M136,316c-41.907,0-76-33.645-76-75s34.093-75,76-75   c41.355,0,75,33.645,75,75S177.355,316,136,316z M239.924,256c0.704-4.901,1.076-9.907,1.076-15s-0.372-10.109-1.076-15.01h32.152   C271.372,230.891,271,235.908,271,241s0.372,10.099,1.076,15H239.924z M301,241c0-41.355,33.645-75,75-75c41.906,0,76,33.645,76,75   s-34.094,75-76,75C334.645,316,301,282.355,301,241z"/>
</g>















</svg>
