<?xml version="1.0" encoding="iso-8859-1"?>
<!-- Generator: Adobe Illustrator 21.0.0, SVG Export Plug-In . SVG Version: 6.00 Build 0)  -->
<svg xmlns="http://www.w3.org/2000/svg" xmlns:xlink="http://www.w3.org/1999/xlink" version="1.1" id="Capa_1" x="0px" y="0px" viewBox="0 0 512 512" style="enable-background:new 0 0 512 512;" xml:space="preserve" width="512" height="512">
<g>
	<path d="M15,512h362c8.284,0,15-6.716,15-15V105c0-3.868-1.526-7.742-4.396-10.609L297.609,4.396C294.899,1.685,291.094,0,287,0H15   C6.716,0,0,6.716,0,15v482C0,505.284,6.716,512,15,512z M302,51.213L340.787,90H302V51.213z M30,30h242v75c0,8.284,6.716,15,15,15   h75v362H30V30z"/>
	<path d="M75,120h152c8.284,0,15-6.716,15-15s-6.716-15-15-15H75c-8.284,0-15,6.716-15,15S66.716,120,75,120z"/>
	<path d="M317,270h-30c-8.284,0-15,6.716-15,15s6.716,15,15,15h30c8.284,0,15-6.716,15-15S325.284,270,317,270z"/>
	<path d="M317,330h-30c-8.284,0-15,6.716-15,15s6.716,15,15,15h30c8.284,0,15-6.716,15-15S325.284,330,317,330z"/>
	<path d="M497,60h-60c-8.284,0-15,6.716-15,15v271c0,1.652,0.342,3.457,0.77,4.744l30,90C454.812,446.869,460.544,451,467,451   s12.188-4.131,14.23-10.256l30-90c0.461-1.387,0.77-3.159,0.77-4.744V75C512,66.716,505.284,60,497,60z M482,90v241h-30V90H482z    M457.811,361h18.377L467,388.566L457.811,361z"/>
	<path d="M317,195c0-8.284-6.716-15-15-15h-60c-8.284,0-15,6.716-15,15s6.716,15,15,15h60C310.284,210,317,203.284,317,195z"/>
	<path d="M135,225v-15h15c8.284,0,15-6.716,15-15s-6.716-15-15-15h-15v-15c0-8.284-6.716-15-15-15s-15,6.716-15,15v15H90   c-8.284,0-15,6.716-15,15s6.716,15,15,15h15v15c0,8.284,6.716,15,15,15S135,233.284,135,225z"/>
	<circle cx="227" cy="285" r="15"/>
	<circle cx="227" cy="345" r="15"/>
	<path d="M167,270h-32c-8.284,0-15,6.716-15,15s6.716,15,15,15h32c8.284,0,15-6.716,15-15S175.284,270,167,270z"/>
	<path d="M167,330h-32c-8.284,0-15,6.716-15,15s6.716,15,15,15h32c8.284,0,15-6.716,15-15S175.284,330,167,330z"/>
	<path d="M167,390h-32c-8.284,0-15,6.716-15,15s6.716,15,15,15h32c8.284,0,15-6.716,15-15S175.284,390,167,390z"/>
	<circle cx="75" cy="285" r="15"/>
	<circle cx="75" cy="345" r="15"/>
	<circle cx="75" cy="405" r="15"/>
</g>















</svg>
