<?xml version="1.0" encoding="iso-8859-1"?>
<!-- Generator: Adobe Illustrator 21.0.0, SVG Export Plug-In . SVG Version: 6.00 Build 0)  -->
<svg xmlns="http://www.w3.org/2000/svg" xmlns:xlink="http://www.w3.org/1999/xlink" version="1.1" id="Capa_1" x="0px" y="0px" viewBox="0 0 512 512" style="enable-background:new 0 0 512 512;" xml:space="preserve" width="512" height="512">
<g>
	<path d="M316,30h-17.57C292.239,12.539,275.556,0,256,0s-36.239,12.539-42.43,30H196c-8.284,0-15,6.716-15,15v15H76   c-8.284,0-15,6.716-15,15v422c0,8.284,6.716,15,15,15h360c8.284,0,15-6.716,15-15V75c0-8.284-6.716-15-15-15H331V45   C331,36.716,324.284,30,316,30z M211,60h15c8.284,0,15-6.716,15-15c0-8.271,6.729-15,15-15s15,6.729,15,15c0,8.284,6.716,15,15,15   h15v30h-90V60z M421,90v392H91V90h90v15c0,8.284,6.716,15,15,15h120c8.284,0,15-6.716,15-15V90H421z"/>
	<path d="M181,165c0,8.284,6.716,15,15,15h180c8.284,0,15-6.716,15-15s-6.716-15-15-15H196C187.716,150,181,156.716,181,165z"/>
	<circle cx="136" cy="165" r="15"/>
	<path d="M376,210H196c-8.284,0-15,6.716-15,15s6.716,15,15,15h180c8.284,0,15-6.716,15-15S384.284,210,376,210z"/>
	<circle cx="136" cy="225" r="15"/>
	<path d="M376,270H196c-8.284,0-15,6.716-15,15s6.716,15,15,15h180c8.284,0,15-6.716,15-15S384.284,270,376,270z"/>
	<circle cx="136" cy="285" r="15"/>
	<path d="M376,330H136c-8.284,0-15,6.716-15,15v92c0,8.284,6.716,15,15,15h240c8.284,0,15-6.716,15-15v-92   C391,336.716,384.284,330,376,330z M361,422H151v-62h210V422z"/>
</g>















</svg>
