<?xml version="1.0" encoding="iso-8859-1"?>
<!-- Generator: Adobe Illustrator 21.0.0, SVG Export Plug-In . SVG Version: 6.00 Build 0)  -->
<svg xmlns="http://www.w3.org/2000/svg" xmlns:xlink="http://www.w3.org/1999/xlink" version="1.1" id="Capa_1" x="0px" y="0px" viewBox="0 0 511.996 511.996" style="enable-background:new 0 0 511.996 511.996;" xml:space="preserve" width="512" height="512">
<g>
	<path d="M77.191,420.997h357.43c20.928,0,40.567-8.18,55.303-23.034c14.394-14.51,22.231-33.64,22.069-53.868   c-0.22-27.193-5.218-54.315-14.855-80.613C458.851,159.021,361.897,89.457,252.19,91.025C112.835,93.069,0,206.514,0,345.997   l0.001,0.665C0.116,387.65,34.743,420.997,77.191,420.997z M241,375.997c0-8.271,6.729-15,15-15s15,6.729,15,15s-6.729,15-15,15   S241,384.268,241,375.997z M252.63,121.022c96.588-1.417,182.761,61.17,216.34,152.784c8.451,23.058,12.833,46.788,13.024,70.53   c0.097,12.168-4.65,23.71-13.369,32.499c-9.059,9.132-21.135,14.162-34.004,14.162H298.42c1.665-4.695,2.58-9.742,2.58-15   c0-6.919-1.573-13.477-4.375-19.339l99.642-98.806C412.554,283.368,422,313.605,422,345.997c0,8.284,6.716,15,15,15s15-6.716,15-15   c0-107.523-87.925-195-196-195c-108.075,0-196,87.477-196,195c0,8.284,6.716,15,15,15s15-6.716,15-15c0-90.981,74.467-165,166-165   c48.061,0,91.409,20.414,121.75,52.968L331,280.323v-24.326c0-8.284-6.716-15-15-15s-15,6.716-15,15v30   c0,6.537,4.188,12.081,10.022,14.136l-35.583,35.284c-5.887-2.832-12.481-4.42-19.439-4.42c-24.813,0-45,20.187-45,45   c0,5.258,0.915,10.305,2.58,15H77.191c-25.512,0-47.123-20.342-47.19-44.413L30,345.997C30,223.745,129.872,122.822,252.63,121.022   z"/>
	<path d="M196,300.997c8.284,0,15-6.716,15-15v-30c0-8.284-6.716-15-15-15s-15,6.716-15,15v30   C181,294.281,187.716,300.997,196,300.997z"/>
	<path d="M256,300.997c8.284,0,15-6.716,15-15v-30c0-8.284-6.716-15-15-15s-15,6.716-15,15v30   C241,294.281,247.716,300.997,256,300.997z"/>
</g>















</svg>
