<?xml version="1.0" encoding="iso-8859-1"?>
<!-- Generator: Adobe Illustrator 21.0.0, SVG Export Plug-In . SVG Version: 6.00 Build 0)  -->
<svg xmlns="http://www.w3.org/2000/svg" xmlns:xlink="http://www.w3.org/1999/xlink" version="1.1" id="Capa_1" x="0px" y="0px" viewBox="0 0 512 512" style="enable-background:new 0 0 512 512;" xml:space="preserve" width="512" height="512">
<g>
	<path d="M256,0C115.041,0,0,115.05,0,256c0,140.959,115.05,256,256,256c140.959,0,256-115.049,256-256C512,115.041,396.951,0,256,0   z M256,482C131.383,482,30,380.617,30,256S131.383,30,256,30c124.617,0,226,101.383,226,226S380.617,482,256,482z"/>
	<path d="M376,121c-24.813,0-45,20.187-45,45c0,19.555,12.541,36.228,30,42.42V226c0,8.271-6.729,15-15,15l-180,0   c-24.813,0-45,20.187-45,45v17.58c-17.459,6.192-30,22.865-30,42.42c0,24.813,20.187,45,45,45s45-20.187,45-45   c0-19.555-12.541-36.228-30-42.42V286c0-8.271,6.729-15.01,15-15.01l180,0c24.813,0,45-20.177,45-44.99V208.42   c17.459-6.192,30-22.865,30-42.42C421,141.187,400.813,121,376,121z M136,361c-8.271,0-15-6.729-15-15s6.729-15,15-15   s15,6.729,15,15S144.271,361,136,361z M376,181c-8.271,0-15-6.729-15-15s6.729-15,15-15s15,6.729,15,15S384.271,181,376,181z"/>
	<path d="M215.394,146.606c5.857,5.858,15.355,5.859,21.213,0L256,127.213l19.394,19.394c5.857,5.858,15.355,5.859,21.213,0   c5.858-5.858,5.858-15.355,0-21.213L277.213,106l19.394-19.394c5.858-5.858,5.858-15.355,0-21.213   c-5.857-5.858-15.355-5.858-21.213,0L256,84.787l-19.394-19.394c-5.857-5.858-15.355-5.858-21.213,0   c-5.858,5.858-5.858,15.355,0,21.213L234.787,106l-19.394,19.394C209.536,131.251,209.536,140.749,215.394,146.606z"/>
	<path d="M95.394,206.606c5.857,5.858,15.355,5.859,21.213,0L136,187.213l19.394,19.394c5.857,5.858,15.355,5.859,21.213,0   c5.858-5.858,5.858-15.355,0-21.213L157.213,166l19.394-19.394c5.858-5.858,5.858-15.355,0-21.213   c-5.857-5.858-15.355-5.858-21.213,0L136,144.787l-19.394-19.394c-5.857-5.858-15.355-5.858-21.213,0   c-5.858,5.858-5.858,15.355,0,21.213L114.787,166l-19.394,19.394C89.536,191.251,89.536,200.749,95.394,206.606z"/>
	<path d="M296.606,365.394c-5.857-5.858-15.355-5.858-21.213,0L256,384.787l-19.394-19.394c-5.857-5.858-15.355-5.858-21.213,0   c-5.858,5.858-5.858,15.355,0,21.213L234.787,406l-19.394,19.394c-5.858,5.858-5.858,15.355,0,21.213   c5.857,5.858,15.355,5.859,21.213,0L256,427.213l19.394,19.394c5.857,5.858,15.355,5.859,21.213,0   c5.858-5.858,5.858-15.355,0-21.213L277.213,406l19.394-19.394C302.465,380.749,302.465,371.251,296.606,365.394z"/>
	<path d="M416.606,305.394c-5.857-5.858-15.355-5.858-21.213,0L376,324.787l-19.394-19.394c-5.857-5.858-15.355-5.858-21.213,0   c-5.858,5.858-5.858,15.355,0,21.213L354.787,346l-19.394,19.394c-5.858,5.858-5.858,15.355,0,21.213   c5.857,5.858,15.355,5.859,21.213,0L376,367.213l19.394,19.394c5.857,5.858,15.355,5.859,21.213,0   c5.858-5.858,5.858-15.355,0-21.213L397.213,346l19.394-19.394C422.465,320.749,422.465,311.251,416.606,305.394z"/>
</g>















</svg>
