<?xml version="1.0" encoding="iso-8859-1"?>
<!-- Generator: Adobe Illustrator 21.0.0, SVG Export Plug-In . SVG Version: 6.00 Build 0)  -->
<svg xmlns="http://www.w3.org/2000/svg" xmlns:xlink="http://www.w3.org/1999/xlink" version="1.1" id="Capa_1" x="0px" y="0px" viewBox="0 0 512 512" style="enable-background:new 0 0 512 512;" xml:space="preserve" width="512" height="512">
<g>
	<path d="M135,122h120c8.284,0,15-6.716,15-15s-6.716-15-15-15H135c-8.284,0-15,6.716-15,15S126.716,122,135,122z"/>
	<path d="M210,287c0-8.284-6.716-15-15-15h-60c-8.284,0-15,6.716-15,15s6.716,15,15,15h60C203.284,302,210,295.284,210,287z"/>
	<path d="M135,182h210c8.284,0,15-6.716,15-15s-6.716-15-15-15H135c-8.284,0-15,6.716-15,15S126.716,182,135,182z"/>
	<path d="M135,242h210c8.284,0,15-6.716,15-15s-6.716-15-15-15H135c-8.284,0-15,6.716-15,15S126.716,242,135,242z"/>
	<path d="M497,302h-77V107c0-3.95-1.608-7.758-4.277-10.489l-90-92c-0.019-0.02-0.04-0.036-0.059-0.055   C322.948,1.708,319.174,0,315,0H75c-8.284,0-15,6.716-15,15v47H15C6.716,62,0,68.716,0,77v420c0,8.284,6.716,15,15,15h330   c8.284,0,15-6.716,15-15v-45h45c8.284,0,15-6.716,15-15v-45h77c8.284,0,15-6.716,15-15v-60C512,308.716,505.284,302,497,302z    M330,51.783L369.342,92H330V51.783z M330,482H30V92h30v345c0,8.284,6.716,15,15,15h255V482z M390,422H90V30h210v77   c0,8.284,6.716,15,15,15h75v180H285c-1.557,0-3.293,0.293-4.743,0.77l-90,30C184.131,334.812,180,340.543,180,347   s4.131,12.188,10.257,14.23l90,30c0.036,0.012,0.072,0.02,0.108,0.031c1.364,0.443,3.079,0.738,4.635,0.738h105V422z M242.434,347   L270,337.812v18.377L242.434,347z M482,362H300v-30h182V362z"/>
</g>















</svg>
