<?xml version="1.0" encoding="iso-8859-1"?>
<!-- Generator: Adobe Illustrator 21.0.0, SVG Export Plug-In . SVG Version: 6.00 Build 0)  -->
<svg xmlns="http://www.w3.org/2000/svg" xmlns:xlink="http://www.w3.org/1999/xlink" version="1.1" id="Capa_1" x="0px" y="0px" viewBox="0 0 512 512" style="enable-background:new 0 0 512 512;" xml:space="preserve" width="512" height="512">
<g>
	<path d="M196,422c-8.284,0-15,6.716-15,15v15H46c-8.284,0-15,6.716-15,15s6.716,15,15,15h135v15c0,8.284,6.716,15,15,15h120   c8.284,0,15-6.716,15-15v-15h135c8.284,0,15-6.716,15-15s-6.716-15-15-15H331v-15c0-8.284-6.716-15-15-15h-45v-30h195   c8.284,0,15-6.716,15-15V106c0-8.284-6.716-15-15-15H268.43L231.499,8.85C229.078,3.464,223.723,0,217.818,0H46   c-8.284,0-15,6.716-15,15v362c0,8.284,6.716,15,15,15h195v30H196z M208.115,30l27.423,61H61V30H208.115z M61,121h390v241H61V121z    M301,482h-90v-30h90V482z"/>
	<path d="M346,272h60c8.284,0,15-6.716,15-15s-6.716-15-15-15h-60c-8.284,0-15,6.716-15,15S337.716,272,346,272z"/>
	<path d="M346,332h60c8.284,0,15-6.716,15-15s-6.716-15-15-15h-60c-8.284,0-15,6.716-15,15S337.716,332,346,332z"/>
</g>















</svg>
