<?xml version="1.0" encoding="iso-8859-1"?>
<!-- Generator: Adobe Illustrator 21.0.0, SVG Export Plug-In . SVG Version: 6.00 Build 0)  -->
<svg xmlns="http://www.w3.org/2000/svg" xmlns:xlink="http://www.w3.org/1999/xlink" version="1.1" id="Capa_1" x="0px" y="0px" viewBox="0 0 512 512" style="enable-background:new 0 0 512 512;" xml:space="preserve" width="512" height="512">
<g>
	<path d="M166,331c24.813,0,45-20.187,45-45s-20.187-45-45-45s-45,20.187-45,45S141.186,331,166,331z M166,271   c8.271,0,15,6.729,15,15s-6.729,15-15,15s-15-6.729-15-15S157.728,271,166,271z"/>
	<path d="M196,120h151c8.284,0,15-6.716,15-15s-6.716-15-15-15H196c-8.284,0-15,6.716-15,15S187.716,120,196,120z"/>
	<path d="M121,383.469V497c0,8.284,6.716,15,15,15h361c8.284,0,15-6.716,15-15V105c0-4.069-1.679-7.893-4.394-10.607l-90-90   c-0.001-0.001-0.002-0.002-0.004-0.003C414.909,1.697,411.09,0,407,0H136c-8.284,0-15,6.716-15,15v173.531   C54.004,210.584,5.488,273.714,3.042,276.944c-4.056,5.356-4.056,12.756,0,18.111C5.488,298.286,54.004,361.416,121,383.469z    M422,51.213L460.787,90H422V51.213z M151,30h241v75c0,8.284,6.716,15,15,15h75v362H151v-91.869c4.936,0.559,9.936,0.869,15,0.869   c5.067,0,10.067-0.31,15-0.87V407c0,8.284,6.716,15,15,15h241c8.284,0,15-6.716,15-15V165c0-8.284-6.716-15-15-15H196   c-8.284,0-15,6.716-15,15v16.87c-4.933-0.56-9.933-0.87-15-0.87c-5.064,0-10.064,0.31-15,0.869V30z M328.021,294.971   c3.972-5.321,3.972-12.62,0-17.941c-2.412-3.232-50.245-66.388-117.021-88.475V180h211v212H211v-8.555   C277.776,361.358,325.609,298.203,328.021,294.971z M166,211c59.441,0,111.797,53.357,130.596,75.015   C264.26,323.376,215.798,361,166,361c-59.421,0-112.356-53.271-131.473-75C53.651,264.263,106.584,211,166,211z"/>
</g>















</svg>
