<?xml version="1.0" encoding="iso-8859-1"?>
<!-- Generator: Adobe Illustrator 21.0.0, SVG Export Plug-In . SVG Version: 6.00 Build 0)  -->
<svg xmlns="http://www.w3.org/2000/svg" xmlns:xlink="http://www.w3.org/1999/xlink" version="1.1" id="Capa_1" x="0px" y="0px" viewBox="0 0 512.001 512.001" style="enable-background:new 0 0 512.001 512.001;" xml:space="preserve" width="512" height="512">
<g>
	<path d="M466.144,447.914C495.456,415.602,512,373.808,512,331c0-73.034-48.543-138.788-121.821-166.519   C381.16,72.391,297.524,0,196,0C86.084,0,0,83.604,0,181c0,42.916,16.16,83.531,45.827,115.941L4.799,335.004   c-4.523,4.196-6.016,10.733-3.762,16.476C3.29,357.223,8.831,361,15,361h108.705c15.29,84.316,94.638,151,192.295,151h181   c6.17,0,11.71-3.777,13.963-9.52c2.254-5.743,0.762-12.28-3.762-16.476L466.144,447.914z M77.584,286.337   C46.9,258.069,30,220.659,30,181c0-83.262,74.467-151,166-151c90.981,0,165,67.738,165,151c0,82.71-74.019,150-165,150   c-5.277,0-142.653,0-142.775,0l24.397-22.634C84.03,302.422,84.019,292.265,77.584,286.337z M316,482   c-78.448,0-146.228-51.956-161.685-121H196c104.091,0,185.736-74.141,194.234-164.018C445.854,222.326,482,274.089,482,331   c0,39.72-17.344,78.478-47.584,106.337c-3.076,2.834-4.829,6.823-4.837,11.006c-0.007,4.183,1.732,8.178,4.799,11.023L458.776,482   H316z"/>
	<path d="M106,121h180c8.284,0,15-6.716,15-15s-6.716-15-15-15H106c-8.284,0-15,6.716-15,15S97.716,121,106,121z"/>
	<path d="M106,181h180c8.284,0,15-6.716,15-15s-6.716-15-15-15H106c-8.284,0-15,6.716-15,15S97.716,181,106,181z"/>
	<path d="M106,241h180c8.284,0,15-6.716,15-15s-6.716-15-15-15H106c-8.284,0-15,6.716-15,15S97.716,241,106,241z"/>
</g>















</svg>
