<?xml version="1.0" encoding="iso-8859-1"?>
<!-- Generator: Adobe Illustrator 21.0.0, SVG Export Plug-In . SVG Version: 6.00 Build 0)  -->
<svg xmlns="http://www.w3.org/2000/svg" xmlns:xlink="http://www.w3.org/1999/xlink" version="1.1" id="Capa_1" x="0px" y="0px" viewBox="0 0 512.046 512.046" style="enable-background:new 0 0 512.046 512.046;" xml:space="preserve" width="512" height="512">
<g>
	<path d="M290.424,115.585c5.854-5.853,5.858-15.356,0-21.213l-63.64-63.639c-5.857-5.858-15.355-5.858-21.213,0   C201.704,34.6,80.158,156.146,57.079,179.225c-76.103,76.102-76.108,199.665,0,275.772c76.017,76.018,199.73,76.041,275.771,0   l148.492-148.493c5.858-5.858,5.858-15.355,0-21.213l-63.64-63.64c-5.853-5.854-15.357-5.857-21.213,0   c-2.287,2.287-141.036,141.036-148.492,148.492c-29.243,29.243-76.825,29.242-106.066,0c-29.242-29.243-29.242-76.824,0-106.066   L290.424,115.585z M216.178,62.552l42.427,42.426l-42.427,42.427l-42.427-42.427L216.178,62.552z M407.096,253.471l42.427,42.426   l-42.427,42.427l-42.427-42.427L407.096,253.471z M120.719,391.357c40.935,40.936,107.548,40.943,148.492,0l74.246-74.246   l42.427,42.427l-74.246,74.246c-64.325,64.325-169.003,64.342-233.346,0c-64.377-64.377-64.383-168.963,0-233.345l74.246-74.246   l42.427,42.427l-74.246,74.246C79.779,283.803,79.779,350.417,120.719,391.357z"/>
	<path d="M309.823,198.241c4.038,5.964,11.729,8.206,18.33,5.378l148.492-63.64c9.738-4.174,12.199-16.892,4.697-24.394   l-31.82-31.82l58.13-58.129c5.116-5.116,5.852-13.156,1.747-19.115c-4.103-5.958-11.878-8.14-18.48-5.183L337.33,70.074   c-4.505,2.016-7.729,6.119-8.624,10.972c-0.896,4.853,0.654,9.836,4.145,13.326l31.82,31.82l-53.033,53.033   C306.553,184.309,305.792,192.287,309.823,198.241z M428.902,61.959l-11.199,11.199c-2.813,2.813-4.394,6.628-4.394,10.607   s1.58,7.793,4.394,10.607l26.76,26.76l-56.536,24.23l8.563-8.564c5.854-5.853,5.858-15.356,0-21.213L369.465,88.56L428.902,61.959z   "/>
</g>















</svg>
