<?xml version="1.0" encoding="iso-8859-1"?>
<!-- Generator: Adobe Illustrator 21.0.0, SVG Export Plug-In . SVG Version: 6.00 Build 0)  -->
<svg xmlns="http://www.w3.org/2000/svg" xmlns:xlink="http://www.w3.org/1999/xlink" version="1.1" id="Capa_1" x="0px" y="0px" viewBox="0 0 512 512" style="enable-background:new 0 0 512 512;" xml:space="preserve" width="512" height="512">
<g>
	<path d="M0,436c0,8.284,6.716,15,15,15h211c8.284,0,15-6.716,15-15V76c0-8.284-6.716-15-15-15H15C6.716,61,0,67.716,0,76V436z    M211,361H30V151h181V361z M30,421v-30h181v30H30z M211,91v30H30V91H211z"/>
	<path d="M497,61H286c-8.284,0-15,6.716-15,15v360c0,8.284,6.716,15,15,15h211c8.284,0,15-6.716,15-15V76   C512,67.716,505.284,61,497,61z M301,151h181v210H301V151z M482,91v30H301V91H482z M301,421v-30h181v30H301z"/>
	<path d="M65.879,297.889l-4.885,12.742c-2.966,7.735,0.901,16.41,8.637,19.375c7.737,2.964,16.41-0.901,19.375-8.637L96.814,301   h47.541l7.6,20.267c2.909,7.759,11.556,11.687,19.312,8.778c7.757-2.909,11.688-11.555,8.778-19.312l-4.84-12.907   C178.726,295.082,181,290.811,181,286c0-8.284-6.716-15-15-15h-0.855l-30.1-80.267c-2.188-5.836-7.758-9.71-13.99-9.733   c-0.019,0-0.036,0-0.056,0c-6.21,0-11.781,3.829-14.005,9.631L76.186,271H75c-8.284,0-15,6.716-15,15   C60,290.848,62.31,295.147,65.879,297.889z M120.846,238.309L133.105,271h-24.791L120.846,238.309z"/>
	<path d="M418.723,242.559C420.867,237.348,422,231.756,422,226c0-24.857-21.096-45-46-45h-30c-8.284,0-15,6.716-15,15   c0,14.518,0,105.386,0,120c0,8.284,6.716,15,15,15h61c24.813,0,45-20.187,45-45C452,265.242,437.868,247.731,418.723,242.559z    M361,211h15c8.523,0,16,7.009,16,15s-7.477,15-16,15h-15V211z M407,301h-46v-30c8.841,0,36.975,0,46,0c8.271,0,15,6.729,15,15   S415.271,301,407,301z"/>
</g>















</svg>
