<?xml version="1.0" encoding="iso-8859-1"?>
<!-- Generator: Adobe Illustrator 21.0.0, SVG Export Plug-In . SVG Version: 6.00 Build 0)  -->
<svg xmlns="http://www.w3.org/2000/svg" xmlns:xlink="http://www.w3.org/1999/xlink" version="1.1" id="Capa_1" x="0px" y="0px" viewBox="0 0 512 512" style="enable-background:new 0 0 512 512;" xml:space="preserve" width="512" height="512">
<g>
	<path d="M497,60h-76V15c0-8.284-6.716-15-15-15H106c-8.284,0-15,6.716-15,15v45H15C6.716,60,0,66.716,0,75v330   c0,8.284,6.716,15,15,15h166v62h-45c-8.284,0-15,6.716-15,15s6.716,15,15,15h240c8.284,0,15-6.716,15-15s-6.716-15-15-15h-45v-62   h166c8.284,0,15-6.716,15-15V75C512,66.716,505.284,60,497,60z M482,90v240h-61V90H482z M121,30h270v300H121V30z M91,90v240H30V90   H91z M301,482h-90v-62h90V482z M30,390v-30h452v30H30z"/>
	<path d="M185.394,130.606C188.322,133.536,192.161,135,196,135s7.678-1.464,10.606-4.394l45-45c5.858-5.858,5.858-15.355,0-21.213   c-5.857-5.858-15.355-5.858-21.213,0L196,98.787l-19.394-19.393c-5.857-5.858-15.355-5.858-21.213,0   c-5.858,5.858-5.858,15.355,0,21.213L185.394,130.606z"/>
	<path d="M185.394,220.606C188.322,223.536,192.161,225,196,225s7.678-1.464,10.606-4.394l45-45c5.858-5.858,5.858-15.355,0-21.213   c-5.857-5.858-15.355-5.858-21.213,0L196,188.787l-19.394-19.393c-5.857-5.858-15.355-5.858-21.213,0   c-5.858,5.858-5.858,15.355,0,21.213L185.394,220.606z"/>
	<path d="M185.394,310.606C188.322,313.536,192.161,315,196,315s7.678-1.464,10.606-4.394l45-45c5.858-5.858,5.858-15.355,0-21.213   c-5.857-5.858-15.355-5.858-21.213,0L196,278.787l-19.394-19.393c-5.857-5.858-15.355-5.858-21.213,0   c-5.858,5.858-5.858,15.355,0,21.213L185.394,310.606z"/>
	<path d="M286,120h60c8.284,0,15-6.716,15-15s-6.716-15-15-15h-60c-8.284,0-15,6.716-15,15S277.716,120,286,120z"/>
	<path d="M286,210h60c8.284,0,15-6.716,15-15s-6.716-15-15-15h-60c-8.284,0-15,6.716-15,15S277.716,210,286,210z"/>
	<path d="M286,300h60c8.284,0,15-6.716,15-15s-6.716-15-15-15h-60c-8.284,0-15,6.716-15,15S277.716,300,286,300z"/>
</g>















</svg>
