<?xml version="1.0" encoding="iso-8859-1"?>
<!-- Generator: Adobe Illustrator 21.0.0, SVG Export Plug-In . SVG Version: 6.00 Build 0)  -->
<svg xmlns="http://www.w3.org/2000/svg" xmlns:xlink="http://www.w3.org/1999/xlink" version="1.1" id="Capa_1" x="0px" y="0px" viewBox="0 0 512 512" style="enable-background:new 0 0 512 512;" xml:space="preserve" width="512" height="512">
<g>
	<path d="M497,16H15C6.716,16,0,22.716,0,31v360c0,8.284,6.716,15,15,15h166v60h-45c-8.284,0-15,6.716-15,15s6.716,15,15,15h240   c8.284,0,15-6.716,15-15s-6.716-15-15-15h-45v-60h166c8.284,0,15-6.716,15-15V31C512,22.716,505.284,16,497,16z M482,46v270h-46   V205.623c9.325-10.578,15-24.447,15-39.623c0-25.92-32.739-67.076-48.836-85.018C399.319,77.811,395.26,76,391,76   s-8.319,1.811-11.164,4.982C363.598,99.081,331,139.967,331,166c0,15.176,5.675,29.045,15,39.623V316h-30V91   c0-8.284-6.716-15-15-15h-90c-8.284,0-15,6.716-15,15v225h-30V181c0-1.586-0.312-3.379-0.77-4.743l-30-90   C133.188,80.131,127.456,76,121,76s-12.188,4.131-14.23,10.257l-30,90C76.335,177.565,76,179.355,76,181v135H30V46H482z M376,316   v-91.899c4.796,1.239,9.822,1.899,15,1.899s10.204-0.66,15-1.899V316H376z M391,196c-16.542,0-30-13.458-30-30   c0-9.56,14.095-31.886,29.994-51.767C406.935,134.222,421,156.708,421,166C421,182.542,407.542,196,391,196z M226,316v-30h15   c8.284,0,15-6.716,15-15s-6.716-15-15-15h-15v-30h15c8.284,0,15-6.716,15-15s-6.716-15-15-15h-15v-30h15c8.284,0,15-6.716,15-15   s-6.716-15-15-15h-15v-30h60v210H226z M106,316V196h30v120H106z M111.811,166L121,138.434L130.189,166H111.811z M301,466h-90v-60   h90V466z M30,376v-30h452v30H30z"/>
</g>















</svg>
