<?xml version="1.0" encoding="iso-8859-1"?>
<!-- Generator: Adobe Illustrator 21.0.0, SVG Export Plug-In . SVG Version: 6.00 Build 0)  -->
<svg xmlns="http://www.w3.org/2000/svg" xmlns:xlink="http://www.w3.org/1999/xlink" version="1.1" id="Capa_1" x="0px" y="0px" viewBox="0 0 512 512" style="enable-background:new 0 0 512 512;" xml:space="preserve" width="512" height="512">
<g>
	<path d="M451,0c-33.084,0-60,26.926-60,60.01H151V15c0-8.284-6.716-15-15-15H76c-8.284,0-15,6.716-15,15v45.01H15   C6.716,60.01,0,66.716,0,75v272c0,8.284,6.716,15,15,15h436c16.003,0,31.19-6.185,42.765-17.414   C505.524,333.177,512,318.053,512,302V60C512,26.576,483.888,0,451,0z M91,30h30v182H91V30z M115.189,242L106,269.566L96.812,242   H115.189z M30,90h31v137c0,1.575,0.299,3.282,0.738,4.635c0.012,0.036,0.019,0.072,0.031,0.108l30,90   c2.041,6.122,7.767,10.261,14.218,10.266H30V90z M482,302c0,16.261-14.196,30.01-31,30.01H106.012   c6.451-0.005,12.177-4.145,14.218-10.266l30-90c0.437-1.303,0.77-3.115,0.77-4.743V90h240v212c0,8.284,6.716,15,15,15   s15-6.716,15-15c0-16.542,13.458-30,30-30C467.804,272,482,285.738,482,302C482,302,482,302,482,302z M482,250.435   c-9.337-5.499-19.975-8.435-31-8.435c-10.92,0-21.17,2.933-30,8.052V60c0-16.542,13.458-30,30-30c16.804,0,31,13.738,31,30V250.435   z"/>
	<path d="M436,392H15c-8.284,0-15,6.716-15,15v90c0,8.284,6.716,15,15,15h421c8.284,0,15-6.716,15-15v-90   C451,398.716,444.284,392,436,392z M421,482H30v-60h31v15c0,8.284,6.716,15,15,15s15-6.716,15-15v-15h30v15c0,8.284,6.716,15,15,15   s15-6.716,15-15v-15h30v15c0,8.284,6.716,15,15,15s15-6.716,15-15v-15h30v15c0,8.284,6.716,15,15,15s15-6.716,15-15v-15h30v15   c0,8.284,6.716,15,15,15s15-6.716,15-15v-15h30v15c0,8.284,6.716,15,15,15s15-6.716,15-15v-15h30V482z"/>
	<path d="M346,120H196c-8.284,0-15,6.716-15,15v92c0,8.284,6.716,15,15,15h150c8.284,0,15-6.716,15-15v-92   C361,126.716,354.284,120,346,120z M331,212H211v-62h120V212z"/>
	<path d="M346,272H196c-8.284,0-15,6.716-15,15s6.716,15,15,15h150c8.284,0,15-6.716,15-15S354.284,272,346,272z"/>
</g>















</svg>
