<?xml version="1.0" encoding="iso-8859-1"?>
<!-- Generator: Adobe Illustrator 21.0.0, SVG Export Plug-In . SVG Version: 6.00 Build 0)  -->
<svg xmlns="http://www.w3.org/2000/svg" xmlns:xlink="http://www.w3.org/1999/xlink" version="1.1" id="Capa_1" x="0px" y="0px" viewBox="0 0 512.001 512.001" style="enable-background:new 0 0 512.001 512.001;" xml:space="preserve" width="512" height="512">
<g>
	<path d="M511.265,194.414c-1.899-5.84-7.166-9.933-13.295-10.33l-166.679-10.801l-61.828-155.33   c-2.271-5.707-7.794-9.453-13.937-9.453s-11.665,3.746-13.937,9.453l-61.828,155.333L14.025,184.085   c-6.117,0.398-11.377,4.48-13.282,10.308c-1.904,5.827-0.071,12.227,4.629,16.163L132.95,317.353L91.659,479.398   c-1.518,5.953,0.749,12.229,5.719,15.839c4.968,3.61,11.638,3.826,16.831,0.544l141.318-89.323l141.319,89.323   c5.202,3.288,11.871,3.06,16.831-0.544c4.97-3.611,7.236-9.887,5.719-15.839l-41.282-162.01l128.476-106.8   C511.312,206.662,513.165,200.254,511.265,194.414z M351.65,300.375c-4.451,3.7-6.376,9.63-4.946,15.238l34.316,134.675   l-117.479-74.254c-2.448-1.547-5.231-2.32-8.015-2.32s-5.566,0.773-8.015,2.32l-117.478,74.254l34.316-134.675   c1.425-5.59-0.483-11.502-4.906-15.206L53.341,211.587l137.828-8.98c5.776-0.376,10.82-4.043,12.961-9.421l51.396-129.125   l51.397,129.125c2.142,5.38,7.188,9.047,12.967,9.421l138.567,8.979L351.65,300.375z"/>
	<path d="M269.468,180.198c-2.272-5.707-7.794-9.452-13.937-9.452s-11.664,3.745-13.937,9.452l-20.106,50.504l-54.262,3.518   c-6.129,0.397-11.396,4.492-13.295,10.333s-0.043,12.25,4.682,16.174l41.824,34.739l-13.421,52.675   c-1.517,5.952,0.748,12.227,5.717,15.838c4.967,3.61,11.635,3.828,16.83,0.547l45.967-29.04l45.953,29.039   c5.192,3.281,11.859,3.065,16.83-0.545c4.969-3.61,7.234-9.886,5.718-15.838l-13.421-52.675l41.824-34.739   c4.725-3.924,6.58-10.333,4.682-16.174c-1.898-5.841-7.166-9.936-13.295-10.333l-54.247-3.517L269.468,180.198z M284.151,278.446   c-4.454,3.7-6.381,9.632-4.951,15.243l6.458,25.349l-22.113-13.974c-4.894-3.092-11.129-3.093-16.024-0.001l-22.131,13.981   l6.46-25.355c1.43-5.611-0.497-11.543-4.951-15.243l-20.137-16.726l26.128-1.693c5.777-0.375,10.824-4.041,12.966-9.42   l9.677-24.307l9.677,24.307c2.142,5.379,7.188,9.045,12.966,9.42l26.114,1.693L284.151,278.446z"/>
	<circle cx="256.001" cy="488.501" r="15"/>
	<ellipse transform="matrix(0.309 -0.9511 0.9511 0.309 -11.6907 670.6978)" cx="455.723" cy="343.394" rx="15" ry="15"/>
	<ellipse transform="matrix(0.5878 -0.809 0.809 0.5878 68.5423 351.7373)" cx="379.435" cy="108.607" rx="15" ry="15"/>
	<ellipse transform="matrix(0.809 -0.5878 0.5878 0.809 -38.5199 98.6623)" cx="132.566" cy="108.607" rx="15" ry="15"/>
	<ellipse transform="matrix(0.9511 -0.309 0.309 0.9511 -103.3616 34.1987)" cx="56.279" cy="343.394" rx="15" ry="15"/>
</g>















</svg>
