<?xml version="1.0" encoding="iso-8859-1"?>
<!-- Generator: Adobe Illustrator 21.0.0, SVG Export Plug-In . SVG Version: 6.00 Build 0)  -->
<svg xmlns="http://www.w3.org/2000/svg" xmlns:xlink="http://www.w3.org/1999/xlink" version="1.1" id="Capa_1" x="0px" y="0px" viewBox="0 0 512 512" style="enable-background:new 0 0 512 512;" xml:space="preserve" width="512" height="512">
<g>
	<path d="M30.5,482h120c18.688,0,37.609,3.014,54.718,8.717C247.584,504.839,291.71,512,336.368,512H421.5c24.813,0,45-20.187,45-45   c0-5.857-1.136-11.449-3.181-16.586C482.416,445.209,496.5,427.723,496.5,407c0-11.517-4.354-22.032-11.495-30   c7.142-7.968,11.495-18.483,11.495-30c0-11.514-4.347-22.033-11.486-30c7.14-7.967,11.486-18.486,11.486-30   c0-24.813-20.187-45-45-45h-68.346c26.862-47.91,33.056-91.644,16.785-121.694c-10.261-18.95-28.21-29.931-49.246-30.127   c-5.133-0.053-14.597,1.707-20.412,13.99c-2.28,4.818-3.76,10.546-5.632,17.798c-6.657,25.788-19.05,73.79-87.265,121.07   c-15.872,10.999-22.343,19.837-45.278,42.144C181.574,295.712,166.021,302,150.5,302h-120c-8.284,0-15,6.716-15,15v150   C15.5,475.284,22.216,482,30.5,482z M213.319,306.393c23.629-23.085,28.414-29.871,41.154-38.7   c33.268-23.058,58.714-49.336,75.632-78.105c14.386-24.465,19.926-45.923,23.592-60.122c0.736-2.851,1.576-6.105,2.343-8.664   c7.409,1.627,13.511,6.387,17.519,13.788c4.653,8.595,16.625,41.658-24.695,106.27c-1.543,2.413-2.363,5.217-2.363,8.081   c0,2.279-0.093,4.582-0.277,6.844c-0.708,8.726,6.189,16.214,14.951,16.214H451.5c8.271,0,15,6.729,15,15s-6.729,15-15,15h-30   c-8.284,0-15,6.716-15,15s6.716,15,15,15h30c8.271,0,15,6.729,15,15s-6.729,15-15,15h-30c-8.284,0-15,6.716-15,15s6.716,15,15,15   h30c8.271,0,15,6.729,15,15s-6.729,15-15,15h-30c-8.284,0-15,6.715-15,15c0,8.284,6.715,15,15,15c8.271,0,15,6.729,15,15   s-6.729,15-15,15h-85.132c-41.428,0-82.361-6.643-121.664-19.743c-15.535-5.178-32.304-8.464-49.204-9.698v-121.84   C183.631,327.668,200.525,319.188,213.319,306.393z M45.5,332h90v120h-90V332z"/>
	<path d="M361.5,75c8.284,0,15-6.716,15-15V15c0-8.284-6.716-15-15-15s-15,6.716-15,15v45C346.5,68.284,353.216,75,361.5,75z"/>
	<path d="M290.894,85.607c5.857,5.858,15.355,5.858,21.213,0c5.858-5.858,5.858-15.355,0-21.213l-30-30   c-5.857-5.858-15.355-5.858-21.213,0c-5.858,5.858-5.858,15.355,0,21.213L290.894,85.607z"/>
	<path d="M432.106,85.607l30-30c5.858-5.858,5.858-15.355,0-21.213c-5.857-5.858-15.355-5.858-21.213,0l-30,30   c-5.858,5.858-5.858,15.355,0,21.213C416.751,91.464,426.249,91.465,432.106,85.607z"/>
	<circle cx="90.5" cy="407" r="15"/>
</g>















</svg>
