<?xml version="1.0" encoding="iso-8859-1"?>
<!-- Generator: Adobe Illustrator 21.0.0, SVG Export Plug-In . SVG Version: 6.00 Build 0)  -->
<svg xmlns="http://www.w3.org/2000/svg" xmlns:xlink="http://www.w3.org/1999/xlink" version="1.1" id="Capa_1" x="0px" y="0px" viewBox="0 0 512 512" style="enable-background:new 0 0 512 512;" xml:space="preserve" width="512" height="512">
<g>
	<path d="M497,241h-46v-45c0-8.284-6.716-15-15-15H325.861L271,126.139V90h45c8.284,0,15-6.716,15-15V15c0-8.284-6.716-15-15-15H196   c-8.284,0-15,6.716-15,15v60c0,8.284,6.716,15,15,15h45v36.139L186.139,181H76c-8.284,0-15,6.716-15,15v45H15   c-8.284,0-15,6.716-15,15v60c0,8.284,6.716,15,15,15h46v46c0,8.284,6.716,15,15,15h165v30h-45c-8.284,0-15,6.716-15,15v60   c0,8.284,6.716,15,15,15h120c8.284,0,15-6.716,15-15v-60c0-8.284-6.716-15-15-15h-45v-30h165c8.284,0,15-6.716,15-15v-46h46   c8.284,0,15-6.716,15-15v-60C512,247.716,505.284,241,497,241z M211,30h90v30h-90V30z M301,482h-90v-30h90V482z M256,153.566   L298.435,196L256,238.434L213.565,196L256,153.566z M30,271h91v30H30V271z M421,362H91v-31h45c8.284,0,15-6.716,15-15v-60   c0-8.284-6.716-15-15-15H91v-30h95.139l59.254,59.254c2.929,2.929,6.768,4.393,10.606,4.393s7.678-1.464,10.606-4.393L325.861,211   H421v30h-45c-8.284,0-15,6.716-15,15v60c0,8.284,6.716,15,15,15h45V362z M482,301h-91v-30h91V301z"/>
</g>















</svg>
