<?xml version="1.0" encoding="iso-8859-1"?>
<!-- Generator: Adobe Illustrator 21.0.0, SVG Export Plug-In . SVG Version: 6.00 Build 0)  -->
<svg xmlns="http://www.w3.org/2000/svg" xmlns:xlink="http://www.w3.org/1999/xlink" version="1.1" id="Capa_1" x="0px" y="0px" viewBox="0 0 512 512" style="enable-background:new 0 0 512 512;" xml:space="preserve" width="512" height="512">
<g>
	<path d="M256,0C115.04,0,0,115.049,0,256c0,142.64,116.95,256,256,256c140.031,0,256-114.168,256-256C512,115.04,396.951,0,256,0z    M425.981,404.767l-20.91-20.91c26.77-31.403,43.141-71.298,46.341-112.867h30.079   C478.128,322.035,457.751,368.511,425.981,404.767z M451.426,241c-3.163-41.539-19.434-80.59-46.829-112.384l21.383-21.383   c31.771,36.256,52.148,82.723,55.51,133.767H451.426z M128.616,107.403L107.233,86.02C143.488,54.249,189.955,33.872,241,30.51   v30.064C199.461,63.738,160.41,80.008,128.616,107.403z M86.019,404.767C54.249,368.511,33.872,322.045,30.51,271h30.079   c3.199,41.569,19.57,81.453,46.341,112.857L86.019,404.767z M60.574,241H30.51c3.362-51.045,23.739-97.511,55.51-133.767   l21.383,21.383C80.008,160.41,63.737,199.461,60.574,241z M271,30.51c51.045,3.362,97.512,23.739,133.767,55.51l-21.383,21.383   C351.59,80.008,312.539,63.738,271,60.574V30.51z M107.232,425.98l31.095-31.094c5.858-5.858,5.858-15.355,0-21.213   C107.614,342.96,90,300.07,90,256c0-91.531,74.465-165.998,165.996-166c0.001,0,0.003,0,0.004,0s0.002,0,0.004,0   C347.535,90.002,422,164.469,422,256c0,44.07-17.614,86.96-48.327,117.673c-5.858,5.858-5.858,15.355,0,21.213l31.095,31.094   C364.989,460.838,312.922,482,256,482S147.011,460.838,107.232,425.98z"/>
	<path d="M286,362h-60c-24.859,0-46,20.092-46,45c0,24.858,21.096,45,46,45h60c24.813,0,45-20.187,45-45S310.813,362,286,362z    M286,422h-60c-8.523,0-16-7.009-16-15s7.477-15,16-15h60c8.271,0,15,6.729,15,15S294.271,422,286,422z"/>
	<path d="M256,301c24.813,0,45-20.187,45-45c0-19.555-12.541-36.228-30-42.42V166c0-8.284-6.716-15-15-15s-15,6.716-15,15v47.58   c-17.459,6.192-30,22.865-30,42.42C211,280.813,231.187,301,256,301z M256,241c8.271,0,15,6.729,15,15s-6.729,15-15,15   s-15-6.729-15-15S247.729,241,256,241z"/>
</g>















</svg>
