<?xml version="1.0" encoding="iso-8859-1"?>
<!-- Generator: Adobe Illustrator 21.0.0, SVG Export Plug-In . SVG Version: 6.00 Build 0)  -->
<svg xmlns="http://www.w3.org/2000/svg" xmlns:xlink="http://www.w3.org/1999/xlink" version="1.1" id="Capa_1" x="0px" y="0px" viewBox="0 0 512 512" style="enable-background:new 0 0 512 512;" xml:space="preserve" width="512" height="512">
<g>
	<path d="M497,482h-16V135c0-8.284-6.716-15-15-15h-60c-8.284,0-15,6.716-15,15v347h-30V195c0-8.284-6.716-15-15-15h-60   c-8.284,0-15,6.716-15,15v287h-30V285c0-8.284-6.716-15-15-15h-60c-8.284,0-15,6.716-15,15v197h-30V375c0-8.284-6.716-15-15-15H46   c-8.284,0-15,6.716-15,15v107H15c-8.284,0-15,6.716-15,15s6.716,15,15,15h482c8.284,0,15-6.716,15-15S505.284,482,497,482z    M421,150h30v332h-30V150z M301,210h30v272h-30V210z M181,300h30v182h-30V300z M61,390h30v92H61V390z"/>
	<path d="M75,30h121c8.284,0,15-6.716,15-15s-6.716-15-15-15H75c-8.284,0-15,6.716-15,15S66.716,30,75,30z"/>
	<circle cx="15" cy="15" r="15"/>
	<path d="M75,90h121c8.284,0,15-6.716,15-15s-6.716-15-15-15H75c-8.284,0-15,6.716-15,15S66.716,90,75,90z"/>
	<circle cx="15" cy="75" r="15"/>
	<path d="M75,150h121c8.284,0,15-6.716,15-15s-6.716-15-15-15H75c-8.284,0-15,6.716-15,15S66.716,150,75,150z"/>
	<circle cx="15" cy="135" r="15"/>
</g>















</svg>
