<?xml version="1.0" encoding="iso-8859-1"?>
<!-- Generator: Adobe Illustrator 21.0.0, SVG Export Plug-In . SVG Version: 6.00 Build 0)  -->
<svg xmlns="http://www.w3.org/2000/svg" xmlns:xlink="http://www.w3.org/1999/xlink" version="1.1" id="Capa_1" x="0px" y="0px" viewBox="0 0 512 512" style="enable-background:new 0 0 512 512;" xml:space="preserve" width="512" height="512">
<g>
	<path d="M286,0h-60c-8.284,0-15,6.716-15,15v45H46c-8.284,0-15,6.716-15,15v300c0,8.284,6.716,15,15,15h83.662l-36.199,92H76   c-8.284,0-15,6.716-15,15s6.716,15,15,15c10.799,0,83.029,0,92.319,0c6.165,0,11.702-3.772,13.959-9.509L202.928,450h106.144   l20.65,52.491c2.257,5.737,7.794,9.509,13.959,9.509c9.29,0,81.521,0,92.319,0c8.284,0,15-6.716,15-15s-6.716-15-15-15h-17.463   l-36.199-92H466c8.284,0,15-6.716,15-15V75c0-8.284-6.716-15-15-15H301V15C301,6.716,294.284,0,286,0z M241,30h30v30h-30V30z    M158.102,482h-32.401l36.199-92.01h32.393C193.951,390.832,162.663,470.405,158.102,482z M214.73,420l11.802-30h58.937l11.802,30   H214.73z M386.299,482h-32.401c-3.19-8.109-28.199-71.683-36.192-92H350.1L386.299,482z M451,360H61V90h390V360z"/>
	<path d="M226,120c-8.284,0-15,6.716-15,15v15h-75c-8.284,0-15,6.716-15,15v75h-15c-8.284,0-15,6.716-15,15v60   c0,8.284,6.716,15,15,15h60c8.284,0,15-6.716,15-15v-60c0-8.284-6.716-15-15-15h-15v-60h60v15c0,8.284,6.716,15,15,15h15v30h-15   c-8.284,0-15,6.716-15,15v60c0,8.284,6.716,15,15,15h60c8.284,0,15-6.716,15-15v-60c0-8.284-6.716-15-15-15h-15v-30h15   c8.284,0,15-6.716,15-15v-15h60v60h-15c-8.284,0-15,6.716-15,15v60c0,8.284,6.716,15,15,15h60c8.284,0,15-6.716,15-15v-60   c0-8.284-6.716-15-15-15h-15v-75c0-8.284-6.716-15-15-15h-75v-15c0-8.284-6.716-15-15-15H226z M151,300h-30v-30h30V300z M271,300   h-30v-30h30V300z M391,300h-30v-30h30V300z M271,180h-30v-30h30V180z"/>
</g>















</svg>
