<?xml version="1.0" encoding="iso-8859-1"?>
<!-- Generator: Adobe Illustrator 21.0.0, SVG Export Plug-In . SVG Version: 6.00 Build 0)  -->
<svg xmlns="http://www.w3.org/2000/svg" xmlns:xlink="http://www.w3.org/1999/xlink" version="1.1" id="Capa_1" x="0px" y="0px" viewBox="0 0 512 512" style="enable-background:new 0 0 512 512;" xml:space="preserve" width="512" height="512">
<g>
	<path d="M15.038,362h246.019l11.381,6.571c-0.268,2.9-0.399,5.698-0.399,8.429c0,2.73,0.132,5.529,0.399,8.429l-21.823,12.599   c-3.445,1.989-5.959,5.266-6.989,9.108c-1.029,3.843-0.49,7.937,1.499,11.382l30,51.962c1.989,3.445,5.266,5.959,9.108,6.989   c3.844,1.031,7.938,0.491,11.382-1.499l22.165-12.798c4.544,3.143,9.305,5.907,14.259,8.279V497c0,8.284,6.716,15,15,15h60   c8.284,0,15-6.716,15-15v-25.546c4.999-2.394,9.802-5.187,14.384-8.366l23.219,12.985c7.159,4.004,16.21,1.513,20.312-5.592   l30-51.962c1.989-3.445,2.528-7.54,1.499-11.382c-1.03-3.843-3.544-7.119-6.989-9.108l-21.823-12.599   c0.268-2.9,0.399-5.699,0.399-8.429c0-2.731-0.132-5.529-0.399-8.429l21.823-12.6c3.445-1.989,5.959-5.265,6.989-9.108   c1.029-3.843,0.49-7.937-1.499-11.382l-30-51.962c-4.101-7.104-13.148-9.597-20.312-5.592l-23.219,12.985   c-4.581-3.178-9.386-5.973-14.384-8.366V257c0-8.284-6.716-15-15-15h-15V15c0-8.284-6.716-15-15-15h-362c-8.284,0-15,6.716-15,15   v332C0.038,355.284,6.754,362,15.038,362z M402.001,306.657c8.513,3.035,16.38,7.604,23.384,13.58   c4.774,4.074,11.58,4.745,17.058,1.681l18.927-10.585l15.103,26.157l-17.587,10.154c-5.502,3.176-8.406,9.474-7.249,15.721   c0.957,5.169,1.402,9.502,1.402,13.635s-0.445,8.466-1.402,13.636c-1.156,6.247,1.747,12.544,7.249,15.721l17.587,10.153   l-15.103,26.157l-18.927-10.585c-5.478-3.063-12.283-2.392-17.058,1.681c-7.005,5.977-14.872,10.546-23.384,13.58   c-5.974,2.129-9.963,7.787-9.963,14.129V482h-30v-20.53c0-6.342-3.989-12-9.963-14.129c-8.515-3.035-16.382-7.604-23.384-13.578   c-4.832-4.123-11.737-4.756-17.236-1.58l-17.851,10.307l-15-25.98l17.587-10.153c5.502-3.176,8.405-9.474,7.249-15.721   c-0.957-5.17-1.402-9.503-1.402-13.636s0.445-8.466,1.402-13.635c1.157-6.247-1.747-12.544-7.249-15.721l-17.587-10.154l15-25.98   l17.851,10.307c5.5,3.175,12.405,2.543,17.236-1.58c7.004-5.976,14.871-10.545,23.384-13.58c5.975-2.13,9.963-7.787,9.963-14.129   V272h30v20.528C392.038,298.87,396.026,304.527,402.001,306.657z M347.038,242c-8.284,0-15,6.716-15,15v25.546   c-4.953,2.372-9.716,5.137-14.259,8.28l-22.165-12.797c-3.445-1.989-7.544-2.529-11.382-1.499   c-3.843,1.029-7.119,3.543-9.108,6.989L247.134,332H30.038V90h332v152H347.038z M362.038,60h-30V30h30V60z M302.038,30v30h-272V30   H302.038z"/>
	<path d="M215.734,151.754c-7.864-2.591-16.348,1.681-18.942,9.55l-30,91c-2.594,7.868,1.682,16.348,9.55,18.942   c7.852,2.586,16.342-1.664,18.942-9.55l30-91C227.878,162.829,223.602,154.348,215.734,151.754z"/>
	<path d="M144.942,244.929l-44.816-33.062l44.943-33.891c6.614-4.988,7.933-14.394,2.945-21.008   c-4.988-6.614-14.393-7.933-21.008-2.945l-61,46c-3.781,2.851-5.993,7.32-5.969,12.056c0.025,4.735,2.284,9.181,6.096,11.992l61,45   c6.721,4.959,16.098,3.444,20.976-3.166C153.027,259.238,151.609,249.847,144.942,244.929z"/>
	<path d="M326.164,200.096l-60-46c-6.572-5.04-15.989-3.797-21.03,2.778c-5.04,6.575-3.797,15.99,2.778,21.031l44.301,33.964   L248.038,245c-6.627,4.971-7.971,14.373-3,21c4.947,6.595,14.341,7.994,21,3l60-45c3.755-2.816,5.975-7.227,6-11.92   C332.062,207.386,329.89,202.952,326.164,200.096z"/>
	<path d="M332.038,377c0,24.813,20.187,45,45,45s45-20.187,45-45s-20.187-45-45-45S332.038,352.187,332.038,377z M392.038,377   c0,8.271-6.729,15-15,15s-15-6.729-15-15s6.729-15,15-15S392.038,368.729,392.038,377z"/>
</g>















</svg>
