<?xml version="1.0" encoding="iso-8859-1"?>
<!-- Generator: Adobe Illustrator 21.0.0, SVG Export Plug-In . SVG Version: 6.00 Build 0)  -->
<svg xmlns="http://www.w3.org/2000/svg" xmlns:xlink="http://www.w3.org/1999/xlink" version="1.1" id="Capa_1" x="0px" y="0px" viewBox="0 0 512.01 512.01" style="enable-background:new 0 0 512.01 512.01;" xml:space="preserve" width="512" height="512">
<g>
	<path d="M15.017,362h228.076c7.301,50.816,51.119,90,103.924,90c12.367,0,24.238-2.155,35.266-6.1l52.917,52.917   c17.589,17.589,46.043,17.592,63.635,0c17.544-17.544,17.544-46.091,0-63.635l-52.917-52.917c3.944-11.028,6.1-22.899,6.1-35.266   c0-41.802-24.557-77.973-60-94.855V15c0-8.284-6.716-15-15-15h-362c-8.284,0-15,6.716-15,15v332   C0.017,355.284,6.733,362,15.017,362z M477.622,456.396c5.847,5.848,5.847,15.362,0,21.209c-5.866,5.865-15.343,5.865-21.209,0   l-46.544-46.544c8.037-6.024,15.185-13.172,21.209-21.209L477.622,456.396z M422.017,347c0,41.355-33.645,75-75,75   s-75-33.645-75-75s33.645-75,75-75S422.017,305.645,422.017,347z M347.017,242c-52.805,0-96.623,39.184-103.924,90H30.017V90h332   v153.076C357.116,242.372,352.11,242,347.017,242z M362.017,60h-30V30h30V60z M302.017,30v30h-272V30H302.017z"/>
	<path d="M215.76,152.77c-7.857-2.618-16.354,1.628-18.974,9.487l-30,90c-2.619,7.859,1.628,16.354,9.487,18.974   c7.846,2.615,16.349-1.615,18.974-9.487l30-90C227.867,163.884,223.62,155.39,215.76,152.77z"/>
	<path d="M148.089,158.095c-4.919-6.667-14.311-8.085-20.976-3.166l-61,45c-3.833,2.828-6.096,7.308-6.096,12.071   s2.263,9.243,6.096,12.071l61,45c6.721,4.959,16.098,3.444,20.976-3.166c4.918-6.667,3.5-16.058-3.167-20.976L100.285,212   l44.637-32.929C151.589,174.153,153.007,164.762,148.089,158.095z"/>
	<path d="M326.017,200l-60-45c-6.627-4.971-16.029-3.626-21,3c-4.971,6.627-3.627,16.029,3,21l44,33l-44,33   c-6.627,4.971-7.971,14.373-3,21c4.947,6.595,14.341,7.994,21,3l60-45c3.777-2.833,6-7.279,6-12S329.795,202.833,326.017,200z"/>
</g>















</svg>
