<svg viewBox="0 0 512 512" version="1.1" xmlns="http://www.w3.org/2000/svg">

            <path d="M452,0 C418.604,0 392,28.087 392,61 L15,61 C6.716,61 0,67.716 0,76 L0,497 C0,505.284 6.716,512 15,512 L452,512 C485.084,512 512,485.084 512,452 L512,61 C512,28.106 485.416,0 452,0 Z M482,452 C482,468.542 468.542,482.01 452,482.01 C427.718,482.01 51.361,482.01 30,482.01 L30,91 L392,91 L392,452 C392,460.284 398.716,467 407,467 C415.284,467 422,460.284 422,452 C422,435.458 435.458,422 452,422 C468.542,422 482,435.458 482,452 C482,452 482,452 482,452 Z M482,400.052 C473.17,394.933 462.92,392 452,392 C441.08,392 430.83,394.933 422,400.052 L422,61 C422,44.196 435.738,30 452,30 C468.262,30 482,44.196 482,61 L482,400.052 Z" id="Shape"></path>
            <path d="M332,244.581 L332,167 C332,158.716 325.284,152 317,152 L269.42,152 C263.228,134.542 246.555,122 227,122 L136,122 C111.187,122 91,142.187 91,167 C91,191.813 111.187,212 136,212 L227,212 C246.555,212 263.228,199.458 269.42,182 L302,182 L302,244.58 C289.236,249.107 279.107,259.236 274.58,272 L215.533,272 L176.482,233.849 C170.605,228.106 161.202,228.163 155.393,233.972 L112.971,276.394 C107.113,282.252 107.113,291.749 112.971,297.607 L151,335.635 L151,407 C151,415.284 157.716,422 166,422 L214.58,422 C220.772,439.458 237.445,452 257,452 C281.813,452 302,431.813 302,407 C302,382.187 281.813,362 257,362 C237.445,362 220.772,374.542 214.58,392 L181,392 L181,335.738 L215.533,302 L274.58,302 C280.772,319.458 297.445,332 317,332 C341.813,332 362,311.813 362,287 C362,267.446 349.459,250.773 332,244.581 Z M227,182 L136,182 C127.729,182 121,175.271 121,167 C121,158.729 127.729,152 136,152 L227,152 C235.271,152 242,158.729 242,167 C242,175.271 235.271,182 227,182 Z M257,392 C265.271,392 272,398.729 272,407 C272,415.271 265.271,422 257,422 C248.729,422 242,415.271 242,407 C242,398.729 248.729,392 257,392 Z M166.123,308.332 L144.791,287 L166.123,265.668 L187.957,287 L166.123,308.332 Z M317,302 C308.729,302 302,295.271 302,287 C302,278.729 308.729,272 317,272 C325.271,272 332,278.729 332,287 C332,295.271 325.271,302 317,302 Z" id="Shape"></path>
</svg>