<?xml version="1.0" encoding="UTF-8"?>
<svg viewBox="0 0 512 512" version="1.1" xmlns="http://www.w3.org/2000/svg" xmlns:xlink="http://www.w3.org/1999/xlink">
    <!-- Generator: Sketch 49.1 (51147) - http://www.bohemiancoding.com/sketch -->
    <title>042-solution</title>
    <desc>Created with Sketch.</desc>
    <defs></defs>
    <g id="Page-1" stroke="none" stroke-width="1" fill="none" fill-rule="evenodd">
        <g id="042-solution" fill="#000000" fill-rule="nonzero">
            <path d="M60,225 L60,304.5625 C60,309.429688 62.363281,313.996094 66.339844,316.808594 C70.316406,319.617188 75.40625,320.324219 80,318.703125 C83.195312,317.574219 86.5625,317 90,317 C106.542969,317 120,330.457031 120,347 C120,363.542969 106.542969,377 90,377 C86.5625,377 83.195312,376.425781 80,375.296875 C75.410156,373.675781 70.316406,374.378906 66.339844,377.191406 C62.363281,380.003906 60,384.570312 60,389.4375 L60,437 C60,445.285156 66.714844,452 75,452 L105,452 C105,485.085938 131.914062,512 165,512 C198.085938,512 225,485.085938 225,452 L304.5625,452 C309.429688,452 313.996094,449.636719 316.808594,445.660156 C319.617188,441.6875 320.328125,436.59375 318.703125,432.003906 C317.574219,428.804688 317,425.4375 317,422 C317,405.457031 330.457031,392 347,392 C363.542969,392 377,405.457031 377,422 C377,425.4375 376.425781,428.804688 375.296875,432 C373.675781,436.59375 374.382812,441.683594 377.191406,445.660156 C380.003906,449.636719 384.570312,452 389.4375,452 L437,452 C445.285156,452 452,445.285156 452,437 L452,407 C485.085938,407 512,380.085938 512,347 C512,313.914062 485.085938,287 452,287 C452,269.367188 452,225.40625 452,207.4375 C452,202.570312 449.636719,198.003906 445.660156,195.191406 C441.683594,192.378906 436.59375,191.671875 432,193.296875 C428.804688,194.425781 425.4375,195 422,195 C405.457031,195 392,181.542969 392,165 C392,148.457031 405.457031,135 422,135 C425.4375,135 428.804688,135.574219 432,136.703125 C436.589844,138.324219 441.683594,137.621094 445.660156,134.808594 C449.636719,131.996094 452,127.429688 452,122.558594 L452,75 C452,66.714844 445.285156,60 437,60 L407,60 C407,26.914062 380.085938,-5.68434189e-14 347,-5.68434189e-14 C313.914062,-5.68434189e-14 287,26.914062 287,60 C269.367188,60 225.40625,60 207.4375,60 C202.570312,60 198.003906,62.363281 195.191406,66.339844 C192.382812,70.3125 191.671875,75.40625 193.296875,79.996094 C194.425781,83.195312 195,86.5625 195,90 C195,106.542969 181.542969,120 165,120 C148.457031,120 135,106.542969 135,90 C135,86.5625 135.574219,83.195312 136.703125,80 C138.324219,75.40625 137.617188,70.316406 134.808594,66.339844 C131.996094,62.363281 127.429688,60 122.5625,60 L75,60 C66.714844,60 60,66.714844 60,75 L60,105 C26.914062,105 -5.68434189e-14,131.914062 -5.68434189e-14,165 C-5.68434189e-14,198.085938 26.914062,225 60,225 Z M271,90 L304.5625,90 C309.429688,90 313.996094,87.636719 316.808594,83.660156 C319.617188,79.6875 320.328125,74.59375 318.703125,70.003906 C317.574219,66.804688 317,63.4375 317,60 C317,43.457031 330.457031,30 347,30 C363.542969,30 377,43.457031 377,60 C377,63.4375 376.425781,66.804688 375.296875,70 C373.675781,74.59375 374.382812,79.683594 377.191406,83.660156 C380.003906,87.636719 384.570312,90 389.4375,90 L422,90 L422,105 C388.914062,105 362,131.914062 362,165 C362,198.085938 388.914062,225 422,225 L422,241 L271,241 L271,90 Z M271,271 L422,271 L422,304.5625 C422,309.429688 424.363281,313.996094 428.339844,316.808594 C432.316406,319.617188 437.40625,320.324219 442,318.703125 C445.195312,317.574219 448.5625,317 452,317 C468.542969,317 482,330.460938 482,347 C482,363.542969 468.542969,377 452,377 C448.5625,377 445.195312,376.429688 442,375.296875 C437.410156,373.675781 432.316406,374.382812 428.339844,377.195312 C424.363281,380.007812 422,384.570312 422,389.441406 L422,422 L407,422 C407,388.914062 380.085938,362 347,362 C313.914062,362 287,388.914062 287,422 L271,422 L271,271 Z M241,422 L207.4375,422 C202.570312,422 198.003906,424.363281 195.191406,428.339844 C192.382812,432.3125 191.671875,437.40625 193.296875,441.996094 C194.425781,445.195312 195,448.5625 195,452 C195,468.539062 181.539062,482 165,482 C148.457031,482 135,468.539062 135,452 C135,448.558594 135.570312,445.195312 136.703125,441.996094 C138.324219,437.40625 137.617188,432.3125 134.804688,428.339844 C131.992188,424.363281 127.429688,422 122.5625,422 L90,422 L90,407 C123.085938,407 150,380.085938 150,347 C150,313.914062 123.085938,287 90,287 L90,271 L241,271 L241,422 Z M60,135 C63.4375,135 66.804688,135.574219 70,136.703125 C74.589844,138.324219 79.683594,137.621094 83.660156,134.808594 C87.636719,131.996094 90,127.429688 90,122.5625 L90,90 L105,90 C105,123.085938 131.914062,150 165,150 C198.085938,150 225,123.085938 225,90 L241,90 L241,241 L90,241 L90,207.4375 C90,202.570312 87.636719,198.003906 83.660156,195.191406 C79.683594,192.378906 74.59375,191.671875 70,193.296875 C66.804688,194.425781 63.4375,195 60,195 C43.457031,195 30,181.542969 30,165 C30,148.457031 43.457031,135 60,135 Z" id="Shape"></path>
        </g>
    </g>
</svg>