<svg viewBox="0 -31 512 512" xmlns="http://www.w3.org/2000/svg"><path d="m15 450h482c8.285156 0 15-6.714844 15-15 0-24.382812 0-394.585938 0-420 0-8.285156-6.714844-15-15-15h-482c-8.285156 0-15 6.714844-15 15v420c0 8.285156 6.714844 15 15 15zm15-420h452v90h-452zm0 120h452v270h-452zm0 0"/><path d="m176.605469 244.394531c-5.855469-5.859375-15.355469-5.859375-21.210938 0l-60 60c-5.859375 5.855469-5.859375 15.351563 0 21.210938l60 60c5.855469 5.859375 15.351563 5.859375 21.210938 0s5.859375-15.355469 0-21.210938l-49.390625-49.394531 49.390625-49.394531c5.859375-5.855469 5.859375-15.355469 0-21.210938zm0 0"/><path d="m292.707031 241.582031c-7.40625-3.703125-16.417969-.699219-20.125 6.707031l-60 120c-3.703125 7.410157-.699219 16.421876 6.707031 20.125 7.425782 3.714844 16.429688.6875 20.125-6.707031l60-120c3.707032-7.40625.703126-16.417969-6.707031-20.125zm0 0"/><path d="m356.605469 244.394531c-5.855469-5.859375-15.355469-5.859375-21.210938 0-5.859375 5.855469-5.859375 15.351563 0 21.210938l49.390625 49.394531-49.390625 49.394531c-5.859375 5.855469-5.859375 15.351563 0 21.210938 5.855469 5.859375 15.355469 5.859375 21.210938 0l60-60c5.859375-5.859375 5.859375-15.355469 0-21.210938zm0 0"/><path d="m436 180h-360c-8.285156 0-15 6.714844-15 15s6.714844 15 15 15h360c8.285156 0 15-6.714844 15-15s-6.714844-15-15-15zm0 0"/><path d="m331 75c0 8.285156-6.714844 15-15 15s-15-6.714844-15-15 6.714844-15 15-15 15 6.714844 15 15zm0 0"/><path d="m391 75c0 8.285156-6.714844 15-15 15s-15-6.714844-15-15 6.714844-15 15-15 15 6.714844 15 15zm0 0"/><path d="m451 75c0 8.285156-6.714844 15-15 15s-15-6.714844-15-15 6.714844-15 15-15 15 6.714844 15 15zm0 0"/><path d="m226 60h-150c-8.285156 0-15 6.714844-15 15s6.714844 15 15 15h150c8.285156 0 15-6.714844 15-15s-6.714844-15-15-15zm0 0"/></svg>