<svg viewBox="0 -31 512 512" xmlns="http://www.w3.org/2000/svg"><path d="m15 450h482c8.285156 0 15-6.714844 15-15 0-24.382812 0-394.585938 0-420 0-8.285156-6.714844-15-15-15h-482c-8.285156 0-15 6.714844-15 15v420c0 8.285156 6.714844 15 15 15zm15-420h452v90h-452zm0 120h452v270h-452zm0 0"/><path d="m331.742188 75c0 8.285156-6.714844 15-15 15-8.285157 0-15-6.714844-15-15s6.714843-15 15-15c8.285156 0 15 6.714844 15 15zm0 0"/><path d="m391.742188 75c0 8.285156-6.714844 15-15 15-8.285157 0-15-6.714844-15-15s6.714843-15 15-15c8.285156 0 15 6.714844 15 15zm0 0"/><path d="m451.742188 75c0 8.285156-6.714844 15-15 15-8.285157 0-15-6.714844-15-15s6.714843-15 15-15c8.285156 0 15 6.714844 15 15zm0 0"/><path d="m436 180c-8.683594 0-330.53125 0-360 0-8.285156 0-15 6.714844-15 15v180c0 8.285156 6.714844 15 15 15h360c8.285156 0 15-6.714844 15-15 0-9.890625 0-169.371094 0-180 0-8.285156-6.714844-15-15-15zm-285 180h-60v-150h60zm90 0h-60v-90h60zm90 0h-60v-90h60zm90 0h-60v-90h60zm0-120h-240v-30h240zm0 0"/><path d="m226 60h-150c-8.285156 0-15 6.714844-15 15s6.714844 15 15 15h150c8.285156 0 15-6.714844 15-15s-6.714844-15-15-15zm0 0"/></svg>