<svg viewBox="0 0 512 512" xmlns="http://www.w3.org/2000/svg"><path d="m166 120h151c8.285156 0 15-6.714844 15-15s-6.714844-15-15-15h-151c-8.285156 0-15 6.714844-15 15s6.714844 15 15 15zm0 0"/><path d="m435.179688 43.179688-43.179688 43.179687v-71.359375c0-8.285156-6.714844-15-15-15h-272c-3.96875 0-7.8125 1.597656-10.609375 4.394531l-89.996094 89.996094c-2.84375 2.84375-4.394531 6.710937-4.394531 10.609375v332c0 41.355469 33.644531 75 75 75h302c41.355469 0 75-33.644531 75-75v-30c0-8.285156-6.714844-15-15-15h-45v-178.359375l106.820312-106.820313c17.542969-17.546874 17.542969-46.09375 0-63.640624-17.585937-17.585938-46.050781-17.585938-63.640624 0zm-345.179688 8.035156v38.785156h-38.785156zm30 355.785156v30c0 24.8125-20.1875 45-45 45s-45-20.1875-45-45c0-5.503906 0-304.902344 0-317h75c8.285156 0 15-6.714844 15-15v-75h242v86.359375l-33.640625 33.640625h-253.359375c-8.285156 0-15 6.714844-15 15s6.714844 15 15 15h223.359375l-30 30h-193.359375c-8.285156 0-15 6.714844-15 15s6.714844 15 15 15h163.359375l-16.066406 16.066406c-1.644531 1.648438-2.886719 3.652344-3.621094 5.863282l-2.691406 8.070312h-140.980469c-8.285156 0-15 6.714844-15 15s6.714844 15 15 15h130.980469l-7.402344 22.210938-7.792969 7.789062h-115.785156c-8.285156 0-15 6.714844-15 15s6.714844 15 15 15h119.917969c4.824219 0 8.75-.453125 12.6875-4.394531l12.183593-12.183594 60.28125-20.09375c2.207032-.734375 4.214844-1.976563 5.863282-3.621094l76.066406-76.066406v148.359375h-227c-8.285156 0-15 6.714844-15 15zm162.605469-126.394531-15.382813 15.382812-31.820312 10.609375 10.609375-31.820312 15.378906-15.382813zm139.394531 141.394531v15c0 24.8125-20.1875 45-45 45h-242.035156c9.433594-12.542969 15.035156-28.132812 15.035156-45v-15zm23.78125-304.570312-141.960938 141.964843-21.214843-21.214843 141.960937-141.960938zm31.824219-31.824219-10.613281 10.613281-21.210938-21.210938 10.609375-10.613281c5.851563-5.847656 15.367187-5.847656 21.214844 0 5.847656 5.847657 5.847656 15.363281 0 21.210938zm0 0"/></svg>