<svg viewBox="0 -16 512 512" xmlns="http://www.w3.org/2000/svg"><path d="m467 0h-422c-24.8125 0-45 20.1875-45 45v300c0 24.8125 20.1875 45 45 45h130.1875l-20 60h-49.1875c-8.285156 0-15 6.714844-15 15s6.714844 15 15 15h361c24.8125 0 45-20.1875 45-45 0-12.863281 0-382.011719 0-390 0-24.8125-20.1875-45-45-45zm-422 360c-8.269531 0-15-6.730469-15-15v-15h272v30zm141.8125 90 20-60h95.1875v45c0 5.257812.914062 10.304688 2.578125 15zm295.1875-15c0 8.269531-6.730469 15-15 15-10.1875 0-103.847656 0-120 0-8.269531 0-15-6.730469-15-15v-15h150zm0-45h-150v-150h150zm0-180h-150v-15c0-8.269531 6.730469-15 15-15h120c8.269531 0 15 6.730469 15 15zm0-57.421875c-4.695312-1.664063-9.742188-2.578125-15-2.578125h-120c-24.8125 0-45 20.1875-45 45v105h-272v-255c0-8.269531 6.730469-15 15-15h422c8.269531 0 15 6.730469 15 15zm0 0"/></svg>