<svg viewBox="0 0 512 512" xmlns="http://www.w3.org/2000/svg"><path d="m256 181c-24.8125 0-45 20.1875-45 45s20.1875 45 45 45 45-20.1875 45-45-20.1875-45-45-45zm0 60c-8.269531 0-15-6.730469-15-15s6.730469-15 15-15 15 6.730469 15 15-6.730469 15-15 15zm0 0"/><path d="m271 316c0 8.285156-6.714844 15-15 15s-15-6.714844-15-15 6.714844-15 15-15 15 6.714844 15 15zm0 0"/><path d="m105 61c8.285156 0 15-6.714844 15-15v-31c0-8.285156-6.714844-15-15-15s-15 6.714844-15 15v31c0 8.285156 6.714844 15 15 15zm0 0"/><path d="m30 226c0 8.285156 6.714844 15 15 15s15-6.714844 15-15v-30c0-8.285156-6.714844-15-15-15s-15 6.714844-15 15zm0 0"/><path d="m90 166c0 8.285156 6.714844 15 15 15s15-6.714844 15-15v-60c0-8.285156-6.714844-15-15-15s-15 6.714844-15 15zm0 0"/><path d="m407 61c8.285156 0 15-6.714844 15-15v-31c0-8.285156-6.714844-15-15-15s-15 6.714844-15 15v31c0 8.285156 6.714844 15 15 15zm0 0"/><path d="m392 166c0 8.285156 6.714844 15 15 15s15-6.714844 15-15v-60c0-8.285156-6.714844-15-15-15s-15 6.714844-15 15zm0 0"/><path d="m45 151c8.285156 0 15-6.714844 15-15v-60c0-8.285156-6.714844-15-15-15s-15 6.714844-15 15v60c0 8.285156 6.714844 15 15 15zm0 0"/><path d="m452 226c0 8.285156 6.714844 15 15 15s15-6.714844 15-15v-30c0-8.285156-6.714844-15-15-15s-15 6.714844-15 15zm0 0"/><path d="m467 151c8.285156 0 15-6.714844 15-15v-60c0-8.285156-6.714844-15-15-15s-15 6.714844-15 15v60c0 8.285156 6.714844 15 15 15zm0 0"/><path d="m416.289062 273.453125c-8.824218-32.746094-28.097656-62.292969-55.289062-84.671875v-82.78125c0-24.8125-20.1875-45-45-45h-120c-24.8125 0-45 20.1875-45 45v82.78125c-27.191406 22.378906-46.464844 51.925781-55.289062 84.671875-56.394532 11.53125-95.710938 61.816406-95.710938 117.546875 0 66.71875 53.832031 121 120 121h272c66.167969 0 120-54.28125 120-121 0-55.757812-39.347656-106.023438-95.710938-117.546875zm-235.289062-167.453125c0-8.269531 6.730469-15 15-15h120c8.269531 0 15 6.730469 15 15v15h-150zm0 45h150v210h-150zm211 331h-272c-49.625 0-90-40.820312-90-91 0-45.394531 34.234375-83.605469 79.632812-88.882812 1.207032-.140626 2.375-.421876 3.480469-.832032 2.28125-.171875 4.574219-.285156 6.886719-.285156 8.285156 0 15-6.714844 15-15 0-5.652344-3.132812-10.574219-7.75-13.128906 5.222656-15.171875 13.277344-29.375 23.75-41.972656v130.101562h-15c-8.285156 0-15 6.714844-15 15s6.714844 15 15 15h241c8.285156 0 15-6.714844 15-15s-6.714844-15-15-15h-16v-130.101562c10.472656 12.597656 18.527344 26.800781 23.75 41.972656-4.617188 2.554687-7.75 7.476562-7.75 13.128906 0 8.285156 6.714844 15 15 15 2.3125 0 4.605469.113281 6.886719.285156 1.105469.410156 2.273437.691406 3.480469.832032 45.398437 5.277343 79.632812 43.488281 79.632812 88.882812 0 50.179688-40.375 91-90 91zm0 0"/></svg>