<svg viewBox="0 -46 512 512" xmlns="http://www.w3.org/2000/svg"><path d="m15 90h15v45c0 8.285156 6.714844 15 15 15s15-6.714844 15-15v-45h15c8.285156 0 15-6.714844 15-15v-15h45c8.285156 0 15-6.714844 15-15s-6.714844-15-15-15h-45v-15c0-8.285156-6.714844-15-15-15h-60c-8.285156 0-15 6.714844-15 15v60c0 8.285156 6.714844 15 15 15zm15-60h30v30h-30zm0 0"/><path d="m497 0h-60c-8.285156 0-15 6.714844-15 15v15h-45c-8.285156 0-15 6.714844-15 15s6.714844 15 15 15h45v15c0 8.285156 6.714844 15 15 15h15v45c0 8.285156 6.714844 15 15 15s15-6.714844 15-15v-45h15c8.285156 0 15-6.714844 15-15v-60c0-8.285156-6.714844-15-15-15zm-15 60h-30v-30h30zm0 0"/><path d="m90 105v210c0 8.285156 6.714844 15 15 15h302c8.285156 0 15-6.714844 15-15v-210c0-8.285156-6.714844-15-15-15h-302c-8.285156 0-15 6.714844-15 15zm30 15h272v180h-272zm0 0"/><path d="m15 420h60c8.285156 0 15-6.714844 15-15v-15h45c8.285156 0 15-6.714844 15-15s-6.714844-15-15-15h-45v-15c0-8.285156-6.714844-15-15-15h-15v-45c0-8.285156-6.714844-15-15-15s-15 6.714844-15 15v45h-15c-8.285156 0-15 6.714844-15 15v60c0 8.285156 6.714844 15 15 15zm15-60h30v30h-30zm0 0"/><path d="m497 330h-15v-45c0-8.285156-6.714844-15-15-15s-15 6.714844-15 15v45h-15c-8.285156 0-15 6.714844-15 15v15h-45c-8.285156 0-15 6.714844-15 15s6.714844 15 15 15h45v15c0 8.285156 6.714844 15 15 15h60c8.285156 0 15-6.714844 15-15v-60c0-8.285156-6.714844-15-15-15zm-15 60h-30v-30h30zm0 0"/><path d="m225 390c8.285156 0 15-6.714844 15-15s-6.714844-15-15-15h-30c-8.285156 0-15 6.714844-15 15s6.714844 15 15 15zm0 0"/><path d="m317 360h-31c-8.285156 0-15 6.714844-15 15s6.714844 15 15 15h31c8.285156 0 15-6.714844 15-15s-6.714844-15-15-15zm0 0"/><path d="m225 60c8.285156 0 15-6.714844 15-15s-6.714844-15-15-15h-30c-8.285156 0-15 6.714844-15 15s6.714844 15 15 15zm0 0"/><path d="m317 60c8.285156 0 15-6.714844 15-15s-6.714844-15-15-15h-31c-8.285156 0-15 6.714844-15 15s6.714844 15 15 15zm0 0"/><path d="m45 180c-8.285156 0-15 6.714844-15 15v30c0 8.285156 6.714844 15 15 15s15-6.714844 15-15v-30c0-8.285156-6.714844-15-15-15zm0 0"/><path d="m467 240c8.285156 0 15-6.714844 15-15v-30c0-8.285156-6.714844-15-15-15s-15 6.714844-15 15v30c0 8.285156 6.714844 15 15 15zm0 0"/></svg>