<svg viewBox="0 1 511 511.99922" xmlns="http://www.w3.org/2000/svg"><path d="m455.464844 57.035156c-76.046875-76.046875-199.785156-76.046875-275.832032 0-65.097656 65.097656-74.460937 165.132813-28.113281 240.292969l-137.859375 137.855469c-17.546875 17.550781-17.546875 46.105468 0 63.65625 17.546875 17.546875 46.105469 17.546875 63.652344 0l63.652344-63.652344s0-.003906.003906-.003906l74.203125-74.203125c75.367187 46.476562 175.351563 36.824219 240.289063-28.113281 76.050781-76.046876 76.050781-199.785157.003906-275.832032zm-399.367188 420.585938c-5.847656 5.851562-15.367187 5.851562-21.21875 0-5.847656-5.851563-5.847656-15.367188 0-21.21875l10.609375-10.609375 21.21875 21.21875zm31.824219-31.828125-21.214844-21.21875 21.214844-21.214844 21.21875 21.214844zm42.4375-42.433594-21.21875-21.21875 60.285156-60.285156c3.238281 3.769531 6.636719 7.445312 10.207031 11.011719 3.570313 3.570312 7.242188 6.972656 11.011719 10.207031zm303.886719-91.707031c-64.347656 64.34375-169.046875 64.34375-233.398438 0-64.34375-64.347656-64.34375-169.050782 0-233.398438 64.347656-64.347656 169.046875-64.351562 233.398438 0 64.347656 64.347656 64.347656 169.050782 0 233.398438zm0 0"/><path d="m413.027344 99.472656c-52.695313-52.699218-138.257813-52.703125-190.960938 0-52.695312 52.695313-52.699218 138.257813 0 190.960938 52.699219 52.695312 138.261719 52.699218 190.960938 0 52.699218-52.699219 52.699218-138.261719 0-190.960938zm-21.21875 169.742188c-40.949219 40.949218-107.574219 40.949218-148.523438 0-40.949218-40.949219-40.949218-107.578125 0-148.523438 40.949219-40.949218 107.574219-40.953125 148.523438 0 40.949218 40.945313 40.949218 107.574219 0 148.523438zm0 0"/><path d="m381.382812 154.410156c-7.410156-3.703125-16.421874-.699218-20.128906 6.710938l-16.585937 33.175781-16.585938-33.175781c-2.542969-5.082032-7.738281-8.292969-13.421875-8.292969s-10.875 3.210937-13.417968 8.292969l-16.585938 33.175781-16.589844-33.175781c-3.703125-7.410156-12.71875-10.414063-20.128906-6.710938-7.410156 3.707032-10.414062 12.71875-6.707031 20.132813l30.003906 60.011719c2.542969 5.082031 7.738281 8.292968 13.421875 8.292968s10.875-3.210937 13.417969-8.292968l16.589843-33.175782 16.585938 33.175782c2.539062 5.082031 7.734375 8.292968 13.417969 8.292968 5.683593 0 10.878906-3.210937 13.421875-8.292968l30.003906-60.011719c3.707031-7.414063.703125-16.425781-6.710938-20.132813zm0 0"/></svg>