<svg viewBox="-44 1 511 511.99932" xmlns="http://www.w3.org/2000/svg"><path d="m400.550781 21.984375c-29.304687-29.308594-76.746093-29.316406-106.0625 0l-47.824219 47.824219c-17.40625-10.019532-38.226562-4.671875-52.261718 9.363281-13.976563 13.980469-19.410156 34.777344-9.355469 52.253906l-123.894531 123.894531c-16.742188 16.742188-24.488282 40.476563-21.210938 63.636719l-21.214844 21.214844c-17.585937 17.582031-17.585937 46.046875 0 63.636719 1.742188 1.738281 3.589844 3.296875 5.523438 4.691406-2.175781 3.828125-4.585938 8.183594-7.011719 12.769531-14.835937 28.058594-16.738281 39.175781-16.738281 45.730469 0 24.8125 20.1875 45 45 45 24.808594 0 44.996094-20.1875 44.996094-45 0-6.554688-1.902344-17.671875-16.738282-45.730469-1.535156-2.898437-3.0625-5.707031-4.53125-8.347656 4.765626-2.167969 9.226563-5.203125 13.136719-9.113281l21.214844-21.214844c23.160156 3.277344 46.894531-4.46875 63.636719-21.210938l123.894531-123.894531c17.222656 9.90625 38.015625 4.878907 52.253906-9.359375 14.035157-14.03125 19.382813-34.851562 9.367188-52.257812l47.820312-47.824219c29.3125-29.308594 29.3125-76.75 0-106.0625zm-355.054687 460.015625c-8.269532 0-15-6.726562-15-14.984375.109375-4.699219 6.335937-18.898437 15-35.027344 8.660156 16.121094 14.886718 30.320313 15 35.023438-.003906 8.265625-6.730469 14.988281-15 14.988281zm100.507812-141.828125c-11.328125 11.324219-27.992187 15.789063-43.488281 11.652344-5.171875-1.382813-10.6875.097656-14.476563 3.882812l-26.886718 26.890625c-5.847656 5.847656-15.363282 5.847656-21.210938 0-5.851562-5.851562-5.851562-15.367187 0-21.214844l26.886719-26.886718c3.785156-3.785156 5.265625-9.304688 3.886719-14.476563-3.964844-14.84375-.015625-30.746093 10.273437-42.015625 30.25 13.609375 65.457031 10.617188 92.824219-7.628906 15.25-10.167969 33.96875-13.339844 51.394531-9.40625zm102.875-102.878906c-29.621094-12.847657-64.472656-10.035157-91.707031 8.121093-15.707031 10.472657-34.976563 13.527344-52.777344 9.085938l100.851563-100.847656 63.636718 63.636718zm130.460938-130.460938-57.425782 57.425781c-5.855468 5.859376-5.855468 15.355469 0 21.214844l2.84375 2.839844c7.773438 7.773438-1.519531 17.519531-2.605468 18.605469-1.085938 1.085937-10.832032 10.382812-18.605469 2.609375-8.855469-8.855469-77.714844-77.714844-90.535156-90.535156-7.773438-7.777344 1.519531-17.519532 2.605469-18.605469 5.386718-5.386719 12.976562-8.238281 18.605468-2.609375l2.84375 2.84375c5.855469 5.859375 15.355469 5.859375 21.210938 0l57.425781-57.425782c17.542969-17.542968 46.09375-17.542968 63.636719 0 17.585937 17.585938 17.585937 46.050782 0 63.636719zm0 0"/></svg>