<svg viewBox="0 -61 512 512" xmlns="http://www.w3.org/2000/svg"><path d="m428.21875 182.457031c-50.351562-33.015625-111.75-62.457031-172.21875-62.457031-60.464844 0-121.859375 29.4375-172.21875 62.457031-46.378906 30.410157-77.851562 60.457031-79.167969 61.722657-2.949219 2.828124-4.613281 6.734374-4.613281 10.820312s1.664062 7.992188 4.613281 10.820312c1.316407 1.265626 32.789063 31.3125 79.167969 61.722657 50.351562 33.015625 111.75 62.457031 172.21875 62.457031 60.464844 0 121.859375-29.4375 172.21875-62.457031 46.378906-30.410157 77.851562-60.457031 79.167969-61.722657 2.949219-2.828124 4.613281-6.734374 4.613281-10.820312s-1.664062-7.992188-4.613281-10.820312c-1.316407-1.265626-32.789063-31.3125-79.167969-61.722657zm-286.410156 144.46875c-46.402344-24.25-85.492188-55.667969-104.339844-71.933593 18.847656-16.28125 57.941406-47.730469 104.378906-71.984376-13.195312 20.851563-20.847656 45.542969-20.847656 71.992188 0 26.421875 7.636719 51.089844 20.808594 71.925781zm114.191406 33.074219c-57.90625 0-105-47.113281-105-105 0-57.90625 47.113281-105 105-105 57.90625 0 105 47.113281 105 105 0 57.90625-47.113281 105-105 105zm114.152344-33.007812c13.195312-20.851563 20.847656-45.542969 20.847656-71.992188 0-26.421875-7.636719-51.089844-20.808594-71.925781 46.398438 24.25 85.488282 55.667969 104.339844 71.933593-18.847656 16.28125-57.941406 47.730469-104.378906 71.984376zm0 0"/><path d="m256 180c-41.355469 0-75 33.644531-75 75s33.644531 75 75 75 75-33.644531 75-75-33.644531-75-75-75zm0 120c-24.8125 0-45-20.1875-45-45s20.1875-45 45-45 45 20.1875 45 45-20.1875 45-45 45zm0 0"/><path d="m271 255c0 8.285156-6.714844 15-15 15s-15-6.714844-15-15 6.714844-15 15-15 15 6.714844 15 15zm0 0"/><path d="m256 90c8.285156 0 15-6.714844 15-15v-60c0-8.285156-6.714844-15-15-15s-15 6.714844-15 15v60c0 8.285156 6.714844 15 15 15zm0 0"/><path d="m69.292969 88.414062 60 30c7.417969 3.710938 16.425781.695313 20.125-6.707031 3.703125-7.410156.699219-16.417969-6.707031-20.125l-60-30c-7.410157-3.703125-16.421876-.699219-20.125 6.707031-3.707032 7.410157-.703126 16.421876 6.707031 20.125zm0 0"/><path d="m382.707031 118.414062 60-30c7.410157-3.703124 10.414063-12.714843 6.707031-20.125-3.703124-7.40625-12.714843-10.410156-20.125-6.707031l-60 30c-7.40625 3.707031-10.410156 12.714844-6.707031 20.125 3.707031 7.410157 12.71875 10.414063 20.125 6.707031zm0 0"/></svg>