<svg viewBox="-31 0 512 512" xmlns="http://www.w3.org/2000/svg"><path d="m75 302h-60c-8.285156 0-15 6.714844-15 15v60c0 8.285156 6.714844 15 15 15h45v45c0 8.285156 6.714844 15 15 15h45v45c0 8.285156 6.714844 15 15 15h60c8.285156 0 15-6.714844 15-15v-45h30v45c0 8.285156 6.714844 15 15 15h60c8.285156 0 15-6.714844 15-15v-45h45c8.285156 0 15-6.714844 15-15v-45h45c8.285156 0 15-6.714844 15-15v-60c0-8.285156-6.714844-15-15-15h-60c-8.285156 0-15 6.714844-15 15v45h-45c-8.285156 0-15 6.714844-15 15v45h-30v-45c0-8.285156-6.714844-15-15-15h-2.382812c15.101562-24.125 47.382812-77.601562 47.382812-106 0-24.484375-11.796875-46.261719-30-59.960938 0-10.117187 0-171.046874 0-181.039062 0-8.285156-6.714844-15-15-15h-60c-8.285156 0-15 6.714844-15 15v181.039062c-18.203125 13.699219-30 35.476563-30 59.960938 0 28.359375 32.179688 81.710938 47.382812 106h-2.382812c-8.285156 0-15 6.714844-15 15v45h-30v-45c0-8.285156-6.714844-15-15-15h-45v-45c0-8.285156-6.714844-15-15-15zm-15 60h-30v-30h30zm330-30h30v30h-30zm-60 60h30v30h-30zm-60 60h30v30h-30zm-30-30h-30v-30h30zm-30-392h30v61h-30zm0 91h30v61.507812c-4.847656-.988281-9.863281-1.507812-15-1.507812s-10.152344.519531-15 1.507812zm-30 135c0-24.8125 20.1875-45 45-45s45 20.1875 45 45c0 16.402344-23.402344 59.550781-45.003906 93.667969-21.59375-34.105469-44.996094-77.25-44.996094-93.667969zm-30 196h30v30h-30zm-30-60v30h-30v-30zm0 0"/></svg>