<svg viewBox="0 0 512.00104 512" xmlns="http://www.w3.org/2000/svg"><path d="m249.292969 122.585938-30 15c-7.410157 3.703124-10.414063 12.714843-6.707031 20.125 3.703124 7.40625 12.714843 10.410156 20.125 6.707031l23.289062-11.648438 23.292969 11.648438c7.417969 3.710937 16.425781.691406 20.125-6.707031 3.703125-7.410157.699219-16.421876-6.707031-20.125l-30-15c-4.226563-2.113282-9.195313-2.113282-13.417969 0zm0 0"/><path d="m512 136.023438c.011719-5.679688-3.191406-10.878907-8.269531-13.429688l-241-121c-4.234375-2.125-9.226563-2.125-13.460938 0l-241 121c-5.078125 2.550781-8.2773435 7.75-8.269531 13.429688.0078125 5.683593 3.226562 10.871093 8.3125 13.40625l93.644531 46.625-93.632812 46.511718c-5.09375 2.53125-8.32031275 7.734375-8.324219 13.425782 0 5.695312 3.21875 10.898437 8.316406 13.433593l93.640625 46.628907-93.628906 46.511718c-5.09375 2.527344-8.3164062 7.71875-8.328125 13.402344v.03125c0 5.671875 3.199219 10.859375 8.269531 13.40625l241 121c2.117188 1.0625 4.425781 1.59375 6.730469 1.59375s4.613281-.53125 6.730469-1.59375l241-121c5.070312-2.546875 8.269531-7.734375 8.269531-13.40625 0-.011719 0-.019531 0-.03125-.011719-5.683594-3.234375-10.875-8.328125-13.402344l-93.628906-46.511718 93.640625-46.628907c5.097656-2.535156 8.316406-7.738281 8.316406-13.433593-.003906-5.691407-3.230469-10.894532-8.328125-13.425782l-93.628906-46.511718 93.640625-46.628907c5.089844-2.53125 8.308594-7.71875 8.316406-13.402343zm-48.570312 240.046874-207.429688 104.144532-207.425781-104.144532 87.058593-43.25 113.683594 56.605469c2.105469 1.050781 4.394532 1.574219 6.683594 1.574219 2.292969 0 4.582031-.523438 6.6875-1.574219l113.679688-56.605469zm-.113282-120.054687-86.964844 43.300781-27.21875-13.519531c-7.417968-3.6875-16.421874-.660156-20.105468 6.757813-3.703125 7.449218-.632813 16.4375 6.757812 20.109374l6.890625 3.421876-86.675781 43.15625-86.675781-43.15625 6.890625-3.421876c7.398437-3.675781 10.457031-12.667968 6.761718-20.109374-3.683593-7.417969-12.6875-10.445313-20.109374-6.757813l-27.21875 13.519531-86.964844-43.300781 86.949218-43.191406 86.769532 43.203125-3.109375 1.558594c-7.410157 3.703124-10.414063 12.714843-6.707031 20.125 3.703124 7.40625 12.714843 10.410156 20.125 6.707031l23.289062-11.648438 23.292969 11.648438c7.417969 3.710937 16.425781.691406 20.125-6.707031 3.703125-7.410157.699219-16.421876-6.707031-20.125l-3.113282-1.558594 86.769532-43.203125zm-86.964844-76.699219-27.21875-13.519531c-7.417968-3.6875-16.421874-.660156-20.105468 6.757813-3.703125 7.449218-.632813 16.4375 6.757812 20.109374l6.890625 3.421876-86.675781 43.15625-86.675781-43.15625 6.890625-3.421876c7.398437-3.675781 10.457031-12.667968 6.761718-20.109374-3.683593-7.417969-12.6875-10.445313-20.109374-6.757813l-27.21875 13.519531-87.105469-43.371094 207.457031-104.160156 207.460938 104.160156zm0 0"/></svg>