<svg viewBox="0 0 512 512" xmlns="http://www.w3.org/2000/svg"><path d="m362.578125 241c6.195313 17.457031 22.867187 30 42.421875 30h62c24.8125 0 45-20.1875 45-45s-20.1875-45-45-45h-62c-19.554688 0-36.226562 12.542969-42.421875 30h-32.578125v-166c0-24.8125-20.1875-45-45-45h-240c-24.8125 0-45 20.1875-45 45v422c0 24.8125 20.1875 45 45 45h240c24.8125 0 45-20.1875 45-45v-76h32.578125c6.195313 17.457031 22.867187 30 42.421875 30h62c24.8125 0 45-20.1875 45-45s-20.1875-45-45-45h-62c-19.554688 0-36.226562 12.542969-42.421875 30h-32.578125v-120zm42.421875-30h62c8.269531 0 15 6.730469 15 15s-6.730469 15-15 15h-62c-8.269531 0-15-6.730469-15-15s6.730469-15 15-15zm-105 256c0 8.269531-6.730469 15-15 15h-240c-8.269531 0-15-6.730469-15-15v-15h270zm0-256h-31.074219c-7.304687-50.816406-51.121093-90-103.925781-90-57.898438 0-105 47.101562-105 105 0 57.800781 47.015625 105 105 105 52.453125 0 96.570312-38.828125 103.925781-90h31.074219v120h-15c-8.285156 0-15 6.714844-15 15s6.714844 15 15 15h15v31h-270v-332h270zm-135 60c15.226562 0 29.171875 7.710938 37.398438 19.96875-11.015626 6.367188-23.785157 10.03125-37.398438 10.03125s-26.382812-3.664062-37.398438-10.03125c8.226563-12.257812 22.171876-19.96875 37.398438-19.96875zm-15-45c0-8.269531 6.730469-15 15-15s15 6.730469 15 15-6.730469 15-15 15-15-6.730469-15-15zm52.382812 25.019531c4.808594-7.160156 7.617188-15.765625 7.617188-25.019531 0-24.8125-20.1875-45-45-45s-45 20.1875-45 45c0 9.253906 2.808594 17.859375 7.617188 25.019531-8.757813 5.039063-16.464844 11.816407-22.59375 19.957031-9.425782-12.539062-15.023438-28.117187-15.023438-44.976562 0-41.355469 33.644531-75 75-75s75 33.644531 75 75c0 16.859375-5.597656 32.4375-15.023438 44.976562-6.128906-8.144531-13.835937-14.917968-22.59375-19.957031zm97.617188-191.019531h-270v-15c0-8.269531 6.730469-15 15-15h240c8.269531 0 15 6.730469 15 15zm105 301h62c8.269531 0 15 6.730469 15 15s-6.730469 15-15 15h-62c-8.269531 0-15-6.730469-15-15s6.730469-15 15-15zm0 0"/><path d="m180 376c0 8.285156-6.714844 15-15 15s-15-6.714844-15-15 6.714844-15 15-15 15 6.714844 15 15zm0 0"/><path d="m240 376c0 8.285156-6.714844 15-15 15s-15-6.714844-15-15 6.714844-15 15-15 15 6.714844 15 15zm0 0"/><path d="m120 376c0 8.285156-6.714844 15-15 15s-15-6.714844-15-15 6.714844-15 15-15 15 6.714844 15 15zm0 0"/></svg>