<svg viewBox="0 0 512 512" xmlns="http://www.w3.org/2000/svg"><path d="m497 150h-8.558594c-40.429687-89.480469-130.125-150-232.441406-150-102.1875 0-191.960938 60.398438-232.441406 150h-8.558594c-8.285156 0-15 6.714844-15 15v182c0 8.285156 6.714844 15 15 15h8.558594c40.429687 89.480469 130.125 150 232.441406 150 102.1875 0 191.960938-60.398438 232.441406-150h8.558594c8.285156 0 15-6.714844 15-15v-182c0-8.285156-6.714844-15-15-15zm-80.011719-52.453125c14.960938 15.335937 27.828125 32.9375 38.089844 52.453125h-75.71875c-3.289063-14.070312-7.21875-27.460938-11.734375-40.03125 17.558594-3.355469 34.132812-7.507812 49.363281-12.421875zm-26.792969-23.402344c-10.90625 2.882813-22.414062 5.390625-34.402343 7.515625-6.53125-13.5-14.316407-26.640625-23.648438-38.527344 20.863281 7.449219 40.40625 17.917969 58.050781 31.011719zm-119.195312-41.679687c23.476562 7.742187 41.738281 32.046875 53.445312 53.730468-17.226562 1.964844-35.144531 3.191407-53.445312 3.621094zm0 87.359375c22.828125-.519531 45.15625-2.21875 66.445312-5.015625 4.183594 10.96875 7.878907 22.738281 11.039063 35.191406h-77.484375zm-30-87.359375v57.351562c-18.300781-.429687-36.21875-1.65625-53.445312-3.621094 11.703124-21.675781 29.964843-45.984374 53.445312-53.730468zm0 87.359375v30.175781h-77.480469c3.15625-12.453125 6.851563-24.222656 11.035157-35.191406 21.289062 2.796875 43.617187 4.496094 66.445312 5.015625zm-61.144531-76.691407c-9.332031 11.886719-17.117188 25.03125-23.648438 38.527344-11.984375-2.125-23.496093-4.632812-34.398437-7.515625 17.640625-13.09375 37.183594-23.5625 58.046875-31.011719zm-84.84375 54.414063c15.230469 4.914063 31.804687 9.066406 49.363281 12.421875-4.515625 12.570312-8.445312 25.960938-11.730469 40.03125h-75.71875c10.257813-19.511719 23.128907-37.117188 38.085938-52.453125zm0 316.90625c-14.957031-15.335937-27.828125-32.941406-38.085938-52.453125h75.71875c3.289063 14.070312 7.214844 27.460938 11.730469 40.03125-17.558594 3.355469-34.132812 7.507812-49.363281 12.421875zm26.792969 23.402344c10.90625-2.882813 22.414062-5.390625 34.402343-7.515625 6.53125 13.5 14.316407 26.640625 23.648438 38.527344-20.863281-7.449219-40.40625-17.917969-58.050781-31.011719zm119.195312 41.679687c-23.476562-7.742187-41.738281-32.046875-53.445312-53.730468 17.226562-1.964844 35.144531-3.191407 53.445312-3.621094zm0-87.359375c-22.828125.519531-45.15625 2.21875-66.445312 5.015625-4.183594-10.96875-7.878907-22.738281-11.039063-35.191406h77.484375zm30 87.359375v-57.351562c18.300781.429687 36.21875 1.65625 53.445312 3.621094-11.703124 21.675781-29.964843 45.984374-53.445312 53.730468zm0-87.359375v-30.277343h77.480469c-3.15625 12.453124-6.851563 24.324218-11.035157 35.292968-21.289062-2.796875-43.617187-4.496094-66.445312-5.015625zm61.144531 76.691407c9.332031-11.886719 17.117188-25.03125 23.648438-38.527344 11.984375 2.125 23.496093 4.632812 34.398437 7.515625-17.640625 13.09375-37.183594 23.5625-58.046875 31.011719zm84.84375-54.414063c-15.230469-4.914063-31.804687-9.066406-49.363281-12.421875 4.515625-12.570312 8.445312-26.058594 11.730469-40.132812h75.71875c-10.257813 19.515624-23.128907 37.21875-38.085938 52.554687zm65.011719-82.453125c-35.117188 0-426.730469 0-452 0v-152h452zm0 0"/><path d="m322.707031 212.582031c-7.40625-3.703125-16.417969-.699219-20.125 6.707031l-16.582031 33.171876-16.582031-33.167969c-2.542969-5.082031-7.734375-8.292969-13.417969-8.292969s-10.875 3.210938-13.417969 8.292969l-16.582031 33.167969-16.582031-33.167969c-3.707031-7.410157-12.714844-10.414063-20.125-6.707031-7.410157 3.703124-10.414063 12.714843-6.707031 20.125l30 60c5.511718 11.027343 21.308593 11.042968 26.832031 0l16.582031-33.171876 16.582031 33.167969c5.515625 11.03125 21.3125 11.046875 26.832031 0l30-60c3.707032-7.410156.703126-16.417969-6.707031-20.125zm0 0"/><path d="m391 256c0 8.285156-6.714844 15-15 15s-15-6.714844-15-15 6.714844-15 15-15 15 6.714844 15 15zm0 0"/><path d="m151 256c0 8.285156-6.714844 15-15 15s-15-6.714844-15-15 6.714844-15 15-15 15 6.714844 15 15zm0 0"/><path d="m91 256c0 8.285156-6.714844 15-15 15s-15-6.714844-15-15 6.714844-15 15-15 15 6.714844 15 15zm0 0"/><path d="m451 256c0 8.285156-6.714844 15-15 15s-15-6.714844-15-15 6.714844-15 15-15 15 6.714844 15 15zm0 0"/></svg>