<svg viewBox="-31 0 512 512.00027" xmlns="http://www.w3.org/2000/svg"><path d="m74.996094 512h180.007812c8.285156 0 15-6.714844 15-15v-77.003906h75.003906c24.8125 0 45-20.1875 45-45.003906v-50.730469l51.710938-25.855469c3.851562-1.921875 6.6875-5.40625 7.792969-9.566406 1.105469-4.15625.367187-8.589844-2.019531-12.167969l-57.535157-86.308594c-2.816406-120.636719-113.976562-211.613281-236.753906-186.027343-74.027344 15.425781-133.921875 75.609374-149.039063 149.75-13.769531 67.535156 7.070313 134.90625 55.832032 181.625v161.289062c0 8.285156 6.714844 15 15 15zm-41.4375-351.917969c12.761718-62.570312 63.300781-113.359375 125.765625-126.378906 105.746093-22.039063 200.683593 57.472656 200.683593 161.28125 0 2.960937.875 5.855469 2.519532 8.320313l50.578125 75.867187-44.804688 22.402344c-5.082031 2.539062-8.292969 7.734375-8.292969 13.417969v60c0 8.273437-6.730468 15.003906-15 15.003906h-90.003906c-8.285156 0-15 6.714844-15 15v77.003906h-150.007812v-152.839844c0-4.269531-1.816406-8.332031-4.996094-11.179687-44.289062-39.636719-63.519531-98.664063-51.441406-157.898438zm0 0"/><path d="m225.003906 329.992188h-60.003906c-8.285156 0-15 6.714843-15 15 0 8.285156 6.714844 15 15 15h60.003906c8.28125 0 15-6.714844 15-15 0-8.285157-6.71875-15-15-15zm0 0"/><path d="m104.996094 209.984375h16.472656c2.503906 12.394531 8.148438 24.035156 16.714844 33.964844 7.839844 9.089843 11.8125 18.183593 11.8125 27.027343v14.011719c0 8.285157 6.71875 15 15.003906 15h60c8.285156 0 15-6.714843 15-15v-17.511719c0-8.945312 5.296875-16.476562 9.738281-21.214843 9.589844-10.238281 16.003907-22.773438 18.746094-36.277344h16.519531c8.285156 0 15-6.714844 15-15s-6.714844-15-15-15h-16.503906c-1.914062-9.445313-5.621094-18.386719-10.914062-26.371094l11.664062-11.664062c5.859375-5.859375 5.859375-15.355469 0-21.214844-5.855469-5.859375-15.355469-5.859375-21.214844 0l-11.679687 11.679687c-8.054688-5.328124-16.992188-9-26.355469-10.898437v-16.535156c0-8.285157-6.714844-15-15-15s-15 6.714843-15 15v16.472656c-.371094.074219-.742188.140625-1.113281.222656-9.070313 1.90625-17.636719 5.617188-25.28125 10.699219l-11.640625-11.640625c-5.859375-5.855469-15.355469-5.855469-21.214844 0-5.859375 5.859375-5.859375 15.355469 0 21.214844l11.605469 11.605469c-4.582031 6.863281-8.035157 14.46875-10.03125 22.527343-.320313 1.300781-.601563 2.601563-.855469 3.902344h-16.472656c-8.285156 0-15.003906 6.714844-15.003906 15s6.71875 15 15.003906 15zm46.457031-26.703125c3.941406-15.941406 17.585937-28.878906 33.605469-32.246094 29.605468-6.222656 54.941406 16.140625 54.941406 43.949219 0 11.472656-4.316406 22.398437-12.152344 30.761719-11.675781 12.460937-17.847656 26.890625-17.847656 41.730468v2.511719h-30.007812c-.257813-15.890625-6.675782-31.234375-19.089844-45.632812-9.683594-11.226563-13.128906-26.199219-9.449219-41.074219zm0 0"/></svg>