<svg viewBox="0 0 512 512" xmlns="http://www.w3.org/2000/svg"><path d="m497 182h-60c-8.285156 0-15 6.714844-15 15v60c0 8.285156 6.714844 14.988281 15 14.988281h14.425781c-7.148437 93.054688-80.238281 168.042969-172.746093 178.699219 4.371093-11.246094 5.222656-11.992188 21.6875-56.574219 22.085937-59.789062 41.15625-111.425781 86.238281-156.507812 5.859375-5.859375 5.859375-15.355469 0-21.210938-33.039063-33.042969-52.902344-78.285156-55.34375-125.394531h14.738281c8.285156 0 15-6.714844 15-15s-6.714844-15-15-15h-15v-46c0-8.285156-6.714844-15-15-15h-120c-8.285156 0-15 6.714844-15 15v46h-15c-8.285156 0-15 6.714844-15 15s6.714844 14.988281 15 14.988281h14.738281c-2.441406 47.113281-22.304687 92.363281-55.34375 125.40625-5.859375 5.859375-5.859375 15.355469 0 21.210938 45.082031 45.082031 64.152344 96.71875 86.238281 156.507812 16.316407 44.175781 17.425782 45.605469 21.6875 56.574219-92.507812-10.65625-165.597656-85.632812-172.746093-178.6875h14.425781c8.285156 0 15-6.714844 15-15v-60c0-8.285156-6.714844-15-15-15h-60c-8.285156 0-15 6.714844-15 15v60c0 8.285156 6.714844 15 15 15h15.515625c5.113281 76.945312 49.238281 143.445312 112.832031 180h-53.347656v-15c0-8.285156-6.714844-15-15-15h-60c-8.285156 0-15 6.714844-15 15v60c0 8.285156 6.714844 15 15 15h60c8.285156 0 15-6.714844 15-15v-15h332v15c0 8.285156 6.714844 15 15 15h60c8.285156 0 15-6.714844 15-15v-60c0-8.285156-6.714844-15-15-15h-60c-8.285156 0-15 6.714844-15 15v15h-53.347656c63.59375-36.554688 107.71875-103.054688 112.832031-180h15.515625c8.285156 0 15-6.714844 15-15v-60c0-8.285156-6.714844-15-15-15zm-437 60h-30v-30h30zm0 240h-30v-30h30zm151-452h90v31h-90zm45 182c-8.269531 0-15-6.730469-15-15s6.730469-15 15-15 15 6.730469 15 15-6.730469 15-15 15zm15 175.035156v-147.613281c17.460938-6.195313 30-22.867187 30-42.421875 0-24.8125-20.1875-45-45-45s-45 20.1875-45 45c0 19.554688 12.539062 36.226562 30 42.421875v147.613281c-.40625-1.101562-.820312-2.21875-1.226562-3.316406-20.78125-56.257812-40.488282-109.613281-83.171876-156.820312 32.59375-37.410157 51.921876-85.804688 54.175782-135.898438h90.445312c2.253906 50.09375 21.582032 98.488281 54.179688 135.898438-42.6875 47.207031-62.394532 100.5625-83.175782 156.820312-.40625 1.097656-.820312 2.214844-1.226562 3.316406zm181 64.964844h30v30h-30zm30-210h-30v-30h30zm0 0"/></svg>