<svg viewBox="0 0 512 512" xmlns="http://www.w3.org/2000/svg"><path d="m501.679688 211.75-61.65625-20.257812c-2.386719-6.789063-5.167969-13.480469-8.320313-20.015626l28.632813-57.261718c2.886718-5.777344 1.753906-12.75-2.8125-17.316406l-42.421876-42.421876c-4.566406-4.566406-11.542968-5.699218-17.316406-2.8125l-57.261718 28.632813c-6.535157-3.152344-13.226563-5.933594-20.015626-8.320313l-20.253906-61.660156c-2.027344-6.15625-7.773437-10.316406-14.253906-10.316406h-60c-6.480469 0-12.230469 4.160156-14.25 10.320312l-20.257812 61.65625c-6.789063 2.386719-13.480469 5.167969-20.015626 8.320313l-57.261718-28.632813c-5.777344-2.886718-12.75-1.753906-17.3125 2.8125l-42.425782 42.421876c-4.566406 4.566406-5.699218 11.542968-2.8125 17.316406l28.632813 57.261718c-3.152344 6.535157-5.933594 13.226563-8.320313 20.015626l-61.65625 20.253906c-6.160156 2.023437-10.320312 7.773437-10.320312 14.253906v60c0 6.480469 4.160156 12.226562 10.316406 14.25l61.660156 20.257812c2.386719 6.789063 5.167969 13.480469 8.320313 20.015626l-28.632813 57.261718c-2.886718 5.773438-1.753906 12.75 2.8125 17.3125l42.421876 42.425782c4.566406 4.566406 11.539062 5.699218 17.316406 2.8125l57.261718-28.632813c6.535157 3.152344 13.226563 5.933594 20.015626 8.320313l20.257812 61.65625c2.019531 6.160156 7.769531 10.320312 14.25 10.320312h60c6.480469 0 12.226562-4.160156 14.25-10.316406l20.257812-61.660156c6.789063-2.386719 13.480469-5.167969 20.015626-8.320313l57.261718 28.632813c5.773438 2.886718 12.75 1.753906 17.3125-2.8125l42.425782-42.421876c4.566406-4.566406 5.699218-11.542968 2.8125-17.316406l-28.632813-57.261718c3.152344-6.535157 5.933594-13.226563 8.316406-20.015626l61.660157-20.253906c6.160156-2.027344 10.320312-7.773437 10.320312-14.253906v-60c0-6.480469-4.160156-12.230469-10.320312-14.25zm-19.679688 63.390625-58.542969 19.230469c-4.632812 1.523437-8.238281 5.203125-9.664062 9.871094-3.050781 9.992187-7.128907 19.8125-12.121094 29.183593-2.285156 4.289063-2.351563 9.417969-.175781 13.761719l27.171875 54.34375-27.136719 27.136719-54.347656-27.171875c-4.34375-2.171875-9.472656-2.105469-13.757813.175781-9.371093 4.992187-19.191406 9.070313-29.183593 12.121094-4.667969 1.425781-8.351563 5.03125-9.875 9.667969l-19.226563 58.539062h-38.277344l-19.230469-58.542969c-1.523437-4.636719-5.207031-8.238281-9.875-9.664062-9.992187-3.050781-19.8125-7.128907-29.183593-12.121094-4.289063-2.285156-9.417969-2.351563-13.757813-.175781l-54.347656 27.171875-27.136719-27.136719 27.171875-54.347656c2.171875-4.34375 2.105469-9.46875-.175781-13.757813-4.992187-9.375-9.070313-19.195312-12.121094-29.183593-1.425781-4.667969-5.027343-8.351563-9.664062-9.875l-58.542969-19.226563v-38.277344l58.542969-19.230469c4.636719-1.523437 8.238281-5.207031 9.664062-9.875 3.050781-9.988281 7.128907-19.808593 12.121094-29.183593 2.285156-4.289063 2.351563-9.417969.179687-13.761719l-27.171874-54.34375 27.132812-27.136719 54.347656 27.171875c4.34375 2.171875 9.472656 2.105469 13.757813-.175781 9.375-4.992187 19.195312-9.070313 29.1875-12.121094 4.667969-1.425781 8.347656-5.03125 9.871093-9.667969l19.226563-58.539062h38.277344l19.230469 58.542969c1.523437 4.632812 5.207031 8.238281 9.875 9.664062 9.988281 3.050781 19.808593 7.128907 29.183593 12.121094 4.289063 2.28125 9.414063 2.347656 13.757813.175781l54.347656-27.171875 27.136719 27.136719-27.171875 54.347656c-2.171875 4.34375-2.105469 9.46875.175781 13.757813 4.992187 9.371093 9.070313 19.191406 12.121094 29.183593 1.425781 4.667969 5.027343 8.351563 9.664062 9.875l58.542969 19.226563zm0 0"/><path d="m256 121c-74.691406 0-135 60.820312-135 135 0 74.148438 60.28125 135 135 135 74.691406 0 135-60.820312 135-135 0-74.148438-60.28125-135-135-135zm-99.652344 168.09375c-3.464844-10.40625-5.347656-21.535156-5.347656-33.09375s1.882812-22.6875 5.347656-33.09375c7.621094 3.546875 16.28125 6.628906 25.785156 9.195312-.742187 7.816407-1.132812 15.804688-1.132812 23.898438s.390625 16.082031 1.132812 23.898438c-9.503906 2.566406-18.164062 5.648437-25.785156 9.195312zm13.460938 26.800781c5.039062-2.289062 10.789062-4.355469 17.105468-6.175781 2.839844 12.277344 6.664063 23.726562 11.398438 33.96875-11.171875-7.375-20.855469-16.824219-28.503906-27.792969zm17.105468-113.613281c-6.316406-1.820312-12.066406-3.886719-17.105468-6.175781 7.648437-10.96875 17.332031-20.417969 28.503906-27.792969-4.734375 10.242188-8.558594 21.691406-11.398438 33.96875zm54.085938 151.710938c-9.992188-9.238282-19.15625-27.089844-24.660156-50.335938 7.886718-1.089844 16.15625-1.863281 24.660156-2.285156zm0-82.660157c-10.128906.441407-19.933594 1.328125-29.277344 2.628907-.46875-5.804688-.722656-11.800782-.722656-17.960938s.253906-12.15625.722656-17.960938c9.34375 1.304688 19.148438 2.1875 29.277344 2.628907zm0-60.703125c-8.507812-.421875-16.777344-1.195312-24.660156-2.285156 5.503906-23.246094 14.667968-41.097656 24.660156-50.335938zm101.191406-14.523437c-5.039062 2.289062-10.789062 4.355469-17.105468 6.175781-2.839844-12.277344-6.664063-23.726562-11.398438-33.96875 11.171875 7.375 20.855469 16.824219 28.503906 27.792969zm-71.191406-38.097657c9.992188 9.238282 19.15625 27.089844 24.660156 50.335938-7.886718 1.089844-16.15625 1.863281-24.660156 2.285156zm0 195.984376v-52.621094c8.507812.421875 16.777344 1.195312 24.660156 2.285156-5.503906 23.246094-14.667968 41.097656-24.660156 50.335938zm29.277344-80.03125c-9.34375-1.304688-19.148438-2.1875-29.277344-2.628907v-30.664062c10.128906-.441407 19.933594-1.328125 29.277344-2.628907.46875 5.804688.722656 11.800782.722656 17.960938s-.253906 12.15625-.722656 17.960938zm13.414062 69.726562c4.730469-10.242188 8.554688-21.691406 11.394532-33.96875 6.316406 1.820312 12.070312 3.886719 17.105468 6.175781-7.648437 10.96875-17.332031 20.417969-28.5 27.792969zm41.960938-54.59375c-7.621094-3.546875-16.28125-6.628906-25.785156-9.195312.742187-7.816407 1.132812-15.804688 1.132812-23.898438s-.390625-16.082031-1.132812-23.898438c9.503906-2.566406 18.167968-5.648437 25.785156-9.195312 3.464844 10.40625 5.347656 21.535156 5.347656 33.09375s-1.882812 22.6875-5.347656 33.09375zm0 0"/></svg>