<svg viewBox="0 -16 512 512" xmlns="http://www.w3.org/2000/svg"><path d="m151 165v240c0 8.285156 6.714844 15 15 15h180c8.285156 0 15-6.714844 15-15v-180c0-3.925781-1.609375-7.816406-4.382812-10.59375-.003907-.003906-.007813-.011719-.011719-.015625l-59.996094-59.996094c-.003906-.003906-.011719-.007812-.015625-.011719-2.847656-2.84375-6.742188-4.382812-10.59375-4.382812h-120c-8.285156 0-15 6.714844-15 15zm150 36.214844 8.785156 8.785156h-8.785156zm-120-21.214844h90v45c0 8.285156 6.714844 15 15 15h45v150h-150zm0 0"/><path d="m286 330h-60c-8.285156 0-15 6.714844-15 15s6.714844 15 15 15h60c8.285156 0 15-6.714844 15-15s-6.714844-15-15-15zm0 0"/><path d="m286 270h-60c-8.285156 0-15 6.714844-15 15s6.714844 15 15 15h60c8.285156 0 15-6.714844 15-15s-6.714844-15-15-15zm0 0"/><path d="m467 30h-272.972656l-6.640625-9.960938c-8.367188-12.546874-22.363281-20.039062-37.441407-20.039062h-104.945312c-24.8125 0-45 20.1875-45 45v390c0 24.8125 20.1875 45 45 45h422c24.8125 0 45-20.1875 45-45 0-16.371094 0-344.175781 0-360 0-24.8125-20.1875-45-45-45zm15 105v300c0 8.269531-6.730469 15-15 15h-422c-8.269531 0-15-6.730469-15-15v-390c0-8.269531 6.730469-15 15-15h104.945312c5.027344 0 9.691407 2.496094 12.480469 6.679688 12.652344 18.980468 29.945313 44.917968 42.1875 63.28125 8.367188 12.546874 22.363281 20.039062 37.441407 20.039062h239.945312zm0-45h-239.945312c-5.027344 0-9.691407-2.496094-12.480469-6.679688l-15.546875-23.320312h252.972656c8.269531 0 15 6.730469 15 15zm0 0"/></svg>