<svg viewBox="0 0 512 512" xmlns="http://www.w3.org/2000/svg"><path d="m407 362c-24.8125 0-45 20.1875-45 45s20.1875 45 45 45 45-20.1875 45-45-20.1875-45-45-45zm0 60c-8.269531 0-15-6.730469-15-15s6.730469-15 15-15 15 6.730469 15 15-6.730469 15-15 15zm0 0"/><path d="m105 151c24.8125 0 45-20.1875 45-45s-20.1875-45-45-45-45 20.1875-45 45 20.1875 45 45 45zm0-60c8.269531 0 15 6.730469 15 15s-6.730469 15-15 15-15-6.730469-15-15 6.730469-15 15-15zm0 0"/><path d="m285 181h-210c-8.285156 0-15 6.714844-15 15s6.714844 15 15 15h210c8.285156 0 15-6.714844 15-15s-6.714844-15-15-15zm0 0"/><path d="m496.996094 241h-136.996094v-226c0-8.285156-6.714844-15-15-15h-330c-8.285156 0-15 6.714844-15 15v392c0 4.085938 1.703125 7.917969 4.394531 10.605469l90 90c0 .003906 0 .003906.003907.003906 2.765624 2.765625 6.578124 4.390625 10.601562 4.390625h392c8.285156 0 15-6.714844 15-15v-240.996094c.003906-8.125-6.628906-15.003906-15.003906-15.003906zm-36.210938 30-30 30h-199.570312l-30-30zm-370.785156 189.785156-38.785156-38.785156h38.785156zm60.003906-204.828125c0 .015625-.003906.027344-.003906.042969v226h-30v-75c0-8.285156-6.714844-15-15-15h-75v-362h300v211h-164.996094c-8.238281 0-14.976562 6.679688-15 14.957031zm331.996094 226.042969h-302v-189.785156l34.394531 34.390625c2.8125 2.816406 6.628907 4.394531 10.605469 4.394531h212c3.980469 0 7.792969-1.578125 10.605469-4.394531l34.394531-34.390625zm0 0"/><path d="m285 121h-90c-8.285156 0-15 6.714844-15 15s6.714844 15 15 15h90c8.285156 0 15-6.714844 15-15s-6.714844-15-15-15zm0 0"/><path d="m285 61h-90c-8.285156 0-15 6.714844-15 15s6.714844 15 15 15h90c8.285156 0 15-6.714844 15-15s-6.714844-15-15-15zm0 0"/><path d="m105 241h-30c-8.285156 0-15 6.714844-15 15s6.714844 15 15 15h30c8.285156 0 15-6.714844 15-15s-6.714844-15-15-15zm0 0"/><path d="m105 301h-30c-8.285156 0-15 6.714844-15 15s6.714844 15 15 15h30c8.285156 0 15-6.714844 15-15s-6.714844-15-15-15zm0 0"/></svg>