<svg viewBox="0 0 512 512" xmlns="http://www.w3.org/2000/svg"><path d="m437 0h-362c-41.355469 0-75 33.644531-75 75v121c0 24.507812 11.816406 46.304688 30.050781 60-18.234375 13.695312-30.050781 35.492188-30.050781 60v121c0 41.355469 33.644531 75 75 75h362c41.355469 0 75-33.644531 75-75v-121c0-24.507812-11.816406-46.304688-30.050781-60 18.234375-13.695312 30.050781-35.492188 30.050781-60v-121c0-41.355469-33.644531-75-75-75zm45 316v121c0 24.8125-20.1875 45-45 45h-362c-24.8125 0-45-20.1875-45-45v-121c0-24.8125 20.1875-45 45-45h362c24.8125 0 45 20.1875 45 45zm0-120c0 24.8125-20.1875 45-45 45h-362c-24.8125 0-45-20.1875-45-45v-121c0-24.8125 20.1875-45 45-45h362c24.8125 0 45 20.1875 45 45zm0 0"/><path d="m172.382812 131.023438c4.808594-7.160157 7.617188-15.769532 7.617188-25.023438 0-24.8125-20.1875-45-45-45s-45 20.1875-45 45c0 9.253906 2.808594 17.863281 7.617188 25.023438-22.457032 12.96875-37.617188 37.230468-37.617188 64.976562 0 8.285156 6.714844 15 15 15h120c8.285156 0 15-6.714844 15-15 0-27.746094-15.160156-52.007812-37.617188-64.976562zm-37.382812-40.023438c8.269531 0 15 6.730469 15 15s-6.730469 15-15 15-15-6.730469-15-15 6.730469-15 15-15zm-42.429688 90c6.191407-17.460938 22.875-30 42.429688-30s36.238281 12.539062 42.429688 30zm0 0"/><path d="m165 301c-24.8125 0-45 20.1875-45 45v15h-45c-8.285156 0-15 6.714844-15 15v60c0 8.285156 6.714844 15 15 15h60c8.285156 0 15-6.714844 15-15 0-10.535156 0-75.726562 0-90 0-8.269531 6.730469-15 15-15s15 6.730469 15 15c0 8.285156 6.714844 15 15 15s15-6.714844 15-15c0-24.8125-20.1875-45-45-45zm-45 120h-30v-30h30zm0 0"/><path d="m286 331c-24.8125 0-45 20.1875-45 45s20.1875 45 45 45 45-20.1875 45-45-20.1875-45-45-45zm0 60c-8.269531 0-15-6.730469-15-15s6.730469-15 15-15 15 6.730469 15 15-6.730469 15-15 15zm0 0"/><path d="m286 91c-24.8125 0-45 20.1875-45 45s20.1875 45 45 45 45-20.1875 45-45-20.1875-45-45-45zm0 60c-8.269531 0-15-6.730469-15-15s6.730469-15 15-15 15 6.730469 15 15-6.730469 15-15 15zm0 0"/><path d="m407 91c-24.8125 0-45 20.1875-45 45s20.1875 45 45 45 45-20.1875 45-45-20.1875-45-45-45zm0 60c-8.269531 0-15-6.730469-15-15s6.730469-15 15-15 15 6.730469 15 15-6.730469 15-15 15zm0 0"/><path d="m407 331c-24.8125 0-45 20.1875-45 45s20.1875 45 45 45 45-20.1875 45-45-20.1875-45-45-45zm0 60c-8.269531 0-15-6.730469-15-15s6.730469-15 15-15 15 6.730469 15 15-6.730469 15-15 15zm0 0"/></svg>