<svg viewBox="0 0 512 512.00001" xmlns="http://www.w3.org/2000/svg"><path d="m481.21875 30.78125c-41.035156-41.039062-107.460938-41.042969-148.503906 0l-127.289063 127.289062c-7.21875 7.21875-13.285156 15.363282-18.097656 24.246094-8.832031 4.785156-17.027344 10.878906-24.332031 18.183594l-132.289063 132.289062c-40.941406 40.941407-40.941406 107.5625 0 148.503907 40.941407 40.941406 107.558594 40.945312 148.503907 0l132.289062-132.289063c7.21875-7.21875 13.285156-15.363281 18.097656-24.25 8.832032-4.785156 17.027344-10.875 24.332032-18.179687l127.289062-127.292969c41.039062-41.035156 41.042969-107.457031 0-148.5zm-323.222656 429.296875c-29.246094 29.246094-76.832032 29.246094-106.074219 0-29.246094-29.246094-29.246094-76.828125 0-106.074219l132.289063-132.289062c29.441406-29.441406 76.851562-29.222656 106.074218 0 3.589844 3.589844 6.773438 7.5 9.539063 11.675781l-9.539063 9.539063c-5.851562 5.847656-15.367187 5.851562-21.214844 0-17.566406-17.566407-46.078124-17.566407-63.644531 0l-132.289062 132.289062c-17.546875 17.546875-17.546875 46.097656 0 63.644531 17.542969 17.546875 46.097656 17.546875 63.644531 0l107.589844-107.589843c11.183594 3.980468 23.085937 6.054687 35.308594 6.054687.359374 0 .71875-.007813 1.078124-.011719zm58.789062-143.648437-101.21875 101.21875c-5.847656 5.847656-15.367187 5.847656-21.214844 0-5.847656-5.851563-5.847656-15.367188 0-21.214844l101.234376-101.234375c2.996093 3.996093 6.269531 7.804687 9.839843 11.375 3.582031 3.582031 7.378907 6.867187 11.359375 9.855469zm115.929688-31.070313c-29.371094 29.367187-76.828125 29.242187-106.074219 0-3.589844-3.59375-6.773437-7.5-9.539063-11.675781l9.539063-9.539063c5.84375-5.84375 15.375-5.84375 21.214844 0 17.550781 17.546875 46.101562 17.542969 63.644531 0l127.289062-127.289062c17.566407-17.566407 17.570313-46.078125 0-63.648438-17.566406-17.566406-46.074218-17.566406-63.644531 0l-102.589843 102.589844c-11.183594-3.980469-23.085938-6.054687-35.304688-6.054687-.363281 0-.722656.011718-1.082031.011718l117.761719-117.761718c29.3125-29.308594 76.757812-29.316407 106.074218 0 29.3125 29.3125 29.316406 76.761718 0 106.078124zm-32.574219-94.71875 96.21875-96.214844c5.84375-5.84375 15.375-5.84375 21.214844 0 5.84375 5.84375 5.84375 15.371094 0 21.214844l-96.234375 96.234375c-2.996094-4-6.269532-7.804688-9.839844-11.375-3.582031-3.582031-7.378906-6.871094-11.359375-9.859375zm0 0"/></svg>