<svg viewBox="-91 0 512 512" xmlns="http://www.w3.org/2000/svg"><path d="m285 512c24.8125 0 45-20.1875 45-45v-422c0-24.8125-20.1875-45-45-45h-240c-24.8125 0-45 20.1875-45 45v422c0 24.8125 20.1875 45 45 45zm-255-467c0-8.269531 6.730469-15 15-15h240c8.269531 0 15 6.730469 15 15v15h-270zm0 45h270v332h-270zm0 377v-15h270v15c0 8.269531-6.730469 15-15 15h-240c-8.269531 0-15-6.730469-15-15zm0 0"/><path d="m165 121c-57.898438 0-105 47.101562-105 105 0 57.800781 47.015625 105 105 105 58.007812 0 105-47.214844 105-105 0-57.898438-47.101562-105-105-105zm0 180c-13.613281 0-26.382812-3.664062-37.398438-10.03125 8.226563-12.257812 22.171876-19.96875 37.398438-19.96875 15.222656 0 29.171875 7.710938 37.398438 19.96875-11.015626 6.367188-23.785157 10.03125-37.398438 10.03125zm-15-75c0-8.269531 6.730469-15 15-15s15 6.730469 15 15-6.730469 15-15 15-15-6.730469-15-15zm74.976562 44.976562c-6.128906-8.144531-13.839843-14.917968-22.59375-19.957031 4.808594-7.160156 7.617188-15.765625 7.617188-25.019531 0-24.8125-20.1875-45-45-45s-45 20.1875-45 45c0 9.253906 2.808594 17.859375 7.617188 25.019531-8.757813 5.039063-16.464844 11.816407-22.59375 19.957031-9.429688-12.539062-15.023438-28.117187-15.023438-44.976562 0-41.355469 33.644531-75 75-75s75 33.644531 75 75c0 16.859375-5.59375 32.4375-15.023438 44.976562zm0 0"/><path d="m180 376c0 8.285156-6.714844 15-15 15s-15-6.714844-15-15 6.714844-15 15-15 15 6.714844 15 15zm0 0"/><path d="m240 376c0 8.285156-6.714844 15-15 15s-15-6.714844-15-15 6.714844-15 15-15 15 6.714844 15 15zm0 0"/><path d="m120 376c0 8.285156-6.714844 15-15 15s-15-6.714844-15-15 6.714844-15 15-15 15 6.714844 15 15zm0 0"/></svg>