<svg viewBox="-30 0 511 511.99991" xmlns="http://www.w3.org/2000/svg"><path d="m.507812 135.828125c-.003906.054687-.007812.109375-.007812.164063v240.003906c0 .054687.003906.109375.007812.164062.050782 5.246094 2.882813 10.226563 7.621094 12.898438l209.882813 120.933594c7.859375 4.527343 15.070312-.019532 14.96875.003906 180.273437-103.871094 209.90625-120.945313 210.007812-121 .101563-.101563 7.421875-4.144532 7.507813-12.835938.003906-.054687.007812-.109375.007812-.164062v-240.003906c0-.054688-.003906-.109376-.007812-.164063-.046875-5.074219-2.726563-9.96875-7.289063-12.699219-.074219-.042968-.140625-.089844-.214843-.132812l-210.003907-121c-4.511719-2.597656-10.246093-2.722656-14.976562 0l-210 121c-4.53125 2.605468-7.453125 7.527344-7.503907 12.832031zm209.992188 335.078125-163.890625-95.410156 59.597656-34.058594 104.292969 59.609375zm0-104.414062-90-51.4375v-101.785157l90 51.429688zm30 104.546874v-69.992187l104.296875-59.605469 60.566406 34.609375zm0-104.546874v-101.792969l90.003906-51.429688v101.785157zm180.003906-16.34375-60-34.289063v-119.734375l60-34.285156zm-180.003906-309.203126 164.863281 94.992188-60.566406 34.609375-104.296875-59.605469zm-15 95.976563 89.0625 50.902344-89.0625 50.894531-89.0625-50.894531zm-15-95.976563v69.996094l-104.292969 59.605469-60.566406-34.609375zm-180 120.894532 60 34.285156v119.738281l-60 34.285157zm0 0"/></svg>