<svg viewBox="0 0 512 512" xmlns="http://www.w3.org/2000/svg"><path d="m467 0h-422c-24.8125 0-45 20.1875-45 45v241c0 24.8125 20.1875 45 45 45h46v45c0 8.285156 6.714844 15 15 15h23.175781c1.550781 4.359375 3.335938 8.644531 5.34375 12.839844l-16.40625 16.40625c-5.855469 5.859375-5.855469 15.355468 0 21.214844l42.425781 42.421874c5.859376 5.859376 15.355469 5.859376 21.214844 0l16.402344-16.402343c4.199219 2.007812 8.484375 3.792969 12.84375 5.34375v24.175781c0 8.285156 6.714844 15 15 15h60c8.285156 0 15-6.714844 15-15v-24.175781c4.359375-1.550781 8.644531-3.335938 12.84375-5.34375l16.402344 16.402343c2.8125 2.8125 6.628906 4.394532 10.605468 4.394532 3.976563 0 7.792969-1.582032 10.605469-4.394532l42.425781-42.421874c5.859376-5.859376 5.859376-15.355469.003907-21.214844l-16.40625-16.40625c2.007812-4.195313 3.792969-8.480469 5.347656-12.839844h23.171875c8.285156 0 15-6.714844 15-15v-45h46c24.8125 0 45-20.1875 45-45v-241c0-24.8125-20.1875-45-45-45zm-76 361h-19.242188c-6.835937 0-12.808593 4.621094-14.519531 11.238281-2.414062 9.3125-6.15625 18.3125-11.128906 26.746094-3.476563 5.894531-2.523437 13.386719 2.3125 18.226563l13.644531 13.640624-21.214844 21.214844-13.644531-13.644531c-4.835937-4.835937-12.335937-5.789063-18.226562-2.316406-8.429688 4.972656-17.429688 8.71875-26.742188 11.128906-6.617187 1.714844-11.238281 7.6875-11.238281 14.523437v20.242188h-30v-20.242188c0-6.835937-4.621094-12.808593-11.238281-14.523437-9.316407-2.410156-18.316407-6.15625-26.746094-11.128906-5.894531-3.472657-13.386719-2.519531-18.226563 2.316406l-13.644531 13.644531-21.210937-21.214844 13.644531-13.640624c4.835937-4.839844 5.785156-12.332032 2.3125-18.226563-4.972656-8.433594-8.714844-17.429687-11.128906-26.746094-1.710938-6.617187-7.683594-11.238281-14.519531-11.238281h-19.242188v-30.101562h61.515625c-1 4.917968-1.515625 10.042968-1.515625 15.101562 0 41.355469 33.644531 75 75 75s75-33.644531 75-75c0-5.058594-.515625-10.082031-1.515625-15h61.515625zm-180-15c0-5.136719.890625-10.210938 2.578125-15h84.84375c1.6875 4.789062 2.578125 9.863281 2.578125 15 0 24.8125-20.1875 45-45 45s-45-20.1875-45-45zm271-60c0 8.269531-6.730469 15-15 15h-422c-8.269531 0-15-6.730469-15-15v-241c0-8.269531 6.730469-15 15-15h422c8.269531 0 15 6.730469 15 15zm0 0"/><path d="m220.261719 209.859375c5.605469 2.320313 12.054687 1.035156 16.34375-3.253906l60-60c5.859375-5.859375 5.859375-15.355469 0-21.210938l-60-60c-4.289063-4.292969-10.742188-5.574219-16.34375-3.253906-5.605469 2.324219-9.261719 7.792969-9.261719 13.859375v120c0 6.066406 3.65625 11.535156 9.261719 13.859375zm20.738281-97.644531 23.785156 23.785156-23.785156 23.785156zm0 0"/><path d="m437 241h-46v-15c0-8.285156-6.714844-15-15-15s-15 6.714844-15 15v15h-30v-15c0-8.285156-6.714844-15-15-15s-15 6.714844-15 15v15h-120v-15c0-8.285156-6.714844-15-15-15s-15 6.714844-15 15v15h-61v-15c0-8.285156-6.714844-15-15-15s-15 6.714844-15 15v30c0 8.285156 6.714844 14.898438 15 14.898438h.011719 361.988281c8.285156 0 15-6.613282 15-14.898438s-6.714844-15-15-15zm0 0"/></svg>