<svg viewBox="0 0 512 512" xmlns="http://www.w3.org/2000/svg"><path d="m15 90h15v45c0 8.285156 6.714844 15 15 15s15-6.714844 15-15v-45h15c8.285156 0 15-6.714844 15-15v-15h45c8.285156 0 15-6.714844 15-15s-6.714844-15-15-15h-45v-15c0-8.285156-6.714844-15-15-15h-60c-8.285156 0-15 6.714844-15 15v60c0 8.285156 6.714844 15 15 15zm15-60h30v30h-30zm0 0"/><path d="m497 0h-60c-8.285156 0-15 6.714844-15 15v15h-45c-8.285156 0-15 6.714844-15 15s6.714844 15 15 15h45v15c0 8.285156 6.714844 15 15 15h15v45c0 8.285156 6.714844 15 15 15s15-6.714844 15-15v-45h15c8.285156 0 15-6.714844 15-15v-60c0-8.285156-6.714844-15-15-15zm-15 60h-30v-30h30zm0 0"/><path d="m15 512h60c8.285156 0 15-6.714844 15-15v-15h45c8.285156 0 15-6.714844 15-15s-6.714844-15-15-15h-45v-15c0-8.285156-6.714844-15-15-15h-15v-45c0-8.285156-6.714844-15-15-15s-15 6.714844-15 15v45h-15c-8.285156 0-15 6.714844-15 15v60c0 8.285156 6.714844 15 15 15zm15-60h30v30h-30zm0 0"/><path d="m497 422h-15v-45c0-8.285156-6.714844-15-15-15s-15 6.714844-15 15v45h-15c-8.285156 0-15 6.714844-15 15v15h-45c-8.285156 0-15 6.714844-15 15s6.714844 15 15 15h45v15c0 8.285156 6.714844 15 15 15h60c8.285156 0 15-6.714844 15-15v-60c0-8.285156-6.714844-15-15-15zm-15 60h-30v-30h30zm0 0"/><path d="m195 452c-8.285156 0-15 6.714844-15 15s6.714844 15 15 15h30c8.285156 0 15-6.714844 15-15s-6.714844-15-15-15zm0 0"/><path d="m287 452c-8.285156 0-15 6.714844-15 15s6.714844 15 15 15h30c8.285156 0 15-6.714844 15-15s-6.714844-15-15-15zm0 0"/><path d="m225 60c8.285156 0 15-6.714844 15-15s-6.714844-15-15-15h-30c-8.285156 0-15 6.714844-15 15s6.714844 15 15 15zm0 0"/><path d="m317 60c8.285156 0 15-6.714844 15-15s-6.714844-15-15-15h-30c-8.285156 0-15 6.714844-15 15s6.714844 15 15 15zm0 0"/><path d="m45 271c-8.285156 0-15 6.714844-15 15v31c0 8.285156 6.714844 15 15 15s15-6.714844 15-15v-31c0-8.285156-6.714844-15-15-15zm0 0"/><path d="m452 317c0 8.285156 6.714844 15 15 15s15-6.714844 15-15v-31c0-8.285156-6.714844-15-15-15s-15 6.714844-15 15zm0 0"/><path d="m60 195c0-8.285156-6.714844-15-15-15s-15 6.714844-15 15v30c0 8.285156 6.714844 15 15 15s15-6.714844 15-15zm0 0"/><path d="m467 240c8.285156 0 15-6.714844 15-15v-30c0-8.285156-6.714844-15-15-15s-15 6.714844-15 15v30c0 8.285156 6.714844 15 15 15zm0 0"/><path d="m90 105v120c0 8.285156 6.714844 15 15 15s15-6.714844 15-15c0-24.8125 20.1875-45 45-45h45v167c0 24.8125-20.1875 45-45 45-8.285156 0-15 6.714844-15 15s6.714844 15 15 15h182c8.285156 0 15-6.714844 15-15s-6.714844-15-15-15c-24.8125 0-45-20.1875-45-45v-167h45c24.8125 0 45 20.1875 45 45 0 8.285156 6.714844 15 15 15s15-6.714844 15-15v-120c0-8.285156-6.714844-15-15-15h-302c-8.285156 0-15 6.714844-15 15zm30 15h272v45.035156c-12.542969-9.433594-28.132812-15.035156-45-15.035156h-60c-8.285156 0-15 6.714844-15 15v182c0 16.867188 5.601562 32.457031 15.035156 45h-62.070312c9.433594-12.542969 15.035156-28.132812 15.035156-45v-182c0-8.285156-6.714844-15-15-15h-60c-16.867188 0-32.457031 5.601562-45 15.035156zm0 0"/></svg>