<svg viewBox="0 -16 512 512" xmlns="http://www.w3.org/2000/svg"><path d="m391 120h-6.242188c-20.085937-70.773438-84.804687-120-158.757812-120-79.386719 0-147.570312 56.714844-162.40625 134.019531-38.019531 20.296875-63.59375 61.046875-63.59375 105.980469 0 66.167969 53.832031 120 120 120h91v105c0 8.285156 6.714844 15 15 15h60c8.285156 0 15-6.714844 15-15v-105h90c66.71875 0 121-53.832031 121-120s-54.28125-120-121-120zm-105 210c-8.285156 0-15 6.714844-15 15v105h-30v-105c0-8.285156-6.714844-15-15-15h-30l60-80 60 80zm105 0h-37.5l-67.5-90h30c8.285156 0 15-6.714844 15-15s-6.714844-15-15-15h-120c-8.285156 0-15 6.714844-15 15s6.714844 15 15 15h30l-67.5 90h-38.5c-49.625 0-90-40.375-90-90 0-49.402344 40.617188-90 90-90 8.285156 0 15-6.714844 15-15s-6.714844-15-15-15c-7.566406 0-15.023438.703125-22.304688 2.066406 18.21875-53.886718 69.609376-92.066406 128.304688-92.066406 59.59375 0 111.960938 39.449219 129.09375 95.46875-3.652344 1.144531-7.257812 2.464844-10.808594 3.96875-7.628906 3.226562-11.199218 12.027344-7.972656 19.65625 3.234375 7.640625 12.042969 11.195312 19.660156 7.972656 11.085938-4.6875 22.871094-7.066406 35.027344-7.066406 50.179688 0 91 40.375 91 90s-40.820312 90-91 90zm0 0"/></svg>