<svg viewBox="-16 0 512 512" xmlns="http://www.w3.org/2000/svg"><path d="m480 75c0-41.355469-33.644531-75-75-75h-330c-41.355469 0-75 33.644531-75 75v362c0 41.355469 33.644531 75 75 75h330c41.355469 0 75-33.644531 75-75zm-30 362c0 24.8125-20.1875 45-45 45h-330c-24.8125 0-45-20.1875-45-45v-362c0-24.8125 20.1875-45 45-45h330c24.8125 0 45 20.1875 45 45zm0 0"/><path d="m210 122.578125v-47.578125c0-8.285156-6.714844-15-15-15s-15 6.714844-15 15v47.578125c-17.460938 6.195313-30 22.867187-30 42.421875s12.539062 36.226562 30 42.421875v229.578125c0 8.285156 6.714844 15 15 15s15-6.714844 15-15v-229.578125c17.460938-6.195313 30-22.867187 30-42.421875s-12.539062-36.226562-30-42.421875zm-14.996094 57.421875c-.003906 0-.003906 0-.003906 0h-.003906c-8.269532 0-14.996094-6.730469-14.996094-15s6.730469-15 15-15 15 6.730469 15 15-6.726562 15-14.996094 15zm0 0"/><path d="m300 334.578125v-259.578125c0-8.285156-6.714844-15-15-15s-15 6.714844-15 15v259.578125c-17.460938 6.195313-30 22.867187-30 42.421875s12.539062 36.226562 30 42.421875v17.578125c0 8.285156 6.714844 15 15 15s15-6.714844 15-15v-17.578125c17.460938-6.195313 30-22.867187 30-42.421875s-12.539062-36.226562-30-42.421875zm-15 57.421875c-8.269531 0-15-6.730469-15-15s6.730469-15 15-15 15 6.730469 15 15-6.730469 15-15 15zm0 0"/><path d="m390 92.578125v-17.578125c0-8.285156-6.714844-15-15-15s-15 6.714844-15 15v17.578125c-17.460938 6.195313-30 22.867187-30 42.421875s12.539062 36.226562 30 42.421875v259.578125c0 8.285156 6.714844 15 15 15s15-6.714844 15-15v-259.578125c17.460938-6.195313 30-22.867187 30-42.421875s-12.539062-36.226562-30-42.421875zm-15 57.421875c-8.269531 0-15-6.730469-15-15s6.730469-15 15-15 15 6.730469 15 15-6.730469 15-15 15zm0 0"/><path d="m120 244.578125v-169.578125c0-8.285156-6.714844-15-15-15s-15 6.714844-15 15v169.578125c-17.460938 6.195313-30 22.867187-30 42.421875s12.539062 36.226562 30 42.421875v107.578125c0 8.285156 6.714844 15 15 15s15-6.714844 15-15v-107.578125c17.460938-6.195313 30-22.867187 30-42.421875s-12.539062-36.226562-30-42.421875zm-15 57.421875c-8.269531 0-15-6.730469-15-15s6.726562-15 14.996094-15h.003906.003906c8.269532 0 14.996094 6.730469 14.996094 15s-6.730469 15-15 15zm0 0"/></svg>