<svg viewBox="-31 0 512 512" xmlns="http://www.w3.org/2000/svg"><path d="m45 512h360c8.285156 0 15-6.714844 15-15v-78.578125c17.460938-6.195313 30-22.867187 30-42.421875v-180c0-19.554688-12.539062-36.226562-30-42.421875v-48.578125c0-.011719-.003906-.023438-.003906-.035156-.007813-3.960938-1.597656-7.78125-4.398438-10.578125l-89.992187-89.992188s0-.003906-.003907-.003906c-2.695312-2.695313-6.519531-4.390625-10.601562-4.390625h-270c-3.980469 0-7.792969 1.578125-10.605469 4.394531-2.816406 2.8125-4.394531 6.628907-4.394531 10.605469v138.578125c-17.460938 6.195313-30 22.867187-30 42.421875v180c0 19.554688 12.539062 36.226562 30 42.421875v78.578125c0 8.285156 6.714844 15 15 15zm345-30h-330v-61h330zm-60-430.785156 38.785156 38.785156h-38.785156zm-270-21.316406 240 .003906v75.097656c0 8.285156 6.714844 15 15 15h75v31h-330zm-30 166.101562c0-8.269531 6.730469-15 15-15h360c8.269531 0 15 6.730469 15 15v180c0 8.269531-6.730469 15-15 15h-360c-8.269531 0-15-6.730469-15-15zm0 0"/><path d="m75 301c8.269531 0 15 6.730469 15 15 0 24.8125 20.1875 45 45 45 8.285156 0 15-6.714844 15-15s-6.714844-15-15-15c-8.269531 0-15-6.730469-15-15 0-11.515625-4.347656-22.03125-11.484375-30 7.136719-7.96875 11.484375-18.484375 11.484375-30 0-8.269531 6.730469-15 15-15 8.285156 0 15-6.714844 15-15s-6.714844-15-15-15c-24.8125 0-45 20.1875-45 45 0 8.269531-6.730469 15-15 15-8.285156 0-15 6.714844-15 15s6.714844 15 15 15zm0 0"/><path d="m315 241c8.269531 0 15 6.730469 15 15 0 11.515625 4.347656 22.03125 11.484375 30-7.136719 7.96875-11.484375 18.484375-11.484375 30 0 8.269531-6.730469 15-15 15-8.285156 0-15 6.714844-15 15s6.714844 15 15 15c24.8125 0 45-20.1875 45-45 0-8.269531 6.730469-15 15-15 8.285156 0 15-6.714844 15-15s-6.714844-15-15-15c-8.269531 0-15-6.730469-15-15 0-24.8125-20.1875-45-45-45-8.285156 0-15 6.714844-15 15s6.714844 15 15 15zm0 0"/><path d="m180 286c0 8.285156-6.714844 15-15 15s-15-6.714844-15-15 6.714844-15 15-15 15 6.714844 15 15zm0 0"/><path d="m300 286c0 8.285156-6.714844 15-15 15s-15-6.714844-15-15 6.714844-15 15-15 15 6.714844 15 15zm0 0"/><path d="m240 286c0 8.285156-6.714844 15-15 15s-15-6.714844-15-15 6.714844-15 15-15 15 6.714844 15 15zm0 0"/></svg>