<svg viewBox="-16 0 512 512" xmlns="http://www.w3.org/2000/svg"><path d="m45 210c24.8125 0 45-20.1875 45-45 0-3.070312-.3125-6.066406-.898438-8.96875l50.628907-30.375c3.109375 3.402344 6.542969 6.527344 10.269531 9.332031v77.589844c-4.695312-1.664063-9.742188-2.578125-15-2.578125-24.8125 0-45 20.1875-45 45v95.148438c0 20.03125 7.800781 38.867187 21.96875 53.03125 7.839844 10.117187 38.03125 27.898437 38.03125 69.097656v24.722656c0 8.285156 6.714844 15 15 15h210c8.285156 0 15-6.714844 15-15v-33.671875c0-28.097656 12.113281-48.703125 12.578125-49.949219 11.398437-22.789062 17.421875-48.308594 17.421875-73.789062v-114.589844c0-24.8125-20.1875-45-45-45-5.855469 0-11.449219 1.136719-16.585938 3.179688-5.203124-19.09375-22.691406-33.179688-43.414062-33.179688-11.515625 0-22.03125 4.347656-30 11.484375-7.96875-7.136719-18.484375-11.484375-30-11.484375-5.257812 0-10.304688.914062-15 2.578125v-17.589844c12.164062-9.152343 21.203125-21.769531 26.027344-35.992187l125.019531 15.625c4.421875 20.203125 22.441406 35.378906 43.953125 35.378906 24.8125 0 45-20.1875 45-45s-20.1875-45-45-45c-17.574219 0-32.816406 10.132812-40.222656 24.855469l-125.019532-15.628907c-2.960937-38.664062-35.347656-69.226562-74.757812-69.226562-41.355469 0-75 33.644531-75 75 0 8.605469 1.5 17.019531 4.300781 24.925781l-50.65625 30.394531c-7.789062-6.441406-17.773437-10.320312-28.644531-10.320312-24.8125 0-45 20.1875-45 45s20.1875 45 45 45zm390-120c8.269531 0 15 6.730469 15 15s-6.730469 15-15 15-15-6.730469-15-15 6.730469-15 15-15zm-180 90c8.269531 0 15 6.730469 15 15v60c0 8.285156 6.714844 15 15 15s15-6.714844 15-15v-60c0-8.269531 6.730469-15 15-15s15 6.730469 15 15v90c0 8.285156 6.714844 15 15 15s15-6.714844 15-15v-60c0-8.269531 6.730469-15 15-15s15 6.730469 15 15v114.589844c0 20.847656-4.929688 41.726562-14.253906 60.375-.730469 1.972656-15.746094 26.875-15.746094 63.363281v18.671875h-180v-9.722656c0-55.742188-40.050781-81.304688-46.820312-90.308594-8.5-8.5-13.179688-19.800781-13.179688-31.820312v-95.148438c0-8.269531 6.730469-15 15-15s15 6.730469 15 15v60c0 8.285156 6.714844 15 15 15s15-6.714844 15-15v-210c0-8.046875 6.371094-14.613281 14.335938-14.964844l5.105468.636719c6.109375 1.898437 10.558594 7.601563 10.558594 14.328125v150c0 8.285156 6.714844 15 15 15s15-6.714844 15-15v-60c0-8.269531 6.730469-15 15-15zm-60-150c24.8125 0 45 20.1875 45 45 0 5.167969-.910156 10.21875-2.59375 14.964844-6.253906-17.585938-22.882812-29.769532-41.964844-29.953125-.074218-.003907-.144531-.003907-.21875-.007813-.074218 0-.148437-.003906-.222656-.003906-19.542969 0-36.207031 12.523438-42.40625 29.964844-1.683594-4.746094-2.59375-9.796875-2.59375-14.964844 0-24.8125 20.1875-45 45-45zm-150 120c8.269531 0 15 6.730469 15 15s-6.730469 15-15 15-15-6.730469-15-15 6.730469-15 15-15zm0 0"/></svg>