<svg viewBox="-31 0 512 512.00012" xmlns="http://www.w3.org/2000/svg"><path d="m450 15c0-8.285156-6.714844-15-15-15h-90c-8.285156 0-15 6.714844-15 15v272c0 57.898438-47.101562 105-105 105s-105-47.101562-105-105v-272c0-8.285156-6.714844-15-15-15h-90c-8.285156 0-15 6.714844-15 15v272c0 124.351562 100.632812 225 225 225 124.351562 0 225-100.632812 225-225zm-420 15h60v60h-60zm390 257c0 107.523438-87.476562 195-195 195s-195-87.476562-195-195v-167h60v167c0 74.4375 60.5625 135 135 135s135-60.5625 135-135v-167h60zm0-197h-60v-60h60zm0 0"/><path d="m263.769531 2.832031c-5.964843-4.304687-14.171875-3.640625-19.375 1.5625l-90 90c-3.410156 3.410157-4.972656 8.25-4.199219 13.007813.773438 4.761718 3.785157 8.859375 8.097657 11.015625l46.582031 23.292969-23.289062 46.582031c-3.289063 6.582031-1.324219 14.574219 4.644531 18.875 6.003906 4.332031 14.210937 3.605469 19.378906-1.5625l90-90c3.40625-3.40625 4.972656-8.25 4.199219-13.007813-.773438-4.757812-3.785156-8.855468-8.097656-11.011718l-46.585938-23.292969 23.292969-46.585938c3.289062-6.578125 1.320312-14.574219-4.648438-18.875zm-4.089843 106.277344-20.632813 20.628906c-1.28125-3.421875-3.8125-6.390625-7.339844-8.152343l-41.386719-20.695313 20.632813-20.628906c1.28125 3.421875 3.8125 6.390625 7.339844 8.15625zm0 0"/><path d="m240 257c0 8.285156-6.714844 15-15 15s-15-6.714844-15-15 6.714844-15 15-15 15 6.714844 15 15zm0 0"/><path d="m240 317c0 8.285156-6.714844 15-15 15s-15-6.714844-15-15 6.714844-15 15-15 15 6.714844 15 15zm0 0"/></svg>