<svg viewBox="-61 0 512 512" xmlns="http://www.w3.org/2000/svg"><path d="m390 497v-392c0-3.828125-1.5-7.675781-4.335938-10.539062-.019531-.023438-.035156-.046876-.058593-.066407l-90-90c-2.722657-2.722656-6.5625-4.394531-10.605469-4.394531h-270c-8.285156 0-15 6.714844-15 15v482c0 8.285156 6.714844 15 15 15h360c8.285156 0 15-6.714844 15-15zm-90-445.785156 38.785156 38.785156h-38.785156zm60 430.785156h-330v-452h240v75c0 8.285156 6.714844 15 15 15h75zm0 0"/><path d="m60 166v60c0 8.285156 6.714844 15 15 15h15v122.578125c-17.460938 6.195313-30 22.867187-30 42.421875 0 24.8125 20.1875 45 45 45 19.554688 0 36.226562-12.542969 42.421875-30h95.15625c6.195313 17.457031 22.867187 30 42.421875 30 24.8125 0 45-20.1875 45-45 0-19.554688-12.539062-36.226562-30-42.421875v-47.578125c0-8.285156-6.714844-15-15-15h-47.578125c-4.527344-12.765625-14.65625-22.894531-27.421875-27.421875v-32.578125h105c8.285156 0 15-6.714844 15-15v-60c0-8.285156-6.714844-15-15-15h-240c-8.285156 0-15 6.714844-15 15zm45 255c-8.269531 0-15-6.730469-15-15s6.730469-15 15-15 15 6.730469 15 15-6.730469 15-15 15zm180-30c8.269531 0 15 6.730469 15 15s-6.730469 15-15 15-15-6.730469-15-15 6.730469-15 15-15zm-47.578125-60h32.578125v32.578125c-12.765625 4.527344-22.894531 14.65625-27.421875 27.421875h-95.15625c-4.527344-12.765625-14.65625-22.894531-27.421875-27.421875v-122.578125h60v32.578125c-17.460938 6.195313-30 22.867187-30 42.421875 0 24.8125 20.1875 45 45 45 19.554688 0 36.226562-12.542969 42.421875-30zm-42.421875-30c8.269531 0 15 6.730469 15 15s-6.730469 15-15 15-15-6.730469-15-15 6.730469-15 15-15zm-105-120h210v30h-210zm0 0"/></svg>