<svg viewBox="-91 0 511 511.99988" xmlns="http://www.w3.org/2000/svg"><path d="m91.625 449.796875c6.09375 35.277344 36.898438 62.203125 73.890625 62.203125s67.792969-26.925781 73.886719-62.203125c18.035156-5.867187 31.117187-22.832031 31.117187-42.800781v-66.632813c0-26.367187 9.386719-52.839843 27.144531-76.550781 21.496094-28.699219 32.855469-62.875 32.855469-98.824219 0-103.957031-95.136719-183.25-200.347656-161.324219-64.191406 13.378907-115.1875 65.890626-126.890625 130.667969-8.300781 45.933594 2.121094 91.566407 29.347656 128.488281 18.238282 24.738282 27.882813 51.585938 27.882813 77.648438v66.527344c0 19.96875 13.078125 36.933594 31.113281 42.800781zm73.890625 32.203125c-19.554687 0-36.230469-12.554688-42.421875-30.011719h84.84375c-6.191406 17.457031-22.867188 30.011719-42.421875 30.011719zm75.003906-75.003906c0 8.269531-6.730469 15-15.003906 15h-120.003906c-8.269531 0-15-6.730469-15-15v-17h150.007812zm-183.746093-161.980469c-22.273438-30.207031-30.785157-67.621094-23.96875-105.347656 9.550781-52.871094 51.140624-95.722657 103.488281-106.632813 86.6875-18.066406 164.226562 47.144532 164.226562 131.953125 0 29.414063-9.292969 57.371094-26.871093 80.839844-21.675782 28.941406-33.132813 61.632813-33.132813 94.535156v19.632813h-150.003906v-19.527344c0-32.515625-11.667969-65.523438-33.738281-95.453125zm0 0"/><path d="m98.804688 178.40625 46.585937 23.292969-23.292969 46.582031c-3.289062 6.582031-1.324218 14.578125 4.644532 18.878906 6.015624 4.335938 14.222656 3.597656 19.378906-1.5625l90.003906-90.003906c3.410156-3.410156 4.972656-8.25 4.199219-13.007812-.773438-4.761719-3.785157-8.859376-8.097657-11.015626l-46.585937-23.292968 23.292969-46.585938c3.289062-6.578125 1.320312-14.574218-4.648438-18.875-5.96875-4.304687-14.175781-3.640625-19.375 1.5625l-90.003906 90c-3.410156 3.410156-4.972656 8.253906-4.199219 13.011719.769531 4.757813 3.785157 8.855469 8.097657 11.015625zm52.664062-38.160156c1.28125 3.425781 3.808594 6.394531 7.339844 8.15625l41.386718 20.695312-20.632812 20.628906c-1.28125-3.421874-3.8125-6.390624-7.339844-8.15625l-41.386718-20.691406zm0 0"/><path d="m180.515625 314.992188c0 8.285156-6.714844 15-15 15s-15-6.714844-15-15c0-8.285157 6.714844-15 15-15s15 6.714843 15 15zm0 0"/></svg>