<svg viewBox="-31 0 512 512" xmlns="http://www.w3.org/2000/svg"><path d="m225 122c-90.980469 0-165 74.054688-165 165 0 90.980469 74.054688 165 165 165 91.226562 0 165-74.222656 165-165 0-90.980469-74.054688-165-165-165zm120 179.988281h14.160156c-2.886718 26-13.183594 49.804688-28.730468 69.226563l-9.96875-9.96875c-5.859376-5.855469-15.355469-5.855469-21.214844 0-5.859375 5.859375-5.855469 15.355468 0 21.214844l9.96875 9.96875c-19.421875 15.546874-43.214844 25.84375-69.214844 28.730468v-14.160156c0-8.285156-6.714844-15-15-15s-15 6.714844-15 15v14.160156c-26-2.886718-49.792969-13.183594-69.214844-28.730468l9.96875-9.96875c5.855469-5.859376 5.859375-15.355469 0-21.214844-5.855468-5.855469-15.355468-5.855469-21.214844 0l-9.96875 9.972656c-15.546874-19.425781-25.84375-43.21875-28.730468-69.21875h14.160156c8.285156 0 15-6.714844 15-15s-6.714844-15-15-15h-14.160156c2.886718-26 13.183594-49.792969 28.730468-69.214844l9.96875 9.96875c5.859376 5.859375 15.355469 5.855469 21.214844 0 5.859375-5.859375 5.855469-15.355468 0-21.214844l-9.96875-9.96875c19.421875-15.546874 43.214844-25.84375 69.214844-28.730468v14.160156c0 8.285156 6.714844 15 15 15s15-6.714844 15-15v-14.160156c26 2.886718 49.792969 13.183594 69.214844 28.730468l-9.96875 9.96875c-5.855469 5.859376-5.859375 15.355469 0 21.214844 5.855468 5.855469 15.355468 5.855469 21.214844 0l9.96875-9.972656c15.546874 19.425781 25.84375 43.21875 28.730468 69.21875h-14.160156c-8.285156 0-15 6.714844-15 15s6.714844 14.988281 15 14.988281zm0 0"/><path d="m240 280.785156v-53.785156c0-8.285156-6.714844-15-15-15s-15 6.714844-15 15v60c0 3.976562 1.578125 7.792969 4.394531 10.605469l30 30c5.855469 5.859375 15.355469 5.859375 21.210938 0 5.859375-5.859375 5.859375-15.355469 0-21.210938zm0 0"/><path d="m415.605469 117.605469c5.859375-5.859375 5.859375-15.355469 0-21.210938-5.855469-5.859375-15.355469-5.859375-21.210938 0l-21.257812 21.253907c-29.632813-25.992188-65.015625-43.46875-103.136719-51.167969v-51.480469c0-8.285156-6.714844-15-15-15h-60c-8.285156 0-15 6.714844-15 15v51.480469c-37.628906 7.597656-72.59375 24.714843-101.988281 50.15625l-22.949219-20.761719c-6.144531-5.558594-15.628906-5.078125-21.1875 1.0625-5.558594 6.144531-5.082031 15.628906 1.0625 21.1875l21.699219 19.628906c-36.613281 41.1875-56.636719 93.675782-56.636719 149.246094 0 124.351562 100.632812 225 225 225 124.351562 0 225-100.632812 225-225 0-55.070312-19.664062-107.113281-55.652344-148.136719zm-205.605469-87.605469h30v32.503906c-4.972656-.324218-9.972656-.503906-15-.503906s-10.027344.179688-15 .503906zm210 257c0 107.523438-87.476562 195-195 195s-195-87.476562-195-195 87.476562-195 195-195 195 87.476562 195 195zm0 0"/></svg>