<svg viewBox="0 0 512 512" xmlns="http://www.w3.org/2000/svg"><path d="m15 512h482c5.199219 0 10.027344-2.691406 12.761719-7.113281 2.730469-4.421875 2.980469-9.945313.652343-14.59375l-241-482c-2.539062-5.082031-7.730468-8.292969-13.414062-8.292969s-10.875 3.210938-13.417969 8.292969l-241 482c-2.324219 4.648437-2.074219 10.171875.65625 14.59375 2.734375 4.421875 7.5625 7.113281 12.761719 7.113281zm241-463.460938 36.230469 72.460938h-72.460938zm-51.230469 102.460938h102.460938l45 90h-192.460938zm-60 120h222.460938l45 90h-312.460938zm-60 120h342.460938l45.5 91h-433.460938zm0 0"/></svg>