<svg viewBox="0 0 512 512.00031" xmlns="http://www.w3.org/2000/svg"><path d="m507.605469 85.605469c4.289062-4.289063 5.574219-10.738281 3.253906-16.34375-2.324219-5.605469-7.792969-9.261719-13.859375-9.261719h-45v-45c0-6.066406-3.652344-11.535156-9.261719-13.859375-5.601562-2.320313-12.054687-1.035156-16.34375 3.253906l-34.316406 34.316407c-40.207031-25.03125-88.039063-38.710938-136.078125-38.710938-140.957031 0-256 115.050781-256 256 0 140.957031 115.050781 256 256 256 140.960938 0 256-115.046875 256-256 0-48.039062-13.679688-95.871094-38.710938-136.078125zm-115.605469-4.390625 30-30v23.785156c0 8.285156 6.714844 15 15 15h23.789062l-30 30h-38.789062zm-7.832031 68.785156c24.4375 29.582031 37.832031 66.960938 37.832031 106 0 90.980469-74.46875 165-166 165s-166-74.019531-166-165c0-91.53125 74.46875-166 166-166 39.039062 0 76.417969 13.394531 106 37.832031v.957031l-21.257812 21.257813c-24.128907-19.464844-53.710938-30.046875-84.742188-30.046875-74.375 0-136 61.335938-136 136 0 74.464844 61.425781 135 136 135 74.457031 0 136-60.425781 136-135 0-31.03125-10.578125-60.613281-30.042969-84.742188l21.257813-21.257812zm-138.773438 116.605469c5.855469 5.859375 15.355469 5.859375 21.210938 0l30.628906-30.628907c3.039063 6.09375 4.765625 12.898438 4.765625 20.023438 0 24.394531-21.066406 45-46 45s-46-20.605469-46-45c0-24.933594 21.066406-46 46-46 7.125 0 13.929688 1.726562 20.023438 4.765625l-30.628907 30.628906c-5.859375 5.859375-5.859375 15.355469 0 21.210938zm52.421875-73.636719c-12.085937-8.15625-26.507812-12.96875-41.816406-12.96875-41.195312 0-76 34.804688-76 76 0 41.414062 34.582031 75 76 75 41.414062 0 76-33.582031 76-75 0-15.308594-4.8125-29.730469-12.96875-41.816406l21.394531-21.394532c13.480469 17.789063 21.574219 39.757813 21.574219 63.210938 0 57.898438-47.550781 105-106 105s-106-47.101562-106-105c0-57.457031 48.542969-106 106-106 23.457031 0 45.425781 8.09375 63.210938 21.574219zm184.183594 63.03125c0 124.617188-101.382812 226-226 226s-226-101.382812-226-226 101.382812-226 226-226c40.109375 0 80.023438 10.765625 114.21875 30.566406l-3.824219 3.828125c-2.8125 2.8125-4.394531 6.628907-4.394531 10.605469v15.777344c-31.308594-20-68-30.777344-106-30.777344-107.652344 0-196 88.367188-196 196 0 107.5625 88.289062 195 196 195 107.59375 0 196-87.324219 196-195 0-37.996094-10.777344-74.6875-30.777344-106h15.777344c3.980469 0 7.792969-1.578125 10.605469-4.394531l3.828125-3.824219c19.800781 34.195312 30.566406 74.109375 30.566406 114.21875zm0 0"/></svg>