<svg viewBox="0 -31 512 512" xmlns="http://www.w3.org/2000/svg"><path d="m497 90h-110.1875l-26.582031-79.742188c-2.042969-6.125-7.773438-10.257812-14.230469-10.257812h-180c-6.457031 0-12.1875 4.132812-14.230469 10.257812l-26.582031 79.742188h-5.1875v-15c0-24.8125-20.1875-45-45-45s-45 20.1875-45 45v15h-15c-8.285156 0-15 6.714844-15 15v330c0 8.285156 6.714844 15 15 15h482c8.285156 0 15-6.714844 15-15v-330c0-8.285156-6.714844-15-15-15zm-437-15c0-8.269531 6.730469-15 15-15s15 6.730469 15 15v15h-30zm422 345h-452v-210.101562h98.722656c-4.996094 14.082031-7.722656 29.328124-7.722656 45.101562 0 74.4375 60.5625 135 135 135s135-60.5625 135-135c0-15.773438-2.726562-30.917969-7.722656-45h98.722656zm-331-165c0-57.898438 47.101562-105 105-105s105 47.101562 105 105-47.101562 105-105 105-105-47.101562-105-105zm331-75h-113.804688c-24.25-36.152344-65.488281-60-112.195312-60s-87.945312 23.847656-112.195312 60h-113.804688v-60h106c6.457031 0 12.1875-4.132812 14.230469-10.257812l26.582031-79.742188h158.375l26.582031 79.742188c2.042969 6.125 7.773438 10.257812 14.230469 10.257812h106zm0 0"/><path d="m256 330c41.355469 0 75-33.644531 75-75s-33.644531-75-75-75-75 33.644531-75 75 33.644531 75 75 75zm0-120c24.8125 0 45 20.1875 45 45s-20.1875 45-45 45-45-20.1875-45-45 20.1875-45 45-45zm0 0"/><path d="m316 60h-120c-8.285156 0-15 6.714844-15 15s6.714844 15 15 15h120c8.285156 0 15-6.714844 15-15s-6.714844-15-15-15zm0 0"/><path d="m90 375c0 8.285156-6.714844 15-15 15s-15-6.714844-15-15 6.714844-15 15-15 15 6.714844 15 15zm0 0"/><path d="m90 315c0 8.285156-6.714844 15-15 15s-15-6.714844-15-15 6.714844-15 15-15 15 6.714844 15 15zm0 0"/></svg>