<svg viewBox="0 0 511.99999 511" xmlns="http://www.w3.org/2000/svg"><path d="m481.992188 425.070312v-259.574218c0-8.28125-6.71875-15-15-15-8.285157 0-15 6.71875-15 15v75h-75c-8.285157 0-15 6.714844-15 15 0 8.28125 6.714843 15 15 15h75v154.574218c-12.765626 4.527344-22.894532 14.65625-27.421876 27.421876h-152.574218v-107c0-8.28125-6.71875-15-15-15-8.285156 0-15 6.71875-15 15v107h-154.578125c-4.527344-12.765626-14.65625-22.894532-27.417969-27.421876v-154.574218h106.996094c8.285156 0 15-6.71875 15-15 0-8.285156-6.714844-15-15-15h-106.996094v-152.578125c12.761719-4.527344 22.890625-14.65625 27.417969-27.417969h154.578125v74.996094c0 8.285156 6.714844 15 15 15 8.28125 0 15-6.714844 15-15v-74.996094h74.996094c8.285156 0 15-6.71875 15-15 0-8.285156-6.714844-15-15-15h-259.574219c-6.191407-17.457031-22.863281-30-42.417969-30-24.8125 0-45 20.1875-45 45 0 19.554688 12.539062 36.226562 30 42.417969v337.152343c-17.460938 6.191407-30 22.867188-30 42.421876 0 24.8125 20.1875 44.996093 45 44.996093 19.554688 0 36.226562-12.539062 42.417969-29.996093h337.152343c6.191407 17.457031 22.867188 29.996093 42.421876 29.996093 24.8125 0 44.996093-20.183593 44.996093-44.996093 0-19.554688-12.539062-36.230469-29.996093-42.421876zm-436.992188-394.570312c8.269531 0 15 6.726562 15 15 0 8.269531-6.730469 15-15 15-8.273438 0-15-6.730469-15-15 0-8.273438 6.726562-15 15-15zm0 451.992188c-8.273438 0-15-6.730469-15-15 0-8.273438 6.726562-15 15-15 8.269531 0 15 6.726562 15 15 0 8.269531-6.730469 15-15 15zm421.992188 0c-8.273438 0-15-6.730469-15-15 0-8.273438 6.726562-15 15-15 8.269531 0 15 6.726562 15 15 0 8.269531-6.730469 15-15 15zm0 0"/><path d="m435.171875 13.679688-184.386719 184.386718s0 0-.003906.003906c0 0 0 .003907-.003906.003907l-28.484375 28.488281c-1.648438 1.644531-2.890625 3.652344-3.625 5.863281l-20.09375 60.277344-18.707031 18.710937c-5.859376 5.855469-5.859376 15.355469 0 21.210938 5.855468 5.855469 15.355468 5.859375 21.210937 0l18.707031-18.707031 60.28125-20.09375c2.210938-.738281 4.21875-1.976563 5.863282-3.625l212.878906-212.878907c17.585937-17.585937 17.589844-46.054687 0-63.640624-17.542969-17.542969-46.089844-17.542969-63.636719 0zm-167.953125 252.804687-31.816406 10.605469 10.605468-31.820313 15.378907-15.378906 21.214843 21.210937zm36.59375-36.59375-21.210938-21.214844 141.957032-141.957031 21.214844 21.210938zm173.785156-173.785156-10.613281 10.613281-21.210937-21.214844 10.609374-10.609375c5.851563-5.847656 15.367188-5.847656 21.214844 0 5.863282 5.863281 5.863282 15.347657 0 21.210938zm0 0"/></svg>