<svg viewBox="0 0 512 512" xmlns="http://www.w3.org/2000/svg"><path d="m497 422h-46v-45c0-8.285156-6.714844-15-15-15h-165v-39.785156l85.605469-85.609375c5.859375-5.855469 5.859375-15.351563 0-21.210938l-85.605469-85.609375v-39.785156h75c8.285156 0 15-6.714844 15-15v-60c0-8.285156-6.714844-15-15-15h-180c-8.285156 0-15 6.714844-15 15v60c0 8.285156 6.714844 15 15 15h75v39.785156l-85.605469 85.609375c-5.859375 5.859375-5.859375 15.355469 0 21.210938l85.605469 85.609375v39.785156h-166c-8.285156 0-15 6.714844-15 15v45h-45c-8.285156 0-15 6.714844-15 15v60c0 8.285156 6.714844 15 15 15h120c8.285156 0 15-6.714844 15-15v-60c0-8.285156-6.714844-15-15-15h-45v-30h151v32.578125c-17.460938 6.195313-30 22.867187-30 42.421875 0 24.8125 20.1875 45 45 45s45-20.1875 45-45c0-19.554688-12.539062-36.226562-30-42.421875v-32.578125h150v30h-45c-8.285156 0-15 6.714844-15 15v60c0 8.285156 6.714844 15 15 15h121c8.285156 0 15-6.714844 15-15v-60c0-8.285156-6.714844-15-15-15zm-377 30v30h-90v-30zm61-392v-30h150v30zm75 422c-8.269531 0-15-6.730469-15-15s6.730469-15 15-15 15 6.730469 15 15-6.730469 15-15 15zm0-187.214844-68.785156-68.785156 68.785156-68.785156 68.785156 68.785156zm226 187.214844h-91v-30h91zm0 0"/></svg>