<svg viewBox="0 0 512.00201 512" xmlns="http://www.w3.org/2000/svg"><path d="m380.144531 238.1875c29.242188-29.242188 29.242188-76.820312 0-106.0625-29.308593-29.308594-76.75-29.316406-106.0625 0-29.242187 29.238281-29.242187 76.820312 0 106.0625 29.308594 29.308594 76.75 29.3125 106.0625 0zm-84.851562-84.851562c17.585937-17.582032 46.050781-17.585938 63.640625 0 17.542968 17.546874 17.542968 46.09375 0 63.640624-17.585938 17.585938-46.050782 17.589844-63.640625 0-17.542969-17.546874-17.542969-46.09375 0-63.640624zm0 0"/><path d="m.691406 492.496094c-1.675781 5.328125-.253906 11.144531 3.6875 15.097656 3.945313 3.953125 9.761719 5.390625 15.089844 3.726562 13.023438-4.066406 128.148438-40.605468 159.15625-71.609374 8.304688-8.308594 15.066406-17.691407 20.054688-27.738282 2.855468.167969 5.414062-.425781 7.703124-1.59375 11.390626-5.8125 23.519532-11.847656 36.335938-18.261718 5.957031 77.636718 5.484375 65.023437 5.503906 73.648437.027344 11.195313 11.84375 18.347656 21.742188 13.363281 3.738281-2.484375 42.542968-16.664062 69.894531-61.007812 15.183594-24.613282 23.109375-52.917969 23.109375-81.847656v-10.308594c22.582031-14.609375 43.597656-30.210938 60.824219-46.84375 74.527343-71.949219 91.355469-160.515625 87.757812-264.195313-.273437-7.875-6.597656-14.199219-14.472656-14.472656-103.652344-3.597656-192.238281 13.21875-264.199219 87.757813-16.304687 16.890624-31.628906 36.714843-45.992187 58.796874h-12.476563c-58.375 0-112.675781 33.363282-139.253906 86.546876l-3.601562 7.164062c-2.339844 4.644531-2.105469 10.164062.617187 14.59375s7.542969 7.136719 12.742187 7.148438c8.511719.023437-4.617187-.578126 75.105469 6.550781-6.289062 12.570312-12.546875 25.136719-18.394531 36.605469-1.308594 2.5625-1.816406 5.371093-1.582031 8.101562-9.949219 4.976562-19.246094 11.691406-27.480469 19.925781-30.996094 30.992188-67.777344 145.855469-71.871094 158.851563zm201.792969-113.777344-69.203125-69.203125c4.398438-8.71875 8.847656-17.652344 14.160156-28.265625l83.308594 83.3125c-10.921875 5.464844-19.4375 9.707031-28.265625 14.15625zm74.21875 62.5-5.050781-63.703125c20.144531-10.300781 40.941406-21.3125 61.152344-33.050781-2.519532 39.632812-23.25 75.171875-56.101563 96.753906zm205.21875-411.140625c.503906 32.765625-1.394531 61.765625-5.960937 87.84375-42.570313-6.015625-75.863282-39.3125-81.878907-81.878906 26.074219-4.566407 55.074219-6.464844 87.839844-5.964844zm-227.460937 78.96875c31.425781-32.550781 66.488281-54.125 110.285156-66.394531 4.222656 26.082031 16.476562 50.152344 35.464844 69.136718 18.988281 18.988282 43.054687 31.246094 69.136718 35.464844-12.269531 43.796875-33.84375 78.863282-66.394531 110.285156-36.320313 35.066407-92.160156 66.234376-144.015625 92.785157l-97.257812-97.261719c26.546874-51.855469 57.714843-107.691406 92.78125-144.015625zm-185.144532 125.160156c21.953125-33.578125 58.460938-54.53125 99.042969-56.433593-12.019531 20.613281-23.285156 41.871093-33.808594 62.449218zm49.984375 103.753907 16.898438 16.898437-31.820313 31.820313c-5.859375 5.855468-5.859375 15.355468 0 21.210937 5.855469 5.859375 15.355469 5.859375 21.210938 0l31.820312-31.820313 16.898438 16.898438c-3.59375 9.253906-9.335938 17.964844-16.898438 25.527344-17.191406 17.195312-77.464844 40.574218-118.703125 54.855468 14.367188-41.152343 37.855469-101.285156 55.066407-118.492187 7.5625-7.5625 16.273437-13.304687 25.527343-16.898437zm0 0"/><path d="m252.605469 259.390625c-5.855469-5.855469-15.355469-5.855469-21.210938 0-5.859375 5.859375-5.859375 15.355469 0 21.214844 5.855469 5.855469 15.355469 5.855469 21.210938 0 5.859375-5.859375 5.859375-15.355469 0-21.214844zm0 0"/></svg>