<svg viewBox="0 0 512.00195 512" xmlns="http://www.w3.org/2000/svg"><path d="m498.808594 55.605469-42.421875-42.425781c-17.542969-17.542969-46.09375-17.542969-63.636719 0-15.117188 15.117187-120.605469 120.605468-136.75 136.75l-92.839844-92.839844c-1.46875-1.472656-3.21875-2.605469-5.242187-3.402344l-137.542969-52.695312c-5.523438-2.117188-11.785156-.785157-15.96875 3.402343-4.1875 4.1875-5.519531 10.445313-3.402344 15.972657l52.695313 137.542968c.011719.027344.023437.054688.035156.082032.695313 1.78125 1.808594 3.601562 3.363281 5.160156l92.839844 92.839844c-19.769531 19.769531-121.527344 121.527343-136.746094 136.746093-17.585937 17.585938-17.589844 46.050781 0 63.636719l42.421875 42.425781c17.542969 17.542969 46.09375 17.546875 63.640625 0l136.746094-136.746093 136.75 136.746093c17.542969 17.542969 46.09375 17.546875 63.636719 0l42.425781-42.421875c17.585938-17.589844 17.589844-46.050781 0-63.640625l-136.75-136.746093 136.75-136.75c17.585938-17.585938 17.585938-46.046876-.003906-63.636719zm-457.761719-14.566407 84.558594 32.394532-52.164063 52.160156zm56.992187 436.550782c-5.847656 5.847656-15.363281 5.847656-21.210937 0l-42.425781-42.425782c-5.863282-5.863281-5.863282-15.347656 0-21.210937l8.84375-8.84375 31.816406 31.820313c5.855469 5.855468 15.355469 5.855468 21.210938 0 5.859374-5.859376 5.859374-15.355469 0-21.214844l-31.816407-31.816406 21.210938-21.214844 10.609375 10.609375c5.855468 5.855469 15.351562 5.855469 21.210937 0 5.859375-5.859375 5.859375-15.355469 0-21.214844l-10.605469-10.605469 21.210938-21.210937 31.820312 31.820312c5.855469 5.855469 15.351563 5.855469 21.210938 0 5.859375-5.859375 5.859375-15.355469 0-21.214843l-31.820312-31.816407 21.84375-21.847656 63.640624 63.640625zm-9.121093-325.046875 21.210937-21.210938 282.285156 282.28125-21.210937 21.214844zm388.679687 261.410156c5.863282 5.863281 5.863282 15.347656 0 21.210937l-42.421875 42.425782c-5.847656 5.847656-15.363281 5.847656-21.214843 0l-21.546876-21.550782c5.75-5.75 57.085938-57.085937 63.636719-63.636718zm-42.757812-42.761719-21.214844 21.210938-282.28125-282.28125 21.210938-21.214844zm42.757812-273.160156-136.746094 136.746094-63.636718-63.636719 20.578125-20.582031 31.820312 31.820312c5.855469 5.859375 15.355469 5.859375 21.210938 0 5.859375-5.859375 5.859375-15.355468 0-21.210937l-31.816407-31.820313 21.210938-21.210937 10.605469 10.605469c5.859375 5.855468 15.355469 5.855468 21.214843 0 5.855469-5.859376 5.855469-15.355469 0-21.214844l-10.605468-10.605469 21.210937-21.210937 31.816407 31.816406c5.859374 5.859375 15.355468 5.859375 21.214843 0 5.855469-5.855469 5.855469-15.351563 0-21.210938l-31.820312-31.816406 10.105469-10.109375c5.851562-5.847656 15.367187-5.847656 21.214843 0l42.425781 42.425781c5.859376 5.863282 5.859376 15.351563-.003906 21.214844zm0 0"/></svg>