<svg viewBox="0 -46 512 512" xmlns="http://www.w3.org/2000/svg"><path d="m497 300h-15v-255c0-24.8125-20.1875-45-45-45h-362c-24.8125 0-44.898438 20.1875-44.898438 45v255h-15c-8.285156 0-15.101562 6.714844-15.101562 15v30c0 41.355469 33.644531 75 75 75h362c41.355469 0 75-33.644531 75-75v-30c0-8.285156-6.714844-15-15-15zm-437-255c0-8.269531 6.730469-15 15-15h362c8.269531 0 15.101562 6.730469 15.101562 15v255h-105.101562c-8.28125 0-14.898438 6.714844-14.898438 15v.019531 14.980469h-152.101562v-15c0-8.285156-6.714844-15-15-15h-105zm422.101562 300c0 24.8125-20.289062 45-45.101562 45h-362c-24.8125 0-45-20.1875-45-45v-15h120.101562v15c0 8.285156 6.613282 15 14.898438 15h182c8.285156 0 15-6.714844 15-15v-15h120.101562zm0 0"/><path d="m422.003906 255c0-8.285156-6.71875-15-15-15h-265.574218l84.527343-83.832031 49.4375 49.4375c5.828125 5.828125 15.265625 5.863281 21.136719.078125l60.996094-60.121094c5.894531 2.84375 12.503906 4.4375 19.476562 4.4375 24.8125 0 45-20.1875 45-45s-20.1875-45-45-45-45 20.1875-45 45c0 6.90625 1.566406 13.449219 4.355469 19.300781l-50.28125 49.5625-49.46875-49.46875c-5.84375-5.84375-15.304687-5.863281-21.167969-.046875l-95.4375 94.648438v-143.996094c0-8.285156-6.71875-15-15-15-8.285156 0-15 6.714844-15 15v180c0 8.355469 6.839844 15 14.996094 15h.007812 301.996094c8.28125 0 15-6.714844 15-15zm-45-165c8.269532 0 15 6.730469 15 15s-6.730468 15-15 15c-8.273437 0-15-6.730469-15-15s6.726563-15 15-15zm0 0"/></svg>