<?xml version="1.0" encoding="UTF-8"?>
<svg viewBox="0 0 512 512" version="1.1" xmlns="http://www.w3.org/2000/svg" xmlns:xlink="http://www.w3.org/1999/xlink">
    <!-- Generator: Sketch 49.1 (51147) - http://www.bohemiancoding.com/sketch -->
    <title>i039-sharing</title>
    <desc>Created with Sketch.</desc>
    <defs></defs>
    <g id="Page-1" stroke="none" stroke-width="1" fill="none" fill-rule="evenodd">
        <g id="i039-sharing" fill="#000000" fill-rule="nonzero">
            <path d="M467,211 C447.445312,211 430.773438,223.542969 424.578125,241 L390.160156,241 C387.273438,215 376.976562,191.207031 361.429688,171.785156 L385.105469,148.109375 C401.839844,156.082031 422.480469,153.160156 436.3125,139.328125 C453.855469,121.78125 453.855469,93.234375 436.3125,75.6875 C418.769531,58.144531 390.21875,58.140625 372.671875,75.6875 C358.84375,89.515625 355.925781,110.171875 363.890625,126.894531 L340.214844,150.570312 C320.792969,135.023438 297,124.726562 271,121.839844 L271,87.421875 C288.460938,81.226562 301,64.554688 301,45 C301,20.1875 280.8125,0 256,0 C231.1875,0 211,20.1875 211,45 C211,64.554688 223.539062,81.226562 241,87.421875 L241,121.839844 C215,124.726562 191.207031,135.023438 171.785156,150.570312 L148.109375,126.898438 C156.074219,110.171875 153.152344,89.515625 139.328125,75.6875 C121.78125,58.144531 93.234375,58.144531 75.6875,75.6875 C58.144531,93.234375 58.144531,121.78125 75.6875,139.328125 C84.460938,148.101562 95.984375,152.488281 107.507812,152.488281 C114.144531,152.488281 120.78125,151.023438 126.894531,148.109375 L150.570312,171.785156 C135.023438,191.207031 124.726562,215 121.839844,241 L87.421875,241 C81.226562,223.542969 64.554688,211 45,211 C20.1875,211 1.13686838e-13,231.1875 1.13686838e-13,256 C1.13686838e-13,280.8125 20.1875,301 45,301 C64.554688,301 81.226562,288.457031 87.421875,271 L121.839844,271 C124.726562,297 135.023438,320.792969 150.570312,340.214844 L126.894531,363.890625 C110.171875,355.921875 89.515625,358.84375 75.6875,372.671875 C58.144531,390.21875 58.144531,418.765625 75.6875,436.3125 C93.230469,453.855469 121.78125,453.855469 139.328125,436.3125 C153.15625,422.484375 156.074219,401.824219 148.109375,385.101562 L171.785156,361.429688 C191.75,377.410156 215.660156,387.347656 241,390.160156 L241,424.578125 C223.539062,430.773438 211,447.445312 211,467 C211,491.8125 231.1875,512 256,512 C280.8125,512 301,491.8125 301,467 C301,447.445312 288.460938,430.773438 271,424.578125 L271,390.160156 C296.371094,387.34375 320.277344,377.390625 340.214844,361.429688 L363.890625,385.101562 C355.925781,401.828125 358.847656,422.484375 372.671875,436.3125 C390.21875,453.855469 418.765625,453.859375 436.3125,436.3125 C453.855469,418.765625 453.855469,390.21875 436.3125,372.671875 C422.484375,358.847656 401.828125,355.921875 385.105469,363.890625 L361.429688,340.21875 C376.976562,320.792969 387.273438,297 390.160156,271 L424.578125,271 C430.773438,288.457031 447.445312,301 467,301 C491.8125,301 512,280.8125 512,256 C512,231.1875 491.8125,211 467,211 Z M393.886719,96.902344 C399.746094,91.039062 409.238281,91.035156 415.097656,96.902344 C420.949219,102.75 420.949219,112.265625 415.101562,118.113281 C409.25,123.964844 399.734375,123.964844 393.886719,118.113281 C388.023438,112.25 388.023438,102.765625 393.886719,96.902344 Z M118.113281,118.113281 C112.265625,123.964844 102.746094,123.960938 96.902344,118.113281 C91.050781,112.265625 91.050781,102.75 96.898438,96.898438 C102.761719,91.039062 112.25,91.035156 118.113281,96.898438 C123.976562,102.765625 123.976562,112.25 118.113281,118.113281 Z M45,271 C36.730469,271 30,264.269531 30,256 C30,247.730469 36.730469,241 45,241 C53.269531,241 60,247.730469 60,256 C60,264.269531 53.269531,271 45,271 Z M118.113281,415.097656 C112.253906,420.960938 102.761719,420.964844 96.902344,415.097656 C91.050781,409.25 91.050781,399.734375 96.902344,393.886719 L96.898438,393.886719 C102.75,388.035156 112.265625,388.039062 118.113281,393.886719 C123.976562,399.75 123.976562,409.234375 118.113281,415.097656 Z M256,30 C264.269531,30 271,36.730469 271,45 C271,53.269531 264.269531,60 256,60 C247.730469,60 241,53.269531 241,45 C241,36.730469 247.730469,30 256,30 Z M256,482 C247.730469,482 241,475.269531 241,467 C241,458.730469 247.730469,452 256,452 C264.269531,452 271,458.730469 271,467 C271,475.269531 264.269531,482 256,482 Z M301,350.855469 C287.355469,357.355469 272.09375,361 256,361 C239.90625,361 224.644531,357.355469 211,350.855469 L211,346 C211,321.1875 231.1875,301 256,301 C280.8125,301 301,321.1875 301,346 L301,350.855469 Z M226,241 C226,224.457031 239.457031,211 256,211 C272.542969,211 286,224.457031 286,241 C286,257.542969 272.542969,271 256,271 C239.457031,271 226,257.542969 226,241 Z M329.476562,330.929688 C325.484375,311.421875 313.890625,294.652344 297.941406,283.851562 C309.074219,272.953125 316,257.773438 316,241 C316,207.914062 289.085938,181 256,181 C222.914062,181 196,207.914062 196,241 C196,257.773438 202.925781,272.953125 214.058594,283.851562 C198.109375,294.652344 186.515625,311.421875 182.523438,330.929688 C163.082031,311.859375 151,285.316406 151,256 C151,198.101562 198.101562,151 256,151 C313.898438,151 361,198.101562 361,256 C361,285.316406 348.917969,311.859375 329.476562,330.929688 Z M393.886719,393.886719 C399.734375,388.039062 409.25,388.035156 415.097656,393.886719 C420.949219,399.734375 420.949219,409.25 415.101562,415.101562 C409.238281,420.960938 399.75,420.964844 393.886719,415.101562 C388.023438,409.234375 388.023438,399.75 393.886719,393.886719 Z M467,271 C458.730469,271 452,264.269531 452,256 C452,247.730469 458.730469,241 467,241 C475.269531,241 482,247.730469 482,256 C482,264.269531 475.269531,271 467,271 Z" id="Shape"></path>
        </g>
    </g>
</svg>