<?xml version="1.0" encoding="iso-8859-1"?>
<!-- Generator: Adobe Illustrator 19.0.0, SVG Export Plug-In . SVG Version: 6.00 Build 0)  -->
<svg version="1.1" id="Capa_1" xmlns="http://www.w3.org/2000/svg" xmlns:xlink="http://www.w3.org/1999/xlink" x="0px" y="0px"
	 viewBox="0 0 496 496" style="enable-background:new 0 0 496 496;" xml:space="preserve">
<g>
	<g>
		<circle cx="288" cy="168" r="8"/>
	</g>
</g>
<g>
	<g>
		<circle cx="208" cy="168" r="8"/>
	</g>
</g>
<g>
	<g>
		<path d="M264,216c0,8.824-7.176,16-16,16c-8.824,0-16-7.176-16-16h-16c0,17.648,14.352,32,32,32s32-14.352,32-32H264z"/>
	</g>
</g>
<g>
	<g>
		<path d="M426.728,267.344L437.784,248H424c-30.88,0-56-25.128-56-56v-87.016c0-21.912-14.088-41.08-34.664-47.776l-1.24-2.168
			C312.696,21.096,276.352,0,237.248,0C177.008,0,128,49.008,128,109.24V192c0,30.872-25.12,56-56,56H58.216l11.056,19.344
			c12.912,22.592,33.664,39.208,57.688,47.24l-8.664,2.888C95.384,325.104,80,346.456,80,370.592V496h336V370.592
			c0-24.144-15.384-45.496-38.288-53.12l-8.672-2.888C393.064,306.544,413.824,289.928,426.728,267.344z M144,109.24
			C144,57.832,185.832,16,237.248,16c33.376,0,64.4,18,80.96,46.984l4.536,7.944l3.312,0.832C341.336,75.576,352,89.24,352,104.984
			v47.224c-4.672-3.536-10.056-6.184-16-7.392V120h-16v15.696c-13.488-1.424-25.72-8.696-33.344-20.136L280,105.576l-6.656,9.984
			C265.28,127.656,253.6,136.688,240,141.456V100.68l-23.024,23.04C205.8,134.888,191.472,141.728,176,143.504V120h-16v24.808
			c-5.944,1.216-11.328,3.856-16,7.392V109.24z M352,184c0,10.536-6.872,19.416-16.336,22.632c0.168-2.2,0.336-4.392,0.336-6.632
			v-38.528C345.288,164.784,352,173.584,352,184z M248,272c-39.696,0-72-32.296-72-72v-40.376c17.816-1.648,34.48-8.776,48-20.584
			v23.216l13.96-3.504c16.496-4.12,31.16-13.144,42.2-25.808c10.456,10.928,24.608,17.616,39.84,18.808V200
			C320,239.704,287.696,272,248,272z M280,281.888v12.56c-1.736,3.808-9.536,17.552-32,17.552c-22.28,0-30.176-13.616-32-17.568
			v-12.544c9.936,3.896,20.704,6.112,32,6.112S270.064,285.784,280,281.888z M160,161.472V200c0,2.24,0.168,4.432,0.336,6.632
			C150.872,203.416,144,194.536,144,184C144,173.584,150.712,164.784,160,161.472z M85.192,262.792
			c26.432-4.92,47.776-24.344,55.576-49.656c6.056,5.664,13.864,9.36,22.52,10.392c5.792,20.84,19.032,38.576,36.712,50.136v16.576
			l-41.08,13.696C128.976,303.56,101.144,288,85.192,262.792z M96,480v-48h40v32h64c10.416,0,19.216,6.712,22.528,16H96z
			 M256.808,480h-17.616c-3.72-18.232-19.872-32-39.192-32h-16v-88h128v24h-70.424l-36,24l36,24H312v16h-16
			C276.688,448,260.528,461.768,256.808,480z M312,400v16h-52v-16H312z M244,401.616v12.768L234.424,408L244,401.616z M400,480
			H273.472c3.312-9.288,12.112-16,22.528-16h64v-32h40V480z M372.648,332.648c16.36,5.456,27.352,20.704,27.352,37.944V416h-40v-48
			h-16v80h-16V344H168v104h-16v-80h-16v48H96v-45.408c0-17.24,10.992-32.496,27.352-37.944l80.672-26.888
			C209.52,314.496,222.184,328,248,328s38.48-13.504,43.976-22.24L372.648,332.648z M337.08,303.928L296,290.232v-16.576
			c17.68-11.56,30.912-29.304,36.712-50.136c8.656-1.032,16.456-4.728,22.52-10.392c7.8,25.312,29.144,44.736,55.576,49.656
			C394.856,288,367.024,303.56,337.08,303.928z"/>
	</g>
</g>
<g>
</g>
<g>
</g>
<g>
</g>
<g>
</g>
<g>
</g>
<g>
</g>
<g>
</g>
<g>
</g>
<g>
</g>
<g>
</g>
<g>
</g>
<g>
</g>
<g>
</g>
<g>
</g>
<g>
</g>
</svg>
