<?xml version="1.0" encoding="iso-8859-1"?>
<!-- Generator: Adobe Illustrator 19.0.0, SVG Export Plug-In . SVG Version: 6.00 Build 0)  -->
<svg version="1.1" id="Capa_1" xmlns="http://www.w3.org/2000/svg" xmlns:xlink="http://www.w3.org/1999/xlink" x="0px" y="0px"
	 viewBox="0 0 496 496" style="enable-background:new 0 0 496 496;" xml:space="preserve">
<g>
	<g>
		<circle cx="288" cy="176" r="8"/>
	</g>
</g>
<g>
	<g>
		<circle cx="208" cy="176" r="8"/>
	</g>
</g>
<g>
	<g>
		<path d="M377.712,317.48L368,314.24V120C368,53.832,314.168,0,248,0S128,53.832,128,120v194.24l-9.704,3.24
			C95.384,325.104,80,346.456,80,370.592V496h336V370.592C416,346.456,400.608,325.104,377.712,317.48z M144,120
			c0-57.344,46.656-104,104-104s104,46.656,104,104v32.208c-4.672-3.536-10.056-6.184-16-7.392V112h-16c0,13.232-10.768,24-24,24
			c-6.912,0-13.296-2.952-17.976-8.304l-6.024-6.88l-6.024,6.888c-9.352,10.704-26.584,10.712-35.96,0L224,120.816l-6.016,6.888
			C213.296,133.048,206.912,136,200,136c-13.232,0-24-10.768-24-24h-16v32.808c-5.944,1.216-11.328,3.856-16,7.392V120z M248,272
			c-39.696,0-72-32.304-72-72v-56.208c6.704,5.08,14.96,8.208,24,8.208c8.688,0,17.104-2.904,24-8.144
			c13.792,10.48,34.192,10.488,48,0c6.896,5.24,15.312,8.144,24,8.144c9.04,0,17.296-3.128,24-8.208V200
			C320,239.696,287.704,272,248,272z M280,281.888v12.568C278.264,298.28,270.448,312,248,312c-22.28,0-30.176-13.616-32-17.568
			v-12.544c9.936,3.896,20.704,6.112,32,6.112S270.064,285.784,280,281.888z M296,273.656c17.68-11.56,30.912-29.304,36.712-50.136
			c7.2-0.856,13.776-3.56,19.288-7.728v93.112l-56-18.672V273.656z M335.664,206.632c0.168-2.2,0.336-4.392,0.336-6.632v-38.528
			c9.288,3.312,16,12.112,16,22.528C352,194.536,345.128,203.416,335.664,206.632z M160,161.472V200c0,2.24,0.168,4.432,0.336,6.632
			C150.872,203.416,144,194.536,144,184C144,173.584,150.712,164.784,160,161.472z M144,215.792
			c5.512,4.168,12.088,6.872,19.288,7.728c5.792,20.84,19.032,38.576,36.712,50.136v16.576l-56,18.672V215.792z M144,325.768
			l60.024-20.008C209.52,314.496,222.184,328,248,328c25.816,0,38.48-13.504,43.976-22.24L352,325.768V448h-48
			c-1.784,0-3.488,0.296-5.208,0.528L304.536,360h-65.344c-3.72-18.232-19.872-32-39.192-32c-22.056,0-40,17.944-40,40
			c0,20.184,15.088,36.76,34.544,39.448l2.664,41.08c-1.72-0.232-3.424-0.528-5.208-0.528h-48V325.768z M193.472,390.984
			C183.424,388.12,176,378.96,176,368c0-13.232,10.768-24,24-24c10.416,0,19.216,6.712,22.528,16h-31.064L193.472,390.984z
			 M287.464,376l-2.056,31.688c-6.272-0.752-14.408-3.904-22.44-7.12C252.44,396.36,241.536,392,232,392
			c-7.888,0-15.48,2.888-22,6.6l-1.464-22.6H287.464z M96,370.592c0-17.24,10.992-32.488,27.352-37.944l4.648-1.552V400H96V370.592z
			 M96,480v-64h32v48h64c10.416,0,19.216,6.712,22.528,16H96z M264.808,480h-33.616c-2.184-10.704-8.68-19.808-17.56-25.552
			l-2.432-37.376C218.736,411.36,226.224,408,232,408c6.464,0,15.896,3.776,25.032,7.432c9.24,3.696,18.704,7.32,27.336,8.2
			l-2,30.816C273.496,460.192,266.992,469.296,264.808,480z M400,480H281.472c3.312-9.288,12.112-16,22.528-16h64v-48h32V480z
			 M400,400h-32v-68.904l4.648,1.552c16.36,5.456,27.352,20.704,27.352,37.944V400z"/>
	</g>
</g>
<g>
	<g>
		<path d="M264,216c0,8.824-7.176,16-16,16c-8.824,0-16-7.176-16-16h-16c0,17.648,14.352,32,32,32s32-14.352,32-32H264z"/>
	</g>
</g>
<g>
</g>
<g>
</g>
<g>
</g>
<g>
</g>
<g>
</g>
<g>
</g>
<g>
</g>
<g>
</g>
<g>
</g>
<g>
</g>
<g>
</g>
<g>
</g>
<g>
</g>
<g>
</g>
<g>
</g>
</svg>
