<?xml version="1.0" encoding="iso-8859-1"?>
<!-- Generator: Adobe Illustrator 19.0.0, SVG Export Plug-In . SVG Version: 6.00 Build 0)  -->
<svg version="1.1" id="Capa_1" xmlns="http://www.w3.org/2000/svg" xmlns:xlink="http://www.w3.org/1999/xlink" x="0px" y="0px"
	 viewBox="0 0 496 496" style="enable-background:new 0 0 496 496;" xml:space="preserve">
<g>
	<g>
		<path d="M432,384v-17.984c0-26.12-17.752-48.528-43.176-54.512L296,289.664v-16c17.68-11.56,30.912-29.304,36.712-50.136
			C352.528,221.16,368,204.44,368,184v-64C368,53.832,314.168,0,248,0S128,53.832,128,120v64c0,20.44,15.472,37.16,35.288,39.52
			c5.792,20.84,19.032,38.576,36.712,50.136v16l-92.824,21.832C81.752,317.488,64,339.896,64,366.016V384h-8v48h16v64h352v-64h16
			v-48H432z M368,323.04l17.16,4.04c18.16,4.272,30.84,20.28,30.84,38.936V384h-48V323.04z M335.664,206.632
			c0.168-2.2,0.336-4.392,0.336-6.632v-38.528c9.288,3.312,16,12.112,16,22.528C352,194.536,345.128,203.416,335.664,206.632z
			 M352,152.208c-4.672-3.536-10.056-6.184-16-7.392V128h16V152.208z M351.592,112h-39.968c-2.408-43.816-23.8-75.36-40.216-93.248
			C314.976,28.832,348.088,66.296,351.592,112z M318.48,128c-6.888,18-36.368,32-70.48,32s-63.592-14-70.48-32H318.48z
			 M248.016,18.304c12.2,10.56,44.408,43.16,47.6,93.696h-95.232C203.592,61.64,235.832,28.904,248.016,18.304z M144,128h16v16.808
			c-5.944,1.216-11.328,3.856-16,7.392V128z M144,184c0-10.416,6.712-19.216,16-22.528V200c0,2.24,0.168,4.432,0.336,6.632
			C150.872,203.416,144,194.536,144,184z M144.408,112c3.504-45.704,36.616-83.168,80.184-93.248
			C208.176,36.64,186.784,68.184,184.376,112H144.408z M176,200v-47.48c7.44,6.728,17.152,12.32,28.52,16.36
			c-2.656,1.296-4.52,3.968-4.52,7.12c0,4.416,3.584,8,8,8s8-3.584,8-8c0-1.504-0.528-2.832-1.248-4.032
			C224.968,174.552,236.168,176,248,176c11.832,0,23.032-1.448,33.248-4.032c-0.72,1.2-1.248,2.528-1.248,4.032c0,4.416,3.584,8,8,8
			c4.416,0,8-3.584,8-8c0-3.152-1.864-5.824-4.52-7.128c11.368-4.032,21.08-9.632,28.52-16.36V200c0,39.704-32.304,72-72,72
			S176,239.704,176,200z M216,292.152v-10.264c9.936,3.896,20.704,6.112,32,6.112s22.064-2.216,32-6.112v10.264l-32,25.608
			L216,292.152z M235.192,328l-22.8,18.24l-11.528-40.344l5.176-1.216L235.192,328z M289.96,304.68l5.176,1.216l-11.528,40.344
			l-22.8-18.24L289.96,304.68z M176,311.744l9.272-2.184l18.336,64.2L248,338.248l44.392,35.512l18.336-64.192l9.272,2.176v76.944
			l-8,8v-9.632l-48-24v57.632L260.688,424h-25.376L232,420.688v-57.632l-48,24v9.632l-8-8V311.744z M128,480H88v-48h40V480z
			 M128,416H72v-16h56V416z M128,384H80v-17.984c0-18.656,12.68-34.664,30.84-38.936l17.16-4.04V384z M216,480h-72V319.28l16-3.768
			v79.8l24,24v24l32,32V480z M264,480h-32v-11.312l-32-32v-39.744l16-8v38.368L228.688,440h38.624L280,427.312v-38.368l16,8v39.744
			l-32,32V480z M352,480h-72v-4.688l32-32v-24l24-24v-79.8l16,3.768V480z M408,480h-40v-48h40V480z M424,416h-56v-16h56V416z"/>
	</g>
</g>
<g>
	<g>
		<path d="M264,216c0,8.824-7.176,16-16,16c-8.824,0-16-7.176-16-16h-16c0,17.648,14.352,32,32,32s32-14.352,32-32H264z"/>
	</g>
</g>
<g>
</g>
<g>
</g>
<g>
</g>
<g>
</g>
<g>
</g>
<g>
</g>
<g>
</g>
<g>
</g>
<g>
</g>
<g>
</g>
<g>
</g>
<g>
</g>
<g>
</g>
<g>
</g>
<g>
</g>
</svg>
