<?xml version="1.0" encoding="iso-8859-1"?>
<!-- Generator: Adobe Illustrator 19.0.0, SVG Export Plug-In . SVG Version: 6.00 Build 0)  -->
<svg version="1.1" id="Capa_1" xmlns="http://www.w3.org/2000/svg" xmlns:xlink="http://www.w3.org/1999/xlink" x="0px" y="0px"
	 viewBox="0 0 496 496" style="enable-background:new 0 0 496 496;" xml:space="preserve">
<g>
	<g>
		<path d="M377.712,317.472L296,290.232v-16.576c17.68-11.56,30.912-29.304,36.712-50.136C352.528,221.16,368,204.44,368,184v-64
			C368,53.832,314.168,0,248,0S128,53.832,128,120v64c0,20.44,15.472,37.16,35.288,39.52c5.792,20.84,19.032,38.576,36.712,50.136
			v16.576l-81.712,27.232C95.384,325.104,80,346.456,80,370.6V496h336V370.6C416,346.456,400.616,325.104,377.712,317.472z
			 M335.664,206.632c0.168-2.2,0.336-4.392,0.336-6.632v-38.528c9.288,3.312,16,12.112,16,22.528
			C352,194.536,345.128,203.416,335.664,206.632z M352,152.208c-4.672-3.536-10.056-6.184-16-7.392v-2.712
			c6.52-4.696,11.944-9.904,16-15.528V152.208z M285.032,22.928c31.784,12.176,56.08,39.456,64.064,73.072h-45.472
			c-2.744-29.192-19.696-52.976-28.576-63.632C279.92,29.112,283.144,25.496,285.032,22.928z M287.48,96h-78.968
			c3.336-28.64,23.256-51.952,28.056-57.192C240.016,39.536,243.784,40,248,40s7.984-0.464,11.424-1.192
			C264.232,44.048,284.144,67.36,287.48,96z M248,16c6.752,0,13.336,0.696,19.728,1.936C263.872,20.928,257.632,24,248,24
			c-9.632,0-15.872-3.072-19.728-6.064C234.664,16.696,241.248,16,248,16z M210.976,22.928c1.88,2.568,5.104,6.176,9.984,9.44
			c-8.88,10.656-25.832,34.44-28.576,63.632h-45.472C154.888,62.384,179.184,35.104,210.976,22.928z M144,126.568
			c4.056,5.632,9.48,10.84,16,15.536v2.704c-5.944,1.216-11.328,3.856-16,7.392V126.568z M144,184c0-10.416,6.712-19.216,16-22.528
			V200c0,2.24,0.168,4.432,0.336,6.632C150.872,203.416,144,194.536,144,184z M153.928,112H342.08c-9.376,20.64-52.744,40-94.072,40
			S163.304,132.64,153.928,112z M176,200v-48.392C196.856,161.864,223.088,168,248,168s51.144-6.136,72-16.392V200
			c0,39.696-32.304,72-72,72S176,239.696,176,200z M280,281.888v12.56c-1.736,3.808-9.536,17.552-32,17.552
			c-22.28,0-30.176-13.624-32-17.568v-12.544c9.936,3.896,20.704,6.112,32,6.112S270.064,285.784,280,281.888z M136,480H96v-48h40
			V480z M400,480h-40v-48h40V480z M400,384h-16v16h16v16h-40v-48h-16v112H152V368h-16v48H96v-16h16v-16H96v-13.4
			c0-0.88,0.152-1.728,0.208-2.6H112v-16h-11.384c4.696-8.936,12.688-16,22.736-19.352l80.672-26.888
			C209.52,314.496,222.184,328,248,328s38.48-13.504,43.976-22.24l80.672,26.888c10.048,3.352,18.04,10.416,22.736,19.352H384v16
			h15.792c0.056,0.872,0.208,1.72,0.208,2.6V384z"/>
	</g>
</g>
<g>
	<g>
		<circle cx="288" cy="176" r="8"/>
	</g>
</g>
<g>
	<g>
		<circle cx="208" cy="176" r="8"/>
	</g>
</g>
<g>
	<g>
		<path d="M264,216c0,8.824-7.176,16-16,16c-8.824,0-16-7.176-16-16h-16c0,17.648,14.352,32,32,32s32-14.352,32-32H264z"/>
	</g>
</g>
<g>
</g>
<g>
</g>
<g>
</g>
<g>
</g>
<g>
</g>
<g>
</g>
<g>
</g>
<g>
</g>
<g>
</g>
<g>
</g>
<g>
</g>
<g>
</g>
<g>
</g>
<g>
</g>
<g>
</g>
</svg>
