<?xml version="1.0" encoding="iso-8859-1"?>
<!-- Generator: Adobe Illustrator 19.0.0, SVG Export Plug-In . SVG Version: 6.00 Build 0)  -->
<svg version="1.1" id="Capa_1" xmlns="http://www.w3.org/2000/svg" xmlns:xlink="http://www.w3.org/1999/xlink" x="0px" y="0px"
	 viewBox="0 0 496 496" style="enable-background:new 0 0 496 496;" xml:space="preserve">
<g>
	<g>
		<path d="M377.712,317.48L296,290.232v-16.48c5.064-3.312,9.848-7.136,14.224-11.52c2.256-2.256,4.344-4.632,6.32-7.08
			c6.736,17.152,20.616,30.992,38.864,37.08L376,299.104V288c0-26.168-9.656-50.8-27.104-70.056
			C360.312,210.896,368,198.376,368,184v-64C368,53.832,314.168,0,248,0S128,53.832,128,120v64c0,20.44,15.472,37.16,35.288,39.52
			c5.8,20.832,19.032,38.568,36.712,50.128v16.576l-81.712,27.24C95.392,325.104,80,346.456,80,370.592V496h336V370.592
			C416,346.456,400.608,325.104,377.712,317.48z M310.672,311.992l-42.632,71.056l-10.776-18.472l34.376-58.928L310.672,311.992z
			 M264,400v16h-32v-16H264z M248,348.688l-32-54.856v-11.944c9.936,3.896,20.704,6.112,32,6.112c0.008,0,0.008,0,0.016,0
			c11.128,0,21.92-2.12,31.984-6.04v11.872L248,348.688z M359.28,276.64c-17.52-6.352-29.456-22.32-30.976-40.736
			c1.728-3.872,3.192-7.848,4.344-11.944l1.416,1.416C348.08,239.4,356.824,257.288,359.28,276.64z M335.68,206.624
			c0.16-2.2,0.32-4.392,0.32-6.616v-38.536c9.288,3.312,16,12.112,16,22.528C352,194.536,345.136,203.408,335.68,206.624z M144,184
			c0-10.416,6.712-19.216,16-22.528V200c0,2.24,0.168,4.432,0.336,6.632C150.872,203.416,144,194.536,144,184z M160,104v40.808
			c-5.944,1.216-11.328,3.856-16,7.392V120c0-57.344,46.656-104,104-104s104,46.656,104,104v32.208
			c-4.672-3.536-10.056-6.184-16-7.392V144c0-27.504-9.096-54.792-25.6-76.8l-12.8,9.6c11.176,14.904,18.416,32.576,21.136,50.96
			L248,78.232l-72,50.4V104H160z M176,200v-51.832l72-50.4l72,50.4v51.84c0,11.296-2.648,22.168-7.544,31.992H312
			c0,0.28,0.064,0.552,0.064,0.832c-3.384,6.584-7.768,12.696-13.16,18.08C285.312,264.512,267.232,272,248.008,272
			c-0.008,0-0.008,0-0.016,0C208.296,271.992,176,239.696,176,200z M204.36,305.648L250.064,384h-21.536l-43.208-72.008
			L204.36,305.648z M400,480h-40V368h-16v112H152V368h-16v112H96V370.592c0-17.24,10.992-32.496,27.352-37.944l46.424-15.472
			L216,394.216V432h64v-37.784l46.224-77.04l46.424,15.472c16.36,5.456,27.352,20.704,27.352,37.944V480z"/>
	</g>
</g>
<g>
	<g>
		<circle cx="288" cy="168" r="8"/>
	</g>
</g>
<g>
	<g>
		<circle cx="208" cy="168" r="8"/>
	</g>
</g>
<g>
	<g>
		<path d="M264,216c0,8.824-7.176,16-16,16c-8.824,0-16-7.176-16-16h-16c0,17.648,14.352,32,32,32s32-14.352,32-32H264z"/>
	</g>
</g>
<g>
</g>
<g>
</g>
<g>
</g>
<g>
</g>
<g>
</g>
<g>
</g>
<g>
</g>
<g>
</g>
<g>
</g>
<g>
</g>
<g>
</g>
<g>
</g>
<g>
</g>
<g>
</g>
<g>
</g>
</svg>
