<?xml version="1.0" encoding="iso-8859-1"?>
<!-- Generator: Adobe Illustrator 19.0.0, SVG Export Plug-In . SVG Version: 6.00 Build 0)  -->
<svg version="1.1" id="Capa_1" xmlns="http://www.w3.org/2000/svg" xmlns:xlink="http://www.w3.org/1999/xlink" x="0px" y="0px"
	 viewBox="0 0 496 496" style="enable-background:new 0 0 496 496;" xml:space="preserve">
<g>
	<g>
		<path d="M264,216c0,8.824-7.176,16-16,16c-8.824,0-16-7.176-16-16h-16c0,17.648,14.352,32,32,32s32-14.352,32-32H264z"/>
	</g>
</g>
<g>
	<g>
		<path d="M377.712,317.472L296,290.232v-16.576c8.216-5.376,15.448-12.096,21.456-19.824C349.568,226.896,368,187.456,368,145.52
			V120C368,53.832,314.168,0,248,0S128,53.832,128,120v20.88c-23.776,9.696-40,33.08-40,59.12c0,35.288,28.712,64,64,64
			c10.216,0,20.096-2.456,29.048-7.032c5.48,6.432,11.856,12.056,18.952,16.696v16.576l-81.712,27.232
			C95.392,325.104,80,346.456,80,370.6V496h336V370.6C416,346.456,400.608,325.104,377.712,317.472z M301.88,309.064l-17.384,52.128
			L259.312,336l30.848-30.848L301.88,309.064z M284.688,384h-73.376L248,347.312L284.688,384z M216,292.688v-10.8
			c9.936,3.896,20.704,6.112,32,6.112s22.064-2.216,32-6.112v10.8l-32,32L216,292.688z M320,160h-1.472
			c-3.312-9.288-12.112-16-22.528-16h-16c-10.416,0-19.216,6.712-22.528,16H238.52c-3.312-9.288-12.112-16-22.528-16h-16
			c-10.416,0-19.216,6.712-22.528,16H176v-16h8c24.224,0,47.496-10.176,64-27.616C264.504,133.824,287.776,144,312,144h8V160z
			 M304,168c0,4.408-3.584,8-8,8h-16c-4.416,0-8-3.592-8-8s3.584-8,8-8h16C300.416,160,304,163.592,304,168z M224,168
			c0,4.408-3.584,8-8,8h-16c-4.416,0-8-3.592-8-8s3.584-8,8-8h16C220.416,160,224,163.592,224,168z M144,120
			c0-57.344,46.656-104,104-104s104,46.656,104,104v25.52c0,21.968-5.832,43.096-16.368,61.696c0.2-2.384,0.368-4.776,0.368-7.216
			v-80h-16v8h-8c-22.536,0-44.072-10.768-57.6-28.8l-6.4-8.536l-6.4,8.536C228.072,117.232,206.536,128,184,128h-8v-8h-16v80
			c0,2.44,0.168,4.832,0.368,7.216C149.832,188.616,144,167.488,144,145.52V120z M152,248c-26.472,0-48-21.528-48-48
			c0-17.528,9.816-33.44,24.696-41.8c2.928,32.752,17.056,63.264,40.168,86.624C163.504,246.84,157.84,248,152,248z M176,200v-24
			h1.472c3.312,9.288,12.112,16,22.528,16h16c10.416,0,19.216-6.712,22.528-16h18.952c3.312,9.288,12.112,16,22.528,16h16
			c10.416,0,19.216-6.712,22.528-16H320v24c0,39.696-32.296,72-72,72C208.296,272,176,239.696,176,200z M205.84,305.152L236.688,336
			l-25.184,25.192l-17.384-52.128L205.84,305.152z M96,480V370.6c0-17.248,10.992-32.496,27.352-37.952l55.592-18.528L202.232,384
			H160v64h-16v-80h-16v96h64c10.416,0,19.216,6.712,22.528,16H96z M264.808,480h-33.616c-3.72-18.232-19.872-32-39.192-32h-16v-48
			h144v48h-16C284.688,448,268.528,461.768,264.808,480z M400,480H281.472c3.312-9.288,12.112-16,22.528-16h64v-96h-16v80h-16v-64
			h-42.232l23.288-69.88l55.592,18.528C389.008,338.104,400,353.352,400,370.6V480z"/>
	</g>
</g>
<g>
</g>
<g>
</g>
<g>
</g>
<g>
</g>
<g>
</g>
<g>
</g>
<g>
</g>
<g>
</g>
<g>
</g>
<g>
</g>
<g>
</g>
<g>
</g>
<g>
</g>
<g>
</g>
<g>
</g>
</svg>
