<?xml version="1.0" encoding="iso-8859-1"?>
<!-- Generator: Adobe Illustrator 19.0.0, SVG Export Plug-In . SVG Version: 6.00 Build 0)  -->
<svg version="1.1" id="Capa_1" xmlns="http://www.w3.org/2000/svg" xmlns:xlink="http://www.w3.org/1999/xlink" x="0px" y="0px"
	 viewBox="0 0 496 496" style="enable-background:new 0 0 496 496;" xml:space="preserve">
<g>
	<g>
		<path d="M385.712,317.48l-1.888-0.632c-0.44-8.752-3.928-16.944-10.168-23.192C370.008,290.008,368,285.16,368,280v-1.376
			c0-5.16,2.008-10.008,5.656-13.656C380.328,258.296,384,249.432,384,240v-1.376c0-9.432-3.672-18.296-10.344-24.968
			C370.008,210.008,368,205.16,368,200v-1.376c0-5.16,2.008-10.008,5.656-13.656C380.328,178.296,384,169.432,384,160v-1.376
			c0-9.432-3.672-18.296-10.344-24.968C370.008,130.008,368,125.16,368,120C368,53.832,314.168,0,248,0S128,53.832,128,120
			c0,5.16-2.008,10.008-5.656,13.656C115.672,140.328,112,149.192,112,158.624V160c0,9.432,3.672,18.296,10.344,24.968
			c3.648,3.648,5.656,8.504,5.656,13.656V200c0,5.16-2.008,10.008-5.656,13.656C115.672,220.328,112,229.192,112,238.624V240
			c0,9.432,3.672,18.296,10.344,24.968c3.648,3.648,5.656,8.504,5.656,13.656V280c0,5.16-2.008,10.008-5.656,13.656
			c-6.248,6.248-9.736,14.44-10.168,23.192l-1.888,0.632C87.392,325.104,72,346.456,72,370.592V496h352V370.592
			C424,346.456,408.608,325.104,385.712,317.48z M88,480V370.592c0-17.24,10.992-32.496,27.352-37.944l7.248-2.416l14.272,49.952
			l13.968,13.976l-7.416,22.248L171.688,480H88z M189.2,480l-28.632-64.416l8.584-25.752l-18.024-18.016L137.8,325.168l38.888-12.96
			L191.272,480H189.2z M192.288,307l6.448-2.144l35.208,24.376l-37.464,25.936L192.288,307z M224,144
			c17.376,0,33.96-5.168,48-14.768V144h11.16c13.504,0,26.328-4.432,36.84-12.232V200c0,39.704-32.296,72-72,72
			c-39.704,0-72-32.296-72-72v-56.416c14.44-1.336,28.136-6.24,40-14.352V144H224z M208,291.808v-13.52
			c12.016,6.16,25.592,9.712,40,9.712s27.984-3.552,40-9.712v13.52l-40,27.696L208,291.808z M262.504,349l-4.752,19h-19.504
			l-4.752-19L248,338.96L262.504,349z M209.056,480h-1.728l-9.256-106.472l21.368-14.792l4.416,17.688L209.056,480z M225.232,480
			l13.712-96h18.12l13.712,96H225.232z M288.664,480h-1.728l-14.792-103.584l4.416-17.688l21.368,14.792L288.664,480z
			 M299.52,355.168l-37.464-25.936l35.208-24.376l6.44,2.144L299.52,355.168z M304,267.824c19.528-16.152,32-40.56,32-67.832V104
			h-16v5.352c-7.672,10.384-19.24,17.04-32,18.384V92.68l-15.032,15.032C261.8,118.88,247.464,125.776,232,127.544V92.688
			l-15.032,15.032C205.8,118.888,191.464,125.728,176,127.504V104h-16v96c0,27.264,12.472,51.672,32,67.832v22.408l-62.448,20.816
			c0.96-2.24,2.328-4.312,4.104-6.088C140.328,298.296,144,289.432,144,280v-1.376c0-9.432-3.672-18.296-10.344-24.968
			C130.008,250.008,128,245.16,128,240v-1.376c0-5.16,2.008-10.008,5.656-13.656C140.328,218.296,144,209.432,144,200v-1.376
			c0-9.432-3.672-18.296-10.344-24.968C130.008,170.008,128,165.16,128,160v-1.376c0-5.16,2.008-10.008,5.656-13.656
			C140.328,138.296,144,129.432,144,120c0-57.344,46.656-104,104-104s104,46.656,104,104c0,9.432,3.672,18.296,10.344,24.968
			c3.648,3.648,5.656,8.504,5.656,13.656V160c0,5.16-2.008,10.008-5.656,13.656C355.672,180.328,352,189.192,352,198.624V200
			c0,9.432,3.672,18.296,10.344,24.968c3.648,3.648,5.656,8.504,5.656,13.656V240c0,5.16-2.008,10.008-5.656,13.656
			C355.672,260.328,352,269.192,352,278.624V280c0,9.432,3.672,18.296,10.344,24.968c1.776,1.776,3.144,3.84,4.104,6.088
			L304,290.232V267.824z M304.728,480l14.592-167.792l38.888,12.96l-13.328,46.648l-18.032,18.024l8.584,25.744L306.8,480H304.728z
			 M408,480h-83.688l28.256-63.584l-7.416-22.248l13.968-13.976l14.272-49.952l7.248,2.416c16.368,5.448,27.36,20.696,27.36,37.936
			V480z"/>
	</g>
</g>
<g>
	<g>
		<circle cx="288" cy="168" r="8"/>
	</g>
</g>
<g>
	<g>
		<circle cx="208" cy="168" r="8"/>
	</g>
</g>
<g>
	<g>
		<path d="M264,216c0,8.824-7.176,16-16,16c-8.824,0-16-7.176-16-16h-16c0,17.648,14.352,32,32,32s32-14.352,32-32H264z"/>
	</g>
</g>
<g>
</g>
<g>
</g>
<g>
</g>
<g>
</g>
<g>
</g>
<g>
</g>
<g>
</g>
<g>
</g>
<g>
</g>
<g>
</g>
<g>
</g>
<g>
</g>
<g>
</g>
<g>
</g>
<g>
</g>
</svg>
