<?xml version="1.0" encoding="iso-8859-1"?>
<!-- Generator: Adobe Illustrator 19.0.0, SVG Export Plug-In . SVG Version: 6.00 Build 0)  -->
<svg version="1.1" id="Capa_1" xmlns="http://www.w3.org/2000/svg" xmlns:xlink="http://www.w3.org/1999/xlink" x="0px" y="0px"
	 viewBox="0 0 496 496" style="enable-background:new 0 0 496 496;" xml:space="preserve">
<g>
	<g>
		<path d="M385.712,333.48l-70.4-23.472c0.624-1.448,1.392-2.816,1.896-4.328c1.856-5.56,2.792-11.36,2.792-17.216V266.44
			c5.68-8.08,10-17.16,12.712-26.912C352.528,237.16,368,220.44,368,200v-56h5.576c8.408,0,16.544-2.464,23.528-7.128
			C408.936,128.992,416,115.8,416,101.576C416,80.856,399.144,64,378.424,64c-8.328,0-16.432,1.184-24.28,3.32
			C344.144,23.296,326.848,0,304,0c-20.712,0-32.824,6.328-41.664,10.944C256.72,13.88,252.664,16,248,16s-8.72-2.12-14.336-5.056
			C224.824,6.328,212.712,0,192,0c-22.976,0-40.2,23.248-50.152,67.32C134,65.184,125.896,64,117.576,64
			C96.856,64,80,80.856,80,101.576c0,14.216,7.064,27.416,18.888,35.296c6.984,4.664,15.128,7.128,23.536,7.128H128v56
			c0,20.44,15.472,37.16,35.288,39.52c2.712,9.76,7.032,18.832,12.712,26.92v1.008l-13.976-7.256
			c-11.808-6.144-26.728-5.328-37.832,2.072L97.568,280l22.008,14.664l-14,9.336l24.512,16.344c2.408,1.608,4.984,2.88,7.616,3.992
			l-27.424,9.144C87.392,341.104,72,362.456,72,386.592V496h352V386.592C424,362.456,408.608,341.104,385.712,333.48z M88,403.312
			L116.688,432H88V403.312z M128,480H88v-32h40V480z M128,420.688L88.432,381.12c0.912-6.648,3.424-12.848,7.264-18.112L128,395.312
			V420.688z M128,372.688l-20.384-20.384c2.432-1.448,4.968-2.736,7.736-3.656L128,344.432V372.688z M368,344.432l12.648,4.216
			c2.768,0.92,5.304,2.208,7.736,3.656L368,372.688V344.432z M368,395.312l32.304-32.296c3.84,5.264,6.352,11.464,7.264,18.112
			L368,420.688V395.312z M320,216c0,39.704-32.296,72-72,72c-39.704,0-72-32.296-72-72v-40h144V216z M248,342.792l-29.808-17.032
			c-12.24-7-21.224-18.856-24.64-32.528c-0.76-3.032-1.144-6.128-1.344-9.232C207.4,296.488,226.84,304,248,304
			c21.256,0,40.776-7.576,56-20.168v4.632c0,4.136-0.664,8.232-1.968,12.16c-3,8.984-9.184,16.528-17.416,21.24L248,342.792z
			 M282.04,341.768l-33.752,57.872l-29.768-55.272l29.48,16.84L282.04,341.768z M320,160H176v-16h144V160z M335.664,222.632
			c0.168-2.2,0.336-4.392,0.336-6.632v-38.528c9.288,3.312,16,12.112,16,22.528C352,210.536,345.128,219.416,335.664,222.632z
			 M352,168.208c-4.672-3.536-10.056-6.184-16-7.392V144h16V168.208z M192,16c16.784,0,26.064,4.848,34.256,9.136
			C232.728,28.504,239.408,32,248,32s15.272-3.496,21.744-6.864C277.936,20.848,287.216,16,304,16
			c14.376,0,27.104,20.704,34.992,56.8c-3.728,1.68-7.792,3.584-12.352,5.752C304.104,89.296,273.24,104,248,104
			s-56.104-14.704-78.64-25.448c-4.56-2.168-8.624-4.08-12.352-5.752C161.832,50.84,172.568,16,192,16z M144,200
			c0-10.416,6.712-19.216,16-22.528V216c0,2.24,0.168,4.432,0.336,6.632C150.872,219.416,144,210.536,144,200z M144,168.2V144h16
			v16.808C154.056,162.024,148.672,164.664,144,168.2z M122.424,128c-5.24,0-10.304-1.528-14.656-4.44
			C100.4,118.656,96,110.44,96,101.576C96,89.68,105.68,80,117.576,80c10.528,0,20.672,2.072,30.144,6.16
			c4.224,1.832,9.216,4.2,14.76,6.84c23.912,11.4,56.664,27,85.52,27s61.608-15.6,85.52-27c5.536-2.64,10.528-5.016,14.76-6.84
			c9.472-4.088,19.608-6.16,30.144-6.16C390.32,80,400,89.68,400,101.576c0,8.856-4.4,17.08-11.768,21.984
			c-4.352,2.912-9.416,4.44-14.656,4.44H122.424z M126.432,280l6.64-4.432c6.328-4.216,14.848-4.672,21.576-1.176l16.504,8.568
			l-16.624,4.16c-7.96,2-16.672,0.496-23.552-4.088L126.432,280z M134.424,304l2.016-1.344l-0.08-0.112
			c3.584,0.896,7.264,1.456,11.016,1.456c3.744,0,7.464-0.464,11.048-1.368l19.792-4.944c0.784,3.008,1.816,5.92,2.992,8.768
			l-18.672,4.664c-7.96,2-16.68,0.504-23.552-4.088L134.424,304z M352,480H144V339.096l45.36-15.12l58.36,108.384l62.528-107.184
			L352,339.096V480z M408,480h-40v-32h40V480z M408,432h-28.688L408,403.312V432z"/>
	</g>
</g>
<g>
	<g>
		<circle cx="288" cy="192" r="8"/>
	</g>
</g>
<g>
	<g>
		<circle cx="208" cy="192" r="8"/>
	</g>
</g>
<g>
	<g>
		<path d="M264,232c0,8.824-7.176,16-16,16c-8.824,0-16-7.176-16-16h-16c0,17.648,14.352,32,32,32s32-14.352,32-32H264z"/>
	</g>
</g>
<g>
	<g>
		<path d="M325.064,416.984l-14.232-16.752l-14.24,16.744l-20.328,8.368l11.52,18.728l1.68,21.912l21.368-5.168l21.36,5.168
			l1.68-21.912l11.52-18.728L325.064,416.984z M318.208,438.992l-0.536,7.024l-6.84-1.664l-6.848,1.664l-0.536-7.024l-3.696-6.008
			l6.512-2.68l4.568-5.368l4.56,5.36l6.512,2.688L318.208,438.992z"/>
	</g>
</g>
<g>
</g>
<g>
</g>
<g>
</g>
<g>
</g>
<g>
</g>
<g>
</g>
<g>
</g>
<g>
</g>
<g>
</g>
<g>
</g>
<g>
</g>
<g>
</g>
<g>
</g>
<g>
</g>
<g>
</g>
</svg>
