<?xml version="1.0" encoding="iso-8859-1"?>
<!-- Generator: Adobe Illustrator 19.0.0, SVG Export Plug-In . SVG Version: 6.00 Build 0)  -->
<svg version="1.1" id="Capa_1" xmlns="http://www.w3.org/2000/svg" xmlns:xlink="http://www.w3.org/1999/xlink" x="0px" y="0px"
	 viewBox="0 0 496 496" style="enable-background:new 0 0 496 496;" xml:space="preserve">
<g>
	<g>
		<path d="M424,328c0-17.648-14.352-32-32-32h-80v-19.792c1-1.064,2-2.136,2.952-3.248c8.952,4.584,18.832,7.04,29.048,7.04
			c35.288,0,64-28.712,64-64c0-26.08-16.28-49.496-40.128-59.16c0.048-1.616,0.128-3.224,0.128-4.84
			c0-17.744-2.784-34.904-7.984-51.232l2.352-1.272L328.96,26c-7.16-15.792-23.024-26-40.376-26c-6.848,0-13.712,1.616-19.84,4.68
			l-13.584,6.8c-4.48,2.248-9.824,2.248-14.312,0l-13.592-6.8C221.128,1.616,214.264,0,207.416,0
			c-17.352,0-33.208,10.208-40.384,26.008l-33.408,73.496l2.352,1.272C130.784,117.096,128,134.256,128,152
			c0,48.272,19.84,94.424,50.592,117.896c1.704,2.192,3.512,4.296,5.408,6.312V296h-80c-17.648,0-32,14.352-32,32
			c0,9.888,4.6,18.632,11.672,24.504C76.224,362.232,72,374.248,72,386.592V496h352V386.592c0-12.344-4.224-24.36-11.672-34.088
			C419.4,346.632,424,337.888,424,328z M360,312h16v32h-16V312z M344,312v32h-32v-32H344z M366.6,173.776
			C381.888,182.024,392,198.192,392,216c0,26.472-21.528,48-48,48c-5.696,0-11.224-1.104-16.464-3.024
			C348.168,240.144,362.336,208.368,366.6,173.776z M352,152c0,25.448-5.984,50.08-16.32,70.288C335.832,220.2,336,218.12,336,216
			v-80h-16v16h-8c-11.296,0-22.512-2.752-32.568-7.84l66.28-35.688C349.816,122.376,352,136.952,352,152z M181.592,32.632
			C186.184,22.52,196.32,16,207.416,16c4.384,0,8.768,1.032,12.688,2.992l13.584,6.8c8.952,4.488,19.672,4.488,28.624,0l13.576-6.8
			C279.824,17.032,284.2,16,288.584,16c11.096,0,21.224,6.52,25.824,16.632l7.912,17.4L280,74.216v-5.528l-32-32l-32,32v5.528
			l-42.32-24.184L181.592,32.632z M264,75.312V88c0,8.824-7.176,16-16,16c-8.824,0-16-7.176-16-16V75.312l16-16L264,75.312z
			 M167.032,64.664l49.464,28.264C218.888,108.224,232.04,120,248,120s29.112-11.776,31.504-27.072l49.464-28.264l12.656,27.84
			L248,142.912l-93.624-50.416L167.032,64.664z M160.32,222.288C149.984,202.08,144,177.448,144,152
			c0-15.048,2.184-29.624,6.288-43.528l66.28,35.688C206.512,149.248,195.296,152,184,152h-8v-16h-16v80
			C160,218.12,160.168,220.2,160.32,222.288z M176,216v-48h8c17.376,0,34.576-5.328,49-14.992l15,8.08l15-8.08
			C277.424,162.672,294.624,168,312,168h8v48c0,39.704-32.296,72-72,72C208.296,288,176,255.704,176,216z M200,299.312
			l34.936,34.936L200,354.208V299.312z M152,312h32v32h-32V312z M120,312h16v32h-16V312z M104,312v32c-8.824,0-16-7.176-16-16
			C88,319.176,95.176,312,104,312z M128,480H88v-24h40V480z M240,480h-96v-96h-16v56H88v-53.408c0-10.064,4.008-19.76,10.824-27.12
			c1.696,0.28,3.4,0.528,5.176,0.528h80v21.792l56-32V480z M223.864,300.552c7.68,2.2,15.76,3.448,24.136,3.448
			c8.376,0,16.456-1.248,24.136-3.448L248,324.688L223.864,300.552z M296,299.312v54.896l-34.936-19.96L296,299.312z M408,480h-40
			v-24h40V480z M408,440h-40v-56h-16v96h-96V349.784l56,32V360h80c1.776,0,3.48-0.248,5.176-0.52
			c6.816,7.352,10.824,17.048,10.824,27.112V440z M392,344v-32c8.824,0,16,7.176,16,16C408,336.824,400.824,344,392,344z"/>
	</g>
</g>
<g>
	<g>
		<rect x="160" y="392" width="64" height="16"/>
	</g>
</g>
<g>
	<g>
		<circle cx="288" cy="192" r="8"/>
	</g>
</g>
<g>
	<g>
		<circle cx="208" cy="192" r="8"/>
	</g>
</g>
<g>
	<g>
		<path d="M264,232c0,8.824-7.176,16-16,16c-8.824,0-16-7.176-16-16h-16c0,17.648,14.352,32,32,32s32-14.352,32-32H264z"/>
	</g>
</g>
<g>
	<g>
		<rect x="272" y="400" width="16" height="16"/>
	</g>
</g>
<g>
	<g>
		<rect x="272" y="440" width="16" height="16"/>
	</g>
</g>
<g>
</g>
<g>
</g>
<g>
</g>
<g>
</g>
<g>
</g>
<g>
</g>
<g>
</g>
<g>
</g>
<g>
</g>
<g>
</g>
<g>
</g>
<g>
</g>
<g>
</g>
<g>
</g>
<g>
</g>
</svg>
