<?xml version="1.0" encoding="iso-8859-1"?>
<!-- Generator: Adobe Illustrator 19.0.0, SVG Export Plug-In . SVG Version: 6.00 Build 0)  -->
<svg version="1.1" id="Capa_1" xmlns="http://www.w3.org/2000/svg" xmlns:xlink="http://www.w3.org/1999/xlink" x="0px" y="0px"
	 viewBox="0 0 496 496" style="enable-background:new 0 0 496 496;" xml:space="preserve">
<g>
	<g>
		<path d="M377.712,317.48l-52.536-17.52c0.944-0.464,1.904-0.864,2.832-1.4c12.92-7.464,21.464-20.496,23.4-35.168
			c14.664-1.936,27.704-10.472,35.168-23.4c7.472-12.928,8.336-28.488,2.68-42.152C400.968,188.832,408,174.928,408,160
			s-7.032-28.832-18.76-37.848c5.656-13.664,4.792-29.224-2.68-42.152c-7.464-12.928-20.496-21.456-35.168-23.4
			C349.464,41.944,340.928,28.896,328,21.432c-12.92-7.456-28.488-8.336-42.16-2.672C276.84,7.032,262.928,0,248,0
			c-14.928,0-28.84,7.032-37.84,18.76c-13.688-5.656-29.24-4.784-42.16,2.672c-12.928,7.464-21.464,20.504-23.4,35.168
			c-14.664,1.944-27.704,10.472-35.16,23.4c-7.472,12.928-8.336,28.488-2.68,42.152C95.032,131.168,88,145.072,88,160
			s7.032,28.832,18.76,37.848c-5.656,13.664-4.792,29.224,2.68,42.152c7.464,12.928,20.496,21.464,35.168,23.4
			c1.936,14.664,10.472,27.704,23.4,35.168c0.912,0.528,1.864,0.944,2.8,1.408l-52.512,17.504C95.392,325.104,80,346.456,80,370.592
			V496h112h112h112V370.592C416,346.456,400.608,325.104,377.712,317.48z M160.192,256.032l0.24-8.472l-8.48,0.248
			c-11.432,0.328-22.832-5.712-28.664-15.808c-5.832-10.088-5.584-22.632,0.648-32.736l4.448-7.216l-7.464-4.024
			C110.488,182.392,104,171.656,104,160s6.488-22.392,16.928-28.024l7.464-4.024l-4.448-7.216
			c-6.232-10.104-6.48-22.648-0.648-32.736c5.832-10.096,17.216-16.064,28.664-15.808l8.48,0.248l-0.24-8.472
			c-0.352-11.864,5.712-22.848,15.8-28.672c10.088-5.824,22.616-5.576,32.744,0.648l7.216,4.448l4.016-7.464
			C225.608,22.488,236.344,16,248,16s22.392,6.488,28.024,16.928l4.016,7.464l7.216-4.448c10.112-6.24,22.648-6.472,32.744-0.648
			c10.088,5.824,16.152,16.816,15.808,28.68l-0.24,8.472l8.48-0.248c11.56-0.24,22.84,5.712,28.664,15.808
			c5.832,10.088,5.584,22.632-0.648,32.736l-4.448,7.216l7.464,4.024C385.512,137.608,392,148.344,392,160
			s-6.488,22.392-16.928,28.024l-7.464,4.024l4.448,7.216c6.232,10.104,6.48,22.648,0.648,32.736
			c-5.824,10.096-17.12,16.12-28.664,15.808l-8.48-0.248l0.24,8.472c0.344,11.864-5.712,22.848-15.808,28.672
			c-7.384,4.264-15.888,5.128-24,2.928v-13.968c17.68-11.56,30.912-29.304,36.712-50.136C352.528,221.16,368,204.44,368,184
			c0-19.312-13.768-35.472-32-39.192V120h-16v3.824c-16.488,11.472-35.984,18.424-56,19.88v-29.832l-12.12,7.272
			c-23.016,13.808-49.128,21.52-75.88,22.632V120h-16v24.808c-18.232,3.72-32,19.872-32,39.192c0,20.44,15.472,37.16,35.288,39.52
			c5.792,20.84,19.032,38.576,36.712,50.136v13.968c-8.12,2.2-16.624,1.328-24-2.928
			C165.904,278.88,159.848,267.896,160.192,256.032z M248,347.312l40-40V400h-80v-92.688L248,347.312z M216,292.688v-10.8
			c9.936,3.896,20.704,6.112,32,6.112s22.064-2.216,32-6.112v10.8l-32,32L216,292.688z M248,272c-39.704,0-72-32.304-72-72v-40.192
			c25.056-0.944,49.608-7.152,72-18.304V160h8c22.408,0,44.616-6.128,64-17.288V200C320,239.696,287.704,272,248,272z
			 M335.664,206.632c0.168-2.2,0.336-4.392,0.336-6.632v-38.528c9.288,3.312,16,12.112,16,22.528
			C352,194.536,345.128,203.416,335.664,206.632z M160.336,206.632C150.872,203.416,144,194.536,144,184
			c0-10.416,6.712-19.216,16-22.528V200C160,202.24,160.168,204.432,160.336,206.632z M136,480H96v-16h40V480z M136,448H96v-16h40
			V448z M176,416v64h-24V368h-16v48H96v-45.408c0-17.24,10.992-32.496,27.352-37.944L192,309.768V400
			C183.176,400,176,407.176,176,416z M212.32,480H192v-64h20.32c-7.632,8.504-12.32,19.696-12.32,32
			C200,460.304,204.688,471.496,212.32,480z M248,480c-17.648,0-32-14.352-32-32s14.352-32,32-32s32,14.352,32,32
			S265.648,480,248,480z M283.68,480c7.632-8.504,12.32-19.696,12.32-32s-4.688-23.496-12.32-32H304l0.016,64H283.68z M400,480h-40
			v-16h40V480z M400,448h-40v-16h40V448z M400,416h-40v-48h-16v112h-24v-64c0-8.824-7.176-16-16-16v-90.232l68.648,22.88
			c16.36,5.456,27.352,20.704,27.352,37.944V416z"/>
	</g>
</g>
<g>
	<g>
		<circle cx="288" cy="176" r="8"/>
	</g>
</g>
<g>
	<g>
		<circle cx="208" cy="176" r="8"/>
	</g>
</g>
<g>
	<g>
		<path d="M264,216c0,8.824-7.176,16-16,16c-8.824,0-16-7.176-16-16h-16c0,17.648,14.352,32,32,32s32-14.352,32-32H264z"/>
	</g>
</g>
<g>
	<g>
		<path d="M248,424c-13.232,0-24,10.768-24,24s10.768,24,24,24s24-10.768,24-24S261.232,424,248,424z M248,456c-4.416,0-8-3.584-8-8
			c0-4.416,3.584-8,8-8s8,3.584,8,8C256,452.416,252.416,456,248,456z"/>
	</g>
</g>
<g>
</g>
<g>
</g>
<g>
</g>
<g>
</g>
<g>
</g>
<g>
</g>
<g>
</g>
<g>
</g>
<g>
</g>
<g>
</g>
<g>
</g>
<g>
</g>
<g>
</g>
<g>
</g>
<g>
</g>
</svg>
