<?xml version="1.0" encoding="iso-8859-1"?>
<!-- Generator: Adobe Illustrator 19.0.0, SVG Export Plug-In . SVG Version: 6.00 Build 0)  -->
<svg version="1.1" id="Capa_1" xmlns="http://www.w3.org/2000/svg" xmlns:xlink="http://www.w3.org/1999/xlink" x="0px" y="0px"
	 viewBox="0 0 496 496" style="enable-background:new 0 0 496 496;" xml:space="preserve">
<g>
	<g>
		<circle cx="208" cy="168" r="8"/>
	</g>
</g>
<g>
	<g>
		<circle cx="288" cy="168" r="8"/>
	</g>
</g>
<g>
	<g>
		<path d="M264,216c0,8.824-7.176,16-16,16c-8.824,0-16-7.176-16-16h-16c0,17.648,14.352,32,32,32s32-14.352,32-32H264z"/>
	</g>
</g>
<g>
	<g>
		<path d="M377.712,317.472l-9.712-3.24V120C368,53.832,314.168,0,248,0S128,53.832,128,120v194.232l-9.712,3.24
			C95.384,325.104,80,346.456,80,370.6V496h336V370.6C416,346.456,400.616,325.104,377.712,317.472z M368.16,331.152
			c-17.696,14.104-57.176,40.52-107.936,44.328l29.376-70.512L368.16,331.152z M248,120c43.336,0,65.52,19.984,71.728,26.656
			c0.128,1.768,0.272,3.536,0.272,5.344v48c0,39.696-32.304,72-72,72s-72-32.304-72-72v-48c0-1.8,0.136-3.56,0.272-5.328
			C182.464,140.064,204.816,120,248,120z M183.136,120.96C194.76,96.776,219.424,80,248,80s53.24,16.776,64.864,40.96
			C298.816,112.376,277.544,104,248,104S197.184,112.376,183.136,120.96z M352,215.792v93.104l-56-18.664v-16.576
			c17.68-11.56,30.912-29.304,36.712-50.136C339.912,222.664,346.488,219.96,352,215.792z M335.664,206.632
			c0.168-2.2,0.336-4.392,0.336-6.632v-38.528c9.288,3.312,16,12.112,16,22.528C352,194.536,345.128,203.416,335.664,206.632z
			 M216,281.888c9.936,3.896,20.704,6.112,32,6.112s22.064-2.216,32-6.112v4.512l-32,76.8l-32-76.8V281.888z M144,120
			c0-57.344,46.656-104,104-104s104,46.656,104,104v32.208c-4.768-3.608-10.28-6.248-16.368-7.432C331.936,99.624,294.08,64,248,64
			c-46.08,0-83.936,35.624-87.632,80.768c-6.088,1.184-11.6,3.824-16.368,7.432V120z M160,161.472V200
			c0,2.24,0.168,4.432,0.336,6.632C150.872,203.416,144,194.536,144,184C144,173.584,150.712,164.784,160,161.472z M144,215.792
			c5.512,4.168,12.088,6.872,19.288,7.728c5.792,20.84,19.032,38.576,36.712,50.136v16.576l-56,18.664V215.792z M206.4,304.968
			l29.376,70.512c-50.624-3.816-90.168-30.232-107.912-44.336L206.4,304.968z M400,480h-40.592l-7.432-96.616l-15.952,1.224
			L343.36,480H152.64l7.336-95.384l-15.952-1.224L136.592,480H96V370.6c0-12.792,6.072-24.464,15.872-31.88
			c15.584,13.616,63.288,50.072,128.128,52.952V408h-16v16h16v32h16v-32h16v-16h-16v-16.336
			c64.84-2.872,112.544-39.328,128.128-52.952c9.8,7.416,15.872,19.096,15.872,31.888V480z"/>
	</g>
</g>
<g>
</g>
<g>
</g>
<g>
</g>
<g>
</g>
<g>
</g>
<g>
</g>
<g>
</g>
<g>
</g>
<g>
</g>
<g>
</g>
<g>
</g>
<g>
</g>
<g>
</g>
<g>
</g>
<g>
</g>
</svg>
