<?xml version="1.0" encoding="iso-8859-1"?>
<!-- Generator: Adobe Illustrator 19.0.0, SVG Export Plug-In . SVG Version: 6.00 Build 0)  -->
<svg version="1.1" id="Capa_1" xmlns="http://www.w3.org/2000/svg" xmlns:xlink="http://www.w3.org/1999/xlink" x="0px" y="0px"
	 viewBox="0 0 496 496" style="enable-background:new 0 0 496 496;" xml:space="preserve">
<g>
	<g>
		<path d="M392.704,325.84L312,300.624v-15.728l-8,2.664v-11.736c8.52-7.048,15.672-15.672,21.056-25.416l23.792-11.896L332.328,233
			c0.144-0.488,0.248-0.992,0.384-1.488C352.528,229.16,368,212.44,368,192v-48c8.824,0,16-7.176,16-16v-16c0-8.824-7.176-16-16-16
			V24c0-13.232-10.768-24-24-24H152c-13.232,0-24,10.768-24,24v72c-8.824,0-16,7.176-16,16v16c0,8.824,7.176,16,16,16v48
			c0,20.44,15.472,37.16,35.288,39.52c0.136,0.488,0.24,1,0.384,1.488l-16.52,5.512l23.792,11.896
			c5.384,9.736,12.536,18.368,21.056,25.416v11.736l-8-2.664v15.728l-80.704,25.208C79.792,333.176,64,354.656,64,379.288V496h368
			V379.288C432,354.656,416.208,333.176,392.704,325.84z M301.184,244.464c-4.632,2.312-9.808,3.536-14.984,3.536
			c-11.224,0-21.64-5.576-27.864-14.912l-0.976-1.464c5.36-7.624,16.832-9.888,24.768-4.584
			c8.176,5.448,16.824,10.144,25.824,14.048L301.184,244.464z M253.576,304.72c-1.8-0.432-3.648-0.72-5.576-0.72
			c-1.928,0-3.776,0.288-5.568,0.72l0.104-0.304L208,292.904v-6.616c12.016,6.16,25.592,9.712,40,9.712s27.984-3.552,40-9.712v6.616
			l-34.528,11.512L253.576,304.72z M227.24,339.824L200,348.896v-41.8l27.24,9.08c-2,3.504-3.24,7.504-3.24,11.824
			S225.24,336.32,227.24,339.824z M201.96,263.288c2.592,0.424,5.208,0.712,7.84,0.712c14.928,0,28.848-6.72,38.2-18.128
			C257.352,257.28,271.272,264,286.2,264c2.632,0,5.248-0.288,7.84-0.712C281.552,273.712,265.504,280,248,280
			C230.496,280,214.448,273.712,201.96,263.288z M268.76,316.176l27.24-9.072v41.8l-27.24-9.08c2-3.504,3.24-7.504,3.24-11.824
			S270.76,319.68,268.76,316.176z M335.664,214.632c0.168-2.2,0.336-4.392,0.336-6.632v-38.528c9.288,3.312,16,12.112,16,22.528
			C352,202.536,345.128,211.416,335.664,214.632z M352,160.208c-4.672-3.536-10.056-6.184-16-7.392V144h16V160.208z M144,80h160V64
			H144V24c0-4.408,3.584-8,8-8h192c4.416,0,8,3.592,8,8v40h-32v16h32v16H144V80z M144,192c0-10.416,6.712-19.216,16-22.528V208
			c0,2.24,0.168,4.432,0.336,6.632C150.872,211.416,144,202.536,144,192z M144,160.2V144h16v8.808
			C154.056,154.024,148.672,156.664,144,160.2z M128,128v-16h240l0.008,16H128z M178.792,227.624
			C177.016,221.376,176,214.808,176,208v-64h144v64c0,6.808-1.016,13.376-2.792,19.624c-9.168-3.744-17.952-8.4-26.208-13.904
			c-5.608-3.736-12.152-5.72-18.888-5.72c-9.272,0-17.832,3.728-24.112,10.056C241.72,211.728,233.16,208,223.888,208
			c-6.744,0-13.28,1.984-18.888,5.72C196.744,219.224,187.952,223.88,178.792,227.624z M188.056,241.088
			c9-3.904,17.64-8.6,25.824-14.048c7.936-5.288,19.4-3.032,24.76,4.584l-0.976,1.464C231.44,242.424,221.024,248,209.8,248
			c-5.168,0-10.352-1.224-14.976-3.536L188.056,241.088z M80,480V379.288c0-17.592,11.28-32.936,28.064-38.176l21.624-6.76
			L154.232,408H168v18.296L201.568,480H80z M184,421.704V392h-18.232l-20.808-62.424l39.04-12.2v53.728l5.32-1.776l21.144,94.712
			L184,421.704z M240,480h-9.592l-25.84-115.76L240,352.432V480z M248,336c-4.416,0-8-3.584-8-8c0-4.416,3.584-8,8-8s8,3.584,8,8
			C256,332.416,252.416,336,248,336z M256,480V352.432l35.432,11.816L265.592,480H256z M306.688,369.328l5.312,1.776v-53.728
			l39.04,12.2L330.232,392H312v29.704l-26.456,42.336L306.688,369.328z M416,480H294.432L328,426.296V408h13.768l24.544-73.648
			l21.624,6.76C404.72,346.352,416,361.696,416,379.288V480z"/>
	</g>
</g>
<g>
	<g>
		<circle cx="208" cy="176" r="8"/>
	</g>
</g>
<g>
	<g>
		<circle cx="288" cy="176" r="8"/>
	</g>
</g>
<g>
</g>
<g>
</g>
<g>
</g>
<g>
</g>
<g>
</g>
<g>
</g>
<g>
</g>
<g>
</g>
<g>
</g>
<g>
</g>
<g>
</g>
<g>
</g>
<g>
</g>
<g>
</g>
<g>
</g>
</svg>
