<?xml version="1.0" encoding="iso-8859-1"?>
<!-- Generator: Adobe Illustrator 19.0.0, SVG Export Plug-In . SVG Version: 6.00 Build 0)  -->
<svg version="1.1" id="Capa_1" xmlns="http://www.w3.org/2000/svg" xmlns:xlink="http://www.w3.org/1999/xlink" x="0px" y="0px"
	 viewBox="0 0 496 496" style="enable-background:new 0 0 496 496;" xml:space="preserve">
<g>
	<g>
		<path d="M384.704,317.832L296,290.12v-16.456c17.68-11.56,30.912-29.304,36.712-50.136C352.528,221.16,368,204.44,368,184V96.984
			c0-22.024-14.232-41.272-34.984-47.872C312.096,18.336,277.48,0,240.224,0C178.344,0,128,50.344,128,112.224V184
			c0,20.44,15.472,37.16,35.288,39.52c5.792,20.84,19.032,38.576,36.712,50.136v16.456l-88.704,27.72
			C87.792,325.176,72,346.664,72,371.288V496h352V371.288C424,346.664,408.208,325.176,384.704,317.832z M160,480V376h-16v104H88
			V371.288c0-17.592,11.28-32.936,28.072-38.176l68.264-21.328L191.648,480H160z M335.664,206.632
			c0.168-2.2,0.336-4.392,0.336-6.632v-38.528c9.288,3.312,16,12.112,16,22.528C352,194.536,345.128,203.416,335.664,206.632z
			 M144,184c0-10.416,6.712-19.216,16-22.528V200c0,2.24,0.168,4.432,0.336,6.632C150.872,203.416,144,194.536,144,184z M160,120
			v24.808c-5.944,1.216-11.328,3.856-16,7.392v-39.984C144,59.168,187.168,16,240.224,16c32.248,0,62.176,16.016,80.056,42.84
			l2.776,4.168l3,0.752C341.336,67.584,352,81.24,352,96.984v55.224c-4.672-3.536-10.056-6.184-16-7.392V104l-12.8,9.6
			c-19.864,14.896-43.352,24.624-67.928,28.136l-3.968,0.568c1.264-8.752-0.12-17.832-4.144-25.88l-4.288-8.576L235.2,113.6
			c-17.576,13.184-37.888,22.904-59.2,28.384V120H160z M176,200v-41.536c21.128-4.936,41.448-13.672,59.584-25.592
			c0.592,5.288-0.32,10.712-2.744,15.552l-6.832,13.656l31.52-4.504c22.12-3.16,43.44-10.864,62.464-22.496V200
			c0,39.696-32.304,72-72,72C208.296,272,176,239.696,176,200z M216,291.72v-9.832c9.936,3.896,20.704,6.112,32,6.112
			s22.064-2.216,32-6.112v9.832l-32,21.336L216,291.72z M264.016,342.96L257.752,368h-19.504l-6.256-25.04L248,332.28
			L264.016,342.96z M200.136,306.84l6.608-2.064l26.84,17.888l-31.84,21.224L200.136,306.84z M209.064,480h-1.4l-5.112-117.424
			l15.296-10.2l6.008,24.04L209.064,480z M225.224,480l13.712-96h18.128l13.712,96H225.224z M288.344,480h-1.4l-14.8-103.576
			l6.008-24.04l15.296,10.2L288.344,480z M294.256,343.888l-31.84-21.224l26.84-17.888l6.608,2.064L294.256,343.888z M336.048,319.4
			l29.408,9.192c-2.848,4.44-7.8,7.408-13.456,7.408c-8.824,0-16-7.176-16-16C336,319.8,336.04,319.6,336.048,319.4z M304.352,480
			l7.32-168.224l8.8,2.752c-0.312,1.8-0.472,3.624-0.472,5.472c0,7.848,2.952,14.952,7.656,20.52l-7.896,110.552L348.688,480
			H304.352z M336.24,444.928l6.744-94.376C345.864,351.4,348.848,352,352,352c3.152,0,6.136-0.6,9.016-1.456l6.744,94.384
			L352,460.688L336.24,444.928z M408,480h-52.688l28.928-28.928l-7.896-110.552c1.8-2.136,3.36-4.464,4.56-7.024
			C397.136,339.04,408,354.056,408,371.288V480z"/>
	</g>
</g>
<g>
	<g>
		<circle cx="288" cy="176" r="8"/>
	</g>
</g>
<g>
	<g>
		<circle cx="208" cy="176" r="8"/>
	</g>
</g>
<g>
	<g>
		<path d="M264,216c0,8.824-7.176,16-16,16c-8.824,0-16-7.176-16-16h-16c0,17.648,14.352,32,32,32s32-14.352,32-32H264z"/>
	</g>
</g>
<g>
</g>
<g>
</g>
<g>
</g>
<g>
</g>
<g>
</g>
<g>
</g>
<g>
</g>
<g>
</g>
<g>
</g>
<g>
</g>
<g>
</g>
<g>
</g>
<g>
</g>
<g>
</g>
<g>
</g>
</svg>
