<?xml version="1.0" encoding="iso-8859-1"?>
<!-- Generator: Adobe Illustrator 19.0.0, SVG Export Plug-In . SVG Version: 6.00 Build 0)  -->
<svg version="1.1" id="Capa_1" xmlns="http://www.w3.org/2000/svg" xmlns:xlink="http://www.w3.org/1999/xlink" x="0px" y="0px"
	 viewBox="0 0 496 496" style="enable-background:new 0 0 496 496;" xml:space="preserve">
<g>
	<g>
		<circle cx="288" cy="176" r="8"/>
	</g>
</g>
<g>
	<g>
		<circle cx="208" cy="176" r="8"/>
	</g>
</g>
<g>
	<g>
		<path d="M264,216c0,8.824-7.176,16-16,16c-8.824,0-16-7.176-16-16h-16c0,17.648,14.352,32,32,32s32-14.352,32-32H264z"/>
	</g>
</g>
<g>
	<g>
		<path d="M377.712,317.472l-9.712-3.24V120C368,53.832,314.168,0,248,0S128,53.832,128,120v194.232l-9.712,3.24
			C95.384,325.104,80,346.456,80,370.6V496h72h16h248V370.6C416,346.456,400.616,325.104,377.712,317.472z M144,120
			c0-57.344,46.656-104,104-104s104,46.656,104,104v32.208c-4.672-3.536-10.056-6.184-16-7.392V120h-16v16h-16v-16h-16v16h-16v-16
			h-16v16h-16v-16h-16v16h-16v-16h-16v16h-16v-16h-16v24.808c-5.944,1.216-11.328,3.856-16,7.392V120z M248,272
			c-39.696,0-72-32.304-72-72v-48h144v48C320,239.696,287.696,272,248,272z M280,281.888v10.48C275.272,296.152,263.616,304,248,304
			c-15.448,0-27.224-7.88-32-11.664v-10.448c9.936,3.896,20.704,6.112,32,6.112S270.064,285.784,280,281.888z M248,320
			c20.048,0,35.04-9.68,41.76-14.984l16.848,5.616C298.504,321.016,281.112,336,248,336c-33.128,0-50.512-15-58.608-25.368
			l16.848-5.616C212.96,310.32,227.952,320,248,320z M296,290.232v-16.576c17.68-11.56,30.912-29.304,36.712-50.136
			c7.2-0.856,13.776-3.56,19.288-7.728v93.104L296,290.232z M335.664,206.632c0.168-2.2,0.336-4.392,0.336-6.632v-38.528
			c9.288,3.312,16,12.112,16,22.528C352,194.536,345.128,203.416,335.664,206.632z M160,161.472V200c0,2.24,0.168,4.432,0.336,6.632
			C150.872,203.416,144,194.536,144,184C144,173.584,150.712,164.784,160,161.472z M144,215.792
			c5.512,4.168,12.088,6.872,19.288,7.728c5.792,20.84,19.032,38.576,36.712,50.136v16.576l-56,18.664V215.792z M152,480H96V370.6
			c0-17.248,10.992-32.496,27.352-37.952l14.368-4.792l13.424,53.688l-5.992,5.992C134.088,398.592,128,413.304,128,428.944
			c0,18.776,8.928,36.264,24,47.272V480z M333.048,456.352L328,459.72V480H168v-12.28l-5.048-3.368
			C151.08,456.44,144,443.2,144,428.944c0-11.368,4.424-22.056,12.464-30.096l12.392-12.392l-15.92-63.672l20.584-6.864
			C182.232,329.072,203.72,352,248,352c44.28,0,65.768-22.928,74.472-36.08l18.736,6.248l-14.072,56.28l12.392,12.392
			c8.048,8.048,12.472,18.736,12.472,30.104C352,435.208,344.92,448.448,333.048,456.352z M400,480h-56v-11.784
			c15.072-11.008,24-28.496,24-47.272c0-15.64-6.088-30.344-17.152-41.408l-5.992-5.992l11.576-46.304l16.216,5.408
			C389.008,338.104,400,353.352,400,370.6V480z"/>
	</g>
</g>
<g>
	<g>
		<rect x="32" y="256" width="16" height="24"/>
	</g>
</g>
<g>
	<g>
		<rect x="32" y="312" width="16" height="24"/>
	</g>
</g>
<g>
	<g>
		<rect y="288" width="24" height="16"/>
	</g>
</g>
<g>
	<g>
		<rect x="56" y="288" width="24" height="16"/>
	</g>
</g>
<g>
	<g>
		<rect x="448" width="16" height="24"/>
	</g>
</g>
<g>
	<g>
		<rect x="448" y="56" width="16" height="24"/>
	</g>
</g>
<g>
	<g>
		<rect x="416" y="32" width="24" height="16"/>
	</g>
</g>
<g>
	<g>
		<rect x="472" y="32" width="24" height="16"/>
	</g>
</g>
<g>
</g>
<g>
</g>
<g>
</g>
<g>
</g>
<g>
</g>
<g>
</g>
<g>
</g>
<g>
</g>
<g>
</g>
<g>
</g>
<g>
</g>
<g>
</g>
<g>
</g>
<g>
</g>
<g>
</g>
</svg>
