<?xml version="1.0" encoding="iso-8859-1"?>
<!-- Generator: Adobe Illustrator 19.0.0, SVG Export Plug-In . SVG Version: 6.00 Build 0)  -->
<svg version="1.1" id="Capa_1" xmlns="http://www.w3.org/2000/svg" xmlns:xlink="http://www.w3.org/1999/xlink" x="0px" y="0px"
	 viewBox="0 0 496 496" style="enable-background:new 0 0 496 496;" xml:space="preserve">
<g>
	<g>
		<circle cx="284" cy="168" r="8"/>
	</g>
</g>
<g>
	<g>
		<circle cx="204" cy="168" r="8"/>
	</g>
</g>
<g>
	<g>
		<path d="M260,216c0,8.824-7.176,16-16,16c-8.824,0-16-7.176-16-16h-16c0,17.648,14.352,32,32,32s32-14.352,32-32H260z"/>
	</g>
</g>
<g>
	<g>
		<path d="M373.712,317.472L292,290.232v-16.576c17.68-11.56,30.912-29.304,36.712-50.136C348.528,221.16,364,204.44,364,184
			v-56.552c31.52-3.96,56-30.872,56-63.448c0-35.288-28.712-64-64-64c-17.56,0-34.168,7.304-46.152,19.792
			C290.928,7.32,268.312,0,244,0c-66.168,0-120,53.832-120,120v64c0,20.44,15.472,37.16,35.288,39.52
			c5.792,20.84,19.032,38.576,36.712,50.136v16.576l-81.712,27.232C91.384,325.104,76,346.456,76,370.6V496h336V370.6
			C412,346.456,396.616,325.104,373.712,317.472z M331.664,206.632c0.168-2.2,0.336-4.392,0.336-6.632v-38.528
			c9.288,3.312,16,12.112,16,22.528C348,194.536,341.128,203.416,331.664,206.632z M356,16c26.472,0,48,21.528,48,48
			c0,23.888-17.56,43.704-40.44,47.344c-2.344-32.56-17.68-61.52-40.904-81.752C331.536,21,343.44,16,356,16z M140,184
			c0-10.416,6.712-19.216,16-22.528V200c0,2.24,0.168,4.432,0.336,6.632C146.872,203.416,140,194.536,140,184z M157.04,144.704
			c-6.344,1.12-12.104,3.76-17.04,7.504V120c0-57.344,46.656-104,104-104s104,46.656,104,104v32.208
			c-4.936-3.736-10.704-6.376-17.04-7.504c-4.776-23.2-25.352-40.704-49.944-40.704c-10.104,0-19.88,2.96-28.28,8.56L244,118.384
			l-8.736-5.824c-8.4-5.6-18.176-8.56-28.28-8.56C182.392,104,161.816,121.504,157.04,144.704z M172,200v-45.016
			C172,135.696,187.696,120,206.984,120c6.936,0,13.64,2.032,19.408,5.872L244,137.616l17.608-11.736
			c5.768-3.848,12.472-5.88,19.408-5.88C300.304,120,316,135.696,316,154.984V200c0,39.696-32.304,72-72,72S172,239.696,172,200z
			 M276,281.888v12.976c-1.368,4.432-9,25.136-32,25.136c-23.048,0-30.664-20.792-32-25.136v-12.976
			c9.936,3.896,20.704,6.112,32,6.112S266.064,285.784,276,281.888z M199.152,306.048C205.224,319.32,219.232,336,244,336
			s38.776-16.68,44.848-29.952l48.36,16.12l-14.072,56.28l10.232,10.232C342.808,398.12,348,410.664,348,424v24h-24.408
			c-4.024-40.368-38.184-72-79.592-72s-75.568,31.632-79.592,72H140v-24c0-13.336,5.192-25.88,14.624-35.312l10.232-10.232
			l-14.072-56.28L199.152,306.048z M307.448,448H300c-2.952,0-5.808,0.368-8.576,0.976C288.008,425.832,268.08,408,244,408
			c-24.08,0-44.008,17.832-47.424,40.976C193.808,448.368,190.952,448,188,448h-7.448c3.96-31.52,30.872-56,63.448-56
			S303.488,416.48,307.448,448z M92,480V370.6c0-17.248,10.992-32.496,27.352-37.952l16.216-5.408l11.576,46.304l-3.832,3.832
			C130.856,389.832,124,406.384,124,424v40h64c10.416,0,19.216,6.712,22.528,16H92z M260.808,480h-33.616
			c-2-9.808-7.68-18.224-15.44-24H212c0-17.648,14.352-32,32-32s32,14.352,32,32h0.248C268.488,461.776,262.808,470.192,260.808,480
			z M396,480H277.472c3.312-9.288,12.112-16,22.528-16h64v-40c0-17.616-6.856-34.168-19.312-46.624l-3.832-3.832l11.576-46.304
			l16.216,5.408C385.008,338.104,396,353.352,396,370.6V480z"/>
	</g>
</g>
<g>
</g>
<g>
</g>
<g>
</g>
<g>
</g>
<g>
</g>
<g>
</g>
<g>
</g>
<g>
</g>
<g>
</g>
<g>
</g>
<g>
</g>
<g>
</g>
<g>
</g>
<g>
</g>
<g>
</g>
</svg>
