<?xml version="1.0" encoding="iso-8859-1"?>
<!-- Generator: Adobe Illustrator 19.0.0, SVG Export Plug-In . SVG Version: 6.00 Build 0)  -->
<svg version="1.1" id="Capa_1" xmlns="http://www.w3.org/2000/svg" xmlns:xlink="http://www.w3.org/1999/xlink" x="0px" y="0px"
	 viewBox="0 0 496.336 496.336" style="enable-background:new 0 0 496.336 496.336;" xml:space="preserve">
<g>
	<g>
		<path d="M379.904,304.384l-67.736-14.52v-29.32c9.64-10.24,16.84-22.76,20.712-36.688c19.816-2.36,35.288-19.08,35.288-39.52v-64
			v-8V68.32l16-3.768v161.256c-9.288,3.312-16,12.112-16,22.528c0,13.232,10.768,24,24,24s24-10.768,24-24
			c0-10.416-6.712-19.216-16-22.528V40.336h-14.856L248.168,0l-144,42.352v20.32l24,5.648v44.016v8v64
			c0,20.44,15.472,37.16,35.288,39.52c3.872,13.928,11.072,26.448,20.712,36.688v29.32l-67.736,14.512
			c-25.648,5.496-44.264,28.528-44.264,54.768v137.192h352V359.144C424.168,332.904,405.552,309.872,379.904,304.384z
			 M392.168,240.336c4.408,0,8,3.592,8,8s-3.592,8-8,8c-4.408,0-8-3.592-8-8C384.168,243.928,387.76,240.336,392.168,240.336z
			 M335.832,206.968c0.168-2.2,0.336-4.392,0.336-6.632v-38.528c9.288,3.312,16,12.112,16,22.528
			C352.168,194.872,345.296,203.752,335.832,206.968z M352.168,152.544c-4.672-3.536-10.056-6.184-16-7.392v-24.816h16V152.544z
			 M352.168,104.336h-96v-9.664l96-22.592V104.336z M128.336,51.92l119.832-35.248l80.44,23.664h-80.44v16H349.24L248.168,80.12
			L128.336,51.92z M144.168,120.336h16v24.808c-5.944,1.216-11.328,3.856-16,7.392V120.336z M144.168,184.336
			c0-10.416,6.712-19.216,16-22.528v38.528c0,2.24,0.168,4.432,0.336,6.632C151.04,203.752,144.168,194.872,144.168,184.336z
			 M144.168,104.336V72.088l96,22.584v9.664H144.168z M176.168,200.336v-48h104v-16h-104v-16h144v16h-24v16h24v48
			c0,39.696-32.304,72-72,72S176.168,240.032,176.168,200.336z M296.168,274v18.224l-48,34.288l-48-34.288V274
			c13.816,9.032,30.288,14.336,48,14.336C265.88,288.336,282.352,283.032,296.168,274z M190.392,304.896l57.776,41.272
			l57.776-41.264l25.32,5.424l-83.096,63.912l-83.096-63.92L190.392,304.896z M240.168,480.336h-96v-112h-16v112h-40V359.144
			c0-11.936,5.424-22.896,14.064-30.336l137.936,99.616V480.336z M118.112,320.536c0.568-0.152,1.096-0.392,1.672-0.52l24.76-5.296
			l103.624,79.712l103.624-79.712l24.76,5.304c0.576,0.128,1.104,0.368,1.672,0.52l-130.056,93.928L118.112,320.536z
			 M408.168,480.336h-40v-112h-16v112h-96v-51.912l137.936-99.616c8.648,7.432,14.064,18.4,14.064,30.336V480.336z"/>
	</g>
</g>
<g>
	<g>
		<circle cx="288.168" cy="176.336" r="8"/>
	</g>
</g>
<g>
	<g>
		<circle cx="208.168" cy="176.336" r="8"/>
	</g>
</g>
<g>
	<g>
		<path d="M264.168,216.336c0,8.824-7.176,16-16,16c-8.824,0-16-7.176-16-16h-16c0,17.648,14.352,32,32,32s32-14.352,32-32H264.168z
			"/>
	</g>
</g>
<g>
</g>
<g>
</g>
<g>
</g>
<g>
</g>
<g>
</g>
<g>
</g>
<g>
</g>
<g>
</g>
<g>
</g>
<g>
</g>
<g>
</g>
<g>
</g>
<g>
</g>
<g>
</g>
<g>
</g>
</svg>
