<?xml version="1.0" encoding="iso-8859-1"?>
<!-- Generator: Adobe Illustrator 19.0.0, SVG Export Plug-In . SVG Version: 6.00 Build 0)  -->
<svg version="1.1" id="Capa_1" xmlns="http://www.w3.org/2000/svg" xmlns:xlink="http://www.w3.org/1999/xlink" x="0px" y="0px"
	 viewBox="0 0 496 496" style="enable-background:new 0 0 496 496;" xml:space="preserve">
<g>
	<g>
		<path d="M431.16,267.576L436.944,256H424c-26.472,0-48-21.528-48-48v-80C376,57.424,318.576,0,248,0S120,57.424,120,128v80
			c0,26.472-21.528,48-48,48H59.056l5.792,11.576c11.976,23.952,32.928,41.16,57.672,48.48l-4.224,1.408
			C95.392,325.104,80,346.456,80,370.6V496h336V370.6c0-24.144-15.392-45.496-38.288-53.128l-4.224-1.408
			C398.232,308.736,419.176,291.528,431.16,267.576z M136,128c0-61.76,50.24-112,112-112s112,50.24,112,112v24.68
			c-4.68-3.544-10.088-6.152-16-7.504V144c0-23.912-9.144-47.048-25.168-64.64C319.584,77.008,320,74.536,320,72
			c0-5.328-1.72-10.384-4.896-14.536c-0.696-5.184-3.056-9.984-6.824-13.752c-3.768-3.76-8.552-6.12-13.744-6.808
			c-8.296-6.36-20.784-6.36-29.08,0c-5.184,0.688-9.976,3.048-13.744,6.816c-1.304,1.304-2.376,2.776-3.336,4.304
			C248.256,48.016,248.128,48,248,48c-52.936,0-96,43.064-96,96v1.176c-5.912,1.352-11.32,3.96-16,7.504V128z M353.76,200.128
			c-2.952,3.248-6.768,5.48-10.904,6.728C343.608,202.008,344,197.04,344,192v-30.28c8.608,3.264,15.024,10.84,15.888,19.888
			C360.544,188.488,358.368,195.072,353.76,200.128z M303.768,309.688l45.648,15.216l-14.408,36.032l2.336,3.504
			c9.584,14.384,14.656,31.12,14.656,48.4V448h-43.888l2.664-16H320v-16h-32.888C297.52,405.824,304,391.664,304,376v-8h-8
			c-15.664,0-29.824,6.48-40,16.888v-18.2c4.408-1.336,8.496-3.624,11.792-6.912c0.008,0,0.016,0,0.024,0
			c7.368,0,14.512-2.896,19.784-8.168c5.28-5.28,8.176-12.432,8.168-19.808c5.216-5.224,8.232-12.336,8.232-19.8
			C304,311.216,303.832,310.464,303.768,309.688z M286.976,385.032c-3.44,14.816-15.128,26.512-29.952,29.944
			C260.464,400.152,272.152,388.464,286.976,385.032z M282.864,321.8l-4.144,2.92l0.864,5c0.672,3.872-0.56,7.824-3.304,10.568
			c-2.752,2.744-6.704,3.984-10.552,3.304l-4.992-0.872l-2.92,4.152c-4.592,6.528-15.032,6.528-19.624,0l-2.92-4.152l-4.992,0.872
			c-3.832,0.68-7.808-0.56-10.552-3.304c-2.744-2.744-3.976-6.696-3.304-10.568l0.864-5l-4.152-2.92
			c-3.224-2.256-5.136-5.92-5.136-9.8s1.912-7.544,5.136-9.8l4.152-2.92l-0.864-5c-0.672-3.872,0.56-7.824,3.304-10.568
			c2.744-2.744,6.712-3.976,10.552-3.304l4.992,0.872l2.92-4.152c4.592-6.528,15.032-6.528,19.624,0l2.92,4.152l4.992-0.872
			c3.848-0.664,7.816,0.56,10.552,3.312c2.744,2.736,3.976,6.688,3.304,10.56l-0.864,5l4.152,2.92c3.216,2.256,5.128,5.92,5.128,9.8
			S286.088,319.544,282.864,321.8z M200,368h-8v8c0,15.664,6.48,29.824,16.888,40H176v16h9.224l2.664,16H144v-35.16
			c0-17.28,5.072-34.016,14.656-48.408l2.336-3.504l-14.408-36.032l45.648-15.216c-0.064,0.784-0.232,1.536-0.232,2.32
			c0,7.464,3.016,14.576,8.232,19.792c-0.008,7.376,2.888,14.528,8.168,19.808c5.264,5.272,12.416,8.168,19.784,8.168
			c0.008,0,0.016,0,0.024,0c3.288,3.288,7.376,5.576,11.792,6.912v18.2C229.824,374.48,215.664,368,200,368z M238.976,414.968
			c-14.824-3.424-26.512-15.12-29.952-29.944C223.856,388.456,235.536,400.152,238.976,414.968z M277.952,266.176
			c-3.216-1.248-6.648-1.944-10.136-1.944c-0.008,0-0.016,0-0.024,0C262.568,259.008,255.464,256,248,256
			s-14.568,3.008-19.792,8.232c-0.008,0-0.016,0-0.024,0c-3.496,0-6.92,0.696-10.136,1.944C187.624,253.896,168,224.896,168,192v-40
			h20.68c21.448,0,41.752-7.456,57.944-21.144C262.824,144.544,283.12,152,304.56,152H328v40
			C328,224.888,308.376,253.888,277.952,266.176z M244.896,86.536c0.696,5.184,3.056,9.984,6.824,13.752
			c3.768,3.76,8.552,6.12,13.744,6.808C269.608,110.28,274.672,112,280,112s10.392-1.72,14.536-4.904
			c5.184-0.688,9.976-3.048,13.744-6.816c1.368-1.368,2.48-2.904,3.464-4.512c8.912,11.704,14.416,25.472,15.856,40.224h-23.04
			c-19.752,0-38.312-7.688-52.28-21.656l-5.656-5.656l-5.656,5.656C227,128.312,208.432,136,188.68,136h-20.272
			c3.808-38.144,34.528-68.432,72.84-71.656C240.432,66.776,240,69.352,240,72C240,77.328,241.72,82.384,244.896,86.536z
			 M301.656,66.344C303.168,67.856,304,69.864,304,72s-0.832,4.144-2.344,5.656L299.312,80v3.32c0,2.136-0.832,4.152-2.344,5.656
			c-1.504,1.512-3.52,2.344-5.656,2.344h-3.32l-2.344,2.352c-3,3.016-8.296,3.016-11.296,0l-2.344-2.352h-3.32
			c-2.136,0-4.152-0.832-5.656-2.336c-1.504-1.512-2.344-3.52-2.344-5.664V80l-2.344-2.344C256.832,76.144,256,74.136,256,72
			s0.832-4.144,2.344-5.656L260.688,64v-3.312c0-2.136,0.832-4.152,2.344-5.656c1.504-1.512,3.52-2.344,5.656-2.344h3.32
			l2.344-2.352c3-3.016,8.296-3.016,11.296,0l2.344,2.352h3.32c2.136,0,4.152,0.832,5.656,2.336c1.504,1.512,2.344,3.52,2.344,5.664
			V64L301.656,66.344z M136.104,181.616c0.864-9.048,7.28-16.632,15.888-19.888V192c0.008,5.04,0.4,10.008,1.144,14.864
			c-4.136-1.248-7.952-3.48-10.904-6.728C137.632,195.072,135.448,188.496,136.104,181.616z M85.232,270.624
			c26.576-5.608,47.08-27.784,50.28-55.16c6.28,4.88,13.872,7.728,21.856,8.264c8.008,23.112,24.648,42.44,47.08,53.808
			c-2.336,3.8-3.672,8.096-4.008,12.56L158.696,304h-9.032C123.624,304,99.856,291.464,85.232,270.624z M96,480V370.6
			c0-17.248,10.992-32.496,27.352-37.952l8.024-2.672l11.672,29.192C133.184,375.352,128,393.824,128,412.84V464h64
			c10.416,0,19.216,6.712,22.528,16H96z M264.808,480h-33.616c-2.872-14.096-13.256-25.352-26.712-29.808L201.448,432H240h8h8
			h38.552l-3.032,18.192C278.064,454.648,267.68,465.904,264.808,480z M400,370.6V480H281.472c3.312-9.288,12.112-16,22.528-16h64
			v-51.16c0-19.024-5.184-37.496-15.048-53.68l11.672-29.192l8.024,2.672C389.008,338.104,400,353.352,400,370.6z M346.336,304
			h-9.032l-41.744-13.912c-0.336-4.456-1.672-8.752-4.008-12.552c22.432-11.368,39.064-30.696,47.08-53.808
			c7.984-0.536,15.576-3.384,21.856-8.264c3.2,27.376,23.704,49.552,50.28,55.16C396.144,291.464,372.376,304,346.336,304z"/>
	</g>
</g>
<g>
	<g>
		<rect x="272" y="64" width="16" height="16"/>
	</g>
</g>
<g>
	<g>
		<path d="M248,288c-13.232,0-24,10.768-24,24s10.768,24,24,24s24-10.768,24-24S261.232,288,248,288z M248,320c-4.416,0-8-3.592-8-8
			c0-4.408,3.584-8,8-8s8,3.592,8,8C256,316.408,252.416,320,248,320z"/>
	</g>
</g>
<g>
	<g>
		<path d="M264,216c0,8.824-7.176,16-16,16c-8.824,0-16-7.176-16-16h-16c0,17.648,14.352,32,32,32s32-14.352,32-32H264z"/>
	</g>
</g>
<g>
	<g>
		<circle cx="288" cy="168" r="8"/>
	</g>
</g>
<g>
	<g>
		<circle cx="208" cy="168" r="8"/>
	</g>
</g>
<g>
</g>
<g>
</g>
<g>
</g>
<g>
</g>
<g>
</g>
<g>
</g>
<g>
</g>
<g>
</g>
<g>
</g>
<g>
</g>
<g>
</g>
<g>
</g>
<g>
</g>
<g>
</g>
<g>
</g>
</svg>
