<?xml version="1.0" encoding="iso-8859-1"?>
<!-- Generator: Adobe Illustrator 19.0.0, SVG Export Plug-In . SVG Version: 6.00 Build 0)  -->
<svg version="1.1" id="Capa_1" xmlns="http://www.w3.org/2000/svg" xmlns:xlink="http://www.w3.org/1999/xlink" x="0px" y="0px"
	 viewBox="0 0 496 496" style="enable-background:new 0 0 496 496;" xml:space="preserve">
<g>
	<g>
		<path d="M377.712,317.48L296,290.232v-16.576c17.68-11.56,30.912-29.304,36.712-50.136C352.528,221.16,368,204.44,368,184v-48h32
			l-32.68-43.576l-12.344-45.256C347.4,19.392,322,0,293.216,0c-9.88,0-19.784,2.336-28.624,6.76
			c-10.392,5.192-22.808,5.192-33.192,0C222.56,2.336,212.664,0,202.776,0c-28.784,0-54.176,19.392-61.752,47.168L128.68,92.424
			L96,136h32v48c0,20.44,15.472,37.16,35.288,39.52c5.792,20.84,19.032,38.576,36.712,50.136v16.576l-81.704,27.24
			C95.384,325.104,80,346.456,80,370.592V496h336V370.592C416,346.456,400.608,325.104,377.712,317.48z M300.216,308.504
			l-21.96,38.432l-18.272-18.272l29.624-23.696L300.216,308.504z M216,281.888c9.936,3.896,20.704,6.112,32,6.112
			s22.064-2.216,32-6.112v10.264l-32,25.608l-32-25.608V281.888z M200.456,253.928l4.528-27.168c1.04-6.24,6.376-10.76,12.696-10.76
			c2.552,0,5.016,0.744,7.144,2.16c14.08,9.392,32.28,9.392,46.36,0c2.112-1.416,4.592-2.16,7.136-2.16
			c6.312,0,11.656,4.52,12.696,10.76l4.528,27.168C282.848,265.136,266.232,272,248,272S213.152,265.136,200.456,253.928z
			 M335.664,206.632c0.168-2.2,0.336-4.392,0.336-6.632v-38.528c9.288,3.312,16,12.112,16,22.528
			C352,194.536,345.128,203.416,335.664,206.632z M352,152.208c-4.672-3.536-10.056-6.184-16-7.392V136h16V152.208z M150.84,72H192
			V56h-36.8l1.264-4.624c1.112-4.08,2.872-7.84,4.928-11.376H192V24h-15.432c7.632-5.008,16.632-8,26.208-8
			c7.328,0,14.656,1.728,21.224,4.96V48h16V25.968c5.304,0.8,10.696,0.8,16,0V48h16V20.96c6.568-3.232,13.896-4.96,21.216-4.96
			c9.584,0,18.584,2.992,26.216,8H304v16h30.608c2.064,3.536,3.816,7.288,4.928,11.376L340.8,56H304v16h41.16l4.36,16H272V64h-16v24
			h-16V64h-16v24h-77.528L150.84,72z M144,184c0-10.416,6.712-19.216,16-22.528V200c0,2.24,0.168,4.432,0.336,6.632
			C150.872,203.416,144,194.536,144,184z M144,152.2V136h16v8.808C154.056,146.024,148.672,148.664,144,152.2z M128,120l12-16h216
			l12,16H128z M189.2,224.128l-2.296,13.784C180.04,226.888,176,213.92,176,200v-64h144v64c0,13.92-4.04,26.888-10.904,37.912
			L306.8,224.12c-2.336-13.976-14.304-24.12-28.48-24.12c-5.72,0-11.256,1.672-16.016,4.848c-8.696,5.792-19.92,5.792-28.608,0
			C228.936,201.672,223.4,200,217.68,200C203.512,200,191.528,210.152,189.2,224.128z M206.4,304.968l29.624,23.696l-18.272,18.272
			l-21.96-38.432L206.4,304.968z M96,370.592c0-17.24,10.992-32.488,27.352-37.944l1.472-0.488c8.48,19,14.224,39.216,17.056,59.84
			H96V370.592z M144,480H96v-72h47.544c0.288,4.552,0.456,9.104,0.456,13.664V480z M336,480H160v-8h176V480z M336,456H160v-16h176
			V456z M336,424H160v-2.336c0-32.432-6.888-64.88-19.904-94.6l40.216-13.408l33.944,59.4L248,339.312l33.752,33.752l33.944-59.4
			l40.216,13.408C342.888,356.784,336,389.232,336,421.664V424z M400,480h-48v-58.336c0-4.56,0.168-9.112,0.456-13.664H400V480z
			 M400,392h-45.88c2.832-20.624,8.576-40.84,17.056-59.84l1.472,0.488c16.36,5.456,27.352,20.704,27.352,37.944V392z"/>
	</g>
</g>
<g>
	<g>
		<circle cx="288" cy="168" r="8"/>
	</g>
</g>
<g>
	<g>
		<circle cx="208" cy="168" r="8"/>
	</g>
</g>
<g>
	<g>
		<path d="M266.44,234.256C266.184,234.488,260.152,240,248,240c-12.152,0-18.184-5.512-18.432-5.744l-11.224,11.4
			C219.4,246.712,229.224,256,248,256s28.6-9.288,29.656-10.344L266.44,234.256z"/>
	</g>
</g>
<g>
	<g>
		<rect x="240" y="360" width="16" height="16"/>
	</g>
</g>
<g>
	<g>
		<rect x="240" y="392" width="16" height="16"/>
	</g>
</g>
<g>
</g>
<g>
</g>
<g>
</g>
<g>
</g>
<g>
</g>
<g>
</g>
<g>
</g>
<g>
</g>
<g>
</g>
<g>
</g>
<g>
</g>
<g>
</g>
<g>
</g>
<g>
</g>
<g>
</g>
</svg>
