<?xml version="1.0" encoding="iso-8859-1"?>
<!-- Generator: Adobe Illustrator 19.0.0, SVG Export Plug-In . SVG Version: 6.00 Build 0)  -->
<svg version="1.1" id="Capa_1" xmlns="http://www.w3.org/2000/svg" xmlns:xlink="http://www.w3.org/1999/xlink" x="0px" y="0px"
	 viewBox="0 0 496 496" style="enable-background:new 0 0 496 496;" xml:space="preserve">
<g>
	<g>
		<circle cx="288" cy="176" r="8"/>
	</g>
</g>
<g>
	<g>
		<circle cx="208" cy="176" r="8"/>
	</g>
</g>
<g>
	<g>
		<path d="M264,216c0,8.824-7.176,16-16,16c-8.824,0-16-7.176-16-16h-16c0,17.648,14.352,32,32,32s32-14.352,32-32H264z"/>
	</g>
</g>
<g>
	<g>
		<path d="M388.832,311.504l-44.104-10.376l39.976-15.992L369.064,160H384v-16h-16v-8c0-53.816-36.656-101.344-88-115.568V0h-64
			v20.432C164.664,34.648,128,82.184,128,136v8h-16v16h14.936l-15.64,125.136l39.976,15.992l-44.104,10.376
			C81.752,317.488,64,339.896,64,366.016V496h368V366.016C432,339.896,414.24,317.488,388.832,311.504z M393.496,330.16
			c9.28,4.504,16.392,12.304,19.944,21.84h-26.96C388.52,344.648,390.864,337.368,393.496,330.16z M367.296,274.864l-24.304,9.72
			L336,208v-8v-40h16.936L367.296,274.864z M279.792,64H280V37.064c34.56,11.208,60.688,40.08,69.072,74.936h-69.28
			c5.08-6.704,8.208-14.96,8.208-24S284.872,70.704,279.792,64z M232,16h32v35.392C259.088,49.232,253.696,48,248,48
			c-5.696,0-11.088,1.232-16,3.392V16z M248,64c13.232,0,24,10.768,24,24s-10.768,24-24,24s-24-10.768-24-24S234.768,64,248,64z
			 M216,37.064V64h0.208C211.128,70.704,208,78.96,208,88s3.128,17.296,8.208,24h-69.28C155.312,77.144,181.44,48.272,216,37.064z
			 M144,136c0-2.688,0.144-5.352,0.352-8h207.296c0.208,2.648,0.352,5.312,0.352,8v8H144V136z M176,200v-40h144v40
			c0,39.696-32.296,72-72,72C208.304,272,176,239.696,176,200z M200,273.664v16l-32.08,7.544l4.712-52.016
			C179.512,256.616,188.856,266.376,200,273.664z M296,273.664c11.136-7.28,20.472-17.024,27.352-28.44l4.728,51.992L296,289.664
			V273.664z M128.704,274.872L143.064,160H160v40l0.032,7.28l-7.024,77.312L128.704,274.872z M102.504,330.16
			c2.624,7.208,4.976,14.488,7.016,21.84H82.56C86.112,342.464,93.224,334.664,102.504,330.16z M80,368h33.44
			c1.144,5.304,2.152,10.64,2.992,16H80V368z M120,480H80v-16h40V480z M120,448H80v-48h38.52c0.96,9.576,1.48,19.224,1.48,28.928
			V448z M152,480h-16v-51.072c0-35.472-6.168-70.232-18.192-103.488l13.664-3.216C145.04,356.288,152,392.136,152,428.928V480z
			 M240,480h-72v-16h72V480z M240,384h-32v16h32v48h-72v-19.072c0-9.712-0.496-19.352-1.4-28.928H192v-16h-27.328
			c-0.792-5.36-1.712-10.696-2.8-16H240V384z M240,352h-81.848c-2.96-11.328-6.648-22.48-10.936-33.48l56.488-13.288
			C208.44,313,219.04,324.984,240,327.488V352z M216,294.432v-12.544c9.936,3.896,20.704,6.112,32,6.112s22.064-2.216,32-6.112
			v12.568C278.264,298.28,270.448,312,248,312C225.72,312,217.824,298.384,216,294.432z M328,428.928V448h-24v16h24v16h-72v-16h32
			v-16h-32v-48h73.4C328.496,409.576,328,419.216,328,428.928z M331.328,384H256v-16h78.12
			C333.04,373.304,332.12,378.64,331.328,384z M256,352v-24.512c20.952-2.504,31.56-14.488,36.288-22.256l56.496,13.288
			c-4.28,11-7.976,22.152-10.936,33.48H256z M360,480h-16v-51.072c0-36.792,6.968-72.64,20.528-106.704l13.656,3.216
			C366.168,358.688,360,393.448,360,428.928V480z M416,480h-40v-16h40V480z M416,448h-40v-19.072c0-9.704,0.52-19.352,1.472-28.928
			H416V448z M416,384h-36.432c0.84-5.36,1.848-10.696,2.992-16H416V384z"/>
	</g>
</g>
<g>
	<g>
		<rect x="240" y="80" width="16" height="16"/>
	</g>
</g>
<g>
</g>
<g>
</g>
<g>
</g>
<g>
</g>
<g>
</g>
<g>
</g>
<g>
</g>
<g>
</g>
<g>
</g>
<g>
</g>
<g>
</g>
<g>
</g>
<g>
</g>
<g>
</g>
<g>
</g>
</svg>
