<?xml version="1.0" encoding="iso-8859-1"?>
<!-- Generator: Adobe Illustrator 19.0.0, SVG Export Plug-In . SVG Version: 6.00 Build 0)  -->
<svg version="1.1" id="Capa_1" xmlns="http://www.w3.org/2000/svg" xmlns:xlink="http://www.w3.org/1999/xlink" x="0px" y="0px"
	 viewBox="0 0 496 496" style="enable-background:new 0 0 496 496;" xml:space="preserve">
<g>
	<g>
		<path d="M324.712,223.52C344.528,221.16,360,204.44,360,184v-56h48c13.232,0,24-10.768,24-24s-10.768-24-24-24h-48.36
			C355.584,35.208,317.832,0,272,0h-64c-48.52,0-88,39.48-88,88v32v8v56c0,20.44,15.472,37.16,35.288,39.52
			c4.888,17.576,15.024,32.984,28.712,44.304v4.584c-11.368,7.288-21.04,16.624-28.68,27.384l-53.032,17.68
			C79.384,325.104,64,346.456,64,370.592V496h352V370.592c0-24.144-15.384-45.496-38.288-53.12l-53.032-17.68
			c-7.64-10.752-17.312-20.096-28.68-27.376v-4.584C309.688,256.504,319.824,241.096,324.712,223.52z M360,96h48
			c4.408,0,8,3.592,8,8s-3.592,8-8,8h-48V96z M312,160h-8v-16h-56v16h-16v-16h-56v16h-8v-32h144V160z M288,160v16h-24v-16H288z
			 M216,160v16h-24v-16H216z M327.664,206.632c0.168-2.2,0.336-4.392,0.336-6.632v-38.528c9.288,3.312,16,12.112,16,22.528
			C344,194.536,337.128,203.416,327.664,206.632z M344,152.208c-4.672-3.536-10.056-6.184-16-7.392V128h16V152.208z M136,128h16
			v16.808c-5.944,1.216-11.328,3.856-16,7.392V128z M136,184c0-10.416,6.712-19.216,16-22.528V200c0,2.24,0.168,4.432,0.336,6.632
			C142.872,203.416,136,194.536,136,184z M136,112V88c0-39.696,32.304-72,72-72h64c39.696,0,72,32.304,72,72v24h-48V64
			c0-17.648-14.352-32-32-32h-48c-17.648,0-32,14.352-32,32v16h96v32H136z M280,64h-80c0-8.824,7.176-16,16-16h48
			C272.824,48,280,55.176,280,64z M80,370.592c0-17.24,10.992-32.488,27.352-37.944l36.512-12.168
			C138.76,332.848,136,346.248,136,360v2.8c-16.176,5.744-28.352,19.896-31.28,37.2H80V370.592z M128,480H80v-64h24.72
			c2.416,14.312,11.16,26.472,23.28,33.504V480z M120,408c0-14.872,10.24-27.288,24-30.864v61.728
			C130.24,435.288,120,422.872,120,408z M232,480h-88v-24.72c2.608,0.44,5.272,0.72,8,0.72h16c8.824,0,16-7.176,16-16v-64
			c0-8.824-7.176-16-16-16h-16c0-16.824,5-32.96,13.712-46.808l4.616-1.536l26.544,70.792L232,347.312v62.16
			c-9.288,3.312-16,12.112-16,22.528c0,10.416,6.712,19.216,16,22.528V480z M160,440v-64h8l0.008,64H160z M240,288
			c14.408,0,27.984-3.552,40-9.712v13.432l-40,26.664l-40-26.664v-13.432C212.016,284.448,225.592,288,240,288z M201.52,260.744
			l10.424-31.272c1.088-3.272,4.136-5.472,7.584-5.472h40.936c3.448,0,6.496,2.2,7.592,5.472l10.424,31.272
			C267.336,267.832,254.16,272,240,272C225.84,272,212.664,267.832,201.52,260.744z M289.184,304.824l5.296,1.768l-17.608,46.96
			L252.56,329.24L289.184,304.824z M227.44,329.24l-24.312,24.312l-17.608-46.96l5.296-1.768L227.44,329.24z M232,432
			c0-4.416,3.592-8,8-8h16c4.408,0,8,3.584,8,8c0,4.416-3.592,8-8,8h-16C235.592,440,232,436.416,232,432z M336,480h-88v-24h8
			c10.416,0,19.216-6.712,22.528-16H336V480z M344,416c0,4.416-3.592,8-8,8c-4.408,0-8-3.584-8-8v-40h16V416z M400,480h-48v-46.24
			c4.872-4.392,8-10.696,8-17.76h40V480z M372.656,332.648C389.008,338.104,400,353.352,400,370.592V400h-40v-40h-16
			c0-13.752-2.76-27.152-7.864-39.52L372.656,332.648z M309.664,311.648l4.616,1.536C323,327.04,328,343.176,328,360h-16v56
			c0,2.816,0.576,5.488,1.472,8H278.52c-3.312-9.288-12.112-16-22.528-16h-8v-60.688l35.128,35.128L309.664,311.648z
			 M291.744,249.944l-8.512-25.528c-3.264-9.824-12.416-16.416-22.76-16.416h-40.936c-10.344,0-19.496,6.592-22.768,16.408
			l-8.512,25.528C175.744,236.984,168,219.392,168,200v-24h8v16h56v-16h16v16h56v-16h8v24
			C312,219.392,304.256,236.984,291.744,249.944z"/>
	</g>
</g>
<g>
	<g>
		<rect x="248" y="88" width="16" height="16"/>
	</g>
</g>
<g>
	<g>
		<rect x="208" y="88" width="16" height="16"/>
	</g>
</g>
<g>
	<g>
		<rect x="224" y="240" width="32" height="16"/>
	</g>
</g>
<g>
</g>
<g>
</g>
<g>
</g>
<g>
</g>
<g>
</g>
<g>
</g>
<g>
</g>
<g>
</g>
<g>
</g>
<g>
</g>
<g>
</g>
<g>
</g>
<g>
</g>
<g>
</g>
<g>
</g>
</svg>
