<?xml version="1.0" encoding="iso-8859-1"?>
<!-- Generator: Adobe Illustrator 19.0.0, SVG Export Plug-In . SVG Version: 6.00 Build 0)  -->
<svg version="1.1" id="Capa_1" xmlns="http://www.w3.org/2000/svg" xmlns:xlink="http://www.w3.org/1999/xlink" x="0px" y="0px"
	 viewBox="0 0 496 496" style="enable-background:new 0 0 496 496;" xml:space="preserve">
<g>
	<g>
		<path d="M381.576,303.16l-7.024-1.76l3.92-2.352l-3.312-6.624c-10.776-21.552-28.424-39.408-49.76-50.576
			c3.12-5.744,5.528-11.904,7.32-18.32C352.528,221.16,368,204.44,368,184v-48.192c14.552-5.864,24-13.624,24-23.808
			c0-13.64-16.208-23.8-49.192-31.08l-14.816-48.152C321.96,13.168,304.136,0,283.632,0c-9.192,0-18.096,2.696-25.752,7.8
			c-6.008,4-13.768,3.992-19.768,0C230.464,2.696,221.56,0,212.368,0c-20.496,0-38.328,13.168-44.36,32.768l-14.824,48.184
			C120.672,88.144,104,98.56,104,112c0,10.184,9.448,17.944,24,23.808V184c0,20.44,15.472,37.16,35.288,39.52
			c1.784,6.416,4.2,12.584,7.32,18.32c-21.344,11.16-38.984,29.016-49.76,50.576l-3.312,6.624l3.92,2.352l-7.024,1.76
			C89.448,309.392,72,331.728,72,357.48V496h352V357.48C424,331.728,406.552,309.392,381.576,303.16z M357.288,293.096
			l-36.248,21.752l-8.264,33.064L256,404.688v-66.296l44.424-67.872c5.96-4.44,11.368-9.56,16.032-15.336
			C333.336,263.624,347.616,276.928,357.288,293.096z M208,200c14.864,0,27.288-10.24,30.864-24h18.272
			c3.576,13.76,15.992,24,30.864,24c17.648,0,32-14.352,32-32c0-7.52-2.712-14.344-7.072-19.816c2.368-0.288,4.728-0.6,7.072-0.928
			V168v32c0,39.696-32.296,72-72,72c-39.696,0-72-32.304-72-72v-32v-20.744c2.344,0.328,4.696,0.64,7.072,0.928
			C178.712,153.656,176,160.48,176,168C176,185.648,190.352,200,208,200z M192,168c0-8.824,7.176-16,16-16c8.824,0,16,7.176,16,16
			c0,8.824-7.176,16-16,16C199.176,184,192,176.824,192,168z M235.464,151.848C239.808,151.944,244.016,152,248,152
			s8.192-0.056,12.536-0.152c-1.496,2.52-2.648,5.248-3.4,8.152h-18.272C238.112,157.096,236.96,154.368,235.464,151.848z M272,168
			c0-8.824,7.176-16,16-16c8.824,0,16,7.176,16,16c0,8.824-7.176,16-16,16C279.176,184,272,176.824,272,168z M335.664,206.632
			c0.168-2.2,0.336-4.392,0.336-6.632v-38.528c9.288,3.312,16,12.112,16,22.528C352,194.536,345.128,203.416,335.664,206.632z
			 M352,152.208c-4.672-3.536-10.056-6.184-16-7.392v-0.176c5.576-1.064,10.944-2.264,16-3.608V152.208z M183.304,37.472
			C187.256,24.632,198.936,16,212.368,16c6.024,0,11.856,1.768,16.864,5.112c11.4,7.592,26.128,7.592,37.52,0
			c5.024-3.344,10.856-5.112,16.88-5.112c13.432,0,25.112,8.632,29.064,21.472l9.136,29.688
			c-21.192,3.624-46.304,5.608-72.528,5.608c-27.248,0-53.312-2.136-75.008-6.04L183.304,37.472z M169.56,82.136
			c23.016,4.288,50.816,6.624,79.744,6.624c27.912,0,54.736-2.192,77.272-6.192l4.496,14.6C307.512,101.592,278.424,104,248,104
			s-59.52-2.408-83.064-6.832L169.56,82.136z M144,184c0-10.416,6.712-19.216,16-22.528V200c0,2.24,0.168,4.432,0.336,6.632
			C150.872,203.416,144,194.536,144,184z M144,152.2v-11.176c5.056,1.344,10.424,2.544,16,3.608v0.176
			C154.056,146.024,148.672,148.664,144,152.2z M120,112.04c0.28-1.528,6.096-7.544,27.736-13.368l-3.232,10.496l8.456,1.88
			C178.912,116.824,212.664,120,248,120s69.088-3.176,95.04-8.952l8.464-1.88l-3.232-10.504
			c21.696,5.84,27.456,11.864,27.736,13.296C374.488,120.12,327.928,136,248,136C168.064,136,121.512,120.12,120,112.04z M240,480
			h-88V368h-16v112H88V357.48c0-18.392,12.456-34.344,30.304-38.808l22.544-5.64l20.2,12.12l7.736,30.936L240,427.312V480z
			 M240,404.68l-56.776-56.784l-8.264-33.064l-36.248-21.752c9.68-16.152,23.952-29.464,40.832-37.904
			c4.664,5.776,10.072,10.896,16.032,15.336L240,338.384V404.68z M223.896,284.56c7.672,2.192,15.736,3.44,24.104,3.44
			c8.368,0,16.432-1.248,24.104-3.44L248,321.392L223.896,284.56z M408,480h-48V368h-16v112h-88v-52.688l71.224-71.216l7.736-30.936
			l20.2-12.12l22.544,5.64c17.832,4.456,30.296,20.408,30.296,38.8V480z"/>
	</g>
</g>
<g>
	<g>
		<path d="M264,216c0,8.824-7.176,16-16,16c-8.824,0-16-7.176-16-16h-16c0,17.648,14.352,32,32,32s32-14.352,32-32H264z"/>
	</g>
</g>
<g>
	<g>
		<rect x="272" y="448" width="16" height="16"/>
	</g>
</g>
<g>
	<g>
		<rect x="208" y="448" width="16" height="16"/>
	</g>
</g>
<g>
</g>
<g>
</g>
<g>
</g>
<g>
</g>
<g>
</g>
<g>
</g>
<g>
</g>
<g>
</g>
<g>
</g>
<g>
</g>
<g>
</g>
<g>
</g>
<g>
</g>
<g>
</g>
<g>
</g>
</svg>
