<?xml version="1.0" encoding="iso-8859-1"?>
<!-- Generator: Adobe Illustrator 19.0.0, SVG Export Plug-In . SVG Version: 6.00 Build 0)  -->
<svg version="1.1" id="Capa_1" xmlns="http://www.w3.org/2000/svg" xmlns:xlink="http://www.w3.org/1999/xlink" x="0px" y="0px"
	 viewBox="0 0 488 488" style="enable-background:new 0 0 488 488;" xml:space="preserve">
<g>
	<g>
		<path d="M380.36,333.968L324,316.744V288c0-7.592-5.336-13.936-12.44-15.568c8.088-9.624,13.848-20.84,17.16-32.912
			C348.536,237.152,364,220.44,364,200v-56.208c9.656-7.312,16-18.784,16-31.792c0-14.776-8.152-27.56-20.096-34.488l-1.192-2.312
			C348.008,54.632,319.568,0,244,0c-75.576,0-104.008,54.632-114.72,75.192l-1.152,2.296C116.16,84.416,108,97.208,108,112
			c0,13.016,6.344,24.488,16,31.792V200c0,20.44,15.464,37.152,35.28,39.52c3.32,12.072,9.072,23.28,17.16,32.912
			C169.328,274.056,164,280.408,164,288v28.744l-56.368,17.224C83.928,341.216,68,362.744,68,387.52V488h352V387.52
			C420,362.736,404.072,341.216,380.36,333.968z M331.616,222.648C331.784,220.44,332,218.24,332,216v-38.528
			c9.288,3.312,16,12.112,16,22.528C348,210.56,341.104,219.44,331.616,222.648z M348,168.208c-4.672-3.536-10.056-6.184-16-7.392
			V152h8c2.736,0,5.416-0.28,8-0.808V168.208z M338.816,72.096c-8.264,0.256-16.24,3.048-22.816,8.048
			c-4.856-3.696-10.56-6.016-16.48-7.104c-2.648-22.384-17.44-41.568-30.472-54.464C308.096,26.8,328.04,53.4,338.816,72.096z
			 M244,17.92c10.352,7.984,35.52,29.76,39.464,55.36c-5.552,1.168-10.888,3.384-15.464,6.864c-13.808-10.488-34.2-10.488-48,0
			c-4.576-3.48-9.912-5.696-15.464-6.864C208.48,47.68,233.648,25.904,244,17.92z M218.952,18.576
			c-13.04,12.896-27.824,32.072-30.472,54.464c-5.92,1.088-11.616,3.408-16.48,7.104c-6.584-5-14.552-7.792-22.816-8.048
			C159.952,53.4,179.904,26.8,218.952,18.576z M140,200c0-10.416,6.712-19.216,16-22.528V216c0,2.24,0.216,4.44,0.384,6.648
			C146.896,219.44,140,210.552,140,200z M140,168.2v-17.016c2.584,0.536,5.264,0.816,8,0.816h8v8.808
			C150.056,162.024,144.672,164.664,140,168.2z M156,136h-8c-13.232,0-24-10.768-24-24s10.768-24,24-24
			c6.912,0,13.296,2.952,17.984,8.304l6.016,6.88l6.016-6.888c9.368-10.704,26.592-10.704,35.96,0l6.024,6.888l6.016-6.888
			c9.368-10.704,26.608-10.696,35.96,0l6.024,6.888l6.024-6.888c9.36-10.704,26.592-10.704,35.952,0l6.024,6.888l6.024-6.888
			C326.704,90.952,333.088,88,340,88c13.232,0,24,10.768,24,24s-10.768,24-24,24h-8h-16H172H156z M172,216v-64h144v64
			c0,22.016-9.824,42.24-26.904,56h-90.192C181.824,258.24,172,238.016,172,216z M308.016,320H292v-32h16L308.016,320z M276,288v32
			h-24v-32H276z M236,288v32h-24v-32H236z M196,288v32h-16v-32H196z M332,472H156v-16h176V472z M404,472h-56v-88h-16v24h-48v16h48
			v16H156v-16h112v-16H156v-24h-16v88H84v-84.48c0-17.704,11.376-33.08,28.312-38.256l57.024-17.424
			c2.84,2.56,6.552,4.16,10.664,4.16h128c4.112,0,7.824-1.6,10.664-4.16l57.024,17.424C392.616,354.448,404,369.824,404,387.52V472z
			"/>
	</g>
</g>
<g>
	<g>
		<circle cx="284" cy="184" r="8"/>
	</g>
</g>
<g>
	<g>
		<circle cx="204" cy="184" r="8"/>
	</g>
</g>
<g>
	<g>
		<path d="M260,224c0,8.824-7.176,16-16,16c-8.824,0-16-7.176-16-16h-16c0,17.648,14.352,32,32,32s32-14.352,32-32H260z"/>
	</g>
</g>
<g>
</g>
<g>
</g>
<g>
</g>
<g>
</g>
<g>
</g>
<g>
</g>
<g>
</g>
<g>
</g>
<g>
</g>
<g>
</g>
<g>
</g>
<g>
</g>
<g>
</g>
<g>
</g>
<g>
</g>
</svg>
