<?xml version="1.0" encoding="iso-8859-1"?>
<!-- Generator: Adobe Illustrator 19.0.0, SVG Export Plug-In . SVG Version: 6.00 Build 0)  -->
<svg version="1.1" id="Capa_1" xmlns="http://www.w3.org/2000/svg" xmlns:xlink="http://www.w3.org/1999/xlink" x="0px" y="0px"
	 viewBox="0 0 496 496" style="enable-background:new 0 0 496 496;" xml:space="preserve">
<g>
	<g>
		<path d="M387.272,315.272l-45.984-12.776l-2.424-80.192C355.616,217.544,368,202.264,368,184v-49.472
			c9.288-3.312,16-12.112,16-22.528c0-13.232-10.768-24-24-24h-1.888l-11.84-43.416C339.112,18.336,315.104,0,287.896,0
			c-11.984,0-23.592,3.512-33.56,10.16L248,14.384l-6.336-4.224C231.696,3.512,220.088,0,208.104,0
			c-27.2,0-51.208,18.336-58.376,44.584L137.888,88H136c-13.232,0-24,10.768-24,24c0,10.416,6.712,19.216,16,22.528V184
			c0,18.264,12.384,33.544,29.136,38.312l-2.424,80.192l-45.984,12.776C77.68,323.896,56,352.424,56,384.648V496h384V384.648
			C440,352.424,418.32,323.896,387.272,315.272z M338.352,205.552l-1.328-43.76C345.792,165.376,352,173.96,352,184
			C352,193.512,346.4,201.672,338.352,205.552z M352,152.208c-4.536-3.432-9.736-5.992-15.48-7.248l-0.272-8.96H352V152.208z
			 M165.168,48.8c5.264-19.312,22.928-32.8,42.936-32.8c8.824,0,17.352,2.584,24.688,7.472L248,33.616l15.208-10.144
			C270.544,18.584,279.08,16,287.896,16c20.008,0,37.672,13.488,42.936,32.8L341.52,88H154.472L165.168,48.8z M136,120
			c-4.416,0-8-3.592-8-8s3.584-8,8-8h224c4.416,0,8,3.592,8,8s-3.584,8-8,8H136z M280,248v110.112L267.056,384H168.24l5.096-168
			h149.328l5.096,168h-18.816L296,358.112V248H280z M321.208,168l0.968,32H173.824l0.968-32H321.208z M175.28,152l0.488-16h144.464
			l0.488,16H175.28z M159.752,136l-0.272,8.96c-5.736,1.256-10.944,3.816-15.48,7.248V136H159.752z M144,184
			c0-10.04,6.208-18.624,14.968-22.208l-1.328,43.76C149.608,201.672,144,193.512,144,184z M120,480H72v-48h48V480z M424,480h-48
			v-48h48V480z M424,416h-48v-48h-16v112H136V368h-16v48H72v-31.352c0-25.064,16.864-47.248,41.008-53.96l41.192-11.44L151.76,400
			h125.184L288,377.888L299.056,400h45.184l-2.448-80.752l41.192,11.44C407.136,337.4,424,359.584,424,384.648V416z"/>
	</g>
</g>
<g>
	<g>
		<circle cx="208" cy="184" r="8"/>
	</g>
</g>
<g>
	<g>
		<circle cx="288" cy="184" r="8"/>
	</g>
</g>
<g>
	<g>
		<rect x="248" y="288" width="16" height="16"/>
	</g>
</g>
<g>
	<g>
		<rect x="248" y="256" width="16" height="16"/>
	</g>
</g>
<g>
	<g>
		<rect x="248" y="320" width="16" height="16"/>
	</g>
</g>
<g>
</g>
<g>
</g>
<g>
</g>
<g>
</g>
<g>
</g>
<g>
</g>
<g>
</g>
<g>
</g>
<g>
</g>
<g>
</g>
<g>
</g>
<g>
</g>
<g>
</g>
<g>
</g>
<g>
</g>
</svg>
