<?xml version="1.0" encoding="iso-8859-1"?>
<!-- Generator: Adobe Illustrator 19.0.0, SVG Export Plug-In . SVG Version: 6.00 Build 0)  -->
<svg version="1.1" id="Capa_1" xmlns="http://www.w3.org/2000/svg" xmlns:xlink="http://www.w3.org/1999/xlink" x="0px" y="0px"
	 viewBox="0 0 496 496" style="enable-background:new 0 0 496 496;" xml:space="preserve">
<g>
	<g>
		<path d="M447.216,335.36c-12.168-14.6-29.144-24.704-47.792-28.432L312,289.448v-26c19.504-2.592,36.488-14.528,45.472-32.496
			C364.36,217.168,368,201.744,368,186.336V88c0-26.376-18.352-48.496-42.944-54.4C308.248,12.264,283.24,0,256,0h-16
			c-27.24,0-52.248,12.264-69.056,33.6C146.352,39.504,128,61.624,128,88v98.336c0,15.408,3.64,30.832,10.528,44.616
			c8.984,17.96,25.968,29.904,45.472,32.496v26l-87.424,17.488c-18.648,3.728-35.616,13.832-47.792,28.432
			C32.8,354.544,24,378.848,24,403.824c0,8.736,1.072,17.464,3.192,25.928L32,448.984V496h432v-47.016l4.808-19.232
			c2.12-8.472,3.192-17.2,3.192-25.928C472,378.848,463.2,354.544,447.216,335.36z M240,16h16c16.816,0,32.592,5.72,45.24,16H194.76
			C207.416,21.72,223.192,16,240,16z M152.84,223.8c-5.784-11.576-8.84-24.528-8.84-37.464V88c0-22.056,17.944-40,40-40h128
			c22.056,0,40,17.944,40,40v98.336c0,12.936-3.056,25.888-8.84,37.464c-5.584,11.168-15.392,19.168-26.968,22.496L336,193.456V192
			v-48v-16c0-8.824-7.176-16-16-16H176c-8.824,0-16,7.176-16,16v16v48v1.456l19.816,52.832
			C168.24,242.968,158.432,234.968,152.84,223.8z M320,144H176v-16h144V144z M176,190.544V160h32h80h32v30.544l-23.44,62.512
			C283.248,265.248,266.136,272,248,272s-35.248-6.752-48.56-18.944L176,190.544z M296,273.768v17.592l-48,27.432l-48-27.432
			v-17.592C214.168,283.016,230.72,288,248,288C265.28,288,281.832,283.016,296,273.768z M128,480H48v-32l-5.288-22.128
			c-1.8-7.2-2.712-14.624-2.712-22.048c0-21.224,7.488-41.904,21.072-58.208c6.376-7.656,14.408-13.752,23.36-17.936
			C92.096,354.648,96,382.472,96,410.592V448H80v16h48V480z M160,480h-16v-32h16V480z M240,480h-64v-32c0-8.824,7.176-16,16-16h32
			c8.824,0,16,7.176,16,16V480z M320,480h-64v-32c0-8.824,7.176-16,16-16h32c8.824,0,16,7.176,16,16V480z M304,416h-32
			c-9.6,0-18.128,4.336-24,11.056c-5.872-6.72-14.4-11.056-24-11.056h-32c-11.792,0-22,6.48-27.552,16H128v16h-16v-37.408
			c0-29.84-4.16-59.36-12.352-87.96c0.024-0.008,0.04-0.008,0.064-0.016l90.92-18.184L248,337.208l57.368-32.784l90.912,18.184
			c0.024,0.008,0.04,0.008,0.064,0.016C388.16,351.232,384,380.76,384,410.592V448h-16v-16h-36.448C326,422.48,315.792,416,304,416z
			 M352,480h-16v-32h16V480z M453.288,425.872l-5.048,20.184L448,480h-80v-16h48v-16h-16v-37.408c0-28.12,3.904-55.944,11.56-82.92
			c8.952,4.184,16.984,10.272,23.36,17.936c13.592,16.304,21.08,36.984,21.08,58.216C456,411.248,455.088,418.672,453.288,425.872z"
			/>
	</g>
</g>
<g>
	<g>
		<circle cx="288" cy="168" r="8"/>
	</g>
</g>
<g>
	<g>
		<circle cx="208" cy="168" r="8"/>
	</g>
</g>
<g>
	<g>
		<path d="M264,216c0,8.824-7.176,16-16,16c-8.824,0-16-7.176-16-16h-16c0,17.648,14.352,32,32,32s32-14.352,32-32H264z"/>
	</g>
</g>
<g>
	<g>
		<rect x="152" y="360" width="16" height="16"/>
	</g>
</g>
<g>
	<g>
		<rect x="128" y="384" width="16" height="16"/>
	</g>
</g>
<g>
	<g>
		<rect x="176" y="384" width="16" height="16"/>
	</g>
</g>
<g>
</g>
<g>
</g>
<g>
</g>
<g>
</g>
<g>
</g>
<g>
</g>
<g>
</g>
<g>
</g>
<g>
</g>
<g>
</g>
<g>
</g>
<g>
</g>
<g>
</g>
<g>
</g>
<g>
</g>
</svg>
