<?xml version="1.0" encoding="iso-8859-1"?>
<!-- Generator: Adobe Illustrator 19.0.0, SVG Export Plug-In . SVG Version: 6.00 Build 0)  -->
<svg version="1.1" id="Capa_1" xmlns="http://www.w3.org/2000/svg" xmlns:xlink="http://www.w3.org/1999/xlink" x="0px" y="0px"
	 viewBox="0 0 496 496" style="enable-background:new 0 0 496 496;" xml:space="preserve">
<g>
	<g>
		<path d="M230.768,33.328l2.464,15.816C238.064,48.384,243.032,48,248,48V32C242.208,32,236.416,32.448,230.768,33.328z"/>
	</g>
</g>
<g>
	<g>
		<path d="M213.536,37.432c-15.992,5.184-30.888,14.12-43.072,25.832L181.552,74.8c10.448-10.056,23.216-17.712,36.92-22.152
			L213.536,37.432z"/>
	</g>
</g>
<g>
	<g>
		<path d="M336,88H160c-8.824,0-16,7.176-16,16v72c0,30.88,25.12,56,56,56h96c30.88,0,56-25.12,56-56v-72
			C352,95.176,344.824,88,336,88z M336,120h-40v16h40v40c0,22.056-17.944,40-40,40h-96c-22.056,0-40-17.944-40-40v-40h120v-16H160
			v-16h176V120z"/>
	</g>
</g>
<g>
	<g>
		<path d="M216,408c-13.232,0-24,10.768-24,24s10.768,24,24,24s24-10.768,24-24S229.232,408,216,408z M216,440c-4.408,0-8-3.584-8-8
			c0-4.416,3.592-8,8-8s8,3.584,8,8C224,436.416,220.408,440,216,440z"/>
	</g>
</g>
<g>
	<g>
		<rect x="288" y="408" width="16" height="16"/>
	</g>
</g>
<g>
	<g>
		<rect x="256" y="408" width="16" height="16"/>
	</g>
</g>
<g>
	<g>
		<rect x="288" y="440" width="16" height="16"/>
	</g>
</g>
<g>
	<g>
		<rect x="256" y="440" width="16" height="16"/>
	</g>
</g>
<g>
	<g>
		<path d="M424,128.808V104c0-8.824-7.176-16-16-16h-27.336C358.776,36.336,307.552,0,248,0S137.224,36.336,115.336,88H88
			c-8.824,0-16,7.176-16,16v24.808c-18.232,3.72-32,19.88-32,39.192v173.104V344v152h416V344v-2.896V168
			C456,148.688,442.232,132.528,424,128.808z M408,104v80h-20.464c2.912-13.024,4.464-26.4,4.464-40c0-13.888-2.08-27.28-5.768-40
			H408z M248,16c70.576,0,128,57.424,128,128c0,34.96-10.744,68.48-31.064,96.92L339.88,248H156.12l-5.056-7.08
			C130.744,212.48,120,178.96,120,144C120,73.424,177.424,16,248,16z M361.472,273.592C339.192,282.768,298.984,296,252.12,296
			c-47.4,0-91.704-13.6-116.384-22.84l25.64-9.16h173.24L361.472,273.592z M88,104h21.768C106.08,116.72,104,130.112,104,144
			c0,13.6,1.552,26.976,4.464,40H88V104z M56,168c0-10.416,6.712-19.216,16-22.528V184c0,8.824,7.176,16,16,16h24.744
			c5.728,17.792,14.2,34.696,25.296,50.216l2.92,4.088l-53.176,18.992C74.952,277.88,64.16,286.024,56,296.216V168z M56,344v-2.896
			c0-23.6,14.936-44.8,37.168-52.744l13.992-5c11.8,37.92,18.68,77.016,20.384,116.64H56V344z M128,480H56v-32h72V480z M128,432H56
			v-16h71.92c0.008,1.304,0.08,2.6,0.08,3.896V432z M320,480H176v-96h144V480z M320,368H176v-16h144V368z M352,480h-16V336H160v144
			h-16v-60.104c0-45.384-6.48-90.28-19.216-133.728C149.2,295.816,198.152,312,252.12,312c52.192,0,95.976-15.16,118.816-24.944
			C358.376,330.232,352,374.824,352,419.896V480z M440,480h-72v-32h72V480z M440,432h-72v-12.104c0-1.296,0.064-2.592,0.08-3.896
			H440V432z M440,344v56h-71.544c1.712-39.624,8.584-78.72,20.384-116.64l13.992,5C425.064,296.304,440,317.504,440,341.104V344z
			 M440,296.216c-8.16-10.192-18.952-18.336-31.784-22.92l-53.176-18.992l2.92-4.088c11.096-15.52,19.568-32.432,25.296-50.216H408
			c8.824,0,16-7.176,16-16v-38.528c9.288,3.312,16,12.112,16,22.528V296.216z"/>
	</g>
</g>
<g>
</g>
<g>
</g>
<g>
</g>
<g>
</g>
<g>
</g>
<g>
</g>
<g>
</g>
<g>
</g>
<g>
</g>
<g>
</g>
<g>
</g>
<g>
</g>
<g>
</g>
<g>
</g>
<g>
</g>
</svg>
