<?xml version="1.0" encoding="iso-8859-1"?>
<!-- Generator: Adobe Illustrator 19.0.0, SVG Export Plug-In . SVG Version: 6.00 Build 0)  -->
<svg version="1.1" id="Capa_1" xmlns="http://www.w3.org/2000/svg" xmlns:xlink="http://www.w3.org/1999/xlink" x="0px" y="0px"
	 viewBox="0 0 496 496" style="enable-background:new 0 0 496 496;" xml:space="preserve">
<g>
	<g>
		<path d="M377.712,349.48L368,346.24V152c0-7.72-0.856-15.416-2.312-22.952C372.352,116.44,376,102.368,376,88
			c0-25.384-10.864-48.224-28.112-64.296C353.472,18.792,360.496,16,368,16V0c-12.456,0-24.168,4.848-32.968,13.656l-0.056,0.056
			C321.36,5.08,305.28,0,288,0c-27.944,0-53.6,12.832-70.4,35.192l-0.76,1.016C165.056,50.144,128,97.888,128,152v194.24
			l-9.704,3.24C95.384,357.104,80,378.456,80,402.592V496h336v-93.408C416,378.456,400.616,357.104,377.712,349.48z
			 M160.336,238.632C150.872,235.416,144,226.536,144,216c0-10.416,6.712-19.216,16-22.528V232
			C160,234.24,160.168,236.432,160.336,238.632z M136,480H96v-16h40V480z M136,448H96v-45.408c0-17.24,10.992-32.488,27.352-37.944
			L136,360.432V448z M144,247.792c5.512,4.168,12.088,6.872,19.288,7.728c5.792,20.84,19.032,38.576,36.712,50.136v16.576
			l-56,18.672V247.792z M248,360c25.816,0,38.48-13.504,43.976-22.24L304,341.768V400H192v-58.232l12.024-4.008
			C209.52,346.496,222.184,360,248,360z M216,326.432v-12.544c9.936,3.896,20.704,6.112,32,6.112s22.064-2.216,32-6.112v12.56
			c-1.736,3.808-9.536,17.552-32,17.552C225.72,344,217.824,330.384,216,326.432z M248,304c-39.696,0-72-32.296-72-72v-48h144v48
			C320,271.704,287.696,304,248,304z M168,408c8.824,0,16,7.176,16,16c0,8.824-7.176,16-16,16c-8.824,0-16-7.176-16-16
			C152,415.176,159.176,408,168,408z M152,396.448v-41.352l24-8v46.04c-2.576-0.672-5.224-1.136-8-1.136
			C162.144,392,156.728,393.696,152,396.448z M280,480h-64v-16h64V480z M344,480h-48v-32h-96v32h-48v-28.448
			c4.728,2.752,10.144,4.448,16,4.448c17.648,0,32-14.352,32-32c0-2.776-0.464-5.424-1.136-8h98.272
			c-0.672,2.576-1.136,5.224-1.136,8c0,17.648,14.352,32,32,32c5.856,0,11.272-1.696,16-4.448V480z M328,440
			c-8.824,0-16-7.176-16-16c0-8.824,7.176-16,16-16c8.824,0,16,7.176,16,16C344,432.824,336.824,440,328,440z M344,396.448
			c-4.728-2.752-10.144-4.448-16-4.448c-2.776,0-5.424,0.464-8,1.136v-46.04l24,8V396.448z M352,340.904l-56-18.672v-16.576
			c17.68-11.56,30.912-29.304,36.712-50.136c7.2-0.856,13.776-3.56,19.288-7.728V340.904z M335.664,238.632
			c0.168-2.2,0.336-4.392,0.336-6.632v-38.528c9.288,3.312,16,12.112,16,22.528C352,226.536,345.128,235.416,335.664,238.632z
			 M352,184.208c-4.672-3.536-10.056-6.184-16-7.392V152h-16v16h-16v-16h-16v16h-16v-16h-16v16h-16v-16h-16v16h-16v-16h-16v16h-16
			v-16h-16v24.808c-5.944,1.216-11.328,3.856-16,7.392V152c0-48.416,34.2-91.04,81.352-101.52l124.76,82.36
			C351.288,139.144,352,145.552,352,152V184.208z M354.192,116.368L235.912,38.28c2.536-2.672,5.304-5.048,8.176-7.272
			L357.472,106.6C356.584,109.928,355.544,113.208,354.192,116.368z M259.296,21.912C268.192,18.056,277.912,16,288,16
			c39.696,0,72,32.296,72,72c0,0.344-0.048,0.68-0.048,1.016L259.296,21.912z M400,480h-40v-16h40V480z M400,448h-40v-87.568
			l12.656,4.216C389.008,370.104,400,385.352,400,402.592V448z"/>
	</g>
</g>
<g>
	<g>
		<circle cx="288" cy="208" r="8"/>
	</g>
</g>
<g>
	<g>
		<circle cx="208" cy="208" r="8"/>
	</g>
</g>
<g>
	<g>
		<path d="M264,248c0,8.824-7.176,16-16,16c-8.824,0-16-7.176-16-16h-16c0,17.648,14.352,32,32,32s32-14.352,32-32H264z"/>
	</g>
</g>
<g>
</g>
<g>
</g>
<g>
</g>
<g>
</g>
<g>
</g>
<g>
</g>
<g>
</g>
<g>
</g>
<g>
</g>
<g>
</g>
<g>
</g>
<g>
</g>
<g>
</g>
<g>
</g>
<g>
</g>
</svg>
