<?xml version="1.0" encoding="iso-8859-1"?>
<!-- Generator: Adobe Illustrator 19.0.0, SVG Export Plug-In . SVG Version: 6.00 Build 0)  -->
<svg version="1.1" id="Capa_1" xmlns="http://www.w3.org/2000/svg" xmlns:xlink="http://www.w3.org/1999/xlink" x="0px" y="0px"
	 viewBox="0 0 496 496" style="enable-background:new 0 0 496 496;" xml:space="preserve">
<g>
	<g>
		<path d="M377.712,317.48L296,290.232V288h72V136h16v-30.248l-17.496-4.376C357.456,43.488,306.816,0,248,0
			c-58.816,0-109.456,43.488-118.504,101.376L112,105.752V136h16v152h72v2.232l-81.704,27.24C95.384,325.104,80,346.456,80,370.592
			V496h336V370.592C416,346.456,400.616,325.104,377.712,317.48z M352,272h-53.56c16.464-11.568,28.744-28.608,34.272-48.48
			c7.2-0.856,13.776-3.56,19.288-7.728V272z M335.664,206.632c0.168-2.2,0.336-4.392,0.336-6.632v-38.528
			c9.288,3.312,16,12.112,16,22.528C352,194.536,345.128,203.416,335.664,206.632z M352,152.208c-4.672-3.536-10.056-6.184-16-7.392
			V136h16V152.208z M248,16c4.016,0,7.96,0.312,11.872,0.768L250.584,40h-5.168l-9.296-23.232C240.04,16.312,243.984,16,248,16z
			 M192,32.616V64h16V24.184c3.944-1.664,7.968-3.168,12.12-4.336L234.584,56h26.832l14.456-36.152
			c4.16,1.168,8.176,2.672,12.12,4.336V64h16V32.616c22.512,14.488,39.296,37.368,45.416,64.488L249.944,72.24L248,71.752
			L146.584,97.104C152.704,69.984,169.488,47.104,192,32.616z M128,118.248l120-30l120,30V120h-32h-16H176h-16h-32V118.248z
			 M160,161.472V200c0,2.24,0.168,4.432,0.336,6.632C150.872,203.416,144,194.536,144,184C144,173.584,150.712,164.784,160,161.472z
			 M144,152.2V136h16v8.808C154.056,146.024,148.672,148.664,144,152.2z M144,272v-56.208c5.512,4.168,12.088,6.872,19.288,7.728
			c5.528,19.864,17.816,36.912,34.272,48.48H144z M176,200v-64h144v64c0,39.704-32.304,72-72,72S176,239.704,176,200z M280,281.888
			v12.56c-1.736,3.808-9.536,17.552-32,17.552c-22.28,0-30.176-13.616-32-17.568V288v-6.112c9.936,3.896,20.704,6.112,32,6.112
			S270.064,285.784,280,281.888z M96,480v-48h40v32h64c10.416,0,19.216,6.712,22.528,16H96z M232,464.248
			c-4.136-5.552-9.592-10.04-16-12.856V424h16V464.248z M217.616,408l6.384-9.576l6.384,9.576H217.616z M256.808,480H248v-74.424
			l-24-36l-24,36V448h-16v-88h128v88h-16C276.688,448,260.528,461.768,256.808,480z M400,480H273.472
			c3.312-9.288,12.112-16,22.528-16h64v-32h40V480z M400,416h-40v-48h-16v80h-16V344H168v104h-16v-80h-16v48H96v-45.408
			c0-17.24,10.992-32.488,27.352-37.944l80.672-26.888C209.52,314.496,222.184,328,248,328s38.48-13.504,43.976-22.24l80.672,26.888
			c16.36,5.456,27.352,20.704,27.352,37.944V416z"/>
	</g>
</g>
<g>
	<g>
		<circle cx="288" cy="160" r="8"/>
	</g>
</g>
<g>
	<g>
		<circle cx="208" cy="160" r="8"/>
	</g>
</g>
<g>
	<g>
		<path d="M264,216c0,8.824-7.176,16-16,16c-8.824,0-16-7.176-16-16h-16c0,17.648,14.352,32,32,32s32-14.352,32-32H264z"/>
	</g>
</g>
<g>
</g>
<g>
</g>
<g>
</g>
<g>
</g>
<g>
</g>
<g>
</g>
<g>
</g>
<g>
</g>
<g>
</g>
<g>
</g>
<g>
</g>
<g>
</g>
<g>
</g>
<g>
</g>
<g>
</g>
</svg>
