<?xml version="1.0" encoding="iso-8859-1"?>
<!-- Generator: Adobe Illustrator 19.0.0, SVG Export Plug-In . SVG Version: 6.00 Build 0)  -->
<svg version="1.1" id="Capa_1" xmlns="http://www.w3.org/2000/svg" xmlns:xlink="http://www.w3.org/1999/xlink" x="0px" y="0px"
	 viewBox="0 0 496 496" style="enable-background:new 0 0 496 496;" xml:space="preserve">
<g>
	<g>
		<path d="M416,416v-45.4c0-24.144-15.392-45.496-38.288-53.128L296,290.232v-16.576c17.68-11.56,30.912-29.304,36.712-50.136
			c17.36-2.072,31.344-15.136,34.544-32.128C390.28,187.88,408,168,408,144c0-26.472-21.528-48-48.584-48
			c-4.568,0.016-9.12,0.408-13.664,0.976l-18.96-66.344C321.64,12.6,304.936,0,286.176,0c-11.128,0-22.008,4.512-29.856,12.368
			c-4.592,4.592-12.056,4.584-16.632,0.008C231.832,4.512,220.944,0,209.824,0c-18.76,0-35.464,12.6-40.608,30.632l-18.968,66.392
			c-4.728-0.6-9.472-1.008-14.248-1.024c-26.472,0-48,21.528-48,48c0,24,17.72,43.88,40.744,47.392
			c3.2,17,17.176,30.064,34.544,32.128c5.792,20.84,19.032,38.576,36.712,50.136v16.576l-81.712,27.232
			C95.392,325.104,80,346.456,80,370.6V416c-8.824,0-16,7.176-16,16v16c0,8.824,7.176,16,16,16v32h336v-32c8.824,0,16-7.176,16-16
			v-16C432,423.176,424.824,416,416,416z M336,115.008c7.888-1.928,15.912-2.976,24-3.008c17.648,0,32,14.352,32,32
			c0,15.256-10.744,28-25.048,31.192c-3.456-15.248-15.584-27.248-30.952-30.384V115.008z M336,200v-38.528
			c9.288,3.312,16,12.112,16,22.528c0,10.536-6.872,19.416-16.336,22.632C335.832,204.432,336,202.24,336,200z M129.048,175.192
			C114.744,172,104,159.256,104,144c0-17.648,14.352-32,32.52-32c7.856,0.032,15.712,1.072,23.48,2.976v29.832
			C144.632,147.944,132.504,159.936,129.048,175.192z M144,184c0-10.416,6.712-19.216,16-22.528V200c0,2.24,0.168,4.432,0.336,6.632
			C150.872,203.416,144,194.536,144,184z M320,136h-27.232c0.64-0.456,1.288-0.856,1.928-1.328
			c8.088-5.952,16.576-10.72,25.304-14.368V136z M184.6,35.024C187.8,23.824,198.168,16,209.824,16c6.904,0,13.664,2.8,18.544,7.688
			C239.2,34.504,256.8,34.512,267.64,23.68c4.872-4.88,11.632-7.68,18.536-7.68c11.648,0,22.024,7.824,25.216,19.024l18.56,64.952
			c-15.576,4.144-30.712,11.472-44.744,21.808C276.4,128.272,262.792,136,248,136s-28.4-7.728-37.208-14.208
			c-14-10.312-29.096-17.624-44.76-21.768L184.6,35.024z M203.232,136H176v-15.712c8.712,3.648,17.208,8.416,25.304,14.384
			C201.944,135.144,202.592,135.544,203.232,136z M176,200v-48h144v48c0,39.696-32.296,72-72,72C208.296,272,176,239.696,176,200z
			 M136,480H96v-16h40V480z M136,448H80v-16h56V448z M240,480h-88V368h-16v48H96v-45.4c0-17.248,10.992-32.496,27.352-37.952
			l82-27.336L240,346.896V480z M216,293.104v-11.216c9.936,3.896,20.704,6.112,32,6.112s22.064-2.216,32-6.112v11.216l-32,38.4
			L216,293.104z M344,480h-88V346.896l34.656-41.584l81.992,27.336C389.008,338.104,400,353.352,400,370.6V416h-40v-48h-16V480z
			 M400,480h-40v-16h40V480z M416,448h-56v-16h56V448z"/>
	</g>
</g>
<g>
	<g>
		<circle cx="288" cy="176" r="8"/>
	</g>
</g>
<g>
	<g>
		<circle cx="208" cy="176" r="8"/>
	</g>
</g>
<g>
	<g>
		<rect x="272" y="384" width="16" height="16"/>
	</g>
</g>
<g>
	<g>
		<rect x="272" y="416" width="16" height="16"/>
	</g>
</g>
<g>
	<g>
		<rect x="272" y="448" width="16" height="16"/>
	</g>
</g>
<g>
	<g>
		<path d="M272,200h-48c-13.232,0-24,10.768-24,24v24h96v-24C296,210.768,285.232,200,272,200z M280,232h-64v-8c0-4.408,3.584-8,8-8
			h48c4.416,0,8,3.592,8,8V232z"/>
	</g>
</g>
<g>
</g>
<g>
</g>
<g>
</g>
<g>
</g>
<g>
</g>
<g>
</g>
<g>
</g>
<g>
</g>
<g>
</g>
<g>
</g>
<g>
</g>
<g>
</g>
<g>
</g>
<g>
</g>
<g>
</g>
</svg>
