<?xml version="1.0" encoding="iso-8859-1"?>
<!-- Generator: Adobe Illustrator 19.0.0, SVG Export Plug-In . SVG Version: 6.00 Build 0)  -->
<svg version="1.1" id="Capa_1" xmlns="http://www.w3.org/2000/svg" xmlns:xlink="http://www.w3.org/1999/xlink" x="0px" y="0px"
	 viewBox="0 0 496 496" style="enable-background:new 0 0 496 496;" xml:space="preserve">
<g>
	<g>
		<path d="M377.712,317.48L368,314.24V120C368,53.832,314.168,0,248,0S128,53.832,128,120v194.24l-9.712,3.24
			C95.392,325.104,80,346.456,80,370.592V496h336V370.592C416,346.456,400.608,325.104,377.712,317.48z M144,120
			c0-57.344,46.656-104,104-104s104,46.656,104,104v32.208c-4.672-3.536-10.056-6.184-16-7.392V120h-16v7.744
			c-25.064-1.28-48.472-11.528-66.344-29.4L248,92.688l-5.656,5.656c-17.872,17.872-41.28,28.12-66.344,29.4V120h-16v24.808
			c-5.944,1.216-11.328,3.856-16,7.392V120z M235.184,328l-22.8,18.24l-11.288-39.504l5.296-1.768L235.184,328z M216,292.152
			v-10.264c9.936,3.896,20.704,6.112,32,6.112s22.064-2.216,32-6.112v10.264l-32,25.6L216,292.152z M248,338.248L265.184,352
			h-34.376L248,338.248z M260.816,328l28.792-23.032l5.296,1.768l-11.288,39.504L260.816,328z M248,272c-39.704,0-72-32.296-72-72
			v-0.208c6.704,5.08,14.96,8.208,24,8.208c19.312,0,35.472-13.768,39.192-32h17.616c3.72,18.232,19.872,32,39.192,32
			c9.04,0,17.296-3.128,24-8.208V200C320,239.704,287.704,272,248,272z M256.808,160h-17.616
			c-2.344-11.488-9.72-21.056-19.624-26.672c10.224-4.688,19.808-10.8,28.432-18.368c8.624,7.568,18.208,13.68,28.432,18.368
			C266.528,138.944,259.152,148.512,256.808,160z M296,144c13.232,0,24,10.768,24,24s-10.768,24-24,24s-24-10.768-24-24
			S282.768,144,296,144z M224,168c0,13.232-10.768,24-24,24s-24-10.768-24-24s10.768-24,24-24S224,154.768,224,168z M296,273.656
			c17.68-11.56,30.912-29.304,36.712-50.136c7.2-0.856,13.776-3.56,19.288-7.728v93.112l-56-18.672V273.656z M335.664,206.632
			c0.168-2.2,0.336-4.392,0.336-6.632v-38.528c9.288,3.312,16,12.112,16,22.528C352,194.536,345.128,203.416,335.664,206.632z
			 M160,161.472V200c0,2.24,0.168,4.432,0.336,6.632C150.872,203.416,144,194.536,144,184C144,173.584,150.712,164.784,160,161.472z
			 M144,215.792c5.512,4.168,12.088,6.872,19.288,7.728c5.792,20.84,19.032,38.576,36.712,50.136v16.576l-56,18.672V215.792z
			 M96,370.592c0-17.24,10.992-32.488,27.352-37.944l62.552-20.848l11.488,40.2H176v96h-24v-80h-16v48H96V370.592z M96,480v-48h40
			v32h56c10.416,0,19.216,6.712,22.528,16H96z M264.816,480H231.2c-1.216-5.944-3.856-11.328-7.392-16H224v-16h-16v3.392
			c-4.912-2.16-10.304-3.392-16-3.392v-80h112v80c-5.696,0-11.088,1.232-16,3.392V448h-16v16h0.208
			C268.672,468.672,266.024,474.056,264.816,480z M400,480H281.472c3.312-9.288,12.112-16,22.528-16h56v-32h40V480z M400,416h-40
			v-48h-16v80h-24v-96h-21.392l11.488-40.2l62.552,20.848c16.36,5.456,27.352,20.704,27.352,37.944V416z"/>
	</g>
</g>
<g>
	<g>
		<circle cx="296" cy="168" r="8"/>
	</g>
</g>
<g>
	<g>
		<circle cx="200" cy="168" r="8"/>
	</g>
</g>
<g>
	<g>
		<path d="M264,216c0,8.824-7.176,16-16,16c-8.824,0-16-7.176-16-16h-16c0,17.648,14.352,32,32,32s32-14.352,32-32H264z"/>
	</g>
</g>
<g>
	<g>
		<rect x="208" y="384" width="80" height="16"/>
	</g>
</g>
<g>
	<g>
		<rect x="208" y="416" width="16" height="16"/>
	</g>
</g>
<g>
	<g>
		<rect x="240" y="416" width="16" height="16"/>
	</g>
</g>
<g>
	<g>
		<rect x="272" y="416" width="16" height="16"/>
	</g>
</g>
<g>
	<g>
		<rect x="240" y="448" width="16" height="16"/>
	</g>
</g>
<g>
</g>
<g>
</g>
<g>
</g>
<g>
</g>
<g>
</g>
<g>
</g>
<g>
</g>
<g>
</g>
<g>
</g>
<g>
</g>
<g>
</g>
<g>
</g>
<g>
</g>
<g>
</g>
<g>
</g>
</svg>
