<svg height="496pt" viewBox="0 0 496 496" width="496pt" xmlns="http://www.w3.org/2000/svg"><path d="m185.398438 92.992188c-10.238282 2.929687-17.398438 12.421874-17.398438 23.078124v107.929688h16v-107.929688c0-3.550781 2.382812-6.71875 5.800781-7.695312l50.199219-14.34375v-15.167969c2.574219.671875 5.222656 1.136719 8 1.136719s5.425781-.464844 8-1.136719v15.167969l50.191406 14.335938c3.425782.984374 5.808594 4.144531 5.808594 7.703124v99.929688h16v-99.929688c0-10.65625-7.160156-20.148437-17.40625-23.078124l-38.59375-11.023438v-13.023438c4.921875-5.632812 8-12.90625 8-20.945312v-16c0-17.648438-14.351562-32-32-32s-32 14.351562-32 32v16c0 8.039062 3.078125 15.3125 8 20.945312v13.023438zm46.601562-60.992188c0-8.824219 7.175781-16 16-16s16 7.175781 16 16v16c0 8.824219-7.175781 16-16 16s-16-7.175781-16-16zm0 0"/><path d="m240 192h16v184h-16zm0 0"/><path d="m16 196.070312c0-3.550781 2.382812-6.71875 5.800781-7.695312l50.199219-14.34375v-15.167969c2.574219.671875 5.222656 1.136719 8 1.136719s5.425781-.464844 8-1.136719v15.167969l50.191406 14.335938c3.425782.984374 5.808594 4.144531 5.808594 7.703124v99.929688h16v-99.929688c0-10.65625-7.160156-20.148437-17.40625-23.078124l-38.59375-11.023438v-13.023438c4.921875-5.625 8-12.898437 8-20.945312v-16c0-17.648438-14.351562-32-32-32s-32 14.351562-32 32v16c0 8.039062 3.078125 15.3125 8 20.945312v13.023438l-38.601562 11.023438c-10.238282 2.929687-17.398438 12.421874-17.398438 23.078124v107.929688h16zm48-84.070312c0-8.824219 7.175781-16 16-16s16 7.175781 16 16v16c0 8.824219-7.175781 16-16 16s-16-7.175781-16-16zm0 0"/><path d="m72 272h16v184h-16zm0 0"/><path d="m478.59375 172.992188-38.59375-11.023438v-13.023438c4.921875-5.625 8-12.898437 8-20.945312v-16c0-17.648438-14.351562-32-32-32s-32 14.351562-32 32v16c0 8.039062 3.078125 15.3125 8 20.945312v13.023438l-38.601562 11.023438c-10.238282 2.929687-17.398438 12.421874-17.398438 23.078124v107.929688h16v-107.929688c0-3.550781 2.382812-6.71875 5.800781-7.695312l50.199219-14.34375v-15.167969c2.574219.671875 5.222656 1.136719 8 1.136719s5.425781-.464844 8-1.136719v15.167969l50.191406 14.335938c3.425782.984374 5.808594 4.144531 5.808594 7.703124v99.929688h16v-99.929688c0-10.65625-7.160156-20.148437-17.40625-23.078124zm-78.59375-44.992188v-16c0-8.824219 7.175781-16 16-16s16 7.175781 16 16v16c0 8.824219-7.175781 16-16 16s-16-7.175781-16-16zm0 0"/><path d="m408 272h16v184h-16zm0 0"/><path d="m112 200v264h48v-32h80v-16h-64v-32h40v-264h-16v248h-40v48h-16v32h-16v-248zm0 0"/><path d="m464 200h-16v264h32v16h-464v-16h32v-264h-16v248h-32v48h496v-48h-32zm0 0"/><path d="m296 368v-248h-16v264h40v32h-64v16h80v32h48v-264h-16v248h-16v-32h-16v-48zm0 0"/><path d="m312 0h16v16h-16zm0 0"/><path d="m296 16h16v16h-16zm0 0"/><path d="m312 32h16v16h-16zm0 0"/><path d="m328 16h16v16h-16zm0 0"/><path d="m152 40h16v16h-16zm0 0"/><path d="m136 56h16v16h-16zm0 0"/><path d="m152 72h16v16h-16zm0 0"/><path d="m168 56h16v16h-16zm0 0"/></svg>