<svg height="496pt" viewBox="0 0 496 496" width="496pt" xmlns="http://www.w3.org/2000/svg"><path d="m452.59375 359.617188-60.59375-13.984376v-15.753906c8.550781-6.871094 15.289062-15.894531 19.414062-26.238281 9.984376-.871094 19.402344-5.273437 26.195313-12.746094 6.679687-7.34375 10.144531-16.992187 10.167969-26.894531h.222656v-62.703125c0-17.914063-11.015625-33.832031-27.609375-40.21875l-5.878906-5.878906c-4.480469-4.480469-9.34375-8.429688-14.503907-11.847657v-143.351562h-400.007812v336h312v9.632812l-60.59375 13.984376c-25.558594 5.894531-43.40625 28.335937-43.40625 54.566406v81.816406h288v-81.816406c0-26.230469-17.847656-48.671875-43.40625-54.566406zm-134.410156 1.015624 19.503906 14.625-20.0625 12.039063-5.074219-25.367187zm24.976562 63.367188h17.671875l6.222657 56h-30.117188zm19.070313-16h-20.46875l-4.59375-13.777344 14.832031-8.894531 14.824219 8.894531zm4.089843-32.742188 19.503907-14.625 5.640625 1.304688-5.074219 25.359375zm9.679688-27.257812-24 18-24-18v-8.710938c7.414062 3.015626 15.511719 4.710938 24 4.710938s16.585938-1.695312 24-4.710938zm-24-20c-26.472656 0-48-21.527344-48-48v-40h27.160156c17.433594 0 34.390625-4.359375 49.558594-12.671875l6.335938 12.671875h12.945312v40c0 26.472656-21.527344 48-48 48zm-63.65625-41.390625c-3.824219-1.296875-7.34375-3.433594-10.105469-6.464844-4.597656-5.066406-6.78125-11.640625-6.125-18.519531.863281-9.058594 7.277344-16.632812 15.886719-19.898438v38.273438c0 2.230469.121094 4.433594.34375 6.609375zm137.425781-6.464844c-2.761719 3.039063-6.289062 5.167969-10.105469 6.464844.214844-2.175781.335938-4.378906.335938-6.609375v-38.28125c8.609375 3.265625 15.023438 10.839844 15.886719 19.898438.65625 6.878906-1.519531 13.460937-6.117188 18.527343zm-14.089843-105.152343 1.792968.59375c11.078125 3.703124 18.527344 14.03125 18.527344 25.710937v31.382813c-7.078125-5.359376-15.863281-8.679688-25.375-8.679688h-9.679688l-9.839843-19.679688-7.539063 5.023438c-14.390625 9.585938-31.125 14.65625-48.40625 14.65625h-33.785156c-9.511719 0-18.296875 3.320312-25.375 8.679688v-11.832032c0-42.367187 34.480469-76.847656 76.847656-76.847656 20.527344 0 39.832032 7.992188 54.34375 22.503906zm-395.679688-158.992188h368v118.871094c-11.007812-4.496094-22.894531-6.871094-35.152344-6.871094-51.191406 0-92.847656 41.65625-92.847656 92.847656v43.152344h.222656c.023438 9.910156 3.488282 19.550781 10.167969 26.894531 6.792969 7.472657 16.210937 11.875 26.195313 12.746094 2.375 5.945313 5.589843 11.449219 9.535156 16.359375h-286.121094zm208 398.183594c0-18.742188 12.753906-34.769532 31-38.976563l41.953125-9.679687 9.429687 47.167968 16.738282-10.046874 4.726562 14.199218-7.007812 63.152344h-40.839844v-64h-16v64h-40zm256 65.816406h-40v-64h-16v64h-40.839844l-7.015625-63.144531 4.726563-14.199219 16.738281 10.046875 9.429687-47.167969 41.953126 9.679688c18.253906 4.210937 31.007812 20.234375 31.007812 38.96875zm0 0"/><path d="m120 144c-44.113281 0-80 35.886719-80 80s35.886719 80 80 80 80-35.886719 80-80-35.886719-80-80-80zm50.902344 41.367188-13.933594 8.046874c-1.921875-2.316406-4.066406-4.460937-6.382812-6.382812l8.046874-13.933594c4.625 3.519532 8.75 7.644532 12.269532 12.269532zm-3.621094 30.632812c-.503906-3.007812-1.296875-5.910156-2.335938-8.703125l14.046876-8.113281c2.230468 5.28125 3.71875 10.9375 4.457031 16.816406zm-47.28125 40c-17.648438 0-32-14.351562-32-32s14.351562-32 32-32 32 14.351562 32 32-14.351562 32-32 32zm8-79.28125v-16.167969c5.886719.738281 11.535156 2.226563 16.816406 4.457031l-8.113281 14.046876c-2.792969-1.039063-5.695313-1.824219-8.703125-2.335938zm-16-16.167969v16.167969c-20.054688 3.386719-35.886719 19.226562-39.28125 39.28125h-16.167969c3.632813-28.894531 26.554688-51.816406 55.449219-55.449219zm-55.449219 71.449219h16.167969c3.386719 20.054688 19.226562 35.886719 39.28125 39.28125v16.167969c-28.894531-3.632813-51.816406-26.554688-55.449219-55.449219zm71.449219 55.449219v-16.167969c20.054688-3.386719 35.886719-19.226562 39.28125-39.28125h16.167969c-3.632813 28.894531-26.554688 51.816406-55.449219 55.449219zm0 0"/><path d="m304 32h-92.945312l-40 80h-11.054688v-80h-16v80h-16v-64h-16v64h-16v-40h-16v40h-16v-24h-16v24h-16v16h148.945312l40-80h83.054688zm0 0"/><path d="m320 32h16v16h-16zm0 0"/><path d="m352 32h16v16h-16zm0 0"/><path d="m224 64h144v16h-144zm0 0"/><path d="m224 96h144v16h-144zm0 0"/></svg>