<svg height="496pt" viewBox="0 0 496 496" width="496pt" xmlns="http://www.w3.org/2000/svg"><path d="m224 152c0 4.417969-3.582031 8-8 8s-8-3.582031-8-8 3.582031-8 8-8 8 3.582031 8 8zm0 0"/><path d="m288 152c0 4.417969-3.582031 8-8 8s-8-3.582031-8-8 3.582031-8 8-8 8 3.582031 8 8zm0 0"/><path d="m248 208c-8.824219 0-16-7.175781-16-16h-16c0 17.648438 14.351562 32 32 32s32-14.351562 32-32h-16c0 8.824219-7.175781 16-16 16zm0 0"/><path d="m64 232h72v16h-72zm0 0"/><path d="m480 104v-88h-16v88h-16v-64h-16v64h-16v-24h-16v24h-12.945312l-11.054688 22.113281-3.054688-6.113281h-20.945312v-27.160156c0-20.3125-9.878906-39.191406-26.496094-50.777344l-3.671875-4.589844c-19.054687-23.808594-47.480469-37.472656-77.984375-37.472656-33.359375 0-62.878906 16.503906-81.023437 41.71875-15.878907-25.664062-44.089844-41.71875-74.824219-41.71875-48.519531 0-88 39.480469-88 88 0 45.824219 35.214844 83.535156 80 87.59375v40.40625h56v-16h-40v-24.457031c17.9375-1.597657 34.648438-8.4375 48.257812-19.816407.8125 8.578126 4.292969 16.746094 10.140626 23.175782 5.824218 6.410156 13.578124 10.65625 21.96875 12.296875 1.425781 14.296875 7.066406 27.351562 15.632812 37.960937v28.289063l-74.984375 14.992187c-26.085937 5.214844-45.015625 28.320313-45.015625 54.910156v80.648438h16v32c0 8.824219 7.175781 16 16 16h64v40h184v-40h40c8.824219 0 16-7.175781 16-16v-32h16v-80.648438c0-26.589843-18.929688-49.695312-45.015625-54.910156l-74.984375-14.992187v-28.289063c8.566406-10.609375 14.207031-23.664062 15.632812-37.960937 8.382813-1.640625 16.144532-5.878907 21.96875-12.296875 6.679688-7.351563 10.152344-16.992188 10.175782-26.902344h.222656v-16h11.054688l12.945312 25.886719 20.945312-41.886719h99.054688v-16zm-236.152344-88c25.617188 0 49.488282 11.472656 65.480469 31.472656l4.425781 5.527344 1.8125 1.664062c12.792969 8.519532 20.433594 22.800782 20.433594 38.175782v27.839844c-4.679688-3.542969-10.089844-6.152344-16-7.503907v-17.175781h-16v15.097656c-4.753906-1.1875-9.136719-3.546875-12.6875-7.089844l-9.738281-9.734374-5.160157 2.574218c-19.820312 9.914063-42.023437 15.152344-64.191406 15.152344h-20.222656v-16h-16v17.175781c-5.910156 1.351563-11.320312 3.960938-16 7.503907v-20.832032c0-46.230468 37.617188-83.847656 83.847656-83.847656zm-90.488281 41.921875c-3.246094 6.972656-5.792969 14.34375-7.359375 22.078125h-2.640625c-3.527344-24.472656-22.886719-43.832031-47.359375-47.359375v-16.054687c24.871094 2.789062 46.742188 18.300781 57.359375 41.335937zm-65.359375 70.078125c-22.054688 0-40-17.945312-40-40s17.945312-40 40-40 40 17.945312 40 40-17.945312 40-40 40zm-8-111.527344v16.167969c-24.472656 3.527344-43.832031 22.886719-47.359375 47.359375h-16.167969c3.703125-33.3125 30.207032-59.824219 63.527344-63.527344zm-63.527344 79.527344h16.167969c3.527344 24.472656 22.886719 43.832031 47.359375 47.359375v16.167969c-33.320312-3.703125-59.824219-30.214844-63.527344-63.527344zm79.527344 63.542969v-16.183594c24.472656-3.527344 43.832031-22.886719 47.359375-47.359375h.832031c-.046875 1.289062-.191406 2.550781-.191406 3.847656v33.25c-12.0625 14.992188-29.113281 24.382813-48 26.445313zm64.113281-9.925781c.863281-9.050782 7.277344-16.632813 15.886719-19.890626v44.777344c-3.6875-1.3125-7.089844-3.40625-9.769531-6.359375-4.597657-5.074219-6.773438-11.648437-6.117188-18.527343zm38.199219 122.871093 36.144531 24.097657-22.839843 18.269531-15.707032-41.878907zm49.6875 33.757813 17.183594 13.753906h-34.375zm13.542969-9.660156 36.144531-24.097657 4.976562.992188-17.871093 41.695312zm26.457031-36.867188-40 26.664062-40-26.664062v-15.894531c11.449219 7.679687 25.207031 12.175781 40 12.175781s28.550781-4.496094 40-12.175781zm-200 132.28125v-64.648438c0-19 13.519531-35.496093 32.160156-39.222656l59.855469-11.96875 16.441406 43.839844h-28.457031v72h-32v-64h-16v64zm16 16h104c8.824219 0 16 7.175781 16 16s-7.175781 16-16 16h-104zm288 32h-56v40h-152v-24h24c17.648438 0 32-14.351562 32-32s-14.351562-32-32-32h-24v-56h128v56h-24c-17.648438 0-32 14.351562-32 32s14.351562 32 32 32h32v-16h-32c-8.824219 0-16-7.175781-16-16s7.175781-16 16-16h104zm16-112.648438v64.648438h-32v-64h-16v64h-32v-72h-27.871094l18.558594-43.304688 57.152344 11.433594c18.640625 3.726563 32.160156 20.222656 32.160156 39.222656zm-160-87.351562c-30.871094 0-56-25.121094-56-56v-56h20.222656c22.707032 0 45.441406-4.945312 66.113282-14.34375l1.664062 1.664062c6.59375 6.582032 14.960938 10.648438 24 12.03125v56.648438c0 30.878906-25.128906 56-56 56zm81.769531-71.863281c-2.679687 2.953125-6.082031 5.046875-9.769531 6.359375v-44.777344c8.609375 3.265625 15.023438 10.839844 15.886719 19.890625.65625 6.886719-1.519531 13.460937-6.117188 18.527344zm0 0"/><path d="m352 200h112v16h-112zm0 0"/><path d="m480 200h16v16h-16zm0 0"/><path d="m352 232h144v16h-144zm0 0"/><path d="m32 232h16v16h-16zm0 0"/><path d="m0 232h16v16h-16zm0 0"/></svg>