<svg height="496pt" viewBox="0 0 496 496" width="496pt" xmlns="http://www.w3.org/2000/svg"><path d="m248 104c17.648438 0 32-14.351562 32-32s-14.351562-32-32-32-32 14.351562-32 32 14.351562 32 32 32zm0-48c8.824219 0 16 7.175781 16 16s-7.175781 16-16 16-16-7.175781-16-16 7.175781-16 16-16zm0 0"/><path d="m467.496094 385.496094-51.496094-15.449219v-12.144531c14.910156-10.414063 24-27.605469 24-45.902344v-24c0-30.878906-25.121094-56-56-56s-56 25.121094-56 56v24c0 18.304688 9.089844 35.488281 24 45.902344v12.144531l-36 10.800781-36-10.800781v-12.144531c14.910156-10.414063 24-27.605469 24-45.902344v-24c0-30.878906-25.121094-56-56-56s-56 25.121094-56 56v24c0 18.304688 9.089844 35.488281 24 45.902344v12.144531l-36 10.800781-36-10.800781v-12.144531c14.910156-10.414063 24-27.605469 24-45.902344v-24c0-30.878906-25.121094-56-56-56s-56 25.121094-56 56v24c0 18.304688 9.089844 35.488281 24 45.902344v12.144531l-51.496094 15.449219c-17.046875 5.113281-28.503906 20.511718-28.503906 38.3125v72.191406h496v-72.191406c0-17.800782-11.457031-33.199219-28.503906-38.3125zm-83.496094-137.496094c19.3125 0 35.472656 13.769531 39.191406 32h-21.304687c-10.460938 0-20.941407-2.472656-30.3125-7.160156l-5.160157-2.574219-4.078124 4.078125c-3.582032 3.59375-8.566407 5.65625-13.648438 5.65625h-3.878906c3.71875-18.230469 19.878906-32 39.191406-32zm-40 64v-16h4.6875c7.496094 0 14.625-2.320312 20.585938-6.617188 10.285156 4.34375 21.453124 6.617188 32.613281 6.617188h22.113281v16c0 14.191406-7.664062 27.457031-20.007812 34.609375l-3.992188 2.3125v22.796875l-16 10.664062-16-10.664062v-22.796875l-3.992188-2.3125c-12.34375-7.152344-20.007812-20.417969-20.007812-34.609375zm-96-64c19.3125 0 35.472656 13.769531 39.191406 32h-21.304687c-10.460938 0-20.941407-2.472656-30.3125-7.160156l-5.160157-2.574219-4.078124 4.078125c-3.582032 3.59375-8.566407 5.65625-13.648438 5.65625h-3.878906c3.71875-18.230469 19.878906-32 39.191406-32zm-40 64v-16h4.6875c7.496094 0 14.625-2.320312 20.585938-6.617188 10.285156 4.34375 21.453124 6.617188 32.613281 6.617188h22.113281v16c0 14.191406-7.664062 27.457031-20.007812 34.609375l-3.992188 2.3125v22.796875l-16 10.664062-16-10.664062v-22.796875l-3.992188-2.3125c-12.34375-7.152344-20.007812-20.417969-20.007812-34.609375zm14.695312 72.742188 25.304688 16.875 25.304688-16.875 53.589843 16.074218c10.234375 3.070313 17.105469 12.3125 17.105469 22.992188v56.191406h-192v-56.191406c0-10.679688 6.871094-19.921875 17.105469-22.992188zm-110.695312-136.742188c19.3125 0 35.472656 13.769531 39.191406 32h-3.878906c-5.082031 0-10.066406-2.0625-13.65625-5.65625l-4.082031-4.078125-5.160157 2.574219c-9.359374 4.6875-19.839843 7.160156-30.300781 7.160156h-21.304687c3.71875-18.230469 19.878906-32 39.191406-32zm-40 64v-16h22.113281c11.160157 0 22.328125-2.273438 32.613281-6.617188 5.960938 4.296876 13.097657 6.617188 20.585938 6.617188h4.6875v16c0 14.191406-7.664062 27.457031-20.007812 34.609375l-3.992188 2.3125v22.796875l-16 10.664062-16-10.664062v-22.796875l-3.992188-2.3125c-12.34375-7.152344-20.007812-20.417969-20.007812-34.609375zm-56 111.808594c0-10.679688 6.871094-19.921875 17.105469-22.992188l53.589843-16.082031 25.304688 16.882813 25.304688-16.875 17.496093 5.25c-11.511719 7.160156-18.800781 19.6875-18.800781 33.816406v56.191406h-120zm464 56.191406h-120v-56.191406c0-14.128906-7.289062-26.65625-18.800781-33.816406l17.496093-5.25 25.304688 16.875 25.304688-16.875 53.589843 16.074218c10.234375 3.070313 17.105469 12.3125 17.105469 22.992188zm0 0"/><path d="m88 192c2.328125 0 4.488281 1.160156 5.785156 3.097656l18.214844 27.328125 18.214844-27.328125c1.296875-1.9375 3.457031-3.097656 5.785156-3.097656h88c2.328125 0 4.488281 1.160156 5.785156 3.097656l18.214844 27.328125 18.214844-27.328125c1.296875-1.9375 3.457031-3.097656 5.785156-3.097656h88c2.328125 0 4.488281 1.160156 5.785156 3.097656l18.214844 27.328125 18.214844-27.328125c1.296875-1.9375 3.457031-3.097656 5.785156-3.097656 35.289062 0 64-28.710938 64-64s-28.710938-64-64-64h-88v-5.769531l-10.351562-3.453125c-1.375-4.953125-3.34375-9.707032-5.886719-14.183594l4.886719-9.769531-19.472657-19.472657-9.769531 4.886719c-4.484375-2.535156-9.230469-4.503906-14.183594-5.886719l-3.453125-10.351562h-27.53125l-3.453125 10.351562c-4.953125 1.375-9.695312 3.34375-14.183594 5.886719l-9.769531-4.886719-19.472656 19.472657 4.886719 9.769531c-2.535156 4.484375-4.503906 9.230469-5.886719 14.183594l-10.359375 3.453125v5.769531h-88c-35.289062 0-64 28.710938-64 64s28.710938 64 64 64zm104-122.230469 8.03125-2.671875.914062-4.554687c1.222657-6.128907 3.613282-11.886719 7.09375-17.109375l2.578126-3.867188-3.792969-7.582031 3.160156-3.160156 7.582031 3.792969 3.867188-2.578126c5.230468-3.488281 10.992187-5.871093 17.109375-7.09375l4.554687-.914062 2.671875-8.03125h4.46875l2.671875 8.03125 4.554688.914062c6.121094 1.222657 11.878906 3.613282 17.109375 7.09375l3.867187 2.578126 7.582032-3.792969 3.160156 3.160156-3.792969 7.582031 2.578125 3.867188c3.488281 5.222656 5.871094 10.980468 7.09375 17.109375l.914062 4.554687 8.023438 2.671875v4.46875l-8.03125 2.671875-.914062 4.554688c-1.222657 6.121094-3.613282 11.878906-7.09375 17.109375l-2.578126 3.867187 3.792969 7.582032-3.160156 3.160156-7.582031-3.792969-3.867188 2.578125c-5.230468 3.488281-10.992187 5.871094-17.109375 7.09375l-4.554687.914062-2.671875 8.023438h-4.46875l-2.671875-8.03125-4.554688-.914062c-6.121094-1.222657-11.878906-3.613282-17.109375-7.09375l-3.867187-2.578126-7.582032 3.792969-3.160156-3.160156 3.792969-7.582031-2.578125-3.867188c-3.488281-5.230468-5.871094-10.992187-7.09375-17.109375l-.914062-4.554687-8.023438-2.671875zm-104 10.230469h88v5.769531l10.351562 3.453125c1.375 4.953125 3.34375 9.699219 5.886719 14.183594l-4.886719 9.769531 19.472657 19.472657 9.769531-4.886719c4.484375 2.535156 9.230469 4.503906 14.183594 5.886719l3.453125 10.351562h27.53125l3.453125-10.351562c4.953125-1.375 9.695312-3.34375 14.183594-5.886719l9.769531 4.886719 19.472656-19.472657-4.886719-9.769531c2.535156-4.484375 4.503906-9.230469 5.886719-14.183594l10.359375-3.453125v-5.769531h88c26.472656 0 48 21.527344 48 48s-21.527344 48-48 48c-7.6875 0-14.832031 3.824219-19.097656 10.214844l-4.902344 7.359375-4.902344-7.359375c-4.265625-6.390625-11.410156-10.214844-19.097656-10.214844h-88c-7.6875 0-14.832031 3.824219-19.097656 10.214844l-4.902344 7.359375-4.902344-7.359375c-4.265625-6.390625-11.410156-10.214844-19.097656-10.214844h-88c-7.6875 0-14.832031 3.824219-19.097656 10.214844l-4.902344 7.359375-4.902344-7.359375c-4.265625-6.390625-11.410156-10.214844-19.097656-10.214844-26.472656 0-48-21.527344-48-48s21.527344-48 48-48zm0 0"/><path d="m72 120h16v16h-16zm0 0"/><path d="m104 120h16v16h-16zm0 0"/><path d="m136 120h16v16h-16zm0 0"/><path d="m344 120h16v16h-16zm0 0"/><path d="m376 120h16v16h-16zm0 0"/><path d="m408 120h16v16h-16zm0 0"/></svg>