<svg height="496pt" viewBox="0 0 496 496" width="496pt" xmlns="http://www.w3.org/2000/svg"><path d="m360 376c-22.054688 0-40-17.945312-40-40 0-8.320312 2.566406-16.320312 7.425781-23.144531l-13.035156-9.28125c-6.796875 9.554687-10.390625 20.761719-10.390625 32.425781 0 30.871094 25.128906 56 56 56 11.664062 0 22.871094-3.59375 32.425781-10.390625l-9.28125-13.035156c-6.824219 4.859375-14.824219 7.425781-23.144531 7.425781zm0 0"/><path d="m424 176v-24c0-17.648438-14.351562-32-32-32v-32h-24v-16h16v-48h-48v48h16v16h-24v88h-16v-43.664062c0-15.703126-11.238281-28.984376-26.742188-31.566407l-21.257812-3.546875v-9.222656h-.246094c9.796875-7.296875 16.246094-18.871094 16.246094-32v-16c0-22.054688-17.945312-40-40-40s-40 17.945312-40 40v16c0 13.128906 6.449219 24.703125 16.246094 32h-.246094v9.222656l-21.257812 3.546875c-15.503907 2.574219-26.742188 15.855469-26.742188 31.566407v43.664062h-8v-43.664062c0-15.703126-11.238281-28.984376-26.742188-31.566407l-21.257812-3.546875v-9.222656h-.246094c9.796875-7.296875 16.246094-18.871094 16.246094-32v-16c0-22.054688-17.945312-40-40-40s-40 17.945312-40 40v16c0 13.128906 6.449219 24.703125 16.246094 32h-.246094v9.222656l-21.257812 3.546875c-15.503907 2.574219-26.742188 15.855469-26.742188 31.566407v43.664062h-16v320h496v-320zm-72-136h16v16h-16zm24 64v16h-32v-16zm45.832031 195.265625c3.511719 5.894531 6.167969 12.285156 7.871094 18.992187l1.242187 4.886719 17.054688 3.40625v18.890625l-17.054688 3.40625-1.242187 4.886719c-1.710937 6.707031-4.359375 13.097656-7.871094 18.992187l-2.574219 4.328126 9.644532 14.488281-13.351563 13.351562-14.488281-9.648437-4.328125 2.578125c-5.894531 3.511719-12.285156 6.167969-18.992187 7.871093l-4.886719 1.242188-3.40625 17.0625h-18.890625l-3.40625-17.054688-4.886719-1.242187c-6.707031-1.710937-13.097656-4.359375-18.992187-7.871094l-4.328126-2.574219-14.488281 9.644532-13.351562-13.351563 9.648437-14.488281-2.578125-4.328125c-3.511719-5.894531-6.167969-12.285156-7.871093-18.992187l-1.242188-4.886719-17.0625-3.40625v-18.890625l17.054688-3.40625 1.242187-4.886719c1.710937-6.707031 4.359375-13.097656 7.871094-18.992187l2.574219-4.328126-9.644532-14.488281 13.351563-13.351562 14.488281 9.648437 4.328125-2.578125c1.519531-.902343 3.148437-1.582031 4.734375-2.375v42.871094l32 42.671875 32-42.671875v-2.59375c5.089844 6.824219 8 15.1875 8 23.929687 0 8.320313-2.566406 16.320313-7.425781 23.144532l13.035156 9.28125c6.796875-9.5625 10.390625-20.769532 10.390625-32.433594 0-18.3125-9.128906-35.40625-24-45.824219v-18.382812c1.585938.792969 3.214844 1.472656 4.734375 2.375l4.328125 2.574219 14.488281-9.644532 13.351563 13.351563-9.644532 14.488281zm-77.832031-3.265625h32v13.335938l-16 21.328124-16-21.328124zm32-16h-32v-144h32zm-160-240c0-13.230469 10.769531-24 24-24s24 10.769531 24 24v16c0 13.230469-10.769531 24-24 24s-24-10.769531-24-24zm-32 92.335938c0-7.855469 5.625-14.496094 13.367188-15.785157l34.632812-5.773437v-15.585938c2.585938.527344 5.265625.808594 8 .808594s5.414062-.28125 8-.808594v15.585938l34.632812 5.765625c7.742188 1.296875 13.367188 7.9375 13.367188 15.792969v43.664062h-112zm-120-92.335938c0-13.230469 10.769531-24 24-24s24 10.769531 24 24v16c0 13.230469-10.769531 24-24 24s-24-10.769531-24-24zm-32 92.335938c0-7.855469 5.625-14.496094 13.367188-15.785157l34.632812-5.773437v-15.585938c2.585938.527344 5.265625.808594 8 .808594s5.414062-.28125 8-.808594v15.585938l34.632812 5.765625c7.742188 1.296875 13.367188 7.9375 13.367188 15.792969v43.664062h-112zm448 347.664062h-464v-288h312v62.152344c-2.878906 1.128906-5.710938 2.359375-8.457031 3.785156l-17.144531-11.425781-31.894532 31.894531 11.433594 17.144531c-2.304688 4.441407-4.226562 9.074219-5.746094 13.847657l-20.191406 4.050781v45.109375l20.191406 4.050781c1.511719 4.78125 3.441406 9.414063 5.746094 13.847656l-11.433594 17.144531 31.894532 31.894532 17.144531-11.433594c4.441406 2.304688 9.074219 4.226562 13.847656 5.746094l4.058594 20.191406h45.109375l4.050781-20.191406c4.78125-1.511719 9.414063-3.441406 13.847656-5.746094l17.144531 11.433594 31.894532-31.894532-11.433594-17.144531c2.304688-4.441406 4.226562-9.074219 5.746094-13.847656l20.191406-4.058594v-45.109375l-20.191406-4.050781c-1.511719-4.78125-3.441406-9.414063-5.746094-13.847656l11.433594-17.144531-31.894532-31.894532-17.144531 11.425782c-2.746093-1.425782-5.578125-2.664063-8.457031-3.785157v-118.144531c8.824219 0 16 7.175781 16 16v56c0 13.230469 10.769531 24 24 24h16v-16h-16c-4.414062 0-8-3.59375-8-8v-16h56zm0 0"/><path d="m240 216h16v16h-16zm0 0"/><path d="m208 216h16v16h-16zm0 0"/><path d="m176 216h16v16h-16zm0 0"/><path d="m192.472656 328.945312 20.472656-40.945312h43.054688v-16h-52.945312l-11.527344 23.054688-26.886719-47.054688h-132.640625v16h123.359375zm0 0"/><path d="m32 280h120v16h-120zm0 0"/><path d="m32 312h120v16h-120zm0 0"/><path d="m216 408h-16v40h-16v-64h-16v64h-16v-104h-16v104h-16v-64h-16v64h-16v-40h-16v40h-16v16h176v-16h-16zm0 0"/><path d="m448 448h16v16h-16zm0 0"/><path d="m416 448h16v16h-16zm0 0"/><path d="m384 448h16v16h-16zm0 0"/></svg>