<svg height="496pt" viewBox="0 0 496 496" width="496pt" xmlns="http://www.w3.org/2000/svg"><path d="m472 136c13.230469 0 24-10.769531 24-24 0-10.921875-7.367188-20.046875-17.367188-22.953125l.894532-42.375c9.535156-3.175781 16.472656-12.078125 16.472656-22.671875 0-13.230469-10.769531-24-24-24-12.273438 0-22.3125 9.296875-23.71875 21.199219l-99.65625 22.722656c-4.175781-7.097656-11.808594-11.921875-20.625-11.921875-5.054688 0-9.734375 1.59375-13.617188 4.273438-19.765624-13.242188-42.550781-20.273438-66.382812-20.273438-13.527344 0-26.710938 2.367188-39.351562 6.777344-4.320313-4.175782-10.175782-6.777344-16.648438-6.777344-9.113281 0-16.96875 5.167969-21.023438 12.671875l-59.425781-9.144531c-2.101562-11.09375-11.847656-19.527344-23.550781-19.527344-13.230469 0-24 10.769531-24 24 0 5.039062 1.574219 9.710938 4.238281 13.574219l-37.460937 51.523437c-2.167969-.648437-4.410156-1.097656-6.777344-1.097656-13.230469 0-24 10.769531-24 24 0 12.542969 9.703125 22.753906 21.984375 23.800781l28.519531 108.375c-6.328125 4.320313-10.503906 11.59375-10.503906 19.824219 0 2.128906.367188 4.152344.886719 6.121094-25.964844 22.839844-40.886719 55.183594-40.886719 89.878906 0 66.167969 53.832031 120 120 120 41.304688 0 79.648438-21.425781 101.542969-56.246094.671875.070313 1.320312.191406 2.007812.199219l9.746094 29.222656c-5.617187 4.398438-9.296875 11.160157-9.296875 18.824219 0 13.230469 10.769531 24 24 24 10.414062 0 19.214844-6.710938 22.527344-16h82.953125c3.3125 9.289062 12.113281 16 22.527343 16 11.34375 0 20.824219-7.9375 23.3125-18.527344 55.519532-11 96.679688-60.34375 96.679688-117.472656 0-27.792969-9.742188-54.449219-27.382812-75.921875 2.09375-3.558594 3.382812-7.652344 3.382812-12.078125 0-13.230469-10.769531-24-24-24-.742188 0-1.441406.152344-2.167969.214844l-29.105469-63.0625c4.472657-4.359375 7.273438-10.425782 7.273438-17.152344 0-2.640625-.527344-5.136719-1.320312-7.511719l36.417968-28.320312c3.734375 2.398437 8.140625 3.832031 12.902344 3.832031zm-8.472656-89.625-.917969 43.546875c-3.394531 1.445313-6.3125 3.71875-8.6875 6.46875l-97.371094-37.871094 95.226563-21.710937c2.765625 4.351562 6.871094 7.710937 11.75 9.566406zm8.472656 73.625c-4.40625 0-8-3.585938-8-8s3.59375-8 8-8 8 3.585938 8 8-3.59375 8-8 8zm0-104c4.40625 0 8 3.585938 8 8s-3.59375 8-8 8-8-3.585938-8-8 3.59375-8 8-8zm-144 32c4.40625 0 8 3.585938 8 8s-3.59375 8-8 8-8-3.585938-8-8 3.59375-8 8-8zm-22.921875 1.273438c-.628906 2.140624-1.078125 4.375-1.078125 6.726562 0 13.230469 10.769531 24 24 24 2.351562 0 4.585938-.449219 6.726562-1.078125 11.289063 17.039063 17.273438 36.621094 17.273438 57.078125 0 25.207031-9.023438 48.335938-24 66.359375v-16.253906c0-14.210938-9.542969-26.867188-23.207031-30.777344l-32.792969-9.359375v-10.175781c9.65625-7.3125 16-18.785157 16-31.792969v-16c0-22.054688-17.945312-40-40-40s-40 17.945312-40 40v16c0 13.015625 6.34375 24.488281 16 31.792969v10.175781l-32.792969 9.359375c-13.664062 3.902344-23.207031 16.558594-23.207031 30.777344v16.015625c-9-10.832032-15.871094-23.519532-19.886719-37.519532 7.078125-4.175781 11.886719-11.800781 11.886719-20.601562 0-9.96875-6.113281-18.527344-14.785156-22.144531 3.296875-23.917969 14.914062-46.054688 32.769531-62.457031 3.960937 2.867187 8.777344 4.601562 14.015625 4.601562 13.230469 0 24-10.769531 24-24 0-.953125-.175781-1.855469-.28125-2.777344 10.394531-3.40625 21.203125-5.222656 32.28125-5.222656 20.464844 0 40.046875 5.984375 57.078125 17.273438zm-57.078125 78.726562c-13.230469 0-24-10.769531-24-24v-16c0-13.230469 10.769531-24 24-24s24 10.769531 24 24v16c0 13.230469-10.769531 24-24 24zm0 16c2.734375 0 5.414062-.28125 8-.808594v5.496094l-8 8-8-8v-5.496094c2.585938.527344 5.265625.808594 8 .808594zm-18.328125 16.984375 18.328125 18.328125 18.328125-18.328125 34.0625 9.734375c6.832031 1.953125 11.609375 8.273438 11.609375 15.386719v31.703125c-17.671875 13.847656-39.855469 22.191406-64 22.191406-23.792969 0-46.144531-8.296875-64-22.289062v-31.605469c0-7.113281 4.777344-13.433594 11.601562-15.386719zm-165.671875 95.015625c4.40625 0 8 3.585938 8 8s-3.59375 8-8 8-8-3.585938-8-8 3.59375-8 8-8zm2.015625-15.800781-28.519531-108.375c2.34375-1.601563 4.351562-3.632813 6-5.9375l68.65625 19.617187c.328125 5.183594 2.296875 9.886719 5.40625 13.664063l-48.78125 81.3125c-.890625-.175781-1.839844-.199219-2.761719-.28125zm21.984375-192.199219c.328125 0 .625-.078125.945312-.097656l31.269532 78.160156c-1.375 1.21875-2.640625 2.546875-3.710938 4.042969l-68.65625-19.617188c-.28125-4.449219-1.695312-8.59375-4.085937-12.0625l37.46875-51.523437c2.160156.648437 4.402343 1.097656 6.769531 1.097656zm21.023438-12.671875 59.425781 9.144531c.101562.566406.285156 1.09375.4375 1.648438-19.125 16.894531-32.328125 39.398437-37.796875 64.070312l-27.304688-68.253906c2.125-1.875 3.886719-4.097656 5.238282-6.609375zm26.976562 100.671875c4.40625 0 8 3.585938 8 8s-3.59375 8-8 8-8-3.585938-8-8 3.59375-8 8-8zm56-104c4.40625 0 8 3.585938 8 8s-3.59375 8-8 8-8-3.585938-8-8 3.59375-8 8-8zm-104-16c4.40625 0 8 3.585938 8 8s-3.59375 8-8 8-8-3.585938-8-8 3.59375-8 8-8zm-72 96c0-4.414062 3.59375-8 8-8s8 3.585938 8 8-3.59375 8-8 8-8-3.585938-8-8zm40 329.808594v-31.703125c0-7.113281 4.777344-13.433594 11.601562-15.386719l34.070313-9.734375 18.328125 18.328125 18.328125-18.328125 34.0625 9.734375c6.832031 1.953125 11.609375 8.273438 11.609375 15.386719v31.78125c-18.007812 14.082031-40.457031 22.113281-64 22.113281-24.144531 0-46.328125-8.34375-64-22.191406zm64-89.808594c-13.230469 0-24-10.769531-24-24v-16c0-13.230469 10.769531-24 24-24s24 10.769531 24 24v16c0 13.230469-10.769531 24-24 24zm0 16c2.734375 0 5.414062-.28125 8-.808594v5.496094l-8 8-8-8v-5.496094c2.585938.527344 5.265625.808594 8 .808594zm80 58.289062v-16.191406c0-14.210937-9.542969-26.867187-23.207031-30.777344l-32.792969-9.351562v-10.175781c9.65625-7.3125 16-18.785157 16-31.792969v-16c0-22.054688-17.945312-40-40-40s-40 17.945312-40 40v16c0 13.015625 6.34375 24.488281 16 31.792969v10.175781l-32.792969 9.359375c-13.664062 3.902344-23.207031 16.558594-23.207031 30.777344v16.253906c-14.976562-18.023437-24-41.152344-24-66.359375 0-29.414062 12.382812-56.878906 33.992188-76.59375 3.953124 2.859375 8.769531 4.59375 14.007812 4.59375 13.230469 0 24-10.769531 24-24 0-.9375-.167969-1.824219-.273438-2.726562 10.449219-3.441407 21.265626-5.273438 32.273438-5.273438 57.34375 0 104 46.65625 104 104 0 5.289062-.601562 10.703125-1.480469 16.152344-12.535156.777344-22.519531 11.121094-22.519531 23.847656 0 6.59375 2.671875 12.558594 6.992188 16.902344-2.160157 3.289062-4.511719 6.402344-6.992188 9.386718zm24-34.289062c4.40625 0 8 3.585938 8 8s-3.59375 8-8 8-8-3.585938-8-8 3.59375-8 8-8zm24 88c-4.40625 0-8-3.585938-8-8s3.59375-8 8-8 8 3.585938 8 8-3.59375 8-8 8zm128-128c-13.230469 0-24-10.769531-24-24v-16c0-13.230469 10.769531-24 24-24s24 10.769531 24 24v16c0 13.230469-10.769531 24-24 24zm0 16c2.734375 0 5.414062-.28125 8-.808594v5.496094l-8 8-8-8v-5.496094c2.585938.527344 5.265625.808594 8 .808594zm-18.328125 16.984375 18.328125 18.328125 18.328125-18.328125 34.0625 9.734375c6.832031 1.953125 11.609375 8.273438 11.609375 15.386719v31.550781c-12.222656 9.617188-26.664062 16.542969-42.496094 19.886719-3.902344-7.984375-12.03125-13.542969-21.503906-13.542969s-17.601562 5.558594-21.503906 13.542969c-15.832032-3.34375-30.273438-10.269531-42.496094-19.886719v-31.550781c0-7.113281 4.777344-13.433594 11.601562-15.386719zm18.328125 95.015625c-4.40625 0-8-3.585938-8-8s3.59375-8 8-8 8 3.585938 8 8-3.59375 8-8 8zm80-53.984375v-15.917969c0-14.210937-9.542969-26.867187-23.207031-30.777344l-32.792969-9.351562v-10.175781c9.65625-7.3125 16-18.785157 16-31.792969v-16c0-22.054688-17.945312-40-40-40s-40 17.945312-40 40v16c0 13.015625 6.34375 24.488281 16 31.792969v10.175781l-32.792969 9.359375c-13.664062 3.902344-23.207031 16.558594-23.207031 30.777344v15.917969c-14.992188-18.113282-24-41.207032-24-66.015626 0-57.34375 46.65625-104 104-104 16.839844 0 33.433594 4.183594 48.390625 12.097657-.207031 1.269531-.390625 2.558593-.390625 3.894531 0 13.230469 10.769531 24 24 24 2.96875 0 5.785156-.609375 8.40625-1.601562 15.203125 18.585937 23.59375 41.609374 23.59375 65.601562 0 24.816406-9.007812 47.902344-24 66.015625zm0-154.015625c0 4.414062-3.59375 8-8 8s-8-3.585938-8-8 3.59375-8 8-8 8 3.585938 8 8zm-25.472656-18.761719c-16.910156-8.671875-35.582032-13.238281-54.527344-13.238281-66.167969 0-120 53.832031-120 120 0 43.839844 24.246094 83.105469 60.601562 104h-46.074218c-3.261719-9.152344-11.863282-15.761719-22.078125-15.953125l-9.746094-29.222656c5.617187-4.398438 9.296875-11.160157 9.296875-18.824219 0-8.007812-3.984375-15.070312-10.023438-19.433594 1.214844-6.917968 2.023438-13.8125 2.023438-20.566406 0-66.167969-53.832031-120-120-120-12.121094 0-24.03125 1.886719-35.558594 5.488281l46.78125-77.96875c.378906.082031.785156.054688 1.160156.121094 14.113282 51.542969 61.671876 88.359375 115.617188 88.359375 66.167969 0 120-53.832031 120-120 0-22.40625-6.199219-43.910156-17.9375-62.839844l98.007812 38.121094c-.007812.238281-.070312.472656-.070312.71875 0 2.640625.527344 5.136719 1.320312 7.511719l-36.417968 28.320312c-3.734375-2.398437-8.140625-3.832031-12.902344-3.832031-13.230469 0-24 10.769531-24 24s10.769531 24 24 24c.742188 0 1.441406-.152344 2.160156-.214844zm-30.527344-77.238281c-4.40625 0-8-3.585938-8-8s3.59375-8 8-8 8 3.585938 8 8-3.59375 8-8 8zm0 0"/></svg>