<svg height="496pt" viewBox="0 0 496 496" width="496pt" xmlns="http://www.w3.org/2000/svg"><path d="m463.160156 331.351562-10.9375-1.992187c2.882813-2.703125 5.5625-5.605469 7.753906-8.894531l6.878907-10.328125-6.046875-4.535157c-18.039063-13.53125-28.808594-35.066406-28.808594-57.601562v-30.113281c0-13.621094-7.320312-25.910157-19.199219-32.40625l-8.226562-8.222657c-11.125-11.128906-25.925781-17.257812-41.664063-17.257812-32.476562 0-58.910156 26.425781-58.910156 58.910156v29.089844c0 22.535156-10.769531 44.070312-28.808594 57.601562l-6.046875 4.535157 6.878907 10.328125c2.191406 3.289062 4.871093 6.191406 7.753906 8.894531l-10.9375 1.992187c-10.296875 1.871094-18.960938 7.65625-24.839844 15.558594-5.878906-7.902344-14.542969-13.6875-24.839844-15.558594l-55.160156-10.023437v-12.632813c3.175781-3.085937 5.9375-6.671874 8-10.800781l11.785156-23.558593c2.75-5.527344 4.214844-11.71875 4.214844-17.886719v-38.5625c0-13.621094-7.320312-25.910157-19.199219-32.40625l-8.226562-8.222657c-11.125-11.128906-25.925781-17.257812-41.664063-17.257812-32.476562 0-58.910156 26.425781-58.910156 58.910156v37.539063c0 6.167969 1.464844 12.359375 4.214844 17.886719l11.785156 23.550781c2.0625 4.128906 4.824219 7.714843 8 10.800781v12.632812l-55.160156 10.023438c-19.023438 3.472656-32.839844 20.015625-32.839844 39.359375v125.296875h496v-125.296875c0-19.34375-13.816406-35.886719-32.839844-39.351563zm-17.886718-17.824218c-4.015626 5.214844-9.503907 9.242187-15.722657 11.710937l-21.550781-3.910156v-12.632813c3.175781-3.085937 5.9375-6.671874 8-10.800781l7.398438-14.789062c5.015624 11.496093 12.425781 21.933593 21.875 30.421875zm-125.273438-65.527344h9.375c14.183594 0 27.648438-4.679688 38.625-13.320312 10.976562 8.640624 24.441406 13.320312 38.625 13.320312h9.375v8.449219c0 3.703125-.871094 7.414062-2.527344 10.734375l-11.785156 23.550781c-4.09375 8.1875-12.3125 13.265625-21.464844 13.265625h-24.453125c-9.152343 0-17.371093-5.078125-21.464843-13.265625l-11.785157-23.550781c-1.648437-3.320313-2.519531-7.03125-2.519531-10.734375zm14 88.496094 20.945312 15.710937-21.289062 17.03125-5.289062-31.710937zm10-12.496094v-5.800781c3.753906 1.152343 7.695312 1.800781 11.777344 1.800781h24.453125c4.074219 0 8.027343-.648438 11.777343-1.792969v5.792969l-24 18zm58 12.496094 5.632812 1.023437-5.289062 31.710938-21.289062-17.03125zm-39.089844-160.496094c11.464844 0 22.242188 4.464844 30.347656 12.566406l10 10.007813 1.167969.585937c7.132813 3.566406 11.574219 10.742188 11.574219 18.726563v14.113281h-9.375c-12.457031 0-24.167969-4.847656-32.96875-13.65625l-5.65625-5.664062-5.65625 5.664062c-8.808594 8.808594-20.511719 13.65625-32.96875 13.65625h-9.375v-13.089844c0-23.664062 19.246094-42.910156 42.910156-42.910156zm-72.183594 137.527344c9.449219-8.488282 16.859376-18.925782 21.875-30.429688l7.398438 14.789063c2.0625 4.128906 4.824219 7.714843 8 10.800781v12.632812l-21.550781 3.917969c-6.21875-2.46875-11.714844-6.496093-15.722657-11.710937zm-15.023437 33.570312 36.921875-6.714844 9.726562 58.386719 37.648438-30.121093v111.351562h-48.457031c-1.03125-14.160156-4.671875-28.144531-11.023438-40.839844-2.960937-5.921875-4.519531-12.542968-4.519531-19.160156s1.558594-13.238281 4.519531-19.160156l3.480469-6.953125v-17.886719h-16v14.113281l-1.792969 3.574219c-4.054687 8.121094-6.207031 17.222656-6.207031 26.3125s2.152344 18.191406 6.207031 26.3125c5.25 10.480469 8.335938 22 9.335938 33.6875h-39.542969v-109.296875c0-11.597656 8.289062-21.535156 19.703125-23.605469zm-140.269531 90.160156-7.433594 7.429688-7.433594-7.429688 6.210938-37.257812h2.445312zm-41.433594-100.761718 20.945312 15.710937-21.289062 17.03125-5.289062-31.710937zm37.71875 47.503906h-7.4375l-8.167969-12.246094 11.886719-9.507812 11.878906 9.507812zm9.34375-31.800781 20.945312-15.710938 5.632813 1.023438-5.289063 31.710937zm-18.152344-176.199219c11.464844 0 22.242188 4.464844 30.347656 12.566406l10 10.007813 1.167969.585937c7.132813 3.566406 11.574219 10.742188 11.574219 18.726563v6.113281h-25.375c-12.457031 0-24.167969-4.847656-32.96875-13.65625l-5.65625-5.664062-5.65625 5.664062c-7.222656 7.222656-16.40625 11.726562-26.34375 13.136719v-4.570313c0-23.664062 19.246094-42.910156 42.910156-42.910156zm-40.382812 91.183594c-1.65625-3.320313-2.527344-7.03125-2.527344-10.734375v-16.992188c11.710938-1.234375 22.761719-5.503906 32-12.769531 10.976562 8.632812 24.441406 13.3125 38.625 13.3125h25.375v16.449219c0 3.703125-.871094 7.414062-2.527344 10.734375l-11.785156 23.550781c-4.09375 8.1875-12.3125 13.265625-21.464844 13.265625h-24.453125c-9.152343 0-17.371093-5.078125-21.464843-13.265625zm33.25 52.816406h24.453125c4.074219 0 8.027343-.648438 11.777343-1.792969v5.792969l-24 18-24-18v-5.800781c3.746094 1.152343 7.6875 1.800781 11.769532 1.800781zm-99.777344 50.703125c0-11.605469 8.289062-21.535156 19.703125-23.613281l36.921875-6.714844 9.726562 58.386719 21.222657-16.976563 8.019531 12.015625-8.160156 48.941407 24.566406 24.570312 24.566406-24.570312-8.160156-48.941407 8.019531-12.015625 21.222657 16.976563 9.726562-58.386719 36.921875 6.714844c11.414063 2.078125 19.703125 12.015625 19.703125 23.613281v109.296875h-32v-104h-16v104h-128v-104h-16v104h-32zm464 109.296875h-39.542969c.992188-11.6875 4.085938-23.207031 9.335938-33.6875 4.054687-8.121094 6.207031-17.222656 6.207031-26.3125s-2.152344-18.191406-6.207031-26.3125l-1.792969-3.574219v-14.113281h-16v17.886719l3.480469 6.960937c2.960937 5.914063 4.519531 12.535156 4.519531 19.152344s-1.558594 13.238281-4.519531 19.160156c-6.34375 12.695313-9.992188 26.679688-11.023438 40.839844h-48.457031v-111.351562l37.648438 30.121093 9.726562-58.386719 36.921875 6.714844c11.414063 2.070313 19.703125 12.007813 19.703125 23.605469zm0 0"/><path d="m392 408h16v16h-16zm0 0"/><path d="m392 448h16v16h-16zm0 0"/><path d="m248 192c52.9375 0 96-43.0625 96-96s-43.0625-96-96-96-96 43.0625-96 96 43.0625 96 96 96zm0-176c44.113281 0 80 35.886719 80 80s-35.886719 80-80 80-80-35.886719-80-80 35.886719-80 80-80zm0 0"/><path d="m240 64.40625c-9.121094 1.859375-16 9.9375-16 19.59375 0 11.023438 8.96875 20 20 20h8c2.199219 0 4 1.792969 4 4s-1.800781 4-4 4h-8c-2.199219 0-4-1.792969-4-4v-4h-16v4c0 9.65625 6.878906 17.734375 16 19.59375v8.40625h16v-8.40625c9.121094-1.859375 16-9.9375 16-19.59375 0-11.023438-8.96875-20-20-20h-8c-2.199219 0-4-1.792969-4-4s1.800781-4 4-4h8c2.199219 0 4 1.792969 4 4v4h16v-4c0-9.65625-6.878906-17.734375-16-19.59375v-8.40625h-16zm0 0"/><path d="m296 96c0 23.679688-17.6875 44.078125-41.136719 47.449219l2.265625 15.832031c31.285156-4.480469 54.871094-31.6875 54.871094-63.28125s-23.585938-58.800781-54.863281-63.28125l-2.265625 15.832031c23.441406 3.371094 41.128906 23.769531 41.128906 47.449219zm0 0"/><path d="m238.863281 159.28125 2.265625-15.832031c-23.441406-3.371094-41.128906-23.769531-41.128906-47.449219s17.6875-44.078125 41.136719-47.449219l-2.273438-15.832031c-31.277343 4.480469-54.863281 31.6875-54.863281 63.28125s23.585938 58.800781 54.863281 63.28125zm0 0"/><path d="m104 32h16v16h-16zm0 0"/><path d="m88 48h16v16h-16zm0 0"/><path d="m104 64h16v16h-16zm0 0"/><path d="m120 48h16v16h-16zm0 0"/><path d="m384 80h16v16h-16zm0 0"/><path d="m368 96h16v16h-16zm0 0"/><path d="m384 112h16v16h-16zm0 0"/><path d="m400 96h16v16h-16zm0 0"/></svg>