<svg height="496pt" viewBox="0 0 496 496" width="496pt" xmlns="http://www.w3.org/2000/svg"><path d="m463.152344 331.351562-55.152344-10.03125v-15.441406c8.550781-6.871094 15.28125-15.886718 19.414062-26.222656 20.433594-1.769531 36.585938-18.769531 36.585938-39.65625v-40c0-52.9375-43.0625-96-96-96s-96 43.0625-96 96v40c0 20.886719 16.152344 37.886719 36.585938 39.65625 4.125 10.34375 10.863281 19.351562 19.414062 26.222656v15.441406l-55.160156 10.03125c-10.296875 1.878907-18.960938 7.65625-24.839844 15.558594-5.878906-7.902344-14.550781-13.6875-24.847656-15.558594l-55.152344-10.03125v-15.441406c8.550781-6.871094 15.28125-15.886718 19.414062-26.222656 20.433594-1.769531 36.585938-18.769531 36.585938-39.65625v-70.703125c0-17.914063-11.015625-33.832031-27.609375-40.21875l-5.886719-5.878906c-17.527344-17.542969-40.839844-27.199219-65.65625-27.199219-51.191406 0-92.847656 41.65625-92.847656 92.847656v51.152344c0 20.886719 16.152344 37.886719 36.585938 39.65625 4.125 10.34375 10.863281 19.351562 19.414062 26.222656v15.441406l-55.160156 10.03125c-19.023438 3.472657-32.839844 20.015626-32.839844 39.351563v125.296875h496v-125.296875c0-19.335937-13.816406-35.878906-32.847656-39.351563zm16.847656 39.351563v53.296875h-32v-16c0-20.9375 6.03125-41.710938 17.105469-59.449219 8.847656 3.640625 14.894531 12.265625 14.894531 22.152344zm-48.34375-108.070313c.222656-2.175781.34375-4.394531.34375-6.632812v-38.527344c9.289062 3.3125 16 12.113282 16 22.527344 0 10.542969-6.878906 19.414062-16.34375 22.632812zm-63.65625-142.632812c44.113281 0 80 35.886719 80 80v8.207031c-4.671875-3.535156-10.054688-6.183593-16-7.390625v-16.816406h-16v24h-4.222656c-22.175782 0-44.378906-5.238281-64.203125-15.160156l-5.160157-2.574219-8.765624 8.765625c-3.839844 3.832031-8.550782 6.402344-13.65625 7.785156v-22.816406h-16v16.808594c-5.945313 1.214844-11.328126 3.855468-16 7.390625v-8.199219c.007812-44.113281 35.894531-80 80.007812-80zm-80 120c0-10.414062 6.710938-19.214844 16-22.527344v38.527344c0 2.238281.121094 4.457031.34375 6.632812-9.464844-3.21875-16.34375-12.089843-16.34375-22.632812zm32 16v-32.71875c9.40625-1.625 18.078125-6.050781 24.96875-12.9375l.6875-.6875c20.679688 9.398438 43.40625 14.34375 66.121094 14.34375h4.222656v32c0 26.472656-21.527344 48-48 48s-48-21.527344-48-48zm48 64c8.488281 0 16.585938-1.695312 24-4.710938v9.398438l-24 24-24-24v-9.398438c7.414062 3.015626 15.511719 4.710938 24 4.710938zm-34.6875 16.625 34.6875 34.6875 34.6875-34.6875 46.03125 8.359375c-10.796875 19.144531-16.71875 40.984375-16.71875 63.015625v72h-16v-96h-96v96h-16v-72c0-22.03125-5.921875-43.871094-16.71875-63.015625zm66.6875 111.375h-64v-48h64zm-64 16h64v16h-64zm-128-24h32v40h-32zm48 0h32v40h-32zm14.894531-91.449219c11.074219 17.738281 17.105469 38.511719 17.105469 59.449219v16h-32v-53.296875c0-9.886719 6.046875-18.511719 14.894531-22.152344zm-30.894531 22.152344v53.296875h-32v-16c0-20.9375 6.03125-41.710938 17.105469-59.449219 8.847656 3.640625 14.894531 12.265625 14.894531 22.152344zm-48.34375-108.070313c.222656-2.175781.34375-4.394531.34375-6.632812v-38.527344c9.289062 3.3125 16 12.113282 16 22.527344 0 10.542969-6.878906 19.414062-16.34375 22.632812zm-66.808594-150.632812c20.527344 0 39.832032 7.992188 54.34375 22.503906l8.488282 8.488282 1.792968.59375c11.078125 3.703124 18.527344 14.03125 18.527344 25.710937v38.902344c-4.671875-3.535157-10.054688-6.183594-16-7.390625v-16.808594h-16v6.441406c-3.792969 10.054688-13.097656 16.855469-23.800781 17.4375 3.152343-3.917968 5.730469-8.367187 7.394531-13.351562l-15.179688-5.0625c-3.527343 10.605468-13.15625 17.800781-24.207031 18.414062 3.152344-3.917968 5.730469-8.367187 7.394531-13.351562l-15.175781-5.0625c-3.707031 11.085937-14.042969 18.535156-25.722656 18.535156h-6.703125v-24h-16v16.808594c-5.945312 1.214844-11.328125 3.855468-16 7.390625v-19.351563c0-42.367187 34.480469-76.847656 76.847656-76.847656zm-76.847656 128c0-10.414062 6.710938-19.214844 16-22.527344v38.527344c0 2.238281.121094 4.457031.34375 6.632812-9.464844-3.21875-16.34375-12.089843-16.34375-22.632812zm32 16v-32h6.703125c9.328125 0 18.113281-2.992188 25.296875-8.199219v8.199219h6.703125c9.328125 0 18.113281-2.992188 25.296875-8.199219v8.199219h6.703125c9.328125 0 18.113281-2.992188 25.296875-8.199219v40.199219c0 26.472656-21.527344 48-48 48s-48-21.527344-48-48zm48 64c8.488281 0 16.585938-1.695312 24-4.710938v9.398438l-24 24-24-24v-9.398438c7.414062 3.015626 15.511719 4.710938 24 4.710938zm-34.6875 16.625 34.6875 34.6875 34.6875-34.6875 46.03125 8.359375c-10.796875 19.144531-16.71875 40.984375-16.71875 63.015625v72h-16v-96h-96v96h-16v-72c0-22.03125-5.921875-43.871094-16.71875-63.015625zm66.6875 111.375h-64v-48h64zm-64 16h64v16h-64zm-65.105469-115.449219c11.074219 17.738281 17.105469 38.511719 17.105469 59.449219v16h-32v-53.296875c0-9.886719 6.046875-18.511719 14.894531-22.152344zm-14.894531 91.449219h32v40h-32zm432 40v-40h32v40zm0 0"/><path d="m120 416h16v16h-16zm0 0"/><path d="m360 416h16v16h-16zm0 0"/><path d="m208 0h16v16h-16zm0 0"/><path d="m208 32h16v16h-16zm0 0"/><path d="m208 64h16v56h-16zm0 0"/><path d="m272 0h16v16h-16zm0 0"/><path d="m272 32h16v16h-16zm0 0"/><path d="m272 64h16v56h-16zm0 0"/><path d="m240 0h16v120h-16zm0 0"/><path d="m240 136h16v16h-16zm0 0"/><path d="m240 168h16v16h-16zm0 0"/><path d="m304 32h16v56h-16zm0 0"/><path d="m336 0h16v56h-16zm0 0"/><path d="m176 32h16v56h-16zm0 0"/><path d="m144 0h16v56h-16zm0 0"/></svg>