<svg height="496pt" viewBox="0 0 496 496" width="496pt" xmlns="http://www.w3.org/2000/svg"><path d="m440 328h-28.207031c5.078125-6.703125 8.207031-14.960938 8.207031-24 0-8.824219-7.175781-16-16-16h-12v-19.960938c59.574219-14.445312 104-68.085937 104-132.039062 0-74.992188-61.007812-136-136-136s-136 61.007812-136 136c0 63.953125 44.425781 117.59375 104 132.039062v19.960938h-8.449219c-6.167969 0-12.359375 1.464844-17.886719 4.214844l-50.480468 25.25c-3.320313 1.664062-7.03125 2.535156-10.734375 2.535156h-40.449219v-16h-104v16h56v56h16v-56h16v128h-16v-56h-16v56h-56v16h104v-16h40.449219c3.703125 0 7.414062.871094 10.734375 2.527344l34.488281 17.25c5.519531 2.757812 11.710937 4.222656 17.878906 4.222656h24.449219v24h64v-24h48c13.230469 0 24-10.769531 24-24 0-6.167969-2.40625-11.742188-6.238281-16 3.839843-4.257812 6.238281-9.832031 6.238281-16s-2.40625-11.742188-6.238281-16c3.839843-4.257812 6.238281-9.832031 6.238281-16s-2.40625-11.742188-6.238281-16c3.839843-4.257812 6.238281-9.832031 6.238281-16 0-13.230469-10.769531-24-24-24zm8 24c0 4.414062-3.59375 8-8 8h-56c-4.40625 0-8-3.585938-8-8s3.59375-8 8-8h56c4.40625 0 8 3.585938 8 8zm0 32c0 4.414062-3.59375 8-8 8h-56c-4.40625 0-8-3.585938-8-8s3.59375-8 8-8h56c4.40625 0 8 3.585938 8 8zm0 32c0 4.414062-3.59375 8-8 8h-56c-4.40625 0-8-3.585938-8-8s3.59375-8 8-8h56c4.40625 0 8 3.585938 8 8zm-208-280c0-66.167969 53.832031-120 120-120s120 53.832031 120 120-53.832031 120-120 120-120-53.832031-120-120zm104 134.976562c5.257812.617188 10.574219 1.023438 16 1.023438s10.742188-.40625 16-1.023438v17.023438h-32zm-40.449219 185.023438c-3.703125 0-7.414062-.871094-10.734375-2.527344l-34.488281-17.25c-5.519531-2.757812-11.710937-4.222656-17.878906-4.222656h-40.449219v-96h40.449219c6.167969 0 12.359375-1.464844 17.886719-4.214844l50.480468-25.25c3.320313-1.664062 7.03125-2.535156 10.734375-2.535156h84.449219c0 13.230469-10.769531 24-24 24h-48.28125l-23.863281 35.808594c-6.101563 9.160156-14.527344 16.589844-24.367188 21.503906-8.753906 4.375-18.542969 6.6875-28.320312 6.6875h-15.167969v16h15.167969c12.246093 0 24.519531-2.894531 35.472656-8.375 12.328125-6.160156 22.878906-15.480469 30.527344-26.945312l6.832031-10.253907v93.574219zm40.449219 24v-136h17.472656c-.898437 2.511719-1.472656 5.183594-1.472656 8 0 6.167969 2.40625 11.742188 6.238281 16-3.839843 4.257812-6.238281 9.832031-6.238281 16s2.40625 11.742188 6.238281 16c-3.839843 4.257812-6.238281 9.832031-6.238281 16s2.40625 11.742188 6.238281 16c-3.839843 4.257812-6.238281 9.832031-6.238281 16 0 10.414062 6.710938 19.214844 16 22.527344v9.472656zm96-24h-56c-4.40625 0-8-3.585938-8-8s3.59375-8 8-8h56c4.40625 0 8 3.585938 8 8s-3.59375 8-8 8zm0 0"/><path d="m394.878906 73.007812-7.757812 13.984376c17.816406 9.878906 28.878906 28.664062 28.878906 49.007812h16c0-26.160156-14.222656-50.296875-37.121094-62.992188zm0 0"/><path d="m360 80c4.734375 0 9.449219.59375 14.007812 1.769531l3.976563-15.503906c-5.855469-1.496094-11.90625-2.265625-17.984375-2.265625zm0 0"/><path d="m360 48c48.519531 0 88 39.480469 88 88 0 20.753906-7.398438 40.910156-20.832031 56.785156l12.207031 10.34375c15.882812-18.761718 24.625-42.601562 24.625-67.128906 0-57.34375-46.65625-104-104-104-24.527344 0-48.367188 8.753906-67.128906 24.632812l10.335937 12.199219c15.871094-13.433593 36.039063-20.832031 56.792969-20.832031zm0 0"/><path d="m427.128906 215.367188-10.335937-12.199219c-15.871094 13.433593-36.039063 20.832031-56.792969 20.832031-48.519531 0-88-39.480469-88-88 0-20.753906 7.398438-40.910156 20.832031-56.785156l-12.207031-10.34375c-15.882812 18.761718-24.625 42.601562-24.625 67.128906 0 57.34375 46.65625 104 104 104 24.527344 0 48.367188-8.753906 67.128906-24.632812zm0 0"/><path d="m121.214844 165.640625c4.953125-1.375 9.695312-3.34375 14.183594-5.878906l9.769531 4.886719 19.472656-19.480469-4.886719-9.769531c2.535156-4.496094 4.503906-9.230469 5.886719-14.183594l10.359375-3.445313v-27.53125l-10.351562-3.453125c-1.375-4.953125-3.34375-9.707031-5.886719-14.183594l4.886719-9.777343-19.472657-19.472657-9.769531 4.886719c-4.484375-2.535156-9.230469-4.503906-14.183594-5.878906l-3.453125-10.359375h-27.539062l-3.445313 10.359375c-4.953125 1.375-9.695312 3.34375-14.183594 5.878906l-9.777343-4.886719-19.472657 19.472657 4.886719 9.777343c-2.535156 4.488282-4.503906 9.230469-5.886719 14.183594l-10.351562 3.445313v27.53125l10.351562 3.453125c1.375 4.953125 3.34375 9.695312 5.886719 14.183594l-4.886719 9.769531 19.472657 19.480469 9.769531-4.886719c4.484375 2.535156 9.230469 4.503906 14.183594 5.878906l3.453125 10.359375h27.539062zm-12.304688-13.679687-2.679687 8.039062h-4.460938l-2.679687-8.039062-4.554688-.90625c-6.128906-1.222657-11.878906-3.605469-17.109375-7.09375l-3.867187-2.578126-7.574219 3.800782-3.160156-3.167969 3.792969-7.582031-2.578126-3.859375c-3.488281-5.222657-5.871093-10.980469-7.09375-17.109375l-.914062-4.554688-8.03125-2.679687v-4.46875l8.03125-2.671875.914062-4.554688c1.222657-6.136718 3.613282-11.886718 7.09375-17.109375l2.578126-3.859375-3.792969-7.589844 3.160156-3.160156 7.574219 3.800782 3.867187-2.578126c5.222657-3.488281 10.980469-5.863281 17.109375-7.09375l4.554688-.90625 2.679687-8.039062h4.460938l2.679687 8.039062 4.554688.90625c6.128906 1.222657 11.878906 3.605469 17.109375 7.09375l3.867187 2.578126 7.574219-3.800782 3.160156 3.160156-3.792969 7.589844 2.578126 3.859375c3.488281 5.214844 5.871093 10.972657 7.09375 17.109375l.914062 4.554688 8.03125 2.679687v4.46875l-8.03125 2.671875-.914062 4.554688c-1.222657 6.128906-3.613282 11.878906-7.09375 17.109375l-2.578126 3.859375 3.792969 7.582031-3.160156 3.167969-7.574219-3.800782-3.867187 2.578126c-5.222657 3.488281-10.980469 5.863281-17.109375 7.09375zm0 0"/><path d="m104 72c-17.648438 0-32 14.351562-32 32s14.351562 32 32 32 32-14.351562 32-32-14.351562-32-32-32zm0 48c-8.824219 0-16-7.175781-16-16s7.175781-16 16-16 16 7.175781 16 16-7.175781 16-16 16zm0 0"/><path d="m160 248v-40h48v-208h-208v208h106.664062zm-144-232h176v176h-48v24l-32-24h-96zm0 0"/><path d="m0 272h16v16h-16zm0 0"/><path d="m32 272h16v16h-16zm0 0"/><path d="m64 272h16v16h-16zm0 0"/><path d="m32 304h16v16h-16zm0 0"/><path d="m64 304h16v16h-16zm0 0"/><path d="m0 480h16v16h-16zm0 0"/><path d="m32 480h16v16h-16zm0 0"/><path d="m64 480h16v16h-16zm0 0"/><path d="m32 448h16v16h-16zm0 0"/><path d="m64 448h16v16h-16zm0 0"/></svg>