<svg height="496pt" viewBox="0 0 496 496" width="496pt" xmlns="http://www.w3.org/2000/svg"><path d="m134.824219 236.648438 9.777343-4.886719c4.496094 2.535156 9.230469 4.503906 14.183594 5.886719l3.445313 10.351562h27.53125l3.453125-10.351562c4.953125-1.375 9.695312-3.34375 14.183594-5.886719l9.777343 4.886719 19.472657-19.472657-4.886719-9.777343c.742187-1.308594 1.429687-2.636719 2.0625-3.972657l-14.457031-6.859375c-.976563 2.050782-2.121094 4.074219-3.40625 6.007813l-2.578126 3.867187 3.800782 7.574219-3.160156 3.160156-7.589844-3.792969-3.859375 2.578126c-5.222657 3.488281-10.980469 5.871093-17.109375 7.09375l-4.554688.914062-2.679687 8.03125h-4.46875l-2.671875-8.03125-4.554688-.914062c-6.128906-1.222657-11.878906-3.613282-17.109375-7.09375l-3.859375-2.578126-7.589844 3.792969-3.160156-3.160156 3.800782-7.574219-2.578126-3.867187c-3.488281-5.222657-5.863281-10.980469-7.09375-17.109375l-.90625-4.554688-8.039062-2.679687v-4.460938l8.039062-2.679687.90625-4.554688c1.222657-6.128906 3.605469-11.878906 7.09375-17.109375l2.578126-3.867187-3.800782-7.574219 3.160156-3.160156 7.589844 3.792969 3.859375-2.578126c5.222657-3.488281 10.980469-5.871093 17.109375-7.09375l4.554688-.914062 2.679687-8.03125h4.46875l2.671875 8.03125 4.554688.914062c6.128906 1.222657 11.878906 3.613282 17.109375 7.09375l3.859375 2.578126 7.589844-3.792969 3.160156 3.160156-3.800782 7.574219 2.578126 3.867187c1.285156 1.933594 2.429687 3.957031 3.40625 6.007813l14.457031-6.859375c-.632813-1.335938-1.320313-2.664063-2.0625-3.972657l4.886719-9.777343-19.472657-19.472657-9.777343 4.886719c-4.496094-2.535156-9.230469-4.503906-14.183594-5.886719l-3.445313-10.351562h-27.53125l-3.453125 10.351562c-4.953125 1.375-9.695312 3.34375-14.183594 5.886719l-9.777343-4.886719-19.472657 19.472657 4.886719 9.769531c-2.535156 4.484375-4.503906 9.230469-5.878906 14.183594l-10.359375 3.453125v27.539062l10.359375 3.445313c1.375 4.953125 3.34375 9.695312 5.878906 14.183594l-4.886719 9.769531zm0 0"/><path d="m176 16c85.527344 0 155.382812 67.503906 159.59375 152h-16c-4.1875-75.671875-66.898438-136-143.59375-136-35.167969 0-69.113281 12.953125-95.550781 36.464844l10.621093 11.960937c23.523438-20.914062 53.683594-32.425781 84.929688-32.425781 67.878906 0 123.433594 53.152344 127.59375 120h-16c-4.128906-58.023438-52.539062-104-111.59375-104-61.761719 0-112 50.238281-112 112s50.238281 112 112 112c52.113281 0 96.886719-35.433594 108.886719-86.160156l-15.558594-3.6875c-10.296875 43.488281-48.671875 73.847656-93.328125 73.847656-52.9375 0-96-43.0625-96-96s43.0625-96 96-96c50.238281 0 91.503906 38.808594 95.59375 88h-100.28125l10.34375-10.34375-11.3125-11.3125-29.65625 29.65625 29.65625 29.65625 11.3125-11.3125-10.34375-10.34375h225.375l32 32h64.257812l-20-40 20-40h-64.257812l-32 32h-44.886719c-4.199219-93.34375-81.433593-168-175.800781-168-43.710938 0-85.703125 16.304688-118.246094 45.902344l10.765625 11.832031c29.59375-26.910156 67.761719-41.734375 107.480469-41.734375zm259.3125 184-16-16h39.742188l8 16zm0-48h31.742188l-8 16h-39.742188zm0 0"/><path d="m176 304c-70.574219 0-128-57.425781-128-128 0-31.246094 11.511719-61.40625 32.425781-84.929688l-11.953125-10.628906c-23.519531 26.445313-36.472656 60.390625-36.472656 95.558594 0 79.398438 64.601562 144 144 144 69.816406 0 129.375-49.871094 141.632812-118.59375l-15.753906-2.8125c-10.886718 61.078125-63.832031 105.40625-125.878906 105.40625zm0 0"/><path d="m328 474.6875c0-2.878906-.566406-5.671875-1.671875-8.273438l-59.082031-140.308593c43.539062-26.664063 75.128906-71.746094 82.769531-124.96875l-15.839844-2.273438c-11.214843 78.175781-79.214843 137.136719-158.175781 137.136719-88.222656 0-160-71.777344-160-160 0-39.71875 14.824219-77.886719 41.742188-107.488281l-11.839844-10.769531c-29.597656 32.554687-45.902344 74.546874-45.902344 118.257812 0 63.617188 33.929688 119.449219 84.632812 150.375l-58.945312 140.015625c-1.121094 2.625-1.6875 5.417969-1.6875 8.296875 0 1.847656.3125 3.601562.753906 5.3125h-24.753906v16h352v-16h-24.753906c.441406-1.710938.753906-3.464844.753906-5.3125zm-101.199219-130.414062 57.152344 135.726562h-83.953125v-129.847656c9.152344-1.28125 18.113281-3.214844 26.800781-5.878906zm-42.800781 7.359374v128.367188h-16v-128.199219c2.65625.121094 5.320312.199219 8 .199219 2.6875 0 5.335938-.246094 8-.367188zm-32 128.367188h-83.953125l57.066406-135.527344c8.695313 2.632813 17.679688 4.589844 26.886719 5.847656zm-106.6875 0c-2.929688 0-5.3125-2.382812-5.3125-5.3125 0-.710938.144531-1.390625.425781-2.054688l58.328125-138.535156c3.679688 1.804688 7.4375 3.460938 11.253906 5.015625l-57.953124 137.640625c-.832032 1.964844-2.75 3.246094-4.886719 3.246094zm259.519531 0c-2.144531 0-4.0625-1.28125-4.886719-3.246094l-58.050781-137.875c3.808594-1.558594 7.601563-3.160156 11.273438-4.976562l58.425781 138.761718c.261719.632813.40625 1.3125.40625 2.023438 0 2.929688-2.382812 5.3125-5.3125 5.3125zm0 0"/><path d="m464 328h16v16h-16zm0 0"/><path d="m464 368h16v16h-16zm0 0"/><path d="m464 408h16v16h-16zm0 0"/><path d="m496 464h-16v-16h-16v16h-16v16h16v16h16v-16h16zm0 0"/><path d="m400 392h16v16h-16zm0 0"/><path d="m400 352h16v16h-16zm0 0"/><path d="m400 312h16v16h-16zm0 0"/><path d="m416 240h-16v16h-16v16h16v16h16v-16h16v-16h-16zm0 0"/></svg>