<svg height="496pt" viewBox="0 0 496 496" width="496pt" xmlns="http://www.w3.org/2000/svg"><path d="m240 104h16v16h-16zm0 0"/><path d="m240 0h16v32h-16zm0 0"/><path d="m157.492188 40.804688 11.316406-11.3125 22.625 22.625-11.3125 11.316406zm0 0"/><path d="m128 112h32v16h-32zm0 0"/><path d="m336 112h32v16h-32zm0 0"/><path d="m304.570312 52.117188 22.628907-22.625 11.3125 11.3125-22.625 22.628906zm0 0"/><path d="m272 120h16c0-22.054688-17.945312-40-40-40v16c13.230469 0 24 10.769531 24 24zm0 0"/><path d="m467.496094 321.496094-51.496094-15.449219v-12.152344c14.488281-10.132812 24-26.910156 24-45.886719v-24c0-30.878906-25.121094-56-56-56-15.832031 0-30.128906 6.632813-40.320312 17.230469-1.488282-21.253906-9.925782-41.246093-24.207032-57.199219.3125-2.640624.527344-5.3125.527344-8.039062 0-20.878906-9.046875-40.703125-24.832031-54.398438-15.761719-13.679687-36.769531-19.824218-57.6875-16.847656-32.578125 4.636719-58.320313 31.894532-61.191407 64.8125-.433593 4.890625-.183593 9.640625.375 14.3125-14.417968 15.960938-22.847656 35.898438-24.320312 57.386719-10.199219-10.625-24.496094-17.265625-40.34375-17.265625-30.878906 0-56 25.121094-56 56v24c0 18.984375 9.511719 35.761719 24 45.886719v12.152343l-51.496094 15.449219c-17.046875 5.121094-28.503906 20.519531-28.503906 38.320313v72.191406h96c4.40625 0 8 3.59375 8 8v56h288v-56c0-4.40625 3.59375-8 8-8h96v-72.191406c0-17.800782-11.457031-33.199219-28.503906-38.3125zm-67.496094-11.695313c-1.984375 3.0625-7.496094 10.199219-16 10.199219-8.519531 0-14.039062-7.167969-16-10.199219v-8.160156c5.070312 1.519531 10.441406 2.359375 16 2.359375s10.929688-.839844 16-2.359375zm-204.503906 11.695313-51.496094-15.449219v-12.152344c8.984375-6.285156 16.023438-15.132812 20.097656-25.480469 6.621094 6.496094 15.261719 10.425782 24.488282 11.226563 4.125 10.34375 10.863281 19.367187 19.421874 26.238281v15.761719l-7.558593 1.742187c-1.617188-.726562-3.265625-1.382812-4.953125-1.886718zm-11.152344-58.886719c-3.816406-1.296875-7.335938-3.425781-10.105469-6.464844-4.605469-5.066406-6.773437-11.648437-6.117187-18.527343.863281-9.050782 7.269531-16.632813 15.878906-19.890626v38.273438c0 2.230469.121094 4.433594.34375 6.609375zm87.65625 61.390625-24 18-24-18v-8.710938c7.414062 3.015626 15.511719 4.710938 24 4.710938s16.585938-1.695312 24-4.710938zm-57.824219 12.632812 19.503907 14.632813-20.0625 12.039063-5.074219-25.367188zm25.183594 63.367188h17.28125l6.664063 80h-30.609376zm18.871094-16h-20.46875l-4.59375-13.777344 14.832031-8.894531 14.824219 8.894531zm4.089843-32.734375 19.503907-14.632813 5.632812 1.296876-5.074219 25.367187zm33.238282-27.882813-7.558594-1.742187v-15.761719c8.550781-6.871094 15.289062-15.894531 19.425781-26.238281 9.214844-.808594 17.863281-4.730469 24.484375-11.226563 4.074219 10.347657 11.105469 19.195313 20.097656 25.480469v12.152344l-51.488281 15.449219c-1.703125.503906-3.351562 1.160156-4.960937 1.886718zm16.441406-105.664062c8.609375 3.265625 15.015625 10.839844 15.878906 19.890625.65625 6.878906-1.511718 13.460937-6.117187 18.527344-2.769531 3.039062-6.289063 5.167969-10.105469 6.464843.222656-2.167968.34375-4.371093.34375-6.601562zm72-33.71875c22.054688 0 40 17.945312 40 40v24c0 22.054688-17.945312 40-40 40s-40-17.945312-40-40v-24c0-22.054688 17.945312-40 40-40zm-191.785156-69.039062c2.242187-25.59375 22.21875-46.777344 47.511718-50.367188 2.808594-.402344 5.609376-.59375 8.371094-.59375 13.503906 0 26.253906 4.726562 36.589844 13.6875 12.273438 10.648438 19.3125 26.074219 19.3125 42.3125 0 19.152344-9.726562 35.113281-27.390625 44.953125-1.519531.847656-2.824219 1.933594-4.105469 3.046875h-16.503906v-32h-16v32h-16.457031c-1.253907-1.089844-2.519531-2.160156-4.007813-2.992188-19.199218-10.75-29.160156-28.992187-27.320312-50.046874zm71.785156 85.039062h-32v-14c0-.679688-.214844-1.320312-.273438-2h32.554688c-.058594.6875-.28125 1.335938-.28125 2.03125zm0 16c0 8.824219-7.175781 16-16 16s-16-7.175781-16-16zm-82.089844-69.089844c5.890625 13.105469 15.976563 24.320313 29.816406 32.066406 2.632813 1.472657 4.273438 4.160157 4.273438 7.023438v30c0 17.648438 14.351562 32 32 32s32-14.351562 32-32v-29.96875c0-2.871094 1.679688-5.597656 4.390625-7.101562 13.800781-7.683594 23.945313-18.699219 29.816406-31.730469 8.921875 13.152343 13.792969 28.648437 13.792969 44.800781v16.679688c-4.679688-3.542969-10.089844-6.152344-16-7.503907v-9.175781h-16v64c0 26.472656-21.527344 48-48 48s-48-21.527344-48-48v-64h-16v9.175781c-5.910156 1.351563-11.320312 3.960938-16 7.503907v-16.679688c0-16.40625 4.878906-31.9375 13.910156-45.089844zm-109.910156 101.089844v-24c0-22.054688 17.945312-40 40-40s40 17.945312 40 40v24c0 22.054688-17.945312 40-40 40s-40-17.945312-40-40zm40 56c5.558594 0 10.929688-.839844 16-2.359375v8.152344c-1.984375 3.070312-7.496094 10.207031-16 10.207031s-14.015625-7.144531-16-10.199219v-8.152343c5.070312 1.511718 10.441406 2.351562 16 2.351562zm-16 112h-32v-56h-16v56h-32v-56.191406c0-10.679688 6.871094-19.921875 17.105469-22.984375l51.511719-15.457031c4.65625 6.046874 13.664062 14.632812 27.382812 14.632812s22.726562-8.585938 27.382812-14.632812l30.335938 9.105468-22.3125 5.144532c-25.558594 5.902343-43.40625 28.34375-43.40625 54.566406v9.816406h16v-9.816406c0-18.734375 12.753906-34.757813 31.007812-38.976563l41.9375-9.679687 9.429688 47.167968 16.738281-10.039062 4.765625 14.3125-7.238281 87.03125h-40.640625v-88h-16v88h-40v-40c0-13.230469-10.769531-24-24-24zm384 0h-32v-56h-16v56h-32c-13.230469 0-24 10.769531-24 24v40h-40v-88h-16v88h-40.640625l-7.253906-87.03125 4.765625-14.3125 16.738281 10.039062 9.429687-47.167968 41.945313 9.679687c18.261719 4.21875 31.015625 20.242188 31.015625 38.976563v9.816406h16v-9.816406c0-26.222656-17.847656-48.664063-43.40625-54.566406l-22.3125-5.144532 30.335938-9.105468c4.65625 6.046874 13.664062 14.632812 27.382812 14.632812s22.726562-8.585938 27.382812-14.632812l51.519532 15.457031c10.226562 3.0625 17.097656 12.304687 17.097656 22.984375zm0 0"/></svg>