<svg height="496pt" viewBox="0 0 496 496" width="496pt" xmlns="http://www.w3.org/2000/svg"><path d="m496 88h-368v-88h-72c-30.878906 0-56 25.121094-56 56v304c0 30.871094 25.121094 56 56 56h32v-16h-32c-22.054688 0-40-17.945312-40-40s17.945312-40 40-40h72v-216h352v296h-168v16h64v24h-48v16h48v24h-160v-24h96v-16h-96v-24h56c13.230469 0 24-10.769531 24-24s-10.769531-24-24-24v16c4.40625 0 8 3.585938 8 8s-3.59375 8-8 8h-104v24h-16v-16h-48v80h48v-16h16v24h250.296875l76.800781-48-51.203125-32h52.105469zm-384 216h-56c-15.65625 0-29.832031 6.457031-40 16.839844v-264.839844c0-22.054688 17.945312-40 40-40h56zm280 112h16v64h-16zm-256 56h-16v-48h16zm16-16v-16h16v16zm32-40h16v64h-16zm240 57.566406v-51.132812l40.902344 25.566406zm0 0"/><path d="m216 120v64h-32v32h-32v48h80v-48h-32v-16h96v16h-32v48h32v20.6875l-29.71875 29.71875c-3.128906-1.503906-6.585938-2.40625-10.28125-2.40625-13.230469 0-24 10.769531-24 24s10.769531 24 24 24 24-10.769531 24-24c0-3.695312-.902344-7.152344-2.40625-10.28125l26.40625-26.40625 26.40625 26.40625c-1.503906 3.128906-2.40625 6.585938-2.40625 10.28125 0 13.230469 10.769531 24 24 24s24-10.769531 24-24-10.769531-24-24-24c-3.695312 0-7.152344.902344-10.28125 2.40625l-29.71875-29.71875v-20.6875h32v-48h-32v-16h96v16h-32v48h80v-48h-32v-32h-32v-64zm0 128h-48v-16h48zm40 96c-4.40625 0-8-3.585938-8-8s3.59375-8 8-8 8 3.585938 8 8-3.59375 8-8 8zm104-8c0 4.414062-3.59375 8-8 8s-8-3.585938-8-8 3.59375-8 8-8 8 3.585938 8 8zm-32-88h-48v-16h48zm112 0h-48v-16h48zm-208-112h144v48h-144zm0 0"/><path d="m248 152h16v16h-16zm0 0"/><path d="m280 152h48v16h-48zm0 0"/><path d="m344 152h16v16h-16zm0 0"/></svg>