<svg height="496pt" viewBox="0 0 496 496" width="496pt" xmlns="http://www.w3.org/2000/svg"><path d="m476.222656 296c-4.351562 0-8.597656 1.496094-12.222656 4.296875v-8.296875c0-11.03125-8.976562-20-20-20s-20 8.96875-20 20c0 12.257812-2.3125 24.230469-6.855469 35.601562l-8.390625 20.984376c-2.800781 2.175781-6.226562 3.414062-9.792968 3.414062h-22.273438c-3.734375 0-7.367188-1.320312-10.238281-3.710938l-7.359375-6.136718 27.46875-11.273438c8.160156-3.351562 13.441406-11.222656 13.441406-20.046875v-1.152343c0-11.953126-9.71875-21.679688-21.671875-21.679688-2.449219 0-4.855469.40625-7.167969 1.207031l-70.222656 24.585938c-6.53125 2.285156-12.234375 6.71875-16.050781 12.453125l-23.511719 35.265625c-3.519531 5.289062-5.375 11.417969-5.375 17.753906v116.734375h16v-44h40v44h16v-50.703125l8.296875-24.890625c3.269531-9.820312 12.421875-16.414062 22.765625-16.414062h50.570312c11.414063 0 22.320313-4.886719 29.894532-13.433594l51.488281-57.910156c3.207031-3.617188 4.984375-8.28125 4.984375-13.128907v-3.75c0-10.90625-8.871094-19.769531-19.777344-19.769531zm-32.222656-8c2.207031 0 4 1.800781 4 4v22.238281l-13.382812 11.753907c3.511718-10.984376 5.382812-22.367188 5.382812-33.992188 0-2.199219 1.792969-4 4-4zm36 31.519531c0 .921875-.335938 1.816407-.953125 2.503907l-51.480469 57.914062c-4.550781 5.117188-11.085937 8.054688-17.933594 8.054688h-50.570312c-17.238281 0-32.496094 10.992187-37.941406 27.351562l-6.882813 20.648438h-42.238281v-56.734376c0-3.167968.929688-6.234374 2.6875-8.875l23.511719-35.269531c1.914062-2.867187 4.761719-5.082031 8.023437-6.21875l70.21875-24.574219c3.542969-1.230468 7.558594 1.582032 7.558594 5.359376v1.152343c0 2.3125-1.382812 4.375-3.519531 5.257813l-46.175781 18.964844c-13.335938 4.25-22.296876 16.496093-22.296876 30.496093v6.449219h16v-6.457031c0-6.992188 4.480469-13.117188 11.761719-15.472657l2.566407-1.054687 13.863281 11.558594c5.746093 4.792969 13.015625 7.425781 20.488281 7.425781h22.273438c7.773437 0 15.269531-2.824219 21.109374-7.945312l53.753907-47.183594c2.304687-1.902344 6.175781-.039063 6.175781 2.90625zm0 0"/><path d="m211.121094 326.257812c-3.824219-5.746093-9.519532-10.167968-16.058594-12.472656l-70.222656-24.578125c-2.3125-.800781-4.71875-1.207031-7.167969-1.207031-11.953125 0-21.671875 9.726562-21.671875 21.679688v1.152343c0 8.832031 5.28125 16.703125 13.449219 20.054688l27.480469 11.265625-7.378907 6.144531c-2.871093 2.382813-6.503906 3.703125-10.238281 3.703125h-22.273438c-3.566406 0-6.992187-1.238281-9.792968-3.414062l-8.390625-20.992188c-4.542969-11.363281-6.855469-23.335938-6.855469-35.59375 0-11.03125-8.976562-20-20-20s-20 8.96875-20 20v8.273438c-3.480469-2.738282-7.792969-4.273438-12.222656-4.273438-10.90625 0-19.777344 8.863281-19.777344 19.777344v3.75c0 4.839844 1.777344 9.503906 4.992188 13.136718l51.480468 57.910157c7.582032 8.539062 18.480469 13.433593 29.894532 13.433593h50.570312c10.34375 0 19.496094 6.59375 22.765625 16.417969l8.296875 24.871094v50.703125h16v-44h40v44h16v-116.734375c0-6.335937-1.855469-12.472656-5.375-17.753906zm-159.121094-38.257812c2.207031 0 4 1.800781 4 4 0 11.625 1.871094 23.015625 5.382812 34l-13.382812-11.753906v-22.246094c0-2.199219 1.792969-4 4-4zm84.9375 100h-50.570312c-6.847657 0-13.382813-2.9375-17.933594-8.054688l-51.472656-57.914062c-.625-.695312-.960938-1.582031-.960938-2.511719v-3.75c0-2.074219 1.695312-3.769531 3.777344-3.769531.871094 0 1.71875.304688 2.207031.703125l53.945313 47.351563c5.839843 5.121093 13.335937 7.945312 21.109374 7.945312h22.273438c7.472656 0 14.742188-2.632812 20.488281-7.414062l13.886719-11.578126 3.160156 1.296876c6.671875 2.128906 11.152344 8.246093 11.152344 15.238281v6.457031h16v-6.457031c0-13.992188-8.960938-26.238281-21.6875-30.261719l-46.785156-19.191406c-2.144532-.890625-3.527344-2.945313-3.527344-5.257813v-1.152343c0-3.777344 4.054688-6.582032 7.550781-5.359376l70.21875 24.566407c3.261719 1.152343 6.117188 3.359375 8.03125 6.234375l23.511719 35.261718c1.757812 2.640626 2.6875 5.714844 2.6875 8.875v56.742188h-42.230469l-6.882812-20.648438c-5.453125-16.359374-20.710938-27.351562-37.949219-27.351562zm0 0"/><path d="m248 51.65625-14.246094 16.742188-20.320312 8.378906 11.511718 18.71875 1.6875 21.902344 21.367188-5.167969 21.359375 5.167969 1.6875-21.902344 11.511719-18.71875-20.320313-8.378906zm7.390625 38.742188-.535156 7.035156-6.855469-1.664063-6.847656 1.664063-.542969-7.035156-3.699219-6 6.523438-2.6875 4.566406-5.367188 4.566406 5.367188 6.523438 2.6875zm0 0"/><path d="m157.265625 121.238281c1.734375 1.523438 2.734375 3.714844 2.734375 6.761719 0 4.414062-3.59375 8-8 8s-8-3.585938-8-8v-8h-16v8c0 13.230469 10.769531 24 24 24s24-10.769531 24-24.742188c0-6.921874-2.992188-13.503906-8.191406-18.066406l-49.144532-43c-4.238281-3.695312-6.664062-9.046875-6.664062-14.679687 0-10.75 8.753906-19.511719 19.511719-19.511719h13.855469c6.375 50.640625 35.226562 96.671875 78.632812 124.351562v83.648438h-24c-22.054688 0-40 17.945312-40 40v8h176v-8c0-22.054688-17.945312-40-40-40h-24v-83.648438c43.40625-27.679687 72.246094-73.710937 78.632812-124.351562h13.855469c10.757813 0 19.511719 8.761719 19.511719 19.511719 0 5.625-2.425781 10.976562-6.664062 14.679687l-49.144532 43c-5.199218 4.570313-8.191406 11.144532-8.191406 18.808594 0 13.230469 10.769531 24 24 24s24-10.769531 24-24v-8h-16v8c0 4.414062-3.59375 8-8 8s-8-3.585938-8-8.742188c0-2.304687 1-4.496093 2.734375-6.019531l49.136719-43c7.703125-6.734375 12.128906-16.476562 12.128906-26.726562 0-19.582031-15.9375-35.511719-35.511719-35.511719h-12.664062c.054687-1.769531.175781-3.519531.175781-5.296875v-10.703125h-208v10.703125c0 1.777344.121094 3.527344.175781 5.296875h-12.664062c-19.574219 0-35.511719 15.929688-35.511719 35.511719 0 10.242187 4.425781 19.984375 12.128906 26.726562zm161.367187 150.761719h-141.265624c3.304687-9.3125 12.199218-16 22.632812-16h96c10.433594 0 19.328125 6.6875 22.632812 16zm-78.632812-32v-80h16v80zm95.910156-224c-.183594 5.382812-.71875 10.710938-1.453125 16h-22.457031v16h19.375c-9.75 39.375-34.542969 74.273438-69.613281 96h-27.503907c-35.082031-21.726562-59.875-56.625-69.617187-96h131.359375v-16h-134.457031c-.734375-5.289062-1.269531-10.617188-1.453125-16zm0 0"/><path d="m80 152v20.6875l-14.632812-14.625-11.3125 11.3125 14.632812 14.625h-20.6875v16h20.6875l-14.632812 14.625 11.3125 11.3125 14.632812-14.625v20.6875h16v-20.6875l14.632812 14.625 11.3125-11.3125-14.632812-14.625h20.6875v-16h-20.6875l14.632812-14.625-11.3125-11.3125-14.632812 14.625v-20.6875zm14.625 24 9.375 9.375v13.25l-9.375 9.375h-13.25l-9.375-9.375v-13.25l9.375-9.375zm0 0"/><path d="m475.3125 88 14.632812-14.625-11.3125-11.3125-14.632812 14.625v-20.6875h-16v20.6875l-14.632812-14.625-11.3125 11.3125 14.632812 14.625h-20.6875v16h20.6875l-14.632812 14.625 11.3125 11.3125 14.632812-14.625v20.6875h16v-20.6875l14.632812 14.625 11.3125-11.3125-14.632812-14.625h20.6875v-16zm-3.3125 1.375v13.25l-9.375 9.375h-13.25l-9.375-9.375v-13.25l9.375-9.375h13.25zm0 0"/><path d="m368 168h16v16h-16zm0 0"/><path d="m352 184h16v16h-16zm0 0"/><path d="m368 200h16v16h-16zm0 0"/><path d="m384 184h16v16h-16zm0 0"/><path d="m48 0h16v16h-16zm0 0"/><path d="m32 16h16v16h-16zm0 0"/><path d="m48 32h16v16h-16zm0 0"/><path d="m64 16h16v16h-16zm0 0"/></svg>