<svg height="496pt" viewBox="0 0 496 496" width="496pt" xmlns="http://www.w3.org/2000/svg"><path d="m8 80h16v37.785156l-24 40v122.214844c0 8.824219 7.175781 16 16 16 9.039062 0 17.296875-3.128906 24-8.207031v32.207031c0 13.230469 10.769531 24 24 24 3.160156 0 6.160156-.648438 8.929688-1.761719 2.757812 10.203125 12.007812 17.761719 23.070312 17.761719s20.3125-7.558594 23.070312-17.761719c2.769532 1.113281 5.769532 1.761719 8.929688 1.761719 11.0625 0 20.3125-7.558594 23.070312-17.761719 2.769532 1.113281 5.769532 1.761719 8.929688 1.761719 13.230469 0 24-10.769531 24-24v-137.296875l-16-48v-38.703125h16v-80h-176zm160 89.296875v134.703125c0 4.40625-3.59375 8-8 8s-8-3.59375-8-8v-96h-16v112c0 4.40625-3.59375 8-8 8s-8-3.59375-8-8v-112h-16v128c0 4.40625-3.59375 8-8 8s-8-3.59375-8-8v-128h-16v112c0 4.40625-3.59375 8-8 8s-8-3.59375-8-8v-116.6875l8.070312-8.074219c10.273438-10.269531 15.929688-23.925781 15.929688-38.445312v-20.792969h-16v20.792969c0 10.246093-3.992188 19.886719-11.238281 27.136719l-12.761719 12.757812v59.3125c0 13.230469-10.769531 24-24 24v-117.785156l24-40v-42.214844h112v41.296875zm0-153.296875v16h-32v16h32v16h-144v-16h96v-16h-96v-16zm0 0"/><path d="m463.34375 289.078125 12.242188-17.140625-43.53125-43.53125-17.144532 12.242188c-9.070312-5.144532-18.679687-9.136719-28.679687-11.90625l-3.453125-20.742188h-61.554688l-3.453125 20.753906c-10 2.773438-19.609375 6.757813-28.679687 11.902344l-17.144532-12.242188-43.53125 43.53125 12.242188 17.144532c-5.144531 9.070312-9.136719 18.679687-11.902344 28.679687l-20.753906 3.453125v61.554688l20.753906 3.453125c2.773438 10 6.757813 19.609375 11.902344 28.679687l-12.242188 17.144532 43.53125 43.53125 17.144532-12.242188c9.070312 5.144531 18.679687 9.136719 28.679687 11.902344l3.453125 20.753906h61.554688l3.453125-20.753906c10-2.773438 19.609375-6.757813 28.679687-11.902344l17.144532 12.242188 43.53125-43.53125-12.242188-17.144532c5.144531-9.070312 9.136719-18.679687 11.902344-28.679687l20.753906-3.453125v-61.554688l-20.753906-3.453125c-2.765625-10-6.757813-19.609375-11.902344-28.691406zm16.65625 80.144531-17.800781 2.96875-1.207031 5.199219c-2.761719 11.90625-7.464844 23.242187-13.984376 33.6875l-2.832031 4.539063 10.503907 14.710937-24.351563 24.351563-14.710937-10.503907-4.539063 2.832031c-10.453125 6.519532-21.789063 11.222657-33.6875 13.984376l-5.199219 1.207031-2.96875 17.800781h-34.445312l-2.96875-17.800781-5.199219-1.207031c-11.90625-2.761719-23.242187-7.464844-33.6875-13.984376l-4.539063-2.832031-14.710937 10.503907-24.351563-24.351563 10.503907-14.710937-2.832031-4.539063c-6.519532-10.453125-11.222657-21.789063-13.984376-33.6875l-1.207031-5.199219-17.800781-2.96875v-34.445312l17.800781-2.96875 1.207031-5.199219c2.761719-11.90625 7.464844-23.242187 13.984376-33.6875l2.832031-4.539063-10.503907-14.710937 24.351563-24.351563 14.710937 10.503907 4.539063-2.832031c10.453125-6.519532 21.789063-11.222657 33.6875-13.984376l5.199219-1.207031 2.96875-17.800781h34.445312l2.96875 17.800781 5.199219 1.207031c11.90625 2.761719 23.242187 7.464844 33.6875 13.984376l4.539063 2.832031 14.710937-10.503907 24.351563 24.351563-10.503907 14.710937 2.832031 4.539063c6.519532 10.453125 11.222657 21.789063 13.984376 33.6875l1.207031 5.199219 17.800781 2.96875zm0 0"/><path d="m352 256c-52.9375 0-96 43.0625-96 96s43.0625 96 96 96 96-43.0625 96-96-43.0625-96-96-96zm0 176c-44.113281 0-80-35.886719-80-80s35.886719-80 80-80 80 35.886719 80 80-35.886719 80-80 80zm0 0"/><path d="m352 400c-26.472656 0-48-21.527344-48-48 0-10.382812 3.320312-20.3125 9.601562-28.695312l-12.808593-9.59375c-8.367188 11.175781-12.792969 24.417968-12.792969 38.289062 0 35.289062 28.710938 64 64 64 13.871094 0 27.113281-4.425781 38.289062-12.792969l-9.59375-12.808593c-8.382812 6.28125-18.3125 9.601562-28.695312 9.601562zm0 0"/><path d="m352 288c-13.871094 0-27.113281 4.425781-38.289062 12.792969l9.59375 12.808593c8.382812-6.28125 18.3125-9.601562 28.695312-9.601562 26.472656 0 48 21.527344 48 48 0 10.382812-3.320312 20.3125-9.601562 28.695312l12.808593 9.59375c8.367188-11.175781 12.792969-24.417968 12.792969-38.289062 0-35.289062-28.710938-64-64-64zm0 0"/><path d="m413.710938 24c-5.0625-13.953125-18.320313-24-34-24-9.6875 0-18.808594 3.777344-25.65625 10.632812l-2.054688 2.054688-2.054688-2.054688c-6.855468-6.855468-15.96875-10.632812-25.65625-10.632812-15.679687 0-28.9375 10.046875-34 24h-82.289062v144h116.6875l27.3125 27.3125 27.3125-27.3125h116.6875v-144zm-89.421876-8c5.414063 0 10.511719 2.113281 14.34375 5.945312l13.367188 13.367188 13.367188-13.367188c3.832031-3.832031 8.929687-5.945312 14.34375-5.945312 11.183593 0 20.289062 9.105469 20.289062 20.289062 0 5.414063-2.113281 10.511719-5.945312 14.34375l-42.054688 42.054688-42.054688-42.054688c-3.832031-3.832031-5.945312-8.929687-5.945312-14.34375 0-11.183593 9.105469-20.289062 20.289062-20.289062zm155.710938 136h-107.3125l-20.6875 20.6875-20.6875-20.6875h-107.3125v-112h64.359375c.847656 8.273438 4.304687 15.984375 10.265625 21.945312l53.375 53.367188 53.367188-53.367188c5.96875-5.960937 9.425781-13.671874 10.273437-21.945312h64.359375zm0 0"/><path d="m240 120h16v16h-16zm0 0"/><path d="m272 120h16v16h-16zm0 0"/><path d="m304 120h16v16h-16zm0 0"/><path d="m384 120h16v16h-16zm0 0"/><path d="m416 120h16v16h-16zm0 0"/><path d="m448 120h16v16h-16zm0 0"/><path d="m24 480h16v16h-16zm0 0"/><path d="m24 400h16v64h-16zm0 0"/><path d="m88 480h16v16h-16zm0 0"/><path d="m88 400h16v64h-16zm0 0"/><path d="m56 376h16v112h-16zm0 0"/><path d="m152 480h16v16h-16zm0 0"/><path d="m152 400h16v64h-16zm0 0"/><path d="m120 376h16v112h-16zm0 0"/></svg>