<svg height="496pt" viewBox="0 0 496 496" width="496pt" xmlns="http://www.w3.org/2000/svg"><path d="m195.496094 153.496094-51.496094-15.449219v-12.152344c14.488281-10.132812 24-26.910156 24-45.886719v-30.121093c0-13.621094-7.328125-25.917969-19.207031-32.40625l-1.882813-1.878907c-10.0625-10.066406-23.429687-15.601562-37.652344-15.601562-29.371093 0-53.257812 23.886719-53.257812 53.257812v26.742188c0 18.984375 9.511719 35.761719 24 45.886719v12.152343l-51.496094 15.449219c-17.046875 5.121094-28.503906 20.519531-28.503906 38.320313v72.191406h60.457031c-2.847656 6.519531-4.457031 13.695312-4.457031 21.257812v18.742188c0 19.753906-7.6875 38.320312-21.65625 52.289062l-5.65625 5.65625 5.65625 5.65625c4.679688 4.679688 9.992188 8.488282 15.710938 11.429688l-21.542969 6.464844c-17.054688 5.113281-28.511719 20.511718-28.511719 38.3125v72.191406h224v-72.191406c0-17.800782-11.457031-33.199219-28.503906-38.3125l-24.0625-7.214844c6.6875-3.066406 12.863281-7.265625 18.222656-12.625l5.65625-5.65625-5.65625-5.65625c-13.96875-13.96875-21.65625-32.535156-21.65625-52.289062v-20.167969c0-6.421875-1.679688-12.519531-4.648438-17.886719h60.648438v-72.191406c0-17.800782-11.457031-33.199219-28.503906-38.3125zm-86.238282-137.496094c9.949219 0 19.308594 3.871094 26.34375 10.910156l3.664063 3.664063 1.160156.585937c6.558594 3.28125 10.664063 9.640625 11.308594 16.839844h-36.421875c-5.082031 0-10.066406-2.0625-13.65625-5.65625l-5.65625-5.65625-5.65625 5.65625c-3.589844 3.59375-8.574219 5.65625-13.65625 5.65625h-4.160156c2.585937-18.039062 17.984375-32 36.730468-32zm-37.257812 64v-16h4.6875c6.96875 0 13.625-2 19.3125-5.734375 5.6875 3.734375 12.34375 5.734375 19.3125 5.734375h36.6875v16c0 22.054688-17.945312 40-40 40s-40-17.945312-40-40zm40 56c5.558594 0 10.929688-.839844 16-2.359375v7.046875l-16 16-16-16v-7.046875c5.070312 1.519531 10.441406 2.359375 16 2.359375zm16 236.6875-16 16-16-16v-7.046875c5.070312 1.519531 10.441406 2.359375 16 2.359375s10.929688-.839844 16-2.359375zm-16-20.6875c-22.054688 0-40-17.945312-40-40v-8h20.6875c6.96875 0 13.625-2 19.3125-5.734375 5.6875 3.734375 12.34375 5.734375 19.3125 5.734375h20.6875v8c0 22.054688-17.945312 40-40 40zm40-64h-20.6875c-5.082031 0-10.066406-2.0625-13.65625-5.65625l-5.65625-5.65625-5.65625 5.65625c-3.589844 3.59375-8.574219 5.65625-13.65625 5.65625h-20.6875v-2.742188c0-20.546874 16.710938-37.257812 37.257812-37.257812 9.949219 0 19.308594 3.871094 26.34375 10.910156l3.664063 3.664063 1.160156.585937c7.132813 3.566406 11.574219 10.742188 11.574219 18.726563zm-87.886719 52.878906c4.0625 6.722656 9.472657 12.527344 15.886719 17.015625v12.050781h-1.367188c-9.890624 0-19.304687-3.058593-27.167968-8.722656 5.160156-6.238281 9.375-13.085937 12.648437-20.34375zm143.886719 82.929688v56.191406h-32v-56h-16v56h-96v-56h-16v56h-32v-56.191406c0-10.679688 6.871094-19.921875 17.105469-22.984375l49.597656-14.878907h3.921875l25.375 25.367188 26.28125-26.28125 52.621094 15.792969c10.226562 3.0625 17.097656 12.304687 17.097656 22.984375zm-35.464844-64.527344c-7.863281 5.664062-17.277344 8.71875-27.167968 8.71875h-1.367188v-10.113281c6.679688-4.671875 12.273438-10.765625 16.390625-17.832031 3.195313 6.847656 7.25 13.304687 12.144531 19.226562zm35.464844-111.28125h-32v-56h-16v56h-12.6875l-.402344-.398438c-10.0625-10.066406-23.429687-15.601562-37.652344-15.601562-14.875 0-28.320312 6.144531-37.984374 16h-7.273438v-56h-16v56h-32v-56.191406c0-10.679688 6.871094-19.921875 17.105469-22.984375l52.613281-15.785157 26.28125 26.273438 26.28125-26.28125 52.621094 15.792969c10.226562 3.0625 17.097656 12.304687 17.097656 22.984375zm0 0"/><path d="m472 136c4.382812 0 8.6875.910156 12.800781 2.703125l11.199219 4.898437v-71.601562c0-8.824219-7.175781-16-16-16h-56.671875c.519531-3.0625.742187-6.167969.65625-9.3125-.710937-25.800781-23.222656-47.101562-48.921875-46.6796875-25.949219.4960935-47.0625 22.0234375-47.0625 47.9921875 0 2.695312.222656 5.359375.671875 8h-56.671875c-8.824219 0-16 7.175781-16 16v63.601562l11.199219-4.898437c4.375-1.917969 8.945312-2.832031 13.664062-2.695313 17.199219.472657 31.457031 15.40625 31.121094 32.625-.320313 17.296876-14.671875 31.367188-31.984375 31.367188-4.382812 0-8.6875-.910156-12.800781-2.703125l-11.199219-4.898437v79.601562c0 8.824219 7.175781 16 16 16h8v77.441406c0 9.199219 3.207031 18.191406 9.03125 25.320313l17.554688 21.460937c3.484374 4.273438 5.414062 9.671875 5.414062 15.191406v28.585938h-16v48h160v-48h-16v-28.480469c0-5.160156 1.703125-10.273437 4.800781-14.398437l11.199219-14.9375c5.160156-6.878906 8-15.398438 8-24v-86.183594h16c8.824219 0 16-7.175781 16-16v-71.601562l-11.199219 4.898437c-4.386719 1.910156-8.960937 2.808594-13.664062 2.695313-17.199219-.472657-31.457031-15.40625-31.121094-32.625.320313-17.296876 14.671875-31.367188 31.984375-31.367188zm-32 344h-128v-16h128zm3.199219-99.40625-11.199219 14.933594c-5.160156 6.878906-8 15.402344-8 24v28.472656h-96v-28.585938c0-9.199218-3.207031-18.191406-9.03125-25.316406l-17.554688-21.464844c-3.484374-4.28125-5.414062-9.671874-5.414062-15.191406v-84.929687c6.246094-.160157 12.382812 2.242187 16.945312 6.695312 4.550782 4.457031 7.054688 10.425781 7.054688 16.792969v40h16v-136.855469c0-4.304687 2.894531-8.144531 6.601562-8.746093 2.445313-.382813 4.757813.242187 6.574219 1.785156 1.800781 1.527344 2.824219 3.753906 2.824219 6.105468v113.710938h16v-113.710938c0-2.351562 1.023438-4.578124 2.824219-6.105468 1.816406-1.550782 4.136719-2.183594 6.582031-1.785156 3.699219.601562 6.59375 4.441406 6.59375 8.746093v112.855469h16v-112.855469c0-2.351562 1.023438-4.578125 2.824219-6.105469 1.816406-1.542968 4.136719-2.175781 6.574219-1.78125 3.707031.605469 6.601562 4.445313 6.601562 8.742188v112h16v-64.023438c0-2.710937 1.367188-5.464843 3.574219-7.175781 1.363281-1.046875 3.617187-2.175781 6.523437-1.417969 3.414063.863282 5.902344 4.488282 5.902344 8.617188v118.183594c0 5.160156-1.703125 10.28125-4.800781 14.410156zm27.488281-164.609375c3.128906.078125 6.25-.136719 9.3125-.65625v48.671875h-16v-16c0-11.511719-7.382812-21.441406-17.953125-24.128906-4.71875-1.207032-9.597656-.910156-14.039063.777344v-24.648438c0-2.902344-.519531-5.703125-1.421874-8.328125 8.175781 14 23.167968 23.847656 40.101562 24.3125zm-46.679688-48.921875c-.128906 6.617188 1.199219 13 3.65625 18.867188-3.609374-5.425782-9.152343-9.394532-15.695312-10.457032-7.023438-1.160156-14.144531.816406-19.511719 5.382813-.03125.023437-.066406.054687-.105469.089843-3.359374-3.28125-7.632812-5.5625-12.382812-6.328124-6.992188-1.160157-14.136719.816406-19.511719 5.382812-.160156.128906-.3125.265625-.464843.398438-.152344-.132813-.304688-.269532-.464844-.398438-5.367188-4.566406-12.496094-6.519531-19.503906-5.390625-11.414063 1.855469-20.023438 12.398437-20.023438 24.535156v65.328125c-7.023438-5.226562-15.449219-8.046875-24.335938-7.960937-5.519531.113281-10.359374 3.105469-13.152343 7.488281h-10.511719v-56.671875c2.640625.449219 5.304688.671875 8 .671875 25.96875 0 47.496094-21.113281 47.992188-47.0625.496093-25.808594-20.878907-48.210938-46.679688-48.921875-3.144531-.085937-6.25.136719-9.3125.65625v-40.671875h79.601562l-4.898437-11.199219c-1.792969-4.113281-2.703125-8.417969-2.703125-12.800781 0-17.3125 14.070312-31.664062 31.367188-31.992188 17.578124-.289062 32.144531 13.921876 32.625 31.121094.128906 4.6875-.777344 9.285156-2.695313 13.664063l-4.898437 11.207031h79.601562v48.671875c-2.640625-.449219-5.304688-.671875-8-.671875-25.96875 0-47.496094 21.113281-47.992188 47.0625zm0 0"/></svg>