<svg height="496pt" viewBox="0 -8 496 496" width="496pt" xmlns="http://www.w3.org/2000/svg"><path d="m472.792969 411.824219-32.792969-9.359375v-14.289063c9.792969-8.792969 16-21.503906 16-35.679687v-16c0-26.472656-21.527344-48-48-48v-152h16v-48h-72v-28.648438l31.792969-11.351562-135.792969-48.496094-135.792969 48.496094 31.792969 11.351562v28.648438h-72v48h16v152c-26.472656 0-48 21.527344-48 48v16c0 14.167968 6.207031 26.878906 16 35.679687v14.296875l-32.792969 9.359375c-13.664062 3.894531-23.207031 16.550781-23.207031 30.769531v37.894532h496v-37.894532c0-14.21875-9.542969-26.875-23.207031-30.777343zm-48.792969-5.535157c-1.984375 3.0625-7.496094 10.207032-16 10.207032s-14.015625-7.144532-16-10.207032v-8.59375c5.015625 1.785157 10.382812 2.800782 16 2.800782s10.984375-1.023438 16-2.800782zm16-69.792968v16c0 17.648437-14.351562 32-32 32s-32-14.351563-32-32v-16c0-17.648438 14.351562-32 32-32s32 14.351562 32 32zm-200-242.367188v31.269532l-48-16v-32.40625zm16 0 80-28.570312v33.167968l-80 26.671876zm-8-77.136718 88.207031 31.503906-88.207031 31.503906-42.289062-15.105469 45.097656-16.910156-5.625-14.984375-62.816406 23.558594-22.574219-8.0625zm-72 54.28125v32.789062l-16-5.335938v-33.167968zm-72 65.222656h16v32h16v-48h-48v-16h56v5.769531l32 10.664063v33.039062c-9.289062 3.3125-16 12.109375-16 22.527344v40h48v-40c0-10.417969-6.710938-19.214844-16-22.527344v-27.710938l56 18.664063 104-34.664063v-5.761718h56v16h-48v48h16v-32h16v154.800781c-18.617188 6.605469-32 24.34375-32 45.199219v16c0 14.167968 6.207031 26.878906 16 35.679687v14.296875l-32.792969 9.359375c-6.0625 1.734375-11.238281 5.257813-15.207031 9.808594-3.96875-4.550781-9.144531-8.074219-15.207031-9.808594l-32.792969-9.367187v-14.289063c9.792969-8.792969 16-21.503906 16-35.679687v-16c0-26.472656-21.527344-48-48-48s-48 21.527344-48 48v16c0 14.167968 6.207031 26.878906 16 35.679687v14.296875l-32.792969 9.359375c-6.0625 1.734375-11.238281 5.257813-15.207031 9.808594-3.96875-4.550781-9.144531-8.074219-15.207031-9.808594l-32.792969-9.367187v-14.289063c9.792969-8.792969 16-21.503906 16-35.679687v-16c0-20.855469-13.382812-38.59375-32-45.199219zm88 40v24h-16v-24c0-4.417969 3.585938-8 8-8s8 3.582031 8 8zm128 288h-144v-21.894532c0-7.113281 4.777344-13.433593 11.601562-15.386718l32.957032-9.414063c4.640625 6.046875 13.671875 14.695313 27.441406 14.695313s22.800781-8.648438 27.441406-14.703125l32.957032 9.414062c6.832031 1.953125 11.601562 8.273438 11.601562 15.386719zm-72-80c-17.648438 0-32-14.351563-32-32v-16c0-17.648438 14.351562-32 32-32s32 14.351562 32 32v16c0 17.648437-14.351562 32-32 32zm0 16c5.617188 0 10.984375-1.023438 16-2.800782v8.59375c-1.984375 3.0625-7.496094 10.207032-16 10.207032s-14.015625-7.144532-16-10.207032v-8.59375c5.015625 1.777344 10.382812 2.800782 16 2.800782zm-192-64c0-17.648438 14.351562-32 32-32s32 14.351562 32 32v16c0 17.648437-14.351562 32-32 32s-32-14.351563-32-32zm32 64c5.617188 0 10.984375-1.023438 16-2.800782v8.59375c-1.984375 3.0625-7.496094 10.207032-16 10.207032s-14.015625-7.144532-16-10.207032v-8.59375c5.015625 1.777344 10.382812 2.800782 16 2.800782zm-72 42.105468c0-7.113281 4.777344-13.433593 11.601562-15.386718l32.957032-9.414063c4.640625 6.046875 13.671875 14.695313 27.441406 14.695313s22.800781-8.648438 27.441406-14.703125l32.957032 9.414062c6.832031 1.953125 11.601562 8.273438 11.601562 15.386719v21.902344h-144zm464 21.894532h-144v-21.894532c0-7.113281 4.777344-13.433593 11.601562-15.386718l32.957032-9.414063c4.640625 6.046875 13.671875 14.695313 27.441406 14.695313s22.800781-8.648438 27.441406-14.703125l32.957032 9.414062c6.832031 1.953125 11.601562 8.273438 11.601562 15.386719zm0 0"/><path d="m360 184.496094h16v16h-16zm0 0"/><path d="m360 216.496094h16v16h-16zm0 0"/><path d="m328 128.496094h16v136h-16zm0 0"/><path d="m296 144.496094h16v16h-16zm0 0"/><path d="m296 176.496094h16v16h-16zm0 0"/><path d="m296 208.496094h16v88h-16zm0 0"/><path d="m120 184.496094h16v16h-16zm0 0"/><path d="m120 216.496094h16v16h-16zm0 0"/><path d="m184 232.496094h16v64h-16zm0 0"/><path d="m152 232.496094h16v32h-16zm0 0"/><path d="m226.632812 282.480469 21.367188-5.160157 21.367188 5.167969 1.679687-21.914062 11.519531-18.726563-20.328125-8.367187-14.238281-16.746094-14.238281 16.738281-20.328125 8.367188 11.519531 18.726562zm16.800782-35.679688 4.566406-5.375 4.566406 5.375 6.511719 2.679688-3.695313 6.007812-.535156 7.023438-6.847656-1.664063-6.847656 1.664063-.535156-7.023438-3.695313-6.007812zm0 0"/><path d="m240 160.496094h16v16h-16zm0 0"/><path d="m240 192.496094h16v16h-16zm0 0"/></svg>