<svg height="496pt" viewBox="0 0 496 496" width="496pt" xmlns="http://www.w3.org/2000/svg"><path d="m192 32h16v16h-16zm0 0"/><path d="m262.222656 70.46875 11.3125-11.316406 11.316406 11.316406-11.316406 11.3125zm0 0"/><path d="m115.148438 70.460938 11.316406-11.3125 11.3125 11.3125-11.3125 11.3125zm0 0"/><path d="m448 384c8.824219 0 16-7.175781 16-16v-96h-16v96h-48v-18.878906c0-11.410156-8.121094-21.304688-19.289062-23.527344l-20.710938-4.144531v-17.695313c4.960938-6.664062 8-14.832031 8-23.753906h32v-50.878906c0-11.410156-8.121094-21.304688-19.289062-23.527344l-20.710938-4.144531v-17.695313c4.960938-6.664062 8-14.832031 8-23.753906v-16c0-22.054688-17.945312-40-40-40-4.976562 0-9.6875 1.023438-14.089844 2.695312-1.261718-3.886718-2.703125-7.6875-4.324218-11.359374l19.855468-25.535157-55.242187-55.242187-25.527344 19.855468c-1.863281-.828124-3.734375-1.613281-5.601563-2.335937l-4.007812-32.078125h-78.125l-4.007812 32.078125c-1.867188.722656-3.738282 1.507813-5.601563 2.335937l-25.527344-19.855468-55.25 55.242187 19.855469 25.535157c-1.621094 3.671874-3.0625 7.464843-4.328125 11.359374-4.390625-1.671874-9.101563-2.695312-14.078125-2.695312-22.054688 0-40 17.945312-40 40v16c0 8.929688 3.039062 17.089844 8 23.753906v17.695313l-20.703125 4.144531c-11.175781 2.222656-19.296875 12.117188-19.296875 23.527344v50.878906h32c0 9.039062 3.128906 17.296875 8.207031 24h-.207031v17.449219l-20.703125 4.144531c-11.175781 2.222656-19.296875 12.117188-19.296875 23.527344v146.878906h16v-112zm-323.289062-58.414062-20.710938-4.136719v-17.449219h-.207031c5.078125-6.703125 8.207031-14.960938 8.207031-24h48c0 8.929688 3.039062 17.089844 8 23.753906v17.695313l-20.703125 4.144531c-4.328125.855469-8.175781 2.886719-11.296875 5.695312-3.113281-2.808593-6.960938-4.839843-11.289062-5.703124zm-28.710938-45.585938c0 13.230469-10.769531 24-24 24s-24-10.769531-24-24v-16c0-13.230469 10.769531-24 24-24s24 10.769531 24 24zm80-120v-16c0-13.230469 10.769531-24 24-24s24 10.769531 24 24v16c0 13.230469-10.769531 24-24 24s-24-10.769531-24-24zm56 39.265625v-15.511719c4.960938-6.664062 8-14.832031 8-23.753906v-16c0-22.054688-17.945312-40-40-40s-40 17.945312-40 40v16c0 8.929688 3.039062 17.089844 8 23.753906v15.511719c-19.785156-11.441406-32-32.175781-32-55.265625 0-35.289062 28.710938-64 64-64s64 28.710938 64 64c0 23.078125-12.214844 43.824219-32 55.265625zm-48 15.285156v-17.941406c4.910156 2.160156 10.304688 3.390625 16 3.390625s11.089844-1.230469 16-3.390625v17.941406l33.574219 6.722657c3.722656.742187 6.425781 4.039062 6.425781 7.847656v34.878906h-16c0-22.054688-17.945312-40-40-40s-40 17.945312-40 40h-16v-34.878906c0-3.808594 2.703125-7.105469 6.433594-7.839844zm168 65.449219c0 13.230469-10.769531 24-24 24s-24-10.769531-24-24v-16c0-13.230469 10.769531-24 24-24s24 10.769531 24 24zm-56 23.753906v17.695313l-20.703125 4.144531c-4.328125.855469-8.175781 2.886719-11.296875 5.695312-3.121094-2.808593-6.960938-4.839843-11.289062-5.703124l-20.710938-4.136719v-17.695313c4.960938-6.664062 8-14.832031 8-23.753906h48c0 8.929688 3.039062 17.089844 8 23.753906zm-120-23.753906v-16c0-13.230469 10.769531-24 24-24s24 10.769531 24 24v16c0 13.230469-10.769531 24-24 24s-24-10.769531-24-24zm-25.566406 61.273438 33.566406-6.722657v-17.941406c4.910156 2.160156 10.304688 3.390625 16 3.390625s11.089844-1.230469 16-3.390625v17.941406l33.574219 6.722657c3.722656.742187 6.425781 4.039062 6.425781 7.847656v18.878906h-112v-18.878906c0-3.808594 2.703125-7.105469 6.433594-7.847656zm227.140625 0c3.722656.742187 6.425781 4.039062 6.425781 7.847656v18.878906h-112v-18.878906c0-3.808594 2.703125-7.105469 6.433594-7.839844l33.566406-6.730469v-17.941406c4.910156 2.160156 10.304688 3.390625 16 3.390625s11.089844-1.230469 16-3.390625v17.941406zm0-120c3.722656.742187 6.425781 4.039062 6.425781 7.847656v34.878906h-16c0-22.054688-17.945312-40-40-40s-40 17.945312-40 40h-16v-34.878906c0-3.808594 2.703125-7.105469 6.433594-7.839844l33.566406-6.730469v-17.941406c4.910156 2.160156 10.304688 3.390625 16 3.390625s11.089844-1.230469 16-3.390625v17.941406zm-25.574219-77.273438v16c0 13.230469-10.769531 24-24 24s-24-10.769531-24-24v-16c0-13.230469 10.769531-24 24-24s24 10.769531 24 24zm-260.152344-72.871094 35.273438-35.273437 22.222656 17.289062 4.496094-2.234375c4.3125-2.140625 8.671875-3.949218 12.953125-5.390625l4.765625-1.597656 3.503906-27.921875h49.875l3.496094 27.910156 4.765625 1.601563c4.28125 1.441406 8.640625 3.25 12.953125 5.390625l4.496094 2.234375 22.222656-17.289063 35.273437 35.273438-17.289062 22.222656 2.234375 4.503906c2.773437 5.585938 4.886718 11.625 6.644531 17.855469-7.238281 7.257813-11.734375 17.265625-11.734375 28.296875v16c0 8.929688 3.039062 17.089844 8 23.753906v17.695313l-20.703125 4.144531c-4.328125.855469-8.175781 2.886719-11.296875 5.695312-3.121094-2.808593-6.960938-4.839843-11.289062-5.703124l-1.488282-.296876c18.007813-14.976562 28.777344-37.097656 28.777344-61.289062 0-44.113281-35.886719-80-80-80s-80 35.886719-80 80c0 24.191406 10.769531 46.3125 28.777344 61.289062l-1.480469.296876c-4.328125.863281-8.175781 2.894531-11.296875 5.703124-3.121094-2.808593-6.960938-4.839843-11.289062-5.703124l-20.710938-4.136719v-17.695313c4.960938-6.664062 8-14.832031 8-23.753906v-16c0-11.03125-4.496094-21.039062-11.742188-28.28125 1.757813-6.230469 3.871094-12.269531 6.644532-17.855469l2.234375-4.503906zm-43.847656 72.871094c0-13.230469 10.769531-24 24-24s24 10.769531 24 24v16c0 13.230469-10.769531 24-24 24s-24-10.769531-24-24zm-32 120v-34.878906c0-3.808594 2.703125-7.105469 6.433594-7.839844l33.566406-6.730469v-17.941406c4.910156 2.160156 10.304688 3.390625 16 3.390625s11.089844-1.230469 16-3.390625v17.941406l33.574219 6.722657c3.722656.742187 6.425781 4.039062 6.425781 7.847656v34.878906h-16c0-22.054688-17.945312-40-40-40s-40 17.945312-40 40zm6.433594 77.273438 33.566406-6.722657v-17.941406c4.910156 2.160156 10.304688 3.390625 16 3.390625s11.089844-1.230469 16-3.390625v17.941406l33.574219 6.722657c3.722656.742187 6.425781 4.039062 6.425781 7.847656v18.878906h-112v-18.878906c0-3.808594 2.703125-7.105469 6.433594-7.847656zm0 0"/><path d="m448 240h16v16h-16zm0 0"/><path d="m448 208h16v16h-16zm0 0"/><path d="m448 176h16v16h-16zm0 0"/><path d="m456 40h-48v-31.542969l-77.769531 55.542969 77.769531 55.542969v-31.542969h40v72h16v-72c0-8.824219-7.175781-16-16-16h-56v16.457031l-34.230469-24.457031 34.230469-24.457031v16.457031h64c13.230469 0 24 10.769531 24 24v296c0 13.230469-10.769531 24-24 24h-424v64h16v-48h408c22.054688 0 40-17.945312 40-40v-296c0-22.054688-17.945312-40-40-40zm0 0"/><path d="m32 480h16v16h-16zm0 0"/><path d="m312 432h16v16h-16zm0 0"/><path d="m64 432h232v16h-232zm0 0"/><path d="m344 432h16v16h-16zm0 0"/><path d="m376 432h16v16h-16zm0 0"/><path d="m64 464h328v16h-328zm0 0"/></svg>