<svg height="496pt" viewBox="0 0 496 496" width="496pt" xmlns="http://www.w3.org/2000/svg"><path d="m475.808594 77.398438c-1.511719-4.78125-3.441406-9.414063-5.746094-13.847657l11.433594-17.144531-31.894532-31.894531-17.144531 11.433593c-4.441406-2.304687-9.074219-4.226562-13.847656-5.746093l-4.058594-20.199219h-45.109375l-4.050781 20.191406c-4.78125 1.511719-9.414063 3.441406-13.847656 5.746094l-17.144531-11.433594-31.894532 31.894532 11.433594 17.144531c-1.425781 2.738281-2.648438 5.578125-3.769531 8.457031h-22.167969v16h58.664062l32-24h26.910157l18.425781 12.28125v3.71875h-40v48h40v3.71875l-18.425781 12.28125h-26.910157l-32-24h-59.550781c-10.105469-9.878906-23.90625-16-39.113281-16s-29.007812 6.121094-39.113281 16h-59.550781l-32 24h-26.910157l-18.425781-12.28125v-3.71875h40v-48h-40v-3.71875l18.425781-12.28125h26.910157l32 24h58.664062v-16h-22.167969c-1.128906-2.878906-2.351562-5.71875-3.769531-8.457031l11.433594-17.144531-31.894532-31.894532-17.144531 11.433594c-4.441406-2.304688-9.074219-4.226562-13.847656-5.746094l-4.058594-20.191406h-45.109375l-4.050781 20.191406c-4.78125 1.511719-9.414063 3.441406-13.847656 5.746094l-17.136719-11.433594-31.902344 31.902344 11.433594 17.144531c-2.304688 4.441407-4.226562 9.074219-5.746094 13.847657l-20.191406 4.050781v45.109375l20.191406 4.050781c1.511719 4.78125 3.441406 9.414063 5.746094 13.847656l-11.433594 17.144531 31.902344 31.894532 17.136719-11.433594c4.441406 2.304688 9.074219 4.226562 13.847656 5.746094l4.058594 20.191406h45.109375l4.050781-20.191406c4.78125-1.511719 9.414063-3.441406 13.847656-5.746094l17.144531 11.433594 30.398438-30.40625v20.910156c0 18.3125 9.089844 35.496094 24 45.902344v12.144531l-30.023438 9.007813c-10.273437-11.65625-25.265624-19.054688-41.976562-19.054688-30.871094 0-56 25.128906-56 56v24c0 18.3125 9.089844 35.496094 24 45.902344v12.144531l-51.496094 15.449219c-17.046875 5.113281-28.503906 20.511718-28.503906 38.320312v72.183594h432v-72.183594c0-17.808594-11.457031-33.199218-28.503906-38.320312l-51.496094-15.449219v-12.144531c14.910156-10.414063 24-27.589844 24-45.902344v-24c0-30.871094-25.128906-56-56-56-16.710938 0-31.703125 7.398438-41.976562 19.054688l-30.023438-9.007813v-12.144531c14.910156-10.414063 24-27.589844 24-45.902344v-20.910156l30.40625 30.40625 17.144531-11.433594c4.441407 2.304688 9.074219 4.226562 13.847657 5.746094l4.050781 20.191406h45.109375l4.050781-20.191406c4.78125-1.511719 9.414063-3.441406 13.847656-5.746094l17.144531 11.433594 31.894532-31.894532-11.433594-17.144531c2.304688-4.441406 4.226562-9.074219 5.746094-13.847656l20.191406-4.058594v-45.109375zm-227.808594 42.601562c19.3125 0 35.472656 13.769531 39.191406 32h-21.304687c-10.460938 0-20.941407-2.480469-30.3125-7.160156l-5.160157-2.574219-4.078124 4.078125c-3.640626 3.648438-8.496094 5.65625-13.648438 5.65625h-3.878906c3.71875-18.230469 19.878906-32 39.191406-32zm-88.457031 52.894531-14.488281-9.648437-4.328126 2.578125c-5.894531 3.511719-12.285156 6.167969-18.992187 7.871093l-4.886719 1.242188-3.398437 17.0625h-18.890625l-3.40625-17.054688-4.886719-1.242187c-6.707031-1.710937-13.097656-4.359375-19-7.871094l-4.335937-2.574219-14.480469 9.644532-13.34375-13.351563 9.648437-14.488281-2.578125-4.328125c-3.511719-5.894531-6.167969-12.285156-7.871093-18.992187l-1.242188-4.886719-17.0625-3.40625v-18.890625l17.054688-3.40625 1.242187-4.886719c1.710937-6.707031 4.359375-13.097656 7.871094-18.992187l2.574219-4.328126-9.636719-14.488281 13.351562-13.351562 14.488281 9.648437 4.328126-2.578125c5.894531-3.511719 12.285156-6.167969 18.992187-7.871093l4.886719-1.242188 3.398437-17.0625h18.890625l3.40625 17.054688 4.886719 1.242187c6.707031 1.710937 13.097656 4.359375 18.992187 7.871094l4.328126 2.574219 14.488281-9.644532 13.351562 13.351563-9.648437 14.488281 2.585937 4.335938c.902344 1.519531 1.664063 3.132812 2.457031 4.726562h-13.625l-32-24h-37.089843l-29.574219 19.71875v28.28125h40v16h-40v28.28125l29.574219 19.71875h37.089843l32-24h13.625c-.792968 1.59375-1.546874 3.207031-2.457031 4.726562l-2.585937 4.335938 9.648437 14.488281zm26.289062-36.894531h11.648438c-3.390625 7.113281-5.359375 15.03125-5.449219 23.398438l-9.96875-14.949219c1.425781-2.730469 2.648438-5.570313 3.769531-8.449219zm-41.832031 112c19.3125 0 35.472656 13.769531 39.191406 32h-21.304687c-10.460938 0-20.941407-2.480469-30.3125-7.160156l-5.160157-2.574219-4.078124 4.078125c-3.640626 3.648438-8.496094 5.65625-13.648438 5.65625h-3.878906c3.71875-18.230469 19.878906-32 39.191406-32zm-40 64v-16h4.6875c7.496094 0 14.625-2.320312 20.585938-6.609375 10.285156 4.335937 21.460937 6.609375 32.613281 6.609375h22.113281v16c0 14.199219-7.664062 27.464844-20.007812 34.601562l-3.992188 2.308594v22.808594l-16 10.664062-16-10.664062v-22.808594l-3.992188-2.308594c-12.34375-7.136718-20.007812-20.402343-20.007812-34.601562zm136 168h-192v-56.183594c0-10.6875 6.871094-19.921875 17.105469-22.992187l53.589843-16.070313 25.304688 16.863282 25.304688-16.875 53.589843 16.074218c10.234375 3.070313 17.105469 12.3125 17.105469 23zm190.894531-79.175781c10.234375 3.0625 17.105469 12.304687 17.105469 22.992187v56.183594h-192v-56.183594c0-10.6875 6.871094-19.921875 17.105469-22.992187l53.589843-16.070313 25.304688 16.863282 25.304688-16.875zm-58.902343-54.222657-3.992188 2.308594v22.808594l-16 10.664062-16-10.664062v-22.808594l-3.992188-2.308594c-12.34375-7.136718-20.007812-20.402343-20.007812-34.601562v-16h4.6875c7.496094 0 14.625-2.320312 20.585938-6.609375 10.285156 4.335937 21.460937 6.609375 32.613281 6.609375h22.113281v16c0 14.199219-7.664062 27.464844-20.007812 34.601562zm-19.992188-98.601562c19.3125 0 35.472656 13.769531 39.191406 32h-21.304687c-10.460938 0-20.941407-2.480469-30.3125-7.160156l-5.160157-2.574219-4.078124 4.078125c-3.640626 3.648438-8.496094 5.65625-13.648438 5.65625h-3.878906c3.71875-18.230469 19.878906-32 39.191406-32zm-51.023438 17.046875c-3.167968 7.015625-4.976562 14.769531-4.976562 22.953125v24c0 18.3125 9.089844 35.496094 24 45.902344v12.144531l-51.496094 15.449219c-8.449218 2.535156-15.519531 7.59375-20.503906 14.207031-4.984375-6.613281-12.0625-11.671875-20.503906-14.207031l-51.496094-15.449219v-12.144531c14.910156-10.414063 24-27.589844 24-45.902344v-24c0-8.183594-1.808594-15.9375-4.976562-22.953125l27.671874-8.304687 25.304688 16.875 25.304688-16.875zm-32.984374-46.445313-3.992188 2.308594v22.808594l-16 10.664062-16-10.664062v-22.808594l-3.992188-2.308594c-12.34375-7.136718-20.007812-20.402343-20.007812-34.601562v-16h4.6875c7.496094 0 14.625-2.320312 20.585938-6.609375 10.285156 4.335937 21.460937 6.609375 32.613281 6.609375h22.113281v16c0 14.199219-7.664062 27.464844-20.007812 34.601562zm35.976562-59.203124c-.089844-8.375-2.058594-16.285157-5.449219-23.398438h11.648438c1.128906 2.878906 2.351562 5.71875 3.769531 8.457031zm176.03125-45.949219-17.054688 3.40625-1.242187 4.886719c-1.710937 6.707031-4.359375 13.097656-7.871094 18.992187l-2.574219 4.328125 9.644532 14.488281-13.351563 13.351563-14.488281-9.644532-4.328125 2.574219c-5.894531 3.511719-12.285156 6.167969-18.992187 7.871094l-4.886719 1.242187-3.40625 17.054688h-18.890625l-3.40625-17.054688-4.886719-1.242187c-6.707031-1.710937-13.097656-4.359375-18.992187-7.871094l-4.328126-2.574219-14.488281 9.644532-13.351562-13.351563 9.648437-14.488281-2.585937-4.335938c-.902344-1.519531-1.664063-3.132812-2.457031-4.726562h13.625l32 24h37.089843l29.574219-19.71875v-28.28125h-40v-16h40v-28.28125l-29.574219-19.71875h-37.089843l-32 24h-13.625c.792968-1.59375 1.546874-3.207031 2.457031-4.726562l2.585937-4.335938-9.648437-14.488281 13.351562-13.351563 14.488281 9.644532 4.328126-2.574219c5.894531-3.511719 12.285156-6.167969 18.992187-7.871094l4.886719-1.242187 3.398437-17.054688h18.890625l3.40625 17.054688 4.886719 1.242187c6.707031 1.710937 13.097656 4.359375 18.992187 7.871094l4.328126 2.574219 14.488281-9.644532 13.351562 13.351563-9.648437 14.488281 2.578125 4.328125c3.511719 5.894531 6.167969 12.285156 7.871093 18.992187l1.242188 4.886719 17.0625 3.40625zm0 0"/><path d="m256 72h16v16h-16zm0 0"/><path d="m224 72h16v16h-16zm0 0"/><path d="m48 320h16v16h-16zm0 0"/><path d="m32 336h16v16h-16zm0 0"/><path d="m48 352h16v16h-16zm0 0"/><path d="m64 336h16v16h-16zm0 0"/><path d="m16 224h16v16h-16zm0 0"/><path d="m0 240h16v16h-16zm0 0"/><path d="m16 256h16v16h-16zm0 0"/><path d="m32 240h16v16h-16zm0 0"/><path d="m432 320h16v16h-16zm0 0"/><path d="m448 336h16v16h-16zm0 0"/><path d="m432 352h16v16h-16zm0 0"/><path d="m416 336h16v16h-16zm0 0"/><path d="m464 224h16v16h-16zm0 0"/><path d="m480 240h16v16h-16zm0 0"/><path d="m464 256h16v16h-16zm0 0"/><path d="m448 240h16v16h-16zm0 0"/></svg>