<svg height="496pt" viewBox="0 0 496 496" width="496pt" xmlns="http://www.w3.org/2000/svg"><path d="m468 144h-160.695312l54.863281-32h105.832031c15.441406 0 28-12.558594 28-28s-12.558594-28-28-28h-115.136719c-7.238281 0-14.359375 1.96875-20.582031 5.695312l-70.527344 42.320313-69.753906.558594v-56.574219c0-13.230469-10.769531-24-24-24s-24 10.769531-24 24v60.257812l-16 13.335938v-54.304688c0-3.289062-.65625-6.472656-1.945312-9.457031l-19.125-44.640625c-3.433594-8.015625-11.289063-13.191406-20.007813-13.191406h-1.160156c-11.992188 0-21.761719 9.769531-21.761719 21.769531 0 2.320313.367188 4.613281 1.121094 6.886719l14.878906 44.640625v33.503906c-5.015625-1.777343-10.382812-2.800781-16-2.800781h-16c-26.472656 0-48 21.527344-48 48s21.527344 48 48 48h10.808594c-1.746094 3.648438-2.808594 7.6875-2.808594 12v144.921875c0 3.054687.566406 6.046875 1.710938 8.910156l14.289062 35.703125v94.464844h144v-94.464844l14.296875-35.71875c1.136719-2.847656 1.703125-5.839844 1.703125-8.894531v-144.921875c0-4.3125-1.0625-8.351562-2.808594-12h37.617188c-1.746094 3.648438-2.808594 7.6875-2.808594 12v144.921875c0 3.054687.566406 6.046875 1.710938 8.910156l14.289062 35.703125v94.464844h144v-94.464844l14.296875-35.71875c1.136719-2.847656 1.703125-5.839844 1.703125-8.894531v-144.921875c0-4.3125-1.0625-8.351562-2.808594-12h30.808594c15.441406 0 28-12.558594 28-28s-12.558594-28-28-28zm-127.496094-68.574219c3.742188-2.242187 8.015625-3.425781 12.359375-3.425781h115.136719c6.617188 0 12 5.382812 12 12s-5.382812 12-12 12h-110.167969l-82.289062 48h-3.542969v-27.472656zm-180.503906 40.316407v-67.742188c0-4.40625 3.585938-8 8-8s8 3.59375 8 8v72.640625c0 2.335937-1.015625 4.550781-2.792969 6.070313l-45.824219 39.273437c-1.511718 1.304687-3.4375 2.015625-5.429687 2.015625h-1.609375c-4.601562 0-8.34375-3.742188-8.34375-8.34375 0-2.488281 1.097656-4.824219 3.007812-6.417969zm-76 84.257812c6.617188 0 12 5.382812 12 12v68h-24v-68c0-6.617188 5.382812-12 12-12zm60 152c-17.648438 0-32-14.351562-32-32v-16c0-17.648438 14.351562-32 32-32s32 14.351562 32 32v16c0 17.648438-14.351562 32-32 32zm13.183594 14.113281c-2.207032 5.222657-6.136719 9.886719-13.183594 9.886719s-10.976562-4.664062-13.183594-9.886719c4.199219 1.207031 8.609375 1.886719 13.183594 1.886719s8.984375-.679688 13.183594-1.886719zm18.816406-154.113281v56.320312c-8.503906-7.632812-19.695312-12.320312-32-12.320312s-23.496094 4.6875-32 12.320312v-56.320312c0-10.886719-6.3125-20.238281-15.398438-24.863281.292969-.28125.613282-.535157.902344-.824219 15.617188 8.960938 33.222656 13.6875 51.335938 13.6875h29.96875c-1.746094 3.648438-2.808594 7.6875-2.808594 12zm-95.695312-188.367188c-.199219-.625-.304688-1.25-.304688-1.863281 0-3.183593 2.585938-5.769531 5.769531-5.769531h1.160157c2.308593 0 4.390624 1.367188 5.300781 3.496094l19.136719 44.65625c.417968.984375.632812 2.039062.632812 3.136718v67.632813l-2.449219 2.039063c-2.65625-8.03125-7.390625-15.105469-13.550781-20.640626v-45.617187zm-64.304688 128.367188c0-17.648438 14.351562-32 32-32h16c17.648438 0 32 14.351562 32 32s-14.351562 32-32 32h-16c-17.648438 0-32-14.351562-32-32zm199.433594 207.886719-15.433594 38.578125v81.535156h-112v-81.535156l-15.425781-38.5625c-.382813-.957032-.574219-1.957032-.574219-2.980469v-60.921875h24v24c0 14.257812 6.28125 27.039062 16.175781 35.839844 1.128907 14.320312 8.6875 36.160156 31.824219 36.160156s30.695312-21.839844 31.824219-36.160156c9.894531-8.800782 16.175781-21.582032 16.175781-35.839844v-24h24v60.921875c0 1.023437-.191406 2.023437-.566406 2.964844zm.566406-147.886719v68h-24v-68c0-6.617188 5.382812-12 12-12s12 5.382812 12 12zm40-28h-107.160156c-6.007813 0-11.9375-.648438-17.726563-1.847656 2.40625-.976563 4.679688-2.296875 6.6875-4.007813l45.824219-39.28125c5.328125-4.558593 8.382812-11.199219 8.382812-18.222656v-.066406l64-.511719v63.9375zm96 168c-17.648438 0-32-14.351562-32-32v-16c0-17.648438 14.351562-32 32-32s32 14.351562 32 32v16c0 17.648438-14.351562 32-32 32zm13.183594 14.113281c-2.207032 5.222657-6.136719 9.886719-13.183594 9.886719s-10.976562-4.664062-13.183594-9.886719c4.199219 1.207031 8.609375 1.886719 13.183594 1.886719s8.984375-.679688 13.183594-1.886719zm18.816406-154.113281v56.320312c-8.503906-7.632812-19.695312-12.320312-32-12.320312s-23.496094 4.6875-32 12.320312v-56.320312c0-4.3125-1.0625-8.351562-2.808594-12h69.617188c-1.746094 3.648438-2.808594 7.6875-2.808594 12zm-80 0v68h-24v-68c0-6.617188 5.382812-12 12-12s12 5.382812 12 12zm119.433594 147.886719-15.433594 38.578125v81.535156h-112v-81.535156l-15.425781-38.5625c-.382813-.957032-.574219-1.957032-.574219-2.980469v-60.921875h24v24c0 14.257812 6.28125 27.039062 16.175781 35.839844 1.128907 14.320312 8.6875 36.160156 31.824219 36.160156s30.695312-21.839844 31.824219-36.160156c9.894531-8.800782 16.175781-21.582032 16.175781-35.839844v-24h24v60.921875c0 1.023437-.191406 2.023437-.566406 2.964844zm.566406-147.886719v68h-24v-68c0-6.617188 5.382812-12 12-12s12 5.382812 12 12zm44-28h-196v-24h196c6.617188 0 12 5.382812 12 12s-5.382812 12-12 12zm0 0"/><path d="m0 216h16v16h-16zm0 0"/><path d="m0 248h16v16h-16zm0 0"/><path d="m0 280h16v16h-16zm0 0"/><path d="m24 312h16v16h-16zm0 0"/><path d="m24 344h16v16h-16zm0 0"/><path d="m24 376h16v16h-16zm0 0"/><path d="m480 216h16v16h-16zm0 0"/><path d="m480 248h16v16h-16zm0 0"/><path d="m480 280h16v16h-16zm0 0"/><path d="m456 312h16v16h-16zm0 0"/><path d="m456 344h16v16h-16zm0 0"/><path d="m456 376h16v16h-16zm0 0"/></svg>