<svg height="496pt" viewBox="0 0 496 496" width="496pt" xmlns="http://www.w3.org/2000/svg"><path d="m224 113.96875-38.59375 11.023438c-10.246094 2.929687-17.40625 12.421874-17.40625 23.078124v107.929688h16v-107.929688c0-3.550781 2.382812-6.71875 5.808594-7.695312l50.191406-14.34375v-15.167969c2.574219.671875 5.222656 1.136719 8 1.136719s5.425781-.464844 8-1.136719v15.167969l50.191406 14.335938c3.425782.984374 5.808594 4.144531 5.808594 7.703124v99.929688h16v-99.929688c0-10.65625-7.160156-20.148437-17.40625-23.078124l-38.59375-11.023438v-13.023438c4.921875-5.625 8-12.898437 8-20.945312v-16c0-17.648438-14.351562-32-32-32s-32 14.351562-32 32v16c0 8.039062 3.078125 15.3125 8 20.945312zm8-49.96875c0-8.824219 7.175781-16 16-16s16 7.175781 16 16v16c0 8.824219-7.175781 16-16 16s-16-7.175781-16-16zm0 0"/><path d="m240 224h16v192h-16zm0 0"/><path d="m16 212.070312c0-3.550781 2.382812-6.71875 5.808594-7.695312l50.191406-14.34375v-15.167969c2.574219.671875 5.222656 1.136719 8 1.136719s5.425781-.464844 8-1.136719v15.167969l50.191406 14.335938c3.425782.984374 5.808594 4.144531 5.808594 7.703124v99.929688h16v-99.929688c0-10.65625-7.160156-20.148437-17.40625-23.078124l-38.59375-11.023438v-13.023438c4.921875-5.625 8-12.898437 8-20.945312v-16c0-17.648438-14.351562-32-32-32s-32 14.351562-32 32v16c0 8.039062 3.078125 15.3125 8 20.945312v13.023438l-38.59375 11.023438c-10.246094 2.929687-17.40625 12.421874-17.40625 23.078124v107.929688h16zm48-84.070312c0-8.824219 7.175781-16 16-16s16 7.175781 16 16v16c0 8.824219-7.175781 16-16 16s-16-7.175781-16-16zm0 0"/><path d="m72 288h16v160h-16zm0 0"/><path d="m464 460.230469v-244.230469h-16v252.097656l3.320312 2.390625c3.144532 2.273438 5.894532 5.886719 8.070313 9.511719h-422.796875c2.175781-3.617188 4.925781-7.222656 8.09375-9.511719l3.3125-2.390625v-252.097656h-16v244.230469c-9.96875 9.210937-14.992188 23.464843-15.585938 25.210937l-3.558593 10.558594h470.28125l-3.5625-10.550781c-.582031-1.753907-5.605469-16-15.574219-25.21875zm0 0"/><path d="m112 216v228l10.894531-4.238281c27.890625-10.839844 56.832031-18.066407 86.027344-21.457031l7.078125-.816407v-265.488281h-16v251.304688c-24.359375 3.328124-48.496094 9.191406-72 17.503906v-204.808594zm0 0"/><path d="m120 32h16v16h-16zm0 0"/><path d="m152 32h16v16h-16zm0 0"/><path d="m88 32h16v16h-16zm0 0"/><path d="m168 113.078125v-33.078125h32v-80h-144v80h72.304688zm-96-97.078125h112v48h-32v14.921875l-17.902344-14.921875h-62.097656zm0 0"/><path d="m360 32h16v16h-16zm0 0"/><path d="m328 32h16v16h-16zm0 0"/><path d="m392 32h16v16h-16zm0 0"/><path d="m328 113.078125 39.695312-33.078125h72.304688v-80h-144v80h32zm-16-49.078125v-48h112v48h-62.097656l-17.902344 14.921875v-14.921875zm0 0"/><path d="m478.59375 188.992188-38.59375-11.023438v-13.023438c4.921875-5.625 8-12.898437 8-20.945312v-16c0-17.648438-14.351562-32-32-32s-32 14.351562-32 32v16c0 8.039062 3.078125 15.3125 8 20.945312v13.023438l-38.59375 11.023438c-10.246094 2.929687-17.40625 12.421874-17.40625 23.078124v99.929688h16v-99.929688c0-3.550781 2.382812-6.71875 5.808594-7.695312l50.191406-14.34375v-15.167969c2.574219.671875 5.222656 1.136719 8 1.136719s5.425781-.464844 8-1.136719v15.167969l50.191406 14.335938c3.425782.984374 5.808594 4.144531 5.808594 7.703124v107.929688h16v-107.929688c0-10.65625-7.160156-20.148437-17.40625-23.078124zm-78.59375-44.992188v-16c0-8.824219 7.175781-16 16-16s16 7.175781 16 16v16c0 8.824219-7.175781 16-16 16s-16-7.175781-16-16zm0 0"/><path d="m408 288h16v160h-16zm0 0"/><path d="m280 152v265.488281l7.078125.824219c29.195313 3.390625 58.136719 10.609375 86.027344 21.457031l10.894531 4.230469v-228h-16v204.808594c-23.503906-8.304688-47.640625-14.167969-72-17.503906v-251.304688zm0 0"/></svg>