<svg height="496pt" viewBox="0 0 496 496" width="496pt" xmlns="http://www.w3.org/2000/svg"><path d="m32 400h16v16h-16zm0 0"/><path d="m64 400h16v16h-16zm0 0"/><path d="m96 400h16v16h-16zm0 0"/><path d="m344 32h16v16h-16zm0 0"/><path d="m312 32h16v16h-16zm0 0"/><path d="m376 32h16v16h-16zm0 0"/><path d="m456 96h-48v32h-50.214844l-29.785156 17.871094v-17.871094h-32v-112h112v64h16v-80h-144v144h32v30.128906l50.214844-30.128906h61.785156v-32h32c13.230469 0 24 10.769531 24 24v248h-332.6875l-16-16h-115.3125v-232c0-13.230469 10.769531-24 24-24h96v.449219c0 6.167969 1.464844 12.359375 4.214844 17.886719l11.785156 23.550781c2.0625 4.128906 4.824219 7.714843 8 10.800781v12.632812l-55.160156 10.023438c-19.023438 3.472656-32.839844 20.015625-32.839844 39.359375v125.296875h256v-125.296875c0-19.34375-13.816406-35.894531-32.839844-39.351563l-55.160156-10.023437v-12.632813c3.175781-3.085937 5.9375-6.671874 8-10.800781l11.785156-23.558593c2.75-5.527344 4.214844-11.71875 4.214844-17.886719v-38.5625c0-13.621094-7.320312-25.917969-19.199219-32.40625l-8.226562-8.222657c-11.125-11.128906-25.925781-17.257812-41.664063-17.257812-32.476562 0-58.910156 26.425781-58.910156 58.910156h16c0-23.664062 19.246094-42.910156 42.910156-42.910156 11.464844 0 22.242188 4.464844 30.347656 12.566406l10 10.007813 1.167969.585937c7.132813 3.566406 11.574219 10.742188 11.574219 18.726563v38.5625c0 3.703125-.871094 7.414062-2.527344 10.734375l-11.785156 23.550781c-4.09375 8.1875-12.3125 13.265625-21.464844 13.265625h-24.453125c-9.152343 0-17.371093-5.078125-21.464843-13.265625l-11.785157-23.550781c-1.648437-3.320313-2.519531-7.03125-2.519531-10.734375v-16.449219h-112c-22.054688 0-40 17.945312-40 40v272c0 22.054688 17.945312 40 40 40h104v32h-32v16h272v-16h-32v-32h104c22.054688 0 40-17.945312 40-40v-272c0-22.054688-17.945312-40-40-40zm-256 122.246094 11.878906 9.507812-8.160156 12.246094h-7.4375l-8.167969-12.246094zm34-25.75 5.632812 1.023437-5.289062 31.710938-21.289062-17.03125zm-26.566406 100.761718-7.433594 7.429688-7.433594-7.429688 6.210938-37.257812h2.445312zm-41.785156-68.027343-5.289063-31.710938 5.632813-1.023437 20.945312 15.710937zm146.351562 1.472656v109.296875h-32v-104h-16v104h-128v-104h-16v104h-32v-109.296875c0-11.605469 8.289062-21.535156 19.703125-23.613281l36.921875-6.714844 9.726562 58.386719 21.222657-16.976563 8.019531 12.015625-8.160156 48.941407 24.566406 24.570312 24.566406-24.570312-8.160156-48.941407 8.019531-12.015625 21.222657 16.976563 9.726562-58.386719 36.921875 6.714844c11.414063 2.078125 19.703125 12.015625 19.703125 23.613281zm-99.777344-50.703125c4.074219 0 8.023438-.648438 11.777344-1.792969v5.792969l-24 18-24-18v-5.800781c3.753906 1.152343 7.695312 1.800781 11.777344 1.800781zm243.777344 256h-280v16h160v32h-176v-48h-120c-13.230469 0-24-10.769531-24-24v-24h108.6875l16 16h339.3125v8c0 13.230469-10.769531 24-24 24zm0 0"/><path d="m312 64h80v16h-80zm0 0"/><path d="m312 96h80v16h-80zm0 0"/></svg>