<svg height="496pt" viewBox="0 0 496 496" width="496pt" xmlns="http://www.w3.org/2000/svg"><path d="m467.496094 385.496094-51.496094-15.449219v-12.230469c14.488281-10.144531 24-26.878906 24-45.816406v-28.144531c5.65625-4.191407 10.632812-9.382813 14.65625-15.421875l5.808594-8.714844-20.570313-6.855469c.042969-1.617187.105469-3.230469.105469-4.863281 0-84.550781-55.65625-159.0625-136-183.542969v-14.570312c0-13.621094-7.328125-25.910157-19.207031-32.414063l-1.882813-1.871094c-10.054687-10.066406-23.421875-15.601562-37.652344-15.601562-29.371093 0-53.257812 23.886719-53.257812 53.257812v11.199219c-80.34375 24.480469-136 98.992188-136 183.542969 0 8.238281.535156 16.519531 1.574219 24.625-.988281 4.054688-1.574219 8.269531-1.574219 12.632812v18.742188c0 19.03125-7.289062 35.976562-21.65625 50.34375l-5.664062 5.65625 5.664062 5.65625c5.351562 5.351562 11.535156 9.550781 18.214844 12.617188l-24.054688 7.214843c-17.046875 5.121094-28.503906 20.519531-28.503906 38.328125v72.183594h224v-57.671875c7.953125.992187 15.96875 1.671875 24 1.671875s16.046875-.679688 24-1.671875v57.671875h224v-72.183594c0-17.808594-11.457031-33.207031-28.503906-38.320312zm-84.433594 46.503906h1.882812l6 48h-13.882812zm3.167969-16h-4.46875l-5.683594-17.03125c2.457031.640625 5.074219 1.03125 7.921875 1.03125s5.464844-.390625 7.910156-1.03125zm13.769531-42.199219c-1.984375 3.0625-7.496094 10.199219-16 10.199219s-14.015625-7.144531-16-10.199219v-7.800781c4.6875 1.289062 9.566406 2 14.558594 2h1.210937c5.636719 0 11.085938-.855469 16.230469-2.398438zm24-61.800781c0 22.054688-18.046875 40-40.230469 40h-1.210937c-10.320313 0-20.015625-4.015625-27.300782-11.3125-7.296874-7.296875-11.3125-17-11.304687-27.3125l.007813-17.808594c8.511718-.902344 16.886718-3.253906 24.625-6.933594l12.582031 4.191407c6.34375 2.105469 12.929687 3.175781 19.574219 3.175781h2.410156c7.214844 0 14.246094-1.246094 20.839844-3.601562v19.601562zm-128-120v56h-24.9375l-6.894531-55.191406 12.976562-38.921875 49.757813 14.929687c10.226562 3.070313 17.097656 12.320313 17.097656 23v56.183594h-32v-56zm-112 0v56h-32v-56.183594c0-10.679687 6.871094-19.921875 17.105469-22.992187l49.757812-14.929688 12.976563 38.921875-6.902344 55.183594h-24.9375v-56zm-112 112v-.449219c8.519531-.910156 16.894531-3.253906 24.640625-6.933593 15.765625 4.894531 32.121094 7.382812 48.65625 7.382812h6.703125v8c0 22.054688-17.945312 40-40 40s-40-17.945312-40-40zm37.257812-56c9.957032 0 19.308594 3.871094 26.34375 10.921875l3.664063 3.652344 1.160156.578125c7.132813 3.574218 11.574219 10.75 11.574219 18.734375v6.113281h-6.703125c-15.921875 0-31.65625-2.550781-46.769531-7.585938l-3.144532-1.054687-4.648437 2.328125c-5.871094 2.9375-12.238281 4.832031-18.734375 5.710938v-2.140626c0-20.546874 16.710938-37.257812 37.257812-37.257812zm2.742188 120c5.558594 0 10.929688-.839844 16-2.359375v8.152344c-1.984375 3.070312-7.496094 10.207031-16 10.207031s-14.015625-7.144531-16-10.199219v-8.152343c5.070312 1.511718 10.441406 2.351562 16 2.351562zm-.9375 64h1.882812l6 48h-13.882812zm3.167969-16h-4.46875l-5.683594-17.03125c2.449219.640625 5.074219 1.03125 7.921875 1.03125s5.472656-.390625 7.910156-1.03125zm29.769531-48v-10.113281c6.679688-4.671875 12.273438-10.765625 16.390625-17.832031 3.195313 6.847656 7.257813 13.304687 12.152344 19.226562-7.878907 5.664062-17.285157 8.71875-27.175781 8.71875zm64-304h20.6875c6.96875 0 13.625-2 19.3125-5.734375 5.6875 3.734375 12.34375 5.734375 19.3125 5.734375h20.6875v16c0 22.054688-17.945312 40-40 40s-40-17.945312-40-40zm42.230469 120h-4.46875l-5.683594-17.03125c2.457031.640625 5.074219 1.03125 7.921875 1.03125s5.464844-.390625 7.910156-1.03125zm-2.230469-48c5.558594 0 10.929688-.839844 16-2.359375v8.152344c-1.984375 3.070312-7.496094 10.207031-16 10.207031s-14.015625-7.144531-16-10.199219v-8.152343c5.070312 1.511718 10.441406 2.351562 16 2.351562zm-.9375 64h1.882812l6 48h-13.882812zm156.097656 80h-2.40625c-4.9375 0-9.816406-.792969-14.515625-2.351562l-18.847656-6.289063-4.648437 2.328125c-5.519532 2.761719-11.476563 4.648438-17.566407 5.601562 4.425781-17.945312 20.65625-31.289062 39.945313-31.289062 8.152344 0 16.039062 2.390625 22.832031 6.910156 8.167969 5.449219 17.015625 9.800782 26.328125 12.9375-8.386719 7.738282-19.441406 12.152344-31.121094 12.152344zm20.742188-34.328125c-2.382813-1.3125-4.8125-2.550781-7.078125-4.0625-9.425781-6.28125-20.382813-9.601563-31.703125-9.601563-9.015625 0-17.519532 2.160157-25.121094 5.894532v-46.078125c0-17.808594-11.457031-33.199219-28.503906-38.320313l-51.496094-15.457031v-12.160156c14.175781-9.917969 23.542969-26.207031 23.9375-44.6875 70.429688 23.59375 118.964844 89.542969 119.964844 164.472656zm-178.644532-229.671875c9.957032 0 19.308594 3.871094 26.34375 10.921875l3.664063 3.652344 1.160156.578125c6.558594 3.28125 10.664063 9.648437 11.308594 16.839844h-20.421875c-5.160156 0-10.007812-2.007813-13.65625-5.65625l-5.65625-5.65625-5.664062 5.664062c-3.640626 3.648438-8.488282 5.65625-13.648438 5.65625h-20.152344c2.578125-18.039062 17.976563-32 36.722656-32zm-53.195312 65.207031c.394531 18.480469 9.761719 34.769531 23.9375 44.6875v12.160157l-51.496094 15.449218c-17.046875 5.105469-28.503906 20.503906-28.503906 38.3125v47.429688c-8.039062-4.695313-17.183594-7.246094-26.742188-7.246094-14.480468 0-27.617187 5.824219-37.226562 15.238281.328125-75.574219 49.105469-142.277343 120.03125-166.03125zm-128.277344 259.128907c4.09375 6.945312 9.621094 12.945312 16.214844 17.550781v10.113281h-1.367188c-9.871093 0-19.273437-3.046875-27.136718-8.695312 4.984375-5.945313 9.089844-12.296876 12.289062-18.96875zm-47.785156 83.480468c0-10.679687 6.871094-19.921875 17.105469-22.992187l49.757812-14.929688 12.976563 38.921875-6.902344 55.183594h-24.9375v-56h-16v56h-32zm192 56.183594h-32v-56h-16v56h-24.9375l-6.894531-55.191406 12.976562-38.921875 49.757813 14.929687c10.226562 3.070313 17.097656 12.320313 17.097656 23zm64.128906-57.808594c-15.960937 2.183594-32.304687 2.183594-48.257812 0-.679688-17.101562-11.855469-31.734375-28.375-36.695312l-24.054688-7.214844c6.679688-3.066406 12.863282-7.265625 18.222656-12.625l5.65625-5.65625-5.664062-5.65625c-13.96875-13.96875-21.65625-32.527344-21.65625-52.28125v-20.175781c0-6.421875-1.679688-12.527344-4.648438-17.886719h170.527344c-3.742187 7.59375-5.902344 16.097656-5.910156 25.113281l-.015625 24.246094c-.007813 14.59375 5.664063 28.3125 15.984375 38.632813 2.496094 2.496093 5.199219 4.710937 8.0625 6.648437v11.398437l-51.496094 15.449219c-16.519531 4.960938-27.695312 19.601563-28.375 36.703125zm15.871094 1.625c0-10.679687 6.871094-19.921875 17.105469-22.992187l49.757812-14.929688 12.976563 38.921875-6.902344 55.183594h-24.9375v-56h-16v56h-32zm192 56.183594h-32v-56h-16v56h-24.9375l-6.894531-55.191406 12.976562-38.921875 49.757813 14.929687c10.226562 3.070313 17.097656 12.320313 17.097656 23zm0 0"/><path d="m161.0625 113.441406 13.847656-8 7.996094 13.847656-13.847656 8zm0 0"/><path d="m129.21875 140.515625 11.320312-11.308594 11.308594 11.320313-11.316406 11.308594zm0 0"/><path d="m105.429688 174.929688 8-13.855469 13.855468 8-8 13.855469zm0 0"/><path d="m91.375 214.308594 4.140625-15.453125 15.453125 4.140625-4.140625 15.453125zm0 0"/><path d="m240 392h16v16h-16zm0 0"/><path d="m385.011719 203 15.453125-4.140625 4.140625 15.453125-15.453125 4.140625zm0 0"/><path d="m368.710938 169.085938 13.859374-8 7.996094 13.859374-13.855468 7.996094zm0 0"/><path d="m344.1875 140.511719 11.308594-11.316407 11.320312 11.308594-11.3125 11.316406zm0 0"/><path d="m313.058594 119.304688 8-13.847657 13.847656 7.996094-8 13.847656zm0 0"/><path d="m240 280h16v96h-16zm0 0"/><path d="m272 280h16v16h-16zm0 0"/><path d="m272 312h16v64h-16zm0 0"/><path d="m208 280h16v16h-16zm0 0"/><path d="m208 312h16v64h-16zm0 0"/></svg>