<?xml version="1.0" encoding="iso-8859-1"?>
<!-- Generator: Adobe Illustrator 19.0.0, SVG Export Plug-In . SVG Version: 6.00 Build 0)  -->
<svg version="1.1" id="Layer_1" xmlns="http://www.w3.org/2000/svg" xmlns:xlink="http://www.w3.org/1999/xlink" x="0px" y="0px"
	 viewBox="0 0 295.238 295.238" style="enable-background:new 0 0 295.238 295.238;" xml:space="preserve">
<g>
	<g>
		<g>
			<path d="M204.775,64.695c-18.395-16.471-42.176-24.048-66.919-21.3c-38.586,4.271-70.21,35.281-75.205,73.733
				c-3.495,26.905,5.462,53.21,24.586,72.171c7.471,7.419,11.857,16.824,12.605,26.738c-5.524,2.719-9.367,8.352-9.367,14.914
				c0,4.667,1.938,8.876,5.038,11.905c-3.1,3.029-5.038,7.238-5.038,11.905s1.938,8.876,5.038,11.905
				c-3.1,3.029-5.038,7.238-5.038,11.905c0,9.19,7.476,16.667,16.667,16.667h80.952c9.19,0,16.667-7.476,16.667-16.667
				c0-4.667-1.938-8.876-5.038-11.905c3.1-3.029,5.038-7.238,5.038-11.905s-1.938-8.876-5.038-11.905
				c3.1-3.029,5.038-7.238,5.038-11.905c0-6.562-3.848-12.195-9.371-14.91c0.738-9.886,5.071-19.352,12.205-26.338
				c16.595-16.252,25.738-37.962,25.738-61.133C233.333,104.229,222.924,80.948,204.775,64.695z M188.095,285.714h-80.952
				c-3.938,0-7.143-3.205-7.143-7.143c0-3.938,3.205-7.143,7.143-7.143h80.952c3.938,0.001,7.143,3.205,7.143,7.143
				S192.033,285.714,188.095,285.714z M188.095,261.905h-80.952c-3.938,0-7.143-3.205-7.143-7.143c0-3.938,3.205-7.143,7.143-7.143
				h80.952c3.938,0,7.143,3.205,7.143,7.143S192.033,261.905,188.095,261.905z M188.095,238.095h-80.952
				c-3.938,0-7.143-3.205-7.143-7.143c0-3.938,3.205-7.143,7.143-7.143h80.952c3.938,0,7.143,3.205,7.143,7.143
				C195.238,234.89,192.033,238.095,188.095,238.095z M200.932,182.895c-8.533,8.352-13.852,19.586-14.99,31.39h-76.648
				c-1.133-11.819-6.486-22.948-15.352-31.748c-16.995-16.852-24.957-40.248-21.852-64.181c4.443-34.157,32.538-61.7,66.814-65.495
				c21.981-2.438,43.157,4.276,59.514,18.929c16.138,14.448,25.39,35.143,25.39,56.781
				C223.809,149.162,215.686,168.452,200.932,182.895z"/>
			<path d="M266.563,129.214c-1.79-52.29-37.448-96.105-85.686-110.167h71.505v9.524h28.57V0H252.38v9.524H42.856V0H14.286v28.571
				h28.571v-9.524h71.505C66.124,33.11,30.466,76.924,28.676,129.214c-8.248,2.095-14.39,9.519-14.39,18.405
				c0,10.505,8.543,19.048,19.048,19.048s19.048-8.543,19.048-19.048c0-8.81-6.043-16.176-14.181-18.338
				C40.343,70.762,88.586,23.81,147.619,23.81s107.276,46.952,109.419,105.471c-8.138,2.162-14.181,9.529-14.181,18.338
				c0,10.505,8.543,19.048,19.048,19.048c10.505,0,19.048-8.543,19.048-19.048C280.953,138.733,274.81,131.309,266.563,129.214z
				 M261.905,9.524h9.524v9.524h-9.524V9.524z M33.333,19.048h-9.524V9.524h9.524V19.048z M42.856,147.619
				c0,5.252-4.271,9.524-9.524,9.524s-9.524-4.271-9.524-9.524c0-5.253,4.271-9.524,9.524-9.524S42.856,142.367,42.856,147.619z
				 M261.905,157.143c-5.253,0-9.524-4.271-9.524-9.524c0-5.253,4.271-9.524,9.524-9.524s9.524,4.272,9.524,9.524
				C271.429,152.871,267.158,157.143,261.905,157.143z"/>
			<path d="M176.189,114.286c7.876,0,14.286-6.41,14.286-14.286c0-7.876-6.41-14.286-14.286-14.286s-14.286,6.41-14.286,14.286
				v4.762h-28.571V100c0-7.876-6.41-14.286-14.286-14.286c-7.876,0-14.286,6.41-14.286,14.286c0,7.876,6.41,14.286,14.286,14.286
				h4.762v28.571h-4.762c-7.876,0-14.286,6.41-14.286,14.286c0,7.876,6.41,14.286,14.286,14.286c7.876,0,14.286-6.41,14.286-14.286
				v-4.762h28.571v4.762c0,7.876,6.41,14.286,14.286,14.286s14.286-6.41,14.286-14.286c0-7.876-6.41-14.286-14.286-14.286h-4.762
				v-28.571H176.189z M171.429,100c0-2.624,2.133-4.762,4.762-4.762c2.629,0,4.762,2.138,4.762,4.762s-2.133,4.762-4.762,4.762
				h-4.762V100z M123.81,157.143c0,2.624-2.133,4.762-4.762,4.762c-2.629,0-4.762-2.138-4.762-4.762
				c0-2.624,2.133-4.762,4.762-4.762h4.762V157.143z M123.81,104.762h-4.762c-2.629,0-4.762-2.138-4.762-4.762
				s2.133-4.762,4.762-4.762c2.629,0,4.762,2.138,4.762,4.762V104.762z M161.905,142.857h-28.571v-28.571h28.571V142.857z
				 M176.189,152.381c2.629,0,4.762,2.138,4.762,4.762c0,2.624-2.133,4.762-4.762,4.762c-2.629,0-4.762-2.138-4.762-4.762v-4.762
				H176.189z"/>
		</g>
	</g>
</g>
<g>
</g>
<g>
</g>
<g>
</g>
<g>
</g>
<g>
</g>
<g>
</g>
<g>
</g>
<g>
</g>
<g>
</g>
<g>
</g>
<g>
</g>
<g>
</g>
<g>
</g>
<g>
</g>
<g>
</g>
</svg>
