<?xml version="1.0" encoding="iso-8859-1"?>
<!-- Generator: Adobe Illustrator 19.0.0, SVG Export Plug-In . SVG Version: 6.00 Build 0)  -->
<svg version="1.1" id="Layer_1" xmlns="http://www.w3.org/2000/svg" xmlns:xlink="http://www.w3.org/1999/xlink" x="0px" y="0px"
	 viewBox="0 0 298.618 298.618" style="enable-background:new 0 0 298.618 298.618;" xml:space="preserve">
<g>
	<g>
		<g>
			<path d="M238.471,99.757c0.79-4.7,1.314-9.405,1.314-14.043C239.786,38.452,201.333,0,154.071,0H87.405
				C40.143,0,1.69,38.452,1.69,85.714c0,24.405,10.386,47.538,28.571,63.824v53.843l28.886-16.248
				c3.19,44.376,40.224,79.533,85.4,79.533h66.667c0.105,0,0.214,0,0.329-0.005l56.814,31.957v-53.843
				c18.186-16.286,28.571-39.419,28.571-63.824C296.929,143.224,272.395,111.181,238.471,99.757z M59.08,176.073
				c-0.014,0.067-0.033,0.133-0.048,0.2l-19.248,10.824v-41.924l-1.679-1.425c-17.086-14.533-26.89-35.686-26.89-58.033
				c0-42.01,34.181-76.19,76.19-76.19h66.667c42.01,0,76.19,34.181,76.19,76.19c0,3.79-0.3,7.643-0.9,11.5
				c-5.857-1.271-11.919-1.976-18.148-1.976h-57.143h-9.524h-100v9.524h60.914C79.19,118.296,60.847,144.977,59.08,176.073z
				 M260.514,238.986l-1.681,1.424v41.924l-44.957-25.29l-1.295,0.024c-0.31,0.01-0.619,0.029-1.367,0.076h-66.667
				c-42.01,0-76.19-34.181-76.19-76.19c0-42.009,34.181-76.19,76.19-76.19h9.524h57.143c42.01,0,76.19,34.181,76.19,76.19
				C287.405,203.3,277.6,224.452,260.514,238.986z"/>
			<path d="M195.014,190.2c12.481-6.9,20.962-20.19,20.962-35.438c0-22.319-18.157-40.476-40.476-40.476
				c-22.319,0-40.476,18.157-40.476,40.476c0,15.248,8.481,28.538,20.962,35.438c-15.186,7.305-25.724,22.8-25.724,40.752v16.667
				h90.476v-16.667C220.738,213,210.2,197.505,195.014,190.2z M144.548,154.762c0-17.067,13.886-30.952,30.952-30.952
				s30.952,13.886,30.952,30.952c0,17.066-13.886,30.952-30.952,30.952S144.548,171.829,144.548,154.762z M211.213,238.095h-71.428
				v-7.143c0-19.695,16.019-35.714,35.714-35.714s35.714,16.019,35.714,35.714V238.095z"/>
			<circle cx="163.595" cy="142.857" r="4.762"/>
			<circle cx="187.405" cy="142.857" r="4.762"/>
			<path d="M198.238,164.776l-7.595-5.743c-3.671,4.852-9.19,7.633-15.143,7.633s-11.471-2.781-15.143-7.633l-7.6,5.743
				c5.49,7.252,13.776,11.414,22.743,11.414S192.752,172.028,198.238,164.776z"/>
			<rect x="44.548" y="38.095" width="152.381" height="9.524"/>
			<rect x="44.548" y="66.667" width="152.381" height="9.524"/>
		</g>
	</g>
</g>
<g>
</g>
<g>
</g>
<g>
</g>
<g>
</g>
<g>
</g>
<g>
</g>
<g>
</g>
<g>
</g>
<g>
</g>
<g>
</g>
<g>
</g>
<g>
</g>
<g>
</g>
<g>
</g>
<g>
</g>
</svg>
