<?xml version="1.0" encoding="iso-8859-1"?>
<!-- Generator: Adobe Illustrator 19.0.0, SVG Export Plug-In . SVG Version: 6.00 Build 0)  -->
<svg version="1.1" id="Layer_1" xmlns="http://www.w3.org/2000/svg" xmlns:xlink="http://www.w3.org/1999/xlink" x="0px" y="0px"
	 viewBox="0 0 295.239 295.239" style="enable-background:new 0 0 295.239 295.239;" xml:space="preserve">
<g>
	<g>
		<g>
			<path d="M36.625,100.001H58.61l3.405,15.319l9.3-2.067l-7.457-33.557c-1.701-7.672-8.382-13.029-16.239-13.029
				s-14.538,5.357-16.238,13.024l-7.457,33.562l9.3,2.067L36.625,100.001z M40.682,81.752c0.724-3.276,3.581-5.562,6.938-5.562
				s6.214,2.286,6.938,5.567l1.938,8.719H38.743L40.682,81.752z"/>
			<path d="M295.239,47.619C295.239,21.362,273.877,0,247.62,0s-47.619,21.362-47.619,47.619c0,10.462,3.433,20.41,9.586,28.571
				h-9.586v14.286c0,7.876,6.41,14.286,14.286,14.286h28.571v6.762c0,2.214-1.505,4.119-3.662,4.633L58.243,159.243
				c-1.448,0.338-2.905,0.01-4.057-0.895c-1.143-0.91-1.805-2.271-1.805-3.738v-2.229h28.571c7.876,0,14.286-6.41,14.286-14.286
				V123.81h-9.586c6.152-8.162,9.586-18.11,9.586-28.571c0-26.257-21.362-47.619-47.619-47.619
				c-26.257,0-47.619,21.361-47.619,47.618c0,10.462,3.433,20.41,9.586,28.571H0.001v14.286c0,7.876,6.41,14.286,14.286,14.286
				h28.571v2.229c0,4.4,1.981,8.486,5.433,11.21c2.557,2.019,5.652,3.081,8.824,3.081c1.11,0,2.233-0.129,3.338-0.395l77.3-18.405
				c-0.148,0.467-0.29,0.938-0.371,1.433l-23.957,143.705h68.386l-23.952-143.705c-0.362-2.176-1.4-4.067-2.848-5.543l86.39-20.571
				c6.467-1.533,10.981-7.248,10.981-13.895v-6.762h28.571c7.876,0,14.286-6.41,14.286-14.286V76.19h-9.586
				C291.805,68.029,295.239,58.081,295.239,47.619z M9.524,95.238c0-21.005,17.09-38.095,38.095-38.095s38.095,17.09,38.095,38.095
				c0,11-4.686,21.324-12.924,28.571H22.449C14.211,116.562,9.524,106.238,9.524,95.238z M14.287,142.857
				c-2.629,0-4.762-2.138-4.762-4.762v-4.762h9.5h57.19h9.5v4.762c0,2.624-2.133,4.762-4.762,4.762H14.287z M170.568,285.714h-45.9
				l22.105-132.619c0.138-0.829,1.552-0.829,1.69,0L170.568,285.714z M209.524,47.619c0-21.005,17.09-38.095,38.095-38.095
				s38.095,17.09,38.095,38.095c0,11-4.686,21.324-12.924,28.571h-50.343C214.211,68.943,209.524,58.619,209.524,47.619z
				 M285.714,85.714v4.762h0.001c0,2.624-2.133,4.762-4.762,4.762h-66.667c-2.629,0-4.762-2.138-4.762-4.762v-4.762h9.5h57.19
				H285.714z"/>
			<path d="M266.667,52.381c0-3.657-1.381-6.995-3.648-9.524c2.267-2.529,3.648-5.867,3.648-9.524
				c0-7.876-6.41-14.285-14.286-14.285h-23.81v47.619h23.81C260.258,66.667,266.667,60.257,266.667,52.381z M238.096,28.571h14.286
				c2.629,0,4.762,2.138,4.762,4.762c0,2.624-2.133,4.762-4.762,4.762h-14.286V28.571z M238.096,47.619h14.286
				c2.629,0,4.762,2.138,4.762,4.762c0,2.624-2.133,4.762-4.762,4.762h-14.286V47.619z"/>
		</g>
	</g>
</g>
<g>
</g>
<g>
</g>
<g>
</g>
<g>
</g>
<g>
</g>
<g>
</g>
<g>
</g>
<g>
</g>
<g>
</g>
<g>
</g>
<g>
</g>
<g>
</g>
<g>
</g>
<g>
</g>
<g>
</g>
</svg>
