<?xml version="1.0" encoding="iso-8859-1"?>
<!-- Generator: Adobe Illustrator 19.0.0, SVG Export Plug-In . SVG Version: 6.00 Build 0)  -->
<svg version="1.1" id="Layer_1" xmlns="http://www.w3.org/2000/svg" xmlns:xlink="http://www.w3.org/1999/xlink" x="0px" y="0px"
	 viewBox="0 0 295.239 295.239" style="enable-background:new 0 0 295.239 295.239;" xml:space="preserve">
<g>
	<g>
		<g>
			<path d="M276.19,157.143V100h-17.919c-2.667-10.357-6.762-20.233-12.214-29.462l12.676-12.681l-40.4-40.4l-12.681,12.676
				c-9.229-5.452-19.105-9.552-29.462-12.214V0h-57.143v17.919c-10.357,2.667-20.233,6.762-29.462,12.214l-12.68-12.676l-40.4,40.4
				l12.676,12.681C43.729,79.767,39.63,89.643,36.967,100H19.048v57.143h17.919c2.667,10.357,6.762,20.233,12.214,29.462
				l-12.676,12.681l40.4,40.4l12.686-12.681c0.386,0.224,0.819,0.452,1.214,0.676c-0.21,1.057-0.329,2.152-0.329,3.271
				c0,5.971,3.186,11.181,7.919,14.124c-1.967,2.738-3.157,6.067-3.157,9.686c0,5.971,3.186,11.181,7.919,14.124
				c-1.967,2.738-3.157,6.067-3.157,9.686c0,9.19,7.476,16.667,16.667,16.667h61.905c9.19,0,16.667-7.476,16.667-16.667
				c0-3.619-1.19-6.948-3.157-9.686c4.733-2.943,7.919-8.152,7.919-14.124c0-3.619-1.19-6.948-3.157-9.686
				c4.733-2.943,7.919-8.152,7.919-14.124c0-1.119-0.119-2.214-0.329-3.271c0.395-0.224,0.829-0.452,1.214-0.676l12.686,12.681
				l40.4-40.4l-12.676-12.681c5.457-9.229,9.552-19.105,12.214-29.462C258.271,157.143,276.19,157.143,276.19,157.143z
				 M178.571,285.714h-61.905c-3.938,0-7.143-3.205-7.143-7.143s3.205-7.143,7.143-7.143h61.905c3.938,0,7.143,3.205,7.143,7.143
				C185.714,282.51,182.51,285.714,178.571,285.714z M183.333,261.905h-4.762h-61.905h-4.762c-3.938,0-7.143-3.205-7.143-7.143
				c0-3.938,3.205-7.143,7.143-7.143h71.429c3.938,0,7.143,3.205,7.143,7.143C190.477,258.7,187.271,261.905,183.333,261.905z
				 M188.096,238.095h-4.762h-71.429h-4.762c-3.938,0-7.143-3.205-7.143-7.143c0-3.938,3.205-7.143,7.143-7.143h80.952
				c3.938,0,7.143,3.205,7.143,7.143C195.237,234.89,192.034,238.095,188.096,238.095z M185.943,214.286h-76.648
				c-1.133-11.819-6.486-22.948-15.352-31.748c-16.995-16.852-24.957-40.243-21.852-64.181
				c4.443-34.157,32.538-61.705,66.814-65.495c22.029-2.462,43.162,4.281,59.514,18.933c16.138,14.443,25.39,35.138,25.39,56.776
				c0,20.586-8.124,39.881-22.876,54.319C192.401,191.243,187.081,202.481,185.943,214.286z M249.867,151.348
				c-2.633,11.876-7.29,23.114-13.848,33.41l-2.052,3.224l11.3,11.305l-26.933,26.933l-11.31-11.305l-3.224,2.062
				c-1.224,0.781-2.49,1.548-3.829,2.314c-1.314-1.338-2.876-2.41-4.581-3.248c0.738-9.886,5.071-19.357,12.205-26.343
				c16.595-16.248,25.738-37.957,25.738-61.129c0-24.338-10.41-47.624-28.552-63.871c-18.395-16.471-42.138-24.052-66.924-21.305
				c-38.581,4.267-70.21,35.281-75.205,73.733c-3.495,26.9,5.462,53.21,24.586,72.167c7.471,7.424,11.857,16.824,12.605,26.743
				c-1.7,0.838-3.262,1.91-4.576,3.248c-1.338-0.767-2.605-1.533-3.829-2.314l-3.224-2.062l-11.31,11.305l-26.933-26.933
				l11.3-11.305l-2.052-3.224c-6.557-10.29-11.214-21.529-13.848-33.41l-0.829-3.724H28.571v-38.095h15.971l0.829-3.729
				c2.633-11.876,7.29-23.114,13.848-33.41l2.052-3.224l-11.3-11.305l26.933-26.933l11.305,11.3l3.224-2.052
				c10.29-6.557,21.529-11.214,33.41-13.848l3.729-0.829V9.524h38.095v15.971l3.729,0.829c11.876,2.633,23.114,7.29,33.41,13.848
				l3.224,2.052l11.305-11.3l26.933,26.933l-11.3,11.305l2.052,3.224c6.557,10.29,11.214,21.529,13.848,33.41l0.829,3.729h15.971
				v38.095h-15.971L249.867,151.348z"/>
			<path d="M152.381,80.952h-9.524c-18.376,0-33.333,14.957-33.333,33.333v28.571c0,18.376,14.957,33.333,33.333,33.333h9.524
				c18.376,0,33.333-14.957,33.333-33.333v-9.524h-28.571v9.524c0,2.629-2.133,4.762-4.762,4.762h-9.524
				c-2.629,0-4.762-2.133-4.762-4.762v-28.571c0-2.629,2.133-4.762,4.762-4.762h9.524c2.629,0,4.762,2.133,4.762,4.762v9.524h28.571
				v-9.524C185.714,95.91,170.758,80.952,152.381,80.952z M166.667,114.286c0-7.876-6.41-14.286-14.286-14.286h-9.524
				c-7.876,0-14.286,6.41-14.286,14.286v28.571c0,7.876,6.41,14.286,14.286,14.286h9.524c7.876,0,14.286-6.41,14.286-14.286h9.524
				c0,13.129-10.681,23.81-23.81,23.81h-9.524c-13.129,0-23.81-10.681-23.81-23.81v-28.571c0-13.129,10.681-23.81,23.81-23.81h9.524
				c13.129,0,23.81,10.681,23.81,23.81H166.667z"/>
		</g>
	</g>
</g>
<g>
</g>
<g>
</g>
<g>
</g>
<g>
</g>
<g>
</g>
<g>
</g>
<g>
</g>
<g>
</g>
<g>
</g>
<g>
</g>
<g>
</g>
<g>
</g>
<g>
</g>
<g>
</g>
<g>
</g>
</svg>
