<?xml version="1.0" encoding="iso-8859-1"?>
<!-- Generator: Adobe Illustrator 19.0.0, SVG Export Plug-In . SVG Version: 6.00 Build 0)  -->
<svg version="1.1" id="Layer_1" xmlns="http://www.w3.org/2000/svg" xmlns:xlink="http://www.w3.org/1999/xlink" x="0px" y="0px"
	 viewBox="0 0 295.315 295.315" style="enable-background:new 0 0 295.315 295.315;" xml:space="preserve">
<g>
	<g>
		<path d="M219.087,114.362v-10.4c5.529-1.971,9.524-7.21,9.524-13.41c0-5.814-3.5-10.81-8.495-13.033l8.952-35.814l-33.79-39.424
			L161.487,41.7l8.952,35.814c-4.995,2.229-8.495,7.224-8.495,13.038c0,6.2,3.995,11.438,9.524,13.41v10.4h-47.619V41.667L100.039,0
			l-23.81,41.667v72.695H0.039v66.667h76.19v90.476c0,13.129,10.681,23.81,23.81,23.81c13.129,0,23.81-10.681,23.81-23.81v-90.476
			h47.619v90.476c0,13.129,10.681,23.81,23.81,23.81c13.129,0,23.81-10.681,23.81-23.81v-14.286h4.762
			c7.876,0,14.286-6.41,14.286-14.286v-27.871l-2.367-1.376c-1.5-0.871-2.395-2.4-2.395-4.086c0-1.686,0.895-3.214,2.395-4.086
			l2.367-1.376v-13.586h-9.524v8.452c-2.99,2.681-4.762,6.538-4.762,10.595s1.771,7.914,4.762,10.595v22.738
			c0,2.624-2.133,4.762-4.762,4.762h-4.762v-66.667h76.189v-66.665H219.087z M76.231,171.505H9.563v-47.619h9.524v14.286h9.524
			v-14.286h9.524v19.048h9.524v-19.048h9.524v14.286h9.524v-14.286h9.524V171.505z M100.039,19.2l10.843,18.971H89.196L100.039,19.2
			z M85.753,47.695h9.524V233.41h-9.524V47.695z M114.324,271.504c0.001,7.877-6.409,14.286-14.285,14.286
			c-7.876,0-14.286-6.41-14.286-14.286v-9.524h28.571V271.504z M114.324,252.457H85.753v-9.524h28.571V252.457z M114.325,233.41
			H104.8V47.695h9.524V233.41z M195.277,42.933c2.629,0,4.762,2.138,4.762,4.762c0,2.624-2.133,4.762-4.762,4.762
			c-2.629,0-4.762-2.138-4.762-4.762C190.515,45.071,192.648,42.933,195.277,42.933z M190.515,22.471v11.814
			c-5.529,1.971-9.524,7.21-9.524,13.41c0,7.876,6.41,14.286,14.286,14.286c7.876,0,14.286-6.41,14.286-14.286
			c0-6.2-3.995-11.438-9.524-13.41V22.471l18.59,21.69l-8.024,32.105h-30.657l-8.029-32.1L190.515,22.471z M171.469,171.505h-47.62
			v-47.619h9.524v14.286h9.524v-14.286h9.524v19.048h9.524v-19.048h9.524V171.505z M195.277,285.791
			c-7.876,0-14.286-6.41-14.286-14.286v-14.286h28.571v14.286h0.001C209.563,279.381,203.152,285.791,195.277,285.791z
			 M209.562,119.124v19.048v90.476H180.99v-123.81h28.571V119.124z M209.562,238.171v9.524H180.99v-9.524H209.562z M214.325,95.314
			H176.23c-2.629,0-4.762-2.138-4.762-4.762s2.133-4.762,4.762-4.762h38.095c2.629,0,4.762,2.138,4.762,4.762
			S216.953,95.314,214.325,95.314z M285.753,171.505L285.753,171.505h-66.668v-33.333v-14.286h9.524v19.048h9.524v-19.048h9.524
			v14.286h9.524v-14.286h9.524v19.048h9.524v-19.048h9.524V171.505z"/>
	</g>
</g>
<g>
</g>
<g>
</g>
<g>
</g>
<g>
</g>
<g>
</g>
<g>
</g>
<g>
</g>
<g>
</g>
<g>
</g>
<g>
</g>
<g>
</g>
<g>
</g>
<g>
</g>
<g>
</g>
<g>
</g>
</svg>
