<?xml version="1.0" encoding="iso-8859-1"?>
<!-- Generator: Adobe Illustrator 19.0.0, SVG Export Plug-In . SVG Version: 6.00 Build 0)  -->
<svg version="1.1" id="Layer_1" xmlns="http://www.w3.org/2000/svg" xmlns:xlink="http://www.w3.org/1999/xlink" x="0px" y="0px"
	 viewBox="0 0 295.239 295.239" style="enable-background:new 0 0 295.239 295.239;" xml:space="preserve">
<g>
	<g>
		<g>
			<path d="M228.572,123.81v14.286h-51.257l-24.933-12.467v-16.105h7.143c6.562,0,11.905-5.338,11.905-11.905
				c0-3.876-1.89-7.29-4.762-9.462v-5.062c6.081-5.438,9.524-13.029,9.524-21.186c0-15.757-12.814-28.571-28.571-28.571
				c-15.757,0-28.571,12.814-28.571,28.571c0,8.157,3.443,15.752,9.524,21.186v5.062c-2.871,2.176-4.762,5.59-4.762,9.462
				c0,6.567,5.343,11.905,11.905,11.905h7.143v16.105l-34.459,17.228l34.457,17.229v16.105H38.096v-14.286h28.571V123.81H0.001
				v38.095h28.571v14.286v4.762V200H0.001v38.095h66.667V200H38.096v-14.286h104.762V200h-28.571v38.095h28.571v19.048h-9.524
				c-10.505,0-19.048,8.543-19.048,19.048s8.543,19.048,19.048,19.048h28.571c10.505,0,19.048-8.543,19.048-19.048
				s-8.543-19.048-19.048-19.048h-9.524v-19.048h28.571V200h-28.571v-14.286v-9.524v-16.105l24.933-12.467h51.257v14.286h28.571
				v38.771c-8.19,2.129-14.286,9.519-14.286,18.371c0,10.505,8.543,19.048,19.048,19.048c10.505,0,19.048-8.543,19.048-19.048
				c0-8.852-6.095-16.243-14.286-18.371v-38.771h28.573V123.81H228.572z M57.144,209.523v19.048H9.524v-19.048H57.144z
				 M9.524,152.381v-19.048h47.619v19.048H9.524z M147.62,42.857c10.505,0,19.048,8.543,19.048,19.048
				c0,5.957-2.781,11.476-7.633,15.143l-1.89,1.424v7.243h-4.762v-10.4c5.529-1.971,9.524-7.21,9.524-13.41
				c0-7.876-6.41-14.286-14.286-14.286c-7.876,0-14.286,6.41-14.286,14.286c0,6.2,3.995,11.438,9.524,13.41v10.4h-4.762v-7.243
				l-1.89-1.429c-4.852-3.662-7.633-9.181-7.633-15.138C128.571,51.4,137.115,42.857,147.62,42.857z M152.381,61.905
				c0,2.629-2.138,4.762-4.762,4.762c-2.624,0-4.762-2.134-4.762-4.762c0-2.629,2.138-4.762,4.762-4.762
				C150.243,57.143,152.381,59.276,152.381,61.905z M135.714,100c-1.314,0-2.381-1.071-2.381-2.381s1.067-2.381,2.381-2.381h23.81
				c1.314,0,2.381,1.071,2.381,2.381S160.839,100,159.524,100H135.714z M161.906,266.666c5.252,0.001,9.524,4.272,9.524,9.524
				s-4.271,9.524-9.524,9.524h-28.571c-5.252,0-9.524-4.271-9.524-9.524c0-5.252,4.271-9.524,9.524-9.524H161.906z M171.43,209.523
				v19.048h-47.619v-19.048H171.43z M147.62,151.819l-17.924-8.962l17.924-8.962l17.924,8.962L147.62,151.819z M271.43,219.048
				c0,5.252-4.271,9.524-9.524,9.524s-9.524-4.271-9.524-9.524c0-5.253,4.271-9.524,9.524-9.524S271.43,213.795,271.43,219.048z
				 M285.714,152.381h-47.619v-19.048h0h47.619V152.381z"/>
			<path d="M85.714,28.571c6.2,0,11.438-3.995,13.41-9.524H117.6c-12.271,8.624-20.69,22.353-22.119,38.096h-9.767v28.571h28.571
				V57.143h-9.243c2.381-21.395,20.557-38.095,42.576-38.095c22.019,0,40.2,16.7,42.576,38.095h-9.243v28.571h28.571V57.143h-9.767
				c-1.429-15.743-9.843-29.471-22.119-38.095h18.476c1.971,5.529,7.21,9.524,13.41,9.524c7.876,0,14.286-6.41,14.286-14.286
				C223.809,6.41,217.401,0,209.524,0c-6.2,0-11.438,3.995-13.41,9.524h-96.99C97.152,3.995,91.915,0,85.714,0
				c-7.876,0-14.286,6.41-14.286,14.286C71.428,22.162,77.839,28.571,85.714,28.571z M104.763,76.19h-9.524v-9.524h9.524V76.19z
				 M190.477,66.666h9.524v9.524h-9.524V66.666z M209.524,9.524c2.624,0,4.762,2.133,4.762,4.762c0,2.629-2.138,4.762-4.762,4.762
				c-2.624,0-4.762-2.133-4.762-4.762C204.763,11.657,206.901,9.524,209.524,9.524z M85.714,9.524c2.624,0,4.762,2.133,4.762,4.762
				c0,2.629-2.138,4.762-4.762,4.762c-2.624,0-4.762-2.133-4.762-4.762C80.953,11.657,83.091,9.524,85.714,9.524z"/>
		</g>
	</g>
</g>
<g>
</g>
<g>
</g>
<g>
</g>
<g>
</g>
<g>
</g>
<g>
</g>
<g>
</g>
<g>
</g>
<g>
</g>
<g>
</g>
<g>
</g>
<g>
</g>
<g>
</g>
<g>
</g>
<g>
</g>
</svg>
