<?xml version="1.0" encoding="iso-8859-1"?>
<!-- Generator: Adobe Illustrator 19.0.0, SVG Export Plug-In . SVG Version: 6.00 Build 0)  -->
<svg version="1.1" id="Layer_1" xmlns="http://www.w3.org/2000/svg" xmlns:xlink="http://www.w3.org/1999/xlink" x="0px" y="0px"
	 viewBox="0 0 295.239 295.239" style="enable-background:new 0 0 295.239 295.239;" xml:space="preserve">
<g>
	<g>
		<g>
			<circle cx="38.096" cy="90.476" r="4.762"/>
			<circle cx="57.144" cy="90.476" r="4.762"/>
			<circle cx="76.191" cy="90.476" r="4.762"/>
			<path d="M33.334,261.905h61.29l-61.29-57.686V261.905z M42.858,226.262l27.752,26.119H42.858V226.262z"/>
			<path d="M295.239,28.571V0.001h-28.571v9.524H171.43V0.001h-28.571v28.571h28.571v-9.524h16.1
				c-15.424,10.243-25.624,27.757-25.624,47.619H28.572c-7.876,0-14.286,6.41-14.286,14.286V140.6
				c-4.338-3.657-7.976-2.767-9.376-2.162C3.434,139.076,0,141.248,0,147.62v133.333c0,7.876,6.41,14.286,14.286,14.286h142.857
				c6.233,0,8.386-3.086,9.119-4.924c0.729-1.843,1.276-5.562-3.267-9.833l-4.557-4.29h122.514c7.876,0,14.286-6.41,14.286-14.286
				V80.953c0-7.876-6.41-14.286-14.286-14.286h-4.762c0-19.862-10.2-37.376-25.624-47.619h16.1v9.524H295.239z M276.191,9.524h9.524
				v9.524h-9.524V9.524z M161.906,19.048h-9.524V9.524h9.524V19.048z M23.811,80.951c0-2.622,2.138-4.761,4.761-4.761H162.72
				c0.005,0.038,0.057,0.048,0.086,0.071c1.814,10.719,6.629,20.538,13.805,28.5h-152.8V80.951z M14.287,285.714L14.287,285.714
				c-2.624,0.001-4.762-2.132-4.762-4.761v-4.762h9.524v-9.524H9.525v-9.524h9.524v-9.524H9.525v-9.524h9.524v-9.524H9.525v-9.524
				h9.524v-9.524H9.525v-9.522h9.524v-9.524H9.525v-9.524h9.524v-9.524H9.525v-22.314l49.819,46.89l14.367,13.519l80.952,76.19
				H14.287z M42.858,167.41v-34.076H147.62v66.666H77.487L42.858,167.41z M285.714,261.91c0.001,2.623-2.137,4.757-4.761,4.757
				H148.32l-60.714-57.143h69.538v-85.714H33.334v34.633l-9.524-8.962v-35.195h163.933c0.919,0.6,1.776,1.271,2.733,1.824v5.376
				c-2.871,2.176-4.762,5.59-4.762,9.462c0,2.69,0.929,5.148,2.443,7.143c-1.514,2-2.443,4.457-2.443,7.148
				c0,6.562,5.343,11.905,11.905,11.905h42.857c6.562,0,11.905-5.343,11.905-11.905c0-2.69-0.929-5.148-2.443-7.143
				c1.514-1.995,2.443-4.452,2.443-7.143c0-3.871-1.89-7.286-4.762-9.462v-5.376c0.957-0.552,1.814-1.224,2.733-1.824h35.362V261.91
				z M197.62,142.857h42.857c1.314,0,2.381,1.067,2.381,2.381c0,1.314-1.067,2.381-2.381,2.381H197.62
				c-1.314,0-2.381-1.067-2.381-2.381C195.239,143.925,196.306,142.857,197.62,142.857z M195.239,130.952
				c0-1.314,1.067-2.381,2.381-2.381h42.857c1.314,0,2.381,1.067,2.381,2.381c0,1.314-1.067,2.381-2.381,2.381H197.62
				C196.306,133.334,195.239,132.266,195.239,130.952z M275.377,76.191h5.576c2.624,0,4.762,2.138,4.762,4.762v23.81h-24.233
				c7.029-7.795,11.776-17.376,13.676-27.838C275.244,76.706,275.33,76.477,275.377,76.191z M266.668,66.667
				c0,17.938-9.952,34.176-25.981,42.376l-2.59,1.329v8.676h-14.286v-34.01c8.19-2.129,14.286-9.524,14.286-18.371
				c0-10.505-8.543-19.048-19.048-19.048s-19.048,8.543-19.048,19.048c0,8.848,6.095,16.243,14.286,18.371v34.01h-14.286v-8.676
				l-2.59-1.329c-16.029-8.2-25.981-24.438-25.981-42.376c0-26.257,21.362-47.619,47.619-47.619
				C245.306,19.048,266.668,40.41,266.668,66.667z M219.049,76.191c-5.252,0-9.524-4.271-9.524-9.524
				c0-5.252,4.271-9.524,9.524-9.524c5.253,0,9.524,4.271,9.524,9.524C228.572,71.92,224.301,76.191,219.049,76.191z"/>
			<rect x="166.668" y="171.43" width="109.524" height="9.524"/>
			<rect x="166.668" y="190.477" width="109.524" height="9.524"/>
			<rect x="166.668" y="209.524" width="109.524" height="9.524"/>
			<rect x="166.668" y="228.571" width="109.524" height="9.524"/>
		</g>
	</g>
</g>
<g>
</g>
<g>
</g>
<g>
</g>
<g>
</g>
<g>
</g>
<g>
</g>
<g>
</g>
<g>
</g>
<g>
</g>
<g>
</g>
<g>
</g>
<g>
</g>
<g>
</g>
<g>
</g>
<g>
</g>
</svg>
