<?xml version="1.0" encoding="iso-8859-1"?>
<!-- Generator: Adobe Illustrator 19.0.0, SVG Export Plug-In . SVG Version: 6.00 Build 0)  -->
<svg version="1.1" id="Layer_1" xmlns="http://www.w3.org/2000/svg" xmlns:xlink="http://www.w3.org/1999/xlink" x="0px" y="0px"
	 viewBox="0 0 295.238 295.238" style="enable-background:new 0 0 295.238 295.238;" xml:space="preserve">
<g>
	<g>
		<g>
			<path d="M252.381,128.571c-7.876,0-14.286,6.41-14.286,14.286s6.41,14.286,14.286,14.286c7.876,0,14.286-6.41,14.286-14.286
				S260.257,128.571,252.381,128.571z M252.381,147.619c-2.629,0-4.762-2.138-4.762-4.762c0-2.624,2.133-4.762,4.762-4.762
				c2.629,0,4.762,2.138,4.762,4.762C257.143,145.481,255.01,147.619,252.381,147.619z"/>
			<path d="M142.857,76.19c-26.257,0-47.619,21.362-47.619,47.62s21.362,47.619,47.619,47.619s47.619-21.362,47.619-47.619
				S169.114,76.19,142.857,76.19z M157.143,159.1c-4.414,1.795-9.233,2.805-14.286,2.805s-9.871-1.01-14.286-2.805v-11.481
				c0-7.876,6.41-14.286,14.286-14.286s14.286,6.41,14.286,14.286V159.1z M133.333,109.524c0-5.252,4.271-9.524,9.524-9.524
				c5.252,0,9.524,4.271,9.524,9.524c0,5.252-4.271,9.524-9.524,9.524C137.605,119.048,133.333,114.777,133.333,109.524z
				 M166.666,153.499v-5.881c0-9.705-5.852-18.038-14.2-21.743c5.619-3.319,9.438-9.371,9.438-16.352
				c0-10.505-8.543-19.048-19.048-19.048s-19.048,8.543-19.048,19.048c0,6.981,3.819,13.033,9.438,16.352
				c-8.348,3.705-14.2,12.038-14.2,21.743v5.881c-8.695-6.99-14.286-17.69-14.286-29.69c0.002-21.004,17.092-38.095,38.097-38.095
				s38.095,17.09,38.095,38.095C180.952,135.809,175.362,146.514,166.666,153.499z"/>
			<path d="M126.191,185.714h-19.048c-6.567,0-11.905,5.338-11.905,11.905c0,6.567,5.338,11.905,11.905,11.905h19.048
				c6.567,0,11.905-5.338,11.905-11.905C138.096,191.052,132.758,185.714,126.191,185.714z M126.191,200h-19.048
				c-1.31,0-2.381-1.071-2.381-2.381c0-1.309,1.071-2.381,2.381-2.381h19.048c1.31,0,2.381,1.071,2.381,2.381
				S127.501,200,126.191,200z"/>
			<path d="M178.571,185.714h-19.048c-6.567,0-11.905,5.338-11.905,11.905c0,6.567,5.338,11.905,11.905,11.905h19.048
				c6.567,0,11.905-5.338,11.905-11.905C190.476,191.052,185.138,185.714,178.571,185.714z M178.571,200h-19.048
				c-1.31,0-2.381-1.071-2.381-2.381s1.071-2.381,2.381-2.381h19.048c1.31,0,2.381,1.071,2.381,2.381S179.881,200,178.571,200z"/>
			<path d="M261.905,228.569c7.876,0,14.286-6.41,14.286-14.286V82.057c11.504-8.214,19.047-21.638,19.047-36.819
				C295.238,20.295,274.943,0,250,0h-33.333c-24.943,0-45.238,20.295-45.238,45.238c0,4.081,0.571,8.076,1.624,11.905H33.333
				c-7.876,0-14.286,6.41-14.286,14.286v57.143H9.524v48.495C3.995,179.038,0,184.276,0,190.476v47.619
				c0,6.2,3.995,11.438,9.524,13.41v43.733h47.619v-43.733c5.529-1.971,9.524-7.21,9.524-13.41v-9.524h14.286v52.381
				c0,7.876,6.41,14.286,14.286,14.286h119.048h9.524h38.095c7.876,0,14.286-6.41,14.286-14.286v-23.81
				c0-10.505-8.543-19.048-19.048-19.048h-4.762v38.095h4.762c3.486,0,6.71-1.01,9.524-2.648v7.41c0,2.629-2.133,4.762-4.762,4.762
				H237.22c0.533-1.495,0.876-3.086,0.876-4.762v-23.81c0-10.505-8.543-19.048-19.048-19.048h-4.762v38.095h4.762
				c3.486,0,6.71-1.01,9.524-2.648v7.41c0,2.629-2.133,4.762-4.762,4.762h-9.524H95.238c-2.629,0-4.762-2.133-4.762-4.762v-52.381
				H261.905z M261.905,265.386v-16.49c2.848,1.648,4.762,4.724,4.762,8.243C266.667,260.657,264.752,263.743,261.905,265.386z
				 M223.81,265.386v-16.49c2.848,1.648,4.762,4.724,4.762,8.243C228.571,260.657,226.657,263.743,223.81,265.386z M266.667,142.857
				v71.429c0,2.629-2.133,4.762-4.762,4.762h-23.81v-76.19v-0.001V90.476H250c5.89,0,11.5-1.167,16.667-3.224V142.857z
				 M216.667,9.524H250c19.695,0,35.714,16.019,35.714,35.714S269.695,80.952,250,80.952h-11.905h-9.524h-8.586L204.762,91.1V79.024
				l-2.795-1.267c-12.767-5.786-21.014-18.548-21.014-32.519C180.952,25.543,196.971,9.524,216.667,9.524z M28.571,71.429
				c0-2.624,2.133-4.762,4.762-4.762h14.286v61.905H28.571V71.429z M19.048,138.095h28.571v38.095H19.048V138.095z M47.619,285.714
				H19.048v-33.333h28.571V285.714z M57.143,214.286v23.81c0,2.629-2.133,4.762-4.762,4.762H14.286
				c-2.629,0-4.762-2.133-4.762-4.762v-23.772c0.021,13.111,10.693,23.772,23.809,23.772
				C46.462,238.096,57.143,227.415,57.143,214.286c0-13.129-10.681-23.81-23.81-23.81c-13.116,0-23.788,10.66-23.809,23.772v-23.772
				c0-2.629,2.133-4.762,4.762-4.762h38.095c2.629,0,4.762,2.133,4.762,4.762V214.286z M19.047,214.285
				c0-7.876,6.41-14.286,14.286-14.286s14.286,6.41,14.286,14.286c0,7.877-6.409,14.286-14.286,14.286
				C25.457,228.571,19.047,222.161,19.047,214.285z M66.667,219.047v-28.571c0-6.2-3.996-11.438-9.524-13.409v-48.495V66.667
				h119.819c4.143,7.652,10.395,14.129,18.276,18.381V108.9l27.633-18.424h5.7v128.571H66.667z"/>
			<rect x="200" y="28.571" width="66.667" height="9.524"/>
			<rect x="200" y="52.381" width="66.667" height="9.524"/>
		</g>
	</g>
</g>
<g>
</g>
<g>
</g>
<g>
</g>
<g>
</g>
<g>
</g>
<g>
</g>
<g>
</g>
<g>
</g>
<g>
</g>
<g>
</g>
<g>
</g>
<g>
</g>
<g>
</g>
<g>
</g>
<g>
</g>
</svg>
