<?xml version="1.0" encoding="iso-8859-1"?>
<!-- Generator: Adobe Illustrator 19.0.0, SVG Export Plug-In . SVG Version: 6.00 Build 0)  -->
<svg version="1.1" id="Layer_1" xmlns="http://www.w3.org/2000/svg" xmlns:xlink="http://www.w3.org/1999/xlink" x="0px" y="0px"
	 viewBox="0 0 296.576 296.576" style="enable-background:new 0 0 296.576 296.576;" xml:space="preserve">
<g>
	<g>
		<path d="M282.29,76.859h-43.733c0.533-1.495,0.876-3.086,0.876-4.762c0-7.876-6.41-14.286-14.286-14.286h-4.762V14.954
			c0-7.876-6.41-14.286-14.286-14.286H91.814c-7.876,0-14.286,6.41-14.286,14.286v38.095c0,2.629-2.138,4.762-4.762,4.762H29.91
			v-9.524c0-7.876-6.41-14.286-14.286-14.286H1.338v57.143h14.286c7.876,0,14.286-6.41,14.286-14.286v-9.524h42.857
			c7.876,0,14.286-6.41,14.286-14.286V14.954c0-2.629,2.138-4.762,4.762-4.762H206.1c2.624,0,4.762,2.133,4.762,4.762v42.857H206.1
			c-7.876,0-14.286,6.41-14.286,14.286c0,1.676,0.343,3.267,0.876,4.762h-43.733c-7.876,0-14.286,6.41-14.286,14.286H42.524
			l-29.762,23.81l29.762,23.81h92.148v9.524H63.543l-40.448-5.057L0,172.097l23.095,28.867l40.448-5.057h71.129v14.286H1.338v71.429
			h168.467c13.043,8.99,28.819,14.286,45.819,14.286c44.638,0,80.952-36.314,80.952-80.952V91.144
			C296.576,83.268,290.167,76.859,282.29,76.859z M20.386,76.859c0,2.629-2.138,4.762-4.762,4.762h-4.762V43.525h4.762
			c2.624,0,4.762,2.133,4.762,4.762V76.859z M39.433,124.092l-11.424-9.138l11.424-9.143V124.092z M134.671,129.239H48.957v-9.524
			h85.714V129.239z M134.671,110.192H48.957v-9.524h85.714V110.192z M58.481,186.974l-31.281,3.88l-11.19-13.995h5.257
			c1.967,5.529,7.205,9.524,13.405,9.524c7.876,0,14.286-6.41,14.286-14.286c0-7.876-6.41-14.286-14.286-14.286
			c-6.2,0-11.438,3.995-13.41,9.524H16.01l11.19-13.99l31.281,3.91V186.974z M29.91,172.097c0-2.629,2.138-4.762,4.762-4.762
			s4.762,2.133,4.762,4.762c0,2.629-2.138,4.762-4.762,4.762S29.91,174.725,29.91,172.097z M134.671,186.381H87.052v-28.57h-9.524
			v28.571h-9.524v-28.605l66.667,0.033V186.381z M206.1,67.335h19.048c2.624,0,4.762,2.133,4.762,4.762
			c0,2.629-2.138,4.762-4.762,4.762H206.1c-2.624,0-4.762-2.134-4.762-4.762C201.338,69.468,203.476,67.335,206.1,67.335z
			 M10.862,272.097v-52.381h9.524v14.286h9.524v-14.286h9.524v19.048h9.524v-19.048h9.524v14.286h9.524v-14.286h9.524v19.048h9.524
			v-19.048h9.524v14.286h9.524v-14.286h9.524v19.048h9.524v-19.048h9.767c1.195,20.381,9.867,38.786,23.429,52.381H10.862z
			 M287.052,214.953c0,39.386-32.042,71.429-71.428,71.429c-39.386,0-71.429-32.043-71.429-71.429v-19.048v-47.619v-4.762h142.857
			V214.953z M287.053,134.001h-66.667V95.906h-9.524v38.095h-66.667V91.144c0-2.628,2.138-4.762,4.762-4.762H206.1h19.048h57.143
			c2.624,0,4.762,2.133,4.762,4.762V134.001z"/>
	</g>
</g>
<g>
</g>
<g>
</g>
<g>
</g>
<g>
</g>
<g>
</g>
<g>
</g>
<g>
</g>
<g>
</g>
<g>
</g>
<g>
</g>
<g>
</g>
<g>
</g>
<g>
</g>
<g>
</g>
<g>
</g>
</svg>
