<?xml version="1.0" encoding="iso-8859-1"?>
<!-- Generator: Adobe Illustrator 19.0.0, SVG Export Plug-In . SVG Version: 6.00 Build 0)  -->
<svg version="1.1" id="Layer_1" xmlns="http://www.w3.org/2000/svg" xmlns:xlink="http://www.w3.org/1999/xlink" x="0px" y="0px"
	 viewBox="0 0 295.238 295.238" style="enable-background:new 0 0 295.238 295.238;" xml:space="preserve">
<g>
	<g>
		<g>
			<path d="M285.714,247.495L285.714,247.495V99.875c0-10.505-8.543-19.048-19.048-19.048h-23.233
				c-0.124-0.424-0.214-0.862-0.348-1.281l-4.095,1.281h-19.943v-7.705l-61.633-30.813L76.19,72.766v8.062H54.233l-2.267-0.69
				c-0.071,0.229-0.114,0.462-0.181,0.69H28.571c-10.505,0-19.048,8.543-19.048,19.048v147.619H0v19.048
				c0,10.505,8.543,19.048,19.048,19.048H276.19c10.505,0,19.048-8.543,19.048-19.048v-19.048H285.714z M161.905,55.2l40.481,20.243
				l-40.481,15.181V55.2z M161.905,100.794l47.619-17.857v52.09l-47.619-23.809V100.794z M202.39,142.109l-59.533,22.324v-39.829
				l14.014-5.257L202.39,142.109z M142.857,114.432v-6.495l9.524-3.571v6.495L142.857,114.432z M152.381,54.366v39.829
				l-14.014,5.257L92.848,76.689L152.381,54.366z M85.714,83.771l47.619,23.809v10.424l-47.619,17.857V83.771z M133.333,128.176
				v35.424l-40.481-20.243L133.333,128.176z M137.823,176.489l81.224-30.457V109.4h19.048c0,4.514-0.333,9.048-0.995,13.486
				l9.419,1.4c0.724-4.867,1.09-9.848,1.095-14.886h9.529v119.048H38.095V109.4H76.19v36.276L137.823,176.489z M19.048,99.875
				c0-5.252,4.271-9.524,9.524-9.524H49.5c-0.281,1.452-0.595,2.9-0.81,4.357l9.424,1.39c0.286-1.924,0.662-3.838,1.071-5.748H76.19
				v9.524H28.571v138.095h238.095V99.875h-47.619v-9.524h16.995c0.371,1.724,0.733,3.457,1,5.195l9.414-1.443
				c-0.19-1.257-0.481-2.5-0.719-3.752h20.929c5.252,0,9.524,4.271,9.524,9.524v147.619H161.905v9.524h-28.571v-9.524H19.048V99.875
				z M285.715,266.542h-0.001c0,5.252-4.271,9.524-9.524,9.524H19.048c-5.252,0-9.524-4.271-9.524-9.524v-9.524H123.81
				c0,5.252,4.271,9.524,9.524,9.524h28.571c5.252,0,9.524-4.271,9.524-9.524h114.286V266.542z"/>
			<path d="M91.033,38.794l-5.962-7.429c-3.871,3.11-7.548,6.538-10.919,10.186l6.995,6.462
				C84.2,44.713,87.524,41.614,91.033,38.794z"/>
			<path d="M114.314,25.247l-3.505-8.852c-4.605,1.824-9.124,4.019-13.429,6.524l4.79,8.233
				C106.062,28.88,110.148,26.895,114.314,25.247z"/>
			<path d="M72.733,58.604l-7.876-5.352c-2.795,4.114-5.305,8.476-7.452,12.952l8.59,4.114C67.933,66.27,70.2,62.333,72.733,58.604z
				"/>
			<path d="M237.567,65.656c-2.171-4.457-4.7-8.795-7.524-12.895l-7.843,5.4c2.557,3.71,4.848,7.638,6.81,11.667L237.567,65.656z"/>
			<path d="M57.143,109.585l-9.524,0.019c0.01,4.986,0.39,9.995,1.129,14.886l9.419-1.424
				C57.5,118.637,57.152,114.099,57.143,109.585z"/>
			<path d="M213.729,47.629l6.957-6.5c-3.386-3.629-7.081-7.038-10.976-10.124l-5.919,7.457
				C207.32,41.257,210.662,44.343,213.729,47.629z"/>
			<path d="M197.338,22.619c-4.319-2.481-8.857-4.652-13.481-6.448l-3.457,8.876c4.186,1.629,8.286,3.59,12.2,5.833L197.338,22.619z
				"/>
			<path d="M169.552,11.814c-4.838-1.086-9.81-1.814-14.781-2.167l-0.676,9.5c4.5,0.319,9,0.976,13.371,1.957L169.552,11.814z"/>
			<path d="M140.576,19.19l-0.733-9.495c-4.976,0.386-9.943,1.148-14.767,2.257l2.138,9.281
				C131.576,20.229,136.071,19.538,140.576,19.19z"/>
			<path d="M210.01,187.551l-5.943-7.443c-3.519,2.815-7.272,5.381-11.157,7.634l4.776,8.238
				C201.981,193.49,206.124,190.651,210.01,187.551z"/>
			<path d="M184.238,202.481l-3.486-8.862c-4.176,1.647-8.519,2.985-12.909,3.99l2.119,9.286
				C174.819,205.786,179.619,204.3,184.238,202.481z"/>
			<path d="M230.267,165.708l-7.867-5.367c-2.533,3.715-5.371,7.272-8.433,10.572l6.981,6.476
				C224.334,173.737,227.472,169.813,230.267,165.708z"/>
			<path d="M243.205,138.856l-9.105-2.8c-1.314,4.291-2.971,8.524-4.933,12.586l8.581,4.133
				C239.915,148.286,241.748,143.604,243.205,138.856z"/>
			<path d="M127.585,197.653c-4.39-0.99-8.738-2.324-12.924-3.962l-3.466,8.866c4.633,1.814,9.438,3.286,14.295,4.386
				L127.585,197.653z"/>
			<path d="M155.19,209.114l-0.71-9.495c-4.47,0.338-9.056,0.343-13.528,0.014l-0.69,9.5c2.433,0.176,4.881,0.267,7.357,0.267
				C150.167,209.399,152.69,209.304,155.19,209.114z"/>
			<path d="M102.481,187.836c-3.89-2.243-7.648-4.805-11.176-7.614l-5.934,7.448c3.895,3.1,8.048,5.933,12.348,8.414
				L102.481,187.836z"/>
			<path d="M65.076,165.867c2.805,4.095,5.948,8.019,9.333,11.652l6.971-6.486c-3.067-3.295-5.91-6.843-8.448-10.552L65.076,165.867
				z"/>
			<path d="M61.186,136.232l-9.095,2.819c1.471,4.748,3.319,9.424,5.486,13.9l8.571-4.152
				C64.186,144.752,62.514,140.523,61.186,136.232z"/>
		</g>
	</g>
</g>
<g>
</g>
<g>
</g>
<g>
</g>
<g>
</g>
<g>
</g>
<g>
</g>
<g>
</g>
<g>
</g>
<g>
</g>
<g>
</g>
<g>
</g>
<g>
</g>
<g>
</g>
<g>
</g>
<g>
</g>
</svg>
