<?xml version="1.0" encoding="iso-8859-1"?>
<!-- Generator: Adobe Illustrator 19.0.0, SVG Export Plug-In . SVG Version: 6.00 Build 0)  -->
<svg version="1.1" id="Layer_1" xmlns="http://www.w3.org/2000/svg" xmlns:xlink="http://www.w3.org/1999/xlink" x="0px" y="0px"
	 viewBox="0 0 295.238 295.238" style="enable-background:new 0 0 295.238 295.238;" xml:space="preserve">
<g>
	<g>
		<path d="M276.19,52.38H19.048C8.543,52.38,0,60.924,0,71.429v152.381c0,10.505,8.543,19.048,19.048,19.048H276.19
			c10.505,0,19.048-8.543,19.048-19.048V71.429C295.238,60.924,286.695,52.38,276.19,52.38z M152.38,61.904h123.81
			c5.253,0,9.524,4.271,9.524,9.524v100.876c-1.495-0.533-3.086-0.876-4.762-0.876h-4.762v-68.639l-31.362-31.362h-82.924v100
			h-9.524V61.904z M171.429,199.999h95.238v14.286h-95.238V199.999z M166.667,190.476v-9.524h38.095v9.524H166.667z
			 M171.429,171.429V80.952h66.667v28.571h28.571v0.001v61.905H171.429z M247.619,100V87.685L259.933,100H247.619z M142.858,214.284
			H28.571v-54.942l7.271,27.881c1.686,6.443,7.552,10.752,13.948,10.752c1.143,0,2.305-0.138,3.462-0.429l57.71-14.429
			c3.7-0.924,6.814-3.243,8.762-6.529s2.49-7.129,1.529-10.814L99.124,80.952h43.733v95.867l-6.205,4.133H123.81v9.524h12.843
			l6.205,4.133V214.284z M91.3,88.695l15.69,60.157l-66.947,16.738l-15.69-60.157L91.3,88.695z M21.948,96.218l-0.648-2.49
			c-0.314-1.21-0.138-2.476,0.5-3.552c0.643-1.086,1.667-1.848,2.881-2.148l34.624-8.657L82.4,73.594
			c0.371-0.09,0.748-0.138,1.119-0.138c2.157,0,4.195,1.481,4.757,3.629l0.624,2.395L21.948,96.218z M85.386,164.07l24.014-6.005
			l2.633,10.11c0.314,1.21,0.138,2.476-0.5,3.552c-0.643,1.086-1.667,1.848-2.881,2.148L89.4,178.689
			c0.676-1.49,1.076-3.138,1.076-4.881C90.476,169.779,88.452,166.228,85.386,164.07z M80.952,173.809
			c0,1.314-1.066,2.381-2.381,2.381c-1.314,0-2.381-1.067-2.381-2.381c0-1.314,1.067-2.381,2.381-2.381
			C79.885,171.427,80.952,172.494,80.952,173.809z M71.348,183.205l-20.405,5.1c-2.538,0.629-5.224-0.967-5.881-3.486l-2.614-10.01
			l25.571-6.39c-0.833,1.624-1.352,3.438-1.352,5.39C66.667,177.648,68.524,181.028,71.348,183.205z M142.858,71.429H96.143
			c-3.071-5.581-9.605-8.681-16.062-7.071l-28.286,7.071H28.571c-4.952,0-8.99,3.814-9.438,8.652
			c-2.262,1.205-4.186,2.967-5.529,5.233c-1.948,3.286-2.49,7.129-1.529,10.814l6.971,26.705v91.452
			c0,5.252,4.271,9.524,9.524,9.524h114.286v9.524H19.048c-5.253,0-9.524-4.271-9.524-9.523V71.429c0-5.252,4.271-9.524,9.524-9.524
			h123.81V71.429z M153.824,180.952h3.319v9.524h-3.319l-7.143-4.762L153.824,180.952z M285.714,223.809
			c0,5.252-4.271,9.523-9.524,9.523H152.38v-9.524v-23.809h9.524v23.81H276.19v-23.81h4.762c1.676,0,3.267-0.343,4.762-0.876
			V223.809z M280.953,190.475h-66.667v-9.524h66.667c2.624,0,4.762,2.138,4.762,4.762
			C285.715,188.337,283.577,190.475,280.953,190.475z"/>
	</g>
</g>
<g>
</g>
<g>
</g>
<g>
</g>
<g>
</g>
<g>
</g>
<g>
</g>
<g>
</g>
<g>
</g>
<g>
</g>
<g>
</g>
<g>
</g>
<g>
</g>
<g>
</g>
<g>
</g>
<g>
</g>
</svg>
