<?xml version="1.0" encoding="iso-8859-1"?>
<!-- Generator: Adobe Illustrator 19.0.0, SVG Export Plug-In . SVG Version: 6.00 Build 0)  -->
<svg version="1.1" id="Layer_1" xmlns="http://www.w3.org/2000/svg" xmlns:xlink="http://www.w3.org/1999/xlink" x="0px" y="0px"
	 viewBox="0 0 295.315 295.315" style="enable-background:new 0 0 295.315 295.315;" xml:space="preserve">
<g>
	<g>
		<path d="M271.505,171.467v-52.381c0-10.505-8.543-19.048-19.048-19.048h-28.571V38.134c0-7.876-6.41-14.286-14.286-14.286h-9.524
			v-9.524c0-7.876-6.41-14.286-14.286-14.286H109.6c-7.876,0-14.286,6.41-14.286,14.286v9.524H85.79
			c-7.876,0-14.286,6.41-14.286,14.286v61.905H42.933c-10.505,0-19.048,8.543-19.048,19.048v62.543L0,195.277l23.886,13.648v33.971
			c0,10.505,8.543,19.048,19.048,19.048h61.905v23.81H85.79v9.524h19.048h85.714H209.6v-9.524h-19.048v-23.81h61.905
			c10.505,0,19.048-8.543,19.048-19.048v-23.81c13.129,0,23.81-10.681,23.81-23.81C295.315,182.147,284.633,171.467,271.505,171.467
			z M223.886,114.324v-4.762h28.571c5.252,0,9.524,4.271,9.524,9.524v52.381h-9.524v-52.381H223.01
			C223.543,117.592,223.886,116.001,223.886,114.324z M252.457,180.991v28.572h-9.524v-28.572H252.457z M200.076,33.371h9.524
			c2.624,0,4.762,2.138,4.762,4.762v76.19c0,2.624-2.138,4.762-4.762,4.762h-9.524V33.371z M104.838,14.324
			c0-2.624,2.138-4.762,4.762-4.762h76.19c2.624,0,4.762,2.138,4.762,4.762v9.524h-85.714V14.324z M104.838,76.23V33.371h42.857
			h42.857v42.857v0.001v42.856h-42.816c23.61-0.022,42.816-19.242,42.816-42.856c0-23.628-19.229-42.857-42.857-42.857
			S104.838,52.6,104.838,76.23c0,23.615,19.207,42.834,42.816,42.856h-42.816V76.23z M114.362,76.228
			c0-18.381,14.952-33.333,33.333-33.333s33.333,14.952,33.333,33.333c0,18.381-14.952,33.333-33.333,33.333
			C129.314,109.561,114.362,94.61,114.362,76.228z M104.838,128.611h85.714v9.524c0,2.624-2.138,4.762-4.762,4.762H109.6
			c-2.624,0-4.762-2.138-4.762-4.762V128.611z M81.028,38.134L81.028,38.134c0.001-2.624,2.139-4.762,4.763-4.762h9.524v85.714
			H85.79c-2.624,0-4.762-2.138-4.762-4.762V38.134z M85.79,128.611h9.524v9.524c0,7.876,6.41,14.286,14.286,14.286h76.19
			c7.876,0,14.286-6.41,14.286-14.286v-9.524h9.524h33.333v42.857H52.457v-42.857H85.79z M233.41,200.038v9.524H47.695v-9.524
			H233.41z M47.695,190.514v-9.524H233.41v9.524H47.695z M52.457,219.087h190.476v14.286H52.457V219.087z M33.409,119.087
			L33.409,119.087c0.001-5.252,4.272-9.524,9.525-9.524h28.571v4.762c0,1.676,0.343,3.267,0.876,4.762H42.933v52.381h-1.267
			l-8.257,4.719V119.087z M19.2,195.277l18.971-10.843v21.686L19.2,195.277z M181.029,285.753h-66.667v-23.81h66.667V285.753z
			 M261.981,242.896c0,5.252-4.271,9.524-9.524,9.524h-61.905h-85.714H42.933c-5.252,0-9.524-4.271-9.524-9.524v-28.529l8.257,4.719
			h1.267v23.81h209.524v-23.81h9.524V242.896z M271.505,209.563h-9.524v-28.572h9.524c7.876,0,14.286,6.41,14.286,14.286
			C285.79,203.152,279.381,209.563,271.505,209.563z"/>
	</g>
</g>
<g>
</g>
<g>
</g>
<g>
</g>
<g>
</g>
<g>
</g>
<g>
</g>
<g>
</g>
<g>
</g>
<g>
</g>
<g>
</g>
<g>
</g>
<g>
</g>
<g>
</g>
<g>
</g>
<g>
</g>
</svg>
