<?xml version="1.0" encoding="iso-8859-1"?>
<!-- Generator: Adobe Illustrator 19.0.0, SVG Export Plug-In . SVG Version: 6.00 Build 0)  -->
<svg version="1.1" id="Layer_1" xmlns="http://www.w3.org/2000/svg" xmlns:xlink="http://www.w3.org/1999/xlink" x="0px" y="0px"
	 viewBox="0 0 285.714 285.714" style="enable-background:new 0 0 285.714 285.714;" xml:space="preserve">
<g>
	<g>
		<g>
			<path d="M185.714,57.143c0-23.633-19.224-42.857-42.857-42.857S100,33.51,100,57.143c0,14.281,7.233,27.676,19.048,35.595v7.505
				c-5.429,1.105-9.524,5.914-9.524,11.662c0,4.238,2.238,7.933,5.576,10.048c-0.505,1.319-0.814,2.738-0.814,4.238
				c0,6.567,5.338,11.905,11.905,11.905h33.333c6.567,0,11.905-5.338,11.905-11.905c0-1.5-0.31-2.919-0.814-4.238
				c3.338-2.114,5.576-5.81,5.576-10.048c0-5.752-4.095-10.557-9.524-11.662v-7.505C178.481,84.819,185.714,71.424,185.714,57.143z
				 M159.524,128.571H126.19c-1.31,0-2.381-1.071-2.381-2.381s1.071-2.381,2.381-2.381h33.333c1.31,0,2.381,1.071,2.381,2.381
				S160.833,128.571,159.524,128.571z M164.286,114.286h-4.762H126.19h-4.762c-1.31,0-2.381-1.071-2.381-2.381
				s1.072-2.381,2.382-2.381h42.857c1.31,0,2.381,1.071,2.381,2.381S165.596,114.286,164.286,114.286z M138.095,57.143
				c0-2.629,2.133-4.762,4.762-4.762c2.629,0,4.762,2.133,4.762,4.762c0,2.629-2.133,4.762-4.762,4.762
				C140.229,61.905,138.095,59.771,138.095,57.143z M159.519,85.981l-2.376,1.376V100h-9.524V70.552
				c5.529-1.971,9.524-7.21,9.524-13.41c0-7.876-6.41-14.286-14.286-14.286s-14.286,6.41-14.286,14.286
				c0,6.2,3.995,11.438,9.524,13.41V100h-9.524V87.357l-2.376-1.376c-10.281-5.957-16.671-17.01-16.671-28.838
				c0-18.376,14.957-33.333,33.333-33.333s33.333,14.957,33.333,33.333C176.19,68.972,169.8,80.024,159.519,85.981z"/>
			<path d="M183,223.333c-2.167-5.495-7.386-9.048-13.29-9.048h-3.043v-54.762c0-9.19-7.476-16.667-16.667-16.667
				c-9.191,0-16.667,7.476-16.667,16.667v22.643c-1.69-0.719-3.481-1.214-5.381-1.214h-4.519c-7.667,0-13.91,6.243-13.91,13.91
				v0.376h-5.138c-7.667,0-13.91,6.243-13.91,13.91v0.376H90.1c-7.667,0-13.91,6.243-13.91,13.91v0.376v0.971v9.557
				c0,6.552,1.319,12.919,3.924,18.933l7.219,16.662c2.086,4.814,3.143,9.905,3.143,15.148v0.633H100v-0.638
				c0-6.552-1.319-12.919-3.924-18.933l-7.219-16.662c-1.238-2.857-2.071-5.824-2.576-8.848l17.905,17.905
				c2.786,2.786,6.443,4.176,10.1,4.176s7.314-1.39,10.1-4.176l0.819-0.819c2.257-2.257,3.552-5.09,3.981-8.024
				c0.19,0.01,0.376,0.052,0.567,0.052c2.567,0,5.148-0.705,7.424-2.148l0.29-0.181c0.681-0.457,1.295-0.981,1.876-1.538
				c2.148,1.933,4.771,3.386,7.729,4.124l6.386,1.6l3.938,11.805l9.029-3.014l-5.586-16.767l-11.457-2.867
				c-3.843-0.957-6.524-4.386-6.524-8.343c0-4.748,3.862-8.61,8.61-8.61h5.676h9.524h3.043c1.938,0,3.719,1.214,4.429,3.014
				l5.824,14.781c0.657,1.676,0.99,3.438,0.99,5.233v1.048c0,2.205-0.519,4.419-1.505,6.39l-5.505,11.01
				c-1.643,3.281-2.514,6.967-2.514,10.638v9.79h9.524v-9.79c0-2.205,0.519-4.419,1.505-6.39l5.505-11.01
				c1.643-3.281,2.514-6.967,2.514-10.638v-1.048c0-2.995-0.557-5.929-1.657-8.724L183,223.333z M118.471,250.986l-0.819,0.819
				c-1.862,1.862-4.871,1.862-6.733,0L87,227.886c-0.829-0.829-1.286-1.933-1.286-3.105v-0.971v-0.376
				c0-2.419,1.967-4.386,4.386-4.386h1.348c1.171,0,2.276,0.457,3.1,1.286l23.919,23.919
				C120.329,246.11,120.329,249.129,118.471,250.986z M133.935,236.995c-0.202,0.767-0.659,1.729-1.678,2.443l-0.095,0.062
				c-1.738,1.152-4.057,0.924-5.529-0.548l-1.433-1.433L101.281,213.6c-0.824-0.829-1.281-1.933-1.281-3.105v-1.348
				c0-2.419,1.967-4.386,4.386-4.386h5.324c1.371,0,2.671,0.652,3.495,1.743l11.048,14.724l9,11.976
				c0.038,0.048,0.071,0.129,0.11,0.129c0.005,0,0.005,0,0.01,0l0.048,0.086c0.067,1.205,0.257,2.386,0.552,3.524
				C133.959,236.962,133.954,236.981,133.935,236.995z M142.853,215.676c0.005,1.319-4.176,3.371-6.138,8.133
				c-0.005,0-0.01,0-0.014,0l-10.214-14.548l-5.648-7.99l-0.91-1.562c-0.581-0.776-0.881-1.8-0.881-2.762v-2.085
				c0-2.419,1.967-4.386,4.386-4.386h4.519c1.59,0,2.224,0.867,2.995,2.257l11.905,22.938
				C142.853,215.676,142.853,215.676,142.853,215.676z M157.143,214.286h-2.49l-11.795-21.229v-33.533
				c-0.001-3.938,3.204-7.143,7.142-7.143s7.143,3.205,7.143,7.143V214.286z"/>
			<rect x="138.095" width="9.524" height="9.524"/>
			<rect x="111.904" y="7.018" transform="matrix(0.4999 0.8661 -0.8661 0.4999 68.5484 -95.1522)" width="9.524" height="9.524"/>
			<rect x="92.728" y="26.19" transform="matrix(0.8661 0.4999 -0.4999 0.8661 28.5282 -44.5898)" width="9.524" height="9.524"/>
			<rect x="85.714" y="52.381" width="9.524" height="9.524"/>
			
				<rect x="92.728" y="78.577" transform="matrix(-0.4999 -0.8661 0.8661 -0.4999 74.0455 209.4339)" width="9.524" height="9.524"/>
			
				<rect x="183.453" y="78.567" transform="matrix(-0.8661 -0.4999 0.4999 -0.8661 309.5707 249.5876)" width="9.524" height="9.524"/>
			<rect x="190.476" y="52.381" width="9.524" height="9.524"/>
			
				<rect x="183.459" y="26.197" transform="matrix(0.4999 0.8661 -0.8661 0.4999 120.9447 -147.5333)" width="9.524" height="9.524"/>
			<rect x="164.279" y="7.013" transform="matrix(0.8661 0.4999 -0.4999 0.8661 28.5226 -82.9253)" width="9.524" height="9.524"/>
			<polygon points="276.19,57.143 276.19,47.619 266.667,47.619 266.667,57.143 257.143,57.143 257.143,66.667 266.667,66.667 
				266.667,76.19 276.19,76.19 276.19,66.667 285.714,66.667 285.714,57.143 			"/>
			<polygon points="228.571,28.571 238.095,28.571 238.095,19.048 247.619,19.048 247.619,9.524 238.095,9.524 238.095,0 228.571,0 
				228.571,9.524 219.048,9.524 219.048,19.048 228.571,19.048 			"/>
			<polygon points="19.048,76.19 9.524,76.19 9.524,85.714 0,85.714 0,95.238 9.524,95.238 9.524,104.762 19.048,104.762 
				19.048,95.238 28.571,95.238 28.571,85.714 19.048,85.714 			"/>
			<polygon points="61.905,38.095 52.381,38.095 52.381,28.571 42.857,28.571 42.857,38.095 33.333,38.095 33.333,47.619 
				42.857,47.619 42.857,57.143 52.381,57.143 52.381,47.619 61.905,47.619 			"/>
			<polygon points="76.19,152.381 76.19,142.857 85.714,142.857 85.714,133.333 76.19,133.333 76.19,123.81 66.667,123.81 
				66.667,133.333 57.143,133.333 57.143,142.857 66.667,142.857 66.667,152.381 			"/>
			<polygon points="242.857,100 233.333,100 233.333,109.524 223.81,109.524 223.81,119.048 233.333,119.048 233.333,128.571 
				242.857,128.571 242.857,119.048 252.381,119.048 252.381,109.524 242.857,109.524 			"/>
		</g>
	</g>
</g>
<g>
</g>
<g>
</g>
<g>
</g>
<g>
</g>
<g>
</g>
<g>
</g>
<g>
</g>
<g>
</g>
<g>
</g>
<g>
</g>
<g>
</g>
<g>
</g>
<g>
</g>
<g>
</g>
<g>
</g>
</svg>
