<?xml version="1.0" encoding="iso-8859-1"?>
<!-- Generator: Adobe Illustrator 19.0.0, SVG Export Plug-In . SVG Version: 6.00 Build 0)  -->
<svg version="1.1" id="Layer_1" xmlns="http://www.w3.org/2000/svg" xmlns:xlink="http://www.w3.org/1999/xlink" x="0px" y="0px"
	 viewBox="0 0 298.415 298.415" style="enable-background:new 0 0 298.415 298.415;" xml:space="preserve">
<g>
	<g>
		<path d="M250.795,101.587H160.41l70.367-92.352c1.448-1.9,1.262-4.586-0.443-6.267c-1.695-1.686-4.381-1.843-6.271-0.376
			L96.776,101.587H63.495L0,149.206l63.495,47.619h77.686l-70.367,92.352c-1.448,1.9-1.262,4.586,0.443,6.267
			c0.919,0.914,2.129,1.381,3.348,1.381c1.029,0,2.062-0.329,2.924-1l127.286-99h45.981c26.257,0,47.619-21.362,47.619-47.619
			S277.052,101.587,250.795,101.587z M26.986,157.54l-11.11-8.333l11.11-8.334V157.54z M60.319,182.539l-23.81-17.857V133.73
			l23.81-17.857V182.539z M69.843,111.11h25.9l11.638,19.048H69.843V111.11z M69.843,139.682h43.362l11.638,19.048h-55V139.682z
			 M69.843,187.302v-19.048h60.819l11.638,19.048H69.843z M100.581,265.825l54.005-70.876c1.186-1.562,1.295-3.69,0.276-5.367
			l-50.167-82.086l96.314-74.91l-54.005,70.876c-1.186,1.562-1.295,3.69-0.276,5.367l50.162,82.086L100.581,265.825z
			 M222.224,187.301h-16.376l-11.638-19.048h28.014V187.301z M222.224,158.73h-33.838l-11.638-19.048h45.476V158.73z
			 M222.224,130.158h-51.295l-11.638-19.048h62.933V130.158z M246.034,187.301h-14.286v-76.19h14.286V187.301z M255.557,186.973
			V111.44c18.762,2.357,33.333,18.376,33.333,37.767S274.319,184.616,255.557,186.973z"/>
	</g>
</g>
<g>
</g>
<g>
</g>
<g>
</g>
<g>
</g>
<g>
</g>
<g>
</g>
<g>
</g>
<g>
</g>
<g>
</g>
<g>
</g>
<g>
</g>
<g>
</g>
<g>
</g>
<g>
</g>
<g>
</g>
</svg>
