<?xml version="1.0" encoding="iso-8859-1"?>
<!-- Generator: Adobe Illustrator 19.0.0, SVG Export Plug-In . SVG Version: 6.00 Build 0)  -->
<svg version="1.1" id="Layer_1" xmlns="http://www.w3.org/2000/svg" xmlns:xlink="http://www.w3.org/1999/xlink" x="0px" y="0px"
	 viewBox="0 0 295.239 295.239" style="enable-background:new 0 0 295.239 295.239;" xml:space="preserve">
<g>
	<g>
		<g>
			<path d="M47.619,0v200H14.286C6.41,200,0,206.41,0,214.286c0,7.876,6.41,14.286,14.286,14.286h14.286v4.762
				c0,7.876,6.41,14.286,14.286,14.286h4.762v47.619h206.733l40.886-40.886V0H47.619z M28.572,219.048H14.286v0
				c-2.624,0-4.762-2.133-4.762-4.762c0-2.629,2.138-4.762,4.762-4.762h14.286V219.048z M47.619,238.095h-4.762v0
				c-2.624,0-4.762-2.133-4.762-4.762v-4.762h9.524V238.095z M38.095,219.048v-9.524h171.429v9.524H38.095z M257.143,278.981
				v-21.838h21.838L257.143,278.981z M285.714,247.619h-38.095v38.095H57.143v-38.095h23.11l1.376-2.367
				c1.743-2.995,6.433-2.995,8.176,0l1.371,2.367h13.586v-9.524H96.31c-2.681-2.99-6.538-4.762-10.595-4.762
				c-4.057,0-7.914,1.771-10.595,4.762H57.143v-9.524H210.4c1.971,5.529,7.21,9.524,13.41,9.524c5.4,0,10.057-3.048,12.481-7.481
				l16.686,8.343l30.838-24.671l-30.838-24.671l-16.686,8.343c-2.424-4.433-7.081-7.481-12.481-7.481
				c-6.2,0-11.438,3.995-13.41,9.524H57.143V9.524h228.571V247.619z M219.048,223.81v-19.048c0-2.629,2.138-4.762,4.762-4.762
				c2.624,0,4.762,2.133,4.762,4.762v19.048c0,2.629-2.138,4.762-4.762,4.762C221.186,228.572,219.048,226.439,219.048,223.81z
				 M262.615,219.048l-10.829,8.662l-13.69-6.843v-13.162l13.69-6.843l10.829,8.662h-10.233v9.524H262.615z"/>
			<path d="M219.048,23.81H71.429v104.762h147.619V23.81z M209.524,119.047H80.952V84.176l42.857-17.143l45.848,18.343l3.538-8.843
				l-11.319-4.529l28.81-14.405l18.838,7.529V119.047z M150.366,67.395l-7.943-3.176c3.562-4.39,8.938-7.076,14.719-7.076
				c3.125,0,6.11,0.786,8.777,2.19l-15.667,7.833L150.366,67.395z M209.524,54.871l-19.262-7.705L175.595,54.5
				c-5.086-4.371-11.548-6.881-18.452-6.881c-9.681,0-18.638,4.971-23.857,12.948l-9.476-3.79L80.952,73.919V33.333h128.572V54.871z
				"/>
			<rect x="228.571" y="23.81" width="42.857" height="9.524"/>
			<rect x="228.571" y="47.619" width="42.857" height="9.524"/>
			<rect x="228.571" y="71.429" width="42.857" height="9.524"/>
			<rect x="228.571" y="95.238" width="42.857" height="9.524"/>
			<rect x="228.571" y="119.048" width="42.857" height="9.524"/>
			<polygon points="85.714,176.19 95.238,176.19 95.238,152.381 109.524,152.381 109.524,142.857 71.429,142.857 71.429,152.381 
				85.714,152.381 			"/>
			<rect x="123.81" y="142.857" width="147.619" height="9.524"/>
			<rect x="123.81" y="166.667" width="147.619" height="9.524"/>
		</g>
	</g>
</g>
<g>
</g>
<g>
</g>
<g>
</g>
<g>
</g>
<g>
</g>
<g>
</g>
<g>
</g>
<g>
</g>
<g>
</g>
<g>
</g>
<g>
</g>
<g>
</g>
<g>
</g>
<g>
</g>
<g>
</g>
</svg>
