<?xml version="1.0" encoding="iso-8859-1"?>
<!-- Generator: Adobe Illustrator 19.0.0, SVG Export Plug-In . SVG Version: 6.00 Build 0)  -->
<svg version="1.1" id="Layer_1" xmlns="http://www.w3.org/2000/svg" xmlns:xlink="http://www.w3.org/1999/xlink" x="0px" y="0px"
	 viewBox="0 0 295.238 295.238" style="enable-background:new 0 0 295.238 295.238;" xml:space="preserve">
<g>
	<g>
		<g>
			<path d="M225.338,200l60.538-34.952l-47.619-82.476l-60.543,34.952l34.952-60.538l-82.48-47.619L95.238,69.9V0H0v247.619
				c0,26.257,21.362,47.619,47.619,47.619h247.619V200H225.338z M234.767,95.581l38.095,65.981L206.286,200H54.01L234.767,95.581z
				 M133.676,22.376l65.981,38.095l-38.443,66.576L29.343,203.186L133.676,22.376z M9.524,9.524h76.19v76.871L9.524,218.362V9.524z
				 M47.619,285.714c-21.005,0-38.095-17.09-38.095-38.095c0-6.562,1.667-12.738,4.6-18.133l0.033,0.019l0.833-1.448
				c3.21-5.333,7.676-9.805,13-13.024l1.957-1.129c5.29-2.786,11.295-4.381,17.671-4.381h238.095v76.191H47.619z"/>
			<path d="M47.62,223.809c-13.129,0-23.81,10.681-23.81,23.81c0,13.129,10.681,23.81,23.81,23.81
				c13.129,0,23.81-10.681,23.81-23.81C71.43,234.49,60.749,223.809,47.62,223.809z M47.619,261.905
				c-7.876,0-14.286-6.41-14.286-14.286c0-7.876,6.41-14.286,14.286-14.286c7.876,0,14.286,6.41,14.286,14.286
				C61.905,255.495,55.495,261.905,47.619,261.905z"/>
			<rect x="104.762" y="261.905" width="161.905" height="9.524"/>
			<rect x="80.952" y="261.905" width="14.286" height="9.524"/>
		</g>
	</g>
</g>
<g>
</g>
<g>
</g>
<g>
</g>
<g>
</g>
<g>
</g>
<g>
</g>
<g>
</g>
<g>
</g>
<g>
</g>
<g>
</g>
<g>
</g>
<g>
</g>
<g>
</g>
<g>
</g>
<g>
</g>
</svg>
