<?xml version="1.0" encoding="iso-8859-1"?>
<!-- Generator: Adobe Illustrator 19.0.0, SVG Export Plug-In . SVG Version: 6.00 Build 0)  -->
<svg version="1.1" id="Layer_1" xmlns="http://www.w3.org/2000/svg" xmlns:xlink="http://www.w3.org/1999/xlink" x="0px" y="0px"
	 viewBox="0 0 295.238 295.238" style="enable-background:new 0 0 295.238 295.238;" xml:space="preserve">
<g>
	<g>
		<g>
			<path d="M147.619,0C66.219,0,0,66.219,0,147.619s66.219,147.619,147.619,147.619s147.619-66.219,147.619-147.619
				S229.019,0,147.619,0z M152.829,285.581l3.676-6.362l-8.248-4.762l-0.638,1.105l-0.638-1.105l-8.248,4.762l3.676,6.362
				C68.671,282.829,9.524,222.014,9.524,147.619c0-23.271,5.81-45.2,16.019-64.452l3.667,6.348l8.248-3.729l-0.638-0.071h1.276
				V76.19H30.79c24.481-42.857,67.686-64.6,116.829-64.6s92.348,21.743,116.829,64.6h-7.305v9.524h1.276l-0.638,0.071l8.248,4.248
				l3.667-6.61c10.21,19.252,16.019,41.057,16.019,64.324C285.714,222.143,226.567,282.829,152.829,285.581z"/>
			<rect x="98.051" y="211.718" transform="matrix(-0.5 -0.866 0.866 -0.5 -25.4671 418.2569)" width="19.909" height="9.524"/>
			<rect x="117.964" y="246.208" transform="matrix(-0.5 -0.866 0.866 -0.5 -25.4652 487.2375)" width="19.909" height="9.524"/>
			<rect x="58.223" y="142.734" transform="matrix(-0.5 -0.866 0.866 -0.5 -25.4672 280.2882)" width="19.909" height="9.524"/>
			<rect x="38.31" y="108.244" transform="matrix(-0.5 -0.866 0.866 -0.5 -25.4683 211.3082)" width="19.909" height="9.524"/>
			<rect x="100" y="76.19" width="19.048" height="9.524"/>
			<rect x="57.143" y="76.19" width="19.048" height="9.524"/>
			<rect x="176.19" y="76.19" width="19.048" height="9.524"/>
			<rect x="219.048" y="76.19" width="19.048" height="9.524"/>
			
				<rect x="162.553" y="241.001" transform="matrix(-0.8661 -0.4999 0.4999 -0.8661 186.7724 551.9457)" width="9.524" height="19.91"/>
			<polygon points="205.4,175.481 199.5,172.067 194.729,180.305 200.638,183.729 198.043,188.224 206.29,192.986 216.248,175.743 
				208,170.981 			"/>
			
				<rect x="182.463" y="206.514" transform="matrix(-0.8661 -0.4999 0.4999 -0.8661 241.1681 497.5426)" width="9.524" height="19.91"/>
			
				<rect x="222.288" y="137.531" transform="matrix(-0.8661 -0.4999 0.4999 -0.8661 349.9681 388.7231)" width="9.524" height="19.91"/>
			
				<rect x="242.201" y="103.039" transform="matrix(-0.8661 -0.4999 0.4999 -0.8661 404.3689 334.3127)" width="9.524" height="19.91"/>
			<rect x="142.857" y="238.095" width="9.524" height="19.048"/>
			<rect x="51.745" y="92.915" transform="matrix(0.8659 0.5002 -0.5002 0.8659 57.0505 -17.4598)" width="18.69" height="9.524"/>
			<path d="M194.71,180.295l4.771-8.248l-5.19-3l11.514-49.51l6.448-3.724l-4.762-8.248l-6.462,3.733l-48.648-14.757v-6.065v-0.002
				v-4.76h4.762V76.19h-19.048v9.524h4.762v4.76v0.002v6.065l-48.652,14.752l-6.462-3.733l-4.762,8.248l6.448,3.724l11.519,49.514
				l-5.19,3.005l4.771,8.238l5.186-3l37.143,34.771v6.986h9.524v-6.981l37.138-34.767L194.71,180.295z M142.857,199.014
				l-32.152-30.1l-9.962-42.843l42.114,24.324V199.014z M105.505,117.824l42.114-12.771l42.114,12.771l-42.114,24.324
				L105.505,117.824z M152.381,199.019v-48.624l42.114-24.319l-9.962,42.848L152.381,199.019z"/>
			<polygon points="100.51,180.3 95.738,172.062 89.838,175.476 87.243,170.981 78.995,175.743 88.952,192.986 97.2,188.224 
				94.6,183.724 			"/>
			
				<rect x="224.803" y="92.892" transform="matrix(-0.8659 0.5002 -0.5002 -0.8659 485.7461 65.0911)" width="18.69" height="9.524"/>
		</g>
	</g>
</g>
<g>
</g>
<g>
</g>
<g>
</g>
<g>
</g>
<g>
</g>
<g>
</g>
<g>
</g>
<g>
</g>
<g>
</g>
<g>
</g>
<g>
</g>
<g>
</g>
<g>
</g>
<g>
</g>
<g>
</g>
</svg>
