<?xml version="1.0" encoding="iso-8859-1"?>
<!-- Generator: Adobe Illustrator 19.0.0, SVG Export Plug-In . SVG Version: 6.00 Build 0)  -->
<svg version="1.1" id="Layer_1" xmlns="http://www.w3.org/2000/svg" xmlns:xlink="http://www.w3.org/1999/xlink" x="0px" y="0px"
	 viewBox="0 0 295.24 295.24" style="enable-background:new 0 0 295.24 295.24;" xml:space="preserve">
<g>
	<g>
		<g>
			<path d="M257.143,0.072L40.476,0.001C18.157,0.001,0,18.158,0,40.477v254.762h223.81v-192.69l9.867-6.576l18.705,9.352
				l19.048-9.524l23.81,11.905V40.477C295.238,18.958,278.357,1.306,257.143,0.072z M214.286,40.477v245.238H9.524V40.477
				c0-17.067,13.886-30.952,30.952-30.952h188.229C219.895,16.958,214.286,28.077,214.286,40.477z M285.714,92.296l-14.286-7.143
				l-19.048,9.524l-19.386-9.695l-9.184,6.119V40.477c0-17.067,13.886-30.952,30.952-30.952c17.066,0,30.952,13.886,30.952,30.952
				V92.296z"/>
			<polygon points="141.462,103.368 161.905,82.925 182.348,103.368 189.081,96.634 168.638,76.191 189.081,55.749 182.348,49.015 
				161.905,69.458 141.462,49.015 134.729,55.749 155.171,76.191 134.729,96.634 			"/>
			<polygon points="89.276,60.311 82.152,53.977 48.157,92.225 42.057,83.072 34.133,88.358 47.081,107.777 			"/>
			<rect x="23.81" y="119.049" width="76.19" height="9.524"/>
			<rect x="23.81" y="142.858" width="76.19" height="9.524"/>
			<rect x="23.81" y="166.668" width="76.19" height="9.524"/>
			<rect x="23.81" y="190.477" width="76.19" height="9.524"/>
			<rect x="23.81" y="214.287" width="76.19" height="9.524"/>
			<rect x="23.81" y="238.096" width="38.095" height="9.524"/>
			<rect x="123.81" y="119.049" width="76.19" height="9.524"/>
			<rect x="123.81" y="142.858" width="76.19" height="9.524"/>
			<rect x="123.81" y="166.668" width="76.19" height="9.524"/>
			<rect x="123.81" y="190.477" width="57.143" height="9.524"/>
		</g>
	</g>
</g>
<g>
</g>
<g>
</g>
<g>
</g>
<g>
</g>
<g>
</g>
<g>
</g>
<g>
</g>
<g>
</g>
<g>
</g>
<g>
</g>
<g>
</g>
<g>
</g>
<g>
</g>
<g>
</g>
<g>
</g>
</svg>
