<?xml version="1.0" encoding="iso-8859-1"?>
<!-- Generator: Adobe Illustrator 19.0.0, SVG Export Plug-In . SVG Version: 6.00 Build 0)  -->
<svg version="1.1" id="Layer_1" xmlns="http://www.w3.org/2000/svg" xmlns:xlink="http://www.w3.org/1999/xlink" x="0px" y="0px"
	 viewBox="0 0 296.549 296.549" style="enable-background:new 0 0 296.549 296.549;" xml:space="preserve">
<g>
	<g>
		<path d="M284.855,237.167l-12.871,3.219l-18.938-41.662l-5.919-53.276l8.762,1.252c0.581,0.086,1.162,0.124,1.733,0.124
			c5.167,0,9.857-3.295,11.533-8.324c1.143-3.433,0.71-7.171-1.195-10.248c-1.9-3.076-5.048-5.138-8.629-5.648l-10.933-1.562V23.81
			c0-13.129-10.681-23.81-23.81-23.81h-200C11.46,0,0.779,10.681,0.779,23.81c0,11.495,8.195,21.114,19.048,23.329v248.1h190.286
			l0.376,1.31l9.157-2.619l-8.171-28.6l2.667-0.667l61.852-15.462l2.614-0.652l8.129,24.39l9.033-3.014L284.855,237.167z
			 M248.117,130.624l9.871,1.41c1.062,0.147,1.629,0.828,1.872,1.223c0.243,0.395,0.6,1.21,0.262,2.229
			c-0.405,1.214-1.643,1.929-2.881,1.786l-10.01-1.429L248.117,130.624z M224.588,9.523c7.876,0,14.286,6.41,14.286,14.287v84.962
			l-9.524-5.557v-65.12h-4.762c-7.876,0-14.286-6.41-14.286-14.286C210.302,15.933,216.712,9.523,224.588,9.523z M175.94,125.657
			l-22.933-3.276l-2.105-4.205c-0.271-0.543-0.571-1.067-0.895-1.567l22.605,3.229v0.005l62.452,8.91l3.619,0.519l-0.886,5.219
			l-14.757-2.105L175.94,125.657z M185.317,142.062l-8.795,8.795l-14.843-11.133l-3.49-6.986l23.738,3.39L185.317,142.062z
			 M132.684,104.981l-15.333,5.114c-0.743,0.105-1.495,0.186-2.229,0.314c-0.014-0.295-0.057-0.586-0.057-0.886
			c0-10.167,3.576-19.51,9.514-26.867c4.047,5.006,6.99,10.958,8.457,17.544c-0.014,0.048-0.043,0.09-0.052,0.138
			C132.598,101.881,132.56,103.438,132.684,104.981z M121.392,127.104l0.738,5.924c-2.667-4.029-4.619-8.471-5.781-13.176
			c0.663-0.128,1.344-0.195,2.015-0.295l3.176,3.176C121.311,124.171,121.207,125.633,121.392,127.104z M117.817,143.115
			c-7.505,5.948-16.81,9.267-26.562,9.267c-2.819,0-5.571-0.29-8.238-0.814c3.176-12.949,12.166-23.568,24.257-28.858
			C109.217,130.205,112.793,137.158,117.817,143.115z M105.74,113.019c-15.757,6.01-27.605,19.286-31.819,35.662
			c-15.014-6.671-25.524-21.7-25.524-39.157c0-23.629,19.229-42.857,42.857-42.857c9.924,0,19.171,3.448,26.533,9.262
			c-7.632,9.1-12.247,20.814-12.247,33.595C105.54,110.7,105.664,111.857,105.74,113.019z M81.774,161
			c3.081,0.567,6.238,0.905,9.481,0.905c12.167,0,23.748-4.248,33.014-11.795l0.562,4.486l33.538,33.524
			c-8.11,10.452-20.443,16.643-33.781,16.643c-23.629,0-42.857-19.229-42.857-42.857C81.731,161.6,81.769,161.305,81.774,161z
			 M131.387,75.934c7.31-5.786,16.514-9.267,26.533-9.267c11.41,0,22.09,4.643,29.948,12.352l-5.666-3.305l-40.181,14.61
			c-0.614,0.224-1.152,0.581-1.724,0.881C138.192,85.567,135.154,80.424,131.387,75.934z M142.227,102.656
			c0.395-1.586,1.514-2.814,3.062-3.376l35.986-13.086l53.132,30.996l0.21,1.881l-23.671-3.381l-32.371-4.624l-3.871-6.786
			l-20.129,3.357l-12.062-1.724C142.051,104.913,141.942,103.78,142.227,102.656z M10.302,23.81c0-7.876,6.41-14.286,14.286-14.286
			h181.076c-3.024,3.99-4.886,8.905-4.886,14.286s1.862,10.295,4.886,14.286H24.588C16.712,38.095,10.302,31.686,10.302,23.81z
			 M199.607,258.481l7.786,27.233H29.35V47.619h190.476v50.043l-13.467-7.857c-7.99-19.595-27.21-32.662-48.438-32.662
			c-12.652,0-24.267,4.51-33.333,12.005c-9.129-7.538-20.8-12.005-33.333-12.005c-28.881,0-52.381,23.5-52.381,52.381
			c0,22.219,13.933,41.205,33.5,48.805c-0.076,1.186-0.167,2.371-0.167,3.576c0,28.881,23.5,52.381,52.381,52.381
			c15.905,0,30.671-7.167,40.576-19.376l3.943,3.943l32.333,27.714l9.681,29.033L199.607,258.481z M242.231,247.823l-21.848,5.462
			l-10.743-32.233l-34.067-29.181l-41.7-41.7l-3.033-24.248c-0.1-0.81-0.029-1.605,0.176-2.357l0.224-0.581
			c0.462-1.19,1.243-2.167,2.224-2.852c2.481-1.61,6.076-1.138,8.062,1.048c0.324,0.376,0.624,0.781,0.852,1.243l4.338,8.671
			l7.443,14.89l23.252,17.438l19.776-19.776l-3.324-5.814l43.519,6.219l6.276,56.471l18.93,42.21L242.231,247.823z"/>
	</g>
</g>
<g>
</g>
<g>
</g>
<g>
</g>
<g>
</g>
<g>
</g>
<g>
</g>
<g>
</g>
<g>
</g>
<g>
</g>
<g>
</g>
<g>
</g>
<g>
</g>
<g>
</g>
<g>
</g>
<g>
</g>
</svg>
