<?xml version="1.0" encoding="iso-8859-1"?>
<!-- Generator: Adobe Illustrator 19.0.0, SVG Export Plug-In . SVG Version: 6.00 Build 0)  -->
<svg version="1.1" id="Layer_1" xmlns="http://www.w3.org/2000/svg" xmlns:xlink="http://www.w3.org/1999/xlink" x="0px" y="0px"
	 viewBox="0 0 295.238 295.238" style="enable-background:new 0 0 295.238 295.238;" xml:space="preserve">
<g>
	<g>
		<g>
			<path d="M105.181,124.01c-31.633,0-57.362,25.733-57.362,57.362c0,4.757,0.648,9.638,1.914,14.51l2.1,8.038l75.89-75.886
				l-8.038-2.1C114.81,124.657,109.933,124.01,105.181,124.01z M57.476,184.81c-0.09-1.152-0.133-2.3-0.133-3.438
				c0-26.376,21.462-47.838,47.838-47.838c1.133,0,2.281,0.043,3.438,0.133L57.476,184.81z"/>
			<path d="M273.643,66.667c-5.767,0-11.195,2.248-15.271,6.329L247.62,83.744V14.286C247.619,6.41,241.21,0,233.333,0H61.905
				c-7.876,0-14.286,6.41-14.286,14.286v79.119C18.971,112.214,0,144.61,0,181.371c0,28.095,10.943,54.51,30.81,74.376l3.367,3.367
				l13.443-13.443v35.281c0,7.876,6.41,14.286,14.286,14.286h171.429c7.876,0,14.286-6.41,14.286-14.286V144.829l41.295-41.295
				c4.074-4.077,6.322-9.496,6.322-15.267C295.238,76.357,285.552,66.667,273.643,66.667z M145.237,209.933l-5.171-5.171
				l98.029-98.029l5.171,5.171L145.237,209.933z M147.234,225.395l-12.867,2.143l2.143-12.867L147.234,225.395z M57.143,14.286
				c0-2.624,2.133-4.762,4.762-4.762h171.429c2.629,0,4.762,2.138,4.762,4.762v23.81H57.143V14.286z M57.143,47.619h180.952v45.648
				l-109.21,109.21l-6.11,36.652l36.652-6.11l78.667-78.667v93.267H57.143v-11.471l125.781-125.781L179.557,107
				c-19.867-19.867-46.281-30.81-74.376-30.81c-17.3,0-33.624,4.224-48.038,11.657V47.619z M34.257,245.562
				c-1.238-1.362-2.347-2.81-3.5-4.229l7.586-5.51l-5.6-7.71l-7.614,5.529c-3.771-5.748-6.943-11.824-9.371-18.21l9.033-2.933
				l-2.938-9.057l-9,2.714c-1.762-6.552-2.771-10.919-3.11-20.443h9.305v-9.524H9.767c0.343-4.762,1.419-13.5,3.176-19.99l8.91,3
				l2.938-9.005l-8.905-2.867c2.462-6.433,5.548-12.538,9.271-18.219l7.59,5.519l5.6-7.7l-7.59-5.514
				c4.295-5.324,9.143-10.167,14.467-14.467l5.514,7.59l7.71-5.6l-5.514-7.59c5.681-3.724,11.795-6.81,18.229-9.267l2.895,8.905
				l9.057-2.943l-3.105-8.91c6.49-1.76,15.228-2.831,19.99-3.174v9.281h9.524v-9.305c9.524,0.338,13.89,1.352,20.438,3.114
				l-2.819,8.995l9.11,2.943l2.962-9.033c6.386,2.429,12.471,5.605,18.219,9.371l-5.524,7.614l7.714,5.6l5.514-7.59
				c1.424,1.148,2.867,2.262,4.233,3.5L34.257,245.562z M142.857,271.428c0-2.629,2.133-4.762,4.762-4.762
				c2.629,0,4.762,2.133,4.762,4.762c0,2.629-2.133,4.762-4.762,4.762C144.99,276.19,142.857,274.057,142.857,271.428z
				 M238.095,280.952c0,2.629-2.133,4.762-4.762,4.762h-85.695c7.867-0.011,14.267-6.416,14.267-14.285
				c0-7.876-6.41-14.286-14.286-14.286s-14.286,6.41-14.286,14.286c0,7.87,6.4,14.274,14.267,14.285H61.905
				c-2.629,0-4.762-2.133-4.762-4.762v-23.81h90.476h90.476V280.952z M157.143,221.838l-5.171-5.171L250,118.638l5.171,5.171
				L157.143,221.838z M261.905,117.076L244.829,100l7.552-7.552l17.076,17.076L261.905,117.076z M282.181,96.805l-5.99,5.986
				l-17.076-17.076l5.99-5.99c2.281-2.276,5.314-3.533,8.538-3.533c6.652,0,12.071,5.419,12.071,12.076
				C285.714,91.49,284.457,94.524,282.181,96.805z"/>
			<rect x="119.048" y="19.048" width="57.143" height="9.524"/>
		</g>
	</g>
</g>
<g>
</g>
<g>
</g>
<g>
</g>
<g>
</g>
<g>
</g>
<g>
</g>
<g>
</g>
<g>
</g>
<g>
</g>
<g>
</g>
<g>
</g>
<g>
</g>
<g>
</g>
<g>
</g>
<g>
</g>
</svg>
