<?xml version="1.0" encoding="iso-8859-1"?>
<!-- Generator: Adobe Illustrator 19.0.0, SVG Export Plug-In . SVG Version: 6.00 Build 0)  -->
<svg version="1.1" id="Layer_1" xmlns="http://www.w3.org/2000/svg" xmlns:xlink="http://www.w3.org/1999/xlink" x="0px" y="0px"
	 viewBox="0 0 295.239 295.239" style="enable-background:new 0 0 295.239 295.239;" xml:space="preserve">
<g>
	<g>
		<g>
			<path d="M271.429,85.714h-57.143V57.143c0-7.876-6.41-14.286-14.286-14.286s-14.286,6.41-14.286,14.286v28.571H42.857
				c-13.129,0-23.81,10.681-23.81,23.81v76.19h-4.762c-2.624,0-4.762-2.138-4.762-4.762V57.143c0-2.624,2.138-4.762,4.762-4.762
				h133.333c7.876,0,14.286-6.41,14.286-14.286V0h-9.524v38.095c0,2.624-2.138,4.762-4.762,4.762H14.286
				C6.41,42.857,0,49.267,0,57.143v123.81c0,7.876,6.41,14.286,14.286,14.286h4.762v76.19c0,13.129,10.681,23.81,23.81,23.81
				h228.571c13.129,0,23.81-10.681,23.81-23.81V109.524C295.238,96.395,284.557,85.714,271.429,85.714z M195.238,57.143
				c0-2.624,2.138-4.762,4.762-4.762c2.624,0,4.762,2.138,4.762,4.762v80.952h-9.524V57.143z M195.238,147.619h9.524v57.143h-9.524
				V147.619z M204.762,214.286v3.319L200,224.748l-4.762-7.143v-3.319H204.762z M195.238,234.776v12.843h9.524v-12.843l9.524-14.286
				V119.048h47.619v142.857H85.714V119.048h100V220.49L195.238,234.776z M42.857,95.238h142.857v14.286H28.571
				C28.571,101.648,34.981,95.238,42.857,95.238z M28.571,190.477L28.571,190.477v-71.429H76.19v71.39
				c-0.021-13.111-10.693-23.772-23.809-23.772C39.252,166.666,28.571,177.347,28.571,190.477c0,13.128,10.681,23.809,23.81,23.809
				c13.116,0,23.788-10.66,23.809-23.772v71.392H28.571V190.477z M66.667,190.476c0,7.876-6.41,14.286-14.286,14.286
				c-7.876,0-14.286-6.41-14.286-14.286c0-7.876,6.41-14.286,14.286-14.286C60.257,176.19,66.667,182.6,66.667,190.476z
				 M285.714,271.429c0,7.876-6.41,14.286-14.286,14.286H42.857c-7.876,0-14.286-6.41-14.286-14.286h242.857V109.524h-57.143V95.238
				h57.143c7.876,0,14.286,6.41,14.286,14.286V271.429z"/>
			<circle cx="52.381" cy="190.476" r="4.762"/>
			<rect x="38.095" y="147.619" width="28.571" height="9.524"/>
			<rect x="38.095" y="128.571" width="28.571" height="9.524"/>
			<rect x="38.095" y="242.857" width="28.571" height="9.524"/>
			<rect x="38.095" y="223.81" width="28.571" height="9.524"/>
		</g>
	</g>
</g>
<g>
</g>
<g>
</g>
<g>
</g>
<g>
</g>
<g>
</g>
<g>
</g>
<g>
</g>
<g>
</g>
<g>
</g>
<g>
</g>
<g>
</g>
<g>
</g>
<g>
</g>
<g>
</g>
<g>
</g>
</svg>
