<?xml version="1.0" encoding="iso-8859-1"?>
<!-- Generator: Adobe Illustrator 19.0.0, SVG Export Plug-In . SVG Version: 6.00 Build 0)  -->
<svg version="1.1" id="Layer_1" xmlns="http://www.w3.org/2000/svg" xmlns:xlink="http://www.w3.org/1999/xlink" x="0px" y="0px"
	 viewBox="0 0 295.24 295.24" style="enable-background:new 0 0 295.24 295.24;" xml:space="preserve">
<g>
	<g>
		<g>
			<path d="M252.382,100h-69.776l3.39-20.324L147.62,30.338l-38.376,49.338l3.39,20.324H42.858
				c-10.505,0-19.048,8.543-19.048,19.048v123.81c0,10.505,8.543,19.048,19.048,19.048h61.905v23.81H85.715v9.524h19.048h85.714
				h19.048v-9.524h-19.048v-23.81h61.905c10.505,0,19.048-8.543,19.048-19.048v-123.81C271.43,108.543,262.887,100,252.382,100z
				 M147.62,80.952c2.629,0,4.762,2.138,4.762,4.762s-2.133,4.762-4.762,4.762c-2.629,0-4.762-2.138-4.762-4.762
				S144.991,80.952,147.62,80.952z M142.858,51.976V72.31c-5.529,1.971-9.524,7.21-9.524,13.41c0,7.876,6.41,14.286,14.286,14.286
				c7.876,0,14.286-6.41,14.286-14.286c0-6.2-3.995-11.438-9.524-13.41V51.976l23.529,30.252l-8.514,51.105H127.84l-8.514-51.105
				L142.858,51.976z M123.811,142.857h47.619c2.628,0,4.761,2.138,4.761,4.762c0,2.624-2.133,4.762-4.762,4.762h-47.618
				c-2.629,0-4.762-2.138-4.762-4.762C119.049,144.995,121.182,142.857,123.811,142.857z M166.672,195.238h-38.1v-33.333h38.095
				L166.672,195.238z M118.372,134.419c-5.186,2.148-8.848,7.248-8.848,13.2c0,6.2,3.995,11.438,9.524,13.41v34.21
				c0,5.252,4.271,9.524,9.524,9.524h38.095c5.252,0,9.524-4.271,9.524-9.524v-34.21c5.529-1.971,9.524-7.21,9.524-13.41
				c0-5.952-3.662-11.052-8.848-13.2l0.976-5.848h65.014v104.762H52.382V128.571h65.014L118.372,134.419z M180.953,285.714h-66.667
				v-23.81h66.667V285.714z M261.907,242.857L261.907,242.857c-0.001,5.252-4.272,9.524-9.525,9.524h-61.905h-85.714H42.858
				c-5.252,0-9.524-4.271-9.524-9.524v-123.81c0-5.252,4.271-9.524,9.524-9.524h71.362l1.586,9.524H42.858v123.81h209.524v-123.81
				H179.43l1.586-9.524h71.367c5.252,0,9.524,4.271,9.524,9.524V242.857z"/>
			<path d="M71.43,28.571c6.2,0,11.438-3.995,13.41-9.524h28.619C96.621,29.152,84.63,46.437,81.716,66.666H71.43v28.571h28.571
				v-28.57h-8.662c4.552-26.981,28.024-47.619,56.281-47.619c28.257,0,51.729,20.638,56.281,47.619h-8.662v28.571h28.571V66.667
				h-10.286c-2.914-20.229-14.91-37.514-31.743-47.619h23.857c1.971,5.529,7.21,9.524,13.41,9.524
				c7.876,0,14.286-6.41,14.286-14.286C233.334,6.41,226.925,0,219.049,0c-6.2,0-11.438,3.995-13.41,9.524h-120.8
				C82.868,3.995,77.63,0,71.43,0c-7.876,0-14.286,6.41-14.286,14.286C57.144,22.162,63.553,28.571,71.43,28.571z M90.477,85.714
				h-9.524V76.19h9.524V85.714z M204.763,76.19h9.524v9.524h-9.524V76.19z M219.049,9.524c2.629,0,4.762,2.138,4.762,4.762
				c0,2.624-2.133,4.762-4.762,4.762c-2.629,0-4.762-2.138-4.762-4.762C214.287,11.662,216.42,9.524,219.049,9.524z M71.43,9.524
				c2.629,0,4.762,2.138,4.762,4.762c0,2.624-2.133,4.762-4.762,4.762c-2.629,0-4.762-2.138-4.762-4.762
				C66.668,11.662,68.801,9.524,71.43,9.524z"/>
			<rect x="185.715" y="180.952" width="9.524" height="9.524"/>
			<rect x="204.763" y="180.952" width="9.524" height="9.524"/>
			<rect x="223.811" y="180.952" width="9.524" height="9.524"/>
			<rect x="61.906" y="180.952" width="9.524" height="9.524"/>
			<rect x="80.953" y="180.952" width="9.524" height="9.524"/>
			<rect x="100.001" y="180.952" width="9.524" height="9.524"/>
		</g>
	</g>
</g>
<g>
</g>
<g>
</g>
<g>
</g>
<g>
</g>
<g>
</g>
<g>
</g>
<g>
</g>
<g>
</g>
<g>
</g>
<g>
</g>
<g>
</g>
<g>
</g>
<g>
</g>
<g>
</g>
<g>
</g>
</svg>
