<?xml version="1.0" encoding="iso-8859-1"?>
<!-- Generator: Adobe Illustrator 19.0.0, SVG Export Plug-In . SVG Version: 6.00 Build 0)  -->
<svg version="1.1" id="Layer_1" xmlns="http://www.w3.org/2000/svg" xmlns:xlink="http://www.w3.org/1999/xlink" x="0px" y="0px"
	 viewBox="0 0 295.238 295.238" style="enable-background:new 0 0 295.238 295.238;" xml:space="preserve">
<g>
	<g>
		<g>
			<path d="M276.19,26.189H19.048C8.543,26.189,0,34.732,0,45.237v171.429c0,10.505,8.543,19.048,19.048,19.048h85.714v23.81H71.429
				v9.524h33.333h85.714h33.333v-9.524h-33.333v-23.81h85.714c10.505,0,19.048-8.543,19.048-19.048V45.237
				C295.238,34.732,286.695,26.189,276.19,26.189z M180.952,259.523h-66.667v-23.81h66.667V259.523z M285.714,216.666
				c0,5.252-4.271,9.524-9.524,9.524h-85.714h-85.714H19.048c-5.252,0-9.524-4.271-9.524-9.524V45.237
				c0-5.252,4.271-9.524,9.524-9.524H276.19c5.252,0,9.524,4.271,9.524,9.524V216.666z"/>
			<path d="M19.048,216.666H276.19V45.237H19.048V216.666z M28.571,54.762h238.095v152.381H28.571V54.762z"/>
			<circle cx="42.857" cy="69.048" r="4.762"/>
			<circle cx="57.143" cy="69.048" r="4.762"/>
			<circle cx="71.429" cy="69.048" r="4.762"/>
			<path d="M38.095,140.476h66.667V83.333H38.095V140.476z M47.619,92.856h47.619v38.095H47.619V92.856z"/>
			<path d="M114.286,140.476h66.667V83.333h-66.667V140.476z M123.81,92.856h47.619v38.095H123.81V92.856z"/>
			<path d="M190.476,140.476h66.667V83.333h-66.667V140.476z M200,92.856h47.619v38.095H200V92.856z"/>
			<rect x="38.095" y="149.999" width="142.857" height="9.524"/>
			<rect x="38.095" y="169.047" width="142.857" height="9.524"/>
			<rect x="38.095" y="188.094" width="142.857" height="9.524"/>
			<rect x="195.238" y="149.999" width="61.905" height="9.524"/>
			<rect x="195.238" y="169.047" width="61.905" height="9.524"/>
			<rect x="195.238" y="188.094" width="61.905" height="9.524"/>
		</g>
	</g>
</g>
<g>
</g>
<g>
</g>
<g>
</g>
<g>
</g>
<g>
</g>
<g>
</g>
<g>
</g>
<g>
</g>
<g>
</g>
<g>
</g>
<g>
</g>
<g>
</g>
<g>
</g>
<g>
</g>
<g>
</g>
</svg>
