<?xml version="1.0" encoding="iso-8859-1"?>
<!-- Generator: Adobe Illustrator 19.0.0, SVG Export Plug-In . SVG Version: 6.00 Build 0)  -->
<svg version="1.1" id="Layer_1" xmlns="http://www.w3.org/2000/svg" xmlns:xlink="http://www.w3.org/1999/xlink" x="0px" y="0px"
	 viewBox="0 0 295.24 295.24" style="enable-background:new 0 0 295.24 295.24;" xml:space="preserve">
<g>
	<g>
		<g>
			<path d="M233.335,214.287v-9.524h47.617v0c7.876,0,14.286-6.41,14.286-14.286v-76.19c0-7.876-6.41-14.286-14.286-14.286H147.619
				c-7.876,0-14.286,6.41-14.286,14.286v76.19c0,7.876,6.41,14.286,14.286,14.286h47.619v9.524h-80.952v-4.762
				c0-7.876-6.686-14.286-14.562-14.286h-16.11l-48.928-79.648c2.138-3.081,3.41-6.805,3.41-10.829c0-1.171-0.143-2.305-0.348-3.419
				l19.933-36.542c1.838,9.052,6.876,17.138,14.519,22.852l3.11,2.324l11.757-10.452c2.576,0.933,5.214,1.429,7.895,1.429
				c13.129,0,23.81-10.681,23.81-23.81c0-1.729-0.271-3.467-0.676-5.195l11.781-10.471l-1.943-3.367
				c-6.805-11.757-19.438-19.062-32.971-19.062c-0.895,0-1.776,0.071-2.657,0.133l-16.1-16.1L40.82,32.572l6.557,8.743L16.087,86.02
				C6.99,87.453,0,95.277,0,104.763c0,7.143,3.995,13.305,9.829,16.562l39.381,73.914H33.057c-7.876,0-14.01,6.41-14.01,14.286
				v4.762H0v28.571h14.286v52.381h9.524v-52.381h9.524v52.381h9.524v-52.381h209.524v52.381h9.524v-52.381h9.524v52.381h9.524
				v-52.381h14.286v-28.571H233.335z M142.857,114.287c0-2.624,2.138-4.762,4.762-4.762h133.333c2.624,0,4.762,2.138,4.762,4.762
				v61.905H142.857V114.287z M195.238,195.239h-47.619c-2.624,0-4.762-2.138-4.762-4.762v-4.762h142.857v4.762
				c0,2.624-2.138,4.762-4.762,4.762h-47.619H195.238z M223.81,204.763v9.524h-19.048v-9.524H223.81z M96.243,71.372l12.7-11.29
				C107.671,66.149,102.538,70.811,96.243,71.372z M94.967,28.573c8.857-0.001,17.204,4.18,22.581,11.118L74.986,77.525
				c-5.5-5.352-8.59-12.6-8.59-20.381C66.396,41.387,79.21,28.573,94.967,28.573z M75.619,15.968l5.662,5.662
				C71.7,25.334,63.967,32.772,59.929,42.187l-6.062-8.09L75.619,15.968z M53.385,49.329l1.091,1.453L32.419,91.225
				c-1.629-1.61-3.548-2.905-5.667-3.848L53.385,49.329z M9.524,104.763c0-5.252,4.271-9.524,9.524-9.524
				c5.252,0,9.524,4.271,9.524,9.524c0,5.252-4.271,9.524-9.524,9.524C13.795,114.287,9.524,110.016,9.524,104.763z M21.795,123.534
				c1.967-0.286,3.824-0.862,5.548-1.705l45.095,73.41H60L21.795,123.534z M33.057,204.763h66.667c2.624,0,5.038,2.138,5.038,4.762
				v4.762h-76.19v-4.762h-0.001C28.571,206.901,30.433,204.763,33.057,204.763z M285.714,233.335h-4.762h-28.571H42.857H14.286
				H9.524v-9.524h9.248h95.238h81.229h38.095h52.38V233.335z"/>
			<rect x="138.095" y="80.953" width="152.381" height="9.524"/>
			<path d="M204.762,0.001h-38.095v76.19h38.095V0.001z M195.238,66.668H176.19V47.62h19.048V66.668z M195.238,38.096H176.19V9.525
				h19.048V38.096z"/>
			<circle cx="185.714" cy="57.144" r="4.762"/>
			<path d="M247.619,0.001h-38.095v76.19h38.095V0.001z M219.047,9.525h19.048v28.571h-19.048V9.525z M238.096,66.668h-19.048V47.62
				h19.048V66.668z"/>
			<circle cx="228.571" cy="57.144" r="4.762"/>
			<path d="M290.476,0.001h-38.095v76.19h38.095V0.001z M261.904,9.525h19.048v28.571h-19.048V9.525z M280.953,66.668h-19.048V47.62
				h19.048V66.668z"/>
			<circle cx="271.429" cy="57.144" r="4.762"/>
		</g>
	</g>
</g>
<g>
</g>
<g>
</g>
<g>
</g>
<g>
</g>
<g>
</g>
<g>
</g>
<g>
</g>
<g>
</g>
<g>
</g>
<g>
</g>
<g>
</g>
<g>
</g>
<g>
</g>
<g>
</g>
<g>
</g>
</svg>
