<svg height="512pt" viewBox="-104 0 512 512" width="512pt" xmlns="http://www.w3.org/2000/svg"><path d="m266.046875 221.140625c24.394531-35.199219 37.289063-76.441406 37.289063-119.265625v-101.875h-90v23.917969h-123.335938v-23.917969h-90v101.875c0 42.824219 12.894531 84.066406 37.285156 119.265625 8.824219 12.730469 18.921875 24.324219 30.105469 34.65625-11.183594 10.332031-21.28125 21.925781-30.105469 34.652344-24.390625 35.199219-37.285156 76.441406-37.285156 119.269531v102.28125h90v-23.917969h123.335938v23.917969h90v-102.28125c0-42.828125-12.894532-84.070312-37.285157-119.269531-8.824219-12.730469-18.921875-24.320313-30.105469-34.652344 11.183594-10.332031 21.28125-21.925781 30.101563-34.65625zm-114.378906-14.792969c-14.894531-8.261718-27.695313-19.5625-37.707031-32.929687h75.386718c-10.011718 13.359375-22.792968 24.671875-37.679687 32.929687zm54.105469-62.929687h-108.210938c-3.550781-9.488281-5.917969-19.476563-6.949219-29.75h122.113281c-1.035156 10.273437-3.402343 20.261719-6.953124 29.75zm7.5625-89.5v29.75h-123.335938v-29.75zm-153.335938 428.082031h-30v-72.28125c0-36.691406 11.046875-72.023438 31.945312-102.179688 8.453126-12.199218 18.277344-23.179687 29.242188-32.789062 8.839844 6.035156 18.164062 11.402344 27.910156 16.046875-36.453125 27.824219-59.097656 71.710937-59.097656 118.921875zm37.40625-113.417969h108.527344c3.511718 9.492188 5.832031 19.480469 6.832031 29.75h-122.191406c.996093-10.269531 3.316406-20.257812 6.832031-29.75zm16.257812-30c10.054688-13.546875 22.960938-24.992187 38.003907-33.339843 15.042969 8.347656 27.949219 19.792968 38.003906 33.339843zm-23.664062 119.5v-29.75h123.335938v29.75zm183.335938-48.363281v72.28125h-30v-72.28125c0-61.921875-38.953126-118.136719-96.933594-139.878906-34.355469-12.882813-63.558594-35.628906-84.457032-65.785156-20.898437-30.15625-31.945312-65.488282-31.945312-102.179688v-71.875h30v71.875c0 61.921875 38.953125 118.132812 96.933594 139.875 34.355468 12.882812 63.558594 35.632812 84.457031 65.789062s31.945313 65.488282 31.945313 102.179688zm-61.179688-172.871094c-8.847656-6.042968-18.179688-11.410156-27.9375-16.0625 36.457031-27.824218 59.117188-71.699218 59.117188-118.910156v-71.875h30v71.875c0 36.691406-11.046876 72.023438-31.945313 102.179688-8.453125 12.199218-18.269531 23.179687-29.234375 32.792968zm0 0"/></svg>