<svg height="511pt" viewBox="-53 1 511 511.999" width="511pt" xmlns="http://www.w3.org/2000/svg"><path d="m318.277344 330.8125h-57.394532v-10.496094c40.984376-20.109375 69.078126-60.847656 69.078126-107.722656v-91.519531c0-66.761719-56.984376-121.074219-127.027344-121.074219-70.042969 0-127.027344 54.3125-127.027344 121.070312v91.523438c0 46.875 28.09375 87.609375 69.078125 107.722656v10.496094h-57.394531c-48.023438 0-87.089844 39.066406-87.089844 87.089844v94.097656h404.867188v-94.097656c0-48.023438-39.066407-87.089844-87.089844-87.089844zm-212.375-118.21875v-91.519531c0-50.222657 43.527344-91.078125 97.03125-91.078125s97.03125 40.859375 97.03125 91.078125v91.519531c0 50.21875-43.527344 91.074219-97.03125 91.074219s-97.03125-40.855469-97.03125-91.074219zm269.46875 269.410156h-60.71875v-48.28125h-29.996094v48.28125h-163.445312v-48.28125h-29.996094v48.28125h-60.71875v-64.101562c0-31.480469 25.613281-57.09375 57.09375-57.09375h87.390625v-30.101563c9 1.933594 18.351562 2.957031 27.953125 2.957031 9.601562 0 18.953125-1.027343 27.953125-2.957031v30.101563h87.390625c31.480468 0 57.09375 25.613281 57.09375 57.09375zm0 0"/><path d="m202.933594 155h-15v52.972656h30v-25.183594c21.378906-6.453124 36.992187-26.332031 36.992187-49.789062 0-28.667969-23.324219-51.992188-51.992187-51.992188-28.667969 0-51.992188 23.324219-51.992188 51.992188h29.996094c0-12.128906 9.867188-21.996094 21.996094-21.996094s21.996094 9.867188 21.996094 21.996094c0 12.132812-9.867188 22-21.996094 22zm0 0"/><path d="m188.058594 225.054688h29.75v29.746093h-29.75zm0 0"/></svg>