<?xml version="1.0" encoding="UTF-8"?>
<svg viewBox="0 0 512 512" version="1.1" xmlns="http://www.w3.org/2000/svg" xmlns:xlink="http://www.w3.org/1999/xlink">
    <!-- Generator: Sketch 49.1 (51147) - http://www.bohemiancoding.com/sketch -->
    <title>Shape</title>
    <desc>Created with Sketch.</desc>
    <defs></defs>
    <g id="Page-1" stroke="none" stroke-width="1" fill="none" fill-rule="evenodd">
        <g id="003-strong" transform="translate(-1.000000, 0.000000)" fill="#000000" fill-rule="nonzero">
            <path d="M501.746094,334.121094 C487.027344,301.640625 459.746094,278.667969 424.925781,269.425781 C379.273438,257.308594 325.203125,267.460938 281.34375,294.207031 C262.035156,281.488281 239.3125,274.609375 215.945312,274.609375 C195.320312,274.609375 175.15625,279.984375 157.417969,290.007812 C156.054688,236.679688 168.023438,155.441406 173.425781,121.890625 L240.085938,136.070312 L301.90625,110.3125 C311.449219,106.335938 318.363281,98.304688 320.871094,88.273438 C323.382812,78.242188 321.066406,67.902344 314.519531,59.902344 L265.507812,0 L111.722656,0 L76.648438,91.042969 C24.121094,195.28125 2.375,355.304688 1.0117188,431.859375 C0.636719,453.042969 8.605469,473.035156 23.457031,488.152344 C38.316406,503.277344 58.179688,511.609375 79.386719,511.609375 L203.617188,511.609375 C222.167969,511.609375 240.453125,507.261719 256.917969,499.003906 C262.019531,499.804688 267.3125,500.675781 272.839844,501.582031 C301.796875,506.328125 336.386719,512 369.8125,512 C378.347656,512 386.8125,511.628906 395.078125,510.78125 C444.945312,505.65625 479.851562,483.65625 498.824219,445.394531 C516.539062,409.667969 517.605469,369.109375 501.746094,334.121094 Z M471.945312,432.066406 C457.453125,461.292969 432.054688,476.824219 392.011719,480.9375 C359.523438,484.273438 323.445312,479.347656 290.335938,474.03125 C296.070312,467.921875 301.175781,461.214844 305.519531,454.007812 C312.097656,443.097656 316.847656,431.277344 319.632812,418.871094 L290.363281,412.292969 C288.28125,421.550781 284.738281,430.375 279.828125,438.523438 C263.5625,465.5 235.074219,481.609375 203.617188,481.609375 L79.386719,481.609375 C66.292969,481.609375 54.03125,476.464844 44.859375,467.128906 C35.695312,457.800781 30.777344,445.464844 31.007812,432.394531 C32.328125,358.332031 53.242188,203.664062 103.757812,103.914062 L104.101562,103.234375 L132.316406,30 L251.292969,30 L291.300781,78.898438 C291.804688,79.515625 291.960938,80.21875 291.769531,80.992188 C291.574219,81.765625 291.105469,82.3125 290.367188,82.621094 L237.179688,104.78125 L149.160156,86.050781 L146.441406,101.324219 C145.328125,107.589844 119.265625,255.511719 129.925781,320.296875 L134.375,347.328125 L158.417969,325.726562 C174.453125,312.109375 194.875,304.609375 215.945312,304.609375 C229.523438,304.609375 242.804688,307.726562 254.824219,313.566406 C250.921875,316.964844 247.140625,320.496094 243.546875,324.199219 L265.070312,345.097656 C304.011719,304.988281 368.003906,285.351562 417.230469,298.421875 C443.179688,305.308594 463.492188,322.382812 474.421875,346.5 C486.367188,372.863281 485.441406,404.847656 471.945312,432.066406 Z" id="Shape"></path>
        </g>
    </g>
</svg>