<svg height="512pt" viewBox="-60 0 512 512.00001" width="512pt" xmlns="http://www.w3.org/2000/svg"><path d="m373.835938 377.304688-65.597657-240.570313 49.230469-56.75c8.394531-9.675781 12.515625-22.042969 11.609375-34.820313-.90625-12.777343-6.734375-24.4375-16.410156-32.832031s-22.054688-12.523437-34.820313-11.609375c-12.777344.90625-24.4375 6.734375-32.832031 16.410156l-25.875 29.828126c-8.324219-27.15625-33.625-46.960938-63.472656-46.960938-29.847657 0-55.152344 19.804688-63.472657 46.960938l-25.875-29.828126c-8.394531-9.675781-20.054687-15.503906-32.832031-16.410156-12.765625-.90625-25.144531 3.214844-34.820312 11.609375-9.679688 8.394531-15.507813 20.054688-16.410157 32.832031-.910156 12.777344 3.214844 25.144532 11.609376 34.820313l49.230468 56.75-65.601562 240.570313h91.460937v83.433593c0 28.039063 22.8125 50.855469 50.855469 50.855469 13.976562 0 26.652344-5.671875 35.851562-14.828125 9.203126 9.15625 21.878907 14.828125 35.855469 14.828125 28.042969 0 50.855469-22.816406 50.855469-50.855469v-83.433593zm-39.273438-30h-52.1875l.085938-180.855469 2.117187-2.441407zm-175.273438-280.925782c0-20.058594 16.320313-36.378906 36.378907-36.378906 20.058593 0 36.375 16.320312 36.375 36.378906 0 5.839844-1.390625 11.359375-3.847657 16.253906l-11.820312 13.628907c-5.882812 4.085937-13.019531 6.492187-20.707031 6.492187-7.691407 0-14.824219-2.40625-20.707031-6.492187l-11.820313-13.628907c-2.457031-4.894531-3.851563-10.414062-3.851563-16.253906zm-107.109374-19.089844c.339843-4.785156 2.523437-9.152343 6.144531-12.296874 3.296875-2.855469 7.421875-4.390626 11.742187-4.390626.429688 0 .863282.011719 1.296875.042969 4.785157.339844 9.152344 2.523438 12.292969 6.144531l54.777344 63.144532c4.136718 7.035156 9.535156 13.238281 15.882812 18.308594l12.585938 14.511718h57.527344l12.589843-14.511718c6.347657-5.070313 11.742188-11.273438 15.882813-18.308594l54.777344-63.144532c3.140624-3.621093 7.507812-5.804687 12.292968-6.144531 4.796875-.339843 9.414063 1.207031 13.035156 4.347657 3.625 3.144531 5.808594 7.511718 6.144532 12.292968.339844 4.785156-1.203125 9.417969-4.347656 13.039063l-82.34375 94.921875v79.78125h-113.503907v-79.679688l-82.429687-95.023437c-3.140625-3.621094-4.6875-8.253907-4.347656-13.035157zm4.59375 300.015626 49.980468-183.296876 2.203125 2.539063v180.757813zm174.746093 134.289062c-11.496093 0-20.851562-9.355469-20.851562-20.855469v-148.507812h-30v148.503906c0 11.5-9.355469 20.855469-20.855469 20.855469s-20.851562-9.355469-20.851562-20.855469v-195.703125h113.417968v195.707031c-.003906 11.496094-9.359375 20.855469-20.859375 20.855469zm0 0"/><path d="m0 403.941406h30v51.058594h-30zm0 0"/><path d="m0 472.332031h30v28.667969h-30zm0 0"/><path d="m55.335938 403.941406h30v62.058594h-30zm0 0"/><path d="m55.335938 483.332031h30v28.667969h-30zm0 0"/><path d="m361.335938 403.941406h30v51.058594h-30zm0 0"/><path d="m361.335938 472.332031h30v28.667969h-30zm0 0"/><path d="m306 403.941406h30v62.058594h-30zm0 0"/><path d="m306 483.332031h30v28.667969h-30zm0 0"/></svg>