<svg height="512pt" viewBox="0 0 512 512" width="512pt" xmlns="http://www.w3.org/2000/svg"><path d="m512 0-138.1875 12.234375-251.25 251.25-24.15625-24.160156-56.859375 82.441406 33.542969 33.542969-58.214844 58.21875c-22.5 22.496094-22.5 59.101562 0 81.601562 11.246094 11.25 26.019531 16.875 40.796875 16.871094 14.773437 0 29.554687-5.625 40.800781-16.871094l58.21875-58.21875 33.539063 33.542969 82.445312-56.859375-24.160156-24.160156 251.246094-251.246094zm-434.746094 473.90625c-10.796875 10.796875-28.363281 10.796875-39.160156 0s-10.796875-28.363281 0-39.160156l58.214844-58.21875 39.160156 39.160156zm3.191406-155.683594 22.210938-32.207031 123.324219 123.324219-32.207031 22.214844zm390.386719-193.542968-243.535156 243.535156-31.148437-31.144532 170.757812-170.757812-21.21875-21.21875-170.757812 170.753906-31.144532-31.144531 243.535156-243.535156 91.625-8.113281zm0 0"/></svg>