<svg height="512pt" viewBox="0 -22 512 512" width="512pt" xmlns="http://www.w3.org/2000/svg"><path d="m432.964844 188.460938h-39.875v-9.347657c0-43.960937-35.769532-79.726562-79.730469-79.726562h-4.914063c5.359376-9.066407 8.449219-19.625 8.449219-30.898438 0-33.578125-27.316406-60.894531-60.894531-60.894531s-60.894531 27.316406-60.894531 60.894531c0 11.273438 3.089843 21.832031 8.449219 30.898438h-4.914063c-43.960937 0-79.730469 35.765625-79.730469 79.726562v9.347657h-39.875c-23.886718 0-43.324218 19.433593-43.324218 43.324218s19.4375 43.328125 43.324218 43.328125h97.90625v145.664063c0 25.933594 21.097656 47.03125 47.027344 47.03125 12.367188 0 23.628906-4.804688 32.03125-12.636719 8.402344 7.832031 19.664062 12.636719 32.03125 12.636719 25.929688 0 47.027344-21.097656 47.027344-47.03125v-145.664063h97.90625c23.886718 0 43.324218-19.4375 43.324218-43.328125s-19.433593-43.324218-43.324218-43.324218zm-176.964844-150.867188c17.035156 0 30.894531 13.859375 30.894531 30.894531 0 17.035157-13.859375 30.898438-30.894531 30.898438s-30.894531-13.863281-30.894531-30.898438c0-17.035156 13.859375-30.894531 30.894531-30.894531zm-107.089844 180.867188v-39.347657c0-27.417969 22.308594-49.726562 49.730469-49.726562h114.71875c27.417969 0 49.726563 22.308593 49.726563 49.726562v39.347657h20.914062v26.652343h-48.863281v-76.058593h-30v46.640624l-98.195313 1.820313v-48.375h-30v75.972656h-48.941406v-26.652343zm-83.199218 13.324218c0-7.347656 5.976562-13.324218 13.324218-13.324218h18.964844v26.652343h-18.964844c-7.347656 0-13.324218-5.980469-13.324218-13.328125zm222.320312 206.023438c-9.390625 0-17.03125-7.640625-17.03125-17.03125v-132.664063h-30v132.664063c0 9.390625-7.640625 17.03125-17.03125 17.03125s-17.027344-7.640625-17.027344-17.03125v-173.253906l98.117188-1.824219v175.078125c0 9.390625-7.636719 17.03125-17.027344 17.03125zm144.933594-192.695313h-18.964844v-26.652343h18.964844c7.347656 0 13.324218 5.976562 13.324218 13.324218s-5.976562 13.328125-13.324218 13.328125zm0 0"/><path d="m505.457031 75.054688-4.015625-8.738282h-19.503906v-29.152344l-3.085938-4.03125c-8.992187-11.765624-16.414062-20.148437-16.726562-20.496093l-11.21875-12.636719-11.214844 12.632812c-.496094.554688-12.191406 13.769532-24.046875 30.390626-17.382812 24.378906-25.832031 43.003906-25.832031 56.9375 0 33.6875 27.40625 61.09375 61.09375 61.09375s61.09375-27.40625 61.09375-61.09375c0-7.183594-2.140625-15.328126-6.542969-24.90625zm-54.550781 56.003906c-17.144531 0-31.09375-13.949219-31.09375-31.09375 0-9.929688 14.613281-33.25 31.042969-53.960938.355469.449219.714843.90625 1.082031 1.371094v48.945312h29.5c.476562 1.882813.5625 3.046876.5625 3.644532 0 17.144531-13.949219 31.09375-31.09375 31.09375zm0 0"/><path d="m122.1875 99.964844c0-13.9375-8.449219-32.5625-25.832031-56.941406-11.855469-16.621094-23.550781-29.835938-24.046875-30.390626l-11.214844-12.632812-11.21875 12.636719c-.3125.347656-7.734375 8.730469-16.726562 20.496093l-3.085938 4.03125v29.152344h-19.503906l-4.015625 8.738282c-4.402344 9.578124-6.542969 17.722656-6.542969 24.910156 0 33.6875 27.40625 61.09375 61.09375 61.09375s61.09375-27.410156 61.09375-61.09375zm-92.1875 0c0-.597656.085938-1.761719.558594-3.644532h29.503906v-48.945312c.363281-.464844.726562-.921875 1.082031-1.371094 16.429688 20.710938 31.042969 44.03125 31.042969 53.960938 0 17.144531-13.949219 31.09375-31.09375 31.09375s-31.09375-13.949219-31.09375-31.09375zm0 0"/></svg>