<svg height="512pt" viewBox="0 0 512 512" width="512pt" xmlns="http://www.w3.org/2000/svg"><path d="m437.019531 74.980469c-48.351562-48.351563-112.640625-74.980469-181.019531-74.980469s-132.667969 26.628906-181.019531 74.980469c-48.351563 48.351562-74.980469 112.640625-74.980469 181.019531 0 29.121094 10.445312 65.9375 31.042969 109.429688 4.773437 10.082031 13.050781 17.902343 22.957031 22.292968v42.867188h30v-40.359375c7.015625-1.800781 13.5625-5.234375 19.074219-10.113281l1.925781-1.707032v12.875c0 27.929688 14.550781 52.507813 36.453125 66.605469v54.109375h30v-42.578125c4.144531.671875 8.386719 1.035156 12.71875 1.035156h24.683594v-30h-24.683594c-27.113281 0-49.167969-22.058593-49.167969-49.171875v-81.671875c4.582032 1.597657 9.496094 2.472657 14.617188 2.472657 11.355468 0 21.730468-4.273438 29.617187-11.285157 7.882813 7.011719 18.257813 11.285157 29.617188 11.285157 4.050781 0 7.96875-.566407 11.699219-1.582032 10.230468 11.828125 25.332031 19.335938 42.164062 19.335938h32.535156c-12.472656 11.25-29.34375 31.3125-29.34375 57.507812h30c0-23.949218 28.058594-42.042968 28.296875-42.195312l7.050781-4.40625v-40.90625h-68.539062c-14.199219 0-25.753906-11.554688-25.753906-25.753906 0-6.191407 5.039062-11.230469 11.234375-11.230469h124.867187c2.167969 0 3.933594 1.765625 3.933594 3.933593v105.347657c0 37.671875-30.644531 68.320312-68.316406 68.320312h-10.972656v30h10.972656c5.101562 0 10.113281-.390625 15.003906-1.144531v42.6875h30v-52.464844c29.546875-15.277344 50.402344-45.097656 53.03125-79.925781 6.230469 5.5625 13.695312 9.320313 21.742188 11.023437v39.957032h30v-43.371094c9.90625-4.613281 18.152343-12.5625 22.945312-22.734375 20.300781-43.074219 30.59375-79.574219 30.59375-108.484375 0-68.378906-26.628906-132.667969-74.980469-181.019531zm-287.402343 207.105469c-8.058594 0-14.617188-6.558594-14.617188-14.617188v-79.941406c0-8.0625 6.558594-14.621094 14.617188-14.621094 8.0625 0 14.621093 6.558594 14.621093 14.621094v79.941406c0 8.0625-6.558593 14.617188-14.621093 14.617188zm57.347656-8c0 2.695312.203125 5.34375.574218 7.933593-7.445312-.667969-13.300781-6.933593-13.300781-14.550781v-99.824219c0-8.058593 6.558594-14.617187 14.617188-14.617187 8.058593 0 14.617187 6.558594 14.617187 14.617187v73.46875c-10.019531 7.527344-16.507812 19.503907-16.507812 32.972657zm120.359375-121.058594c8.0625 0 14.617187 6.558594 14.617187 14.617187v65.210938h-29.234375v-65.210938c0-8.0625 6.558594-14.617187 14.617188-14.617187zm-44.617188 14.617187v65.210938h-29.234375v-80.359375c0-8.058594 6.558594-14.617188 14.617188-14.617188 8.0625 0 14.621094 6.558594 14.621094 14.617188v15.148437zm171.558594 184.050781c-2.859375 6.0625-9.085937 9.984376-15.871094 9.984376-4.664062 0-9.058593-1.808594-12.375-5.085938l-19.019531-18.796875v-71.007813c0-18.710937-15.226562-33.933593-33.9375-33.933593h-1.121094v-65.210938c0-24.601562-20.015625-44.617187-44.617187-44.617187-7.824219 0-15.179688 2.03125-21.578125 5.582031-7.925782-12.449219-21.835938-20.730469-37.65625-20.730469-15.820313 0-29.730469 8.28125-37.65625 20.730469-6.398438-3.550781-13.753906-5.582031-21.578125-5.582031-17.316407 0-32.351563 9.921875-39.742188 24.375-5.890625-2.875-12.507812-4.496094-19.492187-4.496094-24.601563 0-44.617188 20.019531-44.617188 44.621094v150.808594l-21.820312 19.320312c-2.925782 2.59375-6.691406 4.019531-10.597656 4.019531-6.152344 0-11.816407-3.566406-14.429688-9.085937-18.683594-39.445313-28.15625-71.945313-28.15625-96.589844 0-124.617188 101.382812-226 226-226s226 101.382812 226 226c0 24.457031-9.332031 56.652344-27.734375 95.695312zm0 0"/><path d="m428.460938 452.796875h30v31.703125h-30zm0 0"/><path d="m482 465.296875h30v31.703125h-30zm0 0"/><path d="m0 465.296875h30v31.703125h-30zm0 0"/><path d="m54 228.859375h30v31.703125h-30zm0 0"/><path d="m392.667969 167.527344h30v31.699218h-30zm0 0"/><path d="m54 452.796875h30v31.703125h-30zm0 0"/></svg>