<svg height="512pt" viewBox="-34 0 512 512.001" width="512pt" xmlns="http://www.w3.org/2000/svg"><path d="m434.066406 98.242188c-42.074218-14.671876-75.328125-46.972657-91.226562-88.625l-3.671875-9.617188h-234.242188l-3.671875 9.613281c-15.898437 41.65625-49.152344 73.957031-91.226562 88.628907l-10.027344 3.492187v69.425781c0 68.125 18.726562 134.894532 54.152344 193.089844 35.425781 58.191406 86.136718 105.488281 146.65625 136.773438l21.238281 10.976562 21.238281-10.976562c60.515625-31.289063 111.230469-78.582032 146.65625-136.777344 35.425782-58.191406 54.152344-124.960938 54.152344-193.089844v-69.421875zm-19.863281 72.914062c0 128.214844-70.753906 244.433594-184.644531 303.3125l-7.511719 3.882812-7.511719-3.882812c-113.890625-58.875-184.644531-175.097656-184.644531-303.3125v-48.519531c42.46875-17.675781 76.457031-50.753907 95.300781-92.746094h193.710938c18.839844 41.992187 52.832031 75.066406 95.296875 92.742187v48.523438zm0 0"/><path d="m304.332031 63.410156-4.347656-7.285156h-155.875l-4.347656 7.285156c-19.507813 32.667969-34.875 50.5-74.378907 69.816406l-8.378906 4.097657v51.945312l.023438.847657c2.8125 49.570312 17.140625 97.496093 41.4375 138.585937 25.484375 43.097656 62.105468 78.742187 105.90625 103.082031l17.675781 9.144532 17.28125-8.933594.394531-.210938c43.800782-24.339844 80.421875-59.984375 105.90625-103.082031 24.292969-41.089844 38.625-89.015625 41.4375-138.585937l.023438-52.792969-8.382813-4.097657c-39.5-19.316406-54.867187-37.152343-74.375-69.816406zm-82.285156 207.570313c-21.421875 0-38.847656-17.425781-38.847656-38.847657 0-21.417968 17.429687-38.84375 38.847656-38.84375s38.84375 17.425782 38.84375 38.84375c0 21.421876-17.425781 38.847657-38.84375 38.847657zm-135.152344-82.140625v-33.019532c36.941407-19.5 55.382813-39.796874 74.089844-69.804687h46.117187v79.039063c-30.734374 6.84375-53.789062 34.3125-53.789062 67.078124 0 32.769532 23.054688 60.238282 53.789062 67.082032v99.453125c-70.472656-44.386719-115.082031-121.796875-120.207031-209.828125zm270.304688 0c-5.125 88.03125-49.734375 165.441406-120.207031 209.828125v-99.453125c30.738281-6.84375 53.792968-34.3125 53.792968-67.082032 0-32.765624-23.058594-60.234374-53.792968-67.078124v-79.039063h46.117187c18.707031 30.007813 37.148437 50.304687 74.089844 69.804687zm0 0"/></svg>