<svg height="512pt" viewBox="0 -100 512.002 512" width="512pt" xmlns="http://www.w3.org/2000/svg"><path d="m505.191406 146.78125c-1.128906-1.496094-28.132812-37.046875-71.945312-72.972656-25.894532-21.238282-52.335938-38.195313-78.585938-50.40625-33.382812-15.527344-66.574218-23.402344-98.660156-23.402344s-65.277344 7.875-98.660156 23.402344c-26.25 12.210937-52.691406 29.167968-78.585938 50.40625-43.808594 35.925781-70.816406 71.476562-71.945312 72.972656l-6.808594 9.027344 6.808594 9.03125c1.128906 1.496094 28.136718 37.042968 71.945312 72.972656 25.898438 21.234375 52.335938 38.195312 78.585938 50.40625 33.382812 15.527344 66.578125 23.402344 98.660156 23.402344 32.085938 0 65.28125-7.875 98.660156-23.402344 26.25-12.210938 52.691406-29.171875 78.589844-50.40625 43.808594-35.925781 70.8125-71.476562 71.941406-72.972656l6.8125-9.03125zm-249.191406 129.582031c-67.621094 0-122.636719-55.015625-122.636719-122.636719 0-67.625 55.015625-122.636718 122.636719-122.636718s122.636719 55.011718 122.636719 122.636718c0 67.621094-55.015625 122.636719-122.636719 122.636719zm-217.914062-120.554687c10.507812-12.449219 31.757812-35.988282 60.210937-59.246094 7.714844-6.308594 16.320313-12.863281 25.660156-19.296875-13.078125 22.496094-20.578125 48.617187-20.578125 76.460937 0 30.863282 9.21875 59.609376 25.03125 83.648438-11.074218-7.386719-21.1875-15.019531-30.113281-22.316406-28.457031-23.261719-49.707031-46.800782-60.210937-59.25zm375.617187 59.25c-8.925781 7.296875-19.039063 14.929687-30.113281 22.316406 15.8125-24.039062 25.03125-52.785156 25.03125-83.648438 0-27.84375-7.5-53.964843-20.578125-76.460937 9.339843 6.433594 17.945312 12.988281 25.660156 19.296875 28.453125 23.257812 49.703125 46.796875 60.210937 59.246094-10.507812 12.453125-31.757812 35.992187-60.210937 59.25zm0 0"/><path d="m256 69.851562c-46.25 0-83.875 37.625-83.875 83.875s37.625 83.875 83.875 83.875 83.875-37.625 83.875-83.875-37.625-83.875-83.875-83.875zm0 137.761719c-29.714844 0-53.886719-24.171875-53.886719-53.886719 0-24.511718 16.453125-45.238281 38.894531-51.75v51.75h29.984376v-51.75c22.441406 6.511719 38.894531 27.238282 38.894531 51.75 0 29.714844-24.171875 53.886719-53.886719 53.886719zm0 0"/></svg>