<svg height="511pt" viewBox="0 0 511 511.99898" width="511pt" xmlns="http://www.w3.org/2000/svg"><path d="m443.601562 187.832031-21.214843 21.214844 31.953125 31.953125h-51.265625c-3.605469-63.601562-30.074219-122.890625-75.480469-168.296875-37.824219-37.824219-85.421875-62.695313-137.640625-71.925781-14.75-2.605469-29.78125 1.414062-41.253906 11.039062-11.46875 9.617188-18.046875 23.71875-18.046875 38.6875 0 24.492188 17.472656 45.386719 41.539062 49.683594.417969.074219.828125.15625 1.238282.234375v140.578125h-31.730469l-20.5-39.484375h-120.699219l28.289062 54.484375-28.289062 54.484375h120.699219l20.5-39.484375h31.730469v140.578125c-.414063.074219-.820313.160156-1.238282.234375-24.066406 4.296875-41.539062 25.191406-41.539062 49.683594 0 14.96875 6.578125 29.070312 18.046875 38.6875 9.183593 7.703125 20.644531 11.816406 32.417969 11.816406 2.933593 0 5.890624-.257812 8.835937-.777344 52.21875-9.230468 99.8125-34.101562 137.640625-71.925781 45.40625-45.40625 71.875-104.699219 75.480469-168.296875h51.265625l-31.953125 31.953125 21.214843 21.210937 68.164063-68.164062zm-340.628906 92.652344h-53.09375l12.710938-24.484375-12.710938-24.484375h53.09375l12.710938 24.484375zm270.046875-39.488281h-41.050781c-3.140625-39.042969-18.453125-76.386719-43.925781-106.480469-14.015625-16.5625-30.699219-30.472656-49.164063-41.234375l17.074219-37.589844c18.296875 10.238282 35.25 23.046875 50.425781 38.222656 39.738282 39.738282 63.074219 91.503907 66.640625 147.082032zm-212.363281-190.496094c0-6.074219 2.667969-11.796875 7.320312-15.699219 3.730469-3.128906 8.386719-4.800781 13.164063-4.800781 1.191406 0 2.394531.105469 3.589844.316406 15.203125 2.6875 29.960937 6.886719 44.121093 12.496094l-17.015624 37.460938c-11.082032-4.277344-22.585938-7.519532-34.371094-9.625-9.742188-1.734376-16.808594-10.210938-16.808594-20.148438zm42.777344 58.628906c54.429687 21.832032 92.851562 72.492188 98.4375 131.871094h-98.4375zm0 161.867188h98.4375c-5.585938 59.378906-44.007813 110.039062-98.4375 131.871094zm-18.703125 210.683594c-5.984375 1.058593-12.09375-.574219-16.75-4.480469s-7.324219-9.628907-7.324219-15.703125c0-9.9375 7.066406-18.410156 16.808594-20.148438 11.75-2.097656 23.21875-5.328125 34.269531-9.585937l17.015625 37.460937c-14.125 5.589844-28.851562 9.777344-44.019531 12.457032zm121.648437-63.597657c-15.203125 15.203125-32.1875 28.027344-50.523437 38.273438l-17.070313-37.585938c18.503906-10.769531 35.21875-24.699219 49.257813-41.289062 25.472656-30.09375 40.785156-67.4375 43.925781-106.480469h41.050781c-3.566406 55.578125-26.902343 107.34375-66.640625 147.082031zm0 0"/></svg>