<svg height="512pt" viewBox="0 -21 512.00033 512" width="512pt" xmlns="http://www.w3.org/2000/svg"><path d="m502.21875 290.34375c-15.675781-20.53125-44.4375-24.878906-65.476562-9.902344l-67.101563 47.753906c.851563-3.683593 1.316406-7.511718 1.316406-11.449218 0-28.035156-22.808593-50.84375-50.84375-50.84375h-84.75c-10.296875-11.835938-35.609375-34.953125-76.246093-34.953125-40.316407 0-65.050782 21.753906-75.214844 33.113281h-83.902344v30l99.097656.195312 4.40625-6.835937c1.183594-1.691406 19.171875-26.472656 55.609375-26.472656 36.921875 0 55.730469 27.125 56.457031 28.195312l4.3125 6.757813h100.226563c11.496094 0 20.84375 9.351562 20.84375 20.84375 0 11.480468-9.324219 20.816406-20.792969 20.84375h-84.703125v30h130.570313l88.105468-62.707032c7.792969-5.542968 18.4375-3.933593 24.238282 3.664063 5.65625 7.40625 4.574218 17.902344-2.4375 24l-120.699219 94.964844c-12.507813 9.839843-28.109375 14.339843-43.9375 12.671875l-207.511719-21.875h-103.785156v30h102.210938l205.941406 21.710937c3.226562.339844 6.445312.507813 9.648437.507813 20.269531 0 39.851563-6.746094 55.984375-19.4375l120.945313-95.160156.421875-.34375c19.363281-16.414063 22.464844-45.070313 7.066406-65.242188zm0 0"/><path d="m321.300781 185.246094c34.527344 0 62.621094-28.089844 62.621094-62.621094 0-34.527344-28.09375-62.621094-62.621094-62.621094-34.53125 0-62.621093 28.09375-62.621093 62.621094 0 34.53125 28.089843 62.621094 62.621093 62.621094zm0-95.242188c17.988281 0 32.621094 14.632813 32.621094 32.621094s-14.632813 32.625-32.621094 32.625-32.621093-14.636719-32.621093-32.625 14.632812-32.621094 32.621093-32.621094zm0 0"/><path d="m306.300781 0h30v39.5h-30zm0 0"/><path d="m369.421875 53.210938 27.910156-27.949219 21.226563 21.195312-27.910156 27.949219zm0 0"/><path d="m404.402344 107.515625 39.5-.054687.042968 30-39.5.054687zm0 0"/><path d="m369.625 191.921875 21.164062-21.257813 27.992188 27.871094-21.167969 21.257813zm0 0"/><path d="m306.546875 205.785156 30-.085937.117187 39.496093-30 .089844zm0 0"/><path d="m224.257812 199.089844 27.832032-28.027344 21.285156 21.136719-27.828125 28.027343zm0 0"/><path d="m198.613281 108.152344 39.5-.167969.128907 30-39.5.167969zm0 0"/><path d="m223.613281 47.023438 21.109375-21.316407 28.066406 27.792969-21.105468 21.316406zm0 0"/></svg>