<svg height="512pt" viewBox="0 -21 512.00033 512" width="512pt" xmlns="http://www.w3.org/2000/svg"><path d="m173.996094 125.839844h30v28.664062h-30zm0 0"/><path d="m448.855469 166.5h30v28.667969h-30zm0 0"/><path d="m384.492188 246.644531h30v28.664063h-30zm0 0"/><path d="m502.21875 289.183594c-6.179688-8.09375-14.390625-13.660156-23.363281-16.53125v-56.816406h-30v57.183593c-4.210938 1.464844-8.292969 3.539063-12.113281 6.261719l-67.101563 47.757812c.851563-3.683593 1.316406-7.511718 1.316406-11.449218 0-28.039063-22.808593-50.847656-50.84375-50.847656h-84.75c-5.753906-6.609376-16.191406-16.738282-31.367187-24.394532v-65.175781h-30v55.691406c-4.707032-.6875-9.664063-1.070312-14.878906-1.070312-40.316407 0-65.050782 21.75-75.214844 33.113281h-83.902344v29.996094l99.097656.199218 4.40625-6.835937c1.183594-1.691406 19.171875-26.476563 55.609375-26.476563 36.921875 0 55.730469 27.128907 56.457031 28.199219l4.3125 6.753907h100.226563c11.496094 0 20.84375 9.355468 20.84375 20.847656 0 11.476562-9.324219 20.816406-20.792969 20.84375h-84.703125v30h130.570313l88.105468-62.710938c7.792969-5.542968 18.4375-3.933594 24.238282 3.667969 5.65625 7.40625 4.574218 17.898437-2.4375 23.996094l-120.699219 94.964843c-12.507813 9.84375-28.109375 14.34375-43.9375 12.675782l-207.511719-21.878906h-103.785156v30h102.210938l205.941406 21.710937c3.226562.339844 6.445312.507813 9.648437.507813 20.269531 0 39.851563-6.746094 55.984375-19.4375l120.945313-95.15625.421875-.347657c19.363281-16.414062 22.464844-45.070312 7.066406-65.242187zm0 0"/><path d="m320.332031 237.414062c49.40625 0 89.601563-40.195312 89.601563-89.601562 0-20.558594-13.113282-48.941406-40.085938-86.769531-18.898437-26.503907-37.515625-47.527344-38.296875-48.410157l-11.21875-12.632812-11.214843 12.632812c-.785157.878907-19.398438 21.90625-38.300782 48.410157-26.972656 37.828125-40.085937 66.210937-40.085937 86.769531 0 49.40625 40.195312 89.601562 89.601562 89.601562zm0-191.734374c26.605469 32.230468 59.601563 79.625 59.601563 102.132812 0 32.867188-26.734375 59.601562-59.601563 59.601562-32.863281 0-59.605469-26.734374-59.605469-59.601562 0-22.507812 33-69.902344 59.605469-102.132812zm0 0"/></svg>