<svg height="512pt" viewBox="0 -21 512.00036 512" width="512pt" xmlns="http://www.w3.org/2000/svg"><path d="m173.996094 126.640625h30v28.667969h-30zm0 0"/><path d="m448.855469 167.304688h30v28.667968h-30zm0 0"/><path d="m384.492188 247.449219h30v28.664062h-30zm0 0"/><path d="m502.21875 289.984375c-6.179688-8.089844-14.394531-13.65625-23.363281-16.527344v-56.820312h-30v57.1875c-4.210938 1.464843-8.289063 3.539062-12.113281 6.261719l-67.101563 47.753906c.851563-3.683594 1.316406-7.511719 1.316406-11.449219 0-28.035156-22.808593-50.84375-50.84375-50.84375h-84.75c-5.753906-6.613281-16.191406-16.738281-31.367187-24.394531v-65.175782h-30v55.691407c-4.707032-.6875-9.664063-1.074219-14.878906-1.074219-40.316407 0-65.050782 21.753906-75.214844 33.113281h-83.902344v30l99.097656.195313 4.40625-6.835938c1.183594-1.6875 19.171875-26.472656 55.609375-26.472656 36.921875 0 55.730469 27.125 56.457031 28.199219l4.3125 6.753906h100.226563c11.496094 0 20.847656 9.351563 20.847656 20.847656 0 11.476563-9.328125 20.8125-20.796875 20.839844h-84.703125v30h130.570313l88.105468-62.707031c7.789063-5.542969 18.4375-3.933594 24.238282 3.664062 5.652344 7.40625 4.570312 17.902344-2.4375 24l-120.695313 94.964844c-12.511719 9.839844-28.117187 14.339844-43.941406 12.671875l-207.511719-21.875h-103.785156v30h102.210938l205.941406 21.707031c3.226562.339844 6.445312.511719 9.648437.507813 20.265625 0 39.851563-6.742188 55.984375-19.4375l120.945313-95.15625.421875-.347657c19.363281-16.410156 22.46875-45.066406 7.066406-65.242187zm0 0"/><path d="m304.585938 235.394531h47.542968c18.25 0 35.347656-7.160156 48.148438-20.152343 12.546875-12.738282 19.308594-29.515626 19.039062-47.242188-.035156-2.121094-.167968-4.214844-.40625-6.230469v-.003906c-3.179687-27.113281-19.996094-46.53125-34.828125-63.664063l-1.613281-1.863281c-9.890625-11.4375-16.230469-21.476562-19.953125-31.589843-3.132813-8.515626-3.523437-17.441407-3.972656-27.78125-.1875-4.285157-.378907-8.714844-.789063-13.308594l-2.101562-23.558594-20.414063 11.945312c-30.707031 17.96875-50.390625 46.03125-56.921875 81.164063-1.558594 8.378906-2.179687 16.234375-2.300781 23.0625l-32.234375-11.511719-4.65625 14.90625c-12.648438 40.476563-1.585938 69.351563 9.921875 86.449219 12.378906 18.394531 33.144531 29.378906 55.539063 29.378906zm-40.332032-91.566406 48.347656 17.269531-5.367187-26.113281c-.113281-.546875-9.101563-46.808594 22.417969-80.6875.757812 6.71875 2.09375 13.605469 4.710937 20.714844 5.011719 13.609375 13.085938 26.589843 25.410157 40.847656l1.628906 1.882813c13.167968 15.207031 25.605468 29.570312 27.714844 47.515624.117187 1.011719.1875 2.085938.203124 3.199219.144532 9.625-3.554687 18.765625-10.414062 25.734375-7.117188 7.222656-16.625 11.203125-26.777344 11.203125h-47.539062c-12.398438 0-23.855469-6.03125-30.65625-16.128906-8.835938-13.128906-12.074219-28.363281-9.679688-45.4375zm0 0"/></svg>