<svg height="512pt" viewBox="0 -21 512.00036 512" width="512pt" xmlns="http://www.w3.org/2000/svg"><path d="m173.996094 126.996094h30v28.667968h-30zm0 0"/><path d="m448.855469 167.660156h30v28.667969h-30zm0 0"/><path d="m384.492188 247.804688h30v28.664062h-30zm0 0"/><path d="m502.21875 290.34375c-6.179688-8.09375-14.394531-13.660156-23.363281-16.53125v-56.816406h-30v57.183594c-4.210938 1.464843-8.292969 3.539062-12.113281 6.261718l-67.101563 47.757813c.851563-3.683594 1.316406-7.511719 1.316406-11.449219 0-28.039062-22.808593-50.847656-50.84375-50.847656h-84.75c-5.753906-6.609375-16.191406-16.738282-31.367187-24.394532v-65.175781h-30v55.691407c-4.707032-.6875-9.664063-1.074219-14.878906-1.074219-40.316407 0-65.050782 21.753906-75.21875 33.113281h-83.898438v30h99.074219l4.453125-6.679688c.179687-.265624 18.058594-26.433593 55.585937-26.433593 36.921875 0 55.730469 27.125 56.457031 28.195312l4.3125 6.757813h100.226563c11.496094 0 20.847656 9.351562 20.847656 20.84375 0 11.480468-9.328125 20.816406-20.796875 20.84375h-84.703125v30h130.570313l88.105468-62.707032c7.789063-5.542968 18.4375-3.9375 24.238282 3.664063 5.652344 7.40625 4.570312 17.902344-2.4375 24l-120.695313 94.960937c-12.511719 9.84375-28.113281 14.34375-43.941406 12.675782l-207.511719-21.875h-103.785156v29.996094h102.210938l205.941406 21.710937c3.226562.339844 6.445312.511719 9.648437.507813 20.265625 0 39.851563-6.746094 55.984375-19.4375l120.945313-95.15625.421875-.347657c19.363281-16.410156 22.46875-45.066406 7.066406-65.238281zm0 0"/><path d="m245.121094 154.535156 26.992187 13.09375 19.625-40.464844h29.265625v30.605469l-40.460937 19.621094 13.089843 26.992187 27.371094-13.273437v33.222656h30v-33.222656l27.371094 13.273437 13.089844-26.992187-40.460938-19.621094v-30.605469h30.601563l19.625 40.464844 26.992187-13.09375-13.273437-27.371094h33.222656v-30h-33.222656l13.273437-27.371093-26.992187-13.089844-19.625 40.460937h-30.601563v-29.265624l40.464844-19.625-13.09375-26.992188-27.371094 13.273438v-34.554688h-30v34.554688l-27.367187-13.273438-13.09375 26.992188 40.460937 19.625v29.265624h-29.265625l-19.625-40.460937-26.992187 13.089844 13.273437 27.371093h-34.554687v30h34.554687zm0 0"/></svg>