<svg height="512pt" viewBox="-80 0 512 512" width="512pt" xmlns="http://www.w3.org/2000/svg"><path d="m309.996094 233.632812c-5.039063 0-9.867188.886719-14.351563 2.507813-5.472656-17.046875-21.46875-29.425781-40.3125-29.425781-5.203125 0-10.191406.949218-14.800781 2.679687-5.863281-16.355469-21.515625-28.085937-39.859375-28.085937-4.289063 0-8.425781.644531-12.332031 1.835937v-9.179687c0-5.785156-1.167969-11.300782-3.277344-16.328125 6.035156-2.558594 11.570312-6.300781 16.316406-11.117188 9.429688-9.578125 14.511719-22.191406 14.308594-35.527343-.023438-1.605469-.128906-3.191407-.304688-4.71875-2.335937-19.878907-14.261718-33.65625-24.789062-45.808594l-1.09375-1.265625c-6.324219-7.316407-10.351562-13.660157-12.671875-19.964844-1.867187-5.078125-2.117187-10.796875-2.40625-17.417969-.113281-2.566406-.230469-5.21875-.445313-7.988281l-1.085937-13.828125h-20.035156l-3.636719 2.257812c-21.082031 13.089844-34.550781 33.097657-38.945312 57.859376-.558594 3.148437-.933594 6.179687-1.175782 9.046874l-20.5-7.320312-4.65625 14.902344c-9.15625 29.304687-1.0625 50.335937 7.335938 62.820312 4.390625 6.519532 10.191406 11.78125 16.851562 15.542969-2.839844 5.679687-4.449218 12.082031-4.449218 18.855469v143.269531l-14.75-21.890625-.394532-.496094c-16.15625-20.082031-44.578125-24.546875-66.109375-10.378906-11.257812 7.40625-18.886719 18.769531-21.480469 31.996094-2.570312 13.125.144532 26.425781 7.644532 37.488281l72.265625 113.90625.300781.457031c18.785156 27.351563 49.816406 43.683594 83.003906 43.683594h81.105469c59.035156 0 107.058594-48.027344 107.058594-107.058594v-128.980468c.003906-23.339844-18.988281-42.328126-42.328125-42.328126zm-165.132813-119.839843-5.367187-26.113281c-.058594-.292969-4.394532-22.582032 7.796875-42.351563.398437 1.410156.855469 2.835937 1.382812 4.269531 3.558594 9.667969 9.488281 19.226563 18.128907 29.21875l1.109374 1.285156c8.808594 10.171876 16.414063 18.957032 17.671876 29.667969.058593.519531.097656 1.085938.105468 1.679688.078125 5.234375-1.941406 10.210937-5.6875 14.019531-3.917968 3.976562-9.15625 6.167969-14.746094 6.167969h-32.277343c-6.808594 0-13.09375-3.296875-16.8125-8.824219-4.261719-6.328125-6.347657-13.523438-6.25-21.5zm177.464844 291.148437c0 42.492188-34.570313 77.058594-77.058594 77.058594h-81.109375c-23.210937 0-44.921875-11.378906-58.125-30.457031l-72.546875-114.332031c-3.027343-4.410157-4.128906-9.730469-3.101562-14.980469 1.03125-5.25 4.058593-9.757813 8.527343-12.699219 8.394532-5.523438 19.425782-3.914062 25.894532 3.695312l37.0625 55.015626c4.300781 6.386718 12.136718 9.164062 19.5 6.914062 7.363281-2.25 12.3125-8.929688 12.3125-16.628906v-184.5625c0-6.796875 5.53125-12.328125 12.328125-12.328125 6.800781 0 12.332031 5.527343 12.332031 12.328125v108.125h30v-58.453125c0-6.796875 5.53125-12.328125 12.332031-12.328125s12.332031 5.53125 12.332031 12.328125v58.453125h30v-33.042969c0-6.796875 5.53125-12.328125 12.328126-12.328125 6.800781 0 12.332031 5.527344 12.332031 12.328125v33.042969h30v-6.128906c0-6.796876 5.53125-12.328126 12.332031-12.328126 6.796875 0 12.332031 5.527344 12.332031 12.328126v128.980468zm0 0"/></svg>