<svg height="512pt" viewBox="0 -87 512.002 512" width="512pt" xmlns="http://www.w3.org/2000/svg"><path d="m374.316406 56.953125c-21.054687-13.199219-32.101562-27.382813-45.394531-49.640625l-4.367187-7.3125h-137.109376l-4.367187 7.3125c-13.292969 22.257812-24.339844 36.441406-45.394531 49.640625h-137.683594v15c0 23.917969 9.773438 45.601563 25.535156 61.257813v10.136718c0 25.222656 10.871094 47.957032 28.167969 63.765625v7.625c0 47.640625 38.757813 86.394531 86.394531 86.394531h59.878906c12.265626 10.414063 25.570313 19.644532 39.734376 27.515626l16.289062 8.429687 15.894531-8.214844.398438-.214843c14.164062-7.871094 27.464843-17.101563 39.734375-27.511719h59.875c47.640625 0 86.398437-38.757813 86.398437-86.394531v-7.628907c17.296875-15.808593 28.164063-38.542969 28.164063-63.765625v-10.132812c15.761718-15.660156 25.539062-37.339844 25.539062-61.261719v-15zm51.289063 71.394531h-25.660157c.324219-3.429687.589844-6.867187.789063-10.316406l.015625-31.078125h79.226562c-6.585937 23.835937-28.46875 41.394531-54.371093 41.394531zm-25.535157 71.390625h-16.675781c5.089844-13.351562 9.125-27.207031 12.058594-41.390625h58.984375c-6.585938 23.835938-28.464844 41.390625-54.367188 41.390625zm-144.070312-75.242187c13.261719 0 24.046875 10.789062 24.046875 24.050781 0 13.257813-10.785156 24.046875-24.046875 24.046875s-24.046875-10.789062-24.046875-24.046875c0-13.261719 10.785156-24.050781 24.046875-24.050781zm-144.757812-37.542969v30.226563l.023437.851562c.199219 3.449219.464844 6.886719.789063 10.316406h-25.660157c-25.902343 0-47.785156-17.558594-54.371093-41.394531zm5.304687 71.394531c2.933594 14.183594 6.96875 28.039063 12.058594 41.394532h-16.675781c-25.902344 0-47.78125-17.558594-54.367188-41.394532zm-30.820313 71.390625h56.566407c1.636719 3.050781 3.324219 6.066407 5.082031 9.039063 6.753906 11.417968 14.40625 22.234375 22.855469 32.355468h-30.132813c-25.90625 0-47.785156-17.554687-54.371094-41.394531zm172.1875 72.578125-1.914062.988282-1.914062-.988282c-66.042969-36.785156-108.199219-106.121094-112.84375-185.566406v-27.230469c31.214843-16.679687 47.152343-34.09375 63.125-59.515625h36.632812v66.628906c-22.523438 6.515626-39.046875 27.316407-39.046875 51.914063 0 29.800781 24.246094 54.046875 54.046875 54.046875s54.046875-24.246094 54.046875-54.046875c0-24.601563-16.523437-45.398437-39.046875-51.914063v-66.628906h36.632812c15.972657 25.421875 31.910157 42.835938 63.125 59.515625v27.230469c-4.644531 79.445312-46.800781 148.78125-112.84375 185.566406zm168.359376-72.578125c-6.585938 23.839844-28.464844 41.394531-54.371094 41.394531h-30.132813c8.449219-10.121093 16.101563-20.9375 22.855469-32.355468 1.757812-2.972656 3.445312-5.988282 5.082031-9.039063zm0 0"/></svg>