<svg height="512pt" viewBox="-48 0 512 512" width="512pt" xmlns="http://www.w3.org/2000/svg"><path d="m368.457031 122.640625 25.960938-15.035156 21.378906 36.925781-25.960937 15.03125zm0 0"/><path d="m271.394531 386.308594-27.222656-12.605469c-11.902344 25.703125-35.632813 43.851563-63.476563 48.542969l4.984376 29.582031c37.609374-6.335937 69.652343-30.832031 85.714843-65.519531zm0 0"/><path d="m296.339844 0h-74.332032c-35.660156 0-64.671874 29.011719-64.671874 64.675781v36.886719h-76.351563v92.042969c-48.601563 30.503906-80.984375 84.566406-80.984375 146.058593 0 95.027344 77.308594 172.335938 172.335938 172.335938 95.023437 0 172.332031-77.308594 172.332031-172.332031 0-61.496094-32.382813-115.558594-80.984375-146.058594v-92.046875h-76.347656v-36.886719c0-19.121093 15.554687-34.675781 34.671874-34.675781h74.332032c19.117187 0 34.671875 15.554688 34.671875 34.675781v30.324219h30v-30.324219c0-35.664062-29.011719-64.675781-64.671875-64.675781zm18.328125 339.667969c0 78.480469-63.851563 142.332031-142.332031 142.332031-78.484376 0-142.335938-63.851562-142.335938-142.332031 0-51.839844 27.863281-97.285157 69.394531-122.171875h145.878907c41.53125 24.886718 69.394531 70.332031 69.394531 122.171875zm-80.984375-208.105469v55.933594h-122.699219v-55.933594zm0 0"/><path d="m331.011719 125h30v42.667969h-30zm0 0"/><path d="m275.660156 144.511719 21.382813-36.921875 25.960937 15.03125-21.382812 36.921875zm0 0"/></svg>