<svg height="512pt" viewBox="-71 0 511 512" width="512pt" xmlns="http://www.w3.org/2000/svg"><path d="m302.910156 212.347656v-34.597656c0-29.992188-7.8125-60.027344-22.585937-86.867188-14.683594-26.667968-36.308594-50.285156-62.542969-68.304687l-32.875-22.578125-32.878906 22.578125c-26.234375 18.019531-47.859375 41.636719-62.542969 68.304687-14.777344 26.835938-22.585937 56.875-22.585937 86.867188v34.597656l-66.398438 38.988282v127.207031h82.929688l31.726562 60.75v30.753906h30.035156v-26.9375h24.695313v68.890625h30.035156v-68.890625h24.695313v26.9375h30.035156v-30.757813l31.726562-60.746093h82.929688v-127.207031zm-133.882812-165.011718 15.875-10.902344 15.875 10.902344c21.191406 14.554687 38.371094 33.015624 50.636718 53.75h-133.019531c12.265625-20.734376 29.445313-39.195313 50.632813-53.75zm-72.09375 130.414062c0-15.894531 2.65625-31.597656 7.691406-46.628906h160.558594c5.035156 15.03125 7.691406 30.734375 7.691406 46.628906v170.757812h-175.941406zm155.5625 200.792969-18.035156 34.53125h-99.113282l-18.035156-34.53125zm-221.960938-30.035157v-79.976562l36.363282-21.355469v101.332031zm308.738282 0h-36.363282v-101.332031l36.363282 21.355469zm0 0"/><path d="m185.46875 160.347656h-1.128906c-27.464844 0-49.804688 22.34375-49.804688 49.804688v71.503906h100.738282v-71.503906c0-27.460938-22.339844-49.804688-49.804688-49.804688zm19.769531 91.273438h-40.671875v-41.46875c0-10.902344 8.871094-19.769532 19.773438-19.769532h1.128906c10.902344 0 19.769531 8.867188 19.769531 19.769532zm0 0"/><path d="m224.617188 484.632812h30.035156v27.367188h-30.035156zm0 0"/><path d="m115.15625 484.632812h30.035156v27.367188h-30.035156zm0 0"/></svg>