<svg height="512pt" viewBox="-35 0 511 512" width="512pt" xmlns="http://www.w3.org/2000/svg"><path d="m362.992188 317.617188h29.371093v29.367187h-29.371093zm0 0"/><path d="m362.992188 380.492188h29.371093v29.371093h-29.371093zm0 0"/><path d="m331.554688 349.054688h29.367187v29.367187h-29.367187zm0 0"/><path d="m394.433594 349.054688h29.367187v29.367187h-29.367187zm0 0"/><path d="m59.644531 129.878906h29.367188v29.367188h-29.367188zm0 0"/><path d="m59.644531 192.757812h29.367188v29.367188h-29.367188zm0 0"/><path d="m28.203125 161.316406h29.371094v29.371094h-29.371094zm0 0"/><path d="m91.082031 161.316406h29.367188v29.371094h-29.367188zm0 0"/><path d="m214.664062 25.664062h29.371094v29.367188h-29.371094zm0 0"/><path d="m214.664062 88.542969h29.371094v29.367187h-29.371094zm0 0"/><path d="m183.226562 57.101562h29.371094v29.371094h-29.371094zm0 0"/><path d="m246.105469 57.101562h29.367187v29.371094h-29.367187zm0 0"/><path d="m441.726562 161.34375-19.796874-161.34375-282.445313 282.441406-23.242187-23.242187-66.742188 66.742187 31.824219 31.828125-80.824219 80.824219 73.402344 73.40625 80.828125-80.824219 31.828125 31.824219 66.742187-66.742188-23.246093-23.242187zm-42.058593-96.703125 10.535156 85.847656-201.335937 201.335938-48.191407-48.191407zm-325.765625 404.980469-31.023438-31.027344 59.636719-59.636719 31.023437 31.027344zm137.019531-73.363282-24.363281 24.363282-94.679688-94.679688 24.363282-24.363281 62.433593 62.4375 30.191407 30.1875zm0 0"/></svg>