<svg height="511pt" viewBox="-53 1 511 511.999" width="511pt" xmlns="http://www.w3.org/2000/svg"><path d="m318.277344 330.8125h-57.394532v-10.496094c40.980469-20.109375 69.078126-60.847656 69.078126-107.722656v-91.519531c0-12.929688-2.144532-25.390625-6.101563-37.082031h19.722656v-83.992188h-29.996093v53.992188h-4.957032c-22.796875-32.523438-61.664062-53.992188-105.695312-53.992188-44.035156 0-82.898438 21.46875-105.695313 53.992188h-6.191406v-53.992188h-29.996094v83.988281h20.957031c-3.957031 11.695313-6.101562 24.152344-6.101562 37.082031v91.523438c0 46.875 28.09375 87.609375 69.078125 107.722656v10.496094h-57.394531c-48.023438 0-87.089844 39.066406-87.089844 87.089844v94.097656h404.867188v-94.097656c0-48.023438-39.070313-87.089844-87.089844-87.089844zm-18.464844-214.804688h-44.398438l10.15625-64.433593c19.738282 15.699219 32.730469 38.652343 34.242188 64.433593zm-81.882812 54.996094c0-13.785156 11.214843-25 24.996093-25h51.082031v14.914063c0 13.785156-11.210937 25-24.996093 25h-51.082031zm19.726562-134.972656-13.109375 83.148438c-8.300781 2.953124-15.6875 7.851562-21.613281 14.136718-5.929688-6.289062-13.3125-11.183594-21.617188-14.136718l-13.105468-83.148438c10.785156-3.894531 22.492187-6.035156 34.722656-6.035156 12.226562 0 23.933594 2.140625 34.722656 6.035156zm-74.71875 109.972656c13.785156 0 24.996094 11.214844 24.996094 25v14.914063h-51.082032c-13.78125 0-24.996093-11.214844-24.996093-25v-14.914063zm-22.644531-94.429687 10.160156 64.433593h-44.398437c1.511718-25.78125 14.5-48.734374 34.238281-64.433593zm-34.390625 161.019531v-6.246094c8.820312 6.03125 19.480468 9.566406 30.949218 9.566406h132.160157c11.472656 0 22.128906-3.535156 30.953125-9.566406v6.246094c0 50.21875-43.527344 91.074219-97.03125 91.074219s-97.03125-40.855469-97.03125-91.074219zm97.03125 121.070312c9.601562 0 18.953125-1.027343 27.953125-2.957031v17.011719l-28.050781 18.96875-27.855469-19.921875v-16.058594c8.996093 1.929688 18.351562 2.957031 27.953125 2.957031zm172.4375 148.339844h-60.71875v-48.28125h-29.996094v48.28125h-163.449219v-48.28125h-29.996093v48.28125h-60.714844v-64.101562c0-31.480469 25.609375-57.09375 57.089844-57.09375h55.460937l59.3125 42.410156 62.714844-42.410156h53.203125c31.480468 0 57.09375 25.613281 57.09375 57.09375zm0 0"/></svg>