<svg height="512pt" viewBox="-53 0 512 512" width="512pt" xmlns="http://www.w3.org/2000/svg"><path d="m378.945312 353.921875v-178.226563c0-96.878906-78.816406-175.695312-175.695312-175.695312s-175.695312 78.816406-175.695312 175.695312v178.226563c-16.949219 15.953125-27.554688 38.578125-27.554688 63.636719v94.441406h406.5v-94.441406c0-25.058594-10.605469-47.683594-27.554688-63.636719zm-321.394531-178.226563c0-80.339843 65.359375-145.699218 145.699219-145.699218 80.335938 0 145.695312 65.359375 145.695312 145.699218v159.710938c-9.316406-3.394531-19.371093-5.25-29.847656-5.25h-57.710937v-18.269531c30.527343-19.332031 50.839843-53.402344 50.839843-92.132813v-105.769531h-217.953124v105.769531c0 38.730469 20.3125 72.800782 50.839843 92.132813v18.269531h-57.710937c-10.480469 0-20.53125 1.855469-29.851563 5.25zm224.679688 8.242188h-51.070313l-27.910156-18.40625-27.914062 18.40625h-51.066407v-39.957031h157.957031v39.957031zm-157.960938 30h60.070313l18.910156-12.472656 18.910156 12.472656h60.070313v5.816406c0 43.550782-35.429688 78.980469-78.980469 78.980469s-78.980469-35.429687-78.980469-78.980469zm50.839844 111.101562c8.980469 2.402344 18.410156 3.691407 28.140625 3.691407 9.726562 0 19.160156-1.289063 28.140625-3.691407v35.113282h19.261719l-47.332032 59.855468-46.753906-59.855468h18.542969zm201.394531 156.964844h-58.097656v-48.554687h-29.996094v48.554687h-164.289062v-48.554687h-29.996094v48.554687h-64.128906v-64.445312c0-31.65625 25.753906-57.40625 57.40625-57.40625h31.097656l84.679688 108.398437 85.710937-108.398437h30.207031c31.652344 0 57.40625 25.75 57.40625 57.40625zm0 0"/></svg>