<svg height="511pt" viewBox="-53 1 511 511.999" width="511pt" xmlns="http://www.w3.org/2000/svg"><path d="m318.644531 330.605469h-57.460937v-11.957031c33.429687-18.300782 57.339844-51.898438 62.257812-91.3125h15.363282v-18.710938h28.863281v-30.03125h-28.863281v-24.355469h36.207031v-30.03125h-36.691407c-5.824218-69.460937-64.210937-124.207031-135.152343-124.207031-70.941407 0-129.328125 54.746094-135.152344 124.207031h-36.691406v30.03125h36.203125v24.355469h-28.863282v30.03125h28.863282v18.710938h15.363281c4.917969 39.414062 28.828125 73.011718 62.261719 91.3125v11.957031h-57.464844c-48.074219 0-87.1875 39.113281-87.1875 87.1875v94.207031h405.332031v-94.207031c0-48.074219-39.109375-87.1875-87.1875-87.1875zm-143.460937-.414063c8.984375 2.132813 18.355468 3.269532 27.984375 3.269532 9.628906 0 18.996093-1.136719 27.984375-3.269532v4.441406c0 15.429688-12.554688 27.984376-27.984375 27.984376-15.433594 0-27.984375-12.554688-27.984375-27.984376zm133.589844-194.550781v61.664063h-77.316407l-20.570312-35.625 40.605469-33.90625v-86.019532c33.992187 17.566406 57.28125 53.054688 57.28125 93.886719zm-87.3125-104.019531v82.105468l-18.292969 15.273438-18.296875-15.273438v-82.105468c5.945312-1.042969 12.058594-1.589844 18.296875-1.589844s12.347656.546875 18.292969 1.589844zm-123.902344 104.019531c0-40.832031 23.289062-76.320313 57.28125-93.886719v86.019532l40.605468 33.90625-20.566406 35.625h-77.320312zm15.683594 91.695313h78.972656l10.949218-18.96875 10.953126 18.96875h78.976562c-7.214844 43.121093-44.789062 76.09375-89.929688 76.09375-45.136718 0-82.710937-32.972657-89.921874-76.09375zm262.5625 254.632812h-60.789063v-48.335938h-30.03125v48.335938h-163.636719v-48.335938h-30.03125v48.335938h-60.785156v-64.175781c0-31.515625 25.640625-57.15625 57.15625-57.15625h63.644531c9.550781 18.960937 29.191407 32.007812 51.835938 32.007812 22.640625 0 42.28125-13.046875 51.835937-32.007812h63.640625c31.515625 0 57.160157 25.640625 57.160157 57.15625zm0 0"/><path d="m239.203125 146.5625h42.710937v30.03125h-42.710937zm0 0"/><path d="m124.417969 146.5625h42.710937v30.03125h-42.710937zm0 0"/></svg>