<svg height="511pt" viewBox="-53 1 511 511.999" width="511pt" xmlns="http://www.w3.org/2000/svg"><path d="m318.644531 330.605469h-57.460937v-11.960938c33.425781-18.304687 57.339844-51.894531 62.253906-91.308593h71.910156v-135.03125h-45.097656l-14.738281 13.59375c-13.59375-60.53125-67.765625-105.898438-132.34375-105.898438s-118.75 45.367188-132.347657 105.898438l-14.734374-13.59375h-45.101563v135.03125h71.914063c4.914062 39.410156 28.824218 73.003906 62.253906 91.304687v11.964844h-57.464844c-48.074219 0-87.1875 39.113281-87.1875 87.1875v94.207031h405.332031v-94.207031c.003907-48.074219-39.109375-87.1875-87.1875-87.1875zm-115.476562 32.007812c-15.429688 0-27.984375-12.550781-27.984375-27.980469v-4.441406c8.984375 2.132813 18.355468 3.269532 27.984375 3.269532 9.628906 0 18.996093-1.136719 27.984375-3.269532v4.441406c0 15.429688-12.554688 27.980469-27.984375 27.980469zm-105.609375-165.308593v-37.726563h73.535156l17.058594 16.898437v20.828126zm137.679687-37.730469h73.539063v37.730469h-90.59375v-20.832032zm126.746094-37.238281h3.335937v74.96875h-26.511718v-53.589844zm-146.804687-91.617188v30.367188h-26.695313v-30.027344c4.800781-.671875 9.699219-1.027344 14.683594-1.027344 4.0625 0 8.066406.238281 12.011719.6875zm-56.726563 9.257812v51.140626h86.757813v-52.347657c35.605468 15.515625 61.058593 50.097657 63.382812 90.777344h-85.714844l-19.710937 19.53125-19.714844-19.53125h-85.714844c2.269531-39.65625 26.515625-73.515625 60.714844-89.570313zm-117.4375 157.328126v-74.96875h3.335937l23.175782 21.378906v53.589844zm72.230469 30.03125h179.84375c-7.210938 43.121093-44.785156 76.09375-89.921875 76.09375-45.140625 0-82.710938-32.972657-89.921875-76.09375zm-82.714844 190.457031c0-31.515625 25.640625-57.15625 57.160156-57.15625h63.640625c7.359375 14.613281 20.714844 25.707031 36.820313 30.027343v91.304688h-66.800782v-48.335938h-30.03125v48.335938h-60.789062zm345.273438 64.175781h-60.789063v-48.335938h-30.03125v48.335938h-66.800781v-91.304688c16.105468-4.320312 29.457031-15.414062 36.820312-30.027343h63.640625c31.515625 0 57.160157 25.640625 57.160157 57.15625zm0 0"/></svg>