<svg height="511pt" viewBox="-52 1 511 511.999" width="511pt" xmlns="http://www.w3.org/2000/svg"><path d="m379.445312 353.921875v-178.226563c0-96.878906-78.816406-175.695312-175.695312-175.695312s-175.695312 78.816406-175.695312 175.695312v178.226563c-16.953126 15.953125-27.554688 38.578125-27.554688 63.632813v94.445312h406.5v-94.445312c0-25.054688-10.605469-47.679688-27.554688-63.632813zm-321.394531-178.226563c0-80.339843 65.359375-145.699218 145.699219-145.699218 80.335938 0 145.699219 65.359375 145.699219 145.699218v159.710938c-9.320313-3.394531-19.375-5.25-29.851563-5.25h-57.710937v-18.269531c30.527343-19.332031 50.839843-53.402344 50.839843-92.132813v-113.085937h-34.324218c-22.386719 0-43.121094-11.148438-55.472656-29.820313l-9.132813-13.808594h-20.097656l-9.132813 13.808594c-12.347656 18.671875-33.082031 29.820313-55.46875 29.820313h-34.324218v113.085937c0 38.730469 20.3125 72.800782 50.839843 92.132813v18.269531h-57.710937c-10.480469 0-20.53125 1.855469-29.851563 5.25zm66.71875 17.179688h157.960938v26.878906c0 43.550782-35.429688 78.980469-78.980469 78.980469s-78.980469-35.429687-78.980469-78.980469zm157.960938-29.996094h-157.960938v-26.210937h4.328125c29.175782 0 56.425782-13.054688 74.652344-35.347657 18.226562 22.292969 45.472656 35.347657 74.652344 35.347657h4.328125zm-107.121094 162.160156c8.980469 2.402344 18.414063 3.691407 28.140625 3.691407 9.730469 0 19.160156-1.289063 28.140625-3.691407v35.113282h18.789063l-26.335938 33.304687c-5.082031 6.421875-12.679688 10.101563-20.867188 10.101563-.023437 0-.054687 0-.078124 0-8.21875-.023438-15.828126-3.75-20.886719-10.226563l-25.921875-33.179687h19.019531zm201.394531 156.964844h-61.113281v-48.554687h-29.996094v48.554687h-164.289062v-48.554687h-29.996094v48.554687h-61.113281v-64.445312c0-31.65625 25.753906-57.40625 57.40625-57.40625h30.625l40.34375 51.644531c10.761718 13.777344 26.957031 21.707031 44.433594 21.757813h.175781c17.410156 0 33.582031-7.828126 44.386719-21.496094l41.046874-51.910156h30.679688c31.65625 0 57.40625 25.753906 57.40625 57.40625v64.449218zm0 0"/></svg>