<svg height="512pt" viewBox="0 -12 512.00116 512" width="512pt" xmlns="http://www.w3.org/2000/svg"><path d="m510.917969 232.777344-29.871094 2.746094c1.28125 13.964843 1.261719 27.886718-.019531 41.632812l-141.191406-27.71875c-2.011719-26.039062-15.917969-48.792969-36.292969-62.804688l46.539062-136.175781c12.542969 5.761719 24.617188 12.699219 36.074219 20.789063l17.300781-24.503906c-43.308593-30.578126-94.300781-46.742188-147.457031-46.742188s-104.144531 16.164062-147.453125 46.742188l17.300781 24.503906c11.457032-8.085938 23.527344-15.023438 36.074219-20.785156l46.539063 136.171874c-20.40625 14.035157-34.320313 36.828126-36.304688 62.914063l-141.15625 27.898437c-1.296875-13.746093-1.335938-27.667968-.070312-41.636718l-29.875-2.703125c-4.78125 52.800781 6.761718 105.027343 33.375 151.039062 26.617187 46.011719 66.140624 82.054688 114.296874 104.234375l12.546876-27.246094c-12.738282-5.867187-24.785157-12.84375-36.054688-20.816406l94.542969-108.445312c10.980469 5.261718 23.269531 8.214844 36.238281 8.214844 13.003906 0 25.328125-2.96875 36.332031-8.261719l94.683594 108.324219c-11.257813 7.992187-23.296875 14.980468-36.03125 20.863281l12.582031 27.230469c48.128906-22.242188 87.605469-58.335938 114.164063-104.378907 26.558593-46.046875 38.035156-98.289062 33.1875-151.085937zm-320.941407-192.984375c21.195313-6.464844 43.386719-9.792969 66.023438-9.792969s44.828125 3.328125 66.027344 9.792969l-45.96875 134.5c-6.433594-1.578125-13.144532-2.433594-20.058594-2.433594s-13.625.855469-20.058594 2.433594zm-129.578124 329.332031c-11.335938-19.59375-19.566407-40.46875-24.582032-62.054688l139.445313-27.5625c3.851562 13.183594 10.84375 25.03125 20.117187 34.683594l-93.441406 107.179688c-16.210938-15.113282-30.203125-32.648438-41.539062-52.246094zm141.484374-113.152344c0-29.839844 24.277344-54.117187 54.117188-54.117187s54.117188 24.277343 54.117188 54.117187-24.277344 54.117188-54.117188 54.117188-54.117188-24.277344-54.117188-54.117188zm208.390626 165.203125-93.578126-107.0625c9.261719-9.664062 16.238282-21.519531 20.074219-34.707031l139.480469 27.382812c-4.988281 21.589844-13.191406 42.476563-24.503906 62.085938-11.308594 19.609375-25.28125 37.167969-41.472656 52.300781zm0 0"/></svg>