<svg height="512pt" viewBox="0 -106 512 512" width="512pt" xmlns="http://www.w3.org/2000/svg"><path d="m176.046875 103.839844v92.320312l79.953125 46.160156 79.953125-46.160156v-92.320312l-79.953125-46.160156zm129.90625 75-49.953125 28.839844-49.953125-28.839844v-57.679688l49.953125-28.839844 49.953125 28.839844zm0 0"/><path d="m512 95.40625v-30h-132.199219c-27.046875-39.464844-72.449219-65.40625-123.800781-65.40625s-96.753906 25.941406-123.800781 65.40625h-132.199219v30h116.285156c-4.890625 12.476562-8.15625 25.761719-9.539062 39.59375h-60.746094v30h60.746094c1.382812 13.832031 4.648437 27.117188 9.539062 39.59375h-116.285156v30h132.199219c27.046875 39.464844 72.449219 65.40625 123.800781 65.40625s96.753906-25.941406 123.800781-65.40625h132.199219v-30h-116.285156c4.890625-12.476562 8.15625-25.761719 9.539062-39.59375h60.746094v-30h-60.746094c-1.382812-13.832031-4.648437-27.117188-9.539062-39.59375zm-256 174.59375c-66.167969 0-120-53.832031-120-120s53.832031-120 120-120 120 53.832031 120 120-53.832031 120-120 120zm0 0"/></svg>