<svg height="512pt" viewBox="-52 0 511 512" width="512pt" xmlns="http://www.w3.org/2000/svg"><path d="m379.445312 353.921875v-178.226563c0-96.878906-78.816406-175.695312-175.695312-175.695312s-175.695312 78.816406-175.695312 175.695312v178.226563c-16.949219 15.953125-27.554688 38.578125-27.554688 63.636719v94.441406h406.5v-94.441406c0-25.058594-10.601562-47.683594-27.554688-63.636719zm-321.394531-178.226563c0-80.339843 65.359375-145.699218 145.699219-145.699218s145.699219 65.359375 145.699219 145.699218v159.710938c-9.316407-3.394531-19.371094-5.25-29.851563-5.25h-57.710937v-18.269531c30.527343-19.328125 50.84375-53.402344 50.84375-92.132813v-110.765625h-217.953125v110.765625c0 38.730469 20.3125 72.800782 50.839844 92.132813v18.269531h-57.714844c-10.476563 0-20.53125 1.855469-29.851563 5.25zm125.300781 248.253907h40.796876v58.054687h-40.796876zm48.117188-29.996094h-55.4375l-24.367188-33.800781h23.945313v-35.113282c8.980469 2.402344 18.414063 3.691407 28.140625 3.691407 9.730469 0 19.160156-1.289063 28.140625-3.691407v35.113282h23.945313zm19.269531-175.9375c-19.84375 0-31.988281-9.226563-31.988281-14.246094 0-5.023437 12.144531-14.25 31.988281-14.25 19.847657 0 31.992188 9.226563 31.992188 14.25 0 5.019531-12.144531 14.246094-31.992188 14.246094zm31.992188-52.328125c-9.285157-3.921875-20.203125-6.164062-31.992188-6.164062-18.980469 0-35.703125 5.804687-46.988281 15.109374-11.28125-9.304687-28.003906-15.109374-46.988281-15.109374-11.789063 0-22.703125 2.242187-31.992188 6.164062v-26.703125h157.960938zm-157.960938 38.082031c0-5.023437 12.148438-14.25 31.992188-14.25s31.992187 9.226563 31.992187 14.25c0 5.019531-12.148437 14.246094-31.992187 14.246094s-31.992188-9.226563-31.992188-14.246094zm31.992188 44.242188c18.984375 0 35.707031-5.804688 46.988281-15.105469 11.285156 9.300781 28.007812 15.105469 46.988281 15.105469 10.316407 0 19.957031-1.722657 28.429688-4.777344-10.023438 32.121094-40.039063 55.5-75.417969 55.5-35.375 0-65.394531-23.378906-75.414062-55.5 8.472656 3.054687 18.113281 4.777344 28.425781 4.777344zm-126.265625 169.542969c0-31.652344 25.753906-57.402344 57.40625-57.402344h26.78125l38.671875 53.640625v68.210937h-28.734375v-48.554687h-29.996094v48.554687h-64.128906zm346.507812 64.449218h-58.097656v-48.554687h-29.996094v48.554687h-34.765625v-68.210937l38.671875-53.640625h26.78125c31.652344 0 57.40625 25.753906 57.40625 57.40625zm0 0"/></svg>