<svg height="512pt" viewBox="-53 0 512 512" width="512pt" xmlns="http://www.w3.org/2000/svg"><path d="m318.144531 330.605469h-57.460937v-11.957031c33.429687-18.300782 57.339844-51.898438 62.257812-91.3125h15.363282v-57.679688l16.667968-6.007812c18.003906-6.492188 32.402344-19.609376 40.542969-36.929688s9.046875-36.773438 2.554687-54.777344l-5.09375-14.125-.054687.019532c3.929687-13.898438 3.730469-29.097657-1.53125-43.691407l-5.089844-14.1249998-94.011719 33.9023438c-23.917968-21.097656-55.296874-33.921875-89.625-33.921875-34.324218 0-65.703124 12.824219-89.621093 33.921875l-94.007813-33.9023438-5.09375 14.1249998c-5.261718 14.59375-5.457031 29.792969-1.53125 43.691407l-.054687-.019532-5.09375 14.125c-6.492188 18.003906-5.585938 37.457032 2.554687 54.78125 8.140625 17.320313 22.539063 30.433594 40.542969 36.925782l16.667969 6.011718v57.675782h15.363281c4.917969 39.417968 28.828125 73.011718 62.261719 91.3125v11.957031h-57.464844c-48.074219 0-87.1875 39.113281-87.1875 87.191406v94.203125h405.335938v-94.207031c-.003907-48.074219-39.113282-87.1875-87.191407-87.1875zm50.191407-216.65625c-4.726563 10.058593-13.089844 17.675781-23.550782 21.449219l-6.480468 2.335937v-2.09375c0-8.65625-.824219-17.121094-2.378907-25.328125l12.371094-4.460938c.003906 0 .007813-.003906.011719-.003906l23.992187-8.652344c-.128906 5.726563-1.457031 11.414063-3.964843 16.753907zm-30.183594-36.363281-11.09375 4c-3.625-8.304688-8.054688-16.179688-13.191406-23.523438l51.734374-18.652344c-.40625 16.660156-10.867187 32.171875-27.449218 38.175782zm-29.878906 58.054687v61.664063h-211.214844v-61.664063c0-58.234375 47.375-105.609375 105.605468-105.609375 58.234376 0 105.609376 47.375 105.609376 105.609375zm-268.542969-96.230469 51.734375 18.652344c-5.136719 7.34375-9.566406 15.21875-13.191406 23.523438l-11.078126-3.996094c-16.59375-5.996094-27.058593-21.515625-27.464843-38.179688zm20.816406 95.988282c-10.460937-3.769532-18.824219-11.390626-23.550781-21.449219-2.507813-5.339844-3.835938-11.027344-3.964844-16.753907l24.007812 8.65625 12.367188 4.460938c-1.554688 8.207031-2.378906 16.671875-2.378906 25.324219v2.097656zm52.191406 91.9375h179.855469c-7.214844 43.121093-44.789062 76.09375-89.929688 76.09375-45.136718 0-82.714843-32.972657-89.925781-76.09375zm89.925781 106.125c9.632813 0 19-1.136719 27.988282-3.269532v35.519532l-55.972656.0625v-35.578126c8.988281 2.128907 18.355468 3.265626 27.984374 3.265626zm172.636719 148.507812h-60.785156v-48.335938h-30.03125v48.335938h-163.636719v-48.335938h-30.03125v48.335938h-60.785156v-64.175781c0-31.515625 25.640625-57.15625 57.15625-57.15625h57.460938v35.199219l116.03125-.125v-35.074219h57.464843c31.515625 0 57.15625 25.640625 57.15625 57.15625zm0 0"/><path d="m138.765625 139.554688h42.710937v30.03125h-42.710937zm0 0"/><path d="m223.855469 139.554688h42.710937v30.03125h-42.710937zm0 0"/><path d="m223.019531 427.183594h40.042969v30.03125h-40.042969zm0 0"/></svg>