<svg height="512pt" viewBox="0 -148 512 512" width="512pt" xmlns="http://www.w3.org/2000/svg"><path d="m293.765625 0-4.316406 7.558594c-6.855469 11.996094-19.671875 19.449218-33.449219 19.449218s-26.59375-7.453124-33.445312-19.449218l-4.320313-7.558594h-218.234375v215.945312h220.191406l35.808594-32.300781 35.808594 32.300781h220.191406v-215.945312zm188.234375 185.945312h-178.660156l-47.339844-42.703124-47.339844 42.703124h-178.660156v-155.945312h171.515625c12.855469 16.847656 33.011719 27.007812 54.484375 27.007812s41.628906-10.160156 54.484375-27.007812h171.515625zm0 0"/><path d="m256 88.511719-16.972656-2.988281c-17.207032-3.03125-33.378906-10.625-46.757813-21.964844l-4.199219-3.558594h-128.070312v95.945312h137.128906l58.871094-53.101562 58.871094 53.101562h137.128906v-95.945312h-128.070312l-4.199219 3.558594c-13.378907 11.339844-29.550781 18.9375-46.757813 21.964844zm-70.402344 37.433593h-95.597656v-35.945312h87.261719c8.992187 6.96875 18.84375 12.699219 29.269531 17.0625zm149.140625-35.945312h87.261719v35.945312h-95.597656l-20.933594-18.886718c10.425781-4.359375 20.277344-10.089844 29.269531-17.058594zm0 0"/></svg>