<svg height="512pt" viewBox="0 0 512 512" width="512pt" xmlns="http://www.w3.org/2000/svg"><path d="m313.675781 231.464844-1.617187-1.867188c-9.886719-11.4375-16.230469-21.476562-19.953125-31.59375-3.132813-8.515625-3.519531-17.441406-3.972657-27.78125-.1875-4.285156-.378906-8.714844-.789062-13.308594l-2.097656-23.558593-20.417969 11.945312c-30.707031 17.96875-50.390625 46.03125-56.921875 81.164063-1.554688 8.382812-2.179688 16.234375-2.300781 23.0625l-32.234375-11.511719-4.65625 14.90625c-12.652344 40.476563-1.585938 69.355469 9.921875 86.453125 12.378906 18.394531 33.144531 29.375 55.539062 29.375h47.542969c18.25 0 35.347656-7.15625 48.148438-20.148438 12.546874-12.742187 19.308593-29.519531 19.039062-47.246093-.03125-2.125-.167969-4.222657-.402344-6.230469-3.183594-27.113281-19.996094-46.527344-34.828125-63.660156zm-5.183593 96.085937c-7.113282 7.222657-16.621094 11.203125-26.769532 11.203125h-47.542968c-12.398438 0-23.859376-6.03125-30.65625-16.128906-8.835938-13.132812-12.074219-28.363281-9.679688-45.4375l23.246094 8.300781 25.117187 9.023438-5.371093-26.113281c-.03125-.167969-3.257813-16.960938.757812-37.445313 3.355469-17.117187 10.605469-31.632813 21.640625-43.390625.753906 6.746094 2.089844 13.664062 4.71875 20.804688 5.011719 13.613281 13.085937 26.59375 25.410156 40.851562l1.632813 1.886719c13.167968 15.207031 25.605468 29.570312 27.710937 47.515625v.003906c.117188 1.003906.1875 2.074219.203125 3.1875.148438 9.628906-3.554687 18.769531-10.417968 25.738281zm0 0"/><path d="m437.019531 74.980469c-48.351562-48.351563-112.640625-74.980469-181.019531-74.980469s-132.667969 26.628906-181.019531 74.980469c-48.351563 48.351562-74.980469 112.640625-74.980469 181.019531s26.628906 132.667969 74.980469 181.019531c48.351562 48.351563 112.640625 74.980469 181.019531 74.980469s132.667969-26.628906 181.019531-74.980469c48.351563-48.351562 74.980469-112.640625 74.980469-181.019531s-26.628906-132.667969-74.980469-181.019531zm-181.019531 407.019531c-124.617188 0-226-101.382812-226-226s101.382812-226 226-226 226 101.382812 226 226-101.382812 226-226 226zm0 0"/><path d="m256 66c-104.765625 0-190 85.234375-190 190s85.234375 190 190 190 190-85.234375 190-190-85.234375-190-190-190zm0 350c-88.222656 0-160-71.773438-160-160s71.777344-160 160-160 160 71.773438 160 160-71.777344 160-160 160zm0 0"/></svg>