<svg height="512pt" viewBox="0 0 512 512" width="512pt" xmlns="http://www.w3.org/2000/svg"><path d="m437.019531 74.980469c-48.351562-48.351563-112.640625-74.980469-181.019531-74.980469s-132.667969 26.628906-181.019531 74.980469c-48.351563 48.351562-74.980469 112.640625-74.980469 181.019531s26.628906 132.667969 74.980469 181.019531c48.351562 48.351563 112.640625 74.980469 181.019531 74.980469s132.667969-26.628906 181.019531-74.980469c48.351563-48.351562 74.980469-112.640625 74.980469-181.019531s-26.628906-132.667969-74.980469-181.019531zm-181.019531 407.019531c-124.617188 0-226-101.382812-226-226s101.382812-226 226-226 226 101.382812 226 226-101.382812 226-226 226zm0 0"/><path d="m256 66c-104.765625 0-190 85.234375-190 190s85.234375 190 190 190 190-85.234375 190-190-85.234375-190-190-190zm0 350c-88.222656 0-160-71.773438-160-160s71.777344-160 160-160c88.226562 0 160 71.773438 160 160s-71.773438 160-160 160zm0 0"/><path d="m293.417969 209.921875-37.417969-75.816406-37.417969 75.816406-83.667969 12.15625 60.542969 59.015625-14.292969 83.324219 74.835938-39.339844 74.832031 39.34375-14.292969-83.328125 60.542969-59.015625zm-2.429688 99.65625-34.988281-18.390625-34.988281 18.394531 6.679687-38.964843-28.304687-27.589844 39.121093-5.683594 17.492188-35.449219 17.496094 35.449219 39.117187 5.683594-28.308593 27.589844zm0 0"/></svg>