<svg height="512pt" viewBox="0 0 512 512" width="512pt" xmlns="http://www.w3.org/2000/svg"><path d="m267.21875 151.445312-11.21875-12.632812-11.21875 12.632812c-.734375.828126-18.246094 20.609376-36.019531 45.53125-25.441407 35.679688-37.8125 62.503907-37.8125 82.003907 0 46.898437 38.152343 85.050781 85.050781 85.050781 46.894531 0 85.046875-38.152344 85.046875-85.050781 0-19.5-12.367187-46.324219-37.8125-82.003907-17.769531-24.921874-35.28125-44.703124-36.015625-45.53125zm-11.21875 182.585938c-30.355469 0-55.046875-24.695312-55.046875-55.050781 0-20.710938 30.285156-64.339844 55.050781-94.460938 24.761719 30.101563 55.042969 73.71875 55.042969 94.460938 0 30.355469-24.691406 55.050781-55.046875 55.050781zm0 0"/><path d="m437.019531 74.980469c-48.351562-48.351563-112.640625-74.980469-181.019531-74.980469s-132.667969 26.628906-181.019531 74.980469c-48.351563 48.351562-74.980469 112.640625-74.980469 181.019531s26.628906 132.667969 74.980469 181.019531c48.351562 48.351563 112.640625 74.980469 181.019531 74.980469s132.667969-26.628906 181.019531-74.980469c48.351563-48.351562 74.980469-112.640625 74.980469-181.019531s-26.628906-132.667969-74.980469-181.019531zm-181.019531 407.019531c-124.617188 0-226-101.382812-226-226s101.382812-226 226-226 226 101.382812 226 226-101.382812 226-226 226zm0 0"/><path d="m256 72c-101.457031 0-184 82.542969-184 184s82.542969 184 184 184 184-82.542969 184-184-82.542969-184-184-184zm0 338c-84.914062 0-154-69.085938-154-154s69.085938-154 154-154 154 69.085938 154 154-69.085938 154-154 154zm0 0"/></svg>