<svg height="512pt" viewBox="0 0 512 512" width="512pt" xmlns="http://www.w3.org/2000/svg"><path d="m437.019531 74.980469c-48.351562-48.351563-112.640625-74.980469-181.019531-74.980469s-132.667969 26.628906-181.019531 74.980469c-48.351563 48.351562-74.980469 112.640625-74.980469 181.019531s26.628906 132.667969 74.980469 181.019531c48.351562 48.351563 112.640625 74.980469 181.019531 74.980469s132.667969-26.628906 181.019531-74.980469c48.351563-48.351562 74.980469-112.640625 74.980469-181.019531s-26.628906-132.667969-74.980469-181.019531zm-181.019531 407.019531c-124.617188 0-226-101.382812-226-226s101.382812-226 226-226 226 101.382812 226 226-101.382812 226-226 226zm0 0"/><path d="m256 72c-101.457031 0-184 82.542969-184 184s82.542969 184 184 184 184-82.542969 184-184-82.542969-184-184-184zm154 184c0 24.621094-5.816406 47.90625-16.136719 68.570312l-68.570312-68.570312 68.570312-68.570312c10.320313 20.664062 16.136719 43.949218 16.136719 68.570312zm-85.429688-137.863281-68.570312 68.570312-68.570312-68.570312c20.664062-10.320313 43.949218-16.136719 68.570312-16.136719s47.90625 5.816406 68.570312 16.136719zm-206.433593 69.292969 68.570312 68.570312-68.570312 68.570312c-10.320313-20.664062-16.136719-43.949218-16.136719-68.570312s5.816406-47.90625 16.136719-68.570312zm69.292969 206.433593 68.570312-68.570312 68.570312 68.570312c-20.664062 10.320313-43.949218 16.136719-68.570312 16.136719s-47.90625-5.816406-68.570312-16.136719zm163.152343-16.414062-94.582031-94.582031-94.582031 94.582031c-10.015625-7.820313-19.046875-16.851563-26.867188-26.867188l94.582031-94.582031-94.582031-94.582031c7.820313-10.015625 16.851563-19.046875 26.867188-26.867188l94.582031 94.582031 94.582031-94.582031c10.019531 7.820313 19.046875 16.851563 26.867188 26.867188l-94.582031 94.582031 94.582031 94.582031c-7.820313 10.019531-16.847657 19.046875-26.867188 26.867188zm0 0"/></svg>