<svg height="512pt" viewBox="-25 0 512 512" width="512pt" xmlns="http://www.w3.org/2000/svg"><path d="m449.277344 358.074219c-6.914063-58.921875-43.546875-101.226563-78.976563-142.140625l-3.90625-4.511719c-25.570312-29.578125-42.082031-55.863281-51.972656-82.730469-8.699219-23.628906-9.75-47.804687-10.863281-73.394531-.4375-10.097656-.894532-20.539063-1.835938-31.132813l-2.101562-23.558593-20.414063 11.945312c-38.210937 22.355469-68.777343 51.515625-90.851562 86.667969-17.628907 28.074219-29.84375 59.925781-36.300781 94.667969-6.167969 33.1875-5.890626 62.496093-4.402344 82.089843l-86.074219-30.738281-4.65625 14.902344c-28.015625 89.644531-3.859375 153.042969 21.335937 190.4375 25.914063 38.460937 69.261719 61.421875 115.960938 61.421875h115.734375c37.832031 0 73.332031-14.789062 99.960937-41.644531 26.242188-26.464844 40.519532-61.429688 40.207032-98.460938-.042969-4.742187-.324219-9.390625-.84375-13.820312zm-220.488282 123.925781c-15.976562 0-30.753906-7.78125-39.523437-20.8125-11.75-17.457031-15.625-37.8125-11.582031-60.675781l56.644531 20.226562-5.367187-26.109375c-.148438-.703125-12.15625-62.515625 32.523437-104.800781.742187 9.980469 2.21875 20.21875 6.109375 30.789063 5.910156 16.054687 15.464844 31.402343 30.078125 48.308593l1.96875 2.273438c16.199219 18.703125 31.496094 36.375 34.144531 58.957031.15625 1.320312.246094 2.71875.269532 4.164062.1875 12.441407-4.589844 24.25-13.449219 33.246094-9.164063 9.308594-21.414063 14.433594-34.484375 14.433594zm159.820313-32.769531c-10.128906 10.214843-21.890625 18.207031-34.703125 23.742187 6.816406-11.792968 10.355469-25.195312 10.144531-39.105468-.039062-2.453126-.195312-4.878907-.464843-7.203126-3.726563-31.75-23.671876-54.78125-41.265626-75.101562l-1.953124-2.257812c-12.175782-14.082032-20-26.492188-24.621094-39.050782-3.945313-10.71875-4.445313-22.234375-4.976563-34.429687-.222656-5.132813-.453125-10.441407-.941406-15.90625l-2.101563-23.5625-20.414062 11.945312c-36.234375 21.199219-59.457031 54.316407-67.164062 95.769531-2.183594 11.757813-2.816407 22.621094-2.753907 31.621094l-39.9375-14.261718-4.65625 14.902343c-14.882812 47.625-1.929687 81.523438 11.5625 101.585938-24.773437-6.917969-46.566406-22.347657-61.222656-44.101563-28.785156-42.71875-36.105469-93.007812-21.832031-149.675781l79.1875 28.28125 25.011718 8.910156-5.269531-26.035156c-.085937-.433594-8.605469-43.722656 1.511719-96.980469 11.734375-61.789062 42.527344-110.882812 91.640625-146.253906.070313 1.519531.132813 3.03125.199219 4.539062 1.164062 26.761719 2.371094 54.433594 12.683594 82.453126 11.175781 30.359374 29.421874 59.589843 57.429687 91.984374l3.921875 4.53125c33.949219 39.207032 66.019531 76.242188 71.859375 125.996094.394531 3.359375.609375 6.917969.640625 10.578125.242188 28.972657-10.949219 56.347657-31.515625 77.085938zm0 0"/><path d="m109.121094 0h29.402344v29.402344h-29.402344zm0 0"/><path d="m109.121094 62.945312h29.402344v29.402344h-29.402344zm0 0"/><path d="m77.648438 31.472656h29.402343v29.402344h-29.402343zm0 0"/><path d="m140.59375 31.472656h29.402344v29.402344h-29.402344zm0 0"/><path d="m31.472656 118.210938h29.402344v29.402343h-29.402344zm0 0"/><path d="m31.472656 181.160156h29.402344v29.398438h-29.402344zm0 0"/><path d="m0 149.6875h29.402344v29.398438h-29.402344zm0 0"/><path d="m62.949219 149.6875h29.398437v29.398438h-29.398437zm0 0"/><path d="m401.679688 62.023438h29.398437v29.402343h-29.398437zm0 0"/><path d="m401.679688 124.972656h29.398437v29.398438h-29.398437zm0 0"/><path d="m370.207031 93.496094h29.398438v29.402344h-29.398438zm0 0"/><path d="m433.152344 93.496094h29.402344v29.402344h-29.402344zm0 0"/></svg>