<svg height="512pt" viewBox="0 0 512 512" width="512pt" xmlns="http://www.w3.org/2000/svg"><path d="m451.089844 36.054688h29.417968v29.417968h-29.417968zm0 0"/><path d="m451.089844 99.039062h29.417968v29.417969h-29.417968zm0 0"/><path d="m419.597656 67.546875h29.417969v29.417969h-29.417969zm0 0"/><path d="m482.582031 67.546875h29.417969v29.417969h-29.417969zm0 0"/><path d="m31.492188 82.253906h29.417968v29.417969h-29.417968zm0 0"/><path d="m31.492188 145.238281h29.417968v29.417969h-29.417968zm0 0"/><path d="m0 113.746094h29.417969v29.417968h-29.417969zm0 0"/><path d="m62.984375 113.746094h29.417969v29.417968h-29.417969zm0 0"/><path d="m267.070312 12.640625-11.222656-12.640625-11.222656 12.640625c-.449219.503906-45.238281 51.089844-89.390625 113.007813-60.503906 84.847656-91.179687 150.015624-91.179687 193.695312 0 105.753906 86.039062 191.792969 191.792968 191.792969 105.757813 0 191.796875-86.039063 191.796875-191.792969 0-43.679688-30.679687-108.847656-91.183593-193.695312-44.148438-61.917969-88.941407-112.503907-89.390626-113.007813zm-11.222656 468.480469c-89.203125 0-161.777344-72.574219-161.777344-161.777344 0-70.074219 107.933594-210.859375 161.777344-273.871094 53.84375 63.011719 161.777344 203.796875 161.777344 273.871094 0 89.203125-72.570312 161.777344-161.777344 161.777344zm0 0"/><path d="m377.644531 351.195312-28.714843-8.746093c-10.941407 35.917969-40.523438 63.078125-77.210938 70.886719l6.25 29.359374c47.363281-10.078124 85.554688-45.140624 99.675781-91.5zm0 0"/></svg>