<svg height="512pt" viewBox="-37 0 511 512" width="512pt" xmlns="http://www.w3.org/2000/svg"><path d="m332.46875 0h-158.894531l-131.34375 293.59375h135.957031l-77.914062 218.40625h55.75l252.582031-325.046875h-160.4375zm14.832031 216.953125-203.214843 261.515625 76.652343-214.875h-132.222656l104.503906-233.59375h93.011719l-84.296875 186.953125zm0 0"/><path d="m31.972656 53.964844h29.402344v29.402344h-29.402344zm0 0"/><path d="m31.972656 116.910156h29.402344v29.402344h-29.402344zm0 0"/><path d="m.5 85.4375h29.402344v29.402344h-29.402344zm0 0"/><path d="m63.449219 85.4375h29.398437v29.402344h-29.398437zm0 0"/><path d="m376.980469 62.023438h29.402343v29.402343h-29.402343zm0 0"/><path d="m376.980469 124.972656h29.402343v29.398438h-29.402343zm0 0"/><path d="m345.507812 93.496094h29.398438v29.402344h-29.398438zm0 0"/><path d="m408.453125 93.496094h29.402344v29.402344h-29.402344zm0 0"/><path d="m345.507812 379.125h29.398438v29.402344h-29.398438zm0 0"/><path d="m345.507812 442.070312h29.398438v29.402344h-29.398438zm0 0"/><path d="m314.03125 410.597656h29.402344v29.402344h-29.402344zm0 0"/><path d="m376.980469 410.597656h29.402343v29.402344h-29.402343zm0 0"/></svg>