<svg height="512pt" viewBox="0 -97 512 512" width="512pt" xmlns="http://www.w3.org/2000/svg"><path d="m471.449219 133.34375c-3.65625-16.644531-12.980469-31.695312-26.261719-42.375s-29.980469-16.5625-47.023438-16.5625h-.167968l-2.648438-12.070312c-3.867187-17.605469-13.730468-33.523438-27.777344-44.820313-14.042968-11.292969-31.703124-17.515625-49.730468-17.515625h-317.839844v15.015625c0 25.445313 10.460938 48.488281 27.300781 65.066406v11.265625c0 26.832032 11.632813 50.996094 30.113281 67.722656v8.605469c0 50.367188 40.980469 91.347657 91.347657 91.347657h9.890625c11.417968 34.246093 43.761718 59.011718 81.796875 59.011718h271.550781zm-382.140625 49.347656h158.574218v-30.03125h-129.234374c-28.628907 0-52.742188-19.726562-59.457032-46.296875h158.578125v-30.03125h-126.421875c-28.632812 0-52.742187-19.726562-59.457031-46.300781h285.949219c22.984375 0 43.246094 16.296875 48.175781 38.746094l35.175781 160.214844h-252.429687c-28.628907 0-52.738281-19.726563-59.453125-46.300782zm102.007812 76.332032h247.21875l-33.835937-154.089844c18.175781 2.710937 33.394531 16.527344 37.417969 34.851562l32.542968 148.222656h-234.210937c-21.113281-.003906-39.539063-11.71875-49.132813-28.984374zm0 0"/></svg>