<svg height="512pt" viewBox="0 -51 512 512" width="512pt" xmlns="http://www.w3.org/2000/svg"><path d="m476.753906 110.128906-17-69h-80.015625l-14 69h-24.472656c-7.433594-61.949218-60.304687-110.128906-124.226563-110.128906-63.921874 0-116.792968 48.179688-124.226562 110.128906h-.25l-2.308594.769532c-57.238281 19.082031-85.417968 51.054687-86.589844 52.40625l-3.664062 4.226562v90.722656h512v-148.125zm-259.714844-80.128906c47.351563 0 86.730469 34.777344 93.945313 80.128906h-187.886719c7.214844-45.351562 46.589844-80.128906 93.941406-80.128906zm-119.5625 110.128906h292.785157l14-69h31.984375l17 69h28.753906v30.371094h-72v57.753906h-314.5v-55.085937l-21.421875-23.386719c7.023437-3.398438 14.8125-6.6875 23.398437-9.652344zm-67.476562 39.152344c3.441406-3.246094 9.285156-8.320312 17.539062-14.058594l17.960938 19.609375v43.421875h-35.5zm410 48.972656v-27.753906h42v27.753906zm0 0"/><path d="m172 278.484375h30v60.515625h-30zm0 0"/><path d="m241 278.484375h30v78.355469h-30zm0 0"/><path d="m310 278.484375h30v60.515625h-30zm0 0"/><path d="m309.5 361.375h29.75v29.75h-29.75zm0 0"/><path d="m241.125 380.5h29.75v29.75h-29.75zm0 0"/><path d="m172.125 361.375h29.75v29.75h-29.75zm0 0"/></svg>