<svg height="512pt" viewBox="0 0 512 512" width="512pt" xmlns="http://www.w3.org/2000/svg"><path d="m512 188.714844v-29.972656h-115.746094v-158.742188h-102.011718v49.550781l-63.976563-23.21875-10.242187 28.171875 74.21875 26.933594v29.707031c-9.953126-3.421875-20.625-5.292969-31.726563-5.292969h-104.613281c-18.636719 0-33.800782 15.152344-33.800782 33.773438v1.003906h-64.648437c-24.488281 0-44.410156 19.902344-44.410156 44.367188 0 7.746094 2.003906 15.03125 5.507812 21.375-12.34375 7.890625-20.550781 21.695312-20.550781 37.390625 0 15.695312 8.207031 29.503906 20.550781 37.390625-3.507812 6.34375-5.507812 13.628906-5.507812 21.375 0 17.183594 9.835937 32.101562 24.167969 39.46875-2.832032 5.839844-4.425782 12.382812-4.425782 19.292968 0 24.46875 19.925782 44.371094 44.410156 44.371094h202.332032c4.332031 0 8.574218-.371094 12.714844-1.050781v21.941406l-74.21875 26.933594 10.242187 28.171875 63.976563-23.21875v53.5625h102.011718v-142.503906h115.746094v-29.96875h-115.746094v-150.8125zm-339.082031 115.238281c-.71875 7.269531-6.875 12.972656-14.339844 12.972656h-99.125c-7.945313 0-14.410156-6.460937-14.410156-14.398437s6.464843-14.394532 14.410156-14.394532h72.902344c7.496093 9.9375 19.40625 16.375 32.792969 16.375 2.636718 0 5.230468-.199218 7.769531-.554687zm-128.507813-45.792969c-7.945312 0-14.410156-6.460937-14.410156-14.398437s6.464844-14.394531 14.410156-14.394531h79.691406v28.792968zm15.042969-87.558594h64.648437v28.792969h-64.648437c-7.945313 0-14.410156-6.457031-14.410156-14.394531s6.464843-14.398438 14.410156-14.398438zm19.742187 205.085938c-7.945312 0-14.410156-6.460938-14.410156-14.398438 0-7.933593 6.464844-14.394531 14.410156-14.394531h79.382813c7.945313 0 14.410156 6.460938 14.410156 14.394531 0 7.9375-6.464843 14.398438-14.410156 14.398438zm202.332032 0h-80.953125c1.558593-4.519531 2.414062-9.359375 2.414062-14.398438 0-11.257812-4.226562-21.546874-11.171875-29.378906 6.945313-7.832031 11.171875-18.121094 11.171875-29.382812 0-4.003906-.546875-7.882813-1.550781-11.578125 11.734375-10.167969 19.179688-25.152344 19.179688-41.855469v-32.003906c11.21875 12.363281 31.089843 28.941406 57 28.941406v-29.96875c-23.722657 0-41.660157-27.789062-41.808594-28.023438l-4.40625-7.042968h-40.785156v68.097656c0 14.03125-11.425782 25.445312-25.46875 25.445312-6.089844 0-11.046876-4.953124-11.046876-11.039062v-123.875c0-2.09375 1.703126-3.800781 3.800782-3.800781h104.609375c11.464843 0 22.261719 2.875 31.730469 7.921875v230.253906c-4.054688 1.097656-8.316407 1.6875-12.714844 1.6875zm84.726562 106.339844h-42.011718v-452.054688h42.011718zm0 0"/><path d="m172.738281 420.054688h30.5v30.472656h-30.5zm0 0"/><path d="m112.996094 481.289062h30.5v30.472657h-30.5zm0 0"/><path d="m147.496094 49.710938h30.5v30.46875h-30.5zm0 0"/><path d="m95.140625 0h30.5v30.472656h-30.5zm0 0"/></svg>