<svg height="511pt" viewBox="0 0 511.99987 511" width="511pt" xmlns="http://www.w3.org/2000/svg"><path d="m498.285156 14.238281c-8.859375-8.859375-20.636718-13.738281-33.164062-13.738281s-24.304688 4.878906-33.164063 13.738281l-228.6875 228.6875-7.765625-14.414062-48.285156 48.285156-13.90625-13.910156-21.238281 21.238281 13.90625 13.910156-125.980469 125.980469 87.34375 87.34375 125.984375-125.980469 13.90625 13.90625 21.238281-21.238281-13.910156-13.90625 22.097656-22.097656-6.949218-12.902344 248.574218-248.578125c18.285156-18.285156 18.285156-48.039062 0-66.324219zm-278.667968 322.371094-88.648438 88.648437-44.867188-44.867187 102.101563-102.101563zm-177.140626 87.40625 22.386719-22.386719 44.867188 44.867188-22.386719 22.386718zm434.570313-364.6875-242.207031 242.207031-16.699219-31.003906 235.054687-235.054688c3.1875-3.1875 7.421876-4.941406 11.925782-4.941406 4.507812 0 8.742187 1.753906 11.925781 4.941406 6.574219 6.574219 6.574219 17.273438 0 23.851563zm0 0"/></svg>