<svg height="511pt" viewBox="0 0 511 511.99903" width="511pt" xmlns="http://www.w3.org/2000/svg"><path d="m134.613281 109.875 9.777344-49.488281 29.421875 5.8125-9.773438 49.488281zm0 0"/><path d="m147.136719 49.355469 4.886719-24.742188 29.425781 5.8125-4.890625 24.742188zm0 0"/><path d="m392.847656 315.597656 48.605469-13.507812 8.035156 28.898437-48.609375 13.507813zm0 0"/><path d="m452.527344 299.613281 24.304687-6.753906 8.03125 28.898437-24.304687 6.753907zm0 0"/><path d="m495.835938 5.734375c-53.300782-13.28125-105.867188-3.386719-152.011719 28.621094-16.179688 11.222656-28.886719 23.296875-37.890625 33.066406l-24.824219-53.601563-14 7.46875c-58.304687 31.105469-78.226563 74.613282-84.675781 105.632813-.328125 1.570313-.601563 3.144531-.851563 4.71875-5.410156 2.164063-10.480469 5.429687-14.855469 9.804687l-56.117187 56.121094-86.917969 86.914063c-19.613281 19.617187-26.667968 47.09375-21.203125 72.382812l-1.988281 1.988281v42.414063l15.050781-15.050781c2.421875 3.347656 5.128907 6.550781 8.140625 9.566406l17.328125 17.324219 21.210938-21.207031-17.328125-17.328126c-18.992188-18.988281-18.992188-49.890624 0-68.882812l57.226562-57.226562c2.097656 4.296874 4.917969 8.328124 8.480469 11.890624 7.96875 7.972657 18.238281 12.261719 28.691406 12.894532.632813 10.449218 4.921875 20.722656 12.890625 28.6875 2.828125 2.828125 5.953125 5.179687 9.265625 7.082031-.09375 1.320313-.15625 2.644531-.15625 3.980469 0 14.8125 5.765625 28.738281 16.242188 39.210937l22.644531 22.648438c-16.679688-.820313-42.460938 1.496093-60.777344 19.8125l21.210938 21.207031c16.769531-16.769531 49.113281-9.789062 49.382812-9.726562l8.101563 1.871093 28.832031-28.835937-48.1875-48.183594c-4.808594-4.8125-7.457031-11.203125-7.457031-18.003906 0-6.800782 2.648437-13.195313 7.457031-18.003906 4.308594-4.308594 11.3125-4.308594 15.621094 0l87.652344 87.652343c1.484374 1.480469 1.484374 3.894531 0 5.378907l-73.949219 73.953124c-26.40625 26.398438-69.367188 26.398438-95.769531 0l-7.703126-7.703124-21.207031 21.207031 7.703125 7.703125c3.554688 3.554687 7.316406 6.777344 11.25 9.667968l-19.148437 19.148438h42.414062l4.867188-4.867188c9.648437 3.066407 19.675781 4.625 29.707031 4.625 25.023438 0 50.042969-9.527343 69.09375-28.574218l73.949219-73.953125c13.175781-13.175781 13.179687-34.617188 0-47.792969l-.710938-.710938 45.703125-45.703124c7.757813-7.757813 12.027344-17.695313 12.832032-27.863282 8.605468-4.707031 16.578124-10.710937 23.671874-17.921875 2.390626-2.429687 4.617188-4.9375 6.625-7.460937 26.195313-32.953125 29.484376-71.527344 32.664063-108.828125l.34375-4.039063c2.230469-25.882812 7.054687-45.953125 15.1875-63.171875 7.074219-14.976562 52.828125-74.636719 52.828125-74.636719zm-186.570313 127.675781c24.25 0 43.980469 19.730469 43.980469 43.984375 0 11.027344-4.082032 21.113281-10.808594 28.839844-1.507812-2.1875-3.222656-4.273437-5.164062-6.214844-11.105469-11.109375-26.675782-15.078125-40.984376-11.933593-2.011718-6.964844-5.75-13.535157-11.230468-19.015626-4.605469-4.601562-9.980469-7.96875-15.710938-10.125 6.988282-15.0625 22.25-25.535156 39.917969-25.535156zm-41.753906-77.582031 23.148437 49.976563c-24.589844 6.398437-44.230468 25.152343-51.886718 49.214843-2.152344-4.929687-5.230469-9.546875-9.253907-13.574219-5.007812-5.003906-10.925781-8.554687-17.222656-10.667968 6.960937-30.492188 25.492187-55.644532 55.214844-74.949219zm-115.320313 183.320313c-5.617187 5.613281-14.757812 5.613281-20.375 0-5.617187-5.617188-5.617187-14.757813 0-20.375l56.121094-56.121094c2.808594-2.808594 6.496094-4.210938 10.183594-4.210938s7.378906 1.402344 10.1875 4.210938c5.617187 5.617187 5.617187 14.757812 0 20.375zm60.121094 23.039062c-12.332031-1.730469-25.308594 2.132812-34.773438 11.597656-1.855468 1.855469-3.554687 3.820313-5.105468 5.878906-2.109375-2.570312-3.253906-5.757812-3.253906-9.125 0-3.847656 1.5-7.464843 4.21875-10.183593l70.078124-70.078125c2.71875-2.71875 6.339844-4.21875 10.1875-4.21875 3.847657 0 7.464844 1.5 10.183594 4.21875 2.722656 2.722656 4.222656 6.339844 4.222656 10.1875s-1.5 7.464844-4.21875 10.1875zm27.042969 15.375 56.335937-56.335938c2.808594-2.808593 6.496094-4.214843 10.1875-4.214843 3.6875 0 7.378906 1.40625 10.1875 4.214843 5.613282 5.617188 5.613282 14.757813 0 20.375l-56.339844 56.335938zm107.65625 16.253906-45.699219 45.703125-20.375-20.375 45.703125-45.703125c2.71875-2.722656 6.335937-4.21875 10.183594-4.21875 3.847656 0 7.46875 1.496094 10.1875 4.21875s4.21875 6.339844 4.21875 10.1875c.003906 3.847656-1.496094 7.46875-4.21875 10.1875zm85.417969-220.886718c-9.703126 20.539062-15.40625 43.867187-17.949219 73.410156l-.347657 4.0625c-2.933593 34.378906-5.699218 66.851562-26.261718 92.710937-1.351563 1.695313-2.871094 3.410157-4.523438 5.09375-3.347656 3.398438-6.980468 6.398438-10.828125 9.015625-1.292969-1.742187-2.722656-3.410156-4.296875-4.988281-5.480468-5.480469-12.050781-9.21875-19.019531-11.230469.117187-.527344.226563-1.054687.324219-1.585937 20.277344-13.207031 33.710937-36.074219 33.710937-62.023438 0-38.875-30.144531-70.820312-68.285156-73.738281 1.238281-1.804688 17.230469-24.726562 45.964844-44.65625 31.878906-22.109375 66.082031-31.652344 101.988281-28.507812-11.269531 12.371093-22.476562 25.503906-30.476562 42.4375zm0 0"/></svg>