<svg height="512pt" viewBox="0 -65 512 512" width="512pt" xmlns="http://www.w3.org/2000/svg"><path d="m512 44.246094h-58.460938v-44.246094h-296.414062v44.246094h-157.125v130.898437h11.46875v59.695313h15c9.425781 0 18.128906 4.285156 23.875 11.761718 5.746094 7.472657 7.648438 16.984376 5.226562 26.09375l-29.292968 110.144532h131.535156l21.976562-82.617188h24.6875c31.375 0 59.101563-21.125 67.429688-51.375l3.855469-14.007812h143.792969l41.679687-59.695313h50.765625zm-30 30v70.898437h-54.667969v-26.652343h26.207031v-44.246094zm-294.875-44.246094h236.414062v58.492188h-236.414062zm-157.125 44.246094h127.125v44.246094h240.207031v26.652343h-367.332031zm212.980469 166.640625c-4.753907 17.269531-20.589844 29.335937-38.503907 29.335937h-16.707031l9.410157-35.382812h47.464843zm160.929687-36.046875h-229.796875l-39.363281 148h-69.453125l19.265625-72.433594c4.839844-18.183594 1.035156-37.171875-10.433594-52.089844-8.339844-10.847656-19.796875-18.332031-32.660156-21.605468v-31.566407h383.179688zm0 0"/><path d="m51.832031 95.195312h29v29h-29zm0 0"/><path d="m99.832031 95.195312h29v29h-29zm0 0"/></svg>