<svg height="512pt" viewBox="0 0 512 512" width="512pt" xmlns="http://www.w3.org/2000/svg"><path d="m512 93.523438-93.523438-93.523438-69.515624 33.859375-19.613282-19.617187-64.050781 64.050781 16.566406 16.570312-187 187-16.570312-16.566406-64.050781 64.050781 19.617187 19.617188-33.859375 69.511718 93.523438 93.523438 69.515624-33.859375 19.613282 19.617187 64.050781-64.050781-16.566406-16.570312 187-187 16.566406 16.566406 64.054687-64.050781-19.617187-19.613282zm-99.617188-57.167969 63.261719 63.261719-19.957031 40.96875-84.273438-84.273438zm-312.765624 439.289062-63.261719-63.261719 19.953125-40.96875 84.277344 84.273438zm83.035156-20.335937-125.960938-125.960938 21.601563-21.601562 125.960937 125.957031zm213.257812-246.398438-187 187.003906-92.824218-92.824218 187-187.003906zm37.796875-4.65625-125.960937-125.960937 21.601562-21.601563 125.960938 125.960938zm0 0"/><path d="m188.28125 334.238281 64.242188-64.238281 21.222656 21.226562-64.238282 64.238282zm0 0"/><path d="m263.25 258.628906 19.011719-19.011718 21.222656 21.226562-19.007813 19.011719zm0 0"/></svg>