<svg height="511pt" viewBox="1 -54 511.999 511" width="511pt" xmlns="http://www.w3.org/2000/svg"><path d="m452.75 75.9375c-14.539062 0-27.863281 5.273438-38.183594 13.996094h-56.808594v-75.757813l-15.066406.066407c-65.203125.285156-142.914062 10.820312-206.398437 27.777343-8.3125-12.332031-34.089844-42.527343-86.59375-41.496093l-14.699219.296874v82.082032c-23.226562 15.386718-35 32.378906-35 50.550781 0 19.164063 13.089844 37.019531 38.90625 53.0625 16.335938 10.15625 37.667969 19.628906 63.566406 28.269531v123.042969l44.523438 66.4375h90.003906v-98.332031h-36v-66.824219c47.421875 8.4375 97.4375 13.359375 141.691406 13.554687l15.0625.0625v-73.792968h55.078125c10.539063 9.625 24.554688 15.503906 39.917969 15.503906 32.667969 0 59.25-26.578125 59.25-59.25s-26.578125-59.25-59.25-59.25zm-321.386719 116.4375c-4.050781-1.179688-7.957031-2.371094-11.75-3.570312v-110.703126c3.792969-1.199218 7.699219-2.390624 11.75-3.570312 7.460938-2.171875 15.167969-4.246094 23.070313-6.21875v130.28125c-7.902344-1.972656-15.609375-4.046875-23.070313-6.21875zm-26.070312-141.1875c-14.929688 4.882812-28.394531 10.039062-40.292969 15.441406v-35.253906c20.300781 2.890625 33.117188 12.371094 40.292969 19.8125zm-75.292969 82.265625c0-11.324219 18.753906-28.175781 59.613281-44.65625v89.3125c-40.859375-16.480469-59.613281-33.332031-59.613281-44.65625zm177 202.480469v38.335937h-43.996094l-30.53125-45.5625v-104.859375c12.34375 3.378906 25.25 6.511719 38.527344 9.371094v102.714844zm120.757812-113.519532c-45.8125-1.28125-96.652343-7.390624-143.324218-17.003906v-143.914062c46.667968-9.613282 97.511718-15.722656 143.324218-17.007813zm30-102.480468h37.742188c-1.296875 4.871094-2 9.980468-2 15.253906 0 4.734375.574219 9.332031 1.628906 13.746094h-37.371094zm94.992188 44.503906c-16.128906 0-29.25-13.121094-29.25-29.25s13.121094-29.25 29.25-29.25 29.25 13.121094 29.25 29.25-13.121094 29.25-29.25 29.25zm0 0"/></svg>