<svg height="512pt" viewBox="-67 0 512 512" width="512pt" xmlns="http://www.w3.org/2000/svg"><path d="m357.324219 154v-59.332031h-32.550781v-24.257813c0-38.824218-31.585938-70.410156-70.410157-70.410156h-129.859375c-38.824218 0-70.410156 31.585938-70.410156 70.410156v24.257813h-29.308594v59.332031h-24.785156v358h138.1875v-358h-21.519531v-59.332031h-32.574219v-24.257813c0-22.28125 18.128906-40.410156 40.410156-40.410156h129.859375c22.28125 0 40.410157 18.128906 40.410157 40.410156v24.257813h-29.328126v59.332031h-24.789062v358h138.1875v-358zm-249.140625 30v38.710938h-78.183594v-38.710938zm-78.183594 298v-229.289062h78.1875v229.289062zm56.664062-328h-31.878906v-29.332031h31.878906zm262.179688 30v38.710938h-78.1875v-38.710938zm-53.398438-59.332031h31.878907v29.332031h-31.878907zm-24.789062 357.332031v-229.289062h78.1875v229.289062zm0 0"/></svg>