<svg height="512pt" viewBox="-11 0 512 512" width="512pt" xmlns="http://www.w3.org/2000/svg"><path d="m437.425781 170.144531 5.207031-81.210937-78.863281-20.101563-43.464843-68.832031-75.625 30.152344-75.628907-30.152344-43.464843 68.832031-78.863282 20.101563 5.207032 81.210937-51.929688 62.628907 55.734375 67.222656 23.09375-19.148438-39.855469-48.074218 43.65625-52.65625-4.375-68.261719 66.320313-16.902344 36.527343-57.851563 63.578126 25.347657 63.574218-25.347657 36.53125 57.851563 66.316406 16.902344-4.375 68.261719 43.65625 52.65625-39.851562 48.074218 23.089844 19.148438 55.734375-67.222656zm0 0"/><path d="m363.226562 239.101562h-1.007812v-64.652343c0-24.484375-19.921875-44.40625-44.410156-44.40625-7.75 0-15.042969 2-21.390625 5.503906-7.898438-12.34375-21.71875-20.546875-37.425781-20.546875-15.710938 0-29.53125 8.203125-37.429688 20.546875-6.347656-3.503906-13.640625-5.503906-21.390625-5.503906-17.199219 0-32.136719 9.832031-39.511719 24.164062-5.839844-2.832031-12.394531-4.421875-19.3125-4.421875-24.484375 0-44.410156 19.921875-44.410156 44.410156v202.332032c0 27.75 14.445312 52.171875 36.199219 66.195312v49.277344h30v-37.757812c4.078125.652343 8.261719 1.003906 12.523437 1.003906h24.507813v-30h-24.507813c-26.867187 0-48.722656-21.851563-48.722656-48.71875v-80.953125c4.523438 1.558593 9.367188 2.414062 14.410156 2.414062 11.273438 0 21.570313-4.230469 29.410156-11.175781 7.839844 6.945312 18.140626 11.175781 29.410157 11.175781 4.011719 0 7.898437-.542969 11.59375-1.542969 10.179687 11.730469 25.179687 19.171876 41.890625 19.171876h32.035156c-12.375 11.21875-28.96875 31.089843-28.96875 57h30c0-23.722657 27.8125-41.660157 28.046875-41.8125l7.050781-4.40625v-40.78125h-68.164062c-14.042969 0-25.464844-11.425782-25.464844-25.46875 0-6.09375 4.953125-11.050782 11.046875-11.050782h123.992187c2.097657 0 3.804688 1.707032 3.804688 3.804688v104.609375c0 37.351562-30.386719 67.734375-67.734375 67.734375h-10.898437v30h10.898437c5.027344 0 9.96875-.382813 14.792969-1.117188v37.871094h30v-47.640625c31.417968-16.273437 52.941406-49.09375 52.941406-86.847656v-104.609375c0-18.636719-15.164062-33.800782-33.804688-33.800782zm-45.417968-79.058593c7.949218 0 14.410156 6.460937 14.410156 14.40625v64.648437h-28.816406v-64.648437c0-7.945313 6.460937-14.40625 14.40625-14.40625zm-73.230469-.632813c0-7.945312 6.46875-14.410156 14.410156-14.410156 7.945313 0 14.410157 6.464844 14.410157 14.410156v79.6875h-28.820313zm-103.230469 128.578125c-7.941406 0-14.40625-6.464843-14.40625-14.410156v-79.382813c0-7.945312 6.464844-14.410156 14.40625-14.410156 7.945313 0 14.410156 6.464844 14.410156 14.410156v79.382813c0 7.945313-6.464843 14.410156-14.410156 14.410156zm44.410156-14.410156v-99.128906c0-7.945313 6.46875-14.40625 14.410157-14.40625 7.945312 0 14.410156 6.460937 14.410156 14.40625v72.902343c-9.945313 7.5-16.390625 19.410157-16.390625 32.796876 0 2.636718.199219 5.230468.554688 7.769531-7.277344-.722657-12.984376-6.875-12.984376-14.339844zm0 0"/></svg>