<svg height="512pt" viewBox="0 0 512 512" width="512pt" xmlns="http://www.w3.org/2000/svg"><path d="m256 96.398438c-88.003906 0-159.601562 71.597656-159.601562 159.601562s71.597656 159.601562 159.601562 159.601562 159.601562-71.597656 159.601562-159.601562-71.597656-159.601562-159.601562-159.601562zm0 289.203124c-71.460938 0-129.601562-58.140624-129.601562-129.601562s58.140624-129.601562 129.601562-129.601562 129.601562 58.140624 129.601562 129.601562-58.140624 129.601562-129.601562 129.601562zm0 0"/><path d="m256 180.578125c-41.585938 0-75.421875 33.835937-75.421875 75.421875s33.835937 75.421875 75.421875 75.421875 75.421875-33.835937 75.421875-75.421875-33.835937-75.421875-75.421875-75.421875zm0 120.84375c-25.046875 0-45.421875-20.375-45.421875-45.421875s20.375-45.421875 45.421875-45.421875 45.421875 20.375 45.421875 45.421875-20.375 45.421875-45.421875 45.421875zm0 0"/><path d="m476.898438 126.554688c8.414062-9.878907 13.507812-22.667969 13.507812-36.632813 0-31.203125-25.386719-56.589844-56.589844-56.589844-12.589844 0-24.230468 4.136719-33.640625 11.117188-42.554687-29.113281-92.128906-44.449219-144.175781-44.449219-68.378906 0-132.667969 26.628906-181.019531 74.980469-48.351563 48.351562-74.980469 112.640625-74.980469 181.019531 0 52.339844 15.605469 102.277344 44.605469 144.507812-6.390625 9.164063-10.152344 20.292969-10.152344 32.289063 0 31.199219 25.382813 56.585937 56.585937 56.585937 13.390626 0 25.699219-4.683593 35.402344-12.484374 38.863282 22.882812 83.269532 35.101562 129.558594 35.101562 68.378906 0 132.667969-26.628906 181.019531-74.980469 48.351563-48.351562 74.980469-112.640625 74.980469-181.019531 0-45.785156-12.105469-90.269531-35.101562-129.445312zm-43.082032-63.222657c14.660156 0 26.589844 11.929688 26.589844 26.589844s-11.929688 26.585937-26.589844 26.585937-26.585937-11.925781-26.585937-26.585937 11.925781-26.589844 26.585937-26.589844zm-342.777344 396.050781c-14.660156 0-26.585937-11.925781-26.585937-26.585937s11.925781-26.589844 26.585937-26.589844c14.660157 0 26.589844 11.929688 26.589844 26.589844s-11.929687 26.585937-26.589844 26.585937zm164.960938 22.617188c-40.664062 0-78.847656-10.800781-111.847656-29.675781 2.246094-6.089844 3.476562-12.667969 3.476562-19.527344 0-31.203125-25.386718-56.589844-56.589844-56.589844-8.230468 0-16.050781 1.78125-23.113281 4.957031-23.945312-35.855468-37.925781-78.90625-37.925781-125.164062 0-124.617188 101.382812-226 226-226 45.273438 0 88.425781 13.136719 125.609375 38.101562-2.816406 6.71875-4.378906 14.089844-4.378906 21.820313 0 31.203125 25.382812 56.585937 56.585937 56.585937 6.375 0 12.5-1.074218 18.222656-3.027343 19.636719 34.148437 29.960938 72.773437 29.960938 112.519531 0 124.617188-101.382812 226-226 226zm0 0"/></svg>