<svg viewBox="0 0 512 512" xmlns="http://www.w3.org/2000/svg"><path d="m502 404h-108v-190c0-5.523438-4.476562-10-10-10h-41.5c-5.523438 0-10 4.476562-10 10s4.476562 10 10 10h31.5v268h-236v-268h122.75c5.523438 0 10-4.476562 10-10s-4.476562-10-10-10h-132.75c-5.523438 0-10 4.476562-10 10v190h-20v-68c0-5.523438-4.476562-10-10-10h-78c-5.523438 0-10 4.476562-10 10v166c0 5.523438 4.476562 10 10 10h492c5.523438 0 10-4.476562 10-10v-88c0-5.523438-4.476562-10-10-10zm-482-58h58v58h-58zm0 78h98v68h-98zm472 68h-98v-68h98zm0 0"/><path d="m54 448c-2.628906 0-5.210938 1.070312-7.070312 2.929688-1.859376 1.859374-2.929688 4.441406-2.929688 7.070312s1.070312 5.210938 2.929688 7.070312c1.859374 1.859376 4.441406 2.929688 7.070312 2.929688s5.210938-1.070312 7.070312-2.929688c1.859376-1.859374 2.929688-4.441406 2.929688-7.070312s-1.070312-5.210938-2.929688-7.070312c-1.859374-1.859376-4.441406-2.929688-7.070312-2.929688zm0 0"/><path d="m446.679688 465.070312c1.859374 1.859376 4.441406 2.929688 7.070312 2.929688s5.210938-1.070312 7.070312-2.929688c1.859376-1.859374 2.929688-4.441406 2.929688-7.070312s-1.070312-5.210938-2.929688-7.070312c-1.859374-1.859376-4.441406-2.929688-7.070312-2.929688s-5.210938 1.070312-7.070312 2.929688c-1.859376 1.859374-2.929688 4.441406-2.929688 7.070312s1.070312 5.210938 2.929688 7.070312zm0 0"/><path d="m302.75 204c-2.628906 0-5.210938 1.070312-7.070312 2.929688-1.859376 1.859374-2.929688 4.441406-2.929688 7.070312s1.070312 5.210938 2.929688 7.070312c1.859374 1.859376 4.441406 2.929688 7.070312 2.929688s5.210938-1.070312 7.070312-2.929688c1.859376-1.859374 2.929688-4.441406 2.929688-7.070312s-1.070312-5.210938-2.929688-7.070312c-1.859374-1.859376-4.441406-2.929688-7.070312-2.929688zm0 0"/><path d="m185.515625 337.332031c16.539063 0 30-13.457031 30-30s-13.460937-30-30-30c-16.542969 0-30 13.457031-30 30s13.457031 30 30 30zm0-40c5.511719 0 10 4.488281 10 10 0 5.515625-4.488281 10-10 10-5.515625 0-10-4.484375-10-10 0-5.511719 4.484375-10 10-10zm0 0"/><path d="m256 277.332031c-16.542969 0-30 13.457031-30 30s13.457031 30 30 30 30-13.457031 30-30-13.457031-30-30-30zm0 40c-5.515625 0-10-4.484375-10-10 0-5.511719 4.484375-10 10-10s10 4.488281 10 10c0 5.515625-4.484375 10-10 10zm0 0"/><path d="m296.484375 307.332031c0 16.542969 13.460937 30 30 30 16.542969 0 30-13.457031 30-30s-13.457031-30-30-30c-16.539063 0-30 13.460938-30 30zm30-10c5.515625 0 10 4.488281 10 10 0 5.515625-4.484375 10-10 10-5.511719 0-10-4.484375-10-10 0-5.511719 4.488281-10 10-10zm0 0"/><path d="m155.386719 374v40c0 5.523438 4.476562 10 10 10h181.226562c5.523438 0 10-4.476562 10-10v-40c0-5.523438-4.476562-10-10-10h-181.226562c-5.523438 0-10 4.476562-10 10zm20 10h161.226562v20h-161.226562zm0 0"/><path d="m88.070312 65.070312c1.859376-1.859374 2.929688-4.441406 2.929688-7.070312s-1.070312-5.210938-2.929688-7.070312c-1.859374-1.859376-4.441406-2.929688-7.070312-2.929688s-5.210938 1.070312-7.070312 2.929688c-1.859376 1.859374-2.929688 4.441406-2.929688 7.070312s1.070312 5.210938 2.929688 7.070312c1.859374 1.859376 4.441406 2.929688 7.070312 2.929688s5.210938-1.070312 7.070312-2.929688zm0 0"/><path d="m502 76c5.523438 0 10-4.476562 10-10v-56c0-5.523438-4.476562-10-10-10h-492c-5.523438 0-10 4.476562-10 10v48c0 5.523438 4.476562 10 10 10h31c5.523438 0 10-4.476562 10-10s-4.476562-10-10-10h-21v-28h400v28h-296.332031c-5.523438 0-10 4.476562-10 10s4.476562 10 10 10h296.53125c.929687 4.5625 4.960937 8 9.800781 8h26v133.855469l-33.070312 33.074219c-1.875 1.875-2.929688 4.417968-2.929688 7.070312v36c0 5.523438 4.476562 10 10 10s10-4.476562 10-10v-31.859375l26-26 26 26v31.859375c0 5.523438 4.476562 10 10 10s10-4.476562 10-10v-36c0-2.652344-1.054688-5.195312-2.929688-7.070312l-33.070312-33.074219v-133.855469zm-62-56h52v36h-52zm0 0"/><path d="m473.070312 45.070312c1.859376-1.859374 2.929688-4.441406 2.929688-7.070312s-1.070312-5.210938-2.929688-7.070312c-1.859374-1.859376-4.441406-2.929688-7.070312-2.929688s-5.210938 1.070312-7.070312 2.929688c-1.859376 1.859374-2.929688 4.441406-2.929688 7.070312s1.070312 5.210938 2.929688 7.070312c1.859374 1.859376 4.441406 2.929688 7.070312 2.929688s5.210938-1.070312 7.070312-2.929688zm0 0"/></svg>