<svg height="512pt" viewBox="0 0 512 512" width="512pt" xmlns="http://www.w3.org/2000/svg"><path d="m502 202h-36.851562c-5.046876-19.59375-12.789063-38.265625-23.09375-55.6875l26.078124-26.078125c3.902344-3.902344 3.902344-10.234375 0-14.140625l-62.226562-62.226562c-1.875-1.875-4.417969-2.929688-7.070312-2.929688-2.652344 0-5.195313 1.054688-7.070313 2.929688l-26.078125 26.074218c-17.421875-10.300781-36.09375-18.046875-55.6875-23.089844v-36.851562c0-5.523438-4.476562-10-10-10h-88c-5.523438 0-10 4.476562-10 10v36.785156c-19.628906 5.027344-38.328125 12.761719-55.785156 23.0625l-25.980469-25.980468c-1.875-1.875-4.417969-2.925782-7.070313-2.925782-2.652343 0-5.195312 1.050782-7.070312 2.925782l-62.226562 62.226562c-3.902344 3.90625-3.902344 10.238281 0 14.144531l25.917968 25.914063c-10.351562 17.472656-18.128906 36.199218-23.1875 55.847656h-36.597656c-5.523438 0-10 4.476562-10 10v290c0 5.523438 4.476562 10 10 10h290c5.523438 0 10-4.476562 10-10v-36.597656c19.648438-5.058594 38.375-12.835938 55.847656-23.1875l25.917969 25.917968c1.875 1.875 4.417969 2.929688 7.070313 2.929688 2.652343 0 5.195312-1.054688 7.070312-2.929688l62.226562-62.226562c3.902344-3.90625 3.902344-10.238281 0-14.140625l-25.980468-25.980469c10.300781-17.457031 18.035156-36.160156 23.0625-55.785156h36.785156c5.523438 0 10-4.476562 10-10v-88c0-5.523438-4.476562-10-10-10zm-290 290h-192v-200.417969h47.558594v97.171875c0 4.046875 2.4375 7.695313 6.179687 9.242188 3.746094 1.546875 8.046875.683594 10.90625-2.1875l47.601563-47.800782 47.601562 47.800782c1.914063 1.921875 4.476563 2.945312 7.085938 2.945312 1.285156 0 2.582031-.25 3.816406-.761718 3.742188-1.542969 6.183594-5.191407 6.183594-9.242188v-97.167969h47.554687v200.417969zm-35.066406-200.417969v72.957031l-37.605469-37.761718c-1.875-1.882813-4.425781-2.941406-7.085937-2.941406-2.65625 0-5.207032 1.058593-7.085938 2.941406l-37.601562 37.761718v-72.957031zm29.066406-35.582031c0-27.570312 22.429688-50 50-50s50 22.429688 50 50c0 24.675781-17.972656 45.222656-41.511719 49.265625v-23.683594c0-5.523437-4.480469-10-10-10h-46c-1.644531-5.003906-2.488281-10.226562-2.488281-15.582031zm286 34h-34.695312c-4.707032 0-8.773438 3.28125-9.773438 7.882812-4.941406 22.808594-13.84375 44.335938-26.449219 63.988282-2.539062 3.957031-1.980469 9.148437 1.34375 12.472656l24.496094 24.492188-48.085937 48.082031-24.4375-24.4375c-3.332032-3.332031-8.53125-3.886719-12.488282-1.335938-19.664062 12.664063-41.210937 21.609375-64.039062 26.589844-4.59375 1-7.867188 5.066406-7.867188 9.769531v34.496094h-25.515625v-88.570312c77.496094-4.410157 139.195313-68.847657 139.195313-147.429688 0-32.878906-10.574219-64-30.582032-89.996094-19.367187-25.167968-46.789062-43.71875-77.210937-52.234375-5.316406-1.488281-10.835937 1.617188-12.324219 6.933594-1.488281 5.320313 1.613282 10.839844 6.933594 12.328125 54.863281 15.355469 93.183594 65.921875 93.183594 122.96875 0 67.550781-52.734375 123.007812-119.195313 127.390625v-57.921875c34.605469-4.207031 61.511719-33.746094 61.511719-69.46875 0-38.597656-31.402344-70-70-70s-70 31.402344-70 70c0 5.296875.601562 10.503906 1.757812 15.582031h-58.488281c-.625-5.152343-.949219-10.371093-.949219-15.582031 0-56.066406 35.898438-105.023438 89.335938-121.824219 5.269531-1.660156 8.195312-7.273437 6.539062-12.539062-1.65625-5.269531-7.269531-8.199219-12.539062-6.542969-29.332031 9.222656-55.65625 27.945312-74.125 52.71875-19.109375 25.632812-29.210938 56.128906-29.210938 88.1875 0 5.199219.277344 10.417969.820313 15.582031h-89.140625v-49.582031h34.496094c4.703125 0 8.769531-3.273438 9.773437-7.867188 4.976563-22.828124 13.921875-44.375 26.589844-64.042968 2.546875-3.957032 1.992187-9.15625-1.335937-12.484375l-24.441407-24.441407 48.082031-48.082031 24.492188 24.492188c3.328125 3.324219 8.519531 3.882812 12.472656 1.347656 19.652344-12.609375 41.183594-21.507813 63.988282-26.453125 4.601562-.996094 7.882812-5.066406 7.882812-9.773438v-34.695312h68v34.75c0 4.703125 3.277344 8.769531 7.871094 9.769531 22.773437 4.96875 44.269531 13.882813 63.894531 26.496094 3.957031 2.542969 9.152344 1.984375 12.476563-1.339844l24.597656-24.597656 48.082031 48.085937-24.59375 24.59375c-3.328125 3.324219-3.886719 8.519532-1.34375 12.476563 12.613281 19.625 21.527344 41.121094 26.496094 63.898437 1 4.589844 5.070312 7.867188 9.769531 7.867188h34.75zm0 0"/><path d="m256.375 108.320312h-.375c-5.523438 0-10 4.476563-10 10 0 5.523438 4.476562 10 10 10h.375c5.523438 0 10-4.476562 10-10 0-5.523437-4.476562-10-10-10zm0 0"/><path d="m211.082031 410.667969h-52c-5.519531 0-10 4.476562-10 10 0 5.523437 4.480469 10 10 10h52c5.523438 0 10-4.476563 10-10 0-5.523438-4.476562-10-10-10zm0 0"/><path d="m211.082031 449.332031h-78.839843c-5.519532 0-10 4.476563-10 10 0 5.523438 4.480468 10 10 10h78.839843c5.523438 0 10-4.476562 10-10 0-5.523437-4.476562-10-10-10zm0 0"/><path d="m86.421875 449.328125c-2.644531 0-5.210937 1.070313-7.070313 2.933594-1.871093 1.859375-2.929687 4.4375-2.929687 7.066406 0 2.640625 1.058594 5.210937 2.929687 7.070313 1.859376 1.871093 4.429688 2.929687 7.070313 2.929687 2.628906 0 5.199219-1.058594 7.066406-2.929687 1.859375-1.859376 2.933594-4.4375 2.933594-7.070313 0-2.628906-1.070313-5.207031-2.933594-7.066406-1.859375-1.863281-4.4375-2.933594-7.066406-2.933594zm0 0"/></svg>