<svg height="512pt" viewBox="0 0 512 512" width="512pt" xmlns="http://www.w3.org/2000/svg"><path d="m116 52c-2.628906 0-5.210938 1.070312-7.070312 2.929688-1.859376 1.859374-2.929688 4.441406-2.929688 7.070312s1.070312 5.210938 2.929688 7.070312c1.859374 1.859376 4.441406 2.929688 7.070312 2.929688s5.210938-1.070312 7.070312-2.929688c1.859376-1.859374 2.929688-4.441406 2.929688-7.070312s-1.070312-5.210938-2.929688-7.070312c-1.859374-1.859376-4.441406-2.929688-7.070312-2.929688zm0 0"/><path d="m338.601562 52c-2.632812 0-5.210937 1.070312-7.070312 2.929688-1.859375 1.859374-2.929688 4.441406-2.929688 7.070312s1.070313 5.210938 2.929688 7.070312c1.859375 1.859376 4.4375 2.929688 7.070312 2.929688 2.636719 0 5.207032-1.070312 7.070313-2.929688 1.867187-1.859374 2.929687-4.441406 2.929687-7.070312s-1.0625-5.210938-2.929687-7.070312c-1.863281-1.859376-4.433594-2.929688-7.070313-2.929688zm0 0"/><path d="m482.136719 258.191406v-36.691406c17.15625-4.4375 29.863281-20.046875 29.863281-38.570312 0-11.230469-4.679688-21.378907-12.179688-28.628907l-112.976562-131.1875c-.851562-1.054687-1.734375-2.082031-2.652344-3.078125l-.242187-.28125c-.265625-.308594-.550781-.59375-.847657-.863281-11.277343-11.636719-27.050781-18.890625-44.5-18.890625h-222.601562c-7.304688 0-14.3125 1.277344-20.824219 3.609375-.148437.046875-.300781.085937-.449219.140625l-88.21875 32.878906c-3.914062 1.460938-6.507812 5.195313-6.507812 9.371094v104c0 3.226562 1.554688 6.25 4.175781 8.128906 1.71875 1.234375 3.761719 1.871094 5.824219 1.871094 1.082031 0 2.167969-.175781 3.214844-.53125l104.4375-35.46875h217.4375l110.945312 88.957031c.847656.738281 1.726563 1.445313 2.632813 2.109375l.035156.027344c.285156.230469.582031.433594.882813.628906 3.769531 2.601563 8 4.574219 12.550781 5.761719v36.707031l-26.933594 26.933594c-1.875 1.875-2.929687 4.417969-2.929687 7.070312v25.808594c0 5.523438 4.476562 10 10 10 5.523437 0 10-4.476562 10-10v-21.664062l19.863281-19.863282 19.863281 19.863282v19.789062c0 5.523438 4.476562 10 10 10s10-4.476562 10-10v-23.933594c0-2.648437-1.054688-5.195312-2.929688-7.070312zm-9.96875-55.425781c-4.238281 0-8.164063-1.351563-11.390625-3.625l-1.828125-1.464844c-4.046875-3.632812-6.613281-8.886719-6.613281-14.746093 0-10.933594 8.894531-19.832032 19.832031-19.832032 10.933593 0 19.832031 8.898438 19.832031 19.832032 0 10.9375-8.898438 19.835937-19.832031 19.835937zm-398.167969-140.765625c0-23.160156 18.839844-42 42-42s42 18.839844 42 42-18.839844 42-42 42-42-18.839844-42-42zm87.554688-42h131.492187c-10.199219 11.054688-16.445313 25.808594-16.445313 42s6.246094 30.945312 16.445313 42h-131.492187c10.199218-11.054688 16.445312-25.808594 16.445312-42s-6.246094-30.945312-16.445312-42zm135.046874 42c0-23.160156 18.84375-42 42-42 12.042969 0 22.910157 5.101562 30.578126 13.25l2.414062 2.804688c5.632812 7.148437 9.007812 16.15625 9.007812 25.945312 0 23.160156-18.839843 42-42 42-23.15625 0-42-18.839844-42-42zm103.566407 7.234375 64.265625 74.621094c-16.277344 3.21875-29.023438 16.378906-31.613282 32.871093l-71.273437-57.148437c20.714844-8.28125 35.941406-27.417969 38.621094-50.34375zm-380.167969-16.289063 38.617188-14.394531c-2.96875 7.238281-4.617188 15.152344-4.617188 23.449219 0 22.148438 11.683594 41.609375 29.199219 52.578125l-63.199219 21.464844zm0 0"/><path d="m393 188h-366c-14.886719 0-27 12.113281-27 27v270c0 14.886719 12.113281 27 27 27h366c14.886719 0 27-12.113281 27-27v-270c0-14.886719-12.113281-27-27-27zm7 297c0 3.859375-3.140625 7-7 7h-366c-3.859375 0-7-3.140625-7-7v-270c0-3.859375 3.140625-7 7-7h366c3.859375 0 7 3.140625 7 7zm0 0"/><path d="m292.328125 452c-2.628906 0-5.207031 1.070312-7.066406 2.929688-1.863281 1.859374-2.933594 4.441406-2.933594 7.070312s1.070313 5.210938 2.933594 7.070312c1.859375 1.859376 4.4375 2.929688 7.066406 2.929688 2.640625 0 5.210937-1.070312 7.070313-2.929688 1.871093-1.859374 2.929687-4.441406 2.929687-7.070312s-1.058594-5.210938-2.929687-7.070312c-1.859376-1.859376-4.429688-2.929688-7.070313-2.929688zm0 0"/><path d="m370 228h-320c-5.523438 0-10 4.476562-10 10v224c0 5.523438 4.476562 10 10 10h194.332031c5.523438 0 10-4.476562 10-10s-4.476562-10-10-10h-184.332031v-204h300v204h-26.667969c-5.523437 0-10 4.476562-10 10s4.476563 10 10 10h36.667969c5.523438 0 10-4.476562 10-10v-224c0-5.523438-4.476562-10-10-10zm0 0"/><path d="m89 304h114.5c5.523438 0 10-4.476562 10-10s-4.476562-10-10-10h-114.5c-5.523438 0-10 4.476562-10 10s4.476562 10 10 10zm0 0"/><path d="m191 350c0-5.523438-4.476562-10-10-10h-92c-5.523438 0-10 4.476562-10 10s4.476562 10 10 10h92c5.523438 0 10-4.476562 10-10zm0 0"/><path d="m89 396c-5.523438 0-10 4.476562-10 10s4.476562 10 10 10h57.832031c5.523438 0 10-4.476562 10-10s-4.476562-10-10-10zm0 0"/><path d="m326.648438 304c5.523437 0 10-4.476562 10-10s-4.476563-10-10-10h-46.574219c-5.523438 0-10 4.476562-10 10s4.476562 10 10 10zm0 0"/><path d="m217.300781 350c0 5.523438 4.476563 10 10 10h99.347657c5.523437 0 10-4.476562 10-10s-4.476563-10-10-10h-99.347657c-5.523437 0-10 4.476562-10 10zm0 0"/><path d="m189.167969 416h137.480469c5.523437 0 10-4.476562 10-10s-4.476563-10-10-10h-137.480469c-5.523438 0-10 4.476562-10 10s4.476562 10 10 10zm0 0"/><path d="m249.570312 301.070312c1.859376-1.859374 2.929688-4.441406 2.929688-7.070312s-1.070312-5.210938-2.929688-7.070312c-1.859374-1.859376-4.441406-2.929688-7.070312-2.929688s-5.210938 1.070312-7.070312 2.929688c-1.859376 1.859374-2.929688 4.441406-2.929688 7.070312s1.070312 5.210938 2.929688 7.070312c1.859374 1.859376 4.441406 2.929688 7.070312 2.929688s5.210938-1.070312 7.070312-2.929688zm0 0"/><path d="m472.171875 172.929688c-2.632813 0-5.210937 1.070312-7.070313 2.929687-1.871093 1.859375-2.929687 4.441406-2.929687 7.070313 0 2.640624 1.058594 5.210937 2.929687 7.070312 1.859376 1.859375 4.429688 2.929688 7.070313 2.929688 2.628906 0 5.207031-1.070313 7.066406-2.929688 1.863281-1.859375 2.933594-4.441406 2.933594-7.070312 0-2.628907-1.070313-5.210938-2.933594-7.070313-1.859375-1.859375-4.4375-2.929687-7.066406-2.929687zm0 0"/></svg>