<svg height="512pt" viewBox="0 0 512 512" width="512pt" xmlns="http://www.w3.org/2000/svg"><path d="m502 334h-108v-24h47.585938c5.523437 0 10-4.476562 10-10s-4.476563-10-10-10h-47.585938v-24h108c5.523438 0 10-4.476562 10-10s-4.476562-10-10-10h-108v-75c0-18.746094-15.253906-34-34-34h-17.300781l29.003906-58.5625c1.535156-3.097656 1.359375-6.773438-.464844-9.710938s-5.039062-4.726562-8.496093-4.726562h-29.613282v-32c0-5.523438-4.480468-10-10-10h-54c-5.523437 0-10 4.476562-10 10v32h-9.628906v-54c0-5.523438-4.476562-10-10-10h-54c-5.523438 0-10 4.476562-10 10v54h-25.988281c-3.457031 0-6.671875 1.789062-8.496094 4.726562s-2 6.613282-.464844 9.710938l29.003907 58.5625h-17.554688c-18.746094 0-34 15.253906-34 34v75h-108c-5.523438 0-10 4.476562-10 10s4.476562 10 10 10h108v24h-47.332031c-5.523438 0-10 4.476562-10 10s4.476562 10 10 10h47.332031v24h-108c-5.523438 0-10 4.476562-10 10s4.476562 10 10 10h108v1c0 18.746094 15.253906 34 34 34h10v49.914062c-21.640625 4.3125-38 23.449219-38 46.335938v16.75c0 5.523438 4.476562 10 10 10h244c5.523438 0 10-4.476562 10-10v-16.75c0-22.886719-16.359375-42.023438-38-46.335938v-49.914062h10c18.746094 0 34-15.253906 34-34v-1h108c5.523438 0 10-4.476562 10-10s-4.476562-10-10-10zm-222.871094-292h34v22h-34zm-83.628906-22h34v44h-34zm-29.875 64h181.003906l-26.246094 53h-128.511718zm202.375 401.25v6.75h-224v-6.75c0-15.027344 12.222656-27.25 27.25-27.25h169.5c15.027344 0 27.25 12.222656 27.25 27.25zm-38-47.25h-148v-49h148zm44-83c0 7.71875-6.28125 14-14 14h-208c-7.71875 0-14-6.28125-14-14v-184c0-7.71875 6.28125-14 14-14h208c7.71875 0 14 6.28125 14 14zm0 0"/><path d="m335.960938 197.292969h-31.554688c-4.128906-11.640625-15.242188-20-28.28125-20-13.035156 0-24.152344 8.359375-28.277344 20h-75.847656c-5.523438 0-10 4.476562-10 10 0 5.523437 4.476562 10 10 10h75.847656c4.128906 11.640625 15.242188 20 28.28125 20 13.035156 0 24.148438-8.359375 28.277344-20h31.554688c5.523437 0 10-4.476563 10-10 0-5.523438-4.476563-10-10-10zm-59.832032 20c-5.515625 0-10-4.484375-10-10s4.484375-10 10-10c5.511719 0 10 4.484375 10 10s-4.488281 10-10 10zm0 0"/><path d="m335.960938 307.375h-31.554688c-4.128906-11.640625-15.242188-20-28.28125-20-13.035156 0-24.152344 8.359375-28.277344 20h-75.847656c-5.523438 0-10 4.476562-10 10s4.476562 10 10 10h75.847656c4.128906 11.640625 15.242188 20 28.28125 20 13.035156 0 24.148438-8.359375 28.277344-20h31.554688c5.523437 0 10-4.476562 10-10s-4.476563-10-10-10zm-59.832032 20c-5.515625 0-10-4.484375-10-10s4.484375-10 10-10c5.511719 0 10 4.484375 10 10s-4.488281 10-10 10zm0 0"/><path d="m343.03125 269.410156c1.859375-1.859375 2.929688-4.441406 2.929688-7.082031 0-2.628906-1.070313-5.207031-2.929688-7.066406-1.859375-1.863281-4.441406-2.933594-7.070312-2.933594-2.632813 0-5.210938 1.070313-7.070313 2.933594-1.859375 1.859375-2.929687 4.4375-2.929687 7.066406 0 2.640625 1.070312 5.222656 2.929687 7.082031s4.4375 2.917969 7.070313 2.917969c2.628906 0 5.210937-1.058594 7.070312-2.917969zm0 0"/><path d="m172 272.335938h22.96875c4.128906 11.636718 15.246094 20 28.28125 20s24.152344-8.363282 28.28125-20h49.804688c5.519531 0 10-4.480469 10-10 0-5.523438-4.480469-10-10-10h-49.804688c-4.128906-11.640626-15.246094-20-28.28125-20s-24.152344 8.359374-28.28125 20h-22.96875c-5.523438 0-10 4.476562-10 10 0 5.519531 4.476562 10 10 10zm51.25-20c5.515625 0 10 4.484374 10 10 0 5.511718-4.484375 10-10 10s-10-4.488282-10-10c0-5.515626 4.484375-10 10-10zm0 0"/><path d="m44.070312 307.070312c1.859376-1.859374 2.929688-4.441406 2.929688-7.070312s-1.070312-5.210938-2.929688-7.070312c-1.859374-1.859376-4.441406-2.929688-7.070312-2.929688s-5.210938 1.070312-7.070312 2.929688c-1.859376 1.859374-2.929688 4.441406-2.929688 7.070312s1.070312 5.210938 2.929688 7.070312c1.859374 1.859376 4.441406 2.929688 7.070312 2.929688s5.210938-1.070312 7.070312-2.929688zm0 0"/><path d="m468.179688 292.929688c-1.859376 1.859374-2.929688 4.441406-2.929688 7.070312s1.070312 5.210938 2.929688 7.070312c1.859374 1.859376 4.441406 2.929688 7.070312 2.929688 2.640625 0 5.210938-1.070312 7.078125-2.929688 1.863281-1.859374 2.921875-4.441406 2.921875-7.070312s-1.058594-5.210938-2.921875-7.070312c-1.867187-1.859376-4.4375-2.929688-7.078125-2.929688-2.628906 0-5.210938 1.070312-7.070312 2.929688zm0 0"/></svg>