<svg viewBox="0 0 512 512" xmlns="http://www.w3.org/2000/svg"><path d="m498.816406 190.390625c-.300781-.410156-.621094-.804687-.992187-1.175781l-64.542969-64.542969c-3.902344-3.90625-10.234375-3.90625-14.140625 0s-3.90625 10.238281 0 14.144531l34.542969 34.542969c-23.585938 2.886719-42.328125 21.625-45.222656 45.207031l-114.675782-114.675781 2.34375-.753906c22.304688-3.941407 39.734375-22.140625 42.511719-44.824219l28.464844 28.46875c1.953125 1.953125 4.511719 2.929688 7.070312 2.929688 2.558594 0 5.121094-.976563 7.070313-2.929688 3.90625-3.90625 3.90625-10.238281 0-14.144531l-57.375-57.375c-.253906-.253907-.519532-.488281-.792969-.710938-9.34375-9-22.039063-14.550781-36.007813-14.550781-7.265624 0-14.1875 1.503906-20.472656 4.207031-.078125.035157-.164062.058594-.242187.097657 0 0-130.351563 57.855468-133.195313 59.546874-.40625.214844-.796875.453126-1.160156.71875-12.390625 7.894532-20.636719 21.746094-20.636719 37.496094 0 21.066406 14.738281 38.742188 34.441407 43.289063v26.089843l-32.941407 27.527344c-2.273437 1.898438-3.585937 4.710938-3.585937 7.671875v13.878907c0 2.652343 1.054687 5.195312 2.929687 7.070312l4.214844 4.214844v43.859375c0 5.523437 4.476563 10 10 10h58.097656c5.523438 0 10-4.476563 10-10v-43.191407l4.882813-4.882812c1.875-1.875 2.929687-4.417969 2.929687-7.070312v-13.875c0-2.964844-1.3125-5.773438-3.585937-7.675782l-32.941406-27.527344v-26.085937c3.015624-.699219 5.914062-1.699219 8.660156-2.972656l97.9375-31.59375 135.65625 135.65625v245.550781h-92.253906v-130.777344l47.722656-66.386718c2.191406-3.046876 2.492187-7.058594.78125-10.398438-1.710938-3.335938-5.148438-5.4375-8.898438-5.4375h-150c-3.21875 0-6.242187 1.550781-8.121094 4.164062l-41.484374 57.703126-41.480469-57.703126c-1.878907-2.613281-4.902344-4.164062-8.121094-4.164062h-96c-3.75 0-7.1875 2.101562-8.898437 5.4375-1.710938 3.339844-1.410157 7.355469.78125 10.398438l47.722656 66.386718v130.777344h-39.808594c-5.523438 0-10 4.476562-10 10s4.476562 10 10 10h492c5.523438 0 10-4.476562 10-10v-277.070312c0-13.25-4.992188-25.351563-13.183594-34.539063zm-179.777344-138.417969c0 17.628906-14.339843 31.96875-31.96875 31.96875-17.628906 0-31.972656-14.339844-31.972656-31.96875s14.34375-31.972656 31.972656-31.972656c17.628907 0 31.96875 14.34375 31.96875 31.972656zm-187.675781 50.09375c0-8.65625 4.53125-16.269531 11.339844-20.613281l6.542969-2.921875c2.089844-.585938 4.285156-.902344 6.558594-.902344 13.472656 0 24.4375 10.964844 24.4375 24.4375 0 13.476563-10.964844 24.4375-24.4375 24.4375-13.476563 0-24.441407-10.960937-24.441407-24.4375zm43.15625 163.601563h-38.097656v-27.332031h38.097656zm7.808594-49.289063-1.953125 1.957032h-49.144531l-1.953125-1.957032v-5.058594l26.527344-22.167968 26.523437 22.167968zm16.402344-102.839844c.980469-3.660156 1.511719-7.503906 1.511719-11.472656 0-15.59375-8.085938-29.332031-20.273438-37.261718l56.652344-25.3125c-.988282 4-1.523438 8.175781-1.523438 12.476562 0 14.289062 5.796875 27.246094 15.160156 36.648438.089844.101562.175782.207031.273438.304687l5.980469 5.976563zm261.296875 79.421876c17.628906 0 31.972656 14.339843 31.972656 31.96875 0 17.628906-14.34375 31.972656-31.972656 31.972656s-31.96875-14.34375-31.96875-31.972656c0-17.628907 14.339844-31.96875 31.96875-31.96875zm-31.96875 72.898437c8.824218 6.910156 19.917968 11.042969 31.96875 11.042969 12.050781 0 23.148437-4.132813 31.972656-11.042969v226.140625h-63.941406zm-217.527344 33.140625h125.371094l-35.226563 49h-125.367187zm-109.457031 0 35.222656 49h-71.367187l-35.226563-49zm-31.269531 69h76v124h-76zm206.027343 124v-37.5c0-5.523438-4.476562-10-10-10-5.523437 0-10 4.476562-10 10v37.5h-90.03125v-124h130v124zm0 0"/><path d="m400.730469 116.269531c2.640625 0 5.210937-1.070312 7.078125-2.929687 1.863281-1.859375 2.929687-4.441406 2.929687-7.070313 0-2.640625-1.066406-5.210937-2.929687-7.070312-1.867188-1.871094-4.4375-2.929688-7.078125-2.929688-2.628907 0-5.199219 1.058594-7.070313 2.929688-1.859375 1.859375-2.929687 4.429687-2.929687 7.070312 0 2.628907 1.070312 5.210938 2.929687 7.070313 1.871094 1.859375 4.441406 2.929687 7.070313 2.929687zm0 0"/><path d="m165.800781 102.070312c0-2.628906-1.070312-5.210937-2.929687-7.070312s-4.429688-2.929688-7.070313-2.929688c-2.628906 0-5.210937 1.070313-7.070312 2.929688s-2.929688 4.441406-2.929688 7.070312c0 2.628907 1.070313 5.210938 2.929688 7.070313s4.441406 2.929687 7.070312 2.929687c2.640625 0 5.210938-1.070312 7.070313-2.929687s2.929687-4.441406 2.929687-7.070313zm0 0"/><path d="m287.070312 61.96875c2.628907 0 5.210938-1.070312 7.070313-2.929688 1.859375-1.859374 2.929687-4.4375 2.929687-7.070312 0-2.628906-1.070312-5.207031-2.929687-7.070312-1.859375-1.859376-4.441406-2.929688-7.070313-2.929688-2.628906 0-5.210937 1.070312-7.070312 2.929688-1.859375 1.863281-2.929688 4.441406-2.929688 7.070312 0 2.632812 1.070313 5.210938 2.929688 7.070312 1.859375 1.859376 4.441406 2.929688 7.070312 2.929688zm0 0"/><path d="m460.03125 234.929688c2.628906 0 5.207031-1.070313 7.070312-2.929688 1.859376-1.859375 2.929688-4.441406 2.929688-7.070312 0-2.628907-1.070312-5.210938-2.929688-7.070313-1.863281-1.859375-4.441406-2.929687-7.070312-2.929687-2.632812 0-5.210938 1.070312-7.070312 2.929687-1.859376 1.859375-2.929688 4.441406-2.929688 7.070313 0 2.628906 1.070312 5.210937 2.929688 7.070312 1.859374 1.859375 4.429687 2.929688 7.070312 2.929688zm0 0"/><path d="m265.832031 407.136719c-5.523437 0-10 4.476562-10 10v1.140625c0 5.523437 4.476563 10 10 10 5.523438 0 10-4.476563 10-10v-1.140625c0-5.523438-4.476562-10-10-10zm0 0"/></svg>