<svg height="512pt" viewBox="0 0 512 512" width="512pt" xmlns="http://www.w3.org/2000/svg"><path d="m512 30c0-16.542969-13.457031-30-30-30h-308c-16.542969 0-30 13.457031-30 30v179.726562c-33.875 4.867188-60 34.070313-60 69.273438v43.082031c0 19.574219 8.085938 37.285157 21.078125 50h-33.746094c-39.332031 0-71.332031 32-71.332031 71.335938v58.582031c0 5.523438 4.476562 10 10 10h288c5.523438 0 10-4.476562 10-10v-58.582031c0-39.332031-32-71.332031-71.332031-71.332031h-33.746094c12.992187-12.71875 21.078125-30.429688 21.078125-50v-22.085938h65.535156l-.195312.339844c-1.328125 2.296875-1.6875 5.023437-1 7.585937s2.363281 4.746094 4.660156 6.074219l17.089844 9.867188c-.460938 3.726562-.695313 7.488281-.695313 11.25 0 3.761718.234375 7.523437.695313 11.25l-17.089844 9.867187c-2.296875 1.324219-3.972656 3.507813-4.660156 6.070313s-.324219 5.292968 1 7.589843l25.148437 43.558594c2.761719 4.785156 8.878907 6.421875 13.660157 3.660156l17.09375-9.867187c6.019531 4.574218 12.535156 8.34375 19.484374 11.265625v19.71875c0 5.523437 4.476563 10 10 10h50.296876c5.523437 0 10-4.476563 10-10v-19.71875c6.949218-2.921875 13.464843-6.691407 19.484374-11.265625l17.09375 9.867187c4.78125 2.765625 10.898438 1.125 13.660157-3.660156l25.148437-43.558594c1.324219-2.296875 1.6875-5.027343 1-7.589843s-2.363281-4.746094-4.660156-6.070313l-17.09375-9.871094c.464844-3.722656.699219-7.484375.699219-11.246093 0-3.761719-.234375-7.523438-.699219-11.25l17.09375-9.871094c2.296875-1.324219 3.972656-3.507813 4.660156-6.070313s.324219-5.292969-1-7.585937l-6.003906-10.398438c4.839844-5.429687 7.59375-12.496094 7.59375-19.941406zm-358 199c25.308594 0 46.289062 18.902344 49.558594 43.332031h-99.117188c3.269532-24.429687 24.25-43.332031 49.558594-43.332031zm47.59375 63.332031c-3.648438 7.117188-11.0625 12-19.59375 12h-56c-8.53125 0-15.945312-4.882812-19.59375-12zm-86.148438 99.75 24.414063 24.414063-21.113281 21.109375-45.519532-45.523438zm119.328126 0-45.519532 45.523438-21.113281-21.109375 24.414063-24.414063zm-70.503907 0-10.269531 10.273438-10.269531-10.273438zm123.730469 51.335938v48.582031h-268v-48.582031c0-20.589844 12.191406-38.375 29.726562-46.550781l61.949219 61.953124c1.953125 1.953126 4.511719 2.929688 7.070313 2.929688 2.5625 0 5.121094-.976562 7.074218-2.929688l28.179688-28.179687 28.179688 28.179687c1.953124 1.953126 4.511718 2.929688 7.074218 2.929688 2.558594 0 5.117188-.976562 7.070313-2.929688l61.949219-61.953124c17.535156 8.175781 29.726562 25.960937 29.726562 46.550781zm-134-71.335938c-27.570312 0-50-22.429687-50-50v-3.992187c6.402344 3.957031 13.9375 6.242187 22 6.242187h56c8.0625 0 15.597656-2.285156 22-6.242187v3.992187c0 27.570313-22.429688 50-50 50zm314.878906-51.382812c.980469 4.714843 1.476563 9.566406 1.476563 14.417969 0 4.851562-.496094 9.699218-1.476563 14.414062-.875 4.226562 1.054688 8.539062 4.792969 10.695312l14.421875 8.328126-15.152344 26.238281-14.4375-8.332031c-3.742187-2.164063-8.445312-1.675782-11.664062 1.203124-7.300782 6.527344-15.6875 11.378907-24.9375 14.417969-4.101563 1.347657-6.875 5.179688-6.875 9.5v16.648438h-30.300782v-16.648438c0-4.320312-2.773437-8.152343-6.878906-9.5-9.246094-3.039062-17.636718-7.890625-24.933594-14.417969-3.21875-2.878906-7.925781-3.367187-11.667968-1.203124l-14.4375 8.332031-15.148438-26.238281 14.421875-8.328126c3.734375-2.15625 5.667969-6.46875 4.789063-10.695312-.980469-4.714844-1.476563-9.5625-1.476563-14.414062 0-4.851563.496094-9.703126 1.476563-14.417969.878906-4.226563-1.054688-8.539063-4.789063-10.695313l-14.421875-8.324218 15.148438-26.242188 14.4375 8.335938c3.742187 2.160156 8.445312 1.671874 11.667968-1.207032 7.296876-6.527344 15.6875-11.378906 24.933594-14.417968 4.105469-1.347657 6.878906-5.179688 6.878906-9.5v-16.648438h30.300782v16.648438c0 4.320312 2.773437 8.152343 6.875 9.5 9.25 3.039062 17.636718 7.890624 24.9375 14.417968 3.21875 2.878906 7.921875 3.367188 11.664062 1.207032l14.4375-8.335938 15.152344 26.242188-14.421875 8.324218c-3.738281 2.15625-5.667969 6.46875-4.792969 10.695313zm16.382813-63.921875c-2.761719-4.785156-8.878907-6.421875-13.660157-3.660156l-17.09375 9.867187c-6.015624-4.570313-12.535156-8.339844-19.480468-11.261719v-9.722656h15.921875c5.523437 0 10-4.476562 10-10s-4.476563-10-10-10h-164.125c-5.523438 0-10 4.476562-10 10s4.476562 10 10 10h77.902343v9.722656c-6.949218 2.921875-13.464843 6.691406-19.484374 11.261719l-17.089844-9.867187c-4.785156-2.761719-10.898438-1.125-13.660156 3.660156l-13.410157 23.222656h-77.082031v-1c0-35.203125-26.125-64.40625-60-69.273438v-179.726562c0-5.515625 4.484375-10 10-10h308c5.515625 0 10 4.484375 10 10v238.449219zm0 0"/><path d="m256 452h-23.5c-5.523438 0-10 4.476562-10 10s4.476562 10 10 10h23.5c5.523438 0 10-4.476562 10-10s-4.476562-10-10-10zm0 0"/><path d="m207.824219 74h34.667969c5.523437 0 10-4.476562 10-10s-4.476563-10-10-10h-34.667969c-5.523438 0-10 4.476562-10 10s4.476562 10 10 10zm0 0"/><path d="m309.824219 120c0-5.523438-4.476563-10-10-10h-92c-5.523438 0-10 4.476562-10 10s4.476562 10 10 10h92c5.523437 0 10-4.476562 10-10zm0 0"/><path d="m271 166h-63.175781c-5.523438 0-10 4.476562-10 10s4.476562 10 10 10h63.175781c5.523438 0 10-4.476562 10-10s-4.476562-10-10-10zm0 0"/><path d="m247 222c-2.628906 0-5.210938 1.070312-7.070312 2.929688-1.859376 1.859374-2.929688 4.441406-2.929688 7.070312s1.070312 5.210938 2.929688 7.070312c1.859374 1.859376 4.441406 2.929688 7.070312 2.929688s5.210938-1.070312 7.070312-2.929688c1.859376-1.859374 2.929688-4.441406 2.929688-7.070312s-1.070312-5.210938-2.929688-7.070312c-1.859374-1.859376-4.441406-2.929688-7.070312-2.929688zm0 0"/><path d="m445.472656 54h-158.648437c-5.523438 0-10 4.476562-10 10s4.476562 10 10 10h158.648437c5.523438 0 10-4.476562 10-10s-4.476562-10-10-10zm0 0"/><path d="m445.472656 110h-99.347656c-5.523438 0-10 4.476562-10 10s4.476562 10 10 10h99.347656c5.523438 0 10-4.476562 10-10s-4.476562-10-10-10zm0 0"/><path d="m445.472656 166h-51.316406c-5.519531 0-10 4.476562-10 10s4.480469 10 10 10h51.316406c5.523438 0 10-4.476562 10-10s-4.476562-10-10-10zm0 0"/><path d="m346.125 166h-32.46875c-5.523438 0-10 4.476562-10 10s4.476562 10 10 10h32.46875c5.523438 0 10-4.476562 10-10s-4.476562-10-10-10zm0 0"/><path d="m399.875 288.984375c-25.4375 0-46.128906 20.695313-46.128906 46.132813s20.691406 46.128906 46.128906 46.128906 46.132812-20.691406 46.132812-46.128906-20.695312-46.132813-46.132812-46.132813zm0 72.261719c-14.40625 0-26.128906-11.722656-26.128906-26.128906 0-14.410157 11.722656-26.132813 26.128906-26.132813 14.410156 0 26.132812 11.722656 26.132812 26.132813 0 14.40625-11.722656 26.128906-26.132812 26.128906zm0 0"/></svg>