<svg height="512pt" viewBox="0 0 512 512" width="512pt" xmlns="http://www.w3.org/2000/svg"><path d="m501.007812 279h-116.40625c-3.21875 0-6.238281 1.550781-8.117187 4.164062l-41.484375 57.703126-41.484375-57.703126c-1.878906-2.613281-4.898437-4.164062-8.117187-4.164062h-129.59375c-3.753907 0-7.1875 2.101562-8.898438 5.4375-1.714844 3.339844-1.414062 7.355469.777344 10.398438l47.722656 66.386718v140.777344c0 5.523438 4.476562 10 10 10h246c5.523438 0 10-4.476562 10-10v-140.777344l47.722656-66.386718c2.191406-3.046876 2.492188-7.058594.78125-10.398438-1.714844-3.335938-5.148437-5.4375-8.902344-5.4375zm-220.738281 20 35.226563 49h-104.964844l-35.222656-49zm-64.863281 69h109.59375v124h-109.59375zm226 124h-19.90625v-44.667969c0-5.523437-4.476562-10-10-10s-10 4.476563-10 10v44.667969h-56.5v-124h96.40625zm4.871094-144h-91.773438l35.226563-49h91.773437zm0 0"/><path d="m266.042969 182c0-17.578125-9.914063-32.875-24.441407-40.617188l5.636719-5.636718c1.875-1.875 2.929688-4.421875 2.929688-7.070313v-101.347656c0-2.652344-1.054688-5.195313-2.929688-7.070313l-17.324219-17.328124c-1.875-1.875-4.421874-2.929688-7.070312-2.929688h-49.347656c-2.652344 0-5.195313 1.054688-7.070313 2.929688l-17.328125 17.324218c-1.875 1.875-2.929687 4.421875-2.929687 7.070313v101.347656c0 2.652344 1.054687 5.195313 2.929687 7.070313l.253906.257812h-32.535156l.253906-.257812c1.875-1.875 2.929688-4.417969 2.929688-7.070313v-101.34375c0-2.652344-1.054688-5.195313-2.929688-7.070313l-17.324218-17.328124c-1.878906-1.875-4.421875-2.929688-7.074219-2.929688h-49.34375c-2.652344 0-5.195313 1.054688-7.070313 2.929688l-17.328124 17.324218c-1.875 1.878906-2.929688 4.421875-2.929688 7.074219v101.347656c0 2.648438 1.054688 5.195313 2.929688 7.070313l.253906.253906h-9.183594c-5.523438 0-10 4.476562-10 10s4.476562 10 10 10h210.042969c14.335937 0 26 11.664062 26 26s-11.664063 26-26 26h-210.042969c-5.523438 0-10 4.476562-10 10s4.476562 10 10 10h210.042969c25.363281 0 46-20.636719 46-46zm-218.574219-46-11.46875-11.46875v-93.0625l11.46875-11.46875h41.0625l11.46875 11.46875v93.0625l-11.46875 11.46875zm130.167969 0-11.46875-11.46875v-93.0625l11.46875-11.46875h41.0625l11.46875 11.46875v93.0625l-11.46875 11.46875zm0 0"/><path d="m10 192h166.542969c5.523437 0 10-4.476562 10-10s-4.476563-10-10-10h-166.542969c-5.523438 0-10 4.476562-10 10s4.476562 10 10 10zm0 0"/><path d="m225.109375 189.070312c1.859375-1.859374 2.929687-4.441406 2.929687-7.070312s-1.070312-5.210938-2.929687-7.070312c-1.859375-1.859376-4.4375-2.929688-7.070313-2.929688-2.628906 0-5.210937 1.070312-7.070312 2.929688-1.859375 1.859374-2.929688 4.441406-2.929688 7.070312s1.070313 5.210938 2.929688 7.070312c1.859375 1.859376 4.441406 2.929688 7.070312 2.929688 2.632813 0 5.210938-1.070312 7.070313-2.929688zm0 0"/><path d="m68 53.332031c-13.601562 0-24.667969 11.066407-24.667969 24.667969s11.066407 24.667969 24.667969 24.667969 24.667969-11.066407 24.667969-24.667969-11.066407-24.667969-24.667969-24.667969zm0 29.335938c-2.574219 0-4.667969-2.09375-4.667969-4.667969s2.09375-4.667969 4.667969-4.667969 4.667969 2.09375 4.667969 4.667969-2.09375 4.667969-4.667969 4.667969zm0 0"/><path d="m198.167969 53.332031c-13.601563 0-24.667969 11.066407-24.667969 24.667969s11.066406 24.667969 24.667969 24.667969c13.601562 0 24.667969-11.066407 24.667969-24.667969s-11.066407-24.667969-24.667969-24.667969zm0 29.335938c-2.574219 0-4.667969-2.09375-4.667969-4.667969s2.09375-4.667969 4.667969-4.667969 4.667969 2.09375 4.667969 4.667969-2.09375 4.667969-4.667969 4.667969zm0 0"/><path d="m502 52.613281h-119.433594c1.722656-4.335937 2.683594-9.058593 2.683594-14 0-4.9375-.933594-9.65625-2.613281-14h119.363281c5.523438 0 10-4.476562 10-10 0-5.523437-4.476562-10-10-10h-136.941406c-5.316406-2.871093-11.375-4.503906-17.808594-4.503906-20.953125 0-38 17.273437-38 38.503906 0 11.347657 5.007812 21.539063 12.917969 28.507813v27.039062l-33.597657 33.625c-3.125 3.128906-3.824218 7.9375-1.71875 11.828125l16.167969 29.894531c1.808594 3.34375 5.25 5.246094 8.804688 5.246094 1.605469 0 3.238281-.390625 4.75-1.207031 4.859375-2.628906 6.664062-8.695313 4.039062-13.554687l-12.625-23.339844 26.871094-26.894532h24.78125l26.871094 26.894532-12.625 23.339844c-2.625 4.859374-.816407 10.925781 4.039062 13.554687 1.511719.816406 3.144531 1.207031 4.75 1.207031 3.554688 0 6.996094-1.902344 8.804688-5.246094l16.167969-29.894531c2.105468-3.890625 1.40625-8.699219-1.71875-11.828125l-33.59375-33.625v-21.546875h129.664062c5.523438 0 10-4.476562 10-10 0-5.523437-4.476562-10-10-10zm-154.75-32.503906c9.757812 0 18 8.472656 18 18.503906 0 9.925781-8.074219 18-18 18s-18-8.074219-18-18c0-10.03125 8.242188-18.503906 18-18.503906zm-5.082031 69.644531v-13.492187c1.664062.226562 3.359375.351562 5.082031.351562 1.726562 0 3.417969-.125 5.082031-.351562v13.492187zm0 0"/><path d="m411.5 420.671875c2.628906 0 5.210938-1.070313 7.070312-2.933594 1.859376-1.859375 2.929688-4.4375 2.929688-7.066406 0-2.640625-1.070312-5.210937-2.929688-7.070313-1.859374-1.871093-4.441406-2.929687-7.070312-2.929687s-5.210938 1.058594-7.070312 2.929687c-1.859376 1.859376-2.929688 4.429688-2.929688 7.070313 0 2.628906 1.070312 5.207031 2.929688 7.066406 1.859374 1.863281 4.441406 2.933594 7.070312 2.933594zm0 0"/></svg>