<svg viewBox="0 -27 512 512" xmlns="http://www.w3.org/2000/svg"><path d="m170 223c-2.628906 0-5.210938 1.070312-7.070312 2.929688-1.859376 1.859374-2.929688 4.441406-2.929688 7.070312s1.070312 5.210938 2.929688 7.070312c1.859374 1.859376 4.441406 2.929688 7.070312 2.929688s5.210938-1.070312 7.070312-2.929688c1.859376-1.859374 2.929688-4.441406 2.929688-7.070312s-1.070312-5.210938-2.929688-7.070312c-1.859374-1.859376-4.441406-2.929688-7.070312-2.929688zm0 0"/><path d="m497.9375 241.957031v-16.457031c0-5.523438-4.476562-10-10-10h-47.9375c-5.523438 0-10 4.476562-10 10v16.53125c-8.941406 10.226562-14 23.554688-14 37.199219v104.769531h-28v-104.769531c0-13.675781-5.082031-27.035157-14.0625-37.273438v-16.457031c0-5.523438-4.476562-10-10-10h-47.9375c-5.523438 0-10 4.476562-10 10v16.53125c-8.941406 10.226562-14 23.554688-14 37.199219v104.769531h-40.023438c-.539062-27.660156-23.191406-50-50.976562-50h-21v-61.5c0-5.523438-4.476562-10-10-10s-10 4.476562-10 10v61.5h-68v-220.191406c9.769531 6.433594 21.453125 10.191406 34 10.191406s24.230469-3.757812 34-10.191406v77.191406c0 5.523438 4.476562 10 10 10s10-4.476562 10-10v-83h124v6c0 2.015625.609375 3.984375 1.746094 5.648438l24.253906 35.445312v29.90625c0 5.523438 4.476562 10 10 10s10-4.476562 10-10v-29.90625l24.253906-35.445312c1.136719-1.664063 1.746094-3.632813 1.746094-5.648438v-88c0-5.523438-4.476562-10-10-10h-196c-.757812 0-1.492188.09375-2.203125.25-11.03125-10.085938-25.707031-16.25-41.796875-16.25-34.1875 0-62 27.8125-62 62 0 11.046875 2.917969 21.414062 8 30.40625v241.59375h-21c-28.121094 0-51 22.878906-51 51v63c0 5.523438 4.476562 10 10 10h492c5.523438 0 10-4.476562 10-10v-168.769531c0-13.675781-5.082031-27.035157-14.0625-37.273438zm-141.9375-131.050781-16 23.382812-16-23.382812v-74.90625h32zm-52-22.90625h-121.734375c3.671875-7.914062 5.734375-16.71875 5.734375-26s-2.0625-18.085938-5.734375-26h121.734375zm-178-68c23.160156 0 42 18.839844 42 42s-18.839844 42-42 42-42-18.839844-42-42 18.839844-42 42-42zm320.984375 233.15625c1.929687-1.882812 3.015625-4.460938 3.015625-7.15625v-10.5h27.9375v10.5c0 3.109375 1.417969 5.886719 3.644531 7.71875 6.160157 6.289062 9.859375 14.71875 10.355469 23.492188-5 1.277343-13.941406 2.292968-22.730469-3.0625-11.671875-7.117188-23.160156-6.726563-31.917969-4.433594 1.699219-6.238282 5.027344-12 9.695313-16.558594zm-10.984375 38.289062c4.335938-2.261718 13.6875-5.773437 22.796875-.222656 8.769531 5.347656 17.511719 7.007813 24.984375 7.007813 2.964844 0 5.730469-.261719 8.21875-.65625v86.425781h-56zm-124-12.214843c0-9.753907 4.003906-19.257813 10.984375-26.074219 1.929687-1.882812 3.015625-4.464844 3.015625-7.15625v-10.5h27.9375v10.5c0 3.109375 1.417969 5.886719 3.644531 7.71875 6.632813 6.773438 10.417969 16.023438 10.417969 25.511719v104.769531h-56zm-292 105.769531c0-17.09375 13.90625-31 31-31h150c17.09375 0 31 13.90625 31 31v53h-212zm472 53h-240v-34h240zm0 0"/><path d="m126 72c2.628906 0 5.210938-1.070312 7.070312-2.929688 1.859376-1.859374 2.929688-4.441406 2.929688-7.070312s-1.070312-5.210938-2.929688-7.070312c-1.859374-1.859376-4.441406-2.929688-7.070312-2.929688s-5.210938 1.070312-7.070312 2.929688c-1.859376 1.859374-2.929688 4.441406-2.929688 7.070312s1.070312 5.210938 2.929688 7.070312c1.859374 1.859376 4.441406 2.929688 7.070312 2.929688zm0 0"/><path d="m340 72c2.628906 0 5.210938-1.070312 7.070312-2.929688 1.859376-1.859374 2.929688-4.441406 2.929688-7.070312s-1.070312-5.210938-2.929688-7.070312c-1.859374-1.859376-4.441406-2.929688-7.070312-2.929688s-5.210938 1.070312-7.070312 2.929688c-1.859376 1.859374-2.929688 4.441406-2.929688 7.070312s1.070312 5.210938 2.929688 7.070312c1.859374 1.859376 4.441406 2.929688 7.070312 2.929688zm0 0"/><path d="m148.332031 386h-44.664062c-5.523438 0-10 4.476562-10 10s4.476562 10 10 10h44.664062c5.523438 0 10-4.476562 10-10s-4.476562-10-10-10zm0 0"/><path d="m56.5 386c-2.628906 0-5.210938 1.070312-7.070312 2.929688-1.859376 1.859374-2.929688 4.441406-2.929688 7.070312s1.070312 5.210938 2.929688 7.070312c1.859374 1.859376 4.441406 2.929688 7.070312 2.929688s5.210938-1.070312 7.070312-2.929688c1.859376-1.859374 2.929688-4.441406 2.929688-7.070312s-1.070312-5.210938-2.929688-7.070312c-1.859374-1.859376-4.441406-2.929688-7.070312-2.929688zm0 0"/><path d="m195.5 386c-2.628906 0-5.210938 1.070312-7.070312 2.929688-1.859376 1.859374-2.929688 4.441406-2.929688 7.070312s1.070312 5.210938 2.929688 7.070312c1.859374 1.859376 4.441406 2.929688 7.070312 2.929688s5.210938-1.070312 7.070312-2.929688c1.859376-1.859374 2.929688-4.441406 2.929688-7.070312s-1.070312-5.210938-2.929688-7.070312c-1.859374-1.859376-4.441406-2.929688-7.070312-2.929688zm0 0"/></svg>