<svg viewBox="0 0 512 512" xmlns="http://www.w3.org/2000/svg"><path d="m501.996094 0s-210.039063.00390625-210.058594.00390625h-281.9375c-5.523438 0-10 4.47656275-10 9.99999975v48c0 5.523438 4.476562 10 10 10h200.199219c.925781 4.5625 4.960937 8 9.800781 8h6.125v19c0 5.523438 4.480469 10 10 10 5.523438 0 10-4.476562 10-10v-19h20v118.125h-20v-16.460937c0-5.523438-4.476562-10-10-10-5.519531 0-10 4.476562-10 10v16.460937h-2c-5.519531 0-10 4.476563-10 10v44.867188l-86.394531 86.445312c-3.566407 3.566406-3.914063 9.234375-.8125 13.214844l43.082031 55.292969v98.050781c0 5.523438 4.476562 10 10 10h152c5.519531 0 9.996094-4.476562 9.996094-10v-98.050781l43.085937-55.292969c3.101563-3.980469 2.75-9.648438-.816406-13.214844l-86.140625-86.191406v-45.121094c0-5.523437-4.476562-10-10-10h-2v-118.125h5.875c4.835938 0 8.871094-3.4375 9.796875-8.003906h95.199219c5.523437 0 10-4.476562 10-10s-4.476563-10-10-10h-94.996094v-28h189.996094v28h-14.664063c-5.523437 0-10 4.476562-10 10s4.476563 10 10 10h24.664063c5.523437 0 10-4.476562 10-10v-48c0-5.523438-4.476563-10-10-10zm-225.871094 214.128906h2v32h-44v-32zm45.875 277.871094h-132v-132h32v54c0 4.03125 2.417969 7.667969 6.140625 9.226562 3.71875 1.554688 8.007813.726563 10.878906-2.105468l16.980469-16.742188 16.976562 16.742188c1.910157 1.882812 4.445313 2.878906 7.023438 2.878906 1.300781 0 2.613281-.253906 3.859375-.773438 3.71875-1.554687 6.140625-5.195312 6.140625-9.226562v-54h32zm-80-132h28v30.097656l-6.980469-6.882812c-1.945312-1.921875-4.484375-2.878906-7.019531-2.878906-2.539062 0-5.074219.957031-7.023438 2.878906l-6.976562 6.882812zm99.996094 11.40625v-21.40625c0-5.523438-4.476563-10-9.996094-10h-152c-5.523438 0-10 4.476562-10 10v21.40625l-21.878906-28.078125 77.160156-77.199219h61.4375l77.15625 77.199219zm-321.996094-351.402344h190v28h-190zm216.125 36h-6.125v-36h51.996094v36zm0 0"/><path d="m437.078125 48c-2.628906 0-5.199219 1.070312-7.0625 2.929688-1.867187 1.859374-2.929687 4.441406-2.929687 7.070312s1.0625 5.210938 2.929687 7.070312c1.859375 1.859376 4.433594 2.929688 7.0625 2.929688 2.640625 0 5.21875-1.070312 7.078125-2.929688 1.859375-1.859374 2.929688-4.441406 2.929688-7.070312s-1.070313-5.210938-2.929688-7.070312c-1.867188-1.859376-4.4375-2.929688-7.078125-2.929688zm0 0"/><path d="m256 28c-2.640625 0-5.210938 1.070312-7.070312 2.929688-1.859376 1.859374-2.929688 4.441406-2.929688 7.070312 0 2.640625 1.066406 5.210938 2.929688 7.070312 1.859374 1.859376 4.4375 2.929688 7.070312 2.929688 2.628906 0 5.207031-1.070312 7.066406-2.929688 1.859375-1.859374 2.933594-4.429687 2.933594-7.070312 0-2.628906-1.070312-5.210938-2.933594-7.070312-1.859375-1.859376-4.4375-2.929688-7.066406-2.929688zm0 0"/><path d="m236.128906 145.0625c2.628906 0 5.199219-1.0625 7.070313-2.921875 1.859375-1.871094 2.929687-4.4375 2.929687-7.078125 0-2.632812-1.070312-5.210938-2.929687-7.070312-1.859375-1.859376-4.441407-2.921876-7.070313-2.921876-2.640625 0-5.210937 1.0625-7.070312 2.921876-1.871094 1.859374-2.929688 4.4375-2.929688 7.070312 0 2.640625 1.058594 5.207031 2.929688 7.078125 1.859375 1.859375 4.441406 2.921875 7.070312 2.921875zm0 0"/><path d="m272.75 452c-5.523438 0-10 4.476562-10 10s4.476562 10 10 10h28c5.519531 0 10-4.476562 10-10s-4.480469-10-10-10zm0 0"/><path d="m256.128906 240.128906c2.628906 0 5.210938-1.070312 7.070313-2.929687s2.929687-4.441407 2.929687-7.070313-1.070312-5.210937-2.929687-7.070312-4.441407-2.929688-7.070313-2.929688c-2.640625 0-5.210937 1.070313-7.070312 2.929688-1.871094 1.859375-2.929688 4.441406-2.929688 7.070312s1.058594 5.210938 2.929688 7.070313c1.859375 1.863281 4.429687 2.929687 7.070312 2.929687zm0 0"/></svg>