<svg height="512pt" viewBox="0 0 512 512" width="512pt" xmlns="http://www.w3.org/2000/svg"><path d="m379.671875 438c-2.644531 0-5.210937 1.070312-7.070313 2.929688-1.871093 1.859374-2.929687 4.441406-2.929687 7.070312s1.058594 5.210938 2.929687 7.070312c1.847657 1.859376 4.429688 2.929688 7.070313 2.929688 2.628906 0 5.207031-1.070312 7.066406-2.929688 1.859375-1.859374 2.933594-4.441406 2.933594-7.070312s-1.070313-5.210938-2.933594-7.070312c-1.867187-1.859376-4.4375-2.929688-7.066406-2.929688zm0 0"/><path d="m65.070312 407.070312c1.859376-1.859374 2.929688-4.441406 2.929688-7.070312s-1.070312-5.210938-2.929688-7.070312c-1.859374-1.859376-4.441406-2.929688-7.070312-2.929688s-5.210938 1.070312-7.070312 2.929688c-1.859376 1.859374-2.929688 4.441406-2.929688 7.070312s1.070312 5.210938 2.929688 7.070312c1.859374 1.859376 4.441406 2.929688 7.070312 2.929688s5.210938-1.070312 7.070312-2.929688zm0 0"/><path d="m256 410c2.628906 0 5.210938-1.070312 7.070312-2.929688 1.859376-1.859374 2.929688-4.441406 2.929688-7.070312s-1.070312-5.210938-2.929688-7.070312c-1.859374-1.859376-4.441406-2.929688-7.070312-2.929688s-5.210938 1.070312-7.070312 2.929688c-1.859376 1.859374-2.929688 4.441406-2.929688 7.070312s1.070312 5.210938 2.929688 7.070312c1.859374 1.859376 4.441406 2.929688 7.070312 2.929688zm0 0"/><path d="m502 0-492 .00390625c-5.523438 0-10 4.47656275-10 9.99999975v48c0 5.519532 4.476562 10 10 10h44.199219c.929687 4.5625 4.964843 7.996094 9.800781 7.996094h26v95.480469l-33.070312 33.074219c-1.875 1.875-2.929688 4.417968-2.929688 7.070312v36c0 2.652344 1.054688 5.195312 2.929688 7.070312l8.207031 8.207032c3.90625 3.90625 10.238281 3.90625 14.144531 0 3.90625-3.902344 3.90625-10.234375 0-14.140625l-5.28125-5.28125v-27.714844l26-26 26 26v27.714844l-5.320312 5.324219c-3.90625 3.902343-3.90625 10.234374 0 14.140624 1.953124 1.953126 4.511718 2.929688 7.070312 2.929688s5.117188-.976562 7.070312-2.929688l8.25-8.25c1.875-1.875 2.929688-4.417968 2.929688-7.070312v-36c0-2.652344-1.054688-5.195312-2.929688-7.070312l-33.070312-33.074219v-95.480469h26c4.835938 0 8.871094-3.4375 9.800781-8h255.867188c5.519531 0 10-4.476562 10-10s-4.480469-10-10-10h-255.667969v-28h346v28h-17.667969c-5.519531 0-10 4.476562-10 10s4.480469 10 10 10h27.667969c5.523438 0 10-4.476562 10-10v-48c0-5.523438-4.476562-10-10-10zm-482 20.003906h34v28h-34zm54-.003906h52v36h-52zm0 0"/><path d="m437.078125 68c2.640625 0 5.210937-1.070312 7.082031-2.929688 1.859375-1.859374 2.929688-4.441406 2.929688-7.070312s-1.070313-5.210938-2.929688-7.070312c-1.871094-1.859376-4.441406-2.929688-7.082031-2.929688-2.628906 0-5.199219 1.070312-7.058594 2.929688-1.871093 1.859374-2.929687 4.441406-2.929687 7.070312s1.058594 5.210938 2.929687 7.070312c1.859375 1.859376 4.429688 2.929688 7.058594 2.929688zm0 0"/><path d="m107.070312 45.070312c1.859376-1.859374 2.929688-4.429687 2.929688-7.070312 0-2.628906-1.070312-5.210938-2.929688-7.070312-1.859374-1.859376-4.441406-2.929688-7.070312-2.929688s-5.210938 1.070312-7.070312 2.929688c-1.859376 1.859374-2.929688 4.441406-2.929688 7.070312s1.070312 5.210938 2.929688 7.070312c1.859374 1.859376 4.441406 2.929688 7.070312 2.929688s5.210938-1.070312 7.070312-2.929688zm0 0"/><path d="m462 121.625c-11.355469 0-21.835938 3.8125-30.238281 10.214844-.667969-.140625-1.359375-.214844-2.066407-.214844h-123.445312c-14.21875 0-26.71875 7.464844-33.8125 18.671875-.144531.207031-.277344.417969-.40625.632813-1.078125 1.777343-2.011719 3.644531-2.808594 5.585937l-27.363281 55.183594h-22.214844c-2.652343 0-5.195312 1.054687-7.070312 2.929687l-16.292969 16.292969c-3.902344 3.902344-3.902344 10.234375 0 14.140625 1.953125 1.953125 4.515625 2.929688 7.074219 2.929688 2.558593 0 5.117187-.976563 7.070312-2.929688l13.359375-13.363281h20.132813l22.332031 22.332031v17.445312l-10.707031 10.703126c-3.90625 3.90625-3.90625 10.238281 0 14.144531 1.953125 1.953125 4.511719 2.929687 7.070312 2.929687 2.558594 0 5.117188-.980468 7.070313-2.929687l13.636718-13.636719c1.875-1.875 2.929688-4.417969 2.929688-7.070312v-21.949219l37.09375-42.042969h88.65625v130.375h-254v-46c0-5.523438-4.476562-10-10-10h-96c-5.523438 0-10 4.476562-10 10v48.261719c-24.222656 6.964843-42 29.308593-42 55.738281 0 30.636719 23.878906 55.78125 54 57.847656v44.152344c0 5.523438 4.476562 10 10 10h56c5.523438 0 10-4.476562 10-10v-44h213c5.523438 0 10-4.476562 10-10s-4.476562-10-10-10h-43.238281c8.855469-10.1875 14.238281-23.472656 14.238281-38s-5.382812-27.8125-14.238281-38h112.238281v140c0 5.523438 4.476562 10 10 10h80c5.523438 0 10-4.476562 10-10v-330.375c0-27.570312-22.429688-50-50-50zm-360.238281 316.375c8.855469-10.1875 14.238281-23.472656 14.238281-38s-5.382812-27.8125-14.238281-38h110.476562c-8.855469 10.1875-14.238281 23.472656-14.238281 38s5.382812 27.8125 14.238281 38zm-39.761719-132h76v36h-76zm-42 94c0-20.953125 17.046875-38 38-38s38 17.046875 38 38-17.046875 38-38 38-38-17.046875-38-38zm90 92h-36v-34h36zm184-92c0 20.953125-17.046875 38-38 38s-38-17.046875-38-38 17.046875-38 38-38 38 17.046875 38 38zm168-258.375c16.542969 0 30 13.457031 30 30s-13.457031 30-30 30-30-13.457031-30-30 13.457031-30 30-30zm-155.75 10c11.027344 0 20 8.972656 20 20s-8.972656 20-20 20-20-8.972656-20-20c0-2.507812.484375-4.898438 1.328125-7.109375l1.683594-3.394531c3.53125-5.6875 9.8125-9.496094 16.988281-9.496094zm-33.226562 42.246094c5.628906 8.378906 14.34375 14.515625 24.503906 16.785156l-21.734375 24.632812-15.582031-15.582031zm67.84375-2.246094c3.417968-5.886719 5.382812-12.71875 5.382812-20s-1.964844-14.113281-5.382812-20h75.320312c-2.6875 6.128906-4.1875 12.890625-4.1875 20v20zm91.132812 300.375v-280.402344c8.363281 6.292969 18.753906 10.027344 30 10.027344s21.636719-3.734375 30-10.027344v280.402344zm0 0"/><path d="m462 181.621094c2.628906 0 5.210938-1.0625 7.070312-2.921875 1.859376-1.871094 2.929688-4.4375 2.929688-7.078125 0-2.632813-1.070312-5.199219-2.929688-7.070313-1.859374-1.859375-4.441406-2.929687-7.070312-2.929687s-5.210938 1.070312-7.070312 2.929687c-1.859376 1.859375-2.929688 4.4375-2.929688 7.070313 0 2.640625 1.070312 5.21875 2.929688 7.078125 1.859374 1.859375 4.441406 2.921875 7.070312 2.921875zm0 0"/><path d="m306.25 181.628906c2.628906 0 5.210938-1.070312 7.070312-2.929687 1.859376-1.871094 2.929688-4.4375 2.929688-7.070313 0-2.640625-1.070312-5.207031-2.929688-7.078125-1.859374-1.859375-4.441406-2.921875-7.070312-2.921875s-5.210938 1.0625-7.070312 2.921875c-1.859376 1.859375-2.929688 4.4375-2.929688 7.078125 0 2.632813 1.070312 5.210938 2.929688 7.070313 1.859374 1.859375 4.441406 2.929687 7.070312 2.929687zm0 0"/></svg>