<svg height="512pt" viewBox="0 -8 512.00118 512" width="512pt" xmlns="http://www.w3.org/2000/svg"><path d="m509.089844 290.96875-50.710938-50.953125v-47.734375c0-.4375-.039062-.863281-.09375-1.289062 12.648438-17.195313 11.199219-41.578126-4.34375-57.125l-118.207031-118.203126c-.019531-.019531-.039063-.035156-.058594-.054687-10.121093-10.066406-23.546875-15.609375-37.828125-15.609375-14.332031 0-27.804687 5.582031-37.9375 15.714844l-144.632812 144.632812c-.300782.300782-.570313.621094-.824219.945313-31.175781 5.089843-55.121094 31.917969-55.738281 64.363281l-34.226563 147.933594c-14.179687 4.476562-24.488281 17.746094-24.488281 33.382812v79c0 5.359375 4.214844 9.71875 9.507812 9.976563.117188.015625.265626.023437.492188.023437h405c5.523438 0 10-4.476562 10-10 0-5.519531-4.476562-10-10-10h-164.714844v-69c0-15.585937-10.246094-28.820312-24.351562-33.339844l-32.355469-139.832031 117.964844-117.964843 75.996093 75.996093c-.003906.152344-.019531.300781-.019531.449219v47.734375l-50.710937 50.953125c-3.109375 3.125-3.808594 7.917969-1.714844 11.796875l24.769531 45.976563c1.808594 3.355468 5.253907 5.257812 8.8125 5.257812 1.601563 0 3.226563-.382812 4.734375-1.195312 4.863282-2.621094 6.679688-8.6875 4.0625-13.546876l-21.25-39.441406 45.550782-45.773437h42.351562l45.554688 45.773437-21.25 39.441406c-2.621094 4.859376-.804688 10.925782 4.058593 13.546876 1.507813.8125 3.132813 1.195312 4.734375 1.195312 3.558594 0 7.007813-1.902344 8.8125-5.257812l24.773438-45.976563c2.085937-3.878906 1.386718-8.671875-1.71875-11.796875zm-101.570313-84.785156c4.839844 1.796875 10.011719 2.746094 15.328125 2.746094 5.390625 0 10.632813-.976563 15.53125-2.820313v27.933594h-30.859375zm-266.042969-43.75 103.324219-103.324219c1.234375 11.765625 6.34375 23.203125 15.339844 32.199219 8.78125 8.78125 20.078125 14.128906 32.265625 15.382812l-102.96875 102.964844c-6.234375-23.148438-24.667969-41.34375-47.960938-47.222656zm180.167969-132.574219c6.355469 6.355469 9.859375 14.804687 9.859375 23.792969 0 8.386718-3.050781 16.304687-8.621094 22.492187-.425781.304688-.835937.640625-1.21875 1.023438-6.328124 6.328125-14.742187 9.8125-23.691406 9.8125-8.945312 0-17.359375-3.484375-23.6875-9.8125-13.0625-13.0625-13.0625-34.320313 0-47.382813.289063-.289062.550782-.59375.796875-.910156 6.226563-5.730469 14.253907-8.875 22.769531-8.875 8.988282 0 17.4375 3.5 23.792969 9.859375zm-196.441406 150.554687c25.652344 0 46.523437 20.867188 46.523437 46.523438 0 25.648438-20.871093 46.519531-46.523437 46.519531s-46.519531-20.871093-46.519531-46.519531c0-25.65625 20.867187-46.523438 46.519531-46.523438zm105.082031 295.558594h-210.285156v-69c0-8.269531 6.730469-15 15-15h180.285156c8.273438 0 15 6.730469 15 15zm-184.894531-104 24.886719-107.5625c11.992187 17.523438 32.136718 29.046875 54.925781 29.046875 22.792969 0 42.9375-11.527343 54.929687-29.050781l24.886719 107.566406zm290.394531-280.378906c9.007813-9.007812 14.125-20.445312 15.375-32.21875l88.636719 88.632812c9.347656 9.347657 9.347656 24.554688 0 33.898438-4.527344 4.527344-10.546875 7.023438-16.949219 7.023438s-12.421875-2.496094-16.949218-7.023438l-80.210938-80.210938zm0 0"/><path d="m125.199219 236.933594c2.640625 0 5.210937-1.070313 7.070312-2.929688 1.871094-1.859375 2.929688-4.4375 2.929688-7.070312 0-2.628906-1.058594-5.210938-2.929688-7.070313-1.859375-1.859375-4.429687-2.929687-7.070312-2.929687-2.628907 0-5.210938 1.070312-7.070313 2.929687s-2.929687 4.441407-2.929687 7.070313c0 2.632812 1.070312 5.210937 2.929687 7.070312 1.863282 1.859375 4.441406 2.929688 7.070313 2.929688zm0 0"/><path d="m290.898438 60.542969c1.859374 1.871093 4.441406 2.929687 7.070312 2.929687 2.640625 0 5.210938-1.058594 7.070312-2.929687 1.871094-1.859375 2.9375-4.4375 2.9375-7.070313 0-2.628906-1.066406-5.207031-2.9375-7.066406-1.859374-1.863281-4.429687-2.933594-7.070312-2.933594-2.628906 0-5.210938 1.070313-7.070312 2.933594-1.859376 1.859375-2.929688 4.4375-2.929688 7.066406 0 2.632813 1.070312 5.210938 2.929688 7.070313zm0 0"/><path d="m147.3125 423.972656h-44.335938c-5.523437 0-10 4.480469-10 10 0 5.523438 4.476563 10 10 10h44.335938c5.523438 0 10-4.476562 10-10 0-5.519531-4.476562-10-10-10zm0 0"/><path d="m56.160156 423.972656c-2.640625 0-5.210937 1.070313-7.082031 2.933594-1.859375 1.859375-2.917969 4.4375-2.917969 7.066406 0 2.632813 1.058594 5.210938 2.917969 7.070313 1.871094 1.863281 4.441406 2.929687 7.082031 2.929687 2.628906 0 5.210938-1.066406 7.070313-2.929687 1.859375-1.859375 2.929687-4.4375 2.929687-7.070313 0-2.628906-1.070312-5.207031-2.929687-7.066406-1.859375-1.863281-4.441407-2.933594-7.070313-2.933594zm0 0"/><path d="m194.128906 423.972656c-2.628906 0-5.207031 1.070313-7.070312 2.933594-1.859375 1.859375-2.929688 4.4375-2.929688 7.066406 0 2.632813 1.070313 5.210938 2.929688 7.070313 1.863281 1.863281 4.441406 2.929687 7.070312 2.929687 2.632813 0 5.210938-1.066406 7.070313-2.929687 1.859375-1.859375 2.929687-4.4375 2.929687-7.070313 0-2.628906-1.070312-5.207031-2.929687-7.066406-1.859375-1.863281-4.4375-2.933594-7.070313-2.933594zm0 0"/><path d="m422.800781 175.003906c2.640625 0 5.210938-1.070312 7.070313-2.929687s2.929687-4.441407 2.929687-7.070313-1.070312-5.210937-2.929687-7.070312-4.433594-2.929688-7.070313-2.929688c-2.628906 0-5.210937 1.070313-7.070312 2.929688s-2.929688 4.441406-2.929688 7.070312 1.070313 5.210938 2.929688 7.070313 4.441406 2.929687 7.070312 2.929687zm0 0"/><path d="m456.820312 475.972656c-2.640624 0-5.210937 1.070313-7.070312 2.933594-1.871094 1.859375-2.929688 4.4375-2.929688 7.066406 0 2.632813 1.058594 5.210938 2.929688 7.070313 1.859375 1.863281 4.4375 2.929687 7.070312 2.929687 2.628907 0 5.207032-1.066406 7.070313-2.929687 1.859375-1.859375 2.929687-4.4375 2.929687-7.070313 0-2.628906-1.070312-5.207031-2.929687-7.066406-1.863281-1.863281-4.441406-2.933594-7.070313-2.933594zm0 0"/></svg>