<svg height="512pt" viewBox="0 0 512 512" width="512pt" xmlns="http://www.w3.org/2000/svg"><path d="m502 202h-36.851562c-5.046876-19.59375-12.789063-38.265625-23.089844-55.6875l26.074218-26.078125c3.902344-3.902344 3.902344-10.234375 0-14.140625l-62.226562-62.226562c-3.90625-3.90625-10.238281-3.90625-14.144531 0l-26.074219 26.074218c-17.421875-10.300781-36.09375-18.046875-55.6875-23.089844v-36.851562c0-5.523438-4.476562-10-10-10h-88c-5.523438 0-10 4.476562-10 10v36.785156c-19.625 5.027344-38.328125 12.761719-55.785156 23.0625l-25.980469-25.980468c-1.875-1.875-4.417969-2.925782-7.070313-2.925782-2.652343 0-5.195312 1.050782-7.070312 2.925782l-62.226562 62.226562c-3.902344 3.90625-3.902344 10.238281 0 14.144531l25.917968 25.917969c-10.351562 17.46875-18.128906 36.195312-23.1875 55.84375h-36.597656c-5.523438 0-10 4.476562-10 10v88c0 2.324219.800781 4.460938 2.132812 6.15625-1.375 3.691406-2.132812 7.679688-2.132812 11.84375v160c0 18.746094 15.253906 34 34 34h266c5.523438 0 10-4.476562 10-10v-36.597656c19.648438-5.058594 38.375-12.835938 55.847656-23.1875l25.917969 25.917968c3.90625 3.902344 10.238281 3.902344 14.140625 0l62.226562-62.226562c1.875-1.875 2.929688-4.417969 2.929688-7.070312 0-2.652344-1.054688-5.195313-2.929688-7.070313l-25.976562-25.980469c10.300781-17.457031 18.03125-36.15625 23.0625-55.785156h36.78125c5.523438 0 10-4.476562 10-10v-88c0-5.523438-4.476562-10-10-10zm-290 290h-178c-7.71875 0-14-6.28125-14-14v-160c0-7.71875 6.28125-14 14-14h198c7.71875 0 14 6.28125 14 14v160c0 7.71875-6.28125 14-14 14zm-6-236c0-27.570312 22.429688-50 50-50s50 22.429688 50 50c0 24.992188-18.433594 45.761719-42.421875 49.425781-5.007813-12.539062-17.269531-21.425781-31.578125-21.425781h-17.421875c-5.617187-8.273438-8.578125-17.894531-8.578125-28zm286 34h-34.695312c-4.707032 0-8.777344 3.28125-9.773438 7.882812-4.941406 22.804688-13.84375 44.335938-26.453125 63.988282-2.535156 3.957031-1.976563 9.148437 1.347656 12.472656l24.492188 24.492188-48.082031 48.082031-24.441407-24.441407c-3.328125-3.328124-8.527343-3.882812-12.484375-1.335937-19.667968 12.667969-41.214844 21.613281-64.042968 26.59375-4.589844 1-7.867188 5.066406-7.867188 9.769531v34.496094h-27.027344c1.9375-4.273438 3.027344-9.011719 3.027344-14v-74.664062c76.785156-5.160157 137.679688-69.265626 137.679688-147.335938 0-32.875-10.570313-63.992188-30.570313-89.984375-19.367187-25.167969-46.78125-43.71875-77.199219-52.238281-5.316406-1.488282-10.835937 1.613281-12.324218 6.933594-1.492188 5.316406 1.613281 10.835937 6.929687 12.324218 54.855469 15.363282 93.167969 65.929688 93.167969 122.964844 0 67.039062-51.933594 122.175781-117.683594 127.292969v-58.019531c33.878906-4.867188 60-34.070313 60-69.273438 0-38.597656-31.402344-70-70-70s-70 31.402344-70 70c0 9.789062 1.988281 19.257812 5.816406 28h-60.402344c-2.042968-9.148438-3.09375-18.535156-3.09375-28 0-57.035156 38.308594-107.597656 93.160157-122.960938 5.320312-1.492187 8.421875-7.007812 6.933593-12.328124-1.488281-5.320313-7.007812-8.421876-12.328124-6.933594-30.414063 8.523437-57.832032 27.074218-77.195313 52.238281-20 25.992187-30.570313 57.109375-30.570313 89.984375 0 9.433594.90625 18.808594 2.671876 28h-76.992188c-4.988281 0-9.726562 1.089844-14 3.027344v-65.027344h34.496094c4.703125 0 8.769531-3.273438 9.769531-7.867188 4.980469-22.828124 13.925781-44.375 26.59375-64.042968 2.546875-3.957032 1.992187-9.15625-1.335937-12.484375l-24.441407-24.441407 48.082031-48.082031 24.492188 24.492188c3.324219 3.324219 8.515625 3.886719 12.472656 1.347656 19.652344-12.609375 41.183594-21.507813 63.988282-26.453125 4.601562-.996094 7.882812-5.066406 7.882812-9.773438v-34.695312h68v34.75c0 4.703125 3.273438 8.769531 7.867188 9.769531 22.777343 4.96875 44.273437 13.882813 63.898437 26.496094 3.957031 2.542969 9.152344 1.984375 12.476563-1.339844l24.59375-24.59375 48.082031 48.082031-24.59375 24.59375c-3.324219 3.328126-3.882813 8.519532-1.339844 12.476563 12.613281 19.625 21.527344 41.121094 26.496094 63.898437 1 4.589844 5.066406 7.867188 9.769531 7.867188h34.75zm0 0"/><path d="m256.527344 108.320312h-.527344c-5.523438 0-10 4.476563-10 10 0 5.523438 4.476562 10 10 10h.472656.027344c5.511719 0 9.984375-4.457031 10-9.972656.015625-5.523437-4.449219-10.011718-9.972656-10.027344zm0 0"/><path d="m213.5 344h-30.902344c-4.125-11.640625-15.242187-20-28.277344-20h-16c-13.039062 0-24.152343 8.359375-28.28125 20h-55.539062c-5.523438 0-10 4.476562-10 10s4.476562 10 10 10h55.539062c4.128907 11.640625 15.242188 20 28.28125 20h16c13.035157 0 24.152344-8.359375 28.277344-20h30.902344c5.523438 0 10-4.476562 10-10s-4.476562-10-10-10zm-59.179688 20h-16c-5.515624 0-10-4.484375-10-10s4.484376-10 10-10h16c5.511719 0 10 4.484375 10 10s-4.488281 10-10 10zm0 0"/><path d="m213.5 424h-66.886719c-4.128906-11.640625-15.242187-20-28.28125-20h-16c-13.035156 0-24.152343 8.359375-28.277343 20h-19.554688c-5.523438 0-10 4.476562-10 10s4.476562 10 10 10h19.554688c4.128906 11.640625 15.242187 20 28.28125 20h16c13.035156 0 24.148437-8.359375 28.277343-20h66.886719c5.523438 0 10-4.476562 10-10s-4.476562-10-10-10zm-95.167969 20h-16c-5.511719 0-10-4.484375-10-10s4.488281-10 10-10h16c5.515625 0 10 4.484375 10 10s-4.484375 10-10 10zm0 0"/></svg>