<svg height="512pt" viewBox="0 0 512 512" width="512pt" xmlns="http://www.w3.org/2000/svg"><path d="m163.671875 438c-2.632813 0-5.210937 1.070312-7.070313 2.929688-1.859374 1.859374-2.929687 4.441406-2.929687 7.070312s1.066406 5.210938 2.929687 7.070312c1.859376 1.859376 4.4375 2.929688 7.070313 2.929688 2.636719 0 5.207031-1.070312 7.066406-2.929688 1.859375-1.859374 2.933594-4.441406 2.933594-7.070312s-1.070313-5.210938-2.933594-7.070312c-1.859375-1.859376-4.429687-2.929688-7.066406-2.929688zm0 0"/><path d="m364.25 246c-2.628906 0-5.210938 1.070312-7.070312 2.929688-1.859376 1.859374-2.929688 4.441406-2.929688 7.070312s1.070312 5.210938 2.929688 7.070312c1.859374 1.859376 4.441406 2.929688 7.070312 2.929688s5.210938-1.070312 7.070312-2.929688c1.859376-1.859374 2.929688-4.441406 2.929688-7.070312s-1.070312-5.210938-2.929688-7.070312c-1.859374-1.859376-4.441406-2.929688-7.070312-2.929688zm0 0"/><path d="m502 0h-48c-5.523438 0-10 4.476562-10 10v196h-33.746094v-86c0-5.523438-4.476562-10-10-10h-38.0625v-86c0-5.523438-4.480468-10-10-10h-96c-.023437 0-.042968.003906-.0625.003906-.023437 0-.042968-.003906-.066406-.003906h-96c-5.519531 0-10 4.476562-10 10v86h-38.0625c-5.523438 0-10 4.476562-10 10v86h-34v-196c0-5.523438-4.476562-10-10-10h-48c-5.523438 0-10 4.476562-10 10v492c0 5.523438 4.476562 10 10 10h48c5.523438 0 10-4.476562 10-10v-44h60c5.523438 0 10-4.476562 10-10s-4.476562-10-10-10h-60v-20h376v20h-243.5c-5.523438 0-10 4.476562-10 10s4.476562 10 10 10h243.5v44c0 5.523438 4.476562 10 10 10h48c5.523438 0 10-4.476562 10-10v-492c0-5.523438-4.476562-10-10-10zm-111.746094 170h-26c-5.523437 0-10 4.476562-10 10s4.476563 10 10 10h26v16h-76v-76h76zm-172.125-40h76v40h-26c-5.523437 0-10 4.476562-10 10s4.476563 10 10 10h26v16h-76zm48.0625-96h76v40h-26c-5.523437 0-10 4.476562-10 10s4.476563 10 10 10h26v16h-76zm-96.128906 0h76v40h-26c-5.523438 0-10 4.476562-10 10s4.476562 10 10 10h26v16h-76zm-48.0625 96h76v40h-26c-5.523438 0-10 4.476562-10 10s4.476562 10 10 10h26v16h-76zm-74 362h-28v-472h28zm74-94v-76h76v40h-26c-5.523438 0-10 4.476562-10 10s4.476562 10 10 10h26v16zm96.128906 0v-76h76v40h-26c-5.523437 0-10 4.476562-10 10s4.476563 10 10 10h26v16zm96.125 0v-76h76v40h-26c-5.523437 0-10 4.476562-10 10s4.476563 10 10 10h26v16zm96 0v-86c0-5.523438-4.476562-10-10-10h-96c-.019531 0-.042968.003906-.0625.003906-.019531 0-.042968-.003906-.0625-.003906h-96c-.023437 0-.042968.003906-.0625.003906-.023437 0-.042968-.003906-.0625-.003906h-96c-5.523437 0-10 4.476562-10 10v86h-34.003906v-132h252c5.523438 0 10-4.476562 10-10s-4.476562-10-10-10h-252v-20h376v20h-38.332031c-5.519531 0-10 4.476562-10 10s4.480469 10 10 10h38.332031v132zm81.746094 94h-28v-472h28zm0 0"/></svg>