<svg height="512pt" viewBox="0 -47 512 512" width="512pt" xmlns="http://www.w3.org/2000/svg"><path d="m365.671875 398c-2.632813 0-5.210937 1.070312-7.070313 2.929688-1.871093 1.859374-2.929687 4.441406-2.929687 7.070312s1.058594 5.210938 2.929687 7.070312c1.859376 1.859376 4.4375 2.929688 7.070313 2.929688 2.628906 0 5.199219-1.070312 7.066406-2.929688 1.863281-1.859374 2.933594-4.441406 2.933594-7.070312s-1.070313-5.210938-2.933594-7.070312c-1.867187-1.859376-4.4375-2.929688-7.066406-2.929688zm0 0"/><path d="m454 302h-68v-126.570312c8.914062-1.015626 17.425781-3.363282 25.332031-6.84375l46.023438 46.027343c6.046875 6.042969 14.082031 9.371094 22.628906 9.371094s16.582031-3.328125 22.628906-9.371094c12.476563-12.480469 12.476563-32.78125 0-45.257812l-46.027343-46.023438c4.761718-10.820312 7.414062-22.773437 7.414062-35.332031 0-48.523438-39.476562-88-88-88-45.140625 0-82.445312 34.167969-87.429688 78h-152.570312c-5.523438 0-10 4.476562-10 10v214h-68c-31.980469 0-58 26.019531-58 58s26.019531 58 58 58h271.667969c5.523437 0 10-4.476562 10-10s-4.476563-10-10-10h-29.90625c8.855469-10.1875 14.238281-23.472656 14.238281-38s-5.382812-27.8125-14.238281-38h110.476562c-8.855469 10.1875-14.238281 23.472656-14.238281 38s5.382812 27.8125 14.238281 38h-5.574219c-5.519531 0-10 4.476562-10 10s4.480469 10 10 10h49.335938c31.980469 0 58-26.019531 58-58s-26.019531-58-58-58zm34.46875-118.5c4.679688 4.679688 4.679688 12.292969 0 16.96875-2.265625 2.269531-5.277344 3.515625-8.484375 3.515625-3.203125 0-6.21875-1.246094-8.484375-3.515625l-42.367188-42.367188c6.394532-4.859374 12.109376-10.574218 16.96875-16.96875zm-112.46875-163.5c37.496094 0 68 30.503906 68 68s-30.503906 68-68 68-68-30.503906-68-68 30.503906-68 68-68zm-164.6875 78h77.257812c1.464844 12.863281 5.707032 24.898438 12.117188 35.480469v.019531 37.453125l-37.601562-37.757813c-1.875-1.882812-4.425782-2.945312-7.085938-2.945312s-5.210938 1.0625-7.085938 2.945312l-37.601562 37.757813zm.925781 224c-8.855469 10.1875-14.238281 23.472656-14.238281 38s5.382812 27.8125 14.238281 38h-110.476562c8.855469-10.1875 14.238281-23.472656 14.238281-38s-5.382812-27.8125-14.238281-38zm-192.238281 38c0-20.953125 17.046875-38 38-38s38 17.046875 38 38-17.046875 38-38 38-38-17.046875-38-38zm274 0c0 20.953125-17.046875 38-38 38s-38-17.046875-38-38 17.046875-38 38-38 38 17.046875 38 38zm-148-58v-204h45.3125v97.167969c0 4.050781 2.441406 7.699219 6.183594 9.242187 3.742187 1.546875 8.046875.683594 10.902344-2.183594l47.601562-47.804687 47.601562 47.804687c1.914063 1.921876 4.480469 2.941407 7.089844 2.941407 1.285156 0 2.578125-.246094 3.8125-.757813 3.742188-1.542968 6.183594-5.191406 6.183594-9.242187v-38.78125c12.679688 10.277343 28.265625 17.101562 45.3125 19.042969v126.570312zm308 96c-20.953125 0-38-17.046875-38-38s17.046875-38 38-38 38 17.046875 38 38-17.046875 38-38 38zm0 0"/><path d="m256 370c2.628906 0 5.210938-1.070312 7.070312-2.929688 1.859376-1.859374 2.929688-4.441406 2.929688-7.070312s-1.070312-5.210938-2.929688-7.070312c-1.859374-1.859376-4.441406-2.929688-7.070312-2.929688s-5.210938 1.070312-7.070312 2.929688c-1.859376 1.859374-2.929688 4.441406-2.929688 7.070312s1.070312 5.210938 2.929688 7.070312c1.859374 1.859376 4.441406 2.929688 7.070312 2.929688zm0 0"/><path d="m454 350c-2.628906 0-5.210938 1.070312-7.070312 2.929688-1.859376 1.859374-2.929688 4.441406-2.929688 7.070312s1.070312 5.210938 2.929688 7.070312c1.859374 1.859376 4.441406 2.929688 7.070312 2.929688s5.210938-1.070312 7.070312-2.929688c1.859376-1.859374 2.929688-4.441406 2.929688-7.070312s-1.070312-5.210938-2.929688-7.070312c-1.859374-1.859376-4.441406-2.929688-7.070312-2.929688zm0 0"/><path d="m65.070312 367.070312c1.859376-1.859374 2.929688-4.441406 2.929688-7.070312s-1.070312-5.210938-2.929688-7.070312c-1.859374-1.859376-4.441406-2.929688-7.070312-2.929688s-5.210938 1.070312-7.070312 2.929688c-1.859376 1.859374-2.929688 4.441406-2.929688 7.070312s1.070312 5.210938 2.929688 7.070312c1.859374 1.859376 4.441406 2.929688 7.070312 2.929688s5.210938-1.070312 7.070312-2.929688zm0 0"/><path d="m334.839844 220.667969h-52c-5.523438 0-10 4.476562-10 10 0 5.519531 4.476562 10 10 10h52c5.523437 0 10-4.480469 10-10 0-5.523438-4.476563-10-10-10zm0 0"/><path d="m334.839844 259.332031h-78.839844c-5.523438 0-10 4.480469-10 10 0 5.523438 4.476562 10 10 10h78.839844c5.523437 0 10-4.476562 10-10 0-5.519531-4.476563-10-10-10zm0 0"/><path d="m210.171875 259.328125c-2.632813 0-5.210937 1.070313-7.070313 2.933594-1.863281 1.859375-2.929687 4.4375-2.929687 7.066406 0 2.640625 1.066406 5.210937 2.929687 7.070313 1.859376 1.871093 4.4375 2.929687 7.070313 2.929687 2.628906 0 5.207031-1.058594 7.066406-2.929687 1.863281-1.859376 2.933594-4.4375 2.933594-7.070313 0-2.628906-1.070313-5.207031-2.933594-7.066406-1.859375-1.863281-4.4375-2.933594-7.066406-2.933594zm0 0"/><path d="m364.429688 108.070312c1.953124 1.953126 4.511718 2.929688 7.070312 2.929688s5.117188-.976562 7.070312-2.929688l33.25-33.25c3.90625-3.90625 3.90625-10.234374 0-14.140624s-10.234374-3.90625-14.140624 0l-26.179688 26.179687-8.429688-8.429687c-3.90625-3.90625-10.234374-3.90625-14.140624 0s-3.90625 10.234374 0 14.140624zm0 0"/></svg>