<svg height="512pt" viewBox="0 0 512 512" width="512pt" xmlns="http://www.w3.org/2000/svg"><path d="m216 286h-166c-5.523438 0-10 4.476562-10 10v166c0 5.523438 4.476562 10 10 10h166c5.523438 0 10-4.476562 10-10v-166c0-5.523438-4.476562-10-10-10zm-156 34.144531 58.855469 58.855469-58.855469 58.855469zm14.144531-14.144531h117.714844l-58.859375 58.855469zm58.855469 87.144531 58.855469 58.855469h-117.710938zm14.144531-14.144531 58.855469-58.855469v117.714844zm0 0"/><path d="m502 246h-113v-73.667969c0-5.523437-4.476562-10-10-10s-10 4.476563-10 10v73.667969h-226v-226h226v71.667969c0 5.523437 4.476562 10 10 10s10-4.476563 10-10v-81.667969c0-5.523438-4.476562-10-10-10h-246c-5.523438 0-10 4.476562-10 10v236h-113c-5.523438 0-10 4.476562-10 10v246c0 5.523438 4.476562 10 10 10h492c5.523438 0 10-4.476562 10-10v-246c0-5.523438-4.476562-10-10-10zm-482 20h226v226h-226zm472 226h-226v-226h226zm0 0"/><path d="m286 296v166c0 5.523438 4.476562 10 10 10h166c5.523438 0 10-4.476562 10-10v-166c0-5.523438-4.476562-10-10-10h-166c-5.523438 0-10 4.476562-10 10zm78.859375 83-58.859375 58.859375v-117.714844zm14.140625 14.144531 58.855469 58.855469h-117.714844zm73 44.710938-58.855469-58.855469 14.199219-14.199219c3.902344-3.902343 3.902344-10.234375 0-14.140625-3.90625-3.902344-10.238281-3.90625-14.144531 0l-14.199219 14.199219-58.855469-58.859375h131.855469zm0 0"/><path d="m425.621094 342.378906c2.632812 0 5.210937-1.070312 7.070312-2.929687 1.863282-1.859375 2.929688-4.4375 2.929688-7.070313 0-2.628906-1.066406-5.207031-2.929688-7.070312-1.859375-1.859375-4.4375-2.929688-7.070312-2.929688-2.636719 0-5.21875 1.070313-7.078125 2.929688-1.859375 1.863281-2.921875 4.441406-2.921875 7.070312 0 2.632813 1.0625 5.210938 2.921875 7.070313 1.871093 1.859375 4.441406 2.929687 7.078125 2.929687zm0 0"/><path d="m379.003906 122.871094c-2.640625 0-5.210937 1.070312-7.070312 2.929687-1.871094 1.859375-2.929688 4.4375-2.929688 7.070313 0 2.640625 1.058594 5.207031 2.929688 7.078125 1.859375 1.859375 4.429687 2.921875 7.070312 2.921875 2.628906 0 5.210938-1.0625 7.070313-2.921875 1.859375-1.871094 2.929687-4.4375 2.929687-7.078125 0-2.632813-1.070312-5.210938-2.929687-7.070313s-4.441407-2.929687-7.070313-2.929687zm0 0"/><path d="m173 40c-5.523438 0-10 4.476562-10 10v166c0 5.523438 4.476562 10 10 10h166c5.523438 0 10-4.476562 10-10v-166c0-5.523438-4.476562-10-10-10zm10 34.144531 58.855469 58.855469-58.855469 58.855469zm14.144531-14.144531h117.714844l-58.859375 58.855469zm58.855469 87.144531 58.855469 58.855469h-117.710938zm14.144531-14.144531 58.855469-58.855469v117.714844zm0 0"/></svg>