<svg height="512pt" viewBox="0 0 512 512" width="512pt" xmlns="http://www.w3.org/2000/svg"><path d="m391.671875 105.378906c2.628906 0 5.207031-1.070312 7.066406-2.929687 1.863281-1.859375 2.933594-4.4375 2.933594-7.070313 0-2.628906-1.070313-5.207031-2.933594-7.070312-1.859375-1.859375-4.4375-2.929688-7.066406-2.929688-2.640625 0-5.210937 1.070313-7.082031 2.929688-1.859375 1.863281-2.917969 4.441406-2.917969 7.070312 0 2.632813 1.058594 5.210938 2.917969 7.070313 1.871094 1.859375 4.441406 2.929687 7.082031 2.929687zm0 0"/><path d="m506.703125 192.902344-82-43.726563c-3.097656-1.652343-6.835937-1.558593-9.847656.25-3.011719 1.804688-4.855469 5.0625-4.855469 8.574219v27.0625l-67.296875-35.886719c-3.097656-1.652343-6.835937-1.558593-9.847656.25-3.011719 1.808594-4.855469 5.0625-4.855469 8.574219v27.0625l-67.296875-35.886719c-3.097656-1.652343-6.835937-1.558593-9.847656.25-3.011719 1.804688-4.855469 5.0625-4.855469 8.574219v110h-154v-110c0-5.523438-4.476562-10-10-10h-14.339844v-14.160156c0-2.394532 1.945313-4.339844 4.339844-4.339844 5.523438 0 10-4.476562 10-10s-4.476562-10-10-10c-13.421875 0-24.339844 10.917969-24.339844 24.339844v14.160156h-17.660156v-47.039062c0-19.046876 15.496094-34.542969 34.539062-34.542969h16.148438c-.609375 2.742187-.9375 5.550781-.9375 8.378906 0 21.066406 17.140625 38.203125 38.203125 38.203125h37.757813c5.523437 0 10-4.476562 10-10s-4.476563-10-10-10h-37.757813c-10.035156 0-18.203125-8.167969-18.203125-18.203125 0-5.066406 2.097656-10.027344 5.75-13.613281 3.515625-3.445313 8.058594-5.273438 12.820312-5.203125 2.644532.050781 5.183594.65625 7.542969 1.792969 2.519531 1.214843 5.429688 1.320312 8.03125.292968 2.597657-1.03125 4.648438-3.101562 5.652344-5.710937 7.4375-19.351563 26.367187-32.355469 47.101563-32.355469 20.929687 0 39.574218 13.128906 47.007812 32.148438-3.054688 1.683593-5.941406 3.675781-8.570312 5.960937-4.398438 3.820313-8.050782 8.335937-10.859376 13.421875-2.671874 4.832031-.917968 10.917969 3.917969 13.585938 1.53125.847656 3.191407 1.25 4.828125 1.25 3.519532 0 6.9375-1.863282 8.757813-5.164063 1.675781-3.027344 3.855469-5.71875 6.476562-8 3.152344-2.738281 6.90625-4.789063 10.886719-5.972656 2.699219-.800781 5.511719-1.21875 8.367188-1.21875 16.191406 0 29.367187 13.175781 29.367187 29.367187 0 5.523438 4.476563 10 10 10h54.550781c5.523438 0 10-4.476562 10-10 0-5.523437-4.476562-10-10-10h-45.566406c-4.636719-22.445312-24.554688-39.367187-48.351562-39.367187-1.558594 0-3.109376.074219-4.652344.21875-10.027344-27.289063-36.449219-46.230469-66.160156-46.230469-25.769532 0-49.539063 14.382812-61.777344 36.597656-2.019532-.367187-4.078125-.574218-6.164063-.613281-9.953125-.199219-19.378906 3.515625-26.6875 10.433594h-27.480469c-30.070312 0-54.539062 24.46875-54.539062 54.542969v47.039062c-5.523438 0-10 4.476562-10 10v344c0 5.523438 4.476562 10 10 10h492c5.523438 0 10-4.476562 10-10v-300.273438c0-3.695312-2.035156-7.085937-5.296875-8.824218zm-486.703125 15.097656h52v244h-52zm52-20h-52v-20h52zm-52 284h52v20h-52zm236 20h-164v-164h90c5.523438 0 10-4.476562 10-10s-4.476562-10-10-10h-90v-20h300v204zm236 0h-80v-214c0-5.523438-4.476562-10-10-10h-136v-93.335938l67.296875 35.886719c3.097656 1.652344 6.835937 1.554688 9.847656-.25 3.011719-1.808593 4.855469-5.0625 4.855469-8.574219v-27.0625l67.296875 35.882813c3.097656 1.65625 6.835937 1.558594 9.847656-.246094 3.011719-1.808593 4.855469-5.0625 4.855469-8.578125v-27.058594l62 33.058594zm0 0"/><path d="m170 356h-48c-5.523438 0-10 4.476562-10 10v48c0 5.523438 4.476562 10 10 10h48c5.523438 0 10-4.476562 10-10v-48c0-5.523438-4.476562-10-10-10zm-10 48h-28v-28h28zm0 0"/><path d="m266 356h-48c-5.523438 0-10 4.476562-10 10v48c0 5.523438 4.476562 10 10 10h48c5.523438 0 10-4.476562 10-10v-48c0-5.523438-4.476562-10-10-10zm-10 48h-28v-28h28zm0 0"/><path d="m362 356h-48c-5.523438 0-10 4.476562-10 10v48c0 5.523438 4.476562 10 10 10h48c5.523438 0 10-4.476562 10-10v-48c0-5.523438-4.476562-10-10-10zm-10 48h-28v-28h28zm0 0"/><path d="m219.171875 328c2.628906 0 5.207031-1.070312 7.066406-2.929688 1.863281-1.859374 2.933594-4.441406 2.933594-7.070312s-1.070313-5.210938-2.933594-7.070312c-1.859375-1.859376-4.4375-2.929688-7.066406-2.929688-2.640625 0-5.210937 1.070312-7.070313 2.929688-1.871093 1.859374-2.929687 4.441406-2.929687 7.070312s1.058594 5.210938 2.929687 7.070312c1.859376 1.859376 4.4375 2.929688 7.070313 2.929688zm0 0"/></svg>