<svg height="512pt" viewBox="0 -78 512 512" width="512pt" xmlns="http://www.w3.org/2000/svg"><path d="m512 244.003906v-89.015625c0-2.652343-1.054688-5.195312-2.929688-7.070312l-86.074218-86.058594c-3.777344-3.777344-8.796875-5.855469-14.140625-5.855469h-48.855469v-46.003906c0-5.523438-4.476562-10-10-10h-340c-5.523438 0-10 4.476562-10 10v264c0 5.523438 4.476562 10 10 10h29.414062c-5.09375 7.402344-8.082031 16.355469-8.082031 26s2.988281 18.597656 8.082031 26h-29.414062c-5.523438 0-10 4.476562-10 10s4.476562 10 10 10h200.839844c5.523437 0 10-4.476562 10-10s-4.476563-10-10-10h-23.585938c5.089844-7.402344 8.082032-16.355469 8.082032-26s-2.988282-18.597656-8.082032-26l166.824219.003906c-5.089844 7.398438-8.078125 16.355469-8.078125 25.996094 0 9.644531 2.988281 18.597656 8.078125 26h-70.632813c-5.519531 0-10 4.476562-10 10 0 5.519531 4.480469 10 10 10h108.515626.039062.035156 109.964844c5.523438 0 10-4.480469 10-10 0-5.523438-4.476562-10-10-10h-72.078125c5.089844-7.402344 8.078125-16.355469 8.078125-26 0-9.640625-2.988281-18.597656-8.078125-25.996094h42.078125c22.054688 0 40-17.945312 40-40zm-20-80.003906h-35.855469l20.359375-20.363281 15.496094 15.496093zm-29.640625-34.503906-34.46875 34.472656c-10.734375-.339844-19.363281-9.15625-19.363281-19.96875v-67.996094h.328125zm-73.832031-53.492188v67.996094c0 22.054688 17.941406 40 40 40h63.472656v20.664062h-31c-5.523438 0-10 4.480469-10 10 0 5.523438 4.476562 10 10 10h31v19.339844c0 11.027344-8.972656 20-20 20h-112v-188zm-368.527344-56.003906h320v244h-320zm31.332031 290c0-14.335938 11.664063-26 26-26 14.335938 0 26 11.664062 26 26s-11.664062 26-26 26c-14.335937 0-26-11.664062-26-26zm124 0c0 14.335938-11.664062 26-26 26-14.335937 0-26-11.664062-26-26s11.664063-26 26-26c14.335938 0 26 11.664062 26 26zm242.667969 0c0 14.324219-11.644531 25.976562-25.960938 26h-.078124c-14.316407-.023438-25.960938-11.675781-25.960938-26 0-14.296875 11.601562-25.933594 25.886719-25.996094h.230469c14.28125.0625 25.882812 11.699219 25.882812 25.996094zm0 0"/><path d="m249.5 336h-.128906c-5.523438 0-10 4.476562-10 10s4.476562 10 10 10h.128906c5.523438 0 10-4.476562 10-10s-4.476562-10-10-10zm0 0"/><path d="m426.46875 224.671875c2.632812 0 5.210938-1.070313 7.070312-2.933594 1.859376-1.859375 2.929688-4.4375 2.929688-7.066406 0-2.640625-1.070312-5.222656-2.929688-7.082031-1.859374-1.859375-4.4375-2.917969-7.070312-2.917969-2.628906 0-5.207031 1.058594-7.070312 2.917969-1.859376 1.871094-2.929688 4.441406-2.929688 7.082031 0 2.628906 1.070312 5.199219 2.929688 7.066406 1.863281 1.863281 4.441406 2.933594 7.070312 2.933594zm0 0"/><path d="m256 228c5.523438 0 10-4.476562 10-10v-152c0-5.523438-4.476562-10-10-10h-152c-5.523438 0-10 4.476562-10 10v66h-18.832031c-5.523438 0-10 4.476562-10 10s4.476562 10 10 10h18.832031v56h-46c-5.523438 0-10 4.476562-10 10s4.476562 10 10 10zm-62-152v30.09375l-6.980469-6.878906c-1.945312-1.921875-4.484375-2.878906-7.019531-2.878906s-5.074219.957031-7.019531 2.878906l-6.980469 6.878906v-30.09375zm-80 0h32v54c0 4.03125 2.421875 7.667969 6.140625 9.226562 3.722656 1.554688 8.011719.726563 10.882813-2.105468l16.976562-16.742188 16.980469 16.742188c1.90625 1.882812 4.445312 2.878906 7.023437 2.878906 1.296875 0 2.609375-.253906 3.855469-.773438 3.71875-1.554687 6.140625-5.195312 6.140625-9.226562v-54h32v132h-132zm0 0"/><path d="m196.75 188h28c5.523438 0 10-4.476562 10-10s-4.476562-10-10-10h-28c-5.523438 0-10 4.476562-10 10s4.476562 10 10 10zm0 0"/></svg>