<svg height="512pt" viewBox="0 0 512 512" width="512pt" xmlns="http://www.w3.org/2000/svg"><path d="m512 406c0-5.523438-4.476562-10-10-10h-344v-86c0-5.523438-4.476562-10-10-10h-96c-5.523438 0-10 4.476562-10 10v86h-32c-5.523438 0-10 4.476562-10 10s4.476562 10 10 10h4.238281c-8.855469 10.1875-14.238281 23.472656-14.238281 38s5.382812 27.8125 14.238281 38h-4.238281c-5.523438 0-10 4.476562-10 10s4.476562 10 10 10h492c5.523438 0 10-4.476562 10-10s-4.476562-10-10-10h-4.238281c8.855469-10.1875 14.238281-23.472656 14.238281-38s-5.382812-27.8125-14.238281-38h4.238281c5.523438 0 10-4.476562 10-10zm-435.855469-10 23.855469-23.859375 23.855469 23.859375zm61.855469-14.144531-23.855469-23.855469 23.855469-23.859375zm-38-38-23.855469-23.855469h47.714844zm-14.144531 14.144531-23.855469 23.855469v-47.714844zm62.144531 58h64.238281c-8.855469 10.1875-14.238281 23.472656-14.238281 38s5.382812 27.8125 14.238281 38h-110.476562c8.855469-10.1875 14.238281-23.472656 14.238281-38s-5.382812-27.8125-14.238281-38zm70 38c0-20.953125 17.046875-38 38-38s38 17.046875 38 38-17.046875 38-38 38-38-17.046875-38-38zm81.761719-38h110.476562c-8.855469 10.1875-14.238281 23.472656-14.238281 38s5.382812 27.8125 14.238281 38h-110.476562c8.855469-10.1875 14.238281-23.472656 14.238281-38s-5.382812-27.8125-14.238281-38zm-279.761719 38c0-20.953125 17.046875-38 38-38s38 17.046875 38 38-17.046875 38-38 38-38-17.046875-38-38zm472 0c0 20.953125-17.046875 38-38 38s-38-17.046875-38-38 17.046875-38 38-38 38 17.046875 38 38zm0 0"/><path d="m256 444c-2.628906 0-5.210938 1.070312-7.070312 2.929688-1.859376 1.859374-2.929688 4.441406-2.929688 7.070312s1.070312 5.210938 2.929688 7.070312c1.859374 1.859376 4.441406 2.929688 7.070312 2.929688s5.210938-1.070312 7.070312-2.929688c1.859376-1.859374 2.929688-4.441406 2.929688-7.070312s-1.070312-5.210938-2.929688-7.070312c-1.859374-1.859376-4.441406-2.929688-7.070312-2.929688zm0 0"/><path d="m454 464c2.628906 0 5.210938-1.070312 7.070312-2.929688 1.859376-1.859374 2.929688-4.441406 2.929688-7.070312s-1.070312-5.210938-2.929688-7.070312c-1.859374-1.859376-4.441406-2.929688-7.070312-2.929688s-5.210938 1.070312-7.070312 2.929688c-1.859376 1.859374-2.929688 4.441406-2.929688 7.070312s1.070312 5.210938 2.929688 7.070312c1.859374 1.859376 4.441406 2.929688 7.070312 2.929688zm0 0"/><path d="m58 444c-2.628906 0-5.210938 1.070312-7.070312 2.929688-1.859376 1.859374-2.929688 4.441406-2.929688 7.070312s1.070312 5.210938 2.929688 7.070312c1.859374 1.859376 4.441406 2.929688 7.070312 2.929688s5.210938-1.070312 7.070312-2.929688c1.859376-1.859374 2.929688-4.441406 2.929688-7.070312s-1.070312-5.210938-2.929688-7.070312c-1.859374-1.859376-4.441406-2.929688-7.070312-2.929688zm0 0"/><path d="m263.199219 65.070312c1.859375-1.859374 2.929687-4.441406 2.929687-7.070312 0-2.632812-1.070312-5.210938-2.929687-7.070312-1.859375-1.859376-4.4375-2.929688-7.070313-2.929688-2.640625 0-5.207031 1.070312-7.070312 2.929688-1.867188 1.859374-2.929688 4.4375-2.929688 7.070312 0 2.628906 1.0625 5.210938 2.929688 7.070312 1.863281 1.859376 4.429687 2.929688 7.070312 2.929688 2.632813 0 5.210938-1.070312 7.070313-2.929688zm0 0"/><path d="m100 28c-2.628906 0-5.210938 1.070312-7.070312 2.929688-1.859376 1.859374-2.929688 4.4375-2.929688 7.070312 0 2.628906 1.070312 5.210938 2.929688 7.070312 1.859374 1.859376 4.441406 2.929688 7.070312 2.929688s5.210938-1.070312 7.070312-2.929688c1.859376-1.859374 2.929688-4.441406 2.929688-7.070312s-1.070312-5.210938-2.929688-7.070312c-1.859374-1.859376-4.441406-2.929688-7.070312-2.929688zm0 0"/><path d="m502 0h-492c-5.523438 0-10 4.476562-10 10v48c0 5.523438 4.476562 10 10 10h44.199219c.929687 4.566406 4.964843 8 9.800781 8h26v49.023438l-74.617188 56.414062c-2.5 1.890625-3.96875 4.84375-3.96875 7.976562v72.921876c0 5.519531 4.476563 10 10 10 5.523438 0 10-4.480469 10-10v-67.945313l68.585938-51.855469 68.585938 51.855469v67.941406c0 5.523438 4.476562 10 10 10 5.523437 0 10-4.476562 10-10v-72.917969c0-3.132812-1.46875-6.085937-3.96875-7.976562l-74.617188-56.414062v-49.023438h26c4.839844 0 8.871094-3.433594 9.800781-8h70.53125c5.523438 0 10-4.476562 10-10s-4.476562-10-10-10h-70.332031v-28h222.171875v28h-71.171875c-5.523438 0-10 4.476562-10 10s4.476562 10 10 10h71.371094c.925781 4.5625 4.960937 8 9.800781 8h26v49.023438l-74.617187 56.414062c-2.5 1.890625-3.96875 4.84375-3.96875 7.976562v65.585938c0 3.988281 2.367187 7.59375 6.027343 9.179688l24.558594 10.625v23.195312c0 5.523438 4.476563 10 10 10h96c5.519531 0 10-4.476562 10-10v-23.070312l24.59375-10.769532c3.640625-1.59375 5.992187-5.1875 5.992187-9.160156v-65.585938c0-3.132812-1.472656-6.085937-3.972656-7.976562l-74.613281-56.414062v-49.023438h26c4.835937 0 8.871094-3.433594 9.796875-8h42.03125c5.523438 0 10-4.476562 10-10v-48c0-5.523438-4.476562-10-10-10zm-125.828125 226.140625 23.855469 23.859375-23.855469 23.855469zm38 38 23.855469 23.859375h-47.714844zm14.140625-14.140625 23.859375-23.855469v47.714844zm-14.140625-14.144531-23.859375-23.855469h47.714844zm68.585937 12.605469-10.585937 4.636718v-51.097656c0-5.523438-4.476563-10-10-10h-96c-5.523437 0-10 4.476562-10 10v51.011719l-10.585937-4.582031v-54.039063l68.585937-51.855469 68.585937 51.855469zm-42.585937-192.460938h-52v-36h52zm-420.171875-36h34v28h-34zm54 0h52v36h-52zm418 28h-31.828125v-28h31.828125zm0 0"/><path d="m407.101562 45.070312c1.859376 1.859376 4.4375 2.929688 7.070313 2.929688 2.628906 0 5.207031-1.070312 7.066406-2.929688 1.863281-1.859374 2.933594-4.441406 2.933594-7.070312 0-2.632812-1.070313-5.210938-2.933594-7.070312-1.859375-1.859376-4.4375-2.929688-7.066406-2.929688-2.632813 0-5.210937 1.070312-7.070313 2.929688-1.863281 1.859374-2.929687 4.4375-2.929687 7.070312 0 2.628906 1.066406 5.210938 2.929687 7.070312zm0 0"/><path d="m235.402344 294.496094c0 5.523437 4.476562 10 10 10h83.003906c5.523438 0 10-4.476563 10-10 0-5.523438-4.476562-10-10-10h-83.003906c-5.523438 0-10 4.476562-10 10zm0 0"/><path d="m203.898438 284.5c-2.628907 0-5.207032 1.058594-7.070313 2.929688-1.859375 1.859374-2.929687 4.429687-2.929687 7.070312 0 2.628906 1.070312 5.199219 2.929687 7.070312 1.863281 1.859376 4.441406 2.929688 7.070313 2.929688 2.632812 0 5.210937-1.070312 7.070312-2.929688 1.859375-1.871093 2.929688-4.441406 2.929688-7.070312 0-2.640625-1.070313-5.210938-2.929688-7.070312-1.859375-1.871094-4.4375-2.929688-7.070312-2.929688zm0 0"/><path d="m213.25 254.5c0 5.523438 4.476562 10 10 10h63.652344c5.523437 0 10-4.476562 10-10s-4.476563-10-10-10h-63.652344c-5.523438 0-10 4.476562-10 10zm0 0"/></svg>