<svg height="512pt" viewBox="0 -54 512 512" width="512pt" xmlns="http://www.w3.org/2000/svg"><path d="m502 384h-44v-49.359375c34.855469-34.917969 54-81.101563 54-130.539063 0-32.25-8.445312-64.011718-24.421875-91.847656-8.230469-14.34375-23.027344-22.90625-39.578125-22.90625s-31.347656 8.5625-39.578125 22.90625c-15.976563 27.835938-24.421875 59.597656-24.421875 91.851563 0 3.960937.140625 7.933593.394531 11.894531h-67.394531c-5.523438 0-10 4.476562-10 10s4.476562 10 10 10h73.855469l33 33h-241.710938l-33-33h88.855469c5.523438 0 10-4.476562 10-10s-4.476562-10-10-10h-175c-2.652344 0-5.195312 1.054688-7.070312 2.929688l-53 53c-1.875 1.875-2.929688 4.417968-2.929688 7.070312v115c0 5.523438 4.476562 10 10 10h492c5.523438 0 10-4.476562 10-10s-4.476562-10-10-10zm-314-95h250v95h-250zm216.953125-67.191406c-.625-5.84375-.953125-11.789063-.953125-17.703125 0-9.867188.90625-19.679688 2.644531-29.316407l31.355469 31.355469v22.851563.007812 25.851563zm53.046875 82.601562v-71.265625l33.921875-33.921875c.046875 1.625.078125 3.253906.078125 4.882813 0 36.847656-11.929688 71.675781-34 100.304687zm-32.230469-182.199218c4.621094-8.054688 12.933594-12.863282 22.230469-12.863282s17.609375 4.808594 22.230469 12.863282c9.210937 16.046874 15.59375 33.566406 18.96875 51.722656-.535157.355468-1.046875.769531-1.519531 1.246094l-29.679688 29.675781v-2.851563-.007812-44.246094c0-5.523438-4.476562-10-10-10s-10 4.476562-10 10v20.105469l-25.628906-25.628907c3.445312-10.40625 7.917968-20.472656 13.398437-30.015624zm-357.769531 261.789062v-64h52v64zm72 0v-74c0-5.523438-4.476562-10-10-10h-72c-5.523438 0-10 4.476562-10 10v74h-28v-100.855469l47.144531-47.144531h53.714844l47.140625 47.144531v100.855469zm0 0"/><path d="m272.929688 218.929688c-1.859376 1.859374-2.929688 4.441406-2.929688 7.070312s1.070312 5.210938 2.929688 7.070312c1.859374 1.859376 4.441406 2.929688 7.070312 2.929688s5.210938-1.070312 7.070312-2.929688c1.859376-1.859374 2.929688-4.441406 2.929688-7.070312s-1.070312-5.210938-2.929688-7.070312c-1.859374-1.859376-4.441406-2.929688-7.070312-2.929688s-5.210938 1.070312-7.070312 2.929688zm0 0"/><path d="m258 306.5h-40c-5.523438 0-10 4.476562-10 10v40c0 5.523438 4.476562 10 10 10h40c5.523438 0 10-4.476562 10-10v-40c0-5.523438-4.476562-10-10-10zm-10 40h-20v-20h20zm0 0"/><path d="m333 306.5h-40c-5.523438 0-10 4.476562-10 10v40c0 5.523438 4.476562 10 10 10h40c5.523438 0 10-4.476562 10-10v-40c0-5.523438-4.476562-10-10-10zm-10 40h-20v-20h20zm0 0"/><path d="m408 306.5h-40c-5.523438 0-10 4.476562-10 10v40c0 5.523438 4.476562 10 10 10h40c5.523438 0 10-4.476562 10-10v-40c0-5.523438-4.476562-10-10-10zm-10 40h-20v-20h20zm0 0"/><path d="m87.554688 97.667969h31.53125c5.519531 0 10-4.476563 10-10 0-5.523438-4.480469-10-10-10h-31.53125c-7.472657 0-13.554688-6.082031-13.554688-13.554688 0-3.789062 1.570312-7.503906 4.308594-10.1875 2.617187-2.566406 5.972656-3.933593 9.519531-3.875 1.972656.035157 3.859375.484375 5.613281 1.332031 2.519532 1.214844 5.429688 1.320313 8.03125.292969 2.597656-1.027343 4.648438-3.101562 5.652344-5.710937 5.96875-15.53125 21.15625-25.964844 37.796875-25.964844 16.3125 0 30.886719 9.933594 37.179687 24.484375-2.175781 1.300781-4.246093 2.785156-6.160156 4.449219-3.816406 3.316406-6.988281 7.238281-9.429687 11.65625-2.671875 4.832031-.917969 10.917968 3.914062 13.589844 1.535157.84375 3.191407 1.25 4.828125 1.25 3.519532 0 6.9375-1.867188 8.761719-5.167969 1.304687-2.359375 3.003906-4.457031 5.042969-6.234375 2.457031-2.132813 5.375-3.726563 8.472656-4.648438 2.105469-.625 4.300781-.953125 6.527344-.953125 12.613281 0 22.878906 10.265625 22.878906 22.878907 0 5.523437 4.476562 10 10 10h36.0625c5.523438 0 10-4.476563 10-10 0-5.523438-4.476562-10-10-10h-27.242188c-4.515624-18.835938-21.496093-32.878907-41.699218-32.878907-.929688 0-1.855469.03125-2.78125.089844-8.925782-22.792969-31.277344-38.515625-56.355469-38.515625-21.726563 0-41.796875 11.90625-52.460937 30.398438-1.398438-.203126-2.8125-.320313-4.246094-.347657-8.910156-.179687-17.429688 3.234375-23.910156 9.59375-6.550782 6.421875-10.304688 15.339844-10.304688 24.46875 0 18.5 15.054688 33.554688 33.554688 33.554688zm0 0"/><path d="m311.5 91.300781c2.628906 0 5.210938-1.0625 7.070312-2.921875 1.859376-1.867187 2.929688-4.449218 2.929688-7.078125 0-2.628906-1.070312-5.199219-2.929688-7.070312-1.859374-1.859375-4.441406-2.929688-7.070312-2.929688s-5.210938 1.070313-7.070312 2.929688c-1.859376 1.871093-2.929688 4.441406-2.929688 7.070312 0 2.628907 1.070312 5.210938 2.929688 7.078125 1.859374 1.859375 4.441406 2.921875 7.070312 2.921875zm0 0"/><path d="m407.871094 20c3.652344 0 7.148437 1.347656 9.847656 3.796875 1.90625 1.726563 4.3125 2.59375 6.71875 2.59375s4.8125-.867187 6.714844-2.59375c2.703125-2.449219 6.199218-3.796875 9.847656-3.796875 5.523438 0 10-4.476562 10-10s-4.476562-10-10-10c-5.84375 0-11.523438 1.464844-16.5625 4.207031-5.042969-2.742187-10.71875-4.207031-16.566406-4.207031-5.519532 0-10 4.476562-10 10s4.480468 10 10 10zm0 0"/><path d="m315.539062 46.332031c3.648438 0 7.148438 1.347657 9.847657 3.796875 1.90625 1.730469 4.3125 2.59375 6.71875 2.59375s4.808593-.863281 6.714843-2.59375c2.699219-2.449218 6.199219-3.796875 9.847657-3.796875 5.523437 0 10-4.476562 10-10 0-5.523437-4.476563-10-10-10-5.84375 0-11.523438 1.464844-16.5625 4.207031-5.042969-2.742187-10.71875-4.207031-16.5625-4.207031-5.523438 0-10 4.476563-10 10 0 5.523438 4.476562 10 9.996093 10zm0 0"/><path d="m371.390625 94.519531c3.648437 0 7.144531 1.347657 9.847656 3.796875 1.90625 1.726563 4.3125 2.589844 6.714844 2.589844 2.40625 0 4.8125-.863281 6.71875-2.589844 2.699219-2.449218 6.195313-3.796875 9.847656-3.796875 5.519531 0 10-4.480469 10-10 0-5.523437-4.480469-10-10-10-5.84375 0-11.523437 1.460938-16.5625 4.207031-5.042969-2.746093-10.722656-4.207031-16.5625-4.207031-5.523437 0-10 4.476563-10 10 0 5.519531 4.472657 10 9.996094 10zm0 0"/></svg>