<svg height="512pt" viewBox="-12 0 512 512" width="512pt" xmlns="http://www.w3.org/2000/svg"><path d="m293.640625 232c-5.519531 0-10 4.476562-10 10s4.480469 10 10 10h.050781c5.523438 0 9.976563-4.476562 9.976563-10s-4.503907-10-10.027344-10zm0 0"/><path d="m70 40.03125c-16.542969 0-30 13.457031-30 30s13.457031 30 30 30 30-13.457031 30-30-13.457031-30-30-30zm0 40c-5.515625 0-10-4.484375-10-10 0-5.511719 4.484375-10 10-10s10 4.488281 10 10c0 5.515625-4.484375 10-10 10zm0 0"/><path d="m150 100.03125c16.542969 0 30-13.457031 30-30s-13.457031-30-30-30-30 13.457031-30 30 13.457031 30 30 30zm0-40c5.515625 0 10 4.488281 10 10 0 5.515625-4.484375 10-10 10s-10-4.484375-10-10c0-5.511719 4.484375-10 10-10zm0 0"/><path d="m230 100.03125c16.542969 0 30-13.457031 30-30s-13.457031-30-30-30-30 13.457031-30 30 13.457031 30 30 30zm0-40c5.515625 0 10 4.488281 10 10 0 5.515625-4.484375 10-10 10s-10-4.484375-10-10c0-5.511719 4.484375-10 10-10zm0 0"/><path d="m310 100.03125c16.542969 0 30-13.457031 30-30s-13.457031-30-30-30-30 13.457031-30 30 13.457031 30 30 30zm0-40c5.515625 0 10 4.488281 10 10 0 5.515625-4.484375 10-10 10s-10-4.484375-10-10c0-5.511719 4.484375-10 10-10zm0 0"/><path d="m340 202.03125v-72c0-5.523438-4.476562-10-10-10h-120c-5.523438 0-10 4.476562-10 10v72c0 5.523438 4.476562 10 10 10h120c5.523438 0 10-4.476562 10-10zm-20-10h-20v-28.695312c0-5.523438-4.476562-10-10-10s-10 4.476562-10 10v28.695312h-20v-28.695312c0-5.523438-4.476562-10-10-10s-10 4.476562-10 10v28.695312h-20v-52h100zm0 0"/><path d="m74.667969 139.667969h-.667969v-9.636719c0-5.523438-4.476562-10-10-10s-10 4.476562-10 10v9.636719h-.667969c-5.519531 0-10 4.476562-10 10 0 5.523437 4.480469 10 10 10h.667969v42.363281c0 5.523438 4.476562 10 10 10s10-4.476562 10-10v-42.363281h.667969c5.519531 0 10-4.476563 10-10 0-5.523438-4.480469-10-10-10zm0 0"/><path d="m122.667969 172.398438h-.667969v-42.367188c0-5.523438-4.476562-10-10-10s-10 4.476562-10 10v42.367188h-.667969c-5.519531 0-10 4.476562-10 10 0 5.523437 4.480469 10 10 10h.667969v9.632812c0 5.523438 4.476562 10 10 10s10-4.476562 10-10v-9.632812h.667969c5.519531 0 10-4.476563 10-10 0-5.523438-4.480469-10-10-10zm0 0"/><path d="m170.667969 146.75h-.667969v-16.71875c0-5.523438-4.476562-10-10-10s-10 4.476562-10 10v16.71875h-.667969c-5.519531 0-10 4.476562-10 10s4.480469 10 10 10h.667969v35.28125c0 5.523438 4.476562 10 10 10s10-4.476562 10-10v-35.28125h.667969c5.519531 0 10-4.476562 10-10s-4.480469-10-10-10zm0 0"/><path d="m118 272h-64c-5.523438 0-10 4.476562-10 10v48c0 5.523438 4.476562 10 10 10h64c5.523438 0 10-4.476562 10-10v-48c0-5.523438-4.476562-10-10-10zm-10 48h-44v-28h44zm0 0"/><path d="m222 272h-64c-5.523438 0-10 4.476562-10 10v48c0 5.523438 4.476562 10 10 10h64c5.523438 0 10-4.476562 10-10v-48c0-5.523438-4.476562-10-10-10zm-10 48h-44v-28h44zm0 0"/><path d="m118 360h-64c-5.523438 0-10 4.476562-10 10v48c0 5.523438 4.476562 10 10 10h64c5.523438 0 10-4.476562 10-10v-48c0-5.523438-4.476562-10-10-10zm-10 48h-44v-28h44zm0 0"/><path d="m222 360h-64c-5.523438 0-10 4.476562-10 10v48c0 5.523438 4.476562 10 10 10h64c5.523438 0 10-4.476562 10-10v-48c0-5.523438-4.476562-10-10-10zm-10 48h-44v-28h44zm0 0"/><path d="m326 360h-64c-5.523438 0-10 4.476562-10 10v48c0 5.523438 4.476562 10 10 10h64c5.523438 0 10-4.476562 10-10v-48c0-5.523438-4.476562-10-10-10zm-10 48h-44v-28h44zm0 0"/><path d="m442.121094 198.609375c6.097656-7.789063 9.746094-17.582031 9.746094-28.21875v-6.523437c0-25.292969-20.574219-45.867188-45.867188-45.867188-9.648438 0-18.605469 3-26 8.109375v-116.109375c0-5.523438-4.476562-10-10-10h-360c-5.523438 0-10 4.476562-10 10v492c0 5.523438 4.476562 10 10 10h432c5.523438 0 10-4.476562 10-10v-54c0-5.523438-4.476562-10-10-10s-10 4.476562-10 10v44h-16v-134.332031c0-5.523438-4.476562-10-10-10s-10 4.476562-10 10v134.332031h-16v-162.703125h52v40.703125c0 5.523438 4.476562 10 10 10s10-4.476562 10-10v-17.078125c20.390625-3.355469 36-21.097656 36-42.421875v-51.371094c0-28.777344-19.445312-53.085937-45.878906-60.519531zm-61.988282-34.742187c0-14.261719 11.601563-25.867188 25.867188-25.867188s25.867188 11.605469 25.867188 25.867188v6.523437c0 14.261719-11.601563 25.867187-25.867188 25.867187s-25.867188-11.605468-25.867188-25.867187zm-360.132812 88.132812h230c5.523438 0 10-4.476562 10-10s-4.476562-10-10-10h-230v-212h340v150.390625c0 .632813.066406 1.253906.179688 1.855469.394531 9.917968 3.957031 19.03125 9.699218 26.363281-26.433594 7.433594-45.878906 31.742187-45.878906 60.519531v12.871094h-62c-5.523438 0-10 4.476562-10 10v48c0 5.523438 4.476562 10 10 10h64c2.808594 0 5.339844-1.160156 7.15625-3.023438 6.507812 8.304688 15.996094 14.160157 26.84375 15.945313v139.078125h-340zm296 40v28h-44v-28zm152 18.5c0 10.242188-6.730469 18.9375-16 21.90625v-66.90625c0-5.523438-4.476562-10-10-10s-10 4.476562-10 10v43.796875h-52v-43.796875c0-5.523438-4.476562-10-10-10s-10 4.476562-10 10v66.90625c-9.269531-2.96875-16-11.664062-16-21.90625v-51.371094c0-23.640625 19.230469-42.871094 42.871094-42.871094h38.257812c23.640625 0 42.871094 19.230469 42.871094 42.871094zm0 0"/><path d="m442 397.5c-2.628906 0-5.210938 1.070312-7.070312 2.929688-1.859376 1.859374-2.929688 4.441406-2.929688 7.070312s1.070312 5.210938 2.929688 7.070312c1.859374 1.859376 4.441406 2.929688 7.070312 2.929688s5.210938-1.070312 7.070312-2.929688c1.859376-1.859374 2.929688-4.441406 2.929688-7.070312s-1.070312-5.210938-2.929688-7.070312c-1.859374-1.859376-4.441406-2.929688-7.070312-2.929688zm0 0"/></svg>