<svg height="512pt" viewBox="0 0 512 512" width="512pt" xmlns="http://www.w3.org/2000/svg"><path d="m236.042969 399.792969c5.519531 0 9.957031-4.476563 9.957031-10 0-5.523438-4.519531-10-10.042969-10-5.519531 0-10 4.476562-10 10 0 5.523437 4.480469 10 10 10zm0 0"/><path d="m58.332031 191.417969h69.667969c5.523438 0 10-4.476563 10-10 0-5.523438-4.476562-10-10-10h-69.667969c-5.519531 0-10 4.476562-10 10 0 5.523437 4.480469 10 10 10zm0 0"/><path d="m58.332031 247.417969h23.316407c5.523437 0 10-4.476563 10-10 0-5.523438-4.476563-10-10-10h-23.316407c-5.519531 0-10 4.476562-10 10 0 5.523437 4.480469 10 10 10zm0 0"/><path d="m118.332031 283.417969h-60c-5.519531 0-10 4.476562-10 10 0 5.519531 4.480469 10 10 10h60c5.523438 0 10-4.480469 10-10 0-5.523438-4.476562-10-10-10zm0 0"/><path d="m156.839844 283.421875c-2.628906 0-5.199219 1.058594-7.070313 2.929687-1.859375 1.859376-2.917969 4.429688-2.917969 7.070313 0 2.628906 1.058594 5.199219 2.917969 7.066406 1.871094 1.859375 4.441407 2.933594 7.070313 2.933594 2.640625 0 5.210937-1.070313 7.082031-2.933594 1.859375-1.867187 2.929687-4.4375 2.929687-7.066406 0-2.632813-1.070312-5.210937-2.929687-7.070313-1.863281-1.871093-4.441406-2.929687-7.082031-2.929687zm0 0"/><path d="m215.011719 283.417969h-23.285157c-5.519531 0-10 4.476562-10 10 0 5.519531 4.480469 10 10 10h23.285157c5.523437 0 10-4.480469 10-10 0-5.523438-4.476563-10-10-10zm0 0"/><path d="m502 124.402344h-19.75c-2.925781-10.410156-7.0625-20.390625-12.367188-29.824219l13.976563-13.972656c3.90625-3.90625 3.90625-10.238281 0-14.144531l-38.320313-38.320313c-1.878906-1.875-4.421874-2.929687-7.070312-2.929687-2.652344 0-5.195312 1.054687-7.074219 2.929687l-13.972656 13.976563c-9.429687-5.304688-19.414063-9.441407-29.824219-12.367188v-19.75c0-5.523438-4.476562-10-10-10h-54.195312c-5.519532 0-10 4.476562-10 10v19.707031c-10.429688 2.917969-20.429688 7.050781-29.878906 12.351563l-13.917969-13.917969c-1.875-1.875-4.417969-2.929687-7.070313-2.929687s-5.195312 1.054687-7.070312 2.929687l-38.320313 38.324219c-2.070312 2.070312-3.03125 4.820312-2.90625 7.535156h-178.738281c-19.574219 0-35.5 15.925781-35.5 35.5v289c0 19.574219 15.925781 35.5 35.5 35.5h28.5c5.523438 0 10-4.476562 10-10s-4.476562-10-10-10h-28.5c-8.546875 0-15.5-6.953125-15.5-15.5v-30.164062h432v30.164062c0 8.546875-6.953125 15.5-15.5 15.5h-272.832031c-5.523438 0-10 4.476562-10 10s4.476562 10 10 10h24.332031v58h-33.902344c-5.523437 0-10 4.476562-10 10s4.476563 10 10 10h163.804688c5.523437 0 10-4.476562 10-10s-4.476563-10-10-10h-33.902344v-58h152.5c19.574219 0 35.5-15.925781 35.5-35.5v-130.105469l11.859375-11.855469c3.902344-3.90625 3.902344-10.238281 0-14.144531l-13.917969-13.917969c5.300782-9.445312 9.4375-19.449218 12.351563-29.878906h19.707031c5.523438 0 10-4.476562 10-10v-54.195312c0-5.523438-4.476562-10-10-10zm-238 367.597656h-56v-58h56zm188-143.664062h-432v-238.835938c0-8.546875 6.953125-15.5 15.5-15.5h195.035156l.484375.480469c-5.332031 9.460937-9.488281 19.476562-12.425781 29.921875h-19.59375c-5.523438 0-10 4.476562-10 10v37.011718h-20.769531c-5.519531 0-10 4.480469-10 10 0 5.523438 4.480469 10 10 10h21.179687c1.21875 4.152344 5.046875 7.183594 9.589844 7.183594h19.550781c2.808594 10.042969 6.757813 19.679688 11.777344 28.816406h-111.996094c-5.519531 0-10 4.480469-10 10 0 5.523438 4.480469 10 10 10h96.097657c-.664063 3.191407.234374 6.644532 2.710937 9.121094l38.324219 38.324219c3.902344 3.902344 10.234375 3.90625 14.140625 0l13.820312-13.820313c9.476563 5.328126 19.511719 9.484376 29.976563 12.410157v19.550781c0 5.523438 4.480468 10 10 10h54.195312c5.523438 0 10-4.476562 10-10v-19.59375c10.445313-2.9375 20.460938-7.09375 29.921875-12.425781l13.875 13.878906c3.90625 3.902344 10.238281 3.902344 14.144531 0l6.460938-6.464844zm40-169.738282h-17.523438c-4.707031 0-8.777343 3.28125-9.773437 7.882813-2.949219 13.59375-8.253906 26.429687-15.769531 38.148437-2.539063 3.957032-1.980469 9.144532 1.34375 12.46875l12.367187 12.367188-24.179687 24.179687-12.332032-12.335937c-3.332031-3.328125-8.53125-3.882813-12.488281-1.335938-11.722656 7.550782-24.570312 12.886719-38.175781 15.855469-4.597656 1-7.871094 5.066406-7.871094 9.769531v17.402344h-34.195312v-17.367188c0-4.707031-3.28125-8.777343-7.878906-9.773437-13.628907-2.957031-26.492188-8.28125-38.238282-15.828125-3.957031-2.542969-9.148437-1.984375-12.476562 1.339844l-12.273438 12.273437-24.179687-24.179687 12.273437-12.273438c3.324219-3.324218 3.882813-8.519531 1.339844-12.476562-7.546875-11.742188-12.871094-24.609375-15.824219-38.234375-1-4.601563-5.070312-7.882813-9.773437-7.882813h-17.371094v-34.195312h17.402344c4.703125 0 8.769531-3.273438 9.773437-7.867188 2.96875-13.609375 8.300781-26.453125 15.851563-38.179687 2.546875-3.957031 1.992187-9.15625-1.335938-12.484375l-12.335937-12.335938 24.179687-24.179687 12.367188 12.367187c3.324218 3.324219 8.515625 3.882813 12.46875 1.347656 11.71875-7.515624 24.554687-12.824218 38.152344-15.769531 4.597656-.996093 7.878906-5.066406 7.878906-9.773437v-17.527344h34.195312v17.558594c0 4.703125 3.273438 8.769531 7.871094 9.769531 13.574219 2.964844 26.390625 8.277344 38.089844 15.796875 3.957031 2.542969 9.152344 1.984375 12.476562-1.339844l12.433594-12.429687 24.179688 24.179687-12.429688 12.429688c-3.328125 3.324218-3.886719 8.519531-1.34375 12.476562 7.519531 11.699219 12.835938 24.515625 15.796875 38.09375 1.003906 4.59375 5.066406 7.867188 9.769531 7.867188h17.558594zm0 0"/><path d="m350.5 71.5c-49.625 0-90 40.375-90 90s40.375 90 90 90 90-40.375 90-90-40.375-90-90-90zm0 160c-38.597656 0-70-31.402344-70-70s31.402344-70 70-70 70 31.402344 70 70-31.402344 70-70 70zm0 0"/><path d="m350.5 183.671875c-2.628906 0-5.210938 1.066406-7.070312 2.929687-1.859376 1.867188-2.929688 4.4375-2.929688 7.070313 0 2.636719 1.070312 5.207031 2.929688 7.066406 1.859374 1.863281 4.441406 2.933594 7.070312 2.933594s5.210938-1.070313 7.070312-2.933594c1.859376-1.859375 2.929688-4.429687 2.929688-7.066406 0-2.632813-1.070312-5.210937-2.929688-7.070313-1.859374-1.863281-4.441406-2.929687-7.070312-2.929687zm0 0"/><path d="m350.5 153.289062c-10.789062 0-20.929688 4.199219-28.558594 11.828126-3.90625 3.90625-3.90625 10.238281 0 14.140624 3.90625 3.90625 10.238282 3.90625 14.144532 0 3.851562-3.847656 8.96875-5.96875 14.414062-5.96875s10.5625 2.121094 14.414062 5.96875c1.953126 1.953126 4.511719 2.929688 7.070313 2.929688 2.5625 0 5.121094-.976562 7.074219-2.929688 3.902344-3.902343 3.902344-10.234374 0-14.140624-7.628906-7.628907-17.769532-11.828126-28.558594-11.828126zm0 0"/><path d="m297.929688 141.101562c-3.90625 3.90625-3.90625 10.238282 0 14.144532 3.90625 3.902344 10.234374 3.902344 14.140624 0 10.265626-10.265625 23.914063-15.917969 38.429688-15.917969 14.519531 0 28.164062 5.652344 38.429688 15.917969 1.953124 1.953125 4.511718 2.929687 7.070312 2.929687s5.117188-.976562 7.070312-2.929687c3.90625-3.90625 3.90625-10.238282 0-14.144532-28.988281-28.988281-76.152343-28.988281-105.140624 0zm0 0"/><path d="m112.625 414h-.3125c-5.523438 0-10 4.476562-10 10s4.476562 10 10 10h.3125c5.523438 0 10-4.476562 10-10s-4.476562-10-10-10zm0 0"/></svg>