<svg height="512pt" viewBox="0 0 512 512.001" width="512pt" xmlns="http://www.w3.org/2000/svg"><path d="m444.988281 221.609375c-2.628906 0-5.210937 1.070313-7.070312 2.929687-1.859375 1.859376-2.929688 4.441407-2.929688 7.070313s1.070313 5.210937 2.929688 7.070313c1.859375 1.859374 4.441406 2.929687 7.070312 2.929687 2.628907 0 5.210938-1.070313 7.070313-2.929687 1.859375-1.859376 2.929687-4.441407 2.929687-7.070313s-1.070312-5.210937-2.929687-7.070313c-1.859375-1.859374-4.441406-2.929687-7.070313-2.929687zm0 0"/><path d="m266.8125 104v86.195312c0 5.523438 4.480469 10 10 10h86.195312c5.519532 0 10-4.476562 10-10 0-53.042968-43.152343-96.195312-96.195312-96.195312-5.519531 0-10 4.476562-10 10zm20 10.652344c34.03125 4.480468 61.058594 31.511718 65.542969 65.542968h-65.542969zm0 0"/><path d="m509.070312 336.789062-81.0625-81.058593c-5.550781-5.550781-12.929687-8.609375-20.777343-8.609375-7.847657 0-15.230469 3.058594-20.777344 8.605468-2.90625 2.90625-5.121094 6.316407-6.582031 10.03125-10.59375-4.242187-23.175782-2.082031-31.742188 6.484376-5.101562 5.101562-8.089844 11.753906-8.539062 18.894531-6.878906.441406-13.628906 3.277343-18.875 8.523437-2.320313 2.320313-4.164063 4.9375-5.542969 7.730469l-12.167969-12.167969c19.144532-18.132812 29.984375-43.152344 29.984375-69.789062 0-5.519532-4.476562-10-10-10h-76.195312v-76.191406c0-5.523438-4.476563-10-10-10-53.039063 0-96.191407 43.152343-96.191407 96.191406 0 53.042968 43.152344 96.195312 96.191407 96.195312 3.023437 0 6.0625-.144531 9.074219-.425781l24.679687 24.679687h-110.878906c-5.523438 0-10 4.480469-10 10v48c0 5.523438 4.476562 10 10 10h106.515625c-.167969 9.3125 4.042968 18.300782 11.410156 24.113282h-200.585938v-10.28125l46.742188-54.167969c7.0625-8.1875 8.96875-19.511719 4.96875-29.5625-3.417969-8.589844-10.507812-14.875-19.445312-17.246094-8.9375-2.367187-18.207032-.417969-25.433594 5.355469l-6.832032 5.457031v-263.550781h20v62c0 5.523438 4.476563 10 10 10 5.523438 0 10-4.476562 10-10v-62h317.984376v119.503906c0 5.523438 4.476562 10 10 10 5.519531 0 10-4.476562 10-10v-151.503906c0-23.160156-18.84375-42-42-42h-313.984376c-23.160156 0-42 18.839844-42 42v200.863281c-.308593.304688-.609374.621094-.882812.972657l-38.6875 49.4375c-11.246094 14.367187-17.4375 32.324218-17.4375 50.570312v158.152344c0 5.523437 4.476562 10 10 10s10-4.476563 10-10v-158.152344c0-13.796875 4.683594-27.382812 13.1875-38.246094l23.820312-30.4375v83.175782c0 5.523437 4.476563 10 10 10 2.363282 0 4.527344-.824219 6.238282-2.191407 0 .003907.003906.003907.003906.003907l23.070312-18.425782c2.222657-1.777344 5.078126-2.378906 7.828126-1.648437 2.753906.730469 4.9375 2.664062 5.988281 5.308593 1.230469 3.09375.644531 6.582032-1.53125 9.101563l-49.167969 56.980469c0 .003906.003906.003906.003906.007812-1.511718 1.75-2.433594 4.03125-2.433594 6.527344v46c0 23.15625 18.839844 42 42 42h313.980469c6.164063 0 12.101563-1.3125 17.65625-3.886719 4.402344 1.242188 8.820313 2.449219 13.257813 3.578125.828125.207032 1.65625.308594 2.472656.308594 4.464844 0 8.535156-3.011719 9.683594-7.535156 1.363281-5.355469-1.871094-10.796875-7.226563-12.15625-43.671875-11.109375-85.660156-28.070313-124.796875-50.421875l-32.871094-18.773438c-3.847656-2.195312-5.789062-6.730469-4.71875-11.03125 1.3125-5.289062 6.691407-8.542969 11.988282-7.261719l43.722656 10.609376c4.351562 1.058593 8.882812-.914063 11.078125-4.820313s1.519531-8.800781-1.648437-11.96875l-100.050782-100.054687c-1.773437-1.769532-2.75-4.128907-2.75-6.636719 0-2.507813.976563-4.863281 2.75-6.636719 3.660156-3.660156 9.617188-3.660156 13.273438 0l55.886718 55.886719c.007813.003906.011719.011719.019532.019531l33.21875 33.21875c3.90625 3.902344 10.238281 3.902344 14.144531 0 3.902344-3.90625 3.902344-10.238281 0-14.144531l-33.234375-33.234375c-3.644531-3.660156-3.640625-9.605469.011719-13.257813 3.660156-3.660156 9.617187-3.660156 13.277343 0l33.21875 33.21875c3.90625 3.90625 10.234376 3.90625 14.140626 0 3.90625-3.902343 3.90625-10.234375 0-14.140625l-28.308594-28.3125c-.003906 0-.003906-.003906-.007813-.007812l-4.902343-4.902344c-1.769532-1.769531-2.75-4.128906-2.75-6.636719 0-2.507812.980468-4.863281 2.75-6.636719 3.660156-3.660156 9.617187-3.660156 13.277343 0l19.683594 19.683594c0 .003906.003906.003906.003906.007813l13.53125 13.53125c3.90625 3.902343 10.234375 3.902343 14.140625 0 3.90625-3.90625 3.90625-10.238281 0-14.144531l-22.316406-22.316407c-1.769531-1.773437-2.746094-4.128906-2.746094-6.636719 0-2.507812.976563-4.863281 2.75-6.636718 1.769532-1.773438 4.128906-2.75 6.636719-2.75 2.503906 0 4.863281.976562 6.636719 2.75l81.058594 81.058594c1.953124 1.953124 4.511718 2.929687 7.070312 2.929687s5.121094-.976563 7.074219-2.929687c3.898437-3.902344 3.898437-10.234376-.003907-14.140626zm-410.0625-316.789062h313.984376c12.128906 0 22 9.867188 22 22v12h-357.984376v-12c0-12.132812 9.871094-22 22-22zm127.789063 181.292969-36.308594-36.304688c10.34375-7.945312 22.765625-13.3125 36.308594-15.09375zm155.878906 290.707031h-283.667969c-12.128906 0-22-9.871094-22-22v-12.003906h233.148438c.523438 0 1.03125-.050782 1.535156-.128906l2.429688 1.386718c22.042968 12.589844 44.960937 23.519532 68.554687 32.746094zm-79.523437-106.617188c-10.75-2.609374-21.601563 1-28.757813 8.5h-104.726562v-28h120.878906l21.710937 21.710938zm-65.761719-114.210937c-8.144531 8.144531-10.492187 19.917969-7.054687 30.164063-39-3.292969-69.734376-36.0625-69.734376-75.898438 0-17.410156 5.882813-33.460938 15.746094-46.304688l53.28125 53.28125c.019532.015626.035156.03125.050782.046876 1.8125 1.835937 4.332031 2.976562 7.113281 2.976562h75.546875c-2.285156 17.460938-10.535156 33.507812-23.5 45.621094l-9.890625-9.886719c-11.457031-11.460937-30.097657-11.457031-41.558594 0zm0 0"/><path d="m107.011719 162.1875c-2.640625 0-5.210938 1.070312-7.070313 2.933594-1.871094 1.859375-2.929687 4.429687-2.929687 7.066406 0 2.632812 1.058593 5.210938 2.929687 7.070312 1.859375 1.863282 4.4375 2.929688 7.070313 2.929688 2.628906 0 5.207031-1.066406 7.066406-2.929688 1.859375-1.859374 2.933594-4.4375 2.933594-7.070312 0-2.628906-1.070313-5.207031-2.933594-7.066406-1.859375-1.863282-4.4375-2.933594-7.066406-2.933594zm0 0"/></svg>