<svg height="512pt" viewBox="0 -122 512 512" width="512pt" xmlns="http://www.w3.org/2000/svg"><path d="m458 152.152344v-142.152344c0-5.523438-4.476562-10-10-10h-152c-5.523438 0-10 4.476562-10 10v35.5c0 5.523438 4.476562 10 10 10s10-4.476562 10-10v-25.5h32v54c0 4.03125 2.421875 7.667969 6.140625 9.226562 3.722656 1.554688 8.011719.722657 10.882813-2.105468l16.976562-16.742188 16.980469 16.742188c1.90625 1.882812 4.445312 2.878906 7.023437 2.878906 1.296875 0 2.609375-.253906 3.855469-.773438 3.71875-1.554687 6.140625-5.195312 6.140625-9.226562v-54h32v132h-132v-24.5c0-5.523438-4.476562-10-10-10s-10 4.476562-10 10v24.5h-66v-142c0-5.523438-4.476562-10-10-10h-152c-5.523438 0-10 4.476562-10 10v32c0 5.523438 4.476562 10 10 10s10-4.476562 10-10v-22h32v54c0 4.03125 2.421875 7.667969 6.140625 9.226562 3.722656 1.554688 8.011719.722657 10.882813-2.105468l16.976562-16.742188 16.980469 16.742188c1.90625 1.882812 4.445312 2.878906 7.023437 2.878906 1.296875 0 2.609375-.253906 3.855469-.773438 3.71875-1.554687 6.140625-5.195312 6.140625-9.226562v-54h32v132h-132v-26c0-5.523438-4.476562-10-10-10s-10 4.476562-10 10v26.882812c-27.230469 4.753907-48 28.546876-48 57.117188 0 31.980469 26.019531 58 58 58h396c31.980469 0 58-26.019531 58-58 0-30.636719-23.878906-55.78125-54-57.847656zm-72-102.058594-6.980469-6.878906c-1.945312-1.921875-4.484375-2.878906-7.019531-2.878906s-5.074219.957031-7.019531 2.878906l-6.980469 6.878906v-30.09375h28zm-238 0-6.980469-6.878906c-1.945312-1.921875-4.484375-2.878906-7.019531-2.878906s-5.074219.957031-7.019531 2.878906l-6.980469 6.878906v-30.09375h28zm262.238281 121.90625c-8.855469 10.1875-14.238281 23.472656-14.238281 38s5.382812 27.8125 14.238281 38h-110.476562c8.855469-10.1875 14.238281-23.472656 14.238281-38s-5.382812-27.8125-14.238281-38zm-192.238281 38c0-20.953125 17.046875-38 38-38s38 17.046875 38 38-17.046875 38-38 38-38-17.046875-38-38zm-8-38h2.238281c-8.855469 10.1875-14.238281 23.472656-14.238281 38s5.382812 27.8125 14.238281 38h-110.476562c8.855469-10.1875 14.238281-23.472656 14.238281-38s-5.382812-27.8125-14.238281-38zm-190 38c0-20.953125 17.046875-38 38-38s38 17.046875 38 38-17.046875 38-38 38-38-17.046875-38-38zm434 38c-20.953125 0-38-17.046875-38-38s17.046875-38 38-38 38 17.046875 38 38-17.046875 38-38 38zm0 0"/><path d="m256 200c-2.628906 0-5.210938 1.070312-7.070312 2.929688-1.859376 1.859374-2.929688 4.441406-2.929688 7.070312s1.070312 5.210938 2.929688 7.070312c1.859374 1.859376 4.441406 2.929688 7.070312 2.929688s5.210938-1.070312 7.070312-2.929688c1.859376-1.859374 2.929688-4.441406 2.929688-7.070312s-1.070312-5.210938-2.929688-7.070312c-1.859374-1.859376-4.441406-2.929688-7.070312-2.929688zm0 0"/><path d="m454 200c-2.628906 0-5.210938 1.070312-7.070312 2.929688-1.859376 1.859374-2.929688 4.441406-2.929688 7.070312s1.070312 5.210938 2.929688 7.070312c1.859374 1.859376 4.441406 2.929688 7.070312 2.929688s5.210938-1.070312 7.070312-2.929688c1.859376-1.859374 2.929688-4.441406 2.929688-7.070312s-1.070312-5.210938-2.929688-7.070312c-1.859374-1.859376-4.441406-2.929688-7.070312-2.929688zm0 0"/><path d="m65.070312 217.070312c1.859376-1.859374 2.929688-4.441406 2.929688-7.070312s-1.070312-5.210938-2.929688-7.070312c-1.859374-1.859376-4.441406-2.929688-7.070312-2.929688s-5.210938 1.070312-7.070312 2.929688c-1.859376 1.859374-2.929688 4.441406-2.929688 7.070312s1.070312 5.210938 2.929688 7.070312c1.859374 1.859376 4.441406 2.929688 7.070312 2.929688s5.210938-1.070312 7.070312-2.929688zm0 0"/><path d="m58 96c2.628906 0 5.210938-1.070312 7.070312-2.929688 1.859376-1.859374 2.929688-4.441406 2.929688-7.070312s-1.070312-5.210938-2.929688-7.070312c-1.859374-1.859376-4.441406-2.929688-7.070312-2.929688s-5.210938 1.070312-7.070312 2.929688c-1.859376 1.859374-2.929688 4.441406-2.929688 7.070312s1.070312 5.210938 2.929688 7.070312c1.859374 1.859376 4.441406 2.929688 7.070312 2.929688zm0 0"/><path d="m178.75 132c5.523438 0 10-4.476562 10-10s-4.476562-10-10-10h-28c-5.523438 0-10 4.476562-10 10s4.476562 10 10 10zm0 0"/><path d="m296 96c2.628906 0 5.210938-1.070312 7.070312-2.929688 1.859376-1.859374 2.929688-4.441406 2.929688-7.070312s-1.070312-5.210938-2.929688-7.070312c-1.859374-1.859376-4.441406-2.929688-7.070312-2.929688s-5.210938 1.070312-7.070312 2.929688c-1.859376 1.859374-2.929688 4.441406-2.929688 7.070312s1.070312 5.210938 2.929688 7.070312c1.859374 1.859376 4.441406 2.929688 7.070312 2.929688zm0 0"/><path d="m416.75 132c5.523438 0 10-4.476562 10-10s-4.476562-10-10-10h-28c-5.523438 0-10 4.476562-10 10s4.476562 10 10 10zm0 0"/></svg>