<svg height="512pt" viewBox="0 0 512 512" width="512pt" xmlns="http://www.w3.org/2000/svg"><path d="m502 56c-2.628906 0-5.210938 1.070312-7.070312 2.929688-1.859376 1.859374-2.929688 4.441406-2.929688 7.070312s1.070312 5.210938 2.929688 7.070312c1.859374 1.859376 4.441406 2.929688 7.070312 2.929688s5.210938-1.070312 7.070312-2.929688c1.859376-1.859374 2.929688-4.441406 2.929688-7.070312s-1.070312-5.210938-2.929688-7.070312c-1.859374-1.859376-4.441406-2.929688-7.070312-2.929688zm0 0"/><path d="m467 422h-3.769531v-35.566406c0-29.980469-24.390625-54.371094-54.371094-54.371094h-24.4375l-28.167969-66.34375c-4.1875-9.871094-11.574218-17.6875-20.648437-22.472656v-37.90625l19.34375-50.804688c.433593-1.136718.65625-2.34375.65625-3.558594v-74.976562h106.0625c5.519531 0 10-4.476562 10-10s-4.480469-10-10-10h-96.472657c1.554688-4.382812 2.40625-9.09375 2.40625-14s-.851562-9.617188-2.40625-14h136.804688c5.523438 0 10-4.476562 10-10s-4.476562-10-10-10h-150.644531c-.359375 0-.710938.019531-1.058594.058594-6.933594-5.0625-15.46875-8.058594-24.691406-8.058594-23.160157 0-42 18.839844-42 42 0 11.566406 4.699219 22.054688 12.285156 29.65625-.179687.753906-.285156 1.535156-.285156 2.34375v76.976562c0 1.214844.21875 2.421876.652343 3.558594l19.347657 50.804688v32.683594c-.410157-.011719-.816407-.023438-1.226563-.023438h-115.40625c-18.292968 0-34.730468 10.878906-41.878906 27.71875l-28.164062 66.34375h-11.15625c-29.980469 0-54.371094 24.390625-54.371094 54.371094v35.566406h-18.402344c-24.8125 0-45 20.1875-45 45s20.1875 45 45 45h422c24.8125 0 45-20.1875 45-45s-20.1875-45-45-45zm-141.394531-338c3.445312 0 6.792969-.425781 10-1.214844v53.046875h-20v-53.042969c3.207031.785157 6.550781 1.210938 10 1.210938zm7.449219 71.835938-7.449219 19.5625-7.453125-19.5625zm-7.449219-135.835938c12.128906 0 22 9.867188 22 22s-9.871094 22-22 22c-12.132813 0-22-9.867188-22-22s9.867187-22 22-22zm12.238281 253.53125 24.847656 58.53125h-96.015625v-74.0625h47.703125c10.25 0 19.460938 6.097656 23.464844 15.53125zm-162.339844 0c4.003906-9.433594 13.21875-15.53125 23.46875-15.53125h47.703125v74.0625h-96.019531zm-92.101562 112.902344c0-18.953125 15.417968-34.371094 34.371094-34.371094h291.085937c18.953125 0 34.371094 15.417969 34.371094 34.371094v35.566406h-20.460938c-4.496093-17.699219-20.574219-30.84375-39.644531-30.84375-19.066406 0-35.144531 13.144531-39.640625 30.84375h-147.882813c-4.496093-17.699219-20.578124-30.84375-39.644531-30.84375-19.066406 0-35.148437 13.144531-39.644531 30.84375h-32.910156zm318.03125 35.566406h-36.613282c3.5625-6.457031 10.433594-10.84375 18.304688-10.84375 7.875 0 14.746094 4.386719 18.308594 10.84375zm-227.171875 0h-36.613281c3.5625-6.457031 10.4375-10.84375 18.308593-10.84375 7.871094 0 14.746094 4.386719 18.304688 10.84375zm292.738281 70h-422c-13.785156 0-25-11.214844-25-25s11.214844-25 25-25h422c13.785156 0 25 11.214844 25 25s-11.214844 25-25 25zm0 0"/><path d="m64 457c-2.628906 0-5.210938 1.070312-7.070312 2.929688-1.859376 1.859374-2.929688 4.441406-2.929688 7.070312s1.070312 5.210938 2.929688 7.070312c1.859374 1.859376 4.441406 2.929688 7.070312 2.929688s5.210938-1.070312 7.070312-2.929688c1.859376-1.859374 2.929688-4.441406 2.929688-7.070312s-1.070312-5.210938-2.929688-7.070312c-1.859374-1.859376-4.441406-2.929688-7.070312-2.929688zm0 0"/><path d="m256 457c-2.628906 0-5.210938 1.070312-7.070312 2.929688-1.859376 1.859374-2.929688 4.441406-2.929688 7.070312s1.070312 5.210938 2.929688 7.070312c1.859374 1.859376 4.441406 2.929688 7.070312 2.929688s5.210938-1.070312 7.070312-2.929688c1.859376-1.859374 2.929688-4.441406 2.929688-7.070312s-1.070312-5.210938-2.929688-7.070312c-1.859374-1.859376-4.441406-2.929688-7.070312-2.929688zm0 0"/><path d="m192 457c-2.628906 0-5.210938 1.070312-7.070312 2.929688-1.859376 1.859374-2.929688 4.441406-2.929688 7.070312s1.070312 5.210938 2.929688 7.070312c1.859374 1.859376 4.441406 2.929688 7.070312 2.929688s5.210938-1.070312 7.070312-2.929688c1.859376-1.859374 2.929688-4.441406 2.929688-7.070312s-1.070312-5.210938-2.929688-7.070312c-1.859374-1.859376-4.441406-2.929688-7.070312-2.929688zm0 0"/><path d="m128 457c-2.628906 0-5.210938 1.070312-7.070312 2.929688-1.859376 1.859374-2.929688 4.441406-2.929688 7.070312s1.070312 5.210938 2.929688 7.070312c1.859374 1.859376 4.441406 2.929688 7.070312 2.929688s5.210938-1.070312 7.070312-2.929688c1.859376-1.859374 2.929688-4.441406 2.929688-7.070312s-1.070312-5.210938-2.929688-7.070312c-1.859374-1.859376-4.441406-2.929688-7.070312-2.929688zm0 0"/><path d="m448 457c-2.628906 0-5.210938 1.070312-7.070312 2.929688-1.859376 1.859374-2.929688 4.441406-2.929688 7.070312s1.070312 5.210938 2.929688 7.070312c1.859374 1.859376 4.441406 2.929688 7.070312 2.929688s5.210938-1.070312 7.070312-2.929688c1.859376-1.859374 2.929688-4.441406 2.929688-7.070312s-1.070312-5.210938-2.929688-7.070312c-1.859374-1.859376-4.441406-2.929688-7.070312-2.929688zm0 0"/><path d="m320 457c-2.628906 0-5.210938 1.070312-7.070312 2.929688-1.859376 1.859374-2.929688 4.441406-2.929688 7.070312s1.070312 5.210938 2.929688 7.070312c1.859374 1.859376 4.441406 2.929688 7.070312 2.929688s5.210938-1.070312 7.070312-2.929688c1.859376-1.859374 2.929688-4.441406 2.929688-7.070312s-1.070312-5.210938-2.929688-7.070312c-1.859374-1.859376-4.441406-2.929688-7.070312-2.929688zm0 0"/><path d="m384 457c-2.628906 0-5.210938 1.070312-7.070312 2.929688-1.859376 1.859374-2.929688 4.441406-2.929688 7.070312s1.070312 5.210938 2.929688 7.070312c1.859374 1.859376 4.441406 2.929688 7.070312 2.929688s5.210938-1.070312 7.070312-2.929688c1.859376-1.859374 2.929688-4.429687 2.929688-7.070312s-1.070312-5.210938-2.929688-7.070312c-1.859374-1.859376-4.441406-2.929688-7.070312-2.929688zm0 0"/><path d="m17.070312 163.738281 65.820313-65.816406c1.722656 5.394531 4.710937 10.472656 8.984375 14.746094 4.285156 4.285156 9.378906 7.277343 14.796875 8.996093l-103.738281 103.738282c-3.902344 3.902344-3.902344 10.234375 0 14.140625 1.953125 1.953125 4.511718 2.929687 7.074218 2.929687 2.558594 0 5.117188-.976562 7.070313-2.929687l109.085937-109.085938 46.519532 46.519531c5.828125 5.828126 13.578125 9.039063 21.820312 9.039063 4.785156 0 9.402344-1.089844 13.574219-3.136719l27.523437 27.519532c1.953126 1.953124 4.511719 2.929687 7.070313 2.929687s5.117187-.976563 7.070313-2.929687c3.90625-3.90625 3.90625-10.238282 0-14.140626l-27.519532-27.523437c2.046875-4.175781 3.136719-8.792969 3.136719-13.578125 0-8.242188-3.210937-15.992188-9.039063-21.816406l-72.574218-72.578125c-.015625-.015625-.03125-.027344-.050782-.042969-6.941406-6.902344-16.144531-10.703125-25.941406-10.703125-9.828125 0-19.070312 3.828125-26.023437 10.78125l-88.800781 88.800781c-3.90625 3.90625-3.90625 10.238282 0 14.144532 3.90625 3.902343 10.234374 3.902343 14.140624-.003907zm188.289063-8.582031c0 2.902344-1.128906 5.625-3.175781 7.675781v.003907c-.003906 0-.003906 0-.003906 0-2.050782 2.050781-4.777344 3.179687-7.675782 3.179687-2.898437 0-5.625-1.128906-7.675781-3.179687l-46.519531-46.519532 3.472656-3.472656c4.203125-4.203125 7.253906-9.246094 9.015625-14.746094l49.382813 49.382813c2.050781 2.050781 3.179687 4.777343 3.179687 7.675781zm-75.726563-80.222656.007813.007812c3.171875 3.175782 4.917969 7.390625 4.917969 11.878906 0 4.085938-1.464844 7.941407-4.121094 10.996094-.273438.21875-.535156.457032-.789062.710938-6.515626 6.515625-17.117188 6.511718-23.632813 0-6.515625-6.515625-6.515625-17.117188 0-23.632813.15625-.152343.292969-.316406.433594-.480469 3.101562-2.828124 7.082031-4.398437 11.308593-4.398437 4.484376 0 8.699219 1.746094 11.875 4.917969zm0 0"/></svg>