<svg height="512pt" viewBox="-20 0 512 512" width="512pt" xmlns="http://www.w3.org/2000/svg"><path d="m451.679688 363.226562c-13.101563-16.4375-31.605469-28.074218-52.097657-32.761718l-102.15625-23.363282c19.9375-17.25 32.574219-42.730468 32.574219-71.101562v-49.5h16c5.523438 0 10-4.476562 10-10v-40c0-5.269531-4.078125-9.578125-9.25-9.960938v-6.453124c0-57.703126-44.355469-105.230469-100.761719-110.296876-.113281-5.425781-4.535156-9.789062-9.988281-9.789062s-9.875 4.363281-9.988281 9.789062c-56.40625 5.066407-100.761719 52.59375-100.761719 110.296876v6.453124c-5.171875.382813-9.25 4.691407-9.25 9.960938v40c0 5.523438 4.476562 10 10 10h16v49.5c0 28.371094 12.636719 53.851562 32.574219 71.101562l-102.15625 23.363282c-20.492188 4.6875-38.996094 16.320312-52.097657 32.761718-13.105468 16.4375-20.320312 37.070313-20.320312 58.089844v80.683594c0 5.523438 4.476562 10 10 10h452c5.523438 0 10-4.476562 10-10v-80.683594c0-21.019531-7.214844-41.652344-20.320312-58.089844zm-55.679688-13.042968v141.816406h-150v-85.054688c21.683594-4.613281 38-23.90625 38-46.945312v-35.453125l111.125 25.414063c.292969.066406.582031.148437.875.222656zm-188-24.441406c8.847656 2.765624 18.253906 4.257812 28 4.257812s19.152344-1.492188 28-4.257812v34.257812c0 15.4375-12.5625 28-28 28s-28-12.5625-28-28zm-46-132.148438c0-3.910156 3.183594-7.09375 7.09375-7.09375h49.8125c3.910156 0 7.09375 3.183594 7.09375 7.09375v25.8125c0 3.910156-3.183594 7.09375-7.09375 7.09375h-49.8125c-3.910156 0-7.09375-3.183594-7.09375-7.09375zm84 0c0-3.910156 3.183594-7.09375 7.09375-7.09375h49.8125c3.910156 0 7.09375 3.183594 7.09375 7.09375v25.8125c0 3.910156-3.183594 7.09375-7.09375 7.09375h-49.8125c-3.910156 0-7.09375-3.183594-7.09375-7.09375zm-100.75-73.507812c0-46.660157 35.398438-85.203126 80.75-90.199219v69.78125c0 5.519531 4.476562 10 10 10s10-4.480469 10-10v-69.78125c45.351562 4.996093 80.75 43.539062 80.75 90.199219v6.414062h-181.5zm-9.25 26.414062h200v20h-200zm26.660156 99.222656c2.0625.503906 4.214844.777344 6.433594.777344h49.8125c6.476562 0 12.429688-2.285156 17.09375-6.089844 4.664062 3.804688 10.617188 6.089844 17.09375 6.089844h49.8125c2.21875 0 4.371094-.273438 6.433594-.777344-4.777344 36.222656-35.832032 64.277344-73.339844 64.277344s-68.5625-28.054688-73.339844-64.277344zm25.339844 78.824219v35.453125c0 23.039062 16.316406 42.332031 38 46.945312v85.054688h-110v-30c0-5.523438-4.476562-10-10-10s-10 4.476562-10 10v30h-20v-141.816406c.292969-.074219.582031-.15625.875-.222656zm-168 96.769531c0-26.636718 14.070312-50.253906 36-63.09375v133.777344h-36zm432 70.683594h-36v-133.777344c21.929688 12.839844 36 36.457032 36 63.09375zm0 0"/><path d="m106 438c2.628906 0 5.210938-1.070312 7.070312-2.929688 1.859376-1.859374 2.929688-4.441406 2.929688-7.070312s-1.070312-5.210938-2.929688-7.070312c-1.859374-1.859376-4.441406-2.929688-7.070312-2.929688s-5.210938 1.070312-7.070312 2.929688c-1.859376 1.859374-2.929688 4.441406-2.929688 7.070312s1.070312 5.210938 2.929688 7.070312c1.859374 1.859376 4.441406 2.929688 7.070312 2.929688zm0 0"/><path d="m328.667969 440h27.832031c5.523438 0 10-4.476562 10-10s-4.476562-10-10-10h-27.832031c-5.523438 0-10 4.476562-10 10s4.476562 10 10 10zm0 0"/><path d="m283 430c0 2.628906 1.070312 5.210938 2.929688 7.070312 1.859374 1.859376 4.441406 2.929688 7.070312 2.929688s5.210938-1.070312 7.070312-2.929688c1.859376-1.859374 2.929688-4.441406 2.929688-7.070312s-1.070312-5.210938-2.929688-7.070312c-1.859374-1.859376-4.441406-2.929688-7.070312-2.929688s-5.210938 1.070312-7.070312 2.929688c-1.859376 1.859374-2.929688 4.441406-2.929688 7.070312zm0 0"/></svg>