<svg height="512pt" viewBox="0 -20 512 512" width="512pt" xmlns="http://www.w3.org/2000/svg"><path d="m90.429688 338.980469c-1.859376 1.859375-2.929688 4.429687-2.929688 7.070312 0 2.628907 1.070312 5.207031 2.929688 7.066407 1.859374 1.859374 4.441406 2.933593 7.070312 2.933593s5.210938-1.070312 7.070312-2.933593c1.859376-1.859376 2.929688-4.4375 2.929688-7.066407 0-2.632812-1.070312-5.210937-2.929688-7.070312-1.859374-1.859375-4.441406-2.929688-7.070312-2.929688-2.640625 0-5.210938 1.070313-7.070312 2.929688zm0 0"/><path d="m64 261.050781c-2.628906 0-5.210938 1.070313-7.070312 2.929688-1.859376 1.859375-2.929688 4.429687-2.929688 7.070312 0 2.628907 1.070312 5.210938 2.929688 7.070313 1.859374 1.859375 4.441406 2.929687 7.070312 2.929687s5.210938-1.070312 7.070312-2.929687c1.859376-1.859375 2.929688-4.441406 2.929688-7.070313 0-2.628906-1.070312-5.210937-2.929688-7.070312-1.859374-1.859375-4.441406-2.929688-7.070312-2.929688zm0 0"/><path d="m256 261.050781c-2.628906 0-5.210938 1.070313-7.070312 2.929688-1.859376 1.859375-2.929688 4.441406-2.929688 7.070312 0 2.628907 1.070312 5.210938 2.929688 7.070313 1.859374 1.859375 4.441406 2.929687 7.070312 2.929687s5.210938-1.070312 7.070312-2.929687c1.859376-1.859375 2.929688-4.441406 2.929688-7.070313 0-2.628906-1.070312-5.210937-2.929688-7.070312-1.859374-1.859375-4.441406-2.929688-7.070312-2.929688zm0 0"/><path d="m192 261.050781c-2.628906 0-5.210938 1.070313-7.070312 2.929688-1.859376 1.859375-2.929688 4.441406-2.929688 7.070312 0 2.628907 1.070312 5.210938 2.929688 7.070313 1.859374 1.859375 4.441406 2.929687 7.070312 2.929687s5.210938-1.070312 7.070312-2.929687c1.859376-1.859375 2.929688-4.441406 2.929688-7.070313 0-2.628906-1.070312-5.210937-2.929688-7.070312-1.859374-1.859375-4.441406-2.929688-7.070312-2.929688zm0 0"/><path d="m128 261.050781c-2.628906 0-5.210938 1.070313-7.070312 2.929688-1.859376 1.859375-2.929688 4.441406-2.929688 7.070312 0 2.628907 1.070312 5.210938 2.929688 7.070313 1.859374 1.859375 4.441406 2.929687 7.070312 2.929687s5.210938-1.070312 7.070312-2.929687c1.859376-1.859375 2.929688-4.441406 2.929688-7.070313 0-2.628906-1.070312-5.210937-2.929688-7.070312-1.859374-1.859375-4.441406-2.929688-7.070312-2.929688zm0 0"/><path d="m448 261.050781c-2.628906 0-5.210938 1.070313-7.070312 2.929688-1.859376 1.859375-2.929688 4.441406-2.929688 7.070312 0 2.628907 1.070312 5.210938 2.929688 7.070313 1.859374 1.859375 4.441406 2.929687 7.070312 2.929687s5.210938-1.070312 7.070312-2.929687c1.859376-1.859375 2.929688-4.441406 2.929688-7.070313 0-2.628906-1.070312-5.210937-2.929688-7.070312-1.859374-1.859375-4.441406-2.929688-7.070312-2.929688zm0 0"/><path d="m320 261.050781c-2.628906 0-5.210938 1.070313-7.070312 2.929688-1.859376 1.859375-2.929688 4.429687-2.929688 7.070312 0 2.628907 1.070312 5.210938 2.929688 7.070313 1.859374 1.859375 4.441406 2.929687 7.070312 2.929687s5.210938-1.070312 7.070312-2.929687c1.859376-1.859375 2.929688-4.441406 2.929688-7.070313 0-2.628906-1.070312-5.210937-2.929688-7.070312-1.859374-1.859375-4.441406-2.929688-7.070312-2.929688zm0 0"/><path d="m384 261.050781c-2.628906 0-5.210938 1.070313-7.070312 2.929688-1.859376 1.859375-2.929688 4.441406-2.929688 7.070312 0 2.628907 1.070312 5.210938 2.929688 7.070313 1.859374 1.859375 4.441406 2.929687 7.070312 2.929687s5.210938-1.070312 7.070312-2.929687c1.859376-1.859375 2.929688-4.441406 2.929688-7.070313 0-2.628906-1.070312-5.210937-2.929688-7.070312-1.859374-1.859375-4.441406-2.929688-7.070312-2.929688zm0 0"/><path d="m363 452c-2.628906 0-5.210938 1.070312-7.070312 2.929688-1.859376 1.859374-2.929688 4.441406-2.929688 7.070312s1.070312 5.210938 2.929688 7.070312c1.859374 1.859376 4.441406 2.929688 7.070312 2.929688s5.210938-1.070312 7.070312-2.929688c1.859376-1.859374 2.929688-4.441406 2.929688-7.070312s-1.070312-5.210938-2.929688-7.070312c-1.859374-1.859376-4.441406-2.929688-7.070312-2.929688zm0 0"/><path d="m466.070312 101.25c4.992188-7.132812 7.929688-15.804688 7.929688-25.152344v-13.039062c3.832031-1.402344 6.574219-5.070313 6.574219-9.386719v-3.097656c0-27.886719-22.6875-50.574219-50.574219-50.574219s-50.574219 22.6875-50.574219 50.574219v3.097656c0 4.316406 2.742188 7.984375 6.574219 9.386719v13.039062c0 9.347656 2.9375 18.019532 7.929688 25.152344-26.175782 5.363281-45.929688 28.574219-45.929688 56.316406v68.484375h-10v-68.484375c0-27.738281-19.753906-50.953125-45.929688-56.316406 4.992188-7.132812 7.929688-15.804688 7.929688-25.152344v-13.039062c3.832031-1.402344 6.574219-5.070313 6.574219-9.386719v-3.097656c0-27.886719-22.6875-50.574219-50.574219-50.574219s-50.574219 22.6875-50.574219 50.574219v3.097656c0 4.316406 2.742188 7.984375 6.574219 9.386719v13.039062c0 9.347656 2.9375 18.019532 7.929688 25.152344-26.175782 5.363281-45.929688 28.574219-45.929688 56.316406v68.484375h-10v-68.484375c0-27.738281-19.753906-50.953125-45.929688-56.316406 4.992188-7.132812 7.929688-15.804688 7.929688-25.152344v-13.039062c3.832031-1.402344 6.574219-5.070313 6.574219-9.386719v-3.097656c0-27.886719-22.6875-50.574219-50.574219-50.574219s-50.574219 22.6875-50.574219 50.574219v3.097656c0 4.316406 2.742188 7.984375 6.574219 9.386719v13.039062c0 9.347656 2.9375 18.019532 7.929688 25.152344-26.175782 5.363281-45.929688 28.574219-45.929688 56.316406v304.433594c0 5.523438 4.476562 10 10 10h310c5.523438 0 10-4.476562 10-10s-4.476562-10-10-10h-300v-95.949219h34c5.523438 0 10-4.480469 10-10 0-5.523437-4.476562-10-10-10h-34v-20h472v135.949219h-89c-5.523438 0-10 4.476562-10 10s4.476562 10 10 10h99c5.523438 0 10-4.476562 10-10v-304.433594c0-27.742187-19.753906-50.953125-45.929688-56.316406zm-36.609374-1.164062c-12.984376-.289063-23.460938-10.9375-23.460938-23.988282v-12.425781h48v12.425781c0 13.054688-10.476562 23.699219-23.460938 23.988282zm30.328124-56.414063h-19.789062v-21.988281c9.835938 3.414062 17.410156 11.714844 19.789062 21.988281zm-39.789062-21.988281v21.988281h-19.789062c2.378906-10.273437 9.953124-18.574219 19.789062-21.988281zm-52 135.882812c0-20.667968 16.8125-37.480468 37.480469-37.480468h23.980469c.179687 0 .359374.011718.539062.011718s.359375-.011718.539062-.011718h23.980469c20.667969 0 37.480469 16.8125 37.480469 37.480468v68.480469h-16v-62c0-5.519531-4.476562-10-10-10h-72c-5.523438 0-10 4.480469-10 10v62h-16zm88 68.484375h-52v-52h52zm-200.539062-125.964843c-12.984376-.289063-23.460938-10.9375-23.460938-23.988282v-12.425781h48v12.425781c0 13.054688-10.476562 23.699219-23.460938 23.988282zm30.328124-56.414063h-19.789062v-21.988281c9.835938 3.414062 17.410156 11.714844 19.789062 21.988281zm-39.789062-21.988281v21.988281h-19.789062c2.378906-10.273437 9.953124-18.574219 19.789062-21.988281zm-52 135.882812c0-20.667968 16.8125-37.480468 37.480469-37.480468h23.980469c.179687 0 .359374.011718.539062.011718s.359375-.011718.539062-.011718h23.980469c20.667969 0 37.480469 16.8125 37.480469 37.480468v68.480469h-16v-62c0-5.519531-4.476562-10-10-10h-72c-5.523438 0-10 4.480469-10 10v62h-16zm88 68.484375h-52v-52h52zm-200.539062-125.964843c-12.984376-.289063-23.460938-10.9375-23.460938-23.988282v-12.425781h48v12.425781c0 13.054688-10.476562 23.699219-23.460938 23.988282zm30.328124-56.414063h-19.789062v-21.988281c9.835938 3.414062 17.410156 11.714844 19.789062 21.988281zm-39.789062-21.988281v21.988281h-19.789062c2.378906-10.273437 9.953124-18.574219 19.789062-21.988281zm-52 135.882812c0-20.667968 16.8125-37.480468 37.480469-37.480468h23.980469c.179687 0 .359374.011718.539062.011718s.359375-.011718.539062-.011718h23.980469c20.667969 0 37.480469 16.8125 37.480469 37.480468v68.480469h-16v-62c0-5.519531-4.476562-10-10-10h-72c-5.523438 0-10 4.480469-10 10v62h-16zm88 68.484375h-52v-52h52zm-88 20h472v50h-472zm0 0"/></svg>