<svg viewBox="1 1 511.99982 511" xmlns="http://www.w3.org/2000/svg"><path d="m149.621094 384.449219c2.628906 0 5.207031-1.058594 7.070312-2.929688 1.859375-1.859375 2.929688-4.4375 2.929688-7.070312 0-2.628907-1.070313-5.199219-2.929688-7.070313-1.863281-1.859375-4.441406-2.929687-7.070312-2.929687-2.632813 0-5.210938 1.070312-7.070313 2.929687-1.859375 1.863282-2.929687 4.441406-2.929687 7.070313 0 2.640625 1.070312 5.210937 2.929687 7.070312 1.859375 1.871094 4.4375 2.929688 7.070313 2.929688zm0 0"/><path d="m511.320312 314.828125c-1.496093-3.84375-5.199218-6.375-9.320312-6.375h-114.664062c12.992187-3.320313 23.523437-12.832031 28.28125-25.1875.703124.15625 1.433593.246094 2.1875.246094h30.195312c5.523438 0 10-4.476563 10-10v-47.136719c0-18.058594-8.777344-34.105469-22.28125-44.105469l31.453125-59.425781c1.441406-2.722656 1.546875-5.957031.285156-8.769531l-24.015625-53.574219h4.558594c5.523438 0 10-4.476562 10-10v-30h44c5.523438 0 10-4.476562 10-10s-4.476562-10-10-10h-492c-5.523438 0-10 4.476562-10 10s4.476562 10 10 10h44v30c0 5.523438 4.476562 10 10 10h4.558594l-24.019532 53.574219c-1.257812 2.8125-1.152343 6.046875.289063 8.769531l31.453125 59.425781c-13.503906 10.003907-22.28125 26.046875-22.28125 44.105469v47.136719c0 2.65625 1.054688 5.203125 2.933594 7.078125 1.875 1.871094 4.417968 2.921875 7.066406 2.921875h.015625l45.023437-.070313c4.789063 12.269532 15.28125 21.707032 28.210938 25.011719h-127.25c-4.125 0-7.824219 2.53125-9.320312 6.375-1.492188 3.84375-.476563 8.210937 2.5625 10.996094l57.832031 53.027343v123.648438c0 5.519531 4.476562 10 10 10h369.851562c5.523438 0 10-4.480469 10-10v-123.648438l57.832031-53.027343c3.039063-2.785157 4.054688-7.152344 2.5625-10.996094zm-134.195312-25.09375c-11.707031 0-21.234375-9.523437-21.234375-21.234375 0-11.707031 9.527344-21.234375 21.234375-21.234375 11.710938 0 21.238281 9.527344 21.238281 21.234375 0 11.710938-9.527343 21.234375-21.238281 21.234375zm60.875-26.222656h-19.949219c-2.472656-20.390625-19.875-36.246094-40.925781-36.246094-21.019531 0-38.40625 15.8125-40.910156 36.167969h-76.929688v-71.914063h143.859375c19.21875 0 34.855469 15.636719 34.855469 34.855469zm-219.332031-203.011719c5.523437 0 10-4.476562 10-10v-30h54.664062v30c0 5.523438 4.476563 10 10 10h10v29.921875h-94.664062v-29.921875zm40.617187 49.921875h49.183594c10.308594 0 19.566406 5.734375 24.160156 14.960937l22.964844 46.136719h-96.308594zm-69.183594 0h49.183594v61.097656h-96.308594l22.964844-46.136719c4.59375-9.226562 13.851563-14.960937 24.160156-14.960937zm257.109376 7.378906-29.480469 55.703125c-4.648438-1.285156-9.535157-1.984375-14.585938-1.984375h-25.210937l-27.402344-55.050781c-5.699219-11.449219-15.527344-19.804688-27.199219-23.660156v-32.308594h10c5.523438 0 10-4.476562 10-10v-30h54.667969v30c0 5.523438 4.476562 10 10 10h13.523438zm-9.210938-97.300781v20h-10.207031c-.003907 0-.007813 0-.011719 0h-9.78125v-20zm-114.667969 0v20h-20v-20zm-114.664062 0v20h-20v-20zm-114.667969 0v20h-9.765625c-.023437 0-.042969 0-.0625 0h-10.171875v-20zm-29.210938 97.300781 25.6875-57.300781h13.523438c5.523438 0 10-4.476562 10-10v-30h54.667969v30c0 5.523438 4.476562 10 10 10h10v29.949219c-17.367188.515625-32.84375 10.382812-40.628907 26.019531l-27.402343 55.050781h-11.777344c-5.050781 0-9.941406.699219-14.585937 1.984375zm9.210938 108.574219c0-19.21875 15.636719-34.855469 34.855469-34.855469h130.429687v71.914063h-50.910156c-2.507812-20.355469-19.890625-36.167969-40.914062-36.167969-21.023438 0-38.414063 15.820313-40.914063 36.179687l-32.546875.050782zm52.226562 42.125c0-11.710938 9.523438-21.234375 21.234376-21.234375 11.710937 0 21.234374 9.523437 21.234374 21.234375 0 11.707031-9.523437 21.234375-21.234374 21.234375-11.710938 0-21.234376-9.527344-21.234376-21.234375zm59.660157 14.933594h152.816406c4.785156 12.273437 15.28125 21.714844 28.210937 25.019531h-16.601562c-2.5 0-4.914062.9375-6.757812 2.632813l-54.3125 49.800781-54.3125-49.800781c-1.84375-1.691407-4.257813-2.632813-6.757813-2.632813h-70.5c12.933594-3.304687 23.425781-12.746094 28.214844-25.019531zm-77.386719 81.019531h-33.539062l-39.257813-36h188.578125l39.257812 36h-72.539062c-5.523438 0-10 4.476563-10 10s4.476562 10 10 10h88.242188v108.046875h-198.167969v-108.046875h27.425781c5.523438 0 10-4.476563 10-10s-4.476562-10-10-10zm322.425781 128.046875h-20v-36c0-5.523438-4.476562-10-10-10-5.523437 0-10 4.476562-10 10v36h-91.683593v-108.046875h131.683593zm6.109375-128.046875h-122.089844l39.261719-36h122.089844zm0 0"/><path d="m209.804688 234.542969c5.523437 0 10-4.480469 10-10v-.117188c0-5.523437-4.476563-10-10-10-5.523438 0-10 4.476563-10 10v.117188c0 5.523437 4.476562 10 10 10zm0 0"/><path d="m400.929688 430.5c2.628906 0 5.210937-1.070312 7.070312-2.933594 1.859375-1.855468 2.929688-4.4375 2.929688-7.066406 0-2.632812-1.070313-5.210938-2.929688-7.070312-1.859375-1.859376-4.441406-2.929688-7.070312-2.929688-2.628907 0-5.210938 1.066406-7.070313 2.929688-1.859375 1.859374-2.929687 4.4375-2.929687 7.070312 0 2.628906 1.070312 5.210938 2.929687 7.066406 1.859375 1.863282 4.441406 2.933594 7.070313 2.933594zm0 0"/></svg>