<svg height="512pt" viewBox="0 -46 512 512" width="512pt" xmlns="http://www.w3.org/2000/svg"><path d="m456.925781 250.871094-69.8125-15.96875c12.957031-12.941406 20.984375-30.820313 20.984375-50.535156v-33.539063h9.023438c5.523437 0 10-4.476563 10-10v-38.269531c0-4.386719-2.832032-8.109375-6.769532-9.453125v-2.558594c0-42.898437-32.4375-78.34375-74.070312-83.144531-1.144531-4.261719-5.023438-7.402344-9.648438-7.402344-4.621093 0-8.5 3.140625-9.648437 7.402344-34.082031 3.929687-61.980469 28.398437-70.984375 60.683594-9.007812-32.285157-36.90625-56.753907-70.988281-60.683594-1.144531-4.261719-5.023438-7.402344-9.648438-7.402344-4.621093 0-8.5 3.140625-9.644531 7.402344-41.632812 4.800781-74.074219 40.246094-74.074219 83.144531v2.558594c-3.933593 1.34375-6.765625 5.066406-6.765625 9.453125v38.269531c0 5.523437 4.476563 10 10 10h9.023438v33.539063c0 19.714843 8.027344 37.59375 20.984375 50.535156l-69.816407 15.96875c-32.421874 7.417968-55.070312 35.828125-55.070312 69.09375v89.035156c0 5.523438 4.476562 10 10 10h492c5.523438 0 10-4.476562 10-10v-89.035156c0-33.265625-22.648438-61.675782-55.074219-69.09375zm-365.925781 106.128906c-5.523438 0-10 4.476562-10 10v32h-20.023438v-128.960938l76.585938-17.519531v22.578125c0 17.382813 11.796875 32.054688 27.804688 36.453125v87.449219h-64.367188v-32c0-5.523438-4.476562-10-10-10zm13.878906-226.171875v-18.269531h140.976563v18.269531zm302.242188 0h-140.976563v-18.269531h140.976563zm-160.292969 20h9.023437c.050782 0 .097657-.007813.148438-.007813.046875.003907.097656.007813.144531.007813h9.023438v33.539063c0 19.714843 8.027343 37.59375 20.984375 50.535156l-30.15625 6.898437-30.152344-6.898437c12.957031-12.941406 20.984375-30.820313 20.984375-50.535156zm97.796875 140.1875c-5.484375-12.355469-14.429688-22.878906-25.796875-30.3125v-7.121094c5.695313 1.46875 11.660156 2.246094 17.804687 2.246094 6.144532 0 12.113282-.78125 17.804688-2.246094v21.515625c0 6.832032-3.929688 12.953125-9.8125 15.917969zm-169.257812 1.886719c-9.816407 0-17.804688-7.988282-17.804688-17.804688v-21.515625c5.691406 1.464844 11.660156 2.246094 17.804688 2.246094 6.144531 0 12.109374-.78125 17.804687-2.246094v21.515625c0 9.816406-7.988281 17.804688-17.804687 17.804688zm10 18.648437c16.003906-4.398437 27.804687-19.070312 27.804687-36.453125v-22.578125l76.585937 17.519531v128.960938h-104.390624zm124.390624-32.800781c12.902344 9.3125 20.972657 24.394531 20.972657 41.214844v79.035156h-20.972657zm40.339844 31.671875c14.402344-5.5 24.339844-19.507813 24.339844-35.324219v-22.578125l76.585938 17.519531v128.960938h-100.292969v-79.035156c0-3.234375-.21875-6.417969-.632813-9.542969zm38-126.054687c0 28.375-23.085937 51.460937-51.460937 51.460937-28.378907 0-51.464844-23.085937-51.464844-51.460937v-33.539063h102.925781zm-115.183594-93.816407c0-31.734375 23.320313-58.117187 53.722657-62.929687v37.878906c0 5.523438 4.476562 10 10 10 5.519531 0 10-4.476562 10-10v-37.878906c30.398437 4.8125 53.71875 31.195312 53.71875 62.929687v2.011719h-127.441407zm-161.269531 0c0-31.734375 23.320313-58.117187 53.722657-62.929687v37.878906c0 5.523438 4.476562 10 10 10 5.523437 0 10-4.476562 10-10v-37.878906c30.398437 4.8125 53.71875 31.195312 53.71875 62.929687v2.011719h-127.441407zm12.257813 93.816407v-33.539063h102.925781v33.539063c0 28.375-23.085937 51.460937-51.460937 51.460937-28.378907 0-51.464844-23.085937-51.464844-51.460937zm-103.902344 135.597656c0-16.820313 8.074219-31.902344 20.976562-41.214844v120.25h-20.976562zm472 79.035156h-20.976562v-120.25c12.902343 9.3125 20.976562 24.394531 20.976562 41.214844zm0 0"/><path d="m385.292969 336.316406h39.511719c5.523437 0 10-4.476562 10-10 0-5.519531-4.476563-10-10-10h-39.511719c-5.523438 0-10 4.480469-10 10 0 5.523438 4.476562 10 10 10zm0 0"/><path d="m98.070312 322.929688c-1.859374-1.859376-4.441406-2.929688-7.070312-2.929688s-5.210938 1.070312-7.070312 2.929688c-1.859376 1.859374-2.929688 4.441406-2.929688 7.070312s1.070312 5.210938 2.929688 7.070312c1.859374 1.859376 4.441406 2.929688 7.070312 2.929688s5.210938-1.070312 7.070312-2.929688c1.859376-1.859374 2.929688-4.441406 2.929688-7.070312s-1.070312-5.210938-2.929688-7.070312zm0 0"/><path d="m263.535156 316.316406h-39.511718c-5.519532 0-10 4.480469-10 10 0 5.523438 4.480468 10 10 10h39.511718c5.523438 0 10-4.476562 10-10 0-5.519531-4.476562-10-10-10zm0 0"/></svg>