<svg height="512pt" viewBox="0 0 512 512" width="512pt" xmlns="http://www.w3.org/2000/svg"><path d="m64 457c-2.628906 0-5.210938 1.070312-7.070312 2.929688-1.859376 1.859374-2.929688 4.441406-2.929688 7.070312s1.070312 5.210938 2.929688 7.070312c1.859374 1.859376 4.441406 2.929688 7.070312 2.929688s5.210938-1.070312 7.070312-2.929688c1.859376-1.859374 2.929688-4.441406 2.929688-7.070312s-1.070312-5.210938-2.929688-7.070312c-1.859374-1.859376-4.441406-2.929688-7.070312-2.929688zm0 0"/><path d="m256 457c-2.628906 0-5.210938 1.070312-7.070312 2.929688-1.859376 1.859374-2.929688 4.441406-2.929688 7.070312s1.070312 5.210938 2.929688 7.070312c1.859374 1.859376 4.441406 2.929688 7.070312 2.929688s5.210938-1.070312 7.070312-2.929688c1.859376-1.859374 2.929688-4.441406 2.929688-7.070312s-1.070312-5.210938-2.929688-7.070312c-1.859374-1.859376-4.441406-2.929688-7.070312-2.929688zm0 0"/><path d="m192 457c-2.628906 0-5.210938 1.070312-7.070312 2.929688-1.859376 1.859374-2.929688 4.441406-2.929688 7.070312s1.070312 5.210938 2.929688 7.070312c1.859374 1.859376 4.441406 2.929688 7.070312 2.929688s5.210938-1.070312 7.070312-2.929688c1.859376-1.859374 2.929688-4.441406 2.929688-7.070312s-1.070312-5.210938-2.929688-7.070312c-1.859374-1.859376-4.441406-2.929688-7.070312-2.929688zm0 0"/><path d="m128 457c-2.628906 0-5.210938 1.070312-7.070312 2.929688-1.859376 1.859374-2.929688 4.441406-2.929688 7.070312s1.070312 5.210938 2.929688 7.070312c1.859374 1.859376 4.441406 2.929688 7.070312 2.929688s5.210938-1.070312 7.070312-2.929688c1.859376-1.859374 2.929688-4.441406 2.929688-7.070312s-1.070312-5.210938-2.929688-7.070312c-1.859374-1.859376-4.441406-2.929688-7.070312-2.929688zm0 0"/><path d="m448 457c-2.628906 0-5.210938 1.070312-7.070312 2.929688-1.859376 1.859374-2.929688 4.441406-2.929688 7.070312s1.070312 5.210938 2.929688 7.070312c1.859374 1.859376 4.441406 2.929688 7.070312 2.929688s5.210938-1.070312 7.070312-2.929688c1.859376-1.859374 2.929688-4.441406 2.929688-7.070312s-1.070312-5.210938-2.929688-7.070312c-1.859374-1.859376-4.441406-2.929688-7.070312-2.929688zm0 0"/><path d="m320 457c-2.628906 0-5.210938 1.070312-7.070312 2.929688-1.859376 1.859374-2.929688 4.441406-2.929688 7.070312s1.070312 5.210938 2.929688 7.070312c1.859374 1.859376 4.441406 2.929688 7.070312 2.929688s5.210938-1.070312 7.070312-2.929688c1.859376-1.859374 2.929688-4.441406 2.929688-7.070312s-1.070312-5.210938-2.929688-7.070312c-1.859374-1.859376-4.441406-2.929688-7.070312-2.929688zm0 0"/><path d="m384 457c-2.628906 0-5.210938 1.070312-7.070312 2.929688-1.859376 1.859374-2.929688 4.441406-2.929688 7.070312s1.070312 5.210938 2.929688 7.070312c1.859374 1.859376 4.441406 2.929688 7.070312 2.929688s5.210938-1.070312 7.070312-2.929688c1.859376-1.859374 2.929688-4.441406 2.929688-7.070312s-1.070312-5.210938-2.929688-7.070312c-1.859374-1.859376-4.441406-2.929688-7.070312-2.929688zm0 0"/><path d="m100 20c2.628906 0 5.210938-1.070312 7.070312-2.929688 1.859376-1.859374 2.929688-4.441406 2.929688-7.070312s-1.070312-5.210938-2.929688-7.070312c-1.859374-1.859376-4.441406-2.929688-7.070312-2.929688s-5.210938 1.070312-7.070312 2.929688c-1.859376 1.859374-2.929688 4.441406-2.929688 7.070312s1.070312 5.210938 2.929688 7.070312c1.859374 1.859376 4.441406 2.929688 7.070312 2.929688zm0 0"/><path d="m267.5 148c2.628906 0 5.210938-1.070312 7.070312-2.929688 1.859376-1.859374 2.929688-4.441406 2.929688-7.070312s-1.070312-5.210938-2.929688-7.070312c-1.859374-1.859376-4.441406-2.929688-7.070312-2.929688s-5.210938 1.070312-7.070312 2.929688c-1.859376 1.859374-2.929688 4.441406-2.929688 7.070312s1.070312 5.210938 2.929688 7.070312c1.859374 1.859376 4.441406 2.929688 7.070312 2.929688zm0 0"/><path d="m400.820312 243.195312 24.25-24.25c1.875-1.875 2.929688-4.417968 2.929688-7.070312v-63.875h52c5.523438 0 10-4.476562 10-10v-38h12c5.523438 0 10-4.476562 10-10v-80c0-5.523438-4.476562-10-10-10h-358.332031c-5.523438 0-10 4.476562-10 10s4.476562 10 10 10h348.332031v60h-472v-60h35.503906c5.523438 0 10-4.476562 10-10s-4.476562-10-10-10h-45.503906c-5.523438 0-10 4.476562-10 10v80c0 5.523438 4.476562 10 10 10h12v38c0 5.523438 4.476562 10 10 10h72v63.875c0 2.652344 1.054688 5.195312 2.929688 7.070312l24.25 24.25c1.875 1.875 4.417968 2.929688 7.070312 2.929688h5.640625v12.851562l-3.039063 7.207032c-2.515624 5.964844-8.324218 9.816406-14.792968 9.816406-19.882813 0-36.058594 16.175781-36.058594 36.058594v11.695312c-14.292969 7.898438-24 23.125-24 40.578125v1.667969h-12c-5.523438 0-10 4.476562-10 10v46.023438c-24.351562.539062-44 20.5-44 44.976562 0 24.8125 20.1875 45 45 45h422c24.8125 0 45-20.1875 45-45 0-24.476562-19.648438-44.4375-44-44.976562v-46.023438c0-5.523438-4.476562-10-10-10h-12v-1.667969c0-19.808593-12.503906-36.75-30.027344-43.363281 3.804688-5.847656 6.027344-12.820312 6.027344-20.300781v-2.605469c0-9.574219-3.710938-18.589844-10.453125-25.386719l-15.65625-15.792969v-10.996093c1.851563-.40625 3.570313-1.328125 4.929687-2.691407zm7.179688-35.464843-18.390625 18.394531h-15.21875l-18.390625-18.394531v-59.730469h52zm-366-107.730469h428v28h-157.5c-5.523438 0-10 4.476562-10 10s4.476562 10 10 10h23.5v63.875c0 2.652344 1.054688 5.195312 2.929688 7.070312l24.25 24.25c1.875 1.875 4.417968 2.929688 7.070312 2.929688h5.640625v12.851562l-3.039063 7.207032c-2.515624 5.964844-8.324218 9.816406-14.792968 9.816406-19.882813 0-36.058594 16.175781-36.058594 36.058594v11.695312c-14.292969 7.898438-24 23.125-24 40.578125v1.667969h-12c-5.523438 0-10 4.476562-10 10v46h-40v-46c0-5.523438-4.476562-10-10-10h-12v-1.667969c0-19.808593-12.503906-36.75-30.027344-43.363281 3.804688-5.847656 6.027344-12.820312 6.027344-20.300781v-2.605469c0-9.574219-3.710938-18.589844-10.453125-25.386719l-15.65625-15.792969v-10.996093c1.851563-.40625 3.570313-1.328125 4.929687-2.691407l24.25-24.25c1.875-1.875 2.929688-4.417968 2.929688-7.070312v-63.875h27.5c5.523438 0 10-4.476562 10-10s-4.476562-10-10-10h-181.5zm82 107.730469v-59.730469h52v59.730469l-18.390625 18.394531h-15.21875zm-14 104.328125c0-8.855469 7.203125-16.058594 16.058594-16.058594 12.859375 0 24.550781-6.777344 30.988281-17.613281l8.296875 8.367187c3.003906 3.027344 4.65625 7.046875 4.65625 11.308594v2.605469c0 9.558593-7.777344 17.332031-17.332031 17.332031h-40.332031c-.785157 0-1.5625.019531-2.335938.058594zm-24 52.273437c0-14.519531 11.8125-26.332031 26.332031-26.332031h55.332031c14.523438 0 26.335938 11.8125 26.335938 26.332031v1.667969h-108zm-22 21.667969h152v36h-152zm428 81c0 13.785156-11.214844 25-25 25h-422c-13.785156 0-25-11.214844-25-25s11.214844-25 25-25h422c13.785156 0 25 11.214844 25 25zm-44-45h-152v-36h152zm-22-57.667969v1.667969h-108v-1.667969c0-14.519531 11.8125-26.332031 26.332031-26.332031h55.332031c14.523438 0 26.335938 11.8125 26.335938 26.332031zm-24-66.269531v2.605469c0 9.558593-7.777344 17.332031-17.332031 17.332031h-40.332031c-.785157 0-1.5625.019531-2.335938.058594v-6c0-8.855469 7.203125-16.058594 16.058594-16.058594 12.859375 0 24.554687-6.777344 30.988281-17.617188l8.300781 8.371094c3 3.027344 4.652344 7.046875 4.652344 11.308594zm0 0"/></svg>