<svg height="512pt" viewBox="0 0 512 512" width="512pt" xmlns="http://www.w3.org/2000/svg"><path d="m218 255.171875c-2.628906 0-5.210938 1.066406-7.070312 2.929687-1.859376 1.859376-2.929688 4.4375-2.929688 7.070313 0 2.628906 1.070312 5.207031 2.929688 7.066406 1.859374 1.859375 4.429687 2.933594 7.070312 2.933594 2.628906 0 5.210938-1.070313 7.070312-2.933594 1.859376-1.859375 2.929688-4.4375 2.929688-7.066406 0-2.632813-1.070312-5.210937-2.929688-7.070313-1.859374-1.863281-4.441406-2.929687-7.070312-2.929687zm0 0"/><path d="m178.140625 225.3125c-3.90625 3.90625-3.90625 10.238281 0 14.140625 3.90625 3.90625 10.238281 3.90625 14.144531 0 14.179688-14.179687 37.253906-14.179687 51.433594 0 1.953125 1.953125 4.511719 2.929687 7.070312 2.929687 2.558594 0 5.117188-.976562 7.070313-2.929687 3.90625-3.902344 3.90625-10.234375 0-14.140625-21.976563-21.980469-57.742187-21.980469-79.71875 0zm0 0"/><path d="m294.503906 188.664062c-42.183594-42.183593-110.824218-42.183593-153.007812 0-3.90625 3.90625-3.90625 10.238282 0 14.144532s10.234375 3.90625 14.140625 0c34.386719-34.386719 90.339843-34.386719 124.726562 0 1.953125 1.953125 4.511719 2.929687 7.070313 2.929687s5.117187-.976562 7.070312-2.929687c3.90625-3.90625 3.90625-10.238282 0-14.144532zm0 0"/><path d="m507.109375 271.566406-71.109375-42.25v-48.519531c0-5.523437-4.476562-10-10-10h-29.964844c-4.207031-15.898437-10.5-31.078125-18.78125-45.292969l21.203125-21.203125c3.902344-3.90625 3.902344-10.238281 0-14.144531l-52.613281-52.613281c-3.90625-3.902344-10.238281-3.902344-14.144531 0l-21.203125 21.203125c-14.214844-8.28125-29.394532-14.574219-45.292969-18.78125v-29.964844c0-5.523438-4.476563-10-10-10h-74.40625c-5.523437 0-10 4.476562-10 10v29.90625c-15.929687 4.191406-31.132813 10.480469-45.375 18.757812l-21.121094-21.121093c-3.90625-3.902344-10.238281-3.902344-14.144531 0l-52.613281 52.613281c-3.902344 3.90625-3.902344 10.238281 0 14.144531l21.070312 21.066407c-8.324219 14.257812-14.644531 29.484374-18.863281 45.429687h-29.75c-5.523438 0-10 4.476563-10 10v74.40625c0 5.523437 4.476562 10 10 10h29.691406c4.207032 15.976563 10.519532 31.226563 18.839844 45.507813l-20.988281 20.988281c-3.902344 3.90625-3.902344 10.238281 0 14.144531l52.613281 52.613281c3.90625 3.902344 10.238281 3.902344 14.144531 0l20.988281-20.988281c14.28125 8.320312 29.53125 14.632812 45.507813 18.839844v29.691406c0 5.523438 4.476563 10 10 10h74.40625c5.523437 0 10-4.476562 10-10v-11.125c21.832031 44.800781 61.066406 80.226562 110.726563 96.621094 1.015624.335937 2.074218.503906 3.132812.503906s2.117188-.167969 3.136719-.503906c77.636719-25.632813 129.800781-97.78125 129.800781-179.542969v-51.789063c0-3.527343-1.859375-6.796874-4.890625-8.597656zm-261.90625 116.8125v27.621094h-54.40625v-27.574219c0-4.707031-3.28125-8.777343-7.882813-9.773437-19.148437-4.152344-37.222656-11.632813-53.71875-22.238282-3.957031-2.542968-9.152343-1.984374-12.480468 1.34375l-19.488282 19.484376-38.46875-38.46875 19.484376-19.488282c3.328124-3.324218 3.886718-8.519531 1.34375-12.480468-10.605469-16.496094-18.085938-34.570313-22.234376-53.71875-1-4.601563-5.070312-7.882813-9.773437-7.882813h-27.578125v-54.40625h27.621094c4.703125 0 8.769531-3.273437 9.773437-7.867187 4.171875-19.121094 11.664063-37.167969 22.269531-53.644532 2.550782-3.957031 1.992188-9.15625-1.335937-12.484375l-19.570313-19.570312 38.472657-38.472657 19.617187 19.617188c3.324219 3.324219 8.511719 3.882812 12.46875 1.34375 16.460938-10.558594 34.492188-18.011719 53.601563-22.15625 4.597656-.996094 7.878906-5.066406 7.878906-9.769531v-27.792969h54.40625v27.839844c0 4.699218 3.277344 8.765625 7.871094 9.769531 19.074219 4.160156 37.082031 11.628906 53.519531 22.191406 3.957031 2.542969 9.148438 1.984375 12.476562-1.339843l19.703126-19.703126 38.46875 38.472657-19.699219 19.699219c-3.328125 3.328124-3.886719 8.523437-1.34375 12.480468 10.566406 16.4375 18.03125 34.441406 22.195312 53.519532 1 4.59375 5.066407 7.867187 9.769531 7.867187h27.835938v26.636719l-31.828125-18.910156c-3.148437-1.871094-7.066406-1.871094-10.21875 0l-36.140625 21.472656c.011719-.664063.023438-1.332032.023438-1.996094 0-66.074219-53.757813-119.835938-119.835938-119.835938s-119.835938 53.757813-119.835938 119.835938 53.757813 119.835938 119.835938 119.835938c9.550781 0 18.976562-1.136719 28.152344-3.347657.199218 15.234375 2.210937 30.121094 5.859375 44.417969-4.027344 1.355469-6.808594 5.140625-6.808594 9.472656zm5.816406-116.8125c-3.03125 1.800782-4.890625 5.066406-4.890625 8.597656v33.652344c-9.097656 2.664063-18.539062 4.019532-28.128906 4.019532-55.050781 0-99.835938-44.785157-99.835938-99.835938s44.785157-99.835938 99.835938-99.835938 99.835938 44.785157 99.835938 99.835938c0 4.855469-.371094 9.71875-1.066407 14.5zm240.980469 60.386719c0 72.003906-45.246094 135.675781-112.9375 159.480469-67.691406-23.804688-112.9375-87.476563-112.9375-159.480469v-46.101563l112.9375-67.101562 112.9375 67.105469zm0 0"/><path d="m373.953125 245.050781-82.933594 49.277344c-3.035156 1.800781-4.894531 5.066406-4.894531 8.597656v29.027344c0 59.101563 34.898438 112.640625 88.910156 136.402344 1.28125.5625 2.65625.847656 4.027344.847656s2.742188-.28125 4.027344-.847656c54.011718-23.761719 88.910156-77.300781 88.910156-136.402344v-29.027344c0-3.527343-1.859375-6.796875-4.890625-8.597656l-82.9375-49.277344c-3.148437-1.871093-7.066406-1.871093-10.21875 0zm78.046875 63.5625v23.339844c0 49.6875-28.480469 94.832031-72.9375 116.242187-44.453125-21.410156-72.9375-66.554687-72.9375-116.242187v-23.339844l72.9375-43.335937zm0 0"/><path d="m366.738281 349.355469c-3.90625-3.90625-10.234375-3.90625-14.144531 0-3.902344 3.902343-3.902344 10.234375 0 14.140625l16.289062 16.289062c1.953126 1.949219 4.511719 2.929688 7.070313 2.929688s5.117187-.980469 7.070313-2.929688l39.628906-39.628906c3.90625-3.90625 3.90625-10.238281 0-14.144531-3.90625-3.902344-10.238282-3.902344-14.144532 0l-32.554687 32.558593zm0 0"/></svg>