<svg height="512pt" viewBox="0 -40 512 512" width="512pt" xmlns="http://www.w3.org/2000/svg"><path d="m355 412.023438c-2.628906 0-5.210938 1.070312-7.070312 2.929687-1.859376 1.871094-2.929688 4.441406-2.929688 7.070313 0 2.628906 1.070312 5.210937 2.929688 7.082031 1.859374 1.859375 4.441406 2.917969 7.070312 2.917969s5.210938-1.058594 7.070312-2.917969c1.859376-1.871094 2.929688-4.453125 2.929688-7.082031 0-2.628907-1.070312-5.199219-2.929688-7.070313-1.859374-1.859375-4.441406-2.929687-7.070312-2.929687zm0 0"/><path d="m478.863281 321.636719c.726563-2.132813 1.136719-4.414063 1.136719-6.789063v-145.332031c0-19.3125-6.523438-38.339844-18.367188-53.589844-9.132812-11.757812-14.164062-26.433593-14.164062-41.320312v-55.007813c0-10.808594-8.789062-19.597656-19.597656-19.597656h-22.21875c-10.804688 0-19.597656 8.789062-19.597656 19.597656v55.046875c0 14.863281-5.015626 29.523438-14.148438 41.304688-11.816406 15.238281-18.324219 34.246093-18.324219 53.527343v145.371094c0 .398438.039063.785156.0625 1.179688h-34.496093c.023437-.390625.058593-.78125.058593-1.179688v-145.332031c0-19.3125-6.523437-38.339844-18.367187-53.589844-9.132813-11.757812-14.164063-26.433593-14.164063-41.320312v-55.007813c0-10.808594-8.789062-19.597656-19.597656-19.597656h-22.21875c-10.804687 0-19.597656 8.789062-19.597656 19.597656v55.046875c0 14.867188-5.015625 29.523438-14.148438 41.304688-11.8125 15.234375-18.320312 34.246093-18.320312 53.527343v145.371094c0 .398438.035156.785156.058593 1.179688h-34.496093c.023437-.390625.0625-.78125.0625-1.179688v-145.332031c0-19.308594-6.523438-38.339844-18.367188-53.589844-9.136719-11.757812-14.164062-26.433593-14.164062-41.320312v-55.007813c0-10.808594-8.792969-19.597656-19.597657-19.597656h-22.21875c-10.808593 0-19.597656 8.789062-19.597656 19.597656v55.046875c0 14.867188-5.019531 29.523438-14.152344 41.304688-11.8125 15.234375-18.320312 34.246093-18.320312 53.527343v145.371094c0 2.375.410156 4.65625 1.136719 6.789063-19.574219 9.328125-33.136719 29.304687-33.136719 52.390625 0 31.980468 26.019531 58 58 58h259c5.523438 0 10-4.476563 10-10 0-5.519532-4.476562-10-10-10h-17.238281c8.855469-10.1875 14.238281-23.472656 14.238281-38s-5.382812-27.8125-14.238281-38h110.476562c-8.855469 10.1875-14.238281 23.472656-14.238281 38s5.382812 27.8125 14.238281 38h-18.570312c-5.523438 0-10 4.480468-10 10 0 5.523437 4.476562 10 10 10h62.332031c31.980469 0 58-26.019532 58-58 0-23.085938-13.5625-43.0625-33.136719-52.390625zm-105.28125-112.722657h86.417969v60h-86.417969zm53.886719-188.914062v31.019531h-21.414062v-31.019531zm-39.734375 108.171875c11.8125-15.238281 18.320313-34.25 18.320313-53.527344v-3.625h21.414062v3.585938c0 19.308593 6.523438 38.339843 18.367188 53.589843 9.132812 11.757813 14.164062 26.429688 14.164062 41.320313v19.398437h-86.417969v-19.4375c0-14.867187 5.019531-29.523437 14.152344-41.304687zm-174.941406 80.742187h86.414062v60h-86.414062zm53.882812-188.914062v31.019531h-21.410156v-31.019531zm-39.734375 108.171875c11.816406-15.238281 18.320313-34.246094 18.320313-53.527344v-3.625h21.414062v3.585938c0 19.308593 6.523438 38.339843 18.367188 53.589843 9.132812 11.757813 14.164062 26.433594 14.164062 41.320313v19.398437h-86.417969v-19.4375c.003907-14.867187 5.019532-29.523437 14.152344-41.304687zm-14.148437 186.675781v-25.933594h86.414062v25.933594c0 .648438-.527343 1.179688-1.179687 1.179688h-84.054688c-.652344 0-1.179687-.53125-1.179687-1.179688zm-.554688 97.179688h-110.476562c8.855469-10.1875 14.238281-23.472656 14.238281-38s-5.382812-27.8125-14.238281-38h110.476562c-8.855469 10.1875-14.238281 23.472656-14.238281 38s5.382812 27.8125 14.238281 38zm-106.351562-392.027344v31.019531h-21.414063v-31.019531zm-39.738281 108.171875c11.816406-15.238281 18.324218-34.246094 18.324218-53.527344v-3.625h21.414063v3.585938c0 19.308593 6.519531 38.339843 18.367187 53.589843 9.132813 11.757813 14.160156 26.433594 14.160156 41.320313v99.398437h-86.414062v-60h23.984375c5.523437 0 10-4.476562 10-10 0-5.523437-4.476563-10-10-10h-23.984375v-19.4375c0-14.867187 5.015625-29.523437 14.148438-41.304687zm-12.96875 187.855469c-.648438 0-1.179688-.527344-1.179688-1.179688v-25.933594h86.417969v25.933594c0 .648438-.53125 1.179688-1.183594 1.179688zm-33.179688 58c0-20.953125 17.046875-38 38-38s38 17.046875 38 38-17.046875 38-38 38-38-17.046875-38-38zm198 0c0-20.953125 17.046875-38 38-38s38 17.046875 38 38-17.046875 38-38 38-38-17.046875-38-38zm155.582031-59.179688v-25.933594h86.417969v25.933594c0 .648438-.527344 1.179688-1.179688 1.179688h-84.054687c-.652344 0-1.183594-.53125-1.183594-1.179688zm80.417969 97.179688c-20.953125 0-38-17.046875-38-38s17.046875-38 38-38 38 17.046875 38 38-17.046875 38-38 38zm0 0"/><path d="m256 364.035156c-2.640625 0-5.210938 1.058594-7.070312 2.917969-1.859376 1.859375-2.929688 4.441406-2.929688 7.070313 0 2.640624 1.070312 5.210937 2.929688 7.070312 1.859374 1.871094 4.441406 2.929688 7.070312 2.929688s5.210938-1.058594 7.070312-2.929688c1.859376-1.859375 2.929688-4.429688 2.929688-7.070312 0-2.628907-1.070312-5.199219-2.929688-7.070313-1.859374-1.859375-4.441406-2.917969-7.070312-2.917969zm0 0"/><path d="m454 364.023438c-2.628906 0-5.210938 1.070312-7.070312 2.929687-1.859376 1.859375-2.929688 4.441406-2.929688 7.070313 0 2.640624 1.070312 5.210937 2.929688 7.070312 1.859374 1.871094 4.441406 2.929688 7.070312 2.929688s5.210938-1.058594 7.070312-2.929688c1.859376-1.859375 2.929688-4.429688 2.929688-7.070312 0-2.628907-1.070312-5.210938-2.929688-7.070313-1.859374-1.859375-4.441406-2.929687-7.070312-2.929687zm0 0"/><path d="m65.070312 381.09375c1.859376-1.859375 2.929688-4.429688 2.929688-7.070312 0-2.628907-1.070312-5.210938-2.929688-7.070313-1.859374-1.859375-4.441406-2.929687-7.070312-2.929687s-5.210938 1.070312-7.070312 2.929687c-1.859376 1.859375-2.929688 4.441406-2.929688 7.070313 0 2.640624 1.070312 5.210937 2.929688 7.070312 1.859374 1.871094 4.441406 2.929688 7.070312 2.929688s5.210938-1.058594 7.070312-2.929688zm0 0"/><path d="m114 208.914062c2.628906 0 5.210938-1.070312 7.070312-2.929687 1.859376-1.863281 2.929688-4.441406 2.929688-7.070313 0-2.632812-1.070312-5.210937-2.929688-7.070312-1.859374-1.859375-4.441406-2.929688-7.070312-2.929688s-5.210938 1.070313-7.070312 2.929688c-1.859376 1.859375-2.929688 4.429688-2.929688 7.070312 0 2.628907 1.070312 5.207032 2.929688 7.070313 1.859374 1.859375 4.441406 2.929687 7.070312 2.929687zm0 0"/></svg>