<svg viewBox="0 0 512 512" xmlns="http://www.w3.org/2000/svg"><path d="m317.328125 152c2.640625 0 5.210937-1.070312 7.070313-2.929688 1.871093-1.859374 2.929687-4.441406 2.929687-7.070312s-1.058594-5.210938-2.929687-7.070312c-1.859376-1.859376-4.4375-2.929688-7.070313-2.929688-2.628906 0-5.207031 1.070312-7.066406 2.929688-1.863281 1.859374-2.933594 4.441406-2.933594 7.070312s1.070313 5.210938 2.933594 7.070312c1.859375 1.859376 4.4375 2.929688 7.066406 2.929688zm0 0"/><path d="m398 76c4.835938 0 8.871094-3.433594 9.800781-8h94.199219c5.523438 0 10-4.476562 10-10v-48c0-5.519531-4.476562-10-10-10h-103.980469c-.007812 0-388.019531 0-388.019531 0-5.523438 0-10 4.476562-10 10v48c0 5.523438 4.476562 10 10 10h306.199219c.929687 4.5625 4.964843 8 9.800781 8h26v97.855469l-33.070312 33.074219c-1.875 1.875-2.929688 4.417968-2.929688 7.070312v26.859375c0 2.652344 1.054688 5.195313 2.929688 7.070313l6.394531 6.394531c1.953125 1.953125 4.511719 2.929687 7.070312 2.929687 2.558594 0 5.121094-.976562 7.074219-2.929687 3.902344-3.902344 3.902344-10.234375 0-14.140625l-3.46875-3.46875v-18.570313l26-26 26 26v18.570313l-3.070312 3.074218c-3.90625 3.902344-3.90625 10.234376 0 14.140626s10.234374 3.90625 14.140624 0l6-6c1.875-1.875 2.929688-4.417969 2.929688-7.070313v-26.859375c0-2.652344-1.054688-5.195312-2.929688-7.070312l-33.070312-33.074219v-21.855469h75.996094c16.542968 0 30 13.457031 30 30v254h-19.996094v-75c0-5.523438-4.476562-10-10-10s-10 4.476562-10 10v75h-56.832031v-44.097656c0-5.523438-4.480469-10-10-10h-19.753907c-2.921874-10.410156-7.0625-20.390625-12.363281-29.820313l13.976563-13.976562c3.902344-3.90625 3.902344-10.238281 0-14.144531l-38.324219-38.320313c-3.902344-3.902344-10.230469-3.90625-14.140625 0l-13.976562 13.976563c-9.429688-5.304688-19.410157-9.441407-29.820313-12.367188v-19.75c0-5.523438-4.480469-10-10-10h-54.195313c-5.523437 0-10 4.476562-10 10v19.707031c-10.429687 2.914063-20.433593 7.050781-29.878906 12.351563l-13.917968-13.917969c-3.90625-3.902344-10.234376-3.902344-14.144532 0l-38.320312 38.324219c-1.875 1.875-2.929688 4.417968-2.929688 7.070312s1.054688 5.195313 2.929688 7.070313l13.875 13.875c-5.328125 9.460937-9.488282 19.476562-12.421875 29.921875h-19.59375c-5.523438 0-10 4.476562-10 10v44.097656h-24.171875v-254c0-16.542969 13.457031-30 30-30h215.671875c5.519531 0 10-4.476562 10-10s-4.480469-10-10-10h-215.671875c-27.570313 0-50 22.429688-50 50v254h-3.996094c-5.523438 0-10 4.476562-10 10v17c0 27.019531 21.980469 49 49 49h414c27.019531 0 49-21.980469 49-49v-17c0-5.523438-4.476562-10-10-10h-4.003906v-254c0-27.570312-22.429688-50-50-50h-75.996094v-56zm-319.832031 325.902344h17.402343c4.699219 0 8.769532-3.273438 9.769532-7.871094 2.96875-13.609375 8.304687-26.453125 15.851562-38.175781 2.550782-3.957031 1.992188-9.15625-1.335937-12.488281l-12.332031-12.332032 24.179687-24.179687 12.367187 12.367187c3.320313 3.320313 8.511719 3.882813 12.46875 1.34375 11.71875-7.515625 24.554688-12.820312 38.148438-15.769531 4.601562-.996094 7.882812-5.066406 7.882812-9.773437v-17.523438h34.195313v17.558594c0 4.703125 3.273437 8.769531 7.867187 9.773437 13.578126 2.960938 26.394532 8.273438 38.09375 15.792969 3.957032 2.546875 9.148438 1.984375 12.476563-1.339844l12.429687-12.429687 24.179688 24.179687-12.429688 12.429688c-3.324218 3.324218-3.886718 8.519531-1.339843 12.480468 7.519531 11.699219 12.832031 24.515626 15.792969 38.089844 1.003906 4.59375 5.070312 7.867188 9.773437 7.867188h17.558594v34.097656h-53.128907c1.070313-5.578125 1.628907-11.261719 1.628907-17 0-49.625-40.371094-90-90-90-49.625 0-90 40.375-90 90 0 5.738281.5625 11.417969 1.632812 17h-53.132812zm124.5 17.097656c0-9.375 7.625-17 17-17 9.371093 0 17 7.625 17 17s-7.628907 17-17 17c-9.375 0-17-7.625-17-17zm17-37c-20.402344 0-37 16.597656-37 37 0 6.128906 1.503906 11.90625 4.152343 17h-35.066406c-1.386718-5.539062-2.085937-11.230469-2.085937-17 0-38.597656 31.402343-70 70-70 38.597656 0 70 31.402344 70 70 0 5.769531-.699219 11.460938-2.085938 17h-35.066406c2.644531-5.09375 4.152344-10.871094 4.152344-17 0-20.402344-16.597657-37-37-37zm272.332031 81c0 15.988281-13.011719 29-29 29h-414c-15.988281 0-29-13.011719-29-29v-7h472zm0-415h-84v-28h84zm-472-28h296v28h-296zm316 0h52v36h-52zm0 0"/><path d="m369.070312 45.070312c1.859376-1.859374 2.929688-4.441406 2.929688-7.070312s-1.070312-5.210938-2.929688-7.070312c-1.859374-1.859376-4.441406-2.929688-7.070312-2.929688s-5.210938 1.070312-7.070312 2.929688c-1.859376 1.859374-2.929688 4.441406-2.929688 7.070312s1.070312 5.210938 2.929688 7.070312c1.859374 1.859376 4.441406 2.929688 7.070312 2.929688s5.210938-1.070312 7.070312-2.929688zm0 0"/><path d="m448 335.25c2.628906 0 5.210938-1.070312 7.070312-2.929688 1.859376-1.859374 2.929688-4.441406 2.929688-7.070312s-1.070312-5.210938-2.929688-7.070312c-1.859374-1.859376-4.441406-2.929688-7.070312-2.929688s-5.210938 1.070312-7.070312 2.929688c-1.859376 1.859374-2.929688 4.441406-2.929688 7.070312s1.070312 5.210938 2.929688 7.070312c1.859374 1.859376 4.441406 2.929688 7.070312 2.929688zm0 0"/></svg>