<svg viewBox="0 0 512 512" xmlns="http://www.w3.org/2000/svg"><path d="m502 318h-398v-102.644531l53.789062 53.789062c1.867188 1.863281 4.394532 2.917969 7.03125 2.925781l32.792969.125 20.421875 20.421876c1.953125 1.953124 4.511719 2.929687 7.070313 2.929687 2.558593 0 5.117187-.976563 7.070312-2.929687 3.90625-3.902344 3.90625-10.234376 0-14.140626l-20.421875-20.421874-.125-32.789063c-.011718-2.640625-1.0625-5.167969-2.929687-7.035156l-116.941407-116.945313c-.039062-.039062-.082031-.070312-.125-.109375-8.402343-9.015625-20.367187-14.664062-33.632812-14.664062-25.363281 0-46 20.632812-46 46v260.050781c-7.230469 4.847656-12 13.097656-12 22.4375v87c0 5.523438 4.476562 10 10 10h492c5.523438 0 10-4.476562 10-10v-174c0-5.523438-4.476562-10-10-10zm-10 20v50h-388v-50zm-434.03125-159.789062c9.664062 0 18.628906-3.011719 26.03125-8.132813v217.921875h-52v-217.878906c7.390625 5.097656 16.335938 8.089844 25.96875 8.089844zm133.761719 73.964843-22.710938-.089843-65.019531-65.019532v-45.253906l87.644531 87.648438zm-133.730469-145.664062c13.816406 0 25.144531 10.832031 25.949219 24.449219-.0625.449218-.105469.90625-.105469 1.371093 0 14.269531-11.605469 25.878907-25.875 25.878907-14.265625 0-25.875-11.609376-25.875-25.878907 0-.367187-.023438-.734375-.0625-1.09375.664062-13.75 12.058594-24.726562 25.96875-24.726562zm-38 308.488281c0-3.859375 3.140625-7 7-7h62c3.859375 0 7 3.140625 7 7v77h-76zm96 77v-77c0-2.421875-.324219-4.765625-.925781-7h376.925781v20.25h-81c-5.523438 0-10 4.476562-10 10s4.476562 10 10 10h81v43.75zm0 0"/><path d="m261 373c2.628906 0 5.210938-1.070312 7.070312-2.929688 1.859376-1.859374 2.929688-4.441406 2.929688-7.070312s-1.070312-5.210938-2.929688-7.070312c-1.859374-1.859376-4.441406-2.929688-7.070312-2.929688s-5.210938 1.070312-7.070312 2.929688c-1.859376 1.859374-2.929688 4.441406-2.929688 7.070312s1.070312 5.210938 2.929688 7.070312c1.859374 1.859376 4.441406 2.929688 7.070312 2.929688zm0 0"/><path d="m197 373c2.628906 0 5.210938-1.070312 7.070312-2.929688 1.859376-1.859374 2.929688-4.441406 2.929688-7.070312s-1.070312-5.210938-2.929688-7.070312c-1.859374-1.859376-4.441406-2.929688-7.070312-2.929688s-5.210938 1.070312-7.070312 2.929688c-1.859376 1.859374-2.929688 4.441406-2.929688 7.070312s1.070312 5.210938 2.929688 7.070312c1.859374 1.859376 4.441406 2.929688 7.070312 2.929688zm0 0"/><path d="m125.929688 370.070312c1.859374 1.859376 4.441406 2.929688 7.070312 2.929688s5.210938-1.070312 7.070312-2.929688c1.859376-1.859374 2.929688-4.441406 2.929688-7.070312s-1.070312-5.210938-2.929688-7.070312c-1.859374-1.859376-4.441406-2.929688-7.070312-2.929688s-5.210938 1.070312-7.070312 2.929688c-1.859376 1.859374-2.929688 4.441406-2.929688 7.070312s1.070312 5.210938 2.929688 7.070312zm0 0"/><path d="m453 373c2.628906 0 5.210938-1.070312 7.070312-2.929688 1.859376-1.859374 2.929688-4.441406 2.929688-7.070312s-1.070312-5.210938-2.929688-7.070312c-1.859374-1.859376-4.441406-2.929688-7.070312-2.929688s-5.210938 1.070312-7.070312 2.929688c-1.859376 1.859374-2.929688 4.441406-2.929688 7.070312s1.070312 5.210938 2.929688 7.070312c1.859374 1.859376 4.441406 2.929688 7.070312 2.929688zm0 0"/><path d="m325 373c2.628906 0 5.210938-1.070312 7.070312-2.929688 1.859376-1.859374 2.929688-4.441406 2.929688-7.070312s-1.070312-5.210938-2.929688-7.070312c-1.859374-1.859376-4.441406-2.929688-7.070312-2.929688s-5.210938 1.070312-7.070312 2.929688c-1.859376 1.859374-2.929688 4.441406-2.929688 7.070312s1.070312 5.210938 2.929688 7.070312c1.859374 1.859376 4.441406 2.929688 7.070312 2.929688zm0 0"/><path d="m389 373c2.628906 0 5.210938-1.070312 7.070312-2.929688 1.859376-1.859374 2.929688-4.441406 2.929688-7.070312 0-2.640625-1.070312-5.210938-2.929688-7.070312-1.859374-1.859376-4.429687-2.929688-7.070312-2.929688s-5.210938 1.070312-7.070312 2.929688c-1.859376 1.859374-2.929688 4.429687-2.929688 7.070312 0 2.628906 1.070312 5.210938 2.929688 7.070312 1.859374 1.859376 4.441406 2.929688 7.070312 2.929688zm0 0"/><path d="m57.96875 142.328125c2.632812 0 5.210938-1.058594 7.070312-2.929687 1.859376-1.859376 2.929688-4.4375 2.929688-7.070313 0-2.628906-1.070312-5.207031-2.929688-7.066406-1.859374-1.863281-4.4375-2.933594-7.070312-2.933594-2.628906 0-5.207031 1.070313-7.070312 2.933594-1.859376 1.859375-2.929688 4.4375-2.929688 7.066406 0 2.640625 1.070312 5.210937 2.929688 7.070313 1.863281 1.871093 4.441406 2.929687 7.070312 2.929687zm0 0"/><path d="m502 0h-492c-5.523438 0-10 4.476562-10 10v40c0 5.523438 4.476562 10 10 10h79c5.523438 0 10-4.476562 10-10s-4.476562-10-10-10h-69v-20h472v20h-226v-3c0-5.523438-4.476562-10-10-10s-10 4.476562-10 10v3h-64c-5.523438 0-10 4.476562-10 10s4.476562 10 10 10h64v44.214844l-25.617188 25.617187c-1.875 1.878907-2.929687 4.421875-2.929687 7.070313v23.121094c0 2.652343 1.054687 5.195312 2.929687 7.070312l10.773438 10.773438c1.953125 1.953124 4.511719 2.929687 7.070312 2.929687 2.558594 0 5.117188-.976563 7.070313-2.929687 3.90625-3.90625 3.90625-10.238282 0-14.144532l-7.84375-7.84375v-14.832031l18.546875-18.546875 18.546875 18.546875v14.835937l-7.5625 7.5625c-3.90625 3.90625-3.90625 10.238282 0 14.144532 3.902344 3.90625 10.238281 3.902344 14.140625 0l10.492188-10.496094c1.875-1.875 2.929687-4.417969 2.929687-7.070312v-23.117188c0-2.652344-1.054687-5.195312-2.929687-7.070312l-25.617188-25.621094v-44.214844h126.242188c-3.953126 6.402344-6.242188 13.9375-6.242188 22 0 11.566406 4.699219 22.054688 12.289062 29.65625-.183593.753906-.289062 1.535156-.289062 2.34375v69.035156l-52.917969 52.921875c-9.21875 9.21875-11.164062 22.988281-5.855469 34.136719l-15.816406 15.816406c-3.902344 3.90625-3.902344 10.238282 0 14.144532 1.953125 1.953124 4.515625 2.929687 7.074219 2.929687s5.117187-.976563 7.070313-2.929687l15.800781-15.804688c3.992187 1.910156 8.386719 2.921875 12.941406 2.921875 8.011719 0 15.546875-3.121094 21.210937-8.789063l56.570313-56.570312c8.363281-5.332031 13.921875-14.679688 13.921875-25.304688v-82.507812c0-.808594-.105469-1.589844-.289062-2.34375 7.589843-7.601562 12.289062-18.089844 12.289062-29.65625 0-8.0625-2.289062-15.597656-6.242188-22h38.242188c5.523438 0 10-4.476562 10-10v-40c0-5.523438-4.476562-10-10-10zm-64 196.507812c0 3.328126-1.640625 6.273438-4.152344 8.09375-.546875.257813-1.078125.570313-1.582031.933594-1.296875.617188-2.738281.972656-4.265625.972656-5.515625 0-10-4.488281-10-10v-73.71875c3.207031.785157 6.554688 1.210938 10 1.210938s6.792969-.425781 10-1.210938zm-64.632812 67.734376c-1.890626 1.886718-4.398438 2.929687-7.070313 2.929687s-5.179687-1.039063-7.066406-2.925781c-.003907 0-.003907-.003906-.007813-.003906 0 0 0-.003907-.003906-.003907-3.894531-3.898437-3.890625-10.242187.003906-14.136719l41.386719-41.386718c2.800781 6.265625 7.6875 11.394531 13.773437 14.511718zm76.632812-182.242188c0 12.132812-9.867188 22-22 22s-22-9.867188-22-22 9.867188-22 22-22 22 9.867188 22 22zm0 0"/><path d="m145.070312 57.070312c1.859376-1.859374 2.929688-4.441406 2.929688-7.070312s-1.070312-5.210938-2.929688-7.070312c-1.859374-1.859376-4.429687-2.929688-7.070312-2.929688-2.628906 0-5.210938 1.070312-7.070312 2.929688-1.859376 1.859374-2.929688 4.441406-2.929688 7.070312s1.070312 5.210938 2.929688 7.070312c1.859374 1.859376 4.441406 2.929688 7.070312 2.929688s5.210938-1.070312 7.070312-2.929688zm0 0"/><path d="m428 92c2.628906 0 5.210938-1.070312 7.070312-2.929688 1.859376-1.859374 2.929688-4.441406 2.929688-7.070312s-1.070312-5.210938-2.929688-7.070312c-1.859374-1.859376-4.441406-2.929688-7.070312-2.929688s-5.210938 1.070312-7.070312 2.929688c-1.859376 1.859374-2.929688 4.441406-2.929688 7.070312s1.070312 5.210938 2.929688 7.070312c1.859374 1.859376 4.441406 2.929688 7.070312 2.929688zm0 0"/><path d="m58 423.5c-14.613281 0-26.5 11.886719-26.5 26.5s11.886719 26.5 26.5 26.5 26.5-11.886719 26.5-26.5-11.886719-26.5-26.5-26.5zm0 33c-3.585938 0-6.5-2.914062-6.5-6.5s2.914062-6.5 6.5-6.5 6.5 2.914062 6.5 6.5-2.914062 6.5-6.5 6.5zm0 0"/><path d="m371.078125 428.25c-2.628906 0-5.199219 1.070312-7.066406 2.929688-1.863281 1.859374-2.933594 4.441406-2.933594 7.070312s1.070313 5.210938 2.933594 7.070312c1.867187 1.859376 4.4375 2.929688 7.066406 2.929688 2.632813 0 5.210937-1.070312 7.070313-2.929688 1.859374-1.859374 2.929687-4.441406 2.929687-7.070312s-1.066406-5.210938-2.929687-7.070312c-1.859376-1.859376-4.4375-2.929688-7.070313-2.929688zm0 0"/></svg>