<svg height="512pt" viewBox="0 -54 512 512" width="512pt" xmlns="http://www.w3.org/2000/svg"><path d="m304 302c-5.523438 0-10-4.476562-10-10v-216c0-5.523438 4.476562-10 10-10s10 4.476562 10 10v216c0 5.523438-4.476562 10-10 10zm0 0"/><path d="m352 302c-2.628906 0-5.210938-1.070312-7.070312-2.929688-1.859376-1.859374-2.929688-4.441406-2.929688-7.070312s1.070312-5.210938 2.929688-7.070312c1.859374-1.859376 4.441406-2.929688 7.070312-2.929688s5.210938 1.070312 7.070312 2.929688c1.859376 1.859374 2.929688 4.441406 2.929688 7.070312s-1.070312 5.210938-2.929688 7.070312c-1.859374 1.859376-4.441406 2.929688-7.070312 2.929688zm0 0"/><path d="m352 265c-5.523438 0-10-4.476562-10-10v-179c0-5.523438 4.476562-10 10-10s10 4.476562 10 10v179c0 5.523438-4.476562 10-10 10zm0 0"/><path d="m400 338c-5.523438 0-10-4.476562-10-10v-252c0-5.523438 4.476562-10 10-10s10 4.476562 10 10v252c0 5.523438-4.476562 10-10 10zm0 0"/><path d="m448 302c-5.523438 0-10-4.476562-10-10v-216c0-5.523438 4.476562-10 10-10s10 4.476562 10 10v216c0 5.523438-4.476562 10-10 10zm0 0"/><path d="m112 338c-5.523438 0-10-4.476562-10-10v-252c0-5.523438 4.476562-10 10-10s10 4.476562 10 10v252c0 5.523438-4.476562 10-10 10zm0 0"/><path d="m160 265c-5.523438 0-10-4.476562-10-10v-179c0-5.523438 4.476562-10 10-10s10 4.476562 10 10v179c0 5.523438-4.476562 10-10 10zm0 0"/><path d="m160 302c-2.628906 0-5.210938-1.070312-7.070312-2.929688-1.859376-1.859374-2.929688-4.441406-2.929688-7.070312s1.070312-5.210938 2.929688-7.070312c1.859374-1.859376 4.441406-2.929688 7.070312-2.929688s5.210938 1.070312 7.070312 2.929688c1.859376 1.859374 2.929688 4.441406 2.929688 7.070312s-1.070312 5.210938-2.929688 7.070312c-1.859374 1.859376-4.441406 2.929688-7.070312 2.929688zm0 0"/><path d="m64 302c-5.523438 0-10-4.476562-10-10v-216c0-5.523438 4.476562-10 10-10s10 4.476562 10 10v216c0 5.523438-4.476562 10-10 10zm0 0"/><path d="m208 302c-5.523438 0-10-4.476562-10-10v-216c0-5.523438 4.476562-10 10-10s10 4.476562 10 10v216c0 5.523438-4.476562 10-10 10zm0 0"/><path d="m256 302c-5.523438 0-10-4.476562-10-10v-216c0-5.523438 4.476562-10 10-10s10 4.476562 10 10v216c0 5.523438-4.476562 10-10 10zm0 0"/><path d="m502 404h-492c-5.523438 0-10-4.476562-10-10v-384c0-5.523438 4.476562-10 10-10h492c5.523438 0 10 4.476562 10 10v384c0 5.523438-4.476562 10-10 10zm-482-20h472v-364h-472zm0 0"/></svg>