<svg height="512pt" viewBox="0 0 512 512" width="512pt" xmlns="http://www.w3.org/2000/svg"><path d="m502 54h-144.527344c-5.523437 0-10 4.476562-10 10s4.476563 10 10 10h134.527344v418h-412.816406c-32.632813 0-59.183594-26.550781-59.183594-59.183594 0-25.921875 21.089844-47.015625 47.015625-47.015625 20.34375 0 36.898437 16.511719 36.984375 36.835938v.308593c-.082031 15.769532-12.933594 28.570313-28.722656 28.570313-12.082032 0-21.914063-9.832031-21.914063-21.914063 0-8.988281 7.3125-16.300781 16.300781-16.300781 5.523438 0 10-4.480469 10-10 0-5.523437-4.476562-10-10-10-20.015624 0-36.300781 16.285157-36.300781 36.300781 0 23.113282 18.804688 41.914063 41.914063 41.914063 25.507812 0 46.484375-19.703125 48.546875-44.6875.109375-.597656.175781-1.210937.175781-1.839844v-2.042969c0-.050781.003906-.101562.003906-.152343 0-.054688-.003906-.105469-.003906-.15625v-348.636719h153.097656c5.523438 0 10-4.476562 10-10s-4.476562-10-10-10h-153.175781c-1.558594-30.039062-26.488281-54-56.90625-54-36.953125 0-67.015625 30.0625-67.015625 67.015625v365.800781c0 43.664063 35.519531 79.183594 79.183594 79.183594h422.816406c5.523438 0 10-4.480469 10-10v-438c0-5.523438-4.476562-10-10-10zm-462.003906-25.425781v116.023437c0 5.523438 4.480468 10 10 10 5.523437 0 10-4.476562 10-10v-124.070312c2.292968-.34375 4.632812-.527344 7.019531-.527344 20.390625 0 36.984375 16.59375 36.984375 36.988281v322.5c-9.960938-8.523437-22.878906-13.683593-36.984375-13.683593-18.300781 0-34.910156 7.382812-47.015625 19.316406v-318.105469c0-15.875 7.914062-29.925781 19.996094-38.441406zm0 0"/><path d="m317.25 74c2.628906 0 5.210938-1.070312 7.070312-2.929688 1.859376-1.859374 2.929688-4.441406 2.929688-7.070312s-1.070312-5.210938-2.929688-7.070312c-1.859374-1.859376-4.441406-2.929688-7.070312-2.929688s-5.210938 1.070312-7.070312 2.929688c-1.859376 1.859374-2.929688 4.441406-2.929688 7.070312s1.070312 5.210938 2.929688 7.070312c1.859374 1.859376 4.441406 2.929688 7.070312 2.929688zm0 0"/><path d="m448 133h-287.300781c-5.523438 0-10 4.476562-10 10s4.476562 10 10 10h287.300781c5.523438 0 10-4.476562 10-10s-4.476562-10-10-10zm0 0"/><path d="m177.667969 189h-16.96875c-5.523438 0-10 4.476562-10 10s4.476562 10 10 10h16.96875c5.523437 0 10-4.476562 10-10s-4.476563-10-10-10zm0 0"/><path d="m177.667969 245h-16.96875c-5.523438 0-10 4.476562-10 10s4.476562 10 10 10h16.96875c5.523437 0 10-4.476562 10-10s-4.476563-10-10-10zm0 0"/><path d="m177.667969 301h-16.96875c-5.523438 0-10 4.476562-10 10 0 5.519531 4.476562 10 10 10h16.96875c5.523437 0 10-4.480469 10-10 0-5.523438-4.476563-10-10-10zm0 0"/><path d="m177.667969 357h-16.96875c-5.523438 0-10 4.476562-10 10 0 5.519531 4.476562 10 10 10h16.96875c5.523437 0 10-4.480469 10-10 0-5.523438-4.476563-10-10-10zm0 0"/><path d="m177.667969 413h-16.96875c-5.523438 0-10 4.476562-10 10 0 5.519531 4.476562 10 10 10h16.96875c5.523437 0 10-4.480469 10-10 0-5.523438-4.476563-10-10-10zm0 0"/><path d="m461.226562 221.910156c4.785157-2.761718 6.421876-8.875 3.660157-13.660156l-8.226563-14.25c-1.785156-3.09375-5.089844-5-8.660156-5s-6.875 1.90625-8.660156 5l-8.226563 14.25c-2.761719 4.78125-1.125 10.898438 3.660157 13.660156 1.027343.59375 2.121093.972656 3.226562 1.171875v111.828125c-1.117188.195313-2.222656.578125-3.265625 1.179688-4.78125 2.761718-6.421875 8.875-3.660156 13.660156l8.230469 14.25c1.785156 3.09375 5.085937 5 8.660156 5 3.570312 0 6.871094-1.90625 8.660156-5l8.226562-14.25c2.761719-4.785156 1.121094-10.898438-3.660156-13.660156-1.019531-.589844-2.097656-.964844-3.191406-1.167969v-111.847656c1.105469-.199219 2.199219-.570313 3.226562-1.164063zm0 0"/><path d="m386.625 406.128906c-4.785156-2.757812-10.898438-1.121094-13.660156 3.660156-.59375 1.03125-.976563 2.121094-1.175782 3.230469h-111.824218c-.199219-1.121093-.582032-2.226562-1.179688-3.265625-2.761718-4.78125-8.878906-6.421875-13.660156-3.660156l-14.25 8.226562c-3.09375 1.785157-5 5.089844-5 8.660157 0 3.574219 1.90625 6.875 5 8.660156l14.25 8.230469c1.574219.90625 3.292969 1.339844 4.988281 1.339844 3.457031 0 6.816407-1.792969 8.671875-5 .585938-1.019532.964844-2.097657 1.164063-3.191407h111.839843c.199219 1.105469.582032 2.199219 1.175782 3.226563 1.851562 3.210937 5.210937 5.003906 8.667968 5.003906 1.695313 0 3.417969-.433594 4.992188-1.34375l14.25-8.226562c3.09375-1.785157 5-5.089844 5-8.660157 0-3.574219-1.90625-6.875-5-8.660156zm0 0"/><path d="m405.875 199c0-5.523438-4.480469-10-10-10h-160c-5.523438 0-10 4.476562-10 10v41.492188c0 5.523437 4.476562 10 10 10 5.519531 0 10-4.476563 10-10v-31.492188h34.734375v57.367188c0 4.03125 2.421875 7.667968 6.140625 9.226562 3.722656 1.554688 8.011719.726562 10.882812-2.105469l18.242188-17.988281 18.238281 17.988281c1.910157 1.882813 4.445313 2.878907 7.023438 2.878907 1.300781 0 2.609375-.25 3.859375-.773438 3.71875-1.554688 6.140625-5.191406 6.140625-9.226562v-57.367188h34.734375v140h-140v-32.105469c0-5.523437-4.476563-10-10-10-5.519532 0-10 4.476563-10 10v42.105469c0 5.519531 4.480468 10 10 10h160c5.523437 0 10-4.480469 10-10v-160zm-74.738281 43.460938-8.242188-8.125c-1.945312-1.921876-4.484375-2.878907-7.019531-2.878907-2.539062 0-5.074219.957031-7.023438 2.878907l-8.238281 8.125v-33.460938h30.523438zm0 0"/><path d="m235.871094 289c2.640625 0 5.210937-1.070312 7.070312-2.929688 1.867188-1.859374 2.929688-4.441406 2.929688-7.070312s-1.0625-5.210938-2.929688-7.070312c-1.859375-1.859376-4.433594-2.929688-7.070312-2.929688-2.628906 0-5.210938 1.070312-7.070313 2.929688-1.859375 1.859374-2.929687 4.441406-2.929687 7.070312s1.070312 5.210938 2.929687 7.070312c1.859375 1.859376 4.441407 2.929688 7.070313 2.929688zm0 0"/><path d="m362.976562 326.894531c5.523438 0 10-4.476562 10-10 0-5.523437-4.476562-10-10-10h-29.472656c-5.523437 0-10 4.476563-10 10 0 5.523438 4.476563 10 10 10zm0 0"/><path d="m50 197.199219c2.632812 0 5.210938-1.070313 7.070312-2.929688 1.859376-1.871093 2.929688-4.4375 2.929688-7.070312 0-2.628907-1.070312-5.207031-2.929688-7.078125-1.859374-1.859375-4.4375-2.921875-7.070312-2.921875-2.640625 0-5.210938 1.0625-7.070312 2.921875-1.867188 1.871094-2.929688 4.449218-2.929688 7.078125 0 2.632812 1.0625 5.199219 2.929688 7.070312 1.859374 1.859375 4.429687 2.929688 7.070312 2.929688zm0 0"/></svg>