<svg height="512pt" viewBox="0 0 512 512" width="512pt" xmlns="http://www.w3.org/2000/svg"><path d="m97.308594 471.9375c-5.523438 0-10 4.480469-10 10v20c0 5.523438 4.476562 10 10 10 5.519531 0 10-4.476562 10-10v-20c0-5.519531-4.480469-10-10-10zm0 0"/><path d="m97.308594 433.9375c-2.636719 0-5.207032 1.070312-7.070313 2.929688-1.867187 1.863281-2.929687 4.441406-2.929687 7.070312 0 2.632812 1.0625 5.210938 2.929687 7.070312 1.863281 1.859376 4.433594 2.929688 7.070313 2.929688 2.632812 0 5.210937-1.070312 7.070312-2.929688 1.859375-1.859374 2.929688-4.4375 2.929688-7.070312 0-2.628906-1.070313-5.207031-2.929688-7.070312-1.859375-1.859376-4.4375-2.929688-7.070312-2.929688zm0 0"/><path d="m53.621094 221.4375c-2.640625 0-5.210938 1.070312-7.070313 2.929688-1.871093 1.863281-2.929687 4.441406-2.929687 7.070312 0 2.632812 1.058594 5.210938 2.929687 7.070312 1.859375 1.859376 4.4375 2.929688 7.070313 2.929688 2.628906 0 5.207031-1.070312 7.070312-2.929688 1.859375-1.859374 2.929688-4.4375 2.929688-7.070312 0-2.628906-1.070313-5.207031-2.929688-7.070312-1.863281-1.859376-4.441406-2.929688-7.070312-2.929688zm0 0"/><path d="m176.871094 212.027344c-2.640625 0-5.210938 1.070312-7.070313 2.929687-1.871093 1.863281-2.929687 4.441407-2.929687 7.082031 0 2.628907 1.058594 5.210938 2.929687 7.070313 1.859375 1.859375 4.429688 2.929687 7.070313 2.929687 2.628906 0 5.199218-1.070312 7.070312-2.929687 1.859375-1.871094 2.929688-4.441406 2.929688-7.070313 0-2.640624-1.070313-5.21875-2.929688-7.082031-1.863281-1.859375-4.441406-2.929687-7.070312-2.929687zm0 0"/><path d="m482.332031 132.035156h-94.429687l-81.835938-41.992187c-3.871094-1.984375-8.582031-1.242188-11.652344 1.839843l-93.144531 93.53125c-6.988281-4.679687-15.382812-7.414062-24.40625-7.414062h-123.285156c-.023437 0-.046875.003906-.070313.003906-29.519531.078125-53.507812 24.113282-53.507812 53.648438v270.285156c0 5.523438 4.476562 10 10 10s10-4.476562 10-10v-228.917969c9.195312 7.449219 20.890625 11.921875 33.617188 11.921875 12.761718 0 24.484374-4.496094 33.691406-11.980468v126.476562c0 5.523438 4.476562 10 10 10 5.519531 0 10-4.476562 10-10v-133.5h69.558594c8.988281 0 17.351562-2.714844 24.324218-7.363281l93.222656 93.609375c1.921876 1.933594 4.488282 2.945312 7.089844 2.945312 1.574219 0 3.160156-.375 4.625-1.136718l80.324219-41.960938h95.878906c16.359375 0 29.667969-13.308594 29.667969-29.664062v-120.667969c0-16.355469-13.308594-29.664063-29.667969-29.664063zm-149.023437 159.050782h-19.199219l-48.109375-47.878907v-42.347656l48.109375-47.878906h19.199219c-.847656 2.757812-1.308594 5.6875-1.308594 8.71875v120.667969c0 3.03125.460938 5.960937 1.308594 8.71875zm-115.25-84.484376h27.941406v30.863282h-27.992188c1.820313-4.824219 2.828126-10.042969 2.828126-15.496094 0-5.402344-.984376-10.578125-2.777344-15.367188zm85.375-95.429687 42.503906 21.808594h-35.957031c-2.644531 0-5.179688 1.046875-7.054688 2.914062l-50.953125 50.710938h-23.664062zm-249.816406 153.769531c-18.472657 0-33.503907-15.027344-33.503907-33.503906 0-.40625-.027343-.804688-.078125-1.195312.746094-17.90625 15.535156-32.242188 33.617188-32.242188 17.953125 0 32.664062 14.128906 33.605468 31.851562-.082031.519532-.136718 1.046876-.136718 1.585938-.003906 18.476562-15.03125 33.503906-33.503906 33.503906zm123.25-19.003906h-69.558594v-14.285156c0-12.734375-4.46875-24.441406-11.910156-33.652344h81.46875c13.214843 0 23.96875 10.753906 23.96875 23.96875 0 13.21875-10.753907 23.96875-23.96875 23.96875zm126.527343 86.921875-75.085937-75.394531h23.664062l50.953125 50.707031c1.875 1.867187 4.410157 2.914063 7.054688 2.914063h35.09375zm178.9375-40.824219h-10.332031v-11.242187c0-5.519531-4.476562-10-10-10s-10 4.480469-10 10v11.242187h-20v-11.242187c0-5.519531-4.476562-10-10-10s-10 4.480469-10 10v11.242187h-20v-11.242187c0-5.519531-4.476562-10-10-10s-10 4.480469-10 10v11.242187h-10.335938c-.644531 0-1.273437-.066406-1.886718-.1875-.585938-.246094-1.203125-.4375-1.84375-.566406-3.480469-1.460938-5.933594-4.90625-5.933594-8.914062v-10.335938h11.238281c5.523438 0 10-4.476562 10-10 0-5.519531-4.476562-10-10-10h-11.238281v-20h11.238281c5.523438 0 10-4.476562 10-10 0-5.519531-4.476562-10-10-10h-11.238281v-20h11.238281c5.523438 0 10-4.476562 10-10 0-5.519531-4.476562-10-10-10h-11.238281v-10.332031c0-4.007813 2.453125-7.457031 5.941406-8.917969.632813-.128906 1.246094-.316406 1.832032-.558594.613281-.121094 1.246093-.1875 1.894531-.1875h10.332031v11.238282c0 5.519531 4.476562 10 10 10s10-4.480469 10-10v-11.238282h20v11.238282c0 5.519531 4.476562 10 10 10s10-4.480469 10-10v-11.238282h20v11.238282c0 5.519531 4.476562 10 10 10s10-4.480469 10-10v-11.238282h10.335938c5.328124 0 9.664062 4.335938 9.664062 9.664063v10.335937h-11.238281c-5.523438 0-10 4.476563-10 10 0 5.519532 4.476562 10 10 10h11.238281v20h-11.238281c-5.523438 0-10 4.476563-10 10 0 5.519532 4.476562 10 10 10h11.238281v20h-11.238281c-5.523438 0-10 4.476563-10 10 0 5.519532 4.476562 10 10 10h11.238281v10.332032c0 5.328124-4.335938 9.667968-9.667969 9.667968zm0 0"/><path d="m446 188.035156h-48c-5.523438 0-10 4.476563-10 10v48c0 5.519532 4.476562 10 10 10h48c5.523438 0 10-4.480468 10-10v-48c0-5.523437-4.476562-10-10-10zm-10 48h-28v-28h28zm0 0"/><path d="m118.929688 124.039062c-1.859376 1.859376-2.929688 4.441407-2.929688 7.070313 0 2.640625 1.070312 5.210937 2.929688 7.070313 1.859374 1.867187 4.441406 2.9375 7.070312 2.9375s5.210938-1.070313 7.070312-2.9375c1.859376-1.859376 2.929688-4.433594 2.929688-7.070313 0-2.628906-1.070312-5.199219-2.929688-7.070313-1.859374-1.859374-4.441406-2.929687-7.070312-2.929687s-5.210938 1.070313-7.070312 2.929687zm0 0"/><path d="m166.460938 100.652344c2.558593 0 5.117187-.980469 7.070312-2.929688 3.90625-3.90625 3.90625-10.238281 0-14.144531-26.210938-26.207031-68.851562-26.207031-95.0625 0-3.90625 3.90625-3.90625 10.238281 0 14.144531 3.902344 3.902344 10.234375 3.902344 14.140625 0 18.414063-18.414062 48.371094-18.414062 66.78125 0 1.953125 1.953125 4.511719 2.929688 7.070313 2.929688zm0 0"/><path d="m47.390625 52.5c43.34375-43.347656 113.875-43.347656 157.222656 0 1.953125 1.953125 4.511719 2.929688 7.070313 2.929688s5.117187-.976563 7.070312-2.929688c3.90625-3.902344 3.90625-10.234375 0-14.140625-51.144531-51.144531-134.363281-51.144531-185.507812 0-3.90625 3.90625-3.90625 10.238281 0 14.140625 3.90625 3.90625 10.238281 3.90625 14.144531 0zm0 0"/></svg>