<svg viewBox="0 -20 512 512" xmlns="http://www.w3.org/2000/svg"><path d="m502 226.050781h-236v-62c0-5.523437-4.476562-10-10-10h-72c-5.523438 0-10 4.476563-10 10v62h-50v-62c0-5.523437-4.476562-10-10-10h-72c-5.523438 0-10 4.476563-10 10v62h-22c-5.523438 0-10 4.476563-10 10v225.949219c0 5.523438 4.476562 10 10 10h310c5.523438 0 10-4.476562 10-10s-4.476562-10-10-10h-300v-95.949219h34c5.523438 0 10-4.480469 10-10 0-5.523437-4.476562-10-10-10h-34v-20h472v135.949219h-89c-5.523438 0-10 4.476562-10 10s4.476562 10 10 10h99c5.523438 0 10-4.476562 10-10v-225.949219c0-5.523437-4.476562-10-10-10zm-308-52h52v52h-52zm-142 0h52v52h-52zm-32 72h472v50h-472zm0 0"/><path d="m90.429688 338.980469c-1.859376 1.859375-2.929688 4.4375-2.929688 7.070312 0 2.628907 1.070312 5.207031 2.929688 7.066407 1.859374 1.859374 4.441406 2.933593 7.070312 2.933593s5.210938-1.070312 7.070312-2.933593c1.859376-1.859376 2.929688-4.4375 2.929688-7.066407 0-2.632812-1.070312-5.210937-2.929688-7.070312-1.859374-1.871094-4.441406-2.929688-7.070312-2.929688s-5.210938 1.058594-7.070312 2.929688zm0 0"/><path d="m64 261.050781c-2.628906 0-5.210938 1.070313-7.070312 2.929688-1.859376 1.859375-2.929688 4.429687-2.929688 7.070312 0 2.628907 1.070312 5.210938 2.929688 7.070313 1.859374 1.859375 4.441406 2.929687 7.070312 2.929687s5.210938-1.070312 7.070312-2.929687c1.859376-1.859375 2.929688-4.441406 2.929688-7.070313 0-2.628906-1.070312-5.210937-2.929688-7.070312-1.859374-1.859375-4.441406-2.929688-7.070312-2.929688zm0 0"/><path d="m256 261.050781c-2.628906 0-5.210938 1.070313-7.070312 2.929688-1.859376 1.859375-2.929688 4.441406-2.929688 7.070312 0 2.628907 1.070312 5.210938 2.929688 7.070313 1.859374 1.859375 4.441406 2.929687 7.070312 2.929687s5.210938-1.070312 7.070312-2.929687c1.859376-1.859375 2.929688-4.441406 2.929688-7.070313 0-2.628906-1.070312-5.210937-2.929688-7.070312-1.859374-1.859375-4.429687-2.929688-7.070312-2.929688zm0 0"/><path d="m192 261.050781c-2.628906 0-5.210938 1.070313-7.070312 2.929688-1.859376 1.859375-2.929688 4.429687-2.929688 7.070312 0 2.628907 1.070312 5.210938 2.929688 7.070313 1.859374 1.859375 4.441406 2.929687 7.070312 2.929687s5.210938-1.070312 7.070312-2.929687c1.859376-1.859375 2.929688-4.441406 2.929688-7.070313 0-2.628906-1.070312-5.210937-2.929688-7.070312-1.859374-1.859375-4.441406-2.929688-7.070312-2.929688zm0 0"/><path d="m128 261.050781c-2.628906 0-5.210938 1.070313-7.070312 2.929688-1.859376 1.859375-2.929688 4.441406-2.929688 7.070312 0 2.628907 1.070312 5.210938 2.929688 7.070313 1.859374 1.859375 4.441406 2.929687 7.070312 2.929687s5.210938-1.070312 7.070312-2.929687c1.859376-1.859375 2.929688-4.441406 2.929688-7.070313 0-2.628906-1.070312-5.210937-2.929688-7.070312-1.859374-1.859375-4.441406-2.929688-7.070312-2.929688zm0 0"/><path d="m448 261.050781c-2.628906 0-5.210938 1.070313-7.070312 2.929688-1.859376 1.859375-2.929688 4.441406-2.929688 7.070312 0 2.628907 1.070312 5.210938 2.929688 7.070313 1.859374 1.859375 4.441406 2.929687 7.070312 2.929687s5.210938-1.070312 7.070312-2.929687c1.859376-1.859375 2.929688-4.441406 2.929688-7.070313 0-2.628906-1.070312-5.210937-2.929688-7.070312-1.859374-1.859375-4.441406-2.929688-7.070312-2.929688zm0 0"/><path d="m320 261.050781c-2.628906 0-5.210938 1.070313-7.070312 2.929688-1.859376 1.859375-2.929688 4.429687-2.929688 7.070312 0 2.628907 1.070312 5.210938 2.929688 7.070313 1.859374 1.859375 4.441406 2.929687 7.070312 2.929687s5.210938-1.070312 7.070312-2.929687c1.859376-1.859375 2.929688-4.441406 2.929688-7.070313 0-2.640625-1.070312-5.210937-2.929688-7.070312-1.859374-1.859375-4.441406-2.929688-7.070312-2.929688zm0 0"/><path d="m384 261.050781c-2.628906 0-5.210938 1.070313-7.070312 2.929688-1.859376 1.859375-2.929688 4.441406-2.929688 7.070312 0 2.628907 1.070312 5.210938 2.929688 7.070313 1.859374 1.859375 4.441406 2.929687 7.070312 2.929687s5.210938-1.070312 7.070312-2.929687c1.859376-1.859375 2.929688-4.441406 2.929688-7.070313 0-2.628906-1.070312-5.210937-2.929688-7.070312-1.859374-1.859375-4.441406-2.929688-7.070312-2.929688zm0 0"/><path d="m363 452c-2.628906 0-5.210938 1.070312-7.070312 2.929688-1.859376 1.859374-2.929688 4.441406-2.929688 7.070312s1.070312 5.210938 2.929688 7.070312c1.859374 1.859376 4.441406 2.929688 7.070312 2.929688s5.210938-1.070312 7.070312-2.929688c1.859376-1.859374 2.929688-4.441406 2.929688-7.070312s-1.070312-5.210938-2.929688-7.070312c-1.859374-1.859376-4.441406-2.929688-7.070312-2.929688zm0 0"/><path d="m68.101562 110.101562c-1.863281 1.859376-2.929687 4.4375-2.929687 7.070313 0 2.636719 1.066406 5.207031 2.929687 7.066406 1.859376 1.871094 4.4375 2.933594 7.070313 2.933594 2.628906 0 5.207031-1.0625 7.066406-2.933594 1.863281-1.859375 2.933594-4.4375 2.933594-7.066406 0-2.632813-1.070313-5.203125-2.933594-7.070313-1.859375-1.859374-4.4375-2.929687-7.066406-2.929687-2.632813 0-5.210937 1.066406-7.070313 2.929687zm0 0"/><path d="m97.597656 104.742188c2.558594 0 5.121094-.976563 7.070313-2.929688 3.90625-3.902344 3.90625-10.234375 0-14.140625-16.265625-16.265625-42.734375-16.265625-59 0-3.90625 3.902344-3.90625 10.234375 0 14.140625 3.902343 3.90625 10.234375 3.90625 14.140625 0 8.46875-8.46875 22.25-8.464844 30.71875 0 1.953125 1.953125 4.511718 2.929688 7.070312 2.929688zm0 0"/><path d="m34.742188 76.746094c10.796874-10.800782 25.152343-16.746094 40.425781-16.746094 15.273437 0 29.628906 5.945312 40.425781 16.746094 1.953125 1.953125 4.511719 2.929687 7.070312 2.929687 2.5625 0 5.121094-.976562 7.074219-2.929687 3.902344-3.90625 3.90625-10.238282 0-14.144532-14.578125-14.574218-33.957031-22.601562-54.570312-22.601562s-39.992188 8.027344-54.570313 22.605469c-3.90625 3.902343-3.90625 10.234375 0 14.140625 3.90625 3.902344 10.238282 3.902344 14.144532 0zm0 0"/><path d="m212.929688 110.101562c-1.859376 1.859376-2.929688 4.4375-2.929688 7.070313 0 2.636719 1.070312 5.207031 2.929688 7.066406 1.859374 1.871094 4.441406 2.933594 7.070312 2.933594s5.210938-1.0625 7.070312-2.933594c1.859376-1.859375 2.929688-4.429687 2.929688-7.066406 0-2.632813-1.070312-5.210937-2.929688-7.070313-1.859374-1.859374-4.441406-2.929687-7.070312-2.929687s-5.210938 1.066406-7.070312 2.929687zm0 0"/><path d="m249.5 101.8125c3.90625-3.902344 3.90625-10.234375 0-14.140625-16.265625-16.265625-42.734375-16.265625-59 0-3.90625 3.902344-3.90625 10.234375 0 14.140625 1.953125 1.953125 4.511719 2.929688 7.070312 2.929688 2.558594 0 5.117188-.976563 7.070313-2.929688 8.46875-8.464844 22.25-8.46875 30.71875 0 3.90625 3.90625 10.238281 3.90625 14.140625 0zm0 0"/><path d="m179.574219 76.746094c10.796875-10.800782 25.15625-16.746094 40.425781-16.746094s29.628906 5.945312 40.425781 16.746094c1.953125 1.953125 4.511719 2.929687 7.070313 2.929687 2.5625 0 5.121094-.976562 7.074218-2.929687 3.902344-3.90625 3.90625-10.238282 0-14.144532-14.578124-14.574218-33.957031-22.601562-54.570312-22.601562s-39.992188 8.027344-54.570312 22.605469c-3.90625 3.902343-3.90625 10.234375 0 14.140625 3.90625 3.902344 10.238281 3.902344 14.144531 0zm0 0"/><path d="m382.929688 70.101562c-1.859376 1.867188-2.929688 4.4375-2.929688 7.070313 0 2.628906 1.070312 5.207031 2.929688 7.066406 1.859374 1.871094 4.441406 2.941407 7.070312 2.941407s5.210938-1.070313 7.070312-2.941407c1.859376-1.859375 2.929688-4.429687 2.929688-7.066406 0-2.632813-1.070312-5.210937-2.929688-7.070313-1.859374-1.859374-4.441406-2.929687-7.070312-2.929687s-5.210938 1.066406-7.070312 2.929687zm0 0"/><path d="m412.429688 64.742188c2.558593 0 5.121093-.976563 7.070312-2.929688 3.90625-3.902344 3.90625-10.234375 0-14.140625-16.265625-16.265625-42.734375-16.265625-59 0-3.90625 3.902344-3.90625 10.234375 0 14.140625s10.238281 3.90625 14.140625 0c8.46875-8.46875 22.25-8.46875 30.71875 0 1.953125 1.953125 4.511719 2.929688 7.070313 2.929688zm0 0"/><path d="m349.574219 36.746094c10.796875-10.800782 25.15625-16.746094 40.425781-16.746094s29.628906 5.945312 40.425781 16.746094c1.953125 1.953125 4.511719 2.929687 7.070313 2.929687 2.5625 0 5.121094-.976562 7.074218-2.929687 3.902344-3.90625 3.90625-10.238282 0-14.144532-14.578124-14.574218-33.957031-22.601562-54.570312-22.601562s-39.992188 8.027344-54.570312 22.605469c-3.90625 3.902343-3.90625 10.234375 0 14.140625 3.90625 3.902344 10.238281 3.902344 14.144531 0zm0 0"/><path d="m502 0c-5.523438 0-10 4.476562-10 10v140.050781h-14.78125l-21.03125-31.546875c-1.851562-2.785156-4.976562-4.453125-8.320312-4.453125h-20.117188c-.296875 0-.585938.015625-.875.042969-.289062-.027344-.578125-.042969-.875-.042969h-72c-5.523438 0-10 4.476563-10 10v72c0 5.519531 4.476562 10 10 10h72c.296875 0 .585938-.019531.875-.046875.289062.027344.578125.046875.875.046875h20.117188c3.347656 0 6.46875-1.671875 8.320312-4.453125l21.03125-31.546875h24.78125c5.523438 0 10-4.480469 10-10v-150.050781c0-5.523438-4.476562-10-10-10zm-86 186.050781h-52v-52h52zm26.515625 0h-6.515625v-52h6.515625l17.332031 26zm0 0"/></svg>