<svg height="512pt" viewBox="0 -20 512 512" width="512pt" xmlns="http://www.w3.org/2000/svg"><path d="m421.5 308.339844c-2.628906 0-5.210938 1.058594-7.070312 2.929687-1.859376 1.859375-2.929688 4.429688-2.929688 7.070313 0 2.628906 1.070312 5.210937 2.929688 7.070312 1.859374 1.859375 4.441406 2.929688 7.070312 2.929688s5.210938-1.070313 7.070312-2.929688c1.859376-1.859375 2.929688-4.441406 2.929688-7.070312 0-2.640625-1.070312-5.210938-2.929688-7.070313-1.859374-1.871093-4.441406-2.929687-7.070312-2.929687zm0 0"/><path d="m235.957031 339.792969c-5.523437 0-10 4.476562-10 10 0 5.523437 4.476563 10 10 10h.085938c5.523437 0 9.957031-4.476563 9.957031-10 0-5.523438-4.519531-10-10.042969-10zm0 0"/><path d="m512 229c0-23.121094-17.53125-42.21875-40-44.714844v-121.125c0-19.574218-15.925781-35.5-35.5-35.5h-14.5v-17.660156c0-5.523438-4.476562-10-10-10h-184c-5.523438 0-10 4.476562-10 10v17.664062h-182.5c-19.574219 0-35.5 15.925782-35.5 35.5v295.335938c0 19.574219 15.925781 35.5 35.5 35.5h152.5v58h-33.902344c-5.523437 0-10 4.476562-10 10s4.476563 10 10 10h163.804688c5.523437 0 10-4.476562 10-10s-4.476563-10-10-10h-33.902344v-58h152.5c19.574219 0 35.5-15.925781 35.5-35.5v-84.785156c22.46875-2.496094 40-21.59375 40-44.714844zm-75.5-181.339844c8.546875 0 15.5 6.953125 15.5 15.5v120.839844h-30v-136.339844zm-97.445312-27.660156v43.566406l-12.03125-11.863281c-1.949219-1.917969-4.484376-2.878906-7.023438-2.878906-2.535156 0-5.074219.960937-7.019531 2.878906l-12.03125 11.863281v-43.566406zm-101.054688 0h42.945312v67.472656c0 4.035156 2.421876 7.671875 6.144532 9.226563 3.71875 1.558593 8.007812.726562 10.878906-2.105469l22.03125-21.726562 22.03125 21.726562c1.910156 1.882812 4.445312 2.878906 7.023438 2.878906 1.300781 0 2.609374-.25 3.855468-.773437 3.722656-1.554688 6.140625-5.191407 6.140625-9.226563v-67.472656h42.949219v164h-164zm26 432h-56v-58h56zm172.5-78h-401c-8.546875 0-15.5-6.953125-15.5-15.5v-30.164062h359c5.523438 0 10-4.476563 10-10 0-5.519532-4.476562-10-10-10h-359v-245.171876c0-8.546874 6.953125-15.5 15.5-15.5h182.5v96.046876h-75.085938c-5.519531 0-10 4.476562-10 10 0 5.519531 4.480469 10 10 10h75.085938v20.289062h-55c-24.8125 0-45 20.1875-45 45s20.1875 45 45 45h289v84.5c0 8.546875-6.953125 15.5-15.5 15.5zm30.5-120h-304c-13.785156 0-25-11.214844-25-25s11.214844-25 25-25h304c13.785156 0 25 11.214844 25 25s-11.214844 25-25 25zm0 0"/><path d="m256 219c-2.628906 0-5.210938 1.070312-7.070312 2.929688-1.859376 1.859374-2.929688 4.441406-2.929688 7.070312s1.070312 5.210938 2.929688 7.070312c1.859374 1.859376 4.441406 2.929688 7.070312 2.929688s5.210938-1.070312 7.070312-2.929688c1.859376-1.859374 2.929688-4.441406 2.929688-7.070312s-1.070312-5.210938-2.929688-7.070312c-1.859374-1.859376-4.441406-2.929688-7.070312-2.929688zm0 0"/><path d="m192 219c-2.628906 0-5.210938 1.070312-7.070312 2.929688-1.859376 1.859374-2.929688 4.441406-2.929688 7.070312s1.070312 5.210938 2.929688 7.070312c1.859374 1.859376 4.441406 2.929688 7.070312 2.929688s5.210938-1.070312 7.070312-2.929688c1.859376-1.859374 2.929688-4.441406 2.929688-7.070312s-1.070312-5.210938-2.929688-7.070312c-1.859374-1.859376-4.441406-2.929688-7.070312-2.929688zm0 0"/><path d="m448 219c-2.628906 0-5.210938 1.070312-7.070312 2.929688-1.859376 1.859374-2.929688 4.441406-2.929688 7.070312s1.070312 5.210938 2.929688 7.070312c1.859374 1.859376 4.441406 2.929688 7.070312 2.929688s5.210938-1.070312 7.070312-2.929688c1.859376-1.859374 2.929688-4.441406 2.929688-7.070312s-1.070312-5.210938-2.929688-7.070312c-1.859374-1.859376-4.441406-2.929688-7.070312-2.929688zm0 0"/><path d="m320 219c-2.628906 0-5.210938 1.070312-7.070312 2.929688-1.859376 1.859374-2.929688 4.441406-2.929688 7.070312s1.070312 5.210938 2.929688 7.070312c1.859374 1.859376 4.441406 2.929688 7.070312 2.929688s5.210938-1.070312 7.070312-2.929688c1.859376-1.859374 2.929688-4.441406 2.929688-7.070312s-1.070312-5.210938-2.929688-7.070312c-1.859374-1.859376-4.441406-2.929688-7.070312-2.929688zm0 0"/><path d="m384 219c-2.628906 0-5.210938 1.070312-7.070312 2.929688-1.859376 1.859374-2.929688 4.441406-2.929688 7.070312s1.070312 5.210938 2.929688 7.070312c1.859374 1.859376 4.441406 2.929688 7.070312 2.929688s5.210938-1.070312 7.070312-2.929688c1.859376-1.859374 2.929688-4.441406 2.929688-7.070312s-1.070312-5.210938-2.929688-7.070312c-1.859374-1.859376-4.441406-2.929688-7.070312-2.929688zm0 0"/><path d="m374.171875 135.578125h-33.894531c-5.523438 0-10 4.480469-10 10 0 5.523437 4.476562 10 10 10h33.894531c5.523437 0 10-4.476563 10-10 0-5.519531-4.476563-10-10-10zm0 0"/><path d="m101.410156 143.710938c-2.628906 0-5.210937 1.070312-7.070312 2.929687s-2.929688 4.4375-2.929688 7.070313c0 2.628906 1.070313 5.210937 2.929688 7.070312s4.441406 2.929688 7.070312 2.929688 5.210938-1.070313 7.070313-2.929688c1.871093-1.859375 2.929687-4.441406 2.929687-7.070312 0-2.632813-1.058594-5.210938-2.929687-7.070313-1.859375-1.859375-4.429688-2.929687-7.070313-2.929687zm0 0"/><path d="m184.417969 123.714844c5.523437 0 10-4.480469 10-10 0-5.523438-4.476563-10-10-10h-63.652344c-5.523437 0-10 4.476562-10 10 0 5.519531 4.476563 10 10 10zm0 0"/></svg>