<svg height="512pt" viewBox="-3 0 512 512.001" width="512pt" xmlns="http://www.w3.org/2000/svg"><path d="m156.296875 185.386719c2.628906 0 5.210937-1.070313 7.070313-2.9375 1.859374-1.859375 2.929687-4.429688 2.929687-7.070313 0-2.632812-1.070313-5.210937-2.929687-7.070312-1.859376-1.859375-4.441407-2.929688-7.070313-2.929688s-5.210937 1.070313-7.070313 2.929688c-1.859374 1.859375-2.929687 4.4375-2.929687 7.070312 0 2.640625 1.070313 5.210938 2.929687 7.070313 1.859376 1.867187 4.4375 2.9375 7.070313 2.9375zm0 0"/><path d="m280.941406 50.210938c1.859375 1.871093 4.4375 2.933593 7.070313 2.933593 2.628906 0 5.210937-1.0625 7.070312-2.933593 1.859375-1.859376 2.929688-4.4375 2.929688-7.066407 0-2.632812-1.070313-5.210937-2.929688-7.070312-1.859375-1.863281-4.441406-2.933594-7.070312-2.933594-2.632813 0-5.210938 1.070313-7.070313 2.933594-1.871094 1.859375-2.929687 4.4375-2.929687 7.070312 0 2.628907 1.058593 5.207031 2.929687 7.066407zm0 0"/><path d="m173.152344 323.214844h-33.800782c-5.523437 0-10 4.480468-10 10.003906 0 5.519531 4.476563 10 10 10h33.800782c5.523437 0 10-4.480469 10-10 0-5.523438-4.476563-10.003906-10-10.003906zm0 0"/><path d="m103.664062 323.222656c-2.640624 0-5.21875 1.0625-7.082031 2.921875-1.859375 1.867188-2.917969 4.4375-2.917969 7.070313 0 2.636718 1.058594 5.207031 2.917969 7.070312 1.863281 1.867188 4.441407 2.929688 7.082031 2.929688 2.628907 0 5.210938-1.0625 7.070313-2.929688 1.859375-1.863281 2.929687-4.433594 2.929687-7.070312 0-2.632813-1.070312-5.203125-2.929687-7.070313-1.859375-1.859375-4.441406-2.921875-7.070313-2.921875zm0 0"/><path d="m208.839844 323.222656c-2.632813 0-5.210938 1.0625-7.0625 2.921875-1.867188 1.859375-2.929688 4.4375-2.929688 7.070313 0 2.636718 1.0625 5.207031 2.929688 7.070312 1.851562 1.867188 4.429687 2.929688 7.0625 2.929688 2.640625 0 5.21875-1.0625 7.078125-2.929688 1.859375-1.863281 2.929687-4.433594 2.929687-7.070312 0-2.632813-1.070312-5.203125-2.929687-7.070313-1.859375-1.859375-4.4375-2.921875-7.078125-2.921875zm0 0"/><path d="m383.175781 138.164062c2.628907 0 5.207031-1.070312 7.070313-2.929687 1.859375-1.859375 2.929687-4.4375 2.929687-7.070313 0-2.628906-1.070312-5.210937-2.929687-7.070312-1.863282-1.859375-4.441406-2.929688-7.070313-2.929688-2.640625 0-5.210937 1.070313-7.082031 2.929688-1.859375 1.859375-2.917969 4.441406-2.917969 7.070312 0 2.632813 1.058594 5.210938 2.917969 7.070313 1.871094 1.859375 4.441406 2.929687 7.082031 2.929687zm0 0"/><path d="m503.742188 324.785156c-6.191407-14.078125-19.59375-22.824218-34.972657-22.824218-10.976562 0-21.429687 4.726562-28.683593 12.964843l-38.535157 43.777344c-29.367187 33.359375-69.375 55.03125-112.714843 61.730469 3.640624-6.386719 5.726562-13.765625 5.726562-21.625 0-23.0625-17.898438-42.007813-40.53125-43.707032v-42.46875c0-12.460937-7.886719-23.109374-18.925781-27.230468l-24.070313-104.039063 87.316406-87.316406 55.542969 55.539063v34.785156l-37.964843 38.148437c-3.109376 3.125-3.808594 7.917969-1.71875 11.796875l18.886718 35.050782c1.804688 3.355468 5.25 5.257812 8.8125 5.257812 1.601563 0 3.226563-.382812 4.734375-1.195312 4.863281-2.621094 6.679688-8.6875 4.0625-13.546876l-15.363281-28.515624 32.785156-32.945313h30.308594l32.785156 32.945313-15.363281 28.515624c-2.617187 4.859376-.800781 10.925782 4.0625 13.546876 1.507813.8125 3.132813 1.195312 4.734375 1.195312 3.558594 0 7.007812-1.902344 8.8125-5.257812l18.882812-35.050782c2.09375-3.878906 1.394532-8.671875-1.714843-11.796875l-37.964844-38.148437v-35.410156c0-.101563-.011719-.199219-.015625-.300782 4.1875-5.980468 6.449219-13.078125 6.449219-20.527344 0-9.589843-3.734375-18.605468-10.515625-25.382812l-90.050782-90.054688c-.007812-.003906-.015624-.011718-.019531-.019531-.007812-.007812-.015625-.011719-.023437-.019531l-.019532-.019531c-.003906-.007813-.011718-.011719-.019531-.019531-8.167969-8.136719-19.011719-12.617188-30.542969-12.617188-11.5625 0-22.429687 4.503906-30.601562 12.675781l-110.261719 110.261719c-.070312.066406-.125.140625-.191406.210938-24.375 4.394531-43.007813 25.472656-43.617187 50.949218l-25.742188 111.261719c-11.097656 4.097656-19.027344 14.773437-19.027344 27.273437v64.507813c-16.046875 9.09375-30.683594 20.8125-43.195312 34.863281l-12.746094 14.3125c-3.671875 4.125-3.304688 10.445313.820312 14.117188 1.90625 1.699218 4.28125 2.53125 6.644532 2.53125 2.757812 0 5.5-1.128906 7.472656-3.347656l12.746094-14.316407c11.3125-12.703125 24.589844-23.246093 39.164062-31.351562 2.710938-.242188 5.109375-1.566407 6.761719-3.539063 20.421875-10.042968 43.078125-15.449218 66.304687-15.449218h108.273438c13.148438 0 23.84375 10.699218 23.847656 23.847656 0 13.148437-10.699218 23.84375-23.847656 23.84375l-67.042969.003906c-5.523437 0-10 4.476562-10 10s4.476563 10 10 10h76.386719c59.886719 0 116.929688-25.78125 156.503906-70.738281l38.535156-43.777344c3.457032-3.925781 8.4375-6.179687 13.667969-6.179687 7.441407 0 13.671875 4.066406 16.667969 10.878906 2.996094 6.808594 1.78125 14.148437-3.246094 19.632812l-71.851562 78.394532c-35.609375 38.851562-86.257813 61.132812-138.957032 61.132812h-261.382812c-5.523438 0-10 4.476562-10 10s4.476562 10 10 10h261.382812c58.289063 0 114.3125-24.644531 153.699219-67.617188l71.855469-78.394531c10.390625-11.335937 13-27.125 6.804688-41.203125zm-246.253907-251.117187c6.066407 6.066406 13.507813 9.933593 21.332031 11.625l-72.453124 72.453125c-5.421876-15.347656-17.710938-27.472656-33.160157-32.679688l72.667969-72.667968c1.699219 7.800781 5.5625 15.21875 11.613281 21.269531zm135.183594 104.753906h-18.773437v-15.613281c3 .796875 6.121093 1.222656 9.308593 1.222656 3.242188 0 6.417969-.4375 9.464844-1.265625zm6.429687-50.289063c0 4.246094-1.652343 8.238282-4.65625 11.238282-3 3.003906-6.992187 4.65625-11.238281 4.65625-4.246093 0-8.238281-1.652344-11.242187-4.65625l-59.46875-59.46875 6.019531-6.019532c5.925781-5.925781 9.910156-13.269531 11.660156-21.261718l64.269531 64.269531c3.003907 3.003906 4.65625 6.996094 4.65625 11.242187zm-94.726562-101.3125c4.394531 4.394532 6.816406 10.242188 6.816406 16.460938 0 5.761719-2.101562 11.191406-5.910156 15.457031-.308594.242188-.609375.5-.894531.785157-9.03125 9.03125-23.726563 9.03125-32.757813 0s-9.03125-23.726563 0-32.757813c.191406-.191406.367188-.390625.539063-.59375 4.304687-3.972656 9.851562-6.171875 15.746093-6.171875 6.21875 0 12.0625 2.421875 16.460938 6.820312zm-148.078125 115.46875c18.246094 0 33.089844 14.847657 33.089844 33.089844 0 18.246094-14.84375 33.089844-33.089844 33.089844-18.242187 0-33.085937-14.84375-33.085937-33.089844 0-18.242187 14.84375-33.089844 33.085937-33.089844zm-40.699219 67.132813c9.746094 11.632813 24.371094 19.050781 40.699219 19.050781 16.332031 0 30.957031-7.417968 40.703125-19.050781l17.15625 74.152344h-115.714844zm-37.125 158.046875v-54.835938c0-4.992187 4.0625-9.058593 9.058594-9.058593h137.441406c4.996094 0 9.058594 4.0625 9.058594 9.058593v42.328126h-91.582031c-22.160157 0-43.859375 4.347656-63.976563 12.507812zm0 0"/><path d="m154.355469 439.726562c1.859375-1.871093 2.929687-4.4375 2.929687-7.070312 0-2.640625-1.070312-5.207031-2.929687-7.078125-1.871094-1.859375-4.441407-2.921875-7.070313-2.921875s-5.210937 1.0625-7.082031 2.921875c-1.859375 1.871094-2.917969 4.4375-2.917969 7.078125 0 2.632812 1.058594 5.199219 2.917969 7.070312 1.871094 1.859376 4.453125 2.933594 7.082031 2.933594s5.203125-1.074218 7.070313-2.933594zm0 0"/></svg>