<svg height="511pt" viewBox="0 0 511.99907 511" width="511pt" xmlns="http://www.w3.org/2000/svg"><path d="m297.496094 492.496094c-2.628906 0-5.207032 1.070312-7.070313 2.929687-1.859375 1.859375-2.929687 4.441407-2.929687 7.070313s1.070312 5.210937 2.929687 7.070312c1.863281 1.859375 4.441407 2.929688 7.070313 2.929688 2.632812 0 5.210937-1.070313 7.070312-2.929688s2.929688-4.441406 2.929688-7.070312-1.070313-5.210938-2.929688-7.070313-4.4375-2.929687-7.070312-2.929687zm0 0"/><path d="m215 452.496094c-2.640625 0-5.210938 1.070312-7.070312 2.929687-1.859376 1.859375-2.929688 4.441407-2.929688 7.070313s1.070312 5.210937 2.929688 7.070312c1.859374 1.859375 4.4375 2.929688 7.070312 2.929688 2.628906 0 5.207031-1.070313 7.066406-2.929688 1.863282-1.859375 2.933594-4.441406 2.933594-7.070312s-1.070312-5.210938-2.933594-7.070313c-1.859375-1.859375-4.4375-2.929687-7.066406-2.929687zm0 0"/><path d="m379.996094 452.496094c-2.628906 0-5.210938 1.070312-7.070313 2.929687s-2.929687 4.441407-2.929687 7.070313 1.070312 5.210937 2.929687 7.070312 4.441407 2.929688 7.070313 2.929688c2.632812 0 5.210937-1.070313 7.070312-2.929688s2.929688-4.441406 2.929688-7.070312-1.070313-5.210938-2.929688-7.070313-4.429687-2.929687-7.070312-2.929687zm0 0"/><path d="m57.070312 469.566406c1.859376-1.859375 2.929688-4.441406 2.929688-7.070312s-1.070312-5.210938-2.929688-7.070313c-1.859374-1.859375-4.441406-2.929687-7.070312-2.929687s-5.210938 1.070312-7.070312 2.929687c-1.859376 1.859375-2.929688 4.441407-2.929688 7.070313s1.070312 5.210937 2.929688 7.070312c1.859374 1.859375 4.441406 2.929688 7.070312 2.929688s5.210938-1.070313 7.070312-2.929688zm0 0"/><path d="m507.894531 494.421875-48.25-35.242187c.886719-.875 1.722657-1.816407 2.484375-2.847657l45.167969-61.121093c3.808594-5.15625 5.382813-11.488282 4.429687-17.828126-.949218-6.339843-4.3125-11.929687-9.46875-15.738281l-41.820312-30.90625c-10.644531-7.859375-25.699219-5.601562-33.566406 5.039063l-45.167969 61.125c-.632813.855468-1.199219 1.75-1.707031 2.667968v-67.074218c0-13.230469-10.765625-23.996094-24-23.996094h-52c-13.234375 0-24 10.765625-24 23.996094v76c0 1.363281.121094 2.699218.339844 4h-20.679688c.21875-1.300782.339844-2.636719.339844-4v-76c0-13.230469-10.765625-23.996094-24-23.996094h-52c-13.234375 0-24 10.765625-24 23.996094v76c0 1.363281.121094 2.699218.339844 4h-110.335938c-27.570312 0-50 22.429687-50 50 0 27.570312 22.429688 50 50 50h211.664062c5.523438 0 10-4.476563 10-10 0-5.519532-4.476562-10-10-10h-6.691406c6.289063-8.363282 10.023438-18.75 10.023438-30 0-11.246094-3.734375-21.636719-10.023438-30h85.050782c-6.289063 8.363281-10.023438 18.753906-10.023438 30 0 11.25 3.734375 21.636718 10.023438 30h-6.359376c-5.523437 0-10 4.480468-10 10 0 5.523437 4.476563 10 10 10h168.332032c4.328125 0 8.164062-2.78125 9.507812-6.898438 1.339844-4.113281-.113281-8.625-3.609375-11.175781zm-110.105469-85.636719 45.167969-61.121094c.785157-1.0625 1.996094-1.621093 3.222657-1.621093.824218 0 1.660156.253906 2.371093.78125l41.820313 30.902343c1.160156.855469 1.484375 2.011719 1.578125 2.621094.09375.613282.117187 1.816406-.738281 2.972656l-45.167969 61.121094c-1.128907 1.53125-3.144531 2.011719-4.816407 1.28125l-15.519531-11.332031-2.671875-1.976563c.609375.117188 1.226563.179688 1.847656.179688 2.640626 0 5.210938-1.066406 7.070313-2.929688 1.871094-1.859374 2.929687-4.4375 2.929687-7.070312 0-2.636719-1.058593-5.207031-2.929687-7.078125-1.859375-1.859375-4.429687-2.921875-7.070313-2.921875-2.628906 0-5.207031 1.0625-7.066406 2.921875-1.863281 1.871094-2.933594 4.441406-2.933594 7.078125 0 1.625.410157 3.226562 1.160157 4.652344l-2.929688-2.164063c-2.25-1.996093-4.675781-3.796875-7.261719-5.367187l-7.222656-5.339844c-1.160156-.855469-1.484375-2.007812-1.578125-2.621094-.089843-.609375-.117187-1.808594.738281-2.96875zm-217.789062-.289062v-76c0-2.207032 1.792969-4 4-4h52c2.203125 0 4 1.792968 4 4v76c0 2.207031-1.796875 4-4 4h-21.6875c1.015625-.484375 1.953125-1.128906 2.753906-1.929688 1.859375-1.859375 2.929688-4.441406 2.929688-7.070312s-1.070313-5.210938-2.929688-7.070313-4.4375-2.929687-7.070312-2.929687c-2.628906 0-5.207032 1.070312-7.070313 2.929687-1.859375 1.859375-2.929687 4.441407-2.929687 7.070313s1.070312 5.210937 2.929687 7.070312c.800781.800782 1.742188 1.445313 2.757813 1.929688h-21.683594c-2.207031 0-4-1.792969-4-4zm-4.972656 84h-85.054688c6.292969-8.363282 10.027344-18.753906 10.027344-30 0-11.25-3.734375-21.636719-10.027344-30h85.054688c-6.292969 8.363281-10.027344 18.75-10.027344 30 0 11.246094 3.734375 21.636718 10.027344 30zm-155.027344-30c0-16.542969 13.457031-30 30-30s30 13.457031 30 30c0 16.542968-13.457031 30-30 30s-30-13.457032-30-30zm165 0c0-16.542969 13.457031-30 30-30 16.539062 0 30 13.457031 30 30 0 16.542968-13.460938 30-30 30-16.542969 0-30-13.457032-30-30zm114.996094-54v-76c0-2.207032 1.796875-4 4-4h52c2.207031 0 4 1.792968 4 4v76c0 2.207031-1.792969 4-4 4h-21.683594c1.015625-.484375 1.953125-1.128906 2.753906-1.929688 1.859375-1.859375 2.929688-4.441406 2.929688-7.070312s-1.070313-5.210938-2.929688-7.070313-4.441406-2.929687-7.070312-2.929687-5.210938 1.070312-7.070313 2.929687-2.929687 4.441407-2.929687 7.070313 1.070312 5.210937 2.929687 7.070312c.800781.800782 1.742188 1.445313 2.753907 1.929688h-21.683594c-2.203125 0-4-1.792969-4-4zm50 54c0-16.542969 13.460937-30 30-30 5.390625 0 10.445312 1.4375 14.824218 3.933594l5.691407 4.207031c5.832031 5.476562 9.484375 13.246093 9.484375 21.859375 0 16.542968-13.457032 30-30 30-16.539063 0-30-13.457032-30-30zm69.972656 30c6.292969-8.363282 10.027344-18.753906 10.027344-30 0-.054688-.003906-.105469-.003906-.160156.148437.09375.296874.183593.445312.273437l40.914062 29.886719zm0 0"/><path d="m39.816406 229.261719c.054688.101562.125.191406.183594.292969v74.945312c0 13.230469 10.765625 23.996094 24 23.996094h52c13.234375 0 24-10.765625 24-23.996094v-74.945312c.058594-.101563.125-.191407.183594-.292969l18.882812-35.046875c2.089844-3.882813 1.394532-8.675782-1.714844-11.796875l-37.964843-38.148438v-99.101562c0-5.523438-4.480469-10-10-10-5.523438 0-10 4.476562-10 10v93.152343h-18.773438v-127.820312c0-5.523438-4.476562-10-10-10-5.523437 0-10 4.476562-10 10v133.769531l-37.964843 38.148438c-3.109376 3.121093-3.804688 7.914062-1.714844 11.796875zm80.183594 75.234375c0 2.207031-1.796875 4-4 4h-21.6875c1.015625-.484375 1.957031-1.128906 2.753906-1.929688 1.863282-1.859375 2.933594-4.4375 2.933594-7.070312 0-2.628906-1.070312-5.207032-2.933594-7.070313-1.859375-1.859375-4.4375-2.929687-7.066406-2.929687-2.632812 0-5.210938 1.070312-7.070312 2.929687-1.859376 1.863281-2.929688 4.441407-2.929688 7.070313 0 2.632812 1.070312 5.210937 2.929688 7.070312.800781.800782 1.738281 1.445313 2.753906 1.929688h-21.683594c-2.207031 0-4-1.792969-4-4v-76c0-2.203125 1.792969-4 4-4h52c2.203125 0 4 1.796875 4 4zm-45.15625-146.175782h30.308594l32.785156 32.941407-9.132812 16.953125c-3.707032-2.351563-8.101563-3.71875-12.804688-3.71875h-52c-4.707031 0-9.097656 1.367187-12.804688 3.71875l-9.132812-16.953125zm0 0"/><path d="m109.390625 20.5c2.628906 0 5.199219-1.070312 7.070313-2.929688 1.859374-1.859374 2.929687-4.441406 2.929687-7.070312s-1.070313-5.210938-2.929687-7.070312c-1.871094-1.859376-4.441407-2.929688-7.070313-2.929688-2.640625 0-5.210937 1.070312-7.082031 2.929688-1.859375 1.859374-2.917969 4.441406-2.917969 7.070312s1.058594 5.210938 2.917969 7.070312c1.871094 1.859376 4.441406 2.929688 7.082031 2.929688zm0 0"/></svg>