<svg viewBox="0 -71 512 512" xmlns="http://www.w3.org/2000/svg"><path d="m355.488281 156.785156c1.859375-1.859375 2.933594-4.441406 2.933594-7.070312s-1.070313-5.210938-2.933594-7.070313c-1.859375-1.859375-4.429687-2.929687-7.066406-2.929687-2.632813 0-5.210937 1.070312-7.070313 2.929687-1.859374 1.859375-2.929687 4.441407-2.929687 7.070313s1.066406 5.210937 2.929687 7.070312c1.859376 1.859375 4.4375 2.929688 7.070313 2.929688 2.628906 0 5.207031-1.070313 7.066406-2.929688zm0 0"/><path d="m56.929688 107.644531c-1.859376 1.859375-2.929688 4.4375-2.929688 7.070313 0 2.628906 1.070312 5.207031 2.929688 7.070312 1.859374 1.859375 4.441406 2.929688 7.070312 2.929688s5.210938-1.070313 7.070312-2.929688c1.859376-1.863281 2.929688-4.441406 2.929688-7.070312 0-2.632813-1.070312-5.210938-2.929688-7.070313-1.859374-1.859375-4.441406-2.929687-7.070312-2.929687s-5.210938 1.070312-7.070312 2.929687zm0 0"/><path d="m248.929688 107.644531c-1.859376 1.859375-2.929688 4.4375-2.929688 7.070313 0 2.628906 1.070312 5.207031 2.929688 7.070312 1.859374 1.859375 4.441406 2.929688 7.070312 2.929688s5.210938-1.070313 7.070312-2.929688c1.859376-1.863281 2.929688-4.441406 2.929688-7.070312 0-2.632813-1.070312-5.210938-2.929688-7.070313-1.859374-1.859375-4.441406-2.929687-7.070312-2.929687s-5.210938 1.070312-7.070312 2.929687zm0 0"/><path d="m192 104.714844c-2.628906 0-5.210938 1.070312-7.070312 2.929687-1.859376 1.859375-2.929688 4.4375-2.929688 7.070313 0 2.628906 1.070312 5.207031 2.929688 7.070312 1.859374 1.859375 4.441406 2.929688 7.070312 2.929688s5.210938-1.070313 7.070312-2.929688c1.859376-1.863281 2.929688-4.441406 2.929688-7.070312 0-2.632813-1.070312-5.210938-2.929688-7.070313-1.859374-1.859375-4.441406-2.929687-7.070312-2.929687zm0 0"/><path d="m120.929688 107.644531c-1.859376 1.859375-2.929688 4.4375-2.929688 7.070313 0 2.628906 1.070312 5.207031 2.929688 7.070312 1.859374 1.859375 4.441406 2.929688 7.070312 2.929688s5.210938-1.070313 7.070312-2.929688c1.859376-1.863281 2.929688-4.441406 2.929688-7.070312 0-2.632813-1.070312-5.210938-2.929688-7.070313-1.859374-1.859375-4.441406-2.929687-7.070312-2.929687s-5.210938 1.070312-7.070312 2.929687zm0 0"/><path d="m455.070312 121.785156c1.859376-1.859375 2.929688-4.441406 2.929688-7.070312s-1.070312-5.210938-2.929688-7.070313c-1.859374-1.859375-4.441406-2.929687-7.070312-2.929687s-5.210938 1.070312-7.070312 2.929687c-1.859376 1.859375-2.929688 4.441407-2.929688 7.070313s1.070312 5.210937 2.929688 7.070312c1.859374 1.859375 4.441406 2.929688 7.070312 2.929688s5.210938-1.070313 7.070312-2.929688zm0 0"/><path d="m327.070312 107.644531c-1.859374-1.859375-4.441406-2.929687-7.070312-2.929687s-5.210938 1.070312-7.070312 2.929687c-1.859376 1.859375-2.929688 4.429688-2.929688 7.070313 0 2.628906 1.070312 5.207031 2.929688 7.070312 1.859374 1.859375 4.441406 2.929688 7.070312 2.929688s5.210938-1.070313 7.070312-2.929688c1.859376-1.863281 2.929688-4.441406 2.929688-7.070312 0-2.632813-1.070312-5.210938-2.929688-7.070313zm0 0"/><path d="m391.070312 121.785156c1.859376-1.859375 2.929688-4.441406 2.929688-7.070312s-1.070312-5.210938-2.929688-7.070313c-1.859374-1.859375-4.441406-2.929687-7.070312-2.929687s-5.210938 1.070312-7.070312 2.929687c-1.859376 1.859375-2.929688 4.441407-2.929688 7.070313s1.070312 5.210937 2.929688 7.070312c1.859374 1.859375 4.441406 2.929688 7.070312 2.929688s5.210938-1.070313 7.070312-2.929688zm0 0"/><path d="m489 350.710938h-7v-193.578126c17.460938-6.191406 30-22.867187 30-42.421874 0-24.8125-20.1875-45-45-45h-.300781c4.207031-6.375 6.601562-13.554688 6.851562-20.875.371094-10.859376-4.011719-21.425782-12.339843-29.753907-8.070313-8.070312-20.238282-14.613281-32.550782-17.503906-15.1875-3.5625-28.027344-1.054687-36.152344 7.070313-8.121093 8.125-10.632812 20.964843-7.070312 36.152343 2.082031 8.875 6.070312 17.667969 11.15625 24.910157h-50.886719c5.082031-7.246094 9.070313-16.035157 11.152344-24.910157 3.5625-15.1875 1.050781-28.027343-7.070313-36.152343-17.515624-17.511719-52.949218-5.320313-68.703124 10.433593-8.328126 8.328125-12.707032 18.894531-12.335938 29.753907.25 7.320312 2.640625 14.5 6.851562 20.875h-39.203124c4.210937-6.375 6.601562-13.554688 6.855468-20.875.371094-10.859376-4.011718-21.425782-12.339844-29.753907-15.753906-15.753906-51.1875-27.945312-68.703124-10.433593-8.121094 8.125-10.632813 20.964843-7.070313 36.152343 2.082031 8.875 6.070313 17.664063 11.152344 24.910157h-50.882813c5.082032-7.246094 9.070313-16.035157 11.152344-24.910157 3.5625-15.1875 1.050781-28.027343-7.070312-36.152343-17.515626-17.511719-52.949219-5.320313-68.703126 10.433593-14.390624 14.390625-16.195312 34.527344-5.511718 50.628907h-.277344c-24.8125 0-45 20.1875-45 45 0 19.554687 12.539062 36.230468 30 42.421874v193.578126h-20c-5.523438 0-10 4.480468-10 10 0 5.523437 4.476562 10 10 10h133.667969c5.519531 0 10-4.476563 10-10 0-5.519532-4.480469-10-10-10h-45.667969v-191h208.332031c5.523438 0 10-4.476563 10-10 0-5.519532-4.476562-10-10-10h-261.332031c-13.785156 0-25-11.214844-25-25 0-13.785157 11.214844-25 25-25h422c13.785156 0 25 11.214843 25 25 0 13.785156-11.214844 25-25 25h-78.667969c-5.519531 0-10 4.480468-10 10 0 5.523437 4.480469 10 10 10h25.667969v191h-177c-5.523438 0-10 4.480468-10 10 0 5.523437 4.476562 10 10 10h252c5.523438 0 10-4.476563 10-10 0-5.519532-4.476562-10-10-10zm-82.347656-327.917969c1.898437-1.902344 5.136718-2.765625 9.058594-2.765625 9.652343 0 23.414062 5.253906 31.355468 13.195312 4.429688 4.433594 6.675782 9.59375 6.496094 14.929688-.179688 5.167968-2.628906 10.367187-6.90625 14.644531s-9.476562 6.730469-14.644531 6.90625c-5.332031.183594-10.5-2.0625-14.929688-6.492187-5.382812-5.382813-10.160156-14.402344-12.171875-22.976563-1.839844-7.84375-1.171875-14.527344 1.742188-17.441406zm-111.421875 10.429687c7.945312-7.941406 21.703125-13.195312 31.359375-13.195312 3.914062 0 7.15625.863281 9.054687 2.765625 2.914063 2.914062 3.582031 9.597656 1.742188 17.441406-2.011719 8.574219-6.789063 17.59375-12.171875 22.976563-4.433594 4.429687-9.609375 6.671874-14.929688 6.492187-5.167968-.179687-10.367187-2.628906-14.644531-6.90625s-6.730469-9.476563-6.90625-14.644531c-.179687-5.335938 2.066406-10.496094 6.496094-14.929688zm-118.875-10.429687c1.898437-1.902344 5.140625-2.765625 9.054687-2.765625 9.652344 0 23.417969 5.253906 31.359375 13.195312 4.429688 4.433594 6.675781 9.59375 6.492188 14.929688-.175781 5.167968-2.628907 10.367187-6.902344 14.644531-4.277344 4.277344-9.480469 6.730469-14.648437 6.90625-5.328126.183594-10.496094-2.0625-14.925782-6.492187-5.386718-5.382813-10.164062-14.402344-12.171875-22.976563-1.839843-7.84375-1.171875-14.527344 1.742188-17.441406zm-111.421875 10.429687c7.941406-7.941406 21.703125-13.195312 31.355468-13.195312 3.917969 0 7.160157.863281 9.058594 2.765625 2.914063 2.914062 3.582032 9.597656 1.742188 17.441406-2.011719 8.574219-6.789063 17.59375-12.175782 22.976563-4.429687 4.429687-9.574218 6.664062-14.925781 6.492187-5.167969-.179687-10.367187-2.628906-14.644531-6.90625-4.277344-4.273437-6.730469-9.476563-6.90625-14.644531-.179688-5.335938 2.066406-10.496094 6.496094-14.929688zm13.066406 126.488282v191h-28v-191zm356 191v-191h28v191zm0 0"/><path d="m189.171875 350.714844c-2.640625 0-5.210937 1.070312-7.070313 2.929687-1.871093 1.859375-2.929687 4.4375-2.929687 7.070313 0 2.628906 1.058594 5.207031 2.929687 7.070312 1.859376 1.859375 4.4375 2.929688 7.070313 2.929688 2.628906 0 5.207031-1.070313 7.066406-2.929688 1.859375-1.863281 2.933594-4.441406 2.933594-7.070312 0-2.632813-1.070313-5.210938-2.933594-7.070313-1.859375-1.859375-4.4375-2.929687-7.066406-2.929687zm0 0"/></svg>