<svg height="512pt" viewBox="-45 0 511 512" width="512pt" xmlns="http://www.w3.org/2000/svg"><path d="m93.714844 393.082031c-3.902344 3.90625-3.902344 10.238281 0 14.144531l63.910156 63.90625c1.875 1.875 4.417969 2.929688 7.070312 2.929688 2.652344 0 5.195313-1.054688 7.070313-2.929688 10.519531-10.519531 24.507813-16.3125 39.386719-16.3125 14.875 0 28.863281 5.792969 39.382812 16.3125 1.953125 1.953126 4.511719 2.929688 7.070313 2.929688 2.558593 0 5.121093-.976562 7.070312-2.929688l63.910157-63.90625c1.875-1.875 2.929687-4.417968 2.929687-7.070312s-1.054687-5.195312-2.929687-7.070312c-64.757813-64.757813-170.117188-64.757813-234.871094-.003907zm163.433594 57.296875c-7.476563-5.742187-15.882813-9.980468-24.839844-12.574218l21.796875-21.796876c3.902343-3.90625 3.902343-10.238281 0-14.144531-3.90625-3.902343-10.238281-3.902343-14.144531 0l-33.085938 33.089844c-15.269531.84375-29.699219 6.191406-41.722656 15.425781l-49.984375-49.984375c4.453125-3.886719 9.09375-7.453125 13.878906-10.710937l5.328125 9.226562c1.855469 3.210938 5.214844 5.003906 8.671875 5.003906 1.695313 0 3.414063-.433593 4.988281-1.34375 4.785156-2.761718 6.421875-8.875 3.660156-13.660156l-5.371093-9.300781c5.558593-2.75 11.257812-5.125 17.0625-7.121094l2.160156 8.066407c1.199219 4.46875 5.238281 7.414062 9.652344 7.414062.859375 0 1.730469-.109375 2.59375-.34375 5.335937-1.429688 8.503906-6.910156 7.074219-12.246094l-2.167969-8.089844c6.066406-1.195312 12.191406-2.003906 18.339843-2.425781v10.210938c0 5.523437 4.480469 10 10 10 5.523438 0 10-4.476563 10-10v-10.226563c6.15625.414063 12.285157 1.214844 18.355469 2.402344l-2.179687 8.128906c-1.429688 5.335938 1.738281 10.816406 7.070312 12.246094.867188.234375 1.738282.34375 2.59375.34375 4.417969 0 8.457032-2.945312 9.65625-7.414062l2.179688-8.136719c5.8125 1.992187 11.519531 4.363281 17.089844 7.109375l-5.417969 9.386718c-2.761719 4.78125-1.121094 10.898438 3.660156 13.660157 1.574219.90625 3.292969 1.339843 4.988281 1.339843 3.457032 0 6.820313-1.792968 8.671875-5l5.386719-9.332031c4.84375 3.28125 9.535156 6.882813 14.039062 10.8125zm0 0"/><path d="m372.417969 284c3.003906 0 5.847656-1.351562 7.746093-3.679688l39.167969-48c2.441407-2.992187 2.941407-7.121093 1.289063-10.609374-1.65625-3.488282-5.175782-5.710938-9.035156-5.710938h-82.542969v-206c0-5.523438-4.476563-10-10-10h-216c-5.523438 0-10 4.476562-10 10v206h-82.542969c-3.859375 0-7.378906 2.222656-9.035156 5.710938-1.652344 3.488281-1.152344 7.617187 1.285156 10.609374l39.167969 48c1.902343 2.328126 4.746093 3.679688 7.75 3.679688h20.875c5.523437 0 10-4.476562 10-10s-4.476563-10-10-10h-16.128907l-22.847656-28h358.953125l-22.851562 28h-217.125c-5.523438 0-10 4.476562-10 10s4.476562 10 10 10h22.625v27.066406c-90.585938 16.3125-159.53125 95.722656-159.53125 190.933594 0 5.523438 4.476562 10 10 10h374.8125c5.523437 0 10-4.476562 10-10 0-95.121094-68.816407-174.472656-159.28125-190.882812v-27.117188zm-137.269531-264v57.042969l-17.085938-16.847657c-1.945312-1.921874-4.484375-2.878906-7.019531-2.878906-2.539063 0-5.074219.957032-7.019531 2.878906l-17.085938 16.847657v-57.042969zm-122.105469 196v-196h53.894531v80.945312c0 4.035157 2.421875 7.671876 6.140625 9.226563s8.007813.726563 10.882813-2.105469l27.082031-26.707031 27.082031 26.707031c1.910156 1.882813 4.445312 2.878906 7.023438 2.878906 1.300781 0 2.609374-.25 3.859374-.773437 3.71875-1.554687 6.140626-5.191406 6.140626-9.226563v-80.945312h53.894531v196zm275.121093 276h-354.246093c5.199219-91.308594 81.128906-164 173.71875-164h6.8125c92.589843 0 168.519531 72.691406 173.714843 164zm-158.996093-184h-36v-24h36zm0 0"/><path d="m116.441406 281.070312c1.859375-1.859374 2.929688-4.441406 2.929688-7.070312 0-2.640625-1.070313-5.210938-2.929688-7.070312-1.859375-1.859376-4.429687-2.929688-7.070312-2.929688-2.628906 0-5.207032 1.070312-7.070313 2.929688-1.859375 1.859374-2.929687 4.441406-2.929687 7.070312s1.070312 5.210938 2.929687 7.070312c1.863281 1.859376 4.441407 2.929688 7.070313 2.929688 2.640625 0 5.210937-1.070312 7.070312-2.929688zm0 0"/><path d="m281.042969 159.15625h-26.5c-5.523438 0-10 4.480469-10 10 0 5.523438 4.476562 10 10 10h26.5c5.523437 0 10-4.476562 10-10 0-5.519531-4.476563-10-10-10zm0 0"/><path d="m221.34375 159.160156c-2.632812 0-5.210938 1.070313-7.070312 2.929688-1.859376 1.859375-2.929688 4.441406-2.929688 7.070312s1.070312 5.210938 2.929688 7.070313c1.859374 1.859375 4.4375 2.929687 7.070312 2.929687 2.628906 0 5.207031-1.070312 7.070312-2.929687 1.859376-1.859375 2.929688-4.441407 2.929688-7.070313s-1.070312-5.210937-2.929688-7.070312c-1.863281-1.859375-4.433593-2.929688-7.070312-2.929688zm0 0"/></svg>