<svg viewBox="0 0 512 512" xmlns="http://www.w3.org/2000/svg"><path d="m466.070312 158.75c4.988282-7.136719 7.929688-15.808594 7.929688-25.15625v-13.039062c3.832031-1.402344 6.574219-5.070313 6.574219-9.386719v-3.097657c0-27.886718-22.6875-50.574218-50.574219-50.574218s-50.574219 22.6875-50.574219 50.574218v3.097657c0 4.316406 2.742188 7.984375 6.574219 9.386719v13.039062c0 9.347656 2.9375 18.019531 7.929688 25.15625-25.0625 5.132812-44.222657 26.628906-45.8125 52.796875h-58.117188c-5.523438 0-10 4.476563-10 10v62h-40.566406v-62c0-5.523437-4.480469-10-10-10h-72c-5.523438 0-10 4.476563-10 10v62h-36v-133.421875l69.703125-69.703125 46.523437 46.519531c3.707032 3.710938 8.136719 6.273438 12.839844 7.695313v16.886719l-20.902344 20.902343c-1.875 1.875-2.929687 4.417969-2.929687 7.070313v18.46875c0 5.519531 4.480469 10 10 10 5.523437 0 10-4.480469 10-10v-14.324219l13.832031-13.832031 13.832031 13.832031v12.824219c0 5.523437 4.480469 10 10 10 5.523438 0 10-4.476563 10-10v-16.96875c0-2.652344-1.054687-5.195313-2.929687-7.070313l-20.902344-20.902343v-17.59375c3.9375-1.5 7.628906-3.824219 10.796875-6.988282 5.828125-5.828125 9.039063-13.578125 9.039063-21.820312 0-8.242188-3.210938-15.988282-9.039063-21.816406l-72.574219-72.578126c-.019531-.015624-.039062-.03125-.054687-.046874-14.355469-14.265626-37.640625-14.238282-51.964844.078124l-88.542969 88.542969c-20.5625 4.011719-36.136718 22.152344-36.136718 43.875v51.789063c0 5.519531 4.480468 10 10 10 5.523437 0 10-4.480469 10-10v-14.558594c7.082031 4.71875 15.578124 7.472656 24.703124 7.472656 9.128907 0 17.625-2.753906 24.707032-7.472656v106.714844c-.472656.199218-.933594.414062-1.398438.628906-7.449218-2.777344-15.277344-4.203125-23.308594-4.203125-8.726562 0-17.058593 1.699219-24.703124 4.757813v-19.34375c0-5.519532-4.476563-10-10-10-5.523438 0-10 4.480468-10 10v31.816406c-13.515626 12.222656-22.023438 29.882812-22.023438 49.496094v151.691406c0 5.519531 4.476562 10 10 10h456c5.519531 0 10-4.480469 10-10v-166.808594c20.078125-1.363281 36-18.125 36-38.546875v-81.546875c0-27.738281-19.75-50.953125-45.929688-56.3125zm-36.609374-1.167969c-12.984376-.289062-23.460938-10.933593-23.460938-23.988281v-12.425781h48v12.425781c0 13.054688-10.476562 23.699219-23.460938 23.988281zm30.328124-56.414062h-19.789062v-21.988281c9.835938 3.417968 17.410156 11.71875 19.789062 21.988281zm-39.789062-21.988281v21.988281h-19.789062c2.378906-10.269531 9.953124-18.570313 19.789062-21.988281zm-7 224.367187c13.785156 0 25 11.214844 25 25s-11.214844 25-25 25h-304c-13.785156 0-25-11.214844-25-25s11.214844-25 25-25zm-9 70h9c2.382812 0 4.71875-.191406 7-.546875v118.964844h-16zm-339.46875-38.097656c1.421875 9.21875 5.664062 17.515625 11.800781 23.996093-2.554687 2.414063-5.964843 3.8125-9.605469 3.8125-7.71875 0-14-6.277343-14-14 0-6.96875 5.125-12.75 11.804688-13.808593zm235.46875-103.902344h52v52h-52zm-132.566406 0h52v52h-52zm-20.585938-168.914063c4.210938 4.207032 9.261719 7.261719 14.777344 9.015626l-53.84375 53.84375c-4.601562-10.636719-13.210938-19.144532-23.921875-23.605469l54.007813-54.003907c1.71875 5.394532 4.707031 10.472657 8.980468 14.75zm113.488282 42.488282c0 2.898437-1.132813 5.625-3.183594 7.675781-4.230469 4.234375-11.121094 4.234375-15.351563 0l-46.523437-46.519531 3.476562-3.472656c4.199219-4.203126 7.25-9.246094 9.015625-14.746094l49.382813 49.386718c2.050781 2.050782 3.183594 4.777344 3.183594 7.675782zm-75.726563-80.21875c3.175781 3.171875 4.921875 7.390625 4.921875 11.878906 0 4.089844-1.464844 7.945312-4.121094 11-.269531.21875-.535156.453125-.789062.707031-6.515625 6.515625-17.117188 6.515625-23.632813 0-6.511719-6.515625-6.511719-17.113281 0-23.628906.152344-.152344.289063-.3125.429688-.472656 6.585937-6.011719 16.824219-5.855469 23.191406.515625zm-117.882813 142.976562c-13.621093 0-24.703124-11.082031-24.703124-24.703125 0-13.625 11.082031-24.707031 24.703124-24.707031 13.625 0 24.707032 11.082031 24.707032 24.707031 0 13.621094-11.082032 24.703125-24.707032 24.703125zm-46.726562 182.394532c0-25.765626 20.960938-46.726563 46.726562-46.726563 1.589844 0 3.164063.082031 4.722657.238281-2.328125 3.519532-4.179688 7.378906-5.449219 11.492188-18.414062.390625-33.273438 15.476562-33.273438 33.980468 0 18.75 15.253907 34 34 34 10.414063 0 20.046876-4.703124 26.425782-12.601562 4.933594 1.863281 10.273437 2.890625 15.847656 2.890625h4.457031v118.414063h-93.457031zm364 141.691406h-250.542969v-70.417969h117.042969c5.523438 0 10-4.480469 10-10 0-5.523437-4.476562-10-10-10h-117.042969v-28h250.542969zm56 0v-127.441406c7.488281-5.636719 13.167969-13.546876 16-22.699219v150.140625zm52-195.355469c0 9.382813-6.972656 17.148437-16 18.441406v-85.023437c0-5.523438-4.476562-10-10-10s-10 4.476562-10 10v62.082031.019531 23.140625c-5.679688-18.351562-22.808594-31.722656-43-31.722656h-9v-53.519531c0-5.523438-4.476562-10-10-10s-10 4.476562-10 10v53.519531h-12v-62c0-3.25-1.558594-6.132813-3.960938-7.957031.777344-19.988282 17.269532-36.007813 37.445313-36.007813h23.976563c.179687 0 .359374.011719.539062.011719.183594 0 .359375-.007812.539062-.011719h23.980469c20.667969 0 37.480469 16.8125 37.480469 37.480469zm0 0"/><path d="m32.019531 244.964844c2.628907 0 5.210938-1.070313 7.070313-2.933594 1.871094-1.859375 2.929687-4.4375 2.929687-7.066406 0-2.632813-1.058593-5.210938-2.929687-7.070313-1.859375-1.863281-4.429688-2.929687-7.070313-2.929687-2.628906 0-5.210937 1.066406-7.070312 2.929687-1.859375 1.859375-2.929688 4.4375-2.929688 7.070313 0 2.628906 1.070313 5.207031 2.929688 7.066406 1.859375 1.863281 4.441406 2.933594 7.070312 2.933594zm0 0"/><path d="m66.730469 133.171875c-2.640625 0-5.210938 1.070313-7.070313 2.929687-1.859375 1.863282-2.929687 4.441407-2.929687 7.070313 0 2.640625 1.070312 5.210937 2.929687 7.070313 1.859375 1.859374 4.429688 2.929687 7.070313 2.929687 2.628906 0 5.207031-1.070313 7.070312-2.929687 1.859375-1.859376 2.929688-4.4375 2.929688-7.070313 0-2.628906-1.070313-5.207031-2.929688-7.070313-1.863281-1.859374-4.441406-2.929687-7.070312-2.929687zm0 0"/><path d="m165.730469 43.742188c1.867187 1.859374 4.4375 2.929687 7.070312 2.929687 2.636719 0 5.207031-1.070313 7.078125-2.929687 1.859375-1.859376 2.929688-4.4375 2.929688-7.070313 0-2.628906-1.070313-5.207031-2.929688-7.070313-1.871094-1.855468-4.441406-2.929687-7.078125-2.929687-2.632812 0-5.203125 1.070313-7.070312 2.929687-1.859375 1.863282-2.921875 4.441407-2.921875 7.070313 0 2.632813 1.0625 5.210937 2.921875 7.070313zm0 0"/><path d="m202 318.542969c-2.628906 0-5.210938 1.070312-7.070312 2.929687-1.859376 1.863282-2.929688 4.441406-2.929688 7.070313 0 2.628906 1.070312 5.210937 2.929688 7.070312 1.859374 1.867188 4.441406 2.929688 7.070312 2.929688s5.210938-1.0625 7.070312-2.929688c1.859376-1.859375 2.929688-4.441406 2.929688-7.070312 0-2.628907-1.070312-5.210938-2.929688-7.070313-1.859374-1.859375-4.441406-2.929687-7.070312-2.929687zm0 0"/><path d="m138 318.542969c-2.628906 0-5.210938 1.070312-7.070312 2.929687-1.859376 1.863282-2.929688 4.441406-2.929688 7.070313 0 2.640625 1.070312 5.210937 2.929688 7.070312 1.859374 1.859375 4.429687 2.929688 7.070312 2.929688 2.628906 0 5.210938-1.070313 7.070312-2.929688 1.859376-1.859375 2.929688-4.429687 2.929688-7.070312 0-2.628907-1.070312-5.210938-2.929688-7.070313-1.859374-1.859375-4.441406-2.929687-7.070312-2.929687zm0 0"/><path d="m394 338.542969c2.628906 0 5.210938-1.0625 7.070312-2.929688 1.859376-1.859375 2.929688-4.429687 2.929688-7.070312 0-2.628907-1.070312-5.210938-2.929688-7.070313-1.859374-1.859375-4.441406-2.929687-7.070312-2.929687s-5.210938 1.070312-7.070312 2.929687c-1.859376 1.863282-2.929688 4.441406-2.929688 7.070313 0 2.640625 1.070312 5.210937 2.929688 7.070312 1.859374 1.871094 4.441406 2.929688 7.070312 2.929688zm0 0"/><path d="m266 318.542969c-2.628906 0-5.210938 1.070312-7.070312 2.929687-1.859376 1.863282-2.929688 4.441406-2.929688 7.070313 0 2.628906 1.070312 5.210937 2.929688 7.070312 1.859374 1.867188 4.441406 2.929688 7.070312 2.929688s5.210938-1.0625 7.070312-2.929688c1.859376-1.859375 2.929688-4.429687 2.929688-7.070312 0-2.628907-1.070312-5.210938-2.929688-7.070313-1.859374-1.859375-4.441406-2.929687-7.070312-2.929687zm0 0"/><path d="m330 318.542969c-2.628906 0-5.210938 1.070312-7.070312 2.929687-1.859376 1.863282-2.929688 4.441406-2.929688 7.070313 0 2.628906 1.070312 5.210937 2.929688 7.070312 1.859374 1.867188 4.441406 2.929688 7.070312 2.929688s5.210938-1.0625 7.070312-2.929688c1.859376-1.859375 2.929688-4.441406 2.929688-7.070312 0-2.628907-1.070312-5.210938-2.929688-7.070313-1.859374-1.859375-4.441406-2.929687-7.070312-2.929687zm0 0"/><path d="m288.898438 421.542969c2.632812 0 5.210937-1.0625 7.070312-2.929688 1.859375-1.859375 2.929688-4.429687 2.929688-7.070312 0-2.628907-1.070313-5.210938-2.929688-7.070313s-4.429688-2.929687-7.070312-2.929687c-2.628907 0-5.210938 1.070312-7.070313 2.929687s-2.929687 4.441406-2.929687 7.070313c0 2.640625 1.070312 5.210937 2.929687 7.070312 1.859375 1.871094 4.441406 2.929688 7.070313 2.929688zm0 0"/></svg>