<svg height="512pt" viewBox="0 0 512.001 512" width="512pt" xmlns="http://www.w3.org/2000/svg"><path d="m489.796875 129.992188c9.75-8.078126 15.972656-20.273438 15.972656-33.894532v-35.597656c0-24.261719-19.738281-44-44-44s-44 19.738281-44 44v3.171875h-11.101562c-5.523438 0-10 4.480469-10 10 0 5.523437 4.476562 10 10 10h11.101562v12.425781c0 12.480469 5.234375 23.757813 13.609375 31.773438-15.210937 9.324218-25.378906 26.101562-25.378906 45.214844v4.011718l-19.453125 11.949219-37.191406-7.933594c9.152343-13.21875 6.234375-31.46875-6.761719-41.136719-13.273438-9.871093-32.105469-7.101562-41.976562 6.171876-4.78125 6.429687-6.773438 14.335937-5.609376 22.265624.761719 5.167969 2.808594 9.933594 5.917969 13.957032-5.230469 4.292968-8.832031 10.179687-10.265625 16.894531-1.671875 7.839844-.191406 15.855469 4.167969 22.582031.425781.65625.882813 1.289063 1.351563 1.90625l-7.914063 22.375h-2.796875l-37.589844-237.691406c-.769531-4.859375-4.957031-8.4375-9.878906-8.4375h-56c-5.523438 0-10 4.476562-10 10v276.050781h-127c-24.8125 0-45 20.1875-45 45 0 21.375 14.984375 39.304688 35 43.863281v127.085938c0 5.523438 4.476562 10 10 10h317.332031c5.523438 0 10-4.476562 10-10v-245.871094c0-5.523437-4.476562-10-10-10h-52.851562l4.003906-11.324218c.085937.019531.171875.042968.257813.058593l72.023437 15.363281c2.050781.441407 4.160156.664063 6.257813.664063 4.882812 0 9.675781-1.191406 13.976562-3.460937v254.570312c0 5.523438 4.480469 10 10 10h86c5.523438 0 10-4.476562 10-10v-328.914062c0-17.746094-8.773438-33.46875-22.203125-43.09375zm-469.796875 201.058593c0-13.785156 11.214844-25 25-25h244.691406c13.785156 0 25 11.214844 25 25 0 13.785157-11.214844 25-25 25h-244.691406c-13.785156 0-25-11.214843-25-25zm162 160.949219h-127v-115.949219h230.332031v25.53125h-67.332031c-5.523438 0-10 4.480469-10 10 0 5.523438 4.476562 10 10 10h67.332031v70.417969zm170.332031 0h-47v-118.757812c17.125-6.371094 29.359375-22.875 29.359375-42.191407 0-24.8125-20.1875-45-45-45h-97.691406v-266.050781h37.457031l37.589844 237.691406c.769531 4.855469 4.957031 8.4375 9.878906 8.4375h75.40625zm85.4375-408.328125h48v12.425781c0 13.234375-10.765625 24-24 24-13.230469 0-24-10.765625-24-24zm0-23.171875c0-13.234375 10.769531-24 24-24 13.234375 0 24 10.765625 24 24v3.171875h-48zm-121.101562 97.582031c1.960937-2.636719 4.980469-4.027343 8.035156-4.027343 2.074219 0 4.167969.640624 5.957031 1.972656 4.421875 3.289062 5.347656 9.566406 2.054688 13.988281-1.59375 2.144531-3.925782 3.539063-6.570313 3.929687-2.636719.386719-5.277343-.277343-7.421875-1.871093-4.421875-3.289063-5.347656-9.566407-2.054687-13.992188zm73.269531 72.585938-72.023438-15.363281c-5.390624-1.148438-8.84375-6.472657-7.691406-11.867188.554688-2.613281 2.097656-4.851562 4.339844-6.304688 2.238281-1.453124 4.910156-1.949218 7.523438-1.386718l64.199218 13.695312c2.511719.535156 5.132813.085938 7.320313-1.261718l53.160156-32.652344c4.707031-2.890625 6.179687-9.050782 3.289063-13.753906-2.890626-4.703126-9.046876-6.179688-13.757813-3.285157l-9.023437 5.542969c3.945312-13.808594 16.667968-23.945312 31.726562-23.945312 18.195312 0 33 14.800781 33 33v82.914062h-66v-20.773438l14.683594-9.015624c4.703125-2.890626 6.175781-9.050782 3.285156-13.757813-2.890625-4.703125-9.046875-6.175781-13.753906-3.285156l-32.957032 20.242187c-2.171874 1.332032-4.824218 1.792969-7.320312 1.257813zm79.0625 261.332031v-162c0-5.523438-4.476562-10-10-10s-10 4.476562-10 10v162h-23v-216h66v216zm0 0"/><path d="m78.6875 341.050781c2.632812 0 5.210938-1.070312 7.070312-2.929687 1.859376-1.859375 2.929688-4.441406 2.929688-7.070313 0-2.628906-1.066406-5.210937-2.929688-7.070312-1.859374-1.859375-4.4375-2.929688-7.070312-2.929688-2.628906 0-5.207031 1.070313-7.066406 2.929688s-2.933594 4.441406-2.933594 7.070312c0 2.628907 1.070312 5.210938 2.933594 7.070313 1.859375 1.859375 4.4375 2.929687 7.066406 2.929687zm0 0"/><path d="m270.6875 341.050781c2.632812 0 5.210938-1.070312 7.070312-2.929687 1.859376-1.859375 2.929688-4.441406 2.929688-7.070313 0-2.628906-1.066406-5.210937-2.929688-7.070312-1.859374-1.859375-4.4375-2.929688-7.070312-2.929688-2.628906 0-5.207031 1.070313-7.066406 2.929688s-2.933594 4.441406-2.933594 7.070312c0 2.628907 1.070312 5.210938 2.933594 7.070313 1.859375 1.859375 4.4375 2.929687 7.066406 2.929687zm0 0"/><path d="m142.6875 341.050781c2.632812 0 5.210938-1.070312 7.070312-2.929687 1.859376-1.859375 2.929688-4.441406 2.929688-7.070313 0-2.628906-1.066406-5.210937-2.929688-7.070312-1.859374-1.859375-4.4375-2.929688-7.070312-2.929688-2.628906 0-5.207031 1.070313-7.066406 2.929688s-2.933594 4.441406-2.933594 7.070312c0 2.628907 1.070312 5.210938 2.933594 7.070313 1.859375 1.859375 4.4375 2.929687 7.066406 2.929687zm0 0"/><path d="m206.6875 341.050781c2.632812 0 5.210938-1.070312 7.070312-2.929687 1.859376-1.859375 2.929688-4.441406 2.929688-7.070313 0-2.628906-1.066406-5.210937-2.929688-7.070312-1.859374-1.859375-4.4375-2.929688-7.070312-2.929688-2.628906 0-5.207031 1.070313-7.066406 2.929688s-2.933594 4.441406-2.933594 7.070312c0 2.628907 1.070312 5.210938 2.933594 7.070313 1.859375 1.859375 4.4375 2.929687 7.066406 2.929687zm0 0"/><path d="m179.601562 401.582031c-2.632812 0-5.210937 1.066407-7.070312 2.929688-1.859375 1.859375-2.929688 4.4375-2.929688 7.070312 0 2.636719 1.070313 5.207031 2.929688 7.066407 1.859375 1.871093 4.4375 2.933593 7.070312 2.933593 2.628907 0 5.199219-1.0625 7.070313-2.933593 1.855469-1.859376 2.929687-4.429688 2.929687-7.066407 0-2.632812-1.070312-5.210937-2.929687-7.070312-1.863281-1.863281-4.441406-2.929688-7.070313-2.929688zm0 0"/><path d="m18.894531 226.542969v29.585937c0 5.519532 4.480469 10 10 10h81.167969c5.523438 0 10-4.480468 10-10v-26.738281c.132812-.207031.277344-.40625.398438-.625l18.882812-35.050781c2.089844-3.878906 1.394531-8.671875-1.714844-11.796875l-37.96875-38.144531v-99.105469c0-5.523438-4.476562-10-10-10-5.519531 0-10 4.476562-10 10v93.15625h-18.769531v-127.824219c0-5.523438-4.476563-10-10-10s-10 4.476562-10 10v133.769531l-37.964844 38.148438c-3.109375 3.125-3.808593 7.917969-1.714843 11.796875zm81.167969 19.585937h-61.167969v-32.128906h61.167969zm-44.941406-88.304687h30.3125l32.78125 32.9375-2.636719 4.898437c-1.582031-1.046875-3.476563-1.660156-5.515625-1.660156h-81.167969c-1.535156 0-2.984375.359375-4.285156.976562l-2.273437-4.210937zm0 0"/><path d="m89.660156 20c2.640625 0 5.210938-1.070312 7.070313-2.929688 1.859375-1.859374 2.929687-4.441406 2.929687-7.070312s-1.070312-5.210938-2.929687-7.070312c-1.859375-1.859376-4.441407-2.929688-7.070313-2.929688-2.632812 0-5.210937 1.070312-7.070312 2.929688-1.859375 1.863281-2.929688 4.441406-2.929688 7.070312s1.070313 5.210938 2.929688 7.070312c1.859375 1.859376 4.4375 2.929688 7.070312 2.929688zm0 0"/></svg>