<svg height="512pt" viewBox="0 0 512 512" width="512pt" xmlns="http://www.w3.org/2000/svg"><path d="m502 334.03125h-16.558594c-2.507812-8.726562-5.976562-17.117188-10.363281-25.070312l11.691406-11.695313c3.90625-3.902344 3.90625-10.234375 0-14.140625l-33.894531-33.894531c-3.902344-3.90625-10.238281-3.90625-14.140625 0l-11.65625 11.65625c-7.964844-4.414063-16.367187-7.902344-25.109375-10.425781v-16.460938c0-5.523438-4.480469-10-10-10h-40.023438c4.070313-14.09375 6.125-29.09375 6.125-44.964844 0-47.832031-18.632812-92.800781-52.460937-126.617187-33.8125-33.804688-78.761719-52.417969-126.574219-52.417969-.019531 0-.042968 0-.0625 0-98.6875.0351562-178.97656225 80.351562-178.972656 179.039062 0 45.214844 16.601562 83.40625 49.34375 113.511719 32.824219 30.179688 53.574219 70.554688 58.425781 113.6875l.039063.324219v79.4375c0 14.335938 11.664062 26 26 26h90.453125c14.335937 0 26-11.664062 26-26v-32.089844l32.863281 32.859375c3.90625 3.90625 10.238281 3.90625 14.140625 0l11.695313-11.691406c7.953124 4.386719 16.34375 7.855469 25.070312 10.363281v16.558594c0 5.523438 4.476562 10 10 10h47.9375c5.519531 0 10-4.476562 10-10v-16.597656c8.710938-2.515625 17.082031-5.984375 25.019531-10.375l11.746094 11.742187c3.902344 3.90625 10.234375 3.90625 14.140625 0l33.894531-33.894531c3.90625-3.902344 3.90625-10.234375 0-14.140625l-11.742187-11.746094c4.386718-7.9375 7.859375-16.308593 10.375-25.019531h16.597656c5.523438 0 10-4.476562 10-10v-47.9375c0-5.519531-4.476562-10-10-10zm-439.121094-56.203125c-28.453125-26.164063-42.878906-59.398437-42.878906-98.789063-.003906-87.664062 71.316406-159.007812 158.976562-159.039062h.058594c42.46875 0 82.398438 16.535156 112.4375 46.5625 30.046875 30.039062 46.597656 69.984375 46.597656 112.472656 0 39.394532-14.425781 72.628906-42.878906 98.792969-34.34375 31.574219-56.765625 73.285156-63.699218 118.171875h-18.457032v-21c0-5.523438-4.476562-10-10-10-5.523437 0-10 4.476562-10 10v21h-28v-124.332031c0-.898438-.121094-1.789063-.359375-2.65625l-21.761719-79.027344 3.089844 3.085937c3.902344 3.90625 10.234375 3.90625 14.140625 0l16.285157-16.285156 16.285156 16.285156c3.90625 3.90625 10.238281 3.90625 14.140625 0l10.277343-10.273437-23.738281 86.214844c-.238281.867187-.359375 1.757812-.359375 2.65625v31.097656c0 5.519531 4.476563 10 10 10 5.523438 0 10-4.480469 10-10v-29.746094l22.957032-83.382812 3.4375 3.433593c1.953124 1.953126 4.511718 2.929688 7.070312 2.929688s5.117188-.976562 7.070312-2.929688c3.90625-3.902343 3.90625-10.234374 0-14.140624l-23.355468-23.355469c-3.90625-3.90625-10.238282-3.90625-14.144532 0l-16.285156 16.285156-16.285156-16.285156c-3.902344-3.90625-10.234375-3.90625-14.140625 0l-16.285156 16.285156-16.285157-16.285156c-3.90625-3.90625-10.238281-3.90625-14.144531 0l-23.355469 23.355469c-3.90625 3.90625-3.90625 10.234374 0 14.140624s10.238282 3.90625 14.140626 0l7.519531-7.519531 24.085937 87.464844v122.984375h-18.457031c-6.933594-44.890625-29.355469-86.597656-63.699219-118.171875zm64.929688 138.171875h102.453125v28h-102.453125zm96.453125 76h-90.453125c-3.308594 0-6-2.691406-6-6v-22h102.453125v22c0 3.308594-2.691407 6-6 6zm26-54.300781v-31.136719l.039062-.328125c.125-1.136719.269531-2.269531.421875-3.402344 2.5 8.433594 5.894532 16.542969 10.164063 24.246094zm241.738281-55.730469h-14.375c-4.703125 0-8.769531 3.273438-9.773438 7.867188-2.585937 11.875-7.234374 23.082031-13.8125 33.3125-2.542968 3.957031-1.984374 9.152343 1.34375 12.480468l10.175782 10.175782-19.753906 19.753906-10.175782-10.179688c-3.328125-3.324218-8.523437-3.882812-12.480468-1.339844-10.230469 6.578126-21.4375 11.222657-33.3125 13.8125-4.59375 1.003907-7.867188 5.070313-7.867188 9.769532v14.378906h-27.9375v-14.347656c0-4.707032-3.28125-8.773438-7.878906-9.769532-11.890625-2.578124-23.117188-7.21875-33.363282-13.792968-3.957031-2.539063-9.148437-1.980469-12.472656 1.34375l-10.121094 10.125-19.753906-19.753906 10.09375-10.09375c3.328125-3.328126 3.886719-8.527344 1.335938-12.484376-6.601563-10.257812-11.269532-21.492187-13.863282-33.390624-1-4.59375-5.070312-7.871094-9.769531-7.871094h-3.46875c8.714844-33.855469 27.375-64.976563 53.957031-89.414063 6.089844-5.605469 11.621094-11.484375 16.59375-17.640625.0625-.027344.128907-.046875.191407-.074218 6.601562-3.011719 13.542969-5.316407 20.636719-6.855469 4.601562-.996094 7.882812-5.066407 7.882812-9.773438v-14.207031h27.933594v14.238281c0 4.703125 3.277344 8.769531 7.871094 9.769531 11.898437 2.597657 23.132812 7.261719 33.390624 13.863282 3.957032 2.550781 9.15625 1.992187 12.484376-1.335938l10.09375-10.09375 19.753906 19.753906-10.125 10.125c-3.324219 3.324219-3.882813 8.511719-1.34375 12.46875 6.570312 10.246094 11.210937 21.472657 13.789062 33.363282 1 4.601562 5.066406 7.878906 9.773438 7.878906h14.347656zm0 0"/><path d="m368 294c-40.804688 0-74 33.195312-74 74s33.195312 74 74 74 74-33.195312 74-74-33.195312-74-74-74zm0 128c-29.777344 0-54-24.222656-54-54s24.222656-54 54-54 54 24.222656 54 54-24.222656 54-54 54zm0 0"/><path d="m368 330c-20.953125 0-38 17.046875-38 38s17.046875 38 38 38 38-17.046875 38-38-17.046875-38-38-38zm0 56c-9.925781 0-18-8.074219-18-18s8.074219-18 18-18 18 8.074219 18 18-8.074219 18-18 18zm0 0"/><path d="m203.039062 330.328125c-2.640624 0-5.21875 1.070313-7.078124 2.933594-1.859376 1.859375-2.921876 4.4375-2.921876 7.066406 0 2.640625 1.0625 5.210937 2.921876 7.070313 1.859374 1.871093 4.4375 2.929687 7.078124 2.929687 2.632813 0 5.199219-1.058594 7.070313-2.929687 1.859375-1.859376 2.929687-4.429688 2.929687-7.070313 0-2.628906-1.070312-5.207031-2.929687-7.066406-1.871094-1.863281-4.4375-2.933594-7.070313-2.933594zm0 0"/><path d="m448 172.644531c5.523438 0 10-4.476562 10-10v-98.644531c0-5.523438-4.476562-10-10-10s-10 4.476562-10 10v98.644531c0 5.523438 4.476562 10 10 10zm0 0"/><path d="m448 213c2.628906 0 5.210938-1.070312 7.070312-2.929688 1.859376-1.859374 2.929688-4.441406 2.929688-7.070312s-1.070312-5.210938-2.929688-7.070312c-1.859374-1.859376-4.441406-2.929688-7.070312-2.929688s-5.210938 1.070312-7.070312 2.929688c-1.859376 1.859374-2.929688 4.441406-2.929688 7.070312s1.070312 5.210938 2.929688 7.070312c1.859374 1.859376 4.441406 2.929688 7.070312 2.929688zm0 0"/></svg>