<svg viewBox="0 0 512 512" xmlns="http://www.w3.org/2000/svg"><path d="m256 464c2.628906 0 5.210938-1.070312 7.070312-2.929688 1.859376-1.859374 2.929688-4.441406 2.929688-7.070312s-1.070312-5.210938-2.929688-7.070312c-1.859374-1.859376-4.441406-2.929688-7.070312-2.929688s-5.210938 1.070312-7.070312 2.929688c-1.859376 1.859374-2.929688 4.441406-2.929688 7.070312s1.070312 5.199219 2.929688 7.070312c1.859374 1.859376 4.441406 2.929688 7.070312 2.929688zm0 0"/><path d="m446.929688 446.929688c-1.859376 1.859374-2.929688 4.441406-2.929688 7.070312s1.070312 5.210938 2.929688 7.070312c1.859374 1.859376 4.441406 2.929688 7.070312 2.929688s5.210938-1.070312 7.070312-2.929688c1.859376-1.859374 2.929688-4.441406 2.929688-7.070312s-1.070312-5.210938-2.929688-7.070312c-1.859374-1.859376-4.441406-2.929688-7.070312-2.929688s-5.210938 1.070312-7.070312 2.929688zm0 0"/><path d="m65.070312 461.070312c1.859376-1.859374 2.929688-4.441406 2.929688-7.070312s-1.070312-5.210938-2.929688-7.070312c-1.859374-1.859376-4.441406-2.929688-7.070312-2.929688s-5.210938 1.070312-7.070312 2.929688c-1.859376 1.859374-2.929688 4.441406-2.929688 7.070312s1.070312 5.210938 2.929688 7.070312c1.859374 1.859376 4.441406 2.929688 7.070312 2.929688s5.210938-1.070312 7.070312-2.929688zm0 0"/><path d="m206.929688 42.929688c-1.859376 1.859374-2.917969 4.429687-2.917969 7.070312 0 2.628906 1.058593 5.210938 2.917969 7.070312 1.859374 1.859376 4.441406 2.929688 7.070312 2.929688 2.640625 0 5.210938-1.070312 7.070312-2.929688 1.867188-1.859374 2.9375-4.441406 2.9375-7.070312s-1.070312-5.210938-2.9375-7.070312c-1.859374-1.859376-4.429687-2.929688-7.070312-2.929688-2.628906 0-5.210938 1.070312-7.070312 2.929688zm0 0"/><path d="m446.695312 60h55.304688c5.523438 0 10-4.476562 10-10v-40c0-5.523438-4.476562-10-10-10h-492c-5.523438 0-10 4.476562-10 10v40c0 5.523438 4.476562 10 10 10h83.714844v79.003906l-26.070313 26.070313c-1.875 1.878906-2.929687 4.421875-2.929687 7.074219v23.484374c0 1.804688.484375 3.492188 1.320312 4.953126-.839844 2.183593-1.320312 4.546874-1.320312 7.019531v52.394531h-32.714844c-3.59375 0-6.910156 1.929688-8.6875 5.050781-1.78125 3.121094-1.746094 6.957031.085938 10.050781l22.316406 37.640626v84.578124c-26.097656 5.652344-45.714844 28.914063-45.714844 56.679688 0 31.980469 26.019531 58 58 58h396c31.980469 0 58-26.019531 58-58s-26.019531-58-58-58h-140v-86c0-5.523438-4.476562-10-10-10h-96c-5.523438 0-10 4.476562-10 10v86h-36.285156v-83.257812l22.316406-37.640626c1.832031-3.09375 1.867188-6.929687.085938-10.050781-1.777344-3.121093-5.09375-5.050781-8.6875-5.050781h-32.714844v-52.394531c0-2.472657-.480469-4.835938-1.320313-7.015625.835938-1.464844 1.320313-3.152344 1.320313-4.957032v-23.484374c0-2.652344-1.054688-5.195313-2.929688-7.070313l-26.070312-26.070313v-79.007812h46.984375c5.523437 0 10-4.476562 10-10s-4.476563-10-10-10h-46.984375v-3c0-5.523438-4.476563-10-10-10-5.523438 0-10 4.476562-10 10v3h-73.714844v-20h472v20h-45.304688v-2.230469c0-5.519531-4.480468-10-10-10-5.523437 0-10 4.480469-10 10v2.230469h-10.167968v-2.230469c0-5.519531-4.476563-10-10-10-5.523438 0-10 4.480469-10 10v2.230469h-141.40625c-5.519532 0-10 4.476562-10 10s4.480468 10 10 10h141.40625v51c0 3.242188.625 6.339844 1.75 9.1875l-63.105469 62.96875c-3.351563 3.34375-3.898437 8.574219-1.3125 12.539062l30.277344 46.460938v13.84375h-70.472657c-5.519531 0-10 4.476562-10 10s4.480469 10 10 10h70.472657v31.082031c0 5.523438 4.476562 10 10 10h96c5.523437 0 10-4.476562 10-10v-64.988281l30.242187-46.398438c2.597656-3.992187 2.023438-9.257812-1.371094-12.59375l-64.058593-62.925781c1.121093-2.847656 1.742187-5.9375 1.742187-9.175781v-51zm-238.695312 356h4.238281c-8.855469 10.1875-14.238281 23.472656-14.238281 38s5.382812 27.8125 14.238281 38h-110.476562c8.855469-10.1875 14.238281-23.472656 14.238281-38s-5.382812-27.8125-14.238281-38zm202.238281 0c-8.855469 10.1875-14.238281 23.472656-14.238281 38s5.382812 27.8125 14.238281 38h-110.476562c8.855469-10.1875 14.238281-23.472656 14.238281-38s-5.382812-27.8125-14.238281-38zm-116.238281 38c0 20.953125-17.046875 38-38 38s-38-17.046875-38-38 17.046875-38 38-38 38 17.046875 38 38zm-274 0c0-20.953125 17.046875-38 38-38s38 17.046875 38 38-17.046875 38-38 38-38-17.046875-38-38zm472 0c0 20.953125-17.046875 38-38 38s-38-17.046875-38-38 17.046875-38 38-38 38 17.046875 38 38zm-274-134h76v76h-76zm-152.285156 76v-76h76v76zm80.304687-96h-84.609375l-11.855468-20h108.320312zm-61.304687-40v-52h38v52zm38-72h-38v-11.710938l19-19 19 19zm303.980468-128v51c0 2.804688-2.28125 5.082031-5.085937 5.082031-2.800781 0-5.082031-2.277343-5.082031-5.082031v-51zm-42.558593 237.082031v-76h76v17.222657c-.046875.554687-.042969 1.105468 0 1.65625v57.121093zm95.070312-90.191406c-1.585937-3.425781-5.046875-5.808594-9.070312-5.808594h-96c-4.035157 0-7.507813 2.398438-9.085938 5.84375l-10.003906-15.347656 57.375-57.246094c2.847656 1.125 5.945313 1.753907 9.191406 1.753907 3.246094 0 6.351563-.628907 9.203125-1.757813l58.335938 57.304687zm0 0"/><path d="m315.472656 235c5.519532 0 10-4.476562 10-10s-4.480468-10-10-10h-28.472656c-5.523438 0-10 4.476562-10 10s4.476562 10 10 10zm0 0"/><path d="m248.050781 217.929688c-1.859375 1.859374-2.929687 4.441406-2.929687 7.070312s1.066406 5.210938 2.929687 7.070312c1.859375 1.859376 4.4375 2.929688 7.070313 2.929688 2.628906 0 5.207031-1.070312 7.066406-2.929688 1.863281-1.859374 2.933594-4.441406 2.933594-7.070312s-1.070313-5.210938-2.933594-7.070312c-1.859375-1.859376-4.4375-2.929688-7.066406-2.929688-2.632813 0-5.210938 1.070312-7.070313 2.929688zm0 0"/></svg>