<svg height="511pt" viewBox="0 -20 511.99927 511" width="511pt" xmlns="http://www.w3.org/2000/svg"><path d="m162.953125 140.269531-27.046875-7.246093c-5.335938-1.429688-10.816406 1.738281-12.246094 7.070312-1.429687 5.335938 1.734375 10.816406 7.070313 12.246094l27.046875 7.25c.863281.230468 1.734375.339844 2.59375.339844 4.414062 0 8.453125-2.945313 9.652344-7.410157 1.429687-5.335937-1.738282-10.820312-7.070313-12.25zm0 0"/><path d="m445.40625 215.941406-27.042969-7.25c-5.339843-1.429687-10.816406 1.738282-12.246093 7.074219-1.433594 5.332031 1.734374 10.816406 7.070312 12.246094l27.042969 7.246093c.867187.230469 1.738281.34375 2.59375.34375 4.414062 0 8.457031-2.949218 9.652343-7.417968 1.429688-5.332032-1.734374-10.816406-7.070312-12.242188zm0 0"/><path d="m501.988281 452.542969h-29.996093v-92.898438c5.523437-.957031 10.898437-2.867187 15.902343-5.757812 11.144531-6.433594 19.113281-16.820313 22.441407-29.246094 3.332031-12.429687 1.621093-25.414063-4.8125-36.554687-6.433594-11.144532-16.820313-19.113282-29.25-22.445313l-1.382813-.371094 36.757813-137.171875c.683593-2.5625.324218-5.292968-1-7.589844-1.328126-2.292968-3.511719-3.972656-6.074219-4.65625l-146.8125-39.339843c-5.335938-1.429688-10.816407 1.738281-12.246094 7.070312l-36.757813 137.175781-116.320312-31.167968 36.753906-137.160156c1.429688-5.335938-1.734375-10.820313-7.070312-12.25l-146.8125-39.339844c-2.5625-.683594-5.292969-.328125-7.589844 1-2.296875 1.324218-3.972656 3.507812-4.65625 6.070312l-39.339844 146.8125c-.425781 1.582032-.4375 3.171875-.117187 4.671875-10.878907 6.453125-18.664063 16.703125-21.941407 28.941407-3.332031 12.429687-1.6249995 25.410156 4.8125 36.554687 6.433594 11.144531 16.820313 19.113281 29.25 22.445313l4.285157 1.148437v204.054687h-29.875c-5.519531 0-10 4.476563-10 10 0 5.523438 4.480469 10 10 10h491.851562c5.523438 0 10-4.476562 10-10 0-5.523437-4.476562-9.996093-10-9.996093zm-62.472656-333.421875-7.789063 29.066406-4.957031-8.453125c-1.859375-3.167969-5.199219-4.941406-8.632812-4.941406-1.675781 0-3.375.421875-4.933594 1.308593l-8.519531 4.839844 7.789062-29.066406zm-77.269531-20.707032 30.90625 8.28125-13.972656 52.160157c-1.046876 3.894531.351562 8.035156 3.542968 10.5 3.1875 2.464843 7.546875 2.773437 11.054688.78125l20.730468-11.777344 12.066407 20.566406c1.8125 3.085938 5.109375 4.9375 8.621093 4.9375.445313 0 .894532-.027343 1.34375-.089843 3.996094-.539063 7.273438-3.425782 8.320313-7.320313l13.976563-52.160156 30.90625 8.285156-34.164063 127.496094-127.496094-34.164063zm-205.183594-54.960937-7.789062 29.066406-4.960938-8.453125c-1.859375-3.171875-5.199219-4.941406-8.632812-4.941406-1.675782 0-3.371094.421875-4.933594 1.308594l-8.519532 4.839844 7.789063-29.070313zm-77.269531-20.707031 30.90625 8.28125-13.976563 52.160156c-1.042968 3.894531.355469 8.03125 3.542969 10.496094 3.191406 2.46875 7.546875 2.777344 11.054687.785156l20.734376-11.777344 12.066406 20.566406c1.808594 3.085938 5.105468 4.9375 8.621094 4.9375.445312 0 .890624-.027343 1.339843-.089843 3.996094-.539063 7.277344-3.425781 8.320313-7.320313l13.976562-52.15625 30.910156 8.28125-34.167968 127.496094-127.492188-34.164062zm-55.996094 192.148437c-3.765625-6.519531-4.765625-14.109375-2.816406-21.378906s6.609375-13.34375 13.128906-17.105469c6.515625-3.765625 14.109375-4.761718 21.375-2.816406l415.613281 111.363281c7.273438 1.949219 13.347656 6.609375 17.109375 13.125 3.761719 6.519531 4.761719 14.109375 2.8125 21.378907-1.945312 7.269531-6.609375 13.34375-13.125 17.105468-6.515625 3.765625-14.109375 4.765625-21.378906 2.816406l-415.613281-111.363281c-7.269532-1.949219-13.34375-6.609375-17.105469-13.125zm388.195313 133.261719v104.386719h-311.984376v-187.980469zm-351.984376 104.386719v-198.699219l20 5.359375v193.339844zm371.984376 0v-99.027344l19.347656 5.183594c.214844.058593.433594.097656.652344.152343v93.691407zm0 0"/><path d="m461.992188 322.164062c2.628906 0 5.207031-1.066406 7.066406-2.929687 1.859375-1.859375 2.933594-4.4375 2.933594-7.066406 0-2.632813-1.070313-5.210938-2.933594-7.070313-1.859375-1.859375-4.4375-2.929687-7.066406-2.929687-2.632813 0-5.210938 1.070312-7.070313 2.929687s-2.929687 4.4375-2.929687 7.070313c0 2.636719 1.066406 5.207031 2.929687 7.066406 1.859375 1.863281 4.4375 2.929687 7.070313 2.929687zm0 0"/><path d="m87.425781 222.15625 331.976563 88.953125c.867187.234375 1.738281.34375 2.59375.34375 4.414062 0 8.457031-2.945313 9.652344-7.414063 1.429687-5.335937-1.734376-10.816406-7.070313-12.246093l-331.976563-88.953125c-5.335937-1.429688-10.816406 1.738281-12.246093 7.070312-1.429688 5.335938 1.734375 10.820313 7.070312 12.246094zm0 0"/><path d="m50.4375 211.890625c2.632812 0 5.210938-1.058594 7.070312-2.929687 1.859376-1.859376 2.929688-4.441407 2.929688-7.070313s-1.070312-5.199219-2.929688-7.070313c-1.859374-1.859374-4.4375-2.929687-7.070312-2.929687-2.636719 0-5.207031 1.070313-7.066406 2.929687-1.871094 1.859376-2.929688 4.441407-2.929688 7.070313s1.058594 5.210937 2.929688 7.070313c1.859375 1.871093 4.4375 2.929687 7.066406 2.929687zm0 0"/></svg>