<svg viewBox="0 0 512 512" xmlns="http://www.w3.org/2000/svg"><path d="m78.738281 65.070312c1.859375-1.859374 2.933594-4.441406 2.933594-7.070312s-1.070313-5.210938-2.933594-7.070312c-1.859375-1.859376-4.4375-2.929688-7.066406-2.929688-2.640625 0-5.210937 1.070312-7.070313 2.929688-1.859374 1.859374-2.929687 4.441406-2.929687 7.070312s1.058594 5.210938 2.929687 7.070312c1.859376 1.859376 4.429688 2.929688 7.070313 2.929688 2.628906 0 5.207031-1.070312 7.066406-2.929688zm0 0"/><path d="m502 0h-492c-5.523438 0-10 4.476562-10 10v48c0 5.523438 4.476562 10 10 10h23.667969c5.519531 0 10-4.476562 10-10s-4.480469-10-10-10h-13.667969v-28h348.171875v28h-255.839844c-5.519531 0-10 4.476562-10 10s4.480469 10 10 10h256.039063c.929687 4.5625 4.964844 8 9.800781 8h26v49.023438l-74.617187 56.414062c-2.5 1.890625-3.96875 4.84375-3.96875 7.976562v65.585938c0 3.988281 2.367187 7.59375 6.027343 9.179688l24.558594 10.625v23.195312c0 5.523438 4.476563 10 10 10h96c5.519531 0 10-4.476562 10-10v-23.070312l24.59375-10.769532c3.640625-1.59375 5.992187-5.1875 5.992187-9.160156v-65.585938c0-3.132812-1.472656-6.085937-3.972656-7.976562l-74.613281-56.414062v-49.023438h26c4.835937 0 8.871094-3.433594 9.796875-8h42.03125c5.523438 0 10-4.476562 10-10v-48c0-5.523438-4.476562-10-10-10zm-125.828125 226.144531 23.855469 23.855469-23.855469 23.855469zm38 38 23.855469 23.855469h-47.714844zm14.140625-14.144531 23.859375-23.855469v47.714844zm-14.140625-14.144531-23.859375-23.855469h47.714844zm68.585937 12.605469-10.585937 4.632812v-51.09375c0-5.523438-4.480469-10-10-10h-96c-5.523437 0-10 4.476562-10 10v51.011719l-10.585937-4.582031v-54.039063l68.585937-51.855469 68.585937 51.855469zm-94.585937-228.460938h52v36h-52zm103.828125 28h-31.828125v-28h31.828125zm0 0"/><path d="m414.171875 28c-2.632813 0-5.210937 1.070312-7.070313 2.929688-1.859374 1.859374-2.929687 4.441406-2.929687 7.070312s1.066406 5.210938 2.929687 7.070312c1.859376 1.859376 4.4375 2.929688 7.070313 2.929688 2.628906 0 5.207031-1.070312 7.066406-2.929688 1.859375-1.859374 2.933594-4.441406 2.933594-7.070312s-1.070313-5.210938-2.933594-7.070312c-1.859375-1.859376-4.4375-2.929688-7.066406-2.929688zm0 0"/><path d="m502 396c-2.628906 0-5.210938 1.070312-7.070312 2.929688-1.859376 1.859374-2.929688 4.441406-2.929688 7.070312s1.070312 5.210938 2.929688 7.070312c1.859374 1.859376 4.441406 2.929688 7.070312 2.929688s5.210938-1.070312 7.070312-2.929688c1.859376-1.859374 2.929688-4.441406 2.929688-7.070312s-1.070312-5.210938-2.929688-7.070312c-1.859374-1.859376-4.441406-2.929688-7.070312-2.929688zm0 0"/><path d="m502 492h-86.238281c8.855469-10.1875 14.238281-23.472656 14.238281-38s-5.382812-27.8125-14.238281-38h48.90625c5.519531 0 10-4.476562 10-10s-4.480469-10-10-10h-150.539063v-86c0-5.523438-4.480468-10-10-10h-96c-5.523437 0-10 4.476562-10 10v86h-42.046875v-86c0-5.523438-4.476562-10-10-10h-96c-5.519531 0-10 4.476562-10 10v86h-30.082031c-5.523438 0-10 4.476562-10 10s4.476562 10 10 10h80.238281c-8.855469 10.1875-14.238281 23.472656-14.238281 38s5.382812 27.8125 14.238281 38h-80.238281c-5.523438 0-10 4.476562-10 10s4.476562 10 10 10h492c5.523438 0 10-4.476562 10-10s-4.476562-10-10-10zm-92-38c0 20.953125-17.046875 38-38 38s-38-17.046875-38-38 17.046875-38 38-38 38 17.046875 38 38zm-273.917969-72.144531-23.855469-23.855469 23.855469-23.855469zm-38-38-23.855469-23.855469h47.714844zm-14.140625 14.144531-23.859375 23.855469v-47.714844zm14.140625 14.144531 23.859375 23.855469h-47.714844zm196.046875 9.839844-23.984375-23.984375 23.984375-23.984375zm-14.273437 14.015625h-47.714844l23.859375-23.855469zm-23.855469-52.144531-23.855469-23.855469h47.714844zm-14.144531 14.144531-23.726563 23.730469v-47.460938zm86.382812 58c-8.855469 10.1875-14.238281 23.472656-14.238281 38s5.382812 27.8125 14.238281 38h-150.476562c8.855469-10.1875 14.238281-23.472656 14.238281-38s-5.382812-27.8125-14.238281-38zm-232.238281 38c0-20.953125 17.046875-38 38-38s38 17.046875 38 38-17.046875 38-38 38-38-17.046875-38-38zm0 0"/><path d="m134 444c-2.628906 0-5.210938 1.070312-7.070312 2.929688-1.859376 1.859374-2.929688 4.441406-2.929688 7.070312s1.070312 5.210938 2.929688 7.070312c1.859374 1.859376 4.441406 2.929688 7.070312 2.929688s5.210938-1.070312 7.070312-2.929688c1.859376-1.859374 2.929688-4.441406 2.929688-7.070312s-1.070312-5.210938-2.929688-7.070312c-1.859374-1.859376-4.441406-2.929688-7.070312-2.929688zm0 0"/><path d="m372 464c2.628906 0 5.210938-1.070312 7.070312-2.929688 1.859376-1.859374 2.929688-4.441406 2.929688-7.070312s-1.070312-5.210938-2.929688-7.070312c-1.859374-1.859376-4.441406-2.929688-7.070312-2.929688s-5.210938 1.070312-7.070312 2.929688c-1.859376 1.859374-2.929688 4.441406-2.929688 7.070312s1.070312 5.210938 2.929688 7.070312c1.859374 1.859376 4.441406 2.929688 7.070312 2.929688zm0 0"/></svg>