<svg height="512pt" viewBox="0 -63 512 512" width="512pt" xmlns="http://www.w3.org/2000/svg"><path d="m330 110.257812c-2.628906 0-5.210938 1.070313-7.070312 2.929688-1.859376 1.859375-2.929688 4.441406-2.929688 7.070312 0 2.628907 1.070312 5.210938 2.929688 7.070313 1.859374 1.859375 4.441406 2.929687 7.070312 2.929687s5.210938-1.070312 7.070312-2.929687c1.859376-1.859375 2.929688-4.441406 2.929688-7.070313 0-2.628906-1.070312-5.210937-2.929688-7.070312-1.859374-1.859375-4.441406-2.929688-7.070312-2.929688zm0 0"/><path d="m502 193.632812h-132c-5.523438 0-10 4.476563-10 10v122h-20v-164.875c0-5.523437-4.476562-10-10-10s-10 4.476563-10 10v164.875h-20v-305.632812h20v64.257812c0 5.519532 4.476562 10 10 10s10-4.480468 10-10v-74.257812c0-5.523438-4.476562-10-10-10h-40c-5.523438 0-10 4.476562-10 10v178.847656l-59.027344-148.871094c-4.421875-11.144531-15.023437-18.34375-27.015625-18.34375h-84.898437c-16.023438 0-29.058594 13.035157-29.058594 29.058594v112.125h-70c-5.523438 0-10 4.476563-10 10v121.195313c0 5.519531 4.476562 10 10 10s10-4.480469 10-10v-16.253907h45.417969l36.328125 47.105469c1.894531 2.453125 4.820312 3.894531 7.921875 3.894531h53.832031c3.085938 0 6-1.425781 7.894531-3.863281l28.496094-36.636719h80.109375v47.375c0 5.523438 4.476562 10 10 10h212c5.523438 0 10-4.476562 10-10v-132c0-5.523437-4.476562-10-10-10zm-392.941406-152h84.898437c3.738281 0 7.042969 2.246094 8.421875 5.71875l70.308594 177.316407h-21.382812l-40.339844-40.34375 4.4375-4.4375c3.902344-3.90625 3.902344-10.238281 0-14.140625-3.90625-3.90625-10.238282-3.90625-14.144532 0l-22.027343 22.027344c-3.90625 3.90625-3.90625 10.238281 0 14.140624 1.953125 1.953126 4.511719 2.929688 7.070312 2.929688 2.558594 0 5.121094-.976562 7.070313-2.929688l3.449218-3.445312 26.199219 26.199219h-69.53125l-53.488281-56.878907v-117.097656c0-4.996094 4.0625-9.058594 9.058594-9.058594zm85.941406 226.625c-3.085938 0-6 1.421876-7.894531 3.859376l-28.496094 36.640624h-44.027344l-36.328125-47.109374c-1.894531-2.453126-4.820312-3.890626-7.921875-3.890626h-50.332031v-74.941406h66.675781l55.207031 58.703125c1.890626 2.007813 4.523438 3.148438 7.285157 3.148438h130.832031v23.589843zm255.144531.726563 41.855469-41.855469v83.714844zm-70.144531-41.855469 41.855469 41.855469-41.855469 41.859375zm14.789062-13.496094h82.421876l-41.210938 41.210938zm-1.292968 112 42.503906-42.503906 42.503906 42.503906zm0 0"/><path d="m228.058594 330.597656c-2.636719 0-5.21875 1.070313-7.078125 2.929688s-2.929688 4.441406-2.929688 7.070312 1.070313 5.210938 2.929688 7.070313 4.441406 2.929687 7.078125 2.929687c2.632812 0 5.203125-1.070312 7.0625-2.929687 1.871094-1.859375 2.929687-4.441407 2.929687-7.070313s-1.058593-5.210937-2.929687-7.070312c-1.859375-1.859375-4.433594-2.929688-7.0625-2.929688zm0 0"/><path d="m46 350.597656c2.628906 0 5.210938-1.070312 7.070312-2.929687 1.859376-1.859375 2.929688-4.441407 2.929688-7.070313s-1.070312-5.210937-2.929688-7.070312c-1.859374-1.859375-4.441406-2.929688-7.070312-2.929688s-5.210938 1.070313-7.070312 2.929688c-1.859376 1.859375-2.929688 4.429687-2.929688 7.070312 0 2.628906 1.070312 5.210938 2.929688 7.070313 1.859374 1.859375 4.441406 2.929687 7.070312 2.929687zm0 0"/><path d="m305 366.597656h-39.023438c5.089844-7.402344 8.078126-16.359375 8.078126-26 0-25.363281-20.636719-46-46-46-25.363282 0-46 20.636719-46 46 0 9.640625 2.988281 18.597656 8.082031 26h-106.214844c5.089844-7.402344 8.078125-16.359375 8.078125-26 0-25.363281-20.636719-46-46-46s-46 20.636719-46 46c0 9.71875 3.035156 18.734375 8.199219 26.167969-4.660157.847656-8.199219 4.921875-8.199219 9.832031 0 5.523438 4.476562 10 10 10h295c5.523438 0 10-4.476562 10-10 0-5.523437-4.476562-10-10-10zm-102.945312-26c0-14.335937 11.664062-26 26-26 14.335937 0 26 11.664063 26 26 0 14.335938-11.664063 26-26 26-14.335938 0-26-11.664062-26-26zm-156.054688-26c14.335938 0 26 11.664063 26 26 0 14.335938-11.664062 26-26 26s-26-11.664062-26-26c0-14.335937 11.664062-26 26-26zm0 0"/><path d="m345.058594 366.597656c-2.636719 0-5.207032 1.070313-7.078125 2.929688-1.859375 1.859375-2.921875 4.441406-2.921875 7.070312s1.0625 5.210938 2.921875 7.070313 4.441406 2.929687 7.078125 2.929687c2.632812 0 5.210937-1.070312 7.070312-2.929687s2.929688-4.441407 2.929688-7.070313-1.066406-5.210937-2.929688-7.070312c-1.867187-1.859375-4.441406-2.929688-7.070312-2.929688zm0 0"/></svg>